<?xml version="1.0" encoding="UTF-8"?>
<svg width="51px" height="48px" viewBox="0 0 51 48" version="1.1" xmlns="http://www.w3.org/2000/svg" xmlns:xlink="http://www.w3.org/1999/xlink">
    <title>artificialisation@1x</title>
    <g id="Page-1" stroke="none" stroke-width="1" fill="none" fill-rule="evenodd">
        <g id="noun_Almond_2187220-Copy-2" transform="translate(-2.147870, -5.000000)" fill="#91C423">
            <path d="M51.52,32.984 C52.136,32.984 52.64,32.48 52.64,31.864 L52.64,31.304 C52.64,29.512 51.464,28.056 49.84,27.552 L49.84,17.304 C49.84,17.304 49.84,17.304 49.84,17.304 C49.84,17.248 49.84,17.192 49.84,17.136 C49.84,17.136 49.84,17.136 49.84,17.08 C49.84,17.024 49.784,16.968 49.784,16.912 C49.784,16.856 49.728,16.8 49.728,16.8 C49.728,16.744 49.672,16.744 49.672,16.688 C49.672,16.688 49.616,16.632 49.616,16.632 C49.56,16.576 49.56,16.52 49.504,16.52 C49.448,16.464 49.448,16.464 49.392,16.408 C49.392,16.408 49.392,16.408 49.336,16.408 C49.28,16.352 49.224,16.352 49.168,16.296 C49.168,16.296 49.168,16.296 49.168,16.296 L21.728,5.096 C21.728,5.096 21.728,5.096 21.728,5.096 L21.728,5.096 C21.728,5.096 21.672,5.096 21.672,5.096 C21.616,5.096 21.56,5.04 21.504,5.04 C21.448,5.04 21.392,5.04 21.392,5.04 C21.336,5.04 21.336,5.04 21.28,5.04 L15.68,5.04 C15.68,5.04 15.624,5.04 15.624,5.04 C15.568,5.04 15.568,5.04 15.512,5.04 C15.456,5.04 15.456,5.04 15.4,5.04 C15.344,5.04 15.344,5.04 15.288,5.096 C15.232,5.096 15.232,5.152 15.176,5.152 C15.12,5.152 15.12,5.208 15.064,5.208 C15.008,5.208 15.008,5.264 14.952,5.264 C14.952,5.264 14.896,5.264 14.896,5.32 L2.576,16.52 C2.576,16.52 2.576,16.52 2.576,16.52 C2.52,16.576 2.52,16.576 2.52,16.632 C2.52,16.632 2.464,16.688 2.464,16.688 C2.464,16.744 2.408,16.744 2.408,16.8 C2.408,16.856 2.352,16.856 2.352,16.912 C2.352,16.968 2.352,16.968 2.296,17.024 C2.296,17.08 2.296,17.08 2.24,17.136 C2.24,17.192 2.24,17.192 2.24,17.248 C2.24,17.304 2.24,17.304 2.24,17.36 C2.24,17.36 2.24,17.36 2.24,17.36 L2.24,24.08 C2.24,24.696 2.744,25.2 3.36,25.2 L10.08,25.2 C10.696,25.2 11.2,24.696 11.2,24.08 L11.2,18.424 L14.56,18.424 L14.56,22.904 L14.56,28.504 L14.56,34.104 L14.56,39.704 L14.56,45.304 L14.56,49.784 L3.36,49.784 C2.744,49.784 2.24,50.288 2.24,50.904 C2.24,51.52 2.744,52.024 3.36,52.024 L15.68,52.024 L21.28,52.024 L51.52,52.024 C52.136,52.024 52.64,51.52 52.64,50.904 C52.64,50.288 52.136,49.784 51.52,49.784 L22.4,49.784 L22.4,45.304 L22.4,39.704 L22.4,34.104 L22.4,28.504 L22.4,22.904 L22.4,18.424 L47.6,18.424 L47.6,27.552 C45.976,28.056 44.8,29.512 44.8,31.304 L44.8,31.864 C44.8,32.48 45.304,32.984 45.92,32.984 C46.536,32.984 47.04,32.48 47.04,31.864 L47.04,31.304 C47.04,30.352 47.768,29.624 48.72,29.624 C49.672,29.624 50.4,30.352 50.4,31.304 L50.4,31.864 C50.4,32.48 50.904,32.984 51.52,32.984 Z M20.16,27.384 L16.8,27.384 L16.8,24.024 L20.16,24.024 L20.16,27.384 Z M20.16,32.984 L16.8,32.984 L16.8,29.624 L20.16,29.624 L20.16,32.984 Z M20.16,38.584 L16.8,38.584 L16.8,35.224 L20.16,35.224 L20.16,38.584 Z M16.8,40.824 L20.16,40.824 L20.16,44.184 L16.8,44.184 L16.8,40.824 Z M20.16,21.784 L16.8,21.784 L16.8,18.424 L20.16,18.424 L20.16,21.784 Z M10.08,16.184 L6.272,16.184 L14.56,8.624 L14.56,11.704 L14.56,16.184 L10.08,16.184 Z M16.8,16.184 L16.8,12.824 L20.16,12.824 L20.16,16.184 L16.8,16.184 Z M22.4,11.704 L22.4,7.784 L43.008,16.184 L22.4,16.184 L22.4,11.704 Z M16.8,7.224 L20.16,7.224 L20.16,10.584 L16.8,10.584 L16.8,7.224 Z M8.96,22.904 L4.48,22.904 L4.48,18.424 L8.96,18.424 L8.96,22.904 Z M16.8,49.784 L16.8,46.424 L20.16,46.424 L20.16,49.784 L16.8,49.784 Z" id="Shape"></path>
        </g>
    </g>
</svg>