<?xml version="1.0" encoding="UTF-8"?>
<svg width="36px" height="36px" viewBox="0 0 36 36" version="1.1" xmlns="http://www.w3.org/2000/svg" xmlns:xlink="http://www.w3.org/1999/xlink">
    <title>autres-cultures</title>
    <g id="Page-1" stroke="none" stroke-width="1" fill="none" fill-rule="evenodd">
        <g id="surface3-" transform="translate(-824.000000, -2460.000000)" fill="#62D5F3" fill-rule="nonzero">
            <g id="Group-2" transform="translate(220.000000, 2055.000000)">
                <g id="autres-cultures" transform="translate(604.000000, 405.000000)">
                    <path d="M0.132140661,35.8657136 C0.219890076,35.9550851 0.335089308,36 0.450288541,36 C0.565487773,36 0.680687006,35.9550851 0.768436421,35.8657136 C14.9923916,21.3783617 35.3651059,20.337069 35.5689545,20.328361 C35.8173529,20.3178197 36.0099516,20.1037864 35.9996017,19.8512546 C35.9897017,19.5982644 35.7813531,19.4053136 35.5311548,19.4126467 C35.4231555,19.4172298 29.7455433,19.7059686 22.285043,22.0667515 C11.0967676,16.5142597 0.574487713,16.0046129 0.469188415,16 C0.230240007,15.9972798 0.0110914674,16.1856475 0.000741536387,16.4386376 C-0.00960839465,16.6911694 0.182990322,16.9052028 0.431388667,16.915744 C0.531737998,16.9203272 10.3488726,17.4011001 21.0354014,22.4760272 C19.6197108,22.9563419 18.1500206,23.5122785 16.6501806,24.1530035 C10.2287234,21.336655 4.33241267,20.1051613 0.512388127,19.5689323 C0.259039815,19.5345586 0.0385412845,19.7100934 0.0052415064,19.9603337 C-0.0289582657,20.2110322 0.143390586,20.4424815 0.389538946,20.4768552 C3.99671491,20.9832938 9.48352835,22.1212911 15.5026882,24.6566922 C14.2156968,25.2392112 12.9116055,25.8868109 11.6048142,26.604533 C8.05928784,25.1920047 4.33601265,24.0952558 0.536237968,23.3449934 C0.294139581,23.2991618 0.0565411646,23.4595722 0.00884148241,23.7079792 C-0.0384082027,23.9563862 0.120890736,24.1970018 0.364789111,24.2451249 C3.86081581,24.935348 7.28979297,25.9262261 10.5725211,27.1870519 C9.42637873,27.8497761 8.28203635,28.5674981 7.14804391,29.3470927 C5.01550812,28.5532903 2.80017288,27.8630672 0.558287821,27.2984226 C0.316639431,27.2379249 0.0731910536,27.3873358 0.0133414524,27.6329929 C-0.0465081488,27.87865 0.100640871,28.1270569 0.341839263,28.1880129 C2.34207593,28.6921599 4.31801277,29.3012612 6.2341,29.9914842 C4.13081402,31.5075918 2.07477772,33.238191 0.131690664,35.2171972 C-0.0438081668,35.3963985 -0.0438081668,35.6865122 0.132140661,35.8657136 Z" id="Path"></path>
                    <path d="M35.4938052,24.0042322 C29.30962,24.8129309 17.4061992,27.3484019 7.16439404,35.2500006 C6.97333719,35.3973822 6.94483453,35.6634293 7.09981771,35.8441724 C7.18755244,35.9467906 7.31581439,36 7.44541239,36 C7.54428097,36 7.64314955,35.9691723 7.72598539,35.9054055 C17.7998921,28.1338743 29.5233899,25.6376769 35.6153868,24.8412248 C35.8589954,24.8091302 36.029566,24.5962925 35.9957191,24.3652961 C35.9627629,24.1342996 35.7432034,23.971293 35.4938052,24.0042322 Z" id="Path"></path>
                    <path d="M35.991865,27.361504 C35.9462337,27.1198116 35.7211193,26.9610616 35.4825328,27.0083299 C30.3083779,28.0375292 22.5893004,30.2903519 15.1992027,35.1794945 C14.9975558,35.3128266 14.9393216,35.5888554 15.0692622,35.7957655 C15.1522677,35.9277598 15.2926382,36 15.4351817,36 C15.5160143,36 15.5972815,35.9772577 15.6702916,35.9286517 C22.9439207,31.1166545 30.5487028,28.8977222 35.6481092,27.8836844 C35.8836536,27.837308 36.0379309,27.6036423 35.991865,27.361504 Z" id="Path"></path>
                    <path d="M22.4858125,36 C22.5567005,36 22.6295306,35.9835151 22.6979909,35.9479696 C26.7216127,33.8713892 31.0729701,32.2120825 35.631165,31.0153828 C35.8914113,30.9468675 36.050181,30.6676548 35.9856049,30.3915329 C35.9210289,30.114896 35.6564128,29.946441 35.397623,30.0154715 C30.773881,31.228656 26.3584331,32.9132052 22.2731485,35.0212099 C22.0323236,35.1458769 21.931818,35.4539382 22.0488317,35.7099691 C22.1323436,35.8933634 22.3056793,36 22.4858125,36 Z" id="Path"></path>
                </g>
            </g>
        </g>
    </g>
</svg>