<?xml version="1.0" encoding="UTF-8"?>
<svg width="52px" height="52px" viewBox="0 0 52 52" version="1.1" xmlns="http://www.w3.org/2000/svg" xmlns:xlink="http://www.w3.org/1999/xlink">
    <title>baisse-depollution@1x</title>
    <g id="Page-1" stroke="none" stroke-width="1" fill="none" fill-rule="evenodd">
        <g id="baisse-depollution" transform="translate(26.136150, 26.099274) rotate(-135.000000) translate(-26.136150, -26.099274) translate(3.788732, 11.954620)" fill="#4A90E2">
            <path d="M0.418726764,15.1686714 L12.3375642,27.8246024 C12.8940145,28.3995438 13.7955087,28.4661724 14.4443282,27.8826698 C15.0243178,27.3610313 15.0387691,26.3436613 14.5024314,25.7772067 L4.93476409,15.6338804 L43.2049344,15.6338804 C44.0278402,15.6338804 44.6948357,14.9672968 44.6948357,14.1449736 C44.6948357,13.3226504 44.0278402,12.6559924 43.2049344,12.6559924 L4.93476409,12.6559924 L14.5024314,2.51265856 C15.0386946,1.94627842 15.0006295,0.953922054 14.4443282,0.407269929 C13.8568895,-0.16983034 12.8855225,-0.118463056 12.3375642,0.465337293 L0.418726764,13.1212013 C-0.185770438,13.8059495 -0.0913899135,14.5835311 0.418726764,15.1686714 L0.418726764,15.1686714 Z" id="Path"></path>
        </g>
    </g>
</svg>