<?xml version="1.0" encoding="UTF-8"?>
<svg width="56px" height="54px" viewBox="0 0 56 54" version="1.1" xmlns="http://www.w3.org/2000/svg" xmlns:xlink="http://www.w3.org/1999/xlink">
    <title>biodiversite@1x</title>
    <g id="Page-1" stroke="none" stroke-width="1" fill="none" fill-rule="evenodd">
        <g id="biodiversite" transform="translate(0.751299, 0.307779)" fill="#000000" fill-rule="nonzero">
            <path d="M3.91106358,30.4654088 C4.45173142,30.4654088 4.88876311,30.8934043 4.88876311,31.4228931 L4.88876311,34.562484 L6.53756535,35.1004104 C7.45550962,33.4794205 9.22132115,32.3798986 11.2438101,32.3798986 L12.2215096,32.3798986 C14.2439985,32.3798986 16.00981,33.4794205 16.9277543,35.1004104 L18.5765565,34.562484 L18.5765565,31.4228931 C18.5765565,30.8934043 19.0135882,30.4654088 19.5542561,30.4654088 L21.5096551,30.4654088 C22.050323,30.4654088 22.4873547,30.8934043 22.4873547,31.4228931 C22.4873547,31.9514244 22.050323,32.3803774 21.5096551,32.3803774 L20.5319556,32.3803774 L20.5319556,35.2528302 C20.5319556,35.6645484 20.2630882,36.0303074 19.8632091,36.1605253 L17.5474155,36.9163947 C17.5813255,37.1549282 17.598857,37.3985265 17.598857,37.6460621 L17.598857,38.1248043 C18.1395248,38.1248043 18.5765565,38.5537572 18.5765565,39.0822886 L18.576,39.4974088 L22.9908699,42.0916616 C23.4533218,42.3635872 23.6038875,42.9514825 23.3252432,43.4053301 C23.1424133,43.7040652 22.8187948,43.8697099 22.486377,43.8697099 C22.3152795,43.8697099 22.141249,43.8256657 21.9838394,43.7327897 L18.576,41.7294088 L18.576,43.4714088 L21.2231892,46.0647426 C21.4852126,46.3213484 21.5761387,46.7014697 21.4588148,47.0452065 L20.5847514,49.6150943 L21.4588148,52.1840247 C21.6299122,52.6857464 21.3532232,53.2276825 20.8409087,53.3952423 C20.7382502,53.4287542 20.6336364,53.4450314 20.5319556,53.4450314 C20.1222995,53.4450314 19.7409967,53.1912981 19.6050964,52.7901122 L18.6273969,49.9176594 C18.5589579,49.7204176 18.5589579,49.5088136 18.6273969,49.3115718 L19.4124896,47.0011623 L18.4645316,46.0721895 C17.8805367,49.1917619 15.0834399,51.5630961 11.7326598,51.5630961 C8.38152141,51.5630961 5.58418461,49.1912546 5.00060077,46.0711885 L4.05283001,47.0011623 L4.83792274,49.3115718 C4.9063617,49.5088136 4.9063617,49.7204176 4.83792274,49.9176594 L3.8602232,52.7901122 C3.72432297,53.1912981 3.34302015,53.4450314 2.93336405,53.4450314 C2.8316833,53.4450314 2.72706945,53.4287542 2.624411,53.3952423 C2.11209644,53.2276825 1.83540748,52.6857464 2.0065049,52.1840247 L2.88056828,49.6150943 L2.0065049,47.0452065 C1.88918095,46.7014697 1.98010701,46.3213484 2.24213048,46.0647426 L4.888,43.4724088 L4.888,41.7294088 L1.48138248,43.7327897 C1.32397285,43.8256657 1.14994234,43.8697099 0.978844919,43.8697099 C0.646427078,43.8697099 0.322808534,43.7040652 0.139978721,43.4053301 C-0.138665645,42.9514825 0.0119000829,42.3635872 0.474351961,42.0916616 L4.888,39.4974088 L4.88876311,39.0822886 C4.88876311,38.5537572 5.3257948,38.1248043 5.86646264,38.1248043 L5.86646264,37.6460621 C5.86646264,37.3985265 5.8839941,37.1549282 5.91790416,36.9163947 L3.60211053,36.1605253 C3.20223142,36.0303074 2.93336405,35.6645484 2.93336405,35.2528302 L2.93336405,32.3803774 L1.95566452,32.3803774 C1.41499668,32.3803774 0.977964989,31.9514244 0.977964989,31.4228931 C0.977964989,30.8934043 1.41499668,30.4654088 1.95566452,30.4654088 L3.91106358,30.4654088 Z M35.1974486,30.4654088 C35.7381164,30.4654088 36.1751481,30.8934043 36.1751481,31.4228931 L36.1751481,34.562484 L37.8239503,35.1004104 C38.7418946,33.4794205 40.5077061,32.3798986 42.530195,32.3798986 L43.5078946,32.3798986 C45.5303835,32.3798986 47.296195,33.4794205 48.2141393,35.1004104 L49.8629415,34.562484 L49.8629415,31.4228931 C49.8629415,30.8934043 50.2999732,30.4654088 50.840641,30.4654088 L52.7960401,30.4654088 C53.3367079,30.4654088 53.7737396,30.8934043 53.7737396,31.4228931 C53.7737396,31.9514244 53.3367079,32.3803774 52.7960401,32.3803774 L51.8183406,32.3803774 L51.8183406,35.2528302 C51.8183406,35.6645484 51.5494732,36.0303074 51.1495941,36.1605253 L48.8338005,36.9163947 C48.8677105,37.1549282 48.885242,37.3985265 48.885242,37.6460621 L48.885242,38.1248043 C49.4259098,38.1248043 49.8629415,38.5537572 49.8629415,39.0822886 L49.862385,39.4974088 L54.2772549,42.0916616 C54.7397068,42.3635872 54.8902725,42.9514825 54.6116281,43.4053301 C54.4287983,43.7040652 54.1051798,43.8697099 53.7727619,43.8697099 C53.6016645,43.8697099 53.427634,43.8256657 53.2702244,43.7327897 L49.862385,41.7294088 L49.862385,43.4714088 L52.5095741,46.0647426 C52.7715976,46.3213484 52.8625237,46.7014697 52.7451997,47.0452065 L51.8711364,49.6150943 L52.7451997,52.1840247 C52.9162971,52.6857464 52.6396082,53.2276825 52.1272936,53.3952423 C52.0246352,53.4287542 51.9200213,53.4450314 51.8183406,53.4450314 C51.4086845,53.4450314 51.0273817,53.1912981 50.8914814,52.7901122 L49.9137819,49.9176594 C49.8453429,49.7204176 49.8453429,49.5088136 49.9137819,49.3115718 L50.6988746,47.0011623 L49.7509166,46.0721895 C49.1669217,49.1917619 46.3698248,51.5630961 43.0190448,51.5630961 C39.6679064,51.5630961 36.8705696,49.1912546 36.2869857,46.0711885 L35.339215,47.0011623 L36.1243077,49.3115718 C36.1927467,49.5088136 36.1927467,49.7204176 36.1243077,49.9176594 L35.1466082,52.7901122 C35.0107079,53.1912981 34.6294051,53.4450314 34.219749,53.4450314 C34.1180683,53.4450314 34.0134544,53.4287542 33.910796,53.3952423 C33.3984814,53.2276825 33.1217925,52.6857464 33.2928899,52.1840247 L34.1669533,49.6150943 L33.2928899,47.0452065 C33.1755659,46.7014697 33.266492,46.3213484 33.5285155,46.0647426 L36.174385,43.4724088 L36.174385,41.7294088 L32.7677675,43.7327897 C32.6103578,43.8256657 32.4363273,43.8697099 32.2652299,43.8697099 C31.9328121,43.8697099 31.6091935,43.7040652 31.4263637,43.4053301 C31.1477193,42.9514825 31.2982851,42.3635872 31.7607369,42.0916616 L36.174385,39.4974088 L36.1751481,39.0822886 C36.1751481,38.5537572 36.6121798,38.1248043 37.1528476,38.1248043 L37.1528476,37.6460621 C37.1528476,37.3985265 37.1703791,37.1549282 37.2042891,36.9163947 L34.8884955,36.1605253 C34.4886164,36.0303074 34.219749,35.6645484 34.219749,35.2528302 L34.219749,32.3803774 L33.2420495,32.3803774 C32.7013817,32.3803774 32.26435,31.9514244 32.26435,31.4228931 C32.26435,30.8934043 32.7013817,30.4654088 33.2420495,30.4654088 L35.1974486,30.4654088 Z M47.9075425,40.0397728 L38.1305471,40.0397728 L38.1305471,44.8607062 C38.1305471,47.5004903 40.3235272,49.6481275 43.0190448,49.6481275 C45.7145624,49.6481275 47.9075425,47.5004903 47.9075425,44.8607062 L47.9075425,40.0397728 Z M16.6211575,40.0397728 L6.84416217,40.0397728 L6.84416217,44.8607062 C6.84416217,47.5004903 9.03714222,49.6481275 11.7326598,49.6481275 C14.4281774,49.6481275 16.6211575,47.5004903 16.6211575,44.8607062 L16.6211575,40.0397728 Z M43.5078946,34.2948672 L42.530195,34.2948672 C40.6432349,34.2948672 39.1082467,35.7981175 39.1082467,37.6460621 L39.1082467,38.1248043 L46.9298429,38.1248043 L46.9298429,37.6460621 C46.9298429,35.7981175 45.3948547,34.2948672 43.5078946,34.2948672 Z M12.2215096,34.2948672 L11.2438101,34.2948672 C9.35684997,34.2948672 7.8218617,35.7981175 7.8218617,37.6460621 L7.8218617,38.1248043 L15.6434579,38.1248043 L15.6434579,37.6460621 C15.6434579,35.7981175 14.1084697,34.2948672 12.2215096,34.2948672 Z M34.0800777,0 C34.6207455,0 35.0577772,0.427995472 35.0577772,0.957484277 L35.0577772,4.09707522 L36.7065794,4.63500158 C37.6245237,3.01401173 39.3903352,1.91448981 41.4128241,1.91448981 L42.3905237,1.91448981 C44.4130126,1.91448981 46.1788241,3.01401173 47.0967684,4.63500158 L48.7455706,4.09707522 L48.7455706,0.957484277 C48.7455706,0.427995472 49.1826023,0 49.7232702,0 L51.6786692,0 C52.2193371,0 52.6563687,0.427995472 52.6563687,0.957484277 C52.6563687,1.4860156 52.2193371,1.91496855 51.6786692,1.91496855 L50.7009697,1.91496855 L50.7009697,4.78742138 C50.7009697,5.19913962 50.4321023,5.56489862 50.0322232,5.69511648 L47.7164296,6.45098591 C47.7503396,6.68951944 47.7678711,6.93311766 47.7678711,7.18065333 L47.7678711,7.65939547 C48.3085389,7.65939547 48.7455706,8.08834843 48.7455706,8.61687975 L48.7450141,9.032 L53.159884,11.6262528 C53.6223359,11.8981784 53.7729016,12.4860737 53.4942572,12.9399213 C53.3114274,13.2386564 52.9878089,13.4043011 52.655391,13.4043011 C52.4842936,13.4043011 52.3102631,13.3602569 52.1528535,13.2673809 L48.7450141,11.264 L48.7450141,13.006 L51.3922033,15.5993338 C51.6542267,15.8559396 51.7451528,16.2360609 51.6278288,16.5797977 L50.7537655,19.1496855 L51.6278288,21.7186158 C51.7989263,22.2203376 51.5222373,22.7622737 51.0099227,22.9298335 C50.9072643,22.9633454 50.8026504,22.9796226 50.7009697,22.9796226 C50.2913136,22.9796226 49.9100108,22.7258893 49.7741105,22.3247034 L48.796411,19.4522506 C48.727972,19.2550088 48.727972,19.0434048 48.796411,18.846163 L49.5815037,16.5357535 L48.6335457,15.6067807 C48.0495508,18.7263531 45.2524539,21.0976873 41.9016739,21.0976873 C38.5505355,21.0976873 35.7531987,18.7258458 35.1696149,15.6057797 L34.2218441,16.5357535 L35.0069368,18.846163 C35.0753758,19.0434048 35.0753758,19.2550088 35.0069368,19.4522506 L34.0292373,22.3247034 C33.8933371,22.7258893 33.5120342,22.9796226 33.1023781,22.9796226 C33.0006974,22.9796226 32.8960835,22.9633454 32.7934251,22.9298335 C32.2811105,22.7622737 32.0044216,22.2203376 32.175519,21.7186158 L33.0495824,19.1496855 L32.175519,16.5797977 C32.058195,16.2360609 32.1491211,15.8559396 32.4111446,15.5993338 L35.0570141,13.007 L35.0570141,11.264 L31.6503966,13.2673809 C31.4929869,13.3602569 31.3189564,13.4043011 31.147859,13.4043011 C30.8154412,13.4043011 30.4918226,13.2386564 30.3089928,12.9399213 C30.0303484,12.4860737 30.1809142,11.8981784 30.643366,11.6262528 L35.0570141,9.032 L35.0577772,8.61687975 C35.0577772,8.08834843 35.4948089,7.65939547 36.0354767,7.65939547 L36.0354767,7.18065333 C36.0354767,6.93311766 36.0530082,6.68951944 36.0869182,6.45098591 L33.7711246,5.69511648 C33.3712455,5.56489862 33.1023781,5.19913962 33.1023781,4.78742138 L33.1023781,1.91496855 L32.1246786,1.91496855 C31.5840108,1.91496855 31.1469791,1.4860156 31.1469791,0.957484277 C31.1469791,0.427995472 31.5840108,0 32.1246786,0 L34.0800777,0 Z M3.91106358,0 C4.45173142,0 4.88876311,0.427995472 4.88876311,0.957484277 L4.88876311,4.09707522 L6.53756535,4.63500158 C7.45550962,3.01401173 9.22132115,1.91448981 11.2438101,1.91448981 L12.2215096,1.91448981 C14.2439985,1.91448981 16.00981,3.01401173 16.9277543,4.63500158 L18.5765565,4.09707522 L18.5765565,0.957484277 C18.5765565,0.427995472 19.0135882,0 19.5542561,0 L21.5096551,0 C22.050323,0 22.4873547,0.427995472 22.4873547,0.957484277 C22.4873547,1.4860156 22.050323,1.91496855 21.5096551,1.91496855 L20.5319556,1.91496855 L20.5319556,4.78742138 C20.5319556,5.19913962 20.2630882,5.56489862 19.8632091,5.69511648 L17.5474155,6.45098591 C17.5813255,6.68951944 17.598857,6.93311766 17.598857,7.18065333 L17.598857,7.65939547 C18.1395248,7.65939547 18.5765565,8.08834843 18.5765565,8.61687975 L18.576,9.032 L22.9908699,11.6262528 C23.4533218,11.8981784 23.6038875,12.4860737 23.3252432,12.9399213 C23.1424133,13.2386564 22.8187948,13.4043011 22.486377,13.4043011 C22.3152795,13.4043011 22.141249,13.3602569 21.9838394,13.2673809 L18.576,11.264 L18.576,13.006 L21.2231892,15.5993338 C21.4852126,15.8559396 21.5761387,16.2360609 21.4588148,16.5797977 L20.5847514,19.1496855 L21.4588148,21.7186158 C21.6299122,22.2203376 21.3532232,22.7622737 20.8409087,22.9298335 C20.7382502,22.9633454 20.6336364,22.9796226 20.5319556,22.9796226 C20.1222995,22.9796226 19.7409967,22.7258893 19.6050964,22.3247034 L18.6273969,19.4522506 C18.5589579,19.2550088 18.5589579,19.0434048 18.6273969,18.846163 L19.4124896,16.5357535 L18.4645316,15.6067807 C17.8805367,18.7263531 15.0834399,21.0976873 11.7326598,21.0976873 C8.38152141,21.0976873 5.58418461,18.7258458 5.00060077,15.6057797 L4.05283001,16.5357535 L4.83792274,18.846163 C4.9063617,19.0434048 4.9063617,19.2550088 4.83792274,19.4522506 L3.8602232,22.3247034 C3.72432297,22.7258893 3.34302015,22.9796226 2.93336405,22.9796226 C2.8316833,22.9796226 2.72706945,22.9633454 2.624411,22.9298335 C2.11209644,22.7622737 1.83540748,22.2203376 2.0065049,21.7186158 L2.88056828,19.1496855 L2.0065049,16.5797977 C1.88918095,16.2360609 1.98010701,15.8559396 2.24213048,15.5993338 L4.888,13.007 L4.888,11.264 L1.48138248,13.2673809 C1.32397285,13.3602569 1.14994234,13.4043011 0.978844919,13.4043011 C0.646427078,13.4043011 0.322808534,13.2386564 0.139978721,12.9399213 C-0.138665645,12.4860737 0.0119000829,11.8981784 0.474351961,11.6262528 L4.888,9.032 L4.88876311,8.61687975 C4.88876311,8.08834843 5.3257948,7.65939547 5.86646264,7.65939547 L5.86646264,7.18065333 C5.86646264,6.93311766 5.8839941,6.68951944 5.91790416,6.45098591 L3.60211053,5.69511648 C3.20223142,5.56489862 2.93336405,5.19913962 2.93336405,4.78742138 L2.93336405,1.91496855 L1.95566452,1.91496855 C1.41499668,1.91496855 0.977964989,1.4860156 0.977964989,0.957484277 C0.977964989,0.427995472 1.41499668,0 1.95566452,0 L3.91106358,0 Z M46.7901716,9.57436403 L37.0131763,9.57436403 L37.0131763,14.3952974 C37.0131763,17.0350815 39.2061563,19.1827187 41.9016739,19.1827187 C44.5971915,19.1827187 46.7901716,17.0350815 46.7901716,14.3952974 L46.7901716,9.57436403 Z M16.6211575,9.57436403 L6.84416217,9.57436403 L6.84416217,14.3952974 C6.84416217,17.0350815 9.03714222,19.1827187 11.7326598,19.1827187 C14.4281774,19.1827187 16.6211575,17.0350815 16.6211575,14.3952974 L16.6211575,9.57436403 Z M42.3905237,3.82945836 L41.4128241,3.82945836 C39.5258641,3.82945836 37.9908758,5.33270868 37.9908758,7.18065333 L37.9908758,7.65939547 L45.812472,7.65939547 L45.812472,7.18065333 C45.812472,5.33270868 44.2774838,3.82945836 42.3905237,3.82945836 Z M12.2215096,3.82945836 L11.2438101,3.82945836 C9.35684997,3.82945836 7.8218617,5.33270868 7.8218617,7.18065333 L7.8218617,7.65939547 L15.6434579,7.65939547 L15.6434579,7.18065333 C15.6434579,5.33270868 14.1084697,3.82945836 12.2215096,3.82945836 Z" id="Combined-Shape"></path>
        </g>
    </g>
</svg>