<?xml version="1.0" encoding="UTF-8"?>
<svg width="22px" height="38px" viewBox="0 0 22 38" version="1.1" xmlns="http://www.w3.org/2000/svg" xmlns:xlink="http://www.w3.org/1999/xlink">
    <title>cereales@1x</title>
    <g id="Page-1" stroke="none" stroke-width="1" fill="none" fill-rule="evenodd">
        <g id="cereales" transform="translate(0.590909, 0.000000)" fill="#F5A623">
            <path d="M21.4090909,13.3902468 L21.4090909,9.87230358 C21.4090909,9.63900652 21.3039443,9.41522445 21.1163734,9.25025849 C20.9288025,9.08529252 20.674356,8.99267767 20.4090909,8.99281777 L16.4090909,8.99281777 C16.1543259,9.00291946 15.900399,9.02549862 15.6484908,9.06045023 C16.469243,6.88347983 15.8078039,4.48546316 13.9440909,2.88122692 L11.1161409,0.393909131 C10.7256296,0.050515138 10.0925522,0.050515138 9.70204092,0.393909131 L6.87409097,2.88122692 C5.01037264,4.48551748 4.34898845,6.88359752 5.169841,9.06058216 C4.91788604,9.02558148 4.66390886,9.00295827 4.40909091,8.99281777 L0.409090909,8.99281777 C0.143825784,8.99267767 -0.110620694,9.08529252 -0.298191613,9.25025849 C-0.485762532,9.41522445 -0.590909091,9.63900652 -0.590909091,9.87230358 L-0.590909091,13.3902468 C-0.584509962,14.3230865 -0.334205926,15.2421297 0.140641078,16.0762844 C0.227119394,16.0493507 0.317501354,16.0333313 0.409090909,16.0287042 C0.143825784,16.0285641 -0.110620694,16.121179 -0.298191613,16.286145 C-0.485762532,16.4511109 -0.590909091,16.674893 -0.590909091,16.90819 L-0.590909091,20.4261333 C-0.584509962,21.358973 -0.334205926,22.2780162 0.140641078,23.1121709 C0.227119394,23.0852371 0.317501354,23.0692178 0.409090909,23.0645907 C0.143825784,23.0644506 -0.110620694,23.1570655 -0.298191613,23.3220314 C-0.485762532,23.4869974 -0.590909091,23.7107795 -0.590909091,23.9440765 L-0.590909091,27.4620197 C-0.586225373,30.8603983 2.54503944,33.6143013 6.40909091,33.6184204 L9.40909091,33.6184204 L9.40909091,36.2568778 C9.40909091,36.7426044 9.85680617,37.1363636 10.4090909,37.1363636 C10.9613756,37.1363636 11.4090909,36.7426044 11.4090909,36.2568778 L11.4090909,33.6184204 L14.4090909,33.6184204 C18.2731538,33.6143255 21.4044347,30.8604083 21.4090909,27.4620197 L21.4090909,23.9440765 C21.4090909,23.7107795 21.3039443,23.4869974 21.1163734,23.3220314 C20.9288025,23.1570655 20.674356,23.0644506 20.4090909,23.0645907 C20.5006805,23.0692178 20.5910624,23.0852371 20.6775407,23.1121709 C21.1523877,22.2780162 21.4026918,21.358973 21.4090909,20.4261333 L21.4090909,16.90819 C21.4090909,16.674893 21.3039443,16.4511109 21.1163734,16.286145 C20.9288025,16.121179 20.674356,16.0285641 20.4090909,16.0287042 C20.5006805,16.0333313 20.5910624,16.0493507 20.6775407,16.0762844 C21.1523877,15.2421297 21.4026918,14.3230865 21.4090909,13.3902468 Z M8.28799094,4.12486383 L10.4090909,2.25938648 L12.5301909,4.12486383 C14.2608827,5.63933238 14.4850183,8.03493636 13.0590909,9.77784681 C11.9631225,10.3067394 11.0481188,11.0840201 10.4090909,12.0289787 C9.77006298,11.0840201 8.85505936,10.3067394 7.75909095,9.77784681 C6.3331635,8.03493636 6.55729914,5.63933238 8.28799094,4.12486383 L8.28799094,4.12486383 Z M1.40909106,13.3902468 L1.40909106,10.7517894 L4.40909106,10.7517894 C7.16931522,10.7543343 9.40619725,12.7216404 9.40909106,15.1492184 L9.40909106,17.7876759 L9.26519093,17.7876759 L9.26519093,17.7876759 C7.97301822,16.6618186 6.22800407,16.0297414 4.40909106,16.0287042 L2.43409104,16.0287042 C1.77286392,15.2717876 1.41272919,14.344763 1.40909106,13.3902468 Z M1.40909106,20.4261333 L1.40909106,17.7876759 L4.40909106,17.7876759 C7.16931522,17.7902208 9.40619725,19.7575268 9.40909106,22.1851049 L9.40909106,24.8235623 L9.26519093,24.8235623 L9.26519093,24.8235623 C7.97301822,23.6977051 6.22800407,23.0656278 4.40909106,23.0645907 L2.43409104,23.0645907 C1.77286392,22.3076741 1.41272919,21.3806495 1.40909106,20.4261333 Z M9.40909106,31.8594488 L6.40909106,31.8594488 C3.64886676,31.8569038 1.41198474,29.8895978 1.40909106,27.4620197 L1.40909106,24.8235623 L4.40909106,24.8235623 C7.16931522,24.8261073 9.40619725,26.7934133 9.40909106,29.2209914 L9.40909106,31.8594488 Z M19.4090909,27.4620197 C19.4061971,29.8895978 17.1693151,31.8569038 14.4090909,31.8594488 L11.4090909,31.8594488 L11.4090909,29.2209914 C11.4119846,26.7934133 13.6488666,24.8261073 16.4090909,24.8235623 L19.4090909,24.8235623 L19.4090909,27.4620197 Z M16.4090909,23.0645907 C14.5901431,23.0656047 12.8450882,23.6976837 11.5528909,24.8235623 L11.5528909,24.8235623 L11.4090909,24.8235623 L11.4090909,22.1851049 C11.4119846,19.7575268 13.6488666,17.7902208 16.4090909,17.7876759 L19.4090909,17.7876759 L19.4090909,20.4261333 C19.4054526,21.3806495 19.0453179,22.3076741 18.3840908,23.0645907 L16.4090909,23.0645907 Z M16.4090909,16.0287042 C14.5901431,16.0297182 12.8450882,16.6617972 11.5528909,17.7876759 L11.5528909,17.7876759 L11.4090909,17.7876759 L11.4090909,15.1492184 C11.4119846,12.7216404 13.6488666,10.7543343 16.4090909,10.7517894 L19.4090909,10.7517894 L19.4090909,13.3902468 C19.4054526,14.344763 19.0453179,15.2717876 18.3840908,16.0287042 L16.4090909,16.0287042 Z" id="Shape"></path>
        </g>
    </g>
</svg>