<?xml version="1.0" encoding="UTF-8"?>
<svg width="22px" height="39px" viewBox="0 0 22 39" version="1.1" xmlns="http://www.w3.org/2000/svg" xmlns:xlink="http://www.w3.org/1999/xlink">
    <title>cereale@1x</title>
    <g id="Page-1" stroke="none" stroke-width="1" fill="none" fill-rule="evenodd">
        <path d="M22,14.4949082 L22,10.8818855 C22,10.6422831 21.8948534,10.4124528 21.7072825,10.2430283 C21.5197116,10.0736038 21.2652651,9.97848587 21,9.97862976 L17,9.97862976 C16.745235,9.98900447 16.4913081,10.0121939 16.2393999,10.0480901 C17.0601521,7.81228268 16.398713,5.34945475 14.5349999,3.70186078 L11.70705,1.14731818 C11.3165387,0.794643272 10.6834613,0.794643272 10.29295,1.14731818 L7.46500006,3.70186078 C5.60128173,5.34951054 4.93989754,7.81240356 5.76075009,10.0482256 C5.50879514,10.012279 5.25481795,9.98904433 5,9.97862976 L1,9.97862976 C0.734734874,9.97848587 0.480288397,10.0736038 0.292717478,10.2430283 C0.105146559,10.4124528 0,10.6422831 0,10.8818855 L0,14.4949082 C0.00639912844,15.4529598 0.256703165,16.396842 0.731550168,17.2535415 C0.818028485,17.2258797 0.908410445,17.2094275 1,17.2046753 C0.734734874,17.2045314 0.480288397,17.2996494 0.292717478,17.4690739 C0.105146559,17.6384984 0,17.8683286 0,18.107931 L0,21.7209538 C0.00639912844,22.6790054 0.256703165,23.6228876 0.731550168,24.479587 C0.818028485,24.4519253 0.908410445,24.435473 1,24.4307209 C0.734734874,24.430577 0.480288397,24.5256949 0.292717478,24.6951195 C0.105146559,24.864544 0,25.0943742 0,25.3339766 L0,28.9469994 C0.0046837175,32.437226 3.13594853,35.2655588 7,35.2697892 L10,35.2697892 L10,37.9795563 C10,38.4784107 10.4477153,38.882812 11,38.882812 C11.5522847,38.882812 12,38.4784107 12,37.9795563 L12,35.2697892 L15,35.2697892 C18.8640629,35.2655836 21.9953438,32.4372363 22,28.9469994 L22,25.3339766 C22,25.0943742 21.8948534,24.864544 21.7072825,24.6951195 C21.5197116,24.5256949 21.2652651,24.430577 21,24.4307209 C21.0915896,24.435473 21.1819715,24.4519253 21.2684498,24.479587 C21.7432968,23.6228876 21.9936009,22.6790054 22,21.7209538 L22,18.107931 C22,17.8683286 21.8948534,17.6384984 21.7072825,17.4690739 C21.5197116,17.2996494 21.2652651,17.2045314 21,17.2046753 C21.0915896,17.2094275 21.1819715,17.2258797 21.2684498,17.2535415 C21.7432968,16.396842 21.9936009,15.4529598 22,14.4949082 Z M8.87890003,4.97910949 L11,3.06321384 L13.1211,4.97910949 C14.8517918,6.53450962 15.0759274,8.99485966 13.65,10.7848758 C12.5540315,11.3280628 11.6390279,12.1263511 11,13.0968491 C10.3609721,12.1263511 9.44596845,11.3280628 8.35000004,10.7848758 C6.9240726,8.99485966 7.14820823,6.53450962 8.87890003,4.97910949 L8.87890003,4.97910949 Z M2.00000015,14.4949082 L2.00000015,11.7851412 L5.00000015,11.7851412 C7.76022431,11.7877549 9.99710634,13.8082313 10.0000001,16.3014196 L10.0000001,19.0111867 L9.85610002,19.0111867 L9.85610002,19.0111867 C8.56392731,17.8549009 6.81891316,17.2057405 5.00000015,17.2046753 L3.02500013,17.2046753 C2.36377301,16.4273015 2.00363828,15.4752222 2.00000015,14.4949082 Z M2.00000015,21.7209538 L2.00000015,19.0111867 L5.00000015,19.0111867 C7.76022431,19.0138004 9.99710634,21.0342769 10.0000001,23.5274652 L10.0000001,26.2372323 L9.85610002,26.2372323 L9.85610002,26.2372323 C8.56392731,25.0809465 6.81891316,24.4317861 5.00000015,24.4307209 L3.02500013,24.4307209 C2.36377301,23.653347 2.00363828,22.7012677 2.00000015,21.7209538 Z M10.0000001,33.4632778 L7.00000015,33.4632778 C4.23977585,33.4606641 2.00289383,31.4401876 2.00000015,28.9469994 L2.00000015,26.2372323 L5.00000015,26.2372323 C7.76022431,26.239846 9.99710634,28.2603225 10.0000001,30.7535107 L10.0000001,33.4632778 Z M20,28.9469994 C19.9971062,31.4401876 17.7602241,33.4606641 15,33.4632778 L12,33.4632778 L12,30.7535107 C12.0028937,28.2603225 14.2397757,26.239846 17,26.2372323 L20,26.2372323 L20,28.9469994 Z M17,24.4307209 C15.1810522,24.4317623 13.4359973,25.0809245 12.1438,26.2372323 L12.1438,26.2372323 L12,26.2372323 L12,23.5274652 C12.0028937,21.0342769 14.2397757,19.0138004 17,19.0111867 L20,19.0111867 L20,21.7209538 C19.9963617,22.7012677 19.636227,23.653347 18.9749999,24.4307209 L17,24.4307209 Z M17,17.2046753 C15.1810522,17.2057167 13.4359973,17.8548789 12.1438,19.0111867 L12.1438,19.0111867 L12,19.0111867 L12,16.3014196 C12.0028937,13.8082313 14.2397757,11.7877549 17,11.7851412 L20,11.7851412 L20,14.4949082 C19.9963617,15.4752222 19.636227,16.4273015 18.9749999,17.2046753 L17,17.2046753 Z" id="cereale" fill="#EF5959"></path>
    </g>
</svg>