<?xml version="1.0" encoding="UTF-8"?>
<svg width="64px" height="50px" viewBox="0 0 64 50" version="1.1" xmlns="http://www.w3.org/2000/svg" xmlns:xlink="http://www.w3.org/1999/xlink">
    <title>co2@1x</title>
    <g id="Page-1" stroke="none" stroke-width="1" fill="none" fill-rule="evenodd">
        <g id="co2" transform="translate(0.281690, -0.353887)">
            <g id="noun_co2_1970676_000000" transform="translate(18.995305, 0.000000)"></g>
            <g id="Group-12" transform="translate(0.000000, 0.572658)" fill-rule="nonzero">
                <path d="M50.273581,20.5055129 C54.7255628,22.6125078 57.7386706,27.1646526 57.7386706,32.0803045 C57.7386706,39.2324263 51.8044556,45.0109235 44.4595997,45.0109235 C42.9614067,45.0109235 41.430743,44.7387772 39.9402101,44.2284788 C37.4541095,47.311758 33.5906796,49.1684211 29.4515444,49.1684211 C25.7541911,49.1684211 22.2832294,47.6989909 19.8181113,45.2018878 C18.3997188,45.6703694 16.8571181,45.8928169 15.2197677,45.8928169 C6.83987358,45.8928169 0,39.2324263 0,31.0724263 C0,26.1345108 2.4469657,21.6188713 6.46898937,18.7870088 L6.46898937,18.2219795 C6.46898937,10.6706672 12.9426561,4.40946706 20.7830986,4.40946706 C25.5075129,4.40946706 29.7969721,6.68830154 32.4590857,10.4253751 C33.9253589,9.86467632 35.5574865,9.57484277 37.2143316,9.57484277 C43.7382049,9.57484277 49.2782496,14.2965499 50.273581,20.5055129 Z M48.1355506,21.3607146 C47.5441595,15.9475117 42.8070988,11.7509434 37.2143316,11.7509434 C35.5394004,11.7509434 33.9056328,12.1044759 32.5388436,12.7699378 L31.6133616,13.2205361 L31.0810025,12.3565533 C28.8800321,8.78452761 25.041063,6.58556769 20.7830986,6.58556769 C14.1734911,6.58556769 8.70373116,11.8758093 8.70373116,18.2219795 L8.70373116,19.9381493 L8.20616612,20.261155 C4.50257419,22.6654264 2.23474178,26.6719552 2.23474178,31.0724263 C2.23474178,38.0305991 8.07408738,43.7167163 15.2197677,43.7167163 C16.8695237,43.7167163 18.3780505,43.4574912 19.7064416,42.9185191 L20.4593286,42.613048 L20.9875685,43.2181992 C23.0490332,45.5798115 26.1393843,46.9923204 29.4515444,46.9923204 C33.1536515,46.9923204 36.5891079,45.2102406 38.6191842,42.3031734 L39.1316584,41.5693109 L39.9729258,41.9106409 C41.4572639,42.5128859 42.9901036,42.8348229 44.4595997,42.8348229 C50.5702417,42.8348229 55.5039288,38.0305991 55.5039288,32.0803045 C55.5039288,27.8314646 52.7657057,23.8812864 48.8102628,22.2472533 L48.2050921,21.9972513 L48.1355506,21.3607146 Z" id="Shape" fill="#000000"></path>
                <path d="M63.1726217,24.7731877 C63.1726217,29.0196273 60.9303237,32.81195 57.2966307,34.7934218 L56.2047283,32.8947609 C59.1268179,31.3013302 60.9378799,28.2383423 60.9378799,24.7731877 C60.9378799,20.8949233 58.5791487,17.4496686 55.0126067,15.9447221 L54.4232721,15.6960451 L54.3473454,15.0749969 C53.7622109,10.2888434 49.6726303,6.71155247 44.7183593,6.71155247 C43.2620882,6.71155247 41.8743297,7.02782419 40.6897702,7.60456212 L39.7592032,8.05763625 L39.228802,7.18607099 C37.3074238,4.0288262 34.0011753,2.17610063 30.0984433,2.17610063 C26.6149089,2.17610063 23.4007065,3.88047958 21.4415946,6.62280337 L19.6070834,5.38010958 C21.9760526,2.06407619 25.8685899,0 30.0984433,0 C34.4496909,0 38.2337877,1.94162543 40.6130787,5.26236327 C41.8801474,4.7880271 43.2762918,4.53545184 44.7183593,4.53545184 C50.5975862,4.53545184 55.4951752,8.64005083 56.4755648,14.2080787 C60.530622,16.1718594 63.1726217,20.2325222 63.1726217,24.7731877 Z" id="Stroke-1" fill="#000000"></path>
                <path d="M38.6495651,33.4798808 C39.5509155,32.8923307 40.2660257,32.3773254 40.7949172,31.9348494 C41.3238088,31.4923734 41.7074356,31.0825452 41.9458092,30.7053525 C42.1841829,30.3281599 42.3033679,29.9545997 42.3033679,29.5846607 C42.3033679,29.2437366 42.1972188,28.9680999 41.9849172,28.7577425 C41.7726157,28.547385 41.4802399,28.4422079 41.1077811,28.4422079 C40.6980764,28.4422079 40.374042,28.5800262 40.1356684,28.855667 C39.8972947,29.1313078 39.7669361,29.523002 39.7445886,30.0307613 L38.4149172,29.5411387 C38.4670615,28.8157682 38.7426769,28.2463609 39.2417717,27.8328997 C39.7408665,27.4194385 40.3926597,27.212711 41.1971707,27.212711 C41.7707573,27.212711 42.2568088,27.3178882 42.6553398,27.5282456 C43.0538707,27.7386031 43.3536956,28.0160531 43.5548233,28.3606041 C43.7559511,28.7051551 43.8565135,29.0841555 43.8565135,29.4976167 C43.8565135,30.1722113 43.5957962,30.8087143 43.0743538,31.407145 C42.5529115,32.0055757 41.7223408,32.6457055 40.5826168,33.3275538 L40.5826168,33.3384343 C41.014669,33.3094195 41.4653374,33.2949123 41.9346355,33.2949123 L43.9682506,33.2949123 L43.9682506,34.5026481 L38.6495651,34.5026481 L38.6495651,33.4798808 Z" id="2" fill="#0C1321"></path>
                <path d="M24.1665565,29.2368282 C23.8857225,30.1326608 23.3870076,30.80924 22.6703968,31.2665861 C21.9537861,31.7239322 21.0967712,31.9526018 20.0993264,31.9526018 C19.1599853,31.9526018 18.3417055,31.7592934 17.6444626,31.372671 C16.9472196,30.9860485 16.4121906,30.4320551 16.0393593,29.7106741 C15.666528,28.9892931 15.4801151,28.1335501 15.4801151,27.1434194 C15.4801151,26.1532887 15.666528,25.2975456 16.0393593,24.5761647 C16.4121906,23.8547837 16.9447987,23.3007903 17.6371997,22.9141678 C18.3296006,22.5275453 19.1406175,22.334237 20.0702748,22.334237 C21.0677195,22.334237 21.9126297,22.536975 22.6050306,22.9424571 C23.2974316,23.3479392 23.774358,23.9514385 24.0358241,24.7529729 L22.2200964,25.5026395 C22.0651535,24.9462803 21.8230589,24.5455192 21.4938053,24.3003439 C21.1645517,24.0551687 20.7190976,23.9325829 20.1574297,23.9325829 C19.3439796,23.9325829 18.7072708,24.2107583 18.2472842,24.7671175 C17.7872975,25.3234767 17.5573076,26.1155694 17.5573076,27.1434194 C17.5573076,28.1712694 17.7800347,28.9633621 18.2254954,29.5197213 C18.6709562,30.0760805 19.3004022,30.3542559 20.1138522,30.3542559 C21.2856077,30.3542559 22.0215753,29.8026199 22.3217771,28.6993313 L24.1665565,29.2368282 Z M30.0204626,22.334237 C30.9598037,22.334237 31.7756625,22.5275453 32.4680635,22.9141678 C33.1604645,23.3007903 33.6930726,23.8547837 34.0659039,24.5761647 C34.4387352,25.2975456 34.625148,26.1532887 34.625148,27.1434194 C34.625148,28.1335501 34.4387352,28.9892931 34.0659039,29.7106741 C33.6930726,30.4320551 33.1604645,30.9860485 32.4680635,31.372671 C31.7756625,31.7592934 30.9598037,31.9526018 30.0204626,31.9526018 C29.0811214,31.9526018 28.2628416,31.7592934 27.5655987,31.372671 C26.8683558,30.9860485 26.3333267,30.4320551 25.9604954,29.7106741 C25.5876641,28.9892931 25.4012513,28.1335501 25.4012513,27.1434194 C25.4012513,26.1532887 25.5876641,25.2975456 25.9604954,24.5761647 C26.3333267,23.8547837 26.8683558,23.3007903 27.5655987,22.9141678 C28.2628416,22.5275453 29.0811214,22.334237 30.0204626,22.334237 Z M30.0204626,23.9325829 C29.2070125,23.9325829 28.5799875,24.2084009 28.1393687,24.7600452 C27.6987499,25.3116895 27.4784438,26.1061396 27.4784438,27.1434194 C27.4784438,28.1806992 27.6987499,28.9751493 28.1393687,29.5267936 C28.5799875,30.0784379 29.2070125,30.3542559 30.0204626,30.3542559 C30.8242287,30.3542559 31.4464118,30.0784379 31.8870306,29.5267936 C32.3276494,28.9751493 32.5479555,28.1806992 32.5479555,27.1434194 C32.5479555,26.1061396 32.3276494,25.3116895 31.8870306,24.7600452 C31.4464118,24.2084009 30.8242287,23.9325829 30.0204626,23.9325829 Z" id="CO" fill="#0C1321"></path>
            </g>
        </g>
    </g>
</svg>