<?xml version="1.0" encoding="UTF-8"?>
<svg width="35px" height="41px" viewBox="0 0 35 41" version="1.1" xmlns="http://www.w3.org/2000/svg" xmlns:xlink="http://www.w3.org/1999/xlink">
    <title>dechet@1x</title>
    <g id="Page-1" stroke="none" stroke-width="1" fill="none" fill-rule="evenodd">
        <g id="noun_Almond_2187220-Copy-2" transform="translate(-3.056911, 0.000000)" fill="#91C423">
            <path d="M15.0802596,0.82 C13.2835577,0.82 11.8006469,2.31140625 11.8006469,4.11946134 L11.8006469,5.85666628 L9.18469075,5.85666628 C5.93333057,5.85666628 3.28,8.52545038 3.28,11.7964805 L3.28,11.8402341 C3.28,12.479363 3.79487776,12.9974746 4.42999339,12.9974986 L5.73558014,12.9974986 L8.69053207,39.1535106 C8.75663718,39.7382616 9.24831109,40.18 9.83313841,40.18 L30.757292,40.18 C31.3419593,40.18 31.8333855,39.7380851 31.8994636,39.1534931 L34.8548546,12.9974811 L36.1600066,12.9974811 C36.7951205,12.9974571 37.31,12.4793481 37.31,11.840221 L37.31,11.7964674 C37.31,8.52543288 34.6566694,5.85664878 31.4053049,5.85664878 L28.7893531,5.85664878 L28.7893531,4.11946134 C28.7893531,2.31140625 27.3064423,0.82 25.5097404,0.82 L15.0802596,0.82 Z M15.0802596,3.13408278 L25.5097404,3.13408278 C26.0725652,3.13408278 26.489362,3.55394206 26.489362,4.11946134 L26.489362,5.85666628 L14.1006337,5.85666628 L14.1006337,4.11946134 C14.1006337,3.55395081 14.5178566,3.13408278 15.0802596,3.13408278 Z M9.18469075,8.17074893 L12.9506403,8.17074893 L27.6393597,8.17074893 L31.4053049,8.17074893 C33.0299002,8.17074893 34.3741657,9.20554715 34.8370327,10.667214 L5.75296298,10.667214 C6.21582994,9.20554715 7.5600998,8.17074893 9.18469075,8.17074893 Z M8.0499106,12.9817342 L32.5400894,12.9817342 L29.7302959,37.8497198 L10.8597041,37.8497198 L8.0499106,12.9817342 Z M20.2778324,16.6226481 C19.6430307,16.6323895 19.1360555,17.1578385 19.1452218,17.7966572 L19.1452218,33.0356718 C19.1363458,33.4549189 19.3535299,33.8461988 19.712922,34.0584432 C20.0723141,34.2706877 20.5176816,34.2706877 20.8770737,34.0584432 C21.2364658,33.8461988 21.4536498,33.4549189 21.4447738,33.0356718 L21.4447738,17.7966572 C21.4492606,17.4838866 21.3277425,17.1826083 21.1079056,16.9614638 C20.8880687,16.7403194 20.5886374,16.6181446 20.2778324,16.6226481 L20.2778324,16.6226481 Z M27.0239429,16.6665287 C26.4336104,16.6676919 25.940028,17.1184584 25.8817713,17.7096226 L24.1663401,32.8944046 C24.1175434,33.3063369 24.2915811,33.7130424 24.6225109,33.9604217 C24.9534407,34.2078011 25.3906346,34.2580085 25.7684412,34.0920204 C26.1462479,33.9260324 26.4068677,33.569243 26.4515528,33.1568386 L28.1669797,17.971619 C28.2089801,17.6413657 28.1076043,17.3089076 27.8887581,17.0592021 C27.669912,16.8094967 27.3547985,16.6667368 27.0239429,16.6674038 L27.0239429,16.6665287 Z M13.5312871,16.6669662 C13.2066159,16.6761915 12.9009602,16.8231439 12.6898284,17.0715208 C12.4786966,17.3198977 12.3817783,17.646536 12.423016,17.9707439 L14.1384472,33.1559635 C14.182995,33.5684831 14.4435995,33.9254314 14.821477,34.091505 C15.1993545,34.2575786 15.6366658,34.2073576 15.9676454,33.9598787 C16.2986249,33.7123998 16.472612,33.3055429 16.4236556,32.8935296 L14.7082287,17.7087475 C14.6486743,17.1041999 14.134742,16.6488979 13.5312871,16.6660737 L13.5312871,16.6669662 Z" id="Shape"></path>
        </g>
    </g>
</svg>