<?xml version="1.0" encoding="UTF-8"?>
<svg width="90px" height="55px" viewBox="0 0 90 55" version="1.1" xmlns="http://www.w3.org/2000/svg" xmlns:xlink="http://www.w3.org/1999/xlink">
    <title>depollution-eau@1x</title>
    <g id="Page-1" stroke="none" stroke-width="1" fill="none" fill-rule="evenodd">
        <g id="depollution-eau" transform="translate(0.114826, 0.670639)" fill="#000000">
            <path d="M74.7724446,22.8216136 C71.0941283,27.586898 68.0649266,24.6862901 72.8251006,20.9569371 C67.848555,17.4347704 70.8777567,14.5341625 74.7724446,19.0922606 C78.4507609,14.3269762 81.4799626,17.2275841 76.7197885,20.9569371 C81.4799626,24.4791039 78.4507609,27.3797118 74.7724446,22.8216136 Z" id="Path"></path>
            <path d="M40.6462852,51.1109218 C36.9679689,55.8762062 33.9387672,52.9755983 38.6989413,49.2462453 C33.7223957,45.7240785 36.7515974,42.8234706 40.6462852,47.3815688 C44.3246015,42.6162844 47.3538032,45.5168923 42.5936291,49.2462453 C47.3538032,52.768412 44.3246015,55.6690199 40.6462852,51.1109218 Z" id="Path"></path>
            <path d="M18.2988674,21.7335633 C14.6205511,26.4988477 11.5913494,23.5982398 16.3515234,19.8688868 C11.3749778,16.34672 14.4041795,13.4461121 18.2988674,18.0042103 C21.9771837,13.2389259 25.0063854,16.1395338 20.2462113,19.8688868 C25.0063854,23.3910535 21.9771837,26.2916614 18.2988674,21.7335633 Z" id="Path"></path>
            <g id="Oval" transform="translate(22.969788, 14.428635)">
                <ellipse cx="1.50618478" cy="17.852615" rx="1.13854213" ry="1.10713892"></ellipse>
                <ellipse cx="3.98489745" cy="13.6778012" rx="1.13854213" ry="1.10713892"></ellipse>
                <ellipse cx="6.46361013" cy="17.852615" rx="1.13854213" ry="1.10713892"></ellipse>
                <ellipse cx="11.4210007" cy="17.852615" rx="1.13854213" ry="1.10713892"></ellipse>
                <ellipse cx="16.3783914" cy="17.852615" rx="1.13854213" ry="1.10713892"></ellipse>
                <ellipse cx="21.3358167" cy="17.852615" rx="1.13854213" ry="1.10713892"></ellipse>
                <ellipse cx="26.2932073" cy="17.852615" rx="1.13854213" ry="1.10713892"></ellipse>
                <ellipse cx="21.3358167" cy="26.2022764" rx="1.13854213" ry="1.10713892"></ellipse>
                <ellipse cx="26.2932073" cy="26.2022764" rx="1.13854213" ry="1.10713892"></ellipse>
                <ellipse cx="36.2080233" cy="17.852615" rx="1.13854213" ry="1.10713892"></ellipse>
                <ellipse cx="41.1654139" cy="17.852615" rx="1.13854213" ry="1.10713892"></ellipse>
                <ellipse cx="23.8144946" cy="22.027395" rx="1.13854213" ry="1.10713892"></ellipse>
                <ellipse cx="28.77192" cy="22.027395" rx="1.13854213" ry="1.10713892"></ellipse>
                <ellipse cx="33.7293106" cy="22.027395" rx="1.13854213" ry="1.10713892"></ellipse>
                <ellipse cx="38.6867012" cy="22.027395" rx="1.13854213" ry="1.10713892"></ellipse>
                <ellipse cx="31.2505979" cy="26.2022764" rx="1.13854213" ry="1.10713892"></ellipse>
                <ellipse cx="36.2080233" cy="26.2022764" rx="1.13854213" ry="1.10713892"></ellipse>
                <ellipse cx="13.8997134" cy="13.6778012" rx="1.13854213" ry="1.10713892"></ellipse>
                <ellipse cx="18.857104" cy="13.6778012" rx="1.13854213" ry="1.10713892"></ellipse>
                <ellipse cx="23.8144946" cy="13.6778012" rx="1.13854213" ry="1.10713892"></ellipse>
                <ellipse cx="28.77192" cy="13.6778012" rx="1.13854213" ry="1.10713892"></ellipse>
                <ellipse cx="33.7293106" cy="13.6778012" rx="1.13854213" ry="1.10713892"></ellipse>
                <ellipse cx="38.6867012" cy="13.6778012" rx="1.13854213" ry="1.10713892"></ellipse>
                <ellipse cx="33.7293106" cy="30.3770564" rx="1.13854213" ry="1.10713892"></ellipse>
                <ellipse cx="41.1654139" cy="26.2022764" rx="1.13854213" ry="1.10713892"></ellipse>
                <ellipse cx="38.6867012" cy="30.3770564" rx="1.13854213" ry="1.10713892"></ellipse>
                <ellipse cx="1.50618478" cy="9.50295362" rx="1.13854213" ry="1.10713892"></ellipse>
                <ellipse cx="21.3358167" cy="1.15332604" rx="1.1385074" ry="1.10710515"></ellipse>
                <ellipse cx="26.2932073" cy="1.15332604" rx="1.1385074" ry="1.10710515"></ellipse>
                <ellipse cx="8.94228807" cy="5.3281398" rx="1.13854213" ry="1.10713892"></ellipse>
                <ellipse cx="13.8997134" cy="5.3281398" rx="1.13854213" ry="1.10713892"></ellipse>
                <ellipse cx="18.857104" cy="5.3281398" rx="1.13854213" ry="1.10713892"></ellipse>
                <ellipse cx="23.8144946" cy="5.3281398" rx="1.13854213" ry="1.10713892"></ellipse>
                <ellipse cx="28.77192" cy="5.3281398" rx="1.13854213" ry="1.10713892"></ellipse>
                <ellipse cx="38.6867012" cy="5.3281398" rx="1.13854213" ry="1.10713892"></ellipse>
                <ellipse cx="6.46361013" cy="9.50295362" rx="1.13854213" ry="1.10713892"></ellipse>
                <ellipse cx="11.4684284" cy="9.50295362" rx="1.13854213" ry="1.10713892"></ellipse>
                <ellipse cx="16.3783914" cy="9.50295362" rx="1.13854213" ry="1.10713892"></ellipse>
                <ellipse cx="21.2883543" cy="9.50295362" rx="1.13854213" ry="1.10713892"></ellipse>
                <ellipse cx="26.1983172" cy="9.50295362" rx="1.13854213" ry="1.10713892"></ellipse>
                <ellipse cx="31.1082802" cy="9.50295362" rx="1.13854213" ry="1.10713892"></ellipse>
                <ellipse cx="36.0182431" cy="9.50295362" rx="1.13854213" ry="1.10713892"></ellipse>
                <ellipse cx="40.928206" cy="9.50295362" rx="1.13854213" ry="1.10713892"></ellipse>
                <ellipse cx="8.94228807" cy="13.6778012" rx="1.13854213" ry="1.10713892"></ellipse>
                <ellipse cx="3.98489745" cy="22.027395" rx="1.13854213" ry="1.10713892"></ellipse>
                <ellipse cx="13.8997134" cy="22.027395" rx="1.13854213" ry="1.10713892"></ellipse>
                <ellipse cx="8.94228807" cy="22.027395" rx="1.13854213" ry="1.10713892"></ellipse>
            </g>
            <g id="noun_Water_1353595_000000">
                <path d="M11.1714742,7.6163522 C14.5515211,7.6163522 16.3549577,6.21059119 17.8030704,5.08228302 C19.1070423,4.06604403 20.1350235,3.26415094 22.3395962,3.26415094 C24.544169,3.26415094 25.5732676,4.06604403 26.8772394,5.08228302 C28.3264695,6.21167925 30.1287887,7.6163522 33.5099531,7.6163522 C36.8911174,7.6163522 38.694554,6.21167925 40.143784,5.08228302 C41.4477559,4.06604403 42.4779718,3.26415094 44.683662,3.26415094 C46.8904695,3.26415094 47.9195681,4.06713208 49.2246573,5.08228302 C50.6738873,6.21167925 52.4773239,7.6163522 55.8596056,7.6163522 C59.24077,7.6163522 61.0442066,6.21059119 62.4934366,5.08228302 C63.7974085,4.06604403 64.8276244,3.26415094 67.0321972,3.26415094 C69.2401221,3.26415094 70.270338,4.06713208 71.5754272,5.08228302 C73.0246573,6.21167925 74.8292113,7.6163522 78.211493,7.6163522 C81.5937746,7.6163522 83.3983286,6.21167925 84.8475587,5.08228302 C86.1526479,4.06604403 87.1839812,3.26415094 89.3907887,3.26415094 L89.3907887,0 C86.008507,0 84.2039531,1.40467296 82.754723,2.53406918 C81.4496338,3.55030818 80.4183005,4.35220126 78.211493,4.35220126 C76.0046854,4.35220126 74.9733521,3.54922013 73.6682629,2.53406918 C72.2190329,1.40467296 70.4144789,0 67.0321972,0 C63.6510329,0 61.8475962,1.40467296 60.3994836,2.53406918 C59.0955117,3.55030818 58.0652958,4.35220126 55.8596056,4.35220126 C53.6539155,4.35220126 52.6236995,3.55030818 51.3197277,2.53406918 C49.8704977,1.40467296 48.067061,0 44.6847793,0 C41.303615,0 39.5001784,1.40467296 38.0509484,2.53406918 C36.7469765,3.55030818 35.7167606,4.35220126 33.5110704,4.35220126 C31.3064977,4.35220126 30.2773991,3.55030818 28.9734272,2.53406918 C27.5241972,1.40467296 25.7218779,0 22.3407136,0 C18.9606667,0 17.15723,1.40576101 15.7091174,2.53406918 C14.4051455,3.55030818 13.3760469,4.35220126 11.1725915,4.35220126 C8.96801878,4.35220126 7.93780282,3.55030818 6.63383099,2.53406918 C5.18571831,1.40576101 3.38116432,0 0,0 L0,3.26415094 C2.20569014,3.26415094 3.2359061,4.06604403 4.53987793,5.08228302 C5.98799061,6.21167925 7.79142723,7.6163522 11.1714742,7.6163522 Z" id="Path"></path>
            </g>
        </g>
    </g>
</svg>