<?xml version="1.0" encoding="UTF-8"?>
<svg width="35px" height="40px" viewBox="0 0 35 40" version="1.1" xmlns="http://www.w3.org/2000/svg" xmlns:xlink="http://www.w3.org/1999/xlink">
    <title>emploi-vert-clair@1x</title>
    <g id="Page-1" stroke="none" stroke-width="1" fill="none" fill-rule="evenodd">
        <g id="noun_Almond_2187220-Copy-2" transform="translate(-5.000000, -2.000000)" fill="#91C322">
            <path d="M39.4631779,3.52227508 L39.4631779,9.4383245 C39.4631779,10.6773977 38.5307154,11.681257 37.3808975,11.681257 L34.9206021,11.681257 L34.9206021,14.7663392 C35.9132415,15.7699199 35.9132415,17.3854725 34.9206021,18.3890532 L34.9206021,41.056742 C34.9206021,41.5082687 34.5824822,41.8736902 34.1645575,41.8736902 C33.9558224,41.8657646 33.7587865,41.775238 33.6168013,41.6220279 C33.4748161,41.4688178 33.399514,41.2654762 33.4074628,41.056742 L33.4074628,19.0253908 L22.0531421,19.0253908 L22.0531421,41.056742 C22.0743061,41.3406869 21.9348112,41.6126025 21.6918316,41.7610395 C21.448852,41.9094766 21.1432429,41.9094766 20.9002633,41.7610395 C20.6572837,41.6126025 20.5177887,41.3406869 20.5389527,41.056742 L20.5389527,18.2094926 C20.5235804,17.7754444 20.862063,17.4106719 21.2960474,17.3935944 L33.4074628,17.3935944 L33.4074628,15.761798 L9.18463209,15.761798 C7.93085803,15.761798 6.91334794,16.8580627 6.91334794,18.2094926 L6.91334794,28.0013209 C6.89218395,28.2852658 7.03167892,28.5571814 7.27465852,28.7056184 C7.51763812,28.8540555 7.82324719,28.8540555 8.06622679,28.7056184 C8.30920639,28.5571814 8.44870136,28.2852658 8.42753737,28.0013209 L8.42753737,19.8412889 C8.40637338,19.557344 8.54586835,19.2854285 8.78884795,19.1369914 C9.03182755,18.9885544 9.33743662,18.9885544 9.58041622,19.1369914 C9.82339582,19.2854285 9.96289079,19.557344 9.9417268,19.8412889 L9.9417268,41.0525418 C9.96289079,41.3364867 9.82339582,41.6084022 9.58041622,41.7568393 C9.33743662,41.9052763 9.03182755,41.9052763 8.78884795,41.7568393 C8.54586835,41.6084022 8.40637338,41.3364867 8.42753737,41.0525418 L8.42753737,30.3104073 C7.73127392,30.5760265 6.94683136,30.4585592 6.35891519,30.000639 C5.74722795,29.520269 5.39307199,28.7832522 5.40010274,28.0055211 L5.40010274,18.2094926 C5.40010274,15.9560595 7.0939586,14.1300016 9.18043184,14.1300016 L33.4074628,14.1300016 L33.4074628,11.681257 L30.9471675,11.681257 C29.7973495,11.681257 28.8659445,10.6773977 28.8659445,9.4383245 L28.8659445,3.52227508 C28.8421536,3.23693231 28.9809274,2.96247601 29.2248343,2.81248972 C29.4687413,2.66250343 29.7762871,2.66250343 30.0201941,2.81248972 C30.2641011,2.96247601 30.4028748,3.23693231 30.3790839,3.52227508 L30.3790839,9.4383245 C30.3718482,9.76220704 30.6236196,10.0330591 30.9471675,10.0494606 L31.8922233,10.0494606 L31.8922233,3.52227508 C31.8710593,3.23833015 32.0105543,2.96641461 32.2535339,2.81797757 C32.4965135,2.66954053 32.8021225,2.66954053 33.0451021,2.81797757 C33.2880817,2.96641461 33.4275767,3.23833015 33.4064127,3.52227508 L33.4064127,10.0547109 L34.9195521,10.0547109 L34.9195521,3.52227508 C34.8983881,3.23833015 35.0378831,2.96641461 35.2808627,2.81797757 C35.5238423,2.66954053 35.8294513,2.66954053 36.0724309,2.81797757 C36.3154105,2.96641461 36.4549055,3.23833015 36.4337415,3.52227508 L36.4337415,10.0547109 L37.3787973,10.0547109 C37.7023452,10.0383094 37.9541166,9.76745735 37.9468809,9.44357481 L37.9468809,3.52227508 C37.9257169,3.23833015 38.0652119,2.96641461 38.3081915,2.81797757 C38.5511711,2.66954053 38.8567801,2.66954053 39.0997597,2.81797757 C39.3427393,2.96641461 39.4822343,3.23833015 39.4610703,3.52227508 L39.4631779,3.52227508 Z M17.5105738,32.3506778 L17.5105738,41.056742 C17.5105738,41.5082687 17.1724539,41.8736902 16.7545292,41.8736902 C16.5457941,41.8657646 16.3487582,41.775238 16.206773,41.6220279 C16.0647878,41.4688178 15.9894857,41.2654762 15.9974345,41.056742 L15.9974345,33.166576 L14.483245,33.166576 L14.483245,41.056742 C14.504409,41.3406869 14.3649141,41.6126025 14.1219345,41.7610395 C13.8789549,41.9094766 13.5733458,41.9094766 13.3303662,41.7610395 C13.0873866,41.6126025 12.9478916,41.3406869 12.9690556,41.056742 L12.9690556,32.3506778 C12.9536833,31.9166296 13.2921659,31.5518572 13.7261503,31.5347796 L16.7545292,31.5347796 C17.1883586,31.5518526 17.5265396,31.9168062 17.5105738,32.3506778 L17.5105738,32.3506778 Z M15.2403398,10.8653588 C13.567591,10.8653588 12.2119609,9.40472252 12.2119609,7.60176603 L18.2676686,7.60176603 C18.2676686,9.40472252 16.9120385,10.8653588 15.2403398,10.8653588 Z M15.2403398,4.33817327 C16.3156033,4.34447364 17.3068618,4.96821048 17.8444936,5.96996965 L12.6361859,5.96996965 C13.1738177,4.96611036 14.1650762,4.34447364 15.2403398,4.33817327 Z M19.5172424,5.96996965 C18.8714542,4.0221046 17.1588031,2.72212782 15.2403398,2.72212782 C13.3218764,2.72212782 11.6092253,4.0221046 10.9634371,5.96996965 L9.93752656,5.96996965 C9.50958955,6.00069371 9.17810627,6.35682932 9.17810627,6.78586784 C9.17810627,7.21490636 9.50958955,7.57104197 9.93752656,7.60176603 L10.6946213,7.60176603 C10.6946213,10.3056757 12.7275413,12.4982052 15.2361395,12.4982052 C17.7447377,12.4982052 19.7776577,10.3056757 19.7776577,7.60176603 L20.543153,7.60176603 C20.97109,7.57104197 21.3025732,7.21490636 21.3025732,6.78586784 C21.3025732,6.35682932 20.97109,6.00069371 20.543153,5.96996965 L19.5172424,5.96996965 Z" id="Shape"></path>
        </g>
    </g>
</svg>