<?xml version="1.0" encoding="UTF-8"?>
<svg width="52px" height="45px" viewBox="0 0 52 45" version="1.1" xmlns="http://www.w3.org/2000/svg" xmlns:xlink="http://www.w3.org/1999/xlink">
    <title>empreinte-alimentaire@1x</title>
    <g id="Page-1" stroke="none" stroke-width="1" fill="none" fill-rule="evenodd">
        <g id="empreinte-alimentaire" transform="translate(-0.000000, 0.000000)">
            <g id="Group" transform="translate(8.731343, 6.716418)" fill="#91C322">
                <g id="Group" transform="translate(4.029851, 7.052239)">
                    <g id="noun_Food_1603826_000000" transform="translate(-3.559701, -3.559701)">
                        <path d="M6.48536675,0.347480261 C6.85214868,0.38778624 7.12736534,0.70162207 7.11943858,1.07052683 L7.11943858,6.76606346 C7.11943858,8.48084286 5.89080405,9.92597487 4.27167739,10.2590205 L4.27167739,23.8526413 C4.27530849,24.1093925 4.14041318,24.3482097 3.91864552,24.4776449 C3.69687786,24.6070802 3.42259632,24.6070802 3.20082866,24.4776449 C2.97906099,24.3482097 2.84416569,24.1093925 2.84779679,23.8526413 L2.84779679,10.2590205 C1.22867013,9.92597487 3.55970149e-05,8.48084286 3.55970149e-05,6.76606346 L3.55970149e-05,1.07052683 C-0.00359550465,0.813775586 0.1312998,0.574958454 0.353067462,0.445523182 C0.574835123,0.31608791 0.849116668,0.31608791 1.07088433,0.445523182 C1.29265199,0.574958454 1.4275473,0.813775586 1.42391619,1.07052683 L1.42391619,6.76606346 C1.42391619,7.7112354 2.01090385,8.5030554 2.84779679,8.79064368 L2.84779679,1.07052683 C2.84338527,0.865493815 2.92759529,0.668515162 3.07886131,0.530035597 C3.23012733,0.391556031 3.43375818,0.32502488 3.63760556,0.347480261 C4.00438749,0.38778624 4.27960414,0.70162207 4.27167739,1.07052683 L4.27167739,8.79064368 C5.10857033,8.5030554 5.69555799,7.7112354 5.69555799,6.76606346 L5.69555799,1.07052683 C5.69114647,0.865493815 5.77535649,0.668515162 5.92662251,0.530035597 C6.07788852,0.391556031 6.28151937,0.32502488 6.48536675,0.347480261 L6.48536675,0.347480261 Z M29.9015281,0.35858653 C30.9764761,0.35858653 31.8965023,1.01499549 32.5045599,1.9270622 C33.1126174,2.83916451 33.4612296,4.03433429 33.4612296,5.34216862 C33.4612296,6.65000295 33.1126174,7.84518696 32.5045599,8.75728928 C32.0353093,9.46114905 31.382129,10.0104822 30.6134684,10.2256661 L30.6134684,23.8526413 C30.6170995,24.1093925 30.4822042,24.3482097 30.2604366,24.4776449 C30.0386689,24.6070802 29.7643874,24.6070802 29.5426197,24.4776449 C29.320852,24.3482097 29.1859567,24.1093925 29.1895878,23.8526413 L29.1895878,10.2256661 C28.4209273,10.0104822 27.7677469,9.46114905 27.2984964,8.75728928 C26.6904389,7.84518696 26.3418266,6.65000295 26.3418266,5.34216862 C26.3418266,4.03433429 26.6904389,2.83916451 27.2984964,1.9270622 C27.9065539,1.01499549 28.8265802,0.35858653 29.9015281,0.35858653 L29.9015281,0.35858653 Z M29.9015281,1.78246713 C29.4037288,1.78246713 28.9002838,2.08294153 28.4776475,2.71688877 C28.0550113,3.35083601 27.7657072,4.29084638 27.7657072,5.34216862 C27.7657072,6.39349086 28.0550113,7.33351547 28.4776475,7.96746271 C28.9002838,8.60140995 29.4037288,8.90188435 29.9015281,8.90188435 C30.3993275,8.90188435 30.9027725,8.60140995 31.3254087,7.96746271 C31.748045,7.33351547 32.037349,6.39349086 32.037349,5.34216862 C32.037349,4.29084638 31.748045,3.35083601 31.3254087,2.71688877 C30.9027725,2.08294153 30.3993275,1.78246713 29.9015281,1.78246713 Z M16.7306326,4.63022832 C22.2269149,4.63022832 26.6977968,9.10115644 26.6977968,14.5974174 C26.6977968,20.0936677 22.2269185,24.5645816 16.7306326,24.5645816 C11.2343788,24.5645816 6.76346843,20.0936677 6.76346843,14.5974174 C6.76346843,9.10115644 11.2343788,4.63022832 16.7306326,4.63022832 L16.7306326,4.63022832 Z M16.7306326,6.05410892 C12.0039079,6.05410892 8.18734903,9.87065711 8.18734903,14.5974174 C8.18734903,19.3241314 12.0039079,23.140701 16.7306326,23.140701 C21.4573894,23.140701 25.2739162,19.3241314 25.2739162,14.5974174 C25.2739162,9.87065711 21.4573929,6.05410892 16.7306326,6.05410892 L16.7306326,6.05410892 Z M16.7306326,9.2578545 C19.6711561,9.2578545 22.0701849,11.6568904 22.0701849,14.5974174 C22.0701849,17.5379088 19.6711596,19.9369697 16.7306326,19.9369697 C13.7901056,19.9369697 11.3910804,17.5379088 11.3910804,14.5974174 C11.3910804,11.6568904 13.7901092,9.2578545 16.7306326,9.2578545 Z M16.7306326,10.6817351 C14.5596312,10.6817351 12.814961,12.4264267 12.814961,14.5974174 C12.814961,16.7684082 14.5596347,18.5130891 16.7306326,18.5130891 C18.9016305,18.5130891 20.6463043,16.7684082 20.6463043,14.5974174 C20.6463043,12.4264267 18.901634,10.6817351 16.7306326,10.6817351 Z" id="Shape"></path>
                    </g>
                </g>
            </g>
            <rect id="Rectangle" stroke="#91C322" stroke-width="2" x="1" y="1" width="49.0447761" height="43"></rect>
        </g>
    </g>
</svg>