<?xml version="1.0" encoding="UTF-8"?>
<svg width="23px" height="29px" viewBox="0 0 23 29" version="1.1" xmlns="http://www.w3.org/2000/svg" xmlns:xlink="http://www.w3.org/1999/xlink">
    <title>fourrage@1x</title>
    <g id="Page-1" stroke="none" stroke-width="1" fill="none" fill-rule="evenodd">
        <g id="noun_grass_2147523" transform="translate(0.000000, 0.216373)" fill="#D3A355">
            <path d="M22.8924699,9.48817861 C23.0441048,9.23939781 23.0345999,8.9125101 22.8688195,8.67480924 C22.7030391,8.43710837 22.4176676,8.34119342 22.1587516,8.43615148 C19.652054,9.35146898 17.7170874,12.2960459 16.5564715,16.650874 C16.2002337,12.9228942 16.0960329,8.05811751 17.7814542,5.28819008 C17.9330891,5.03940928 17.9235842,4.71252157 17.7578038,4.47482071 C17.5920234,4.23711984 17.3066519,4.14120489 17.047736,4.23616295 C13.8623274,5.39903478 12.370965,8.36401668 11.5837408,11.7255825 C10.6397043,6.44304693 8.97440759,1.68368992 6.03582914,0.0736943208 C5.81265933,-0.0483077989 5.54511018,-0.0169776098 5.35051342,0.153945263 C5.15591665,0.324868137 5.06980167,0.604176667 5.12993356,0.869382148 C6.05454824,4.92118108 6.3405415,10.1980117 5.96730959,15.0676534 C4.78401363,11.5857929 3.03106304,9.2356893 0.841248385,8.43604648 C0.582332425,8.34108842 0.296960902,8.43700337 0.13118052,8.67470424 C-0.0345998617,8.9124051 -0.0441047895,9.23929281 0.107530144,9.48807361 C2.43968659,13.3209831 1.31542286,24.2536933 0.0676003344,26.9866608 C-0.0902170543,27.3324923 0.037719234,27.75302 0.353354036,27.9259357 C0.668988839,28.0988515 1.05279768,27.9586756 1.2106151,27.6128441 C2.38103768,25.0493811 3.52903568,16.0116008 2.03157199,10.7766651 C4.72565222,13.2916882 6.38896838,19.4235315 6.38896838,27.299875 C6.38896838,27.6864732 6.67500333,28 7.02784533,28 C7.38068733,28 7.66672229,27.6864732 7.66672229,27.299875 C7.68962558,24.3513244 7.42596601,21.4084806 6.88020087,18.5210939 C7.64694968,13.1677688 7.59901323,7.71225131 6.73833824,2.37609303 C10.2209843,6.31358228 11.499984,17.4602468 11.499984,27.299875 C11.499984,27.6864732 11.786019,28 12.138861,28 C12.491703,28 12.7777379,27.6864732 12.7777379,27.299875 C12.7838011,23.5084556 12.5874263,19.7198942 12.1896198,15.953606 C12.7524065,10.8946148 13.8563858,7.95157781 15.8623317,6.42432198 C14.457058,10.7564351 15.2106772,16.6267941 15.7604628,20.683983 C15.4687682,22.874651 15.3259697,25.0860305 15.3332458,27.299875 C15.3332458,27.6864732 15.6192807,28 15.9721227,28 C16.3249647,28 16.6109997,27.6864732 16.6109997,27.299875 C16.6109997,19.4235315 18.2743158,13.2916882 20.9683322,10.7767701 C19.4709643,16.0117058 20.6189623,25.0494861 21.7892891,27.6129491 C21.891379,27.8366629 22.0946427,27.9837079 22.3225127,27.9986939 C22.5503827,28.0136799 22.7682401,27.89433 22.8940201,27.6856023 C23.0198001,27.4768745 23.0343938,27.2104796 22.9323038,26.9867658 C21.6845771,24.2537983 20.5603134,13.3211581 22.8924699,9.48817861 Z" id="Path"></path>
        </g>
    </g>
</svg>