<?xml version="1.0" encoding="UTF-8"?>
<svg width="37px" height="31px" viewBox="0 0 37 31" version="1.1" xmlns="http://www.w3.org/2000/svg" xmlns:xlink="http://www.w3.org/1999/xlink">
    <title>fruits@1x</title>
    <g id="Page-1" stroke="none" stroke-width="1" fill="none" fill-rule="evenodd">
        <g id="fruits" transform="translate(1.000000, 1.136364)" fill="#A261C0">
            <path d="M32.3081636,12.2762977 L32.3106836,12.2743424 C29.8569236,10.4444978 29.7773636,9.09272664 29.6571236,7.04714619 L29.6348036,6.68704321 C29.4576836,3.84141495 27.7804436,2.56101259 26.2760036,2.56101259 C26.2551236,2.56101259 26.2364036,2.56101259 26.2166036,2.56166436 C25.9919636,2.56590087 25.5830036,2.56459733 25.1348036,2.56101259 C25.1348036,2.55840551 25.1362436,2.55612432 25.1362436,2.55351724 L25.1362436,0.488057794 C25.1362436,0.113289987 24.8003636,-0.190760764 24.3863636,-0.190760764 C23.9723636,-0.190760764 23.6364836,0.113289987 23.6364836,0.488057794 L23.6364836,2.55351724 C23.6364836,2.55612432 23.6379236,2.55840551 23.6379236,2.56101259 C23.1897236,2.56459733 22.7807636,2.56590087 22.5561236,2.56166436 C22.5363236,2.56101259 22.5176036,2.56101259 22.4967236,2.56101259 C20.9922836,2.56101259 19.3150436,3.84141495 19.1379236,6.68704321 L19.1156036,7.04714619 C19.0691636,7.83024796 19.0284836,8.51102183 18.8589236,9.15660011 C16.9937636,8.03034138 14.7736436,7.35510756 12.3861236,7.29025643 L12.3861236,7.27722103 L12.3861236,4.56162091 C12.3861236,4.18685311 12.0506036,3.88280235 11.6362436,3.88280235 C11.2215236,3.88280235 10.8863636,4.18685311 10.8863636,4.56162091 L10.8863636,7.32903675 C4.58888364,7.84589044 -0.363636364,12.6465031 -0.363636364,18.4795196 C-0.363636364,24.6563448 5.18792364,29.6818182 12.0113636,29.6818182 C14.3315636,29.6818182 16.4966036,29.0906627 18.3556436,28.0800932 C20.1002036,29.0893592 22.1662436,29.6818182 24.3863636,29.6818182 C30.5898836,29.6818182 35.6363636,25.1135616 35.6363636,19.4979104 C35.6363636,16.6777012 34.3619636,14.1224365 32.3081636,12.2762977 Z M12.0113636,28.3241811 C6.01520364,28.3241811 1.13648364,23.9077869 1.13648364,18.4795196 C1.13648364,13.3953869 5.41688364,9.19929105 10.8863636,8.68830329 L10.8863636,9.31400259 C10.8863636,9.6887704 11.2218836,9.99282115 11.6362436,9.99282115 C12.0506036,9.99282115 12.3861236,9.6887704 12.3861236,9.31400259 L12.3861236,8.65245594 C18.2080436,8.83364803 22.8862436,13.1662898 22.8862436,18.4795196 C22.8862436,23.9077869 18.0075236,28.3241811 12.0113636,28.3241811 Z M24.3863636,28.3241811 C22.6914836,28.3241811 21.0963236,27.9288825 19.7063636,27.2373544 C19.7052836,27.2380062 19.7045636,27.2380062 19.7038436,27.2393097 C22.5518036,25.1846045 24.3863636,22.0248231 24.3863636,18.4795196 C24.3863636,15.1170377 22.7332436,12.1035786 20.1333236,10.0478957 C20.4947636,9.09109722 20.5538036,8.13853522 20.6142836,7.11949267 L20.6355236,6.76427796 C20.7514436,4.90868849 21.6777236,3.91930148 22.4974436,3.91930148 C22.5050036,3.91930148 22.5122036,3.91930148 22.5197636,3.91930148 C22.8873236,3.92712272 23.6670836,3.92125679 24.3870836,3.91245789 C25.1070836,3.92125679 25.8864836,3.92712272 26.2544036,3.91930148 C26.2619636,3.91930148 26.2698836,3.91930148 26.2767236,3.91930148 C27.0964436,3.91930148 28.0227236,4.90901438 28.1386436,6.76427796 L28.1598836,7.11949267 C28.2866036,9.26251275 28.3949636,11.1128881 31.3577636,13.3227146 C33.0843236,14.9166184 34.1376836,17.0951599 34.1376836,19.4979104 C34.1362436,24.3646777 29.7626036,28.3241811 24.3863636,28.3241811 Z M15.3482036,10.886398 C15.3204836,10.9610256 14.6422436,12.7087471 11.6362436,12.7087471 C8.63024364,12.7087471 7.95236364,10.9610256 7.92428364,10.886398 C7.79396364,10.5305315 8.00636364,10.146313 8.39876364,10.0276908 C8.78612364,9.90972046 9.20588364,10.0964526 9.34232364,10.4428684 C9.37004364,10.5038089 9.78836364,11.3507841 11.6362436,11.3507841 C13.5125636,11.3507841 13.9146836,10.4777381 13.9308836,10.4409131 C14.0802836,10.0990597 14.5058036,9.9175417 14.8888436,10.0433333 C15.2708036,10.169125 15.4763636,10.537701 15.3482036,10.886398 Z M18.1720436,4.92009447 C19.3913636,3.81762534 20.1758036,2.47302363 20.5484036,1.05640132 C20.6672036,0.603746987 20.7449636,0.145226722 20.7773636,-0.318181818 C20.2661636,-0.288200394 19.7592836,-0.218786878 19.2596036,-0.110918927 C17.6943236,0.226372099 16.2089636,0.937127392 14.9910836,2.03959651 C13.7732036,3.14206564 12.9880436,4.48666735 12.6150836,5.90328966 C12.4962836,6.35626988 12.4188836,6.81479014 12.3864836,7.27754692 C12.8976836,7.24821726 13.4045636,7.17880375 13.9049636,7.07060991 C15.4698836,6.73331888 16.9552436,6.02256359 18.1720436,4.92009447 Z M16.0512836,2.99965387 C16.8746036,2.25435476 17.8458836,1.72674687 18.8776436,1.4011877 C18.5180036,2.33550014 17.9351636,3.214738 17.1118436,3.96003711 C16.2885236,4.7056621 15.3172436,5.23294411 14.2844036,5.55850328 C14.6451236,4.62386496 15.2283236,3.74527886 16.0512836,2.99965387 Z" id="Shape"></path>
        </g>
    </g>
</svg>