<?xml version="1.0" encoding="UTF-8"?>
<svg width="54px" height="54px" viewBox="0 0 54 54" version="1.1" xmlns="http://www.w3.org/2000/svg" xmlns:xlink="http://www.w3.org/1999/xlink">
    <title>Group 9@1x</title>
    <g id="Page-1" stroke="none" stroke-width="1" fill="none" fill-rule="evenodd">
        <g id="noun_Almond_2187220-Copy-7" fill="#91C423">
            <path d="M12.9808798,14.168382 L13.6500468,16.4685435 C7.02345772,18.3953928 2.3955856,24.5464581 2.3955856,31.4269792 L2.3955856,33.3290742 C2.3955856,41.9152523 9.38071395,48.9003806 17.966892,48.9003806 L35.639127,48.9003806 C44.225305,48.9003806 51.2104334,41.9152523 51.2104334,33.3290742 L51.2104334,31.4269792 C51.2104334,24.9289533 47.0940188,19.051384 40.9681072,16.8011306 L41.7937857,14.5524743 C48.8587669,17.147692 53.606019,23.9291956 53.606019,31.4269792 L53.606019,33.3290742 C53.606019,43.2360184 45.5460712,51.2959662 35.639127,51.2959662 L17.966892,51.2959662 C8.05994775,51.2959662 -6.90647539e-14,43.2360184 -6.90647539e-14,33.3290742 L-6.90647539e-14,31.4269792 C-6.90647539e-14,23.4876093 5.33776398,16.3906869 12.9808798,14.168382 Z M37.1057045,26.2210124 C38.4156906,26.2210124 39.5923223,26.5028929 40.6359991,27.0658556 C41.6800752,27.6296167 42.4985669,28.4109769 43.0926722,29.4099361 C43.6867774,30.4092945 43.9834308,31.5336227 43.9834308,32.7829206 C43.9834308,34.0318192 43.6867774,35.1561474 43.0926722,36.1551066 C42.4985669,37.1544651 41.6800752,37.9358252 40.6359991,38.4995864 C39.5923223,39.0629483 38.4156906,39.3444296 37.1057045,39.3444296 C35.7949199,39.3444296 34.6182881,39.0629483 33.5746113,38.4995864 C32.5309345,37.9358252 31.7136406,37.1544651 31.1223302,36.1551066 C30.5310198,35.1561474 30.2355643,34.0318192 30.2355643,32.7829206 C30.2355643,31.5336227 30.5310198,30.4092945 31.1223302,29.4099361 C31.7136406,28.4109769 32.5309345,27.6296167 33.5746113,27.0658556 C34.6182881,26.5028929 35.7949199,26.2210124 37.1057045,26.2210124 Z M26.6146765,26.3874656 L26.6146765,39.1782957 L23.4421227,39.1782957 L23.4421227,26.3874656 L26.6146765,26.3874656 Z M14.3593797,26.3875056 C15.8582177,26.3875056 16.9945238,26.6969354 17.7690965,27.315795 C18.5432699,27.9350539 18.9309555,28.8134353 18.9309555,29.9513384 C18.9309555,31.0952305 18.5173177,31.9280958 17.6896429,32.4495349 C18.3783738,32.6775148 18.9153842,33.0396475 19.3014727,33.5363323 C19.6867628,34.0334163 19.8800067,34.703781 19.8800067,35.5474264 C19.8800067,36.6853295 19.5166762,37.5752896 18.7888174,38.216508 C18.0617572,38.8577264 16.9709672,39.1779364 15.5164475,39.1779364 L9.98703666,39.1779364 L9.98703666,26.3875056 L14.3593797,26.3875056 Z M15.0752605,33.8070334 L13.0601737,33.8070334 L13.0601737,36.4964775 L15.0752605,36.4964775 C15.7132848,36.4964775 16.1660505,36.3747019 16.4323597,36.1303522 C16.6990683,35.8860025 16.8324225,35.57258 16.8324225,35.1892863 C16.8324225,34.8008022 16.6974712,34.4734055 16.4283671,34.206697 C16.1588637,33.9403877 15.7080943,33.8070334 15.0752605,33.8070334 Z M37.1057045,29.0853342 C36.4113839,29.0853342 35.7825427,29.246637 35.2191808,29.568444 C34.655819,29.8906503 34.2130349,30.3330351 33.8912279,30.8967962 C33.5690216,31.4601581 33.4081181,32.0886 33.4081181,32.7829206 C33.4081181,33.4768419 33.5690216,34.1052839 33.8912279,34.6686457 C34.2130349,35.2324069 34.655819,35.675191 35.2191808,35.9969979 C35.7825427,36.3192042 36.4113839,36.4801077 37.1057045,36.4801077 C37.7992265,36.4801077 38.4292655,36.3192042 38.9958215,35.9969979 C39.5619783,35.675191 40.0059601,35.2324069 40.3281664,34.6686457 C40.6499734,34.1052839 40.8108769,33.4768419 40.8108769,32.7829206 C40.8108769,32.0886 40.6499734,31.4601581 40.3281664,30.8967962 C40.0059601,30.3330351 39.5619783,29.8906503 38.9958215,29.568444 C38.4292655,29.246637 37.7992265,29.0853342 37.1057045,29.0853342 Z M14.5258729,28.9771336 L13.0601737,28.9771336 L13.0601737,31.4170375 L14.5258729,31.4170375 C15.5635607,31.4170375 16.0826042,30.9982093 16.0826042,30.1597544 C16.0826042,29.7824496 15.9620264,29.4909867 15.7204715,29.2853656 C15.4789167,29.0801438 15.0804509,28.9771336 14.5258729,28.9771336 Z M36.9363366,9.96416922 L36.9363366,12.050325 C36.9363366,15.7087835 33.9602207,18.6852986 30.3017623,18.6852986 L30.3017623,18.6852986 L26.8501227,18.6852986 L26.8501227,22.5940958 C26.8501227,23.1454797 26.403346,23.5922564 25.851962,23.5922564 C25.3005781,23.5922564 24.8538013,23.1454797 24.8538013,22.5940958 L24.8538013,22.5940958 L24.8538013,16.1044544 C24.8538013,15.9962538 24.8753616,15.8936429 24.9073028,15.7962224 C25.3057685,12.5158672 28.1026147,9.96416922 31.4883757,9.96416922 L31.4883757,9.96416922 L36.9363366,9.96416922 Z M34.9400153,11.9604906 L31.4883757,11.9604906 C28.9306888,11.9604906 26.8501227,14.0414559 26.8501227,16.5995421 L26.8501227,16.5995421 L26.8501227,16.6889773 L30.3017623,16.6889773 C32.8594492,16.6889773 34.9400153,14.6080119 34.9400153,12.050325 L34.9400153,12.050325 L34.9400153,11.9604906 Z M17.8665569,3.24 C21.5250154,3.24 24.5015305,6.21651511 24.5015305,9.87497359 L24.5011312,15.3233338 L22.4149754,15.3233338 C18.7565169,15.3233338 15.7804011,12.3468187 15.7804011,8.68836019 L15.7804011,3.24 L17.8665569,3.24 Z M17.8665569,5.23632133 L17.7767224,5.23632133 L17.7767224,8.68836019 C17.7767224,11.2460471 19.8572885,13.3270124 22.4149754,13.3270124 L22.5048099,13.3270124 L22.5052091,9.87497359 C22.5052091,7.31728669 20.4242438,5.23632133 17.8665569,5.23632133 Z" id="Combined-Shape"></path>
        </g>
    </g>
</svg>