<?xml version="1.0" encoding="UTF-8"?>
<svg width="35px" height="48px" viewBox="0 0 35 48" version="1.1" xmlns="http://www.w3.org/2000/svg" xmlns:xlink="http://www.w3.org/1999/xlink">
    <title>impact@1x</title>
    <g id="Page-1" stroke="none" stroke-width="1" fill="none" fill-rule="evenodd">
        <g id="noun_Almond_2187220-Copy-7" transform="translate(-11.000000, -1.000000)" fill="#91C423">
            <path d="M42.7021889,20.2697095 L28.5926362,1 L14.4830834,20.2697095 C9.75174514,26.702535 11.2461787,35.2892944 17.9407603,40.1369295 L17.9965293,40.1369295 C20.5463791,41.9887055 23.6490126,43.1313888 26.9195667,43.4232365 L26.9195667,49 L30.2657057,49 L30.2657057,43.4232365 C33.510818,43.1362907 36.5920618,42.0116501 39.132974,40.186722 L39.244512,40.186722 C45.9712049,35.3340878 47.4679015,26.7127721 42.7021889,20.2697095 Z M40.8618125,23.4564315 L30.2657057,32.9170124 L30.2657057,23.9543568 L37.0137526,17.9294606 L39.9137398,21.9128631 C40.2711543,22.4062399 40.5880101,22.9221166 40.8618125,23.4564315 L40.8618125,23.4564315 Z M30.2657057,8.71784232 L35.1176072,15.340249 L30.2657057,19.7219917 L30.2657057,8.71784232 Z M26.9195667,19.6721992 L22.0676651,15.340249 L26.9195667,8.71784232 L26.9195667,19.6721992 Z M20.1715197,17.9294606 L26.9195667,23.9543568 L26.9195667,32.9170124 L16.3234598,23.4564315 C16.5948155,22.9050654 16.9117134,22.3724768 17.2715325,21.8630705 L20.1715197,17.9294606 Z M20.0599817,37.846473 L20.0599817,37.846473 C16.3734703,35.1635774 14.5495465,30.9409324 15.2638491,26.7427386 L26.9195667,37.1493776 L26.9195667,40.4356846 C24.405521,40.1667407 22.0276978,39.2692101 20.0599817,37.846473 Z M37.2368286,37.7966805 L37.1252906,37.7966805 C35.1639594,39.2373413 32.7855766,40.1523474 30.2657057,40.4356846 L30.2657057,37.1493776 L41.9214232,26.7427386 C42.6207705,30.8896441 40.8446906,35.0616697 37.2368286,37.746888 L37.2368286,37.7966805 Z" id="Shape"></path>
        </g>
    </g>
</svg>