<?xml version="1.0" encoding="UTF-8"?>
<svg width="40px" height="32px" viewBox="0 0 40 32" version="1.1" xmlns="http://www.w3.org/2000/svg" xmlns:xlink="http://www.w3.org/1999/xlink">
    <title>jachere@1x</title>
    <g id="Page-1" stroke="none" stroke-width="1" fill="none" fill-rule="evenodd">
        <g id="jachere" fill="#F5A623" fill-rule="nonzero">
            <path d="M24.7291556,0.000139440682 C24.6600417,-0.000937759173 24.5922522,0.00422233734 24.5275398,0.0157535734 C24.2686898,0.0619417027 24.0507807,0.180702904 23.8489047,0.329415306 C23.4451528,0.626841163 23.0873403,1.06421568 22.7576849,1.58200609 C22.098373,2.61758692 21.5645019,3.96226015 21.5459109,5.15672193 C21.5286496,6.26580464 21.7401007,7.57305191 22.4427899,8.65636521 C22.5356695,8.79955472 22.6395002,8.93722715 22.7514492,9.06978161 C16.4344004,15.8090635 16.3545466,24.0487394 15.8985878,32 L16.9648655,32 C17.4213351,24.0446229 17.5157318,16.1980358 23.5371278,9.77937544 C24.2225568,10.2536036 25.1034052,10.5536937 26.1861939,10.5517034 C27.922126,10.5484915 29.5013988,10.086814 30.5988799,9.45954318 C31.1476204,9.14590777 31.5822708,8.79685463 31.8553417,8.37458181 C32.1284125,7.952309 32.1939768,7.3405348 31.8626155,6.90911282 L30.9200094,5.68120414 C30.7731835,5.490041 30.5305444,5.34753282 30.2974944,5.31612258 C30.0644438,5.28471444 29.8615052,5.33558878 29.6812144,5.40456452 C29.3206344,5.54251391 29.0051861,5.77109671 28.6741743,6.01132027 C28.0121514,6.4917679 27.2752827,6.9942144 26.9074375,7.03252074 C26.359452,7.08958562 25.7760909,6.98327341 25.4244172,6.74971112 C25.072744,6.5161483 24.8780786,6.22639046 24.9868903,5.5516257 C25.0817019,4.96367956 25.7198038,4.21422082 26.3192178,3.56270124 C26.618925,3.23694172 26.9008564,2.9427583 27.0913859,2.59703446 C27.1866509,2.42417228 27.2700213,2.22419011 27.2535097,1.972796 C27.2369987,1.72140242 27.0761061,1.4607017 26.8762596,1.31564876 L25.3288069,0.192636943 C25.1546746,0.0662477506 24.9364962,0.00408333066 24.7291556,0.000139440682 Z M15.7873869,0.415795271 C15.59089,0.416431382 15.3954189,0.463130256 15.2189135,0.566974039 L13.8793111,1.35472806 C13.6707525,1.47744832 13.4997001,1.69991167 13.4417837,1.9254895 C13.3838673,2.15106786 13.4126831,2.35643391 13.4615299,2.54150077 C13.5592271,2.91163554 13.752482,3.24708552 13.956216,3.59972388 C14.3636841,4.30500061 14.7855987,5.08587275 14.7824252,5.45187103 C14.7776895,5.99710525 14.6046651,6.55893446 14.3303486,6.87826071 C14.0560321,7.19758749 13.7432341,7.35676857 13.0780441,7.17341139 C12.4984391,7.01364585 11.8176054,6.30109391 11.2312837,5.6380115 C10.9381228,5.30647004 10.6755577,4.99650093 10.3499936,4.7700422 C10.1872121,4.65681283 9.99527366,4.55190122 9.74098909,4.53968075 C9.48670452,4.52745974 9.20671368,4.65681862 9.03845153,4.83688809 L7.73626215,6.23036952 C7.54077938,6.43956984 7.45001648,6.73885649 7.46709475,6.99858363 C7.48417515,7.25831077 7.57861698,7.48566515 7.7050843,7.70098018 C7.95801947,8.1316113 8.3573709,8.53279774 8.83995335,8.91552 C9.80511721,9.6809645 11.0951534,10.3581203 12.2923654,10.5115958 C13.3611535,10.6486079 14.6355402,10.5939088 15.7697196,10.08481 C16.8910084,11.299235 17.8226788,12.6650278 18.596499,14.1572714 C18.7838247,13.7736956 18.9846812,13.3937198 19.1971901,13.015748 C18.4888372,11.7607272 17.6559655,10.5952162 16.6894624,9.52638907 C17.483478,8.88500276 18.0812893,7.90646997 18.2337986,6.55945731 C18.4270785,4.85233942 18.1428644,3.24726665 17.6372649,2.09723225 C17.3844649,1.52221532 17.082543,1.05602271 16.6894624,0.739745128 C16.4929218,0.581606598 16.2435672,0.468548884 15.9838067,0.430197256 C15.9188666,0.420608954 15.8528863,0.415591024 15.7873869,0.415795271 L15.7873869,0.415795271 Z M24.7146058,1.05237853 L26.1529377,2.09723225 C26.0687909,2.2480803 25.827132,2.53389068 25.5325015,2.85413417 C24.9397383,3.49842382 24.1098767,4.30905866 23.9362026,5.38605347 C23.7765264,6.37623071 24.187169,7.19625008 24.8310026,7.62385043 C25.4748363,8.05145078 26.2763114,8.15673412 27.0186388,8.07943114 C27.941107,7.98336804 28.671807,7.31852383 29.3039653,6.85974965 C29.6200448,6.63036283 29.9084178,6.44647647 30.0647018,6.38668622 C30.1073549,6.37036873 30.0993681,6.37460738 30.1135486,6.37229061 L31.015624,7.54672278 C31.0730801,7.62152891 31.086388,7.61069639 30.959504,7.80690748 C30.8326206,8.00311857 30.5188781,8.28998572 30.0667823,8.54838334 C29.1625902,9.06517912 27.7270981,9.49579075 26.1851569,9.49863421 C24.6994208,9.5013626 23.8781441,8.91941008 23.3386318,8.08766044 C22.7991189,7.25591132 22.5952189,6.13013728 22.6101123,5.17317685 C22.6236756,4.301596 23.0914678,3.03450007 23.6587227,2.14351253 C23.9423505,1.69801875 24.2546578,1.34259868 24.4838928,1.17373189 C24.598109,1.08959441 24.6865663,1.05750229 24.7146058,1.05237853 L24.7146058,1.05237853 Z M12.0481402,1.16550259 C11.9742656,1.15585636 11.9037507,1.15844168 11.8454847,1.16860917 C11.6124213,1.20918438 11.4999291,1.30809659 11.3871724,1.40308449 C11.2744162,1.49807239 11.1744246,1.60594842 11.0764347,1.72497341 C10.8804539,1.96302288 10.6977782,2.24430922 10.5578451,2.5260963 C10.4179124,2.80788338 10.2667626,3.04001085 10.3479153,3.4557693 C10.4569159,4.01419442 10.8313842,4.32007073 11.1626928,4.66516692 C11.4940015,5.01026365 11.8310909,5.38293951 11.8569169,5.43132489 C11.9917594,5.68395216 12.3059196,5.86476721 12.5604936,5.87250788 C12.8150677,5.88024802 13.0029818,5.79556347 13.1601449,5.70179346 C13.3173085,5.60802344 13.4443702,5.49904589 13.5519448,5.36036514 C13.6057331,5.2910245 13.6568381,5.21478144 13.6953627,5.09915158 C13.7338867,4.98352171 13.7667843,4.7843799 13.6444407,4.58289498 C13.5604089,4.44451014 13.5063029,4.38887113 13.395019,4.22706894 C13.2837346,4.06526674 13.1470872,3.85485538 13.0198467,3.61825653 C12.7653685,3.14505936 12.569004,2.5711729 12.615576,2.13633315 C12.6366206,1.93982877 12.6515939,1.77428972 12.5573776,1.55528733 C12.5102709,1.44578639 12.4162473,1.31534652 12.2715816,1.23648393 C12.1992501,1.19705131 12.1220158,1.17517092 12.0481418,1.16552417 L12.0481402,1.16550259 Z M15.8528602,1.44111334 C15.8837433,1.44982759 15.926779,1.48281535 16.0181022,1.55629407 C16.2007491,1.70325467 16.4531256,2.04410274 16.6614021,2.51784752 C17.0779558,3.46533759 17.3475159,4.92587237 17.1758345,6.44221939 C17.0449289,7.59842695 16.5908101,8.29990311 15.9640611,8.76023163 C15.9596978,8.755914 15.9559625,8.75115407 15.9515886,8.74686277 L15.8757229,8.82193638 C15.73596,8.9172144 15.5913907,9.00600545 15.4371563,9.08109275 C14.5409616,9.51739576 13.3876697,9.58970188 12.4285068,9.46674257 C11.5549195,9.35475426 10.3354801,8.75239881 9.50507685,8.09382939 C9.08987524,7.76454467 8.76947197,7.41687896 8.62586519,7.17238358 C8.55443081,7.05076379 8.53228748,6.96004929 8.53025326,6.93173827 L9.74202721,5.6349265 C9.88396746,5.73474172 10.1418293,6.00523767 10.4300156,6.33115305 C11.0098307,6.98687758 11.7305331,7.89475655 12.792247,8.18741353 C13.7683753,8.45647939 14.6387567,8.14573258 15.1409683,7.5611184 C15.6431794,6.97650421 15.8402197,6.19972855 15.8466235,5.46112708 C15.8545784,4.54328966 15.2692012,3.75075833 14.8801145,3.07729728 C14.6855714,2.74056676 14.5337767,2.4355703 14.4914327,2.27514606 C14.4798968,2.23143794 14.4828074,2.24001528 14.4820784,2.2257829 L15.7624432,1.47196598 C15.8032499,1.44795047 15.8219771,1.43240173 15.8528602,1.44111071 L15.8528602,1.44111334 Z M28.6908035,2.3944396 C28.6053717,2.39917846 28.5133094,2.41517476 28.4112437,2.44688829 C27.8628873,2.6172631 27.5978447,3.01998757 27.288846,3.38478849 C26.9798466,3.74958888 26.6433979,4.12316302 26.59774,4.15403093 C26.3593477,4.31520128 26.2129575,4.64536374 26.2339999,4.89653512 C26.2550391,5.14770703 26.3621284,5.32235997 26.4740684,5.46626875 C26.5860078,5.61017699 26.7102903,5.72276819 26.8617109,5.81283926 C26.9374213,5.85787426 27.0187325,5.89911713 27.1391929,5.92390612 C27.2596528,5.94869565 27.4630905,5.95902111 27.6515464,5.81592426 C27.7809839,5.71764127 27.8311268,5.6577573 27.9809911,5.53002964 C28.1308553,5.40230093 28.3263062,5.24484058 28.5494645,5.09295946 C28.9957812,4.78919774 29.5500769,4.530768 29.9919537,4.52734022 C30.191639,4.52581325 30.3595132,4.52135345 30.5687412,4.4039323 C30.6733552,4.34522146 30.7938066,4.23731647 30.8566156,4.0861567 C30.9194247,3.93499694 30.9099198,3.7726761 30.8763618,3.66039925 C30.8092444,3.43584554 30.6966244,3.33680907 30.5884879,3.23669898 C30.4803515,3.1365889 30.3615831,3.05012938 30.2309835,2.96725823 C29.9697843,2.8015154 29.6661315,2.65335797 29.3673608,2.5476713 C29.1432824,2.46840642 28.9470994,2.38017667 28.6908035,2.3944396 L28.6908035,2.3944396 Z M11.6365941,2.79962933 C11.7256303,3.28185351 11.8804314,3.73622476 12.0793175,4.10672443 C12.0262565,4.054281 11.9860176,3.993464 11.9338218,3.93909553 C11.6460564,3.639355 11.4438069,3.31749662 11.4162718,3.28606215 C11.4296967,3.2501363 11.4477668,3.12211799 11.5129224,2.99091148 C11.5443695,2.92758024 11.5964876,2.86680484 11.6365941,2.79962933 L11.6365941,2.79962933 Z M28.7011965,3.4773443 C28.7378954,3.48687468 28.8698508,3.49054993 29.0098558,3.54007685 C29.0769759,3.56381856 29.1436714,3.60801848 29.2156283,3.63983152 C28.7423432,3.78165625 28.3041634,3.98379092 27.9550097,4.22087682 C28.0009725,4.16365135 28.0567184,4.11807717 28.1046627,4.06147512 C28.3728814,3.74481948 28.6723753,3.50838175 28.7011965,3.4773443 Z M39.2434208,7.92928496 C33.056331,13.1145775 27.5143051,19.9599315 24.1762705,31.8190017 L24.8341207,32 L25.2311166,32 C27.7317215,23.1719826 31.4354522,17.2658852 35.7276139,12.7031146 C30.8368545,20.1270944 29.8153605,26.0735712 28.5567394,32 L29.6438025,32 C31.1381272,24.911578 32.1922608,18.1512866 40,8.66356196 L39.2434208,7.92928496 Z M28.2449625,13.22657 L27.6505072,14.0986527 C28.7745959,14.84967 29.695181,15.7305521 30.4544233,16.7210711 C30.6637572,16.4158082 30.8746655,16.113128 31.08837,15.8181364 C30.3033506,14.8471152 29.3652196,13.9750273 28.2449625,13.22657 Z M25.5636789,13.4271077 L24.6117196,13.898115 C25.9913731,16.6207651 26.9727144,19.1238332 27.6338791,21.4506797 C27.8671122,20.9990044 28.1010136,20.5503592 28.3426528,20.1178742 C27.677507,18.0221652 26.7656771,15.7991672 25.5636789,13.4271077 Z M7.38915013,13.7283592 C7.12652809,13.7310616 6.86577691,13.8089896 6.65543473,13.9824436 L5.45821051,14.969707 C5.27180536,15.1234215 5.13859688,15.3693522 5.11733417,15.6011443 C5.09607147,15.8329358 5.15705541,16.0307076 5.23477016,16.2058428 C5.39020073,16.5561133 5.63422589,16.8571118 5.89158067,17.1735668 C6.40629077,17.8064763 6.94738451,18.5126198 7.00254674,18.8745394 C7.08472262,19.4136948 7.00329168,19.996286 6.78326316,20.3544056 C6.56323676,20.7125253 6.27939458,20.9171278 5.59331381,20.8398101 C4.99550677,20.7724408 4.20979938,20.1752492 3.52519198,19.6119014 C3.18288855,19.3302276 2.87467728,19.0648728 2.5171127,18.8920222 C2.33833094,18.8055963 2.13206198,18.7317654 1.87900869,18.7593587 C1.62595699,18.7869494 1.37006867,18.95843 1.23259115,19.1624907 L0.168391847,20.7421121 C0.00867309044,20.979187 -0.0332590226,21.2894183 0.0249744954,21.5432355 C0.0832074812,21.7970528 0.212904643,22.0064548 0.372085978,22.1993544 C0.690449181,22.5851527 1.14819802,22.9189115 1.68570699,23.2215833 C2.76072601,23.8269263 4.14239565,24.2944063 5.34908858,24.2592381 C6.36211586,24.229715 7.52846446,24.0044368 8.52817595,23.4128654 C11.3079571,27.1041336 11.2006124,29.3749557 11.4453708,32 L12.5158058,32 C12.2633261,29.3818002 12.3366664,26.7061754 9.3689349,22.7670309 C10.143647,22.0022983 10.6558541,20.8889342 10.5869445,19.4298748 C10.5059031,17.7139495 9.96928804,16.1735712 9.28683405,15.1167681 C8.945606,14.5883664 8.57388065,14.174841 8.13533689,13.9238249 C7.916065,13.7983166 7.65177217,13.7257872 7.38915013,13.7283592 L7.38915013,13.7283592 Z M7.42136877,14.7465444 C7.45329474,14.7505461 7.50135292,14.7766678 7.60323883,14.8349863 C7.80701012,14.9516224 8.10986527,15.2480768 8.39099587,15.6834162 C8.95325652,16.5540946 9.4528401,17.9550671 9.5248252,19.479238 C9.59418652,20.9478515 9.04333248,21.7850445 8.2278323,22.3556711 C7.41233212,22.9262973 6.28467142,23.1779815 5.31791233,23.2061572 C4.4374066,23.2318208 3.13649212,22.8271302 2.21157256,22.306308 C1.74911358,22.0458969 1.3769732,21.7530214 1.19621841,21.53398 C1.10633082,21.4250519 1.07076634,21.3384824 1.06423269,21.3108174 L2.05360601,19.8412346 C2.20957666,19.9175055 2.50879066,20.1441649 2.84551981,20.4212521 C3.52252989,20.9783477 4.37770449,21.7633136 5.47276184,21.886721 C6.47954547,22.00018 7.28979648,21.5561216 7.69261508,20.900486 C8.09543314,20.2448505 8.1655958,19.4485918 8.05427629,18.7182222 C7.91594315,17.8106171 7.21240046,17.1187213 6.72090959,16.5143629 C6.47516416,16.2121834 6.27592263,15.9349857 6.20855563,15.7831709 C6.19003856,15.7414373 6.19382711,15.7496566 6.19088992,15.7358665 L7.3371906,14.7907675 C7.37366071,14.7606915 7.38944811,14.7425521 7.42136877,14.7465433 L7.42136877,14.7465444 Z M3.61976631,15.0684333 C3.54535111,15.0705921 3.47615049,15.084298 3.42022894,15.1034009 C3.19654117,15.1798171 3.10178273,15.2943634 3.00556528,15.4057504 C2.90934783,15.5171374 2.82667604,15.6390405 2.7488687,15.7718603 C2.59325403,16.037501 2.45764524,16.3438533 2.3643437,16.6439429 C2.27104215,16.9440331 2.15978543,17.1962791 2.3061453,17.5941842 C2.50272792,18.1286291 2.9206592,18.3725531 3.30279295,18.6616628 C3.6849267,18.9507725 4.07708574,19.2658022 4.11029568,19.309554 C4.28369046,19.5379936 4.62256397,19.6686462 4.87518893,19.6365851 C5.12781388,19.6045241 5.30028121,19.4914537 5.44054481,19.3743432 C5.5808084,19.2572333 5.68896457,19.1290507 5.77310709,18.9753246 C5.81518021,18.8984612 5.85324981,18.8157933 5.87287577,18.6955999 C5.89249961,18.5754065 5.89379793,18.3736247 5.74089005,18.1937411 C5.63586688,18.070191 5.57309136,18.0245594 5.4374267,17.882136 C5.30176257,17.7397126 5.13413469,17.5519088 4.97080032,17.3381128 C4.64413104,16.9105183 4.35804394,16.3751272 4.33477362,15.9384593 C4.32425933,15.7411282 4.31304267,15.5754381 4.18512059,15.3738678 C4.12115956,15.2730827 4.00693692,15.1587129 3.85151912,15.1033987 C3.77380969,15.0757396 3.69417991,15.0662934 3.61976631,15.0684312 L3.61976631,15.0684333 Z M20.3538848,15.4016344 C20.1375347,15.8645772 19.9467445,16.3339538 19.7656651,16.806428 C21.4051035,21.2124038 22.0175587,26.4453699 22.2536465,32 L23.3199242,32 C23.0664495,25.956337 22.3787623,20.1999013 20.3538848,15.4016344 L20.3538848,15.4016344 Z M3.47427005,16.7447244 C3.63903311,17.2076119 3.86293106,17.6333604 4.11860973,17.9685192 C4.05801635,17.9251164 4.00925687,17.8710012 3.94921102,17.8255719 C3.61800453,17.5749923 3.36722117,17.2899417 3.3339708,17.2620093 C3.34165432,17.2250251 3.33806797,17.0939897 3.38177463,16.9534892 C3.40284578,16.8857182 3.44519293,16.8176739 3.47427005,16.7447244 L3.47427005,16.7447244 Z M32.0839801,18.0693027 C31.9473731,18.2706655 31.8152948,18.4842013 31.6807481,18.6904556 C31.7034261,18.7350957 31.7239865,18.7812449 31.7462213,18.8262046 C31.8561483,18.5751085 31.9664467,18.3234085 32.0839801,18.0693027 Z M33.4599563,20.1415274 C33.2387976,20.6661676 33.030165,21.184643 32.8405588,21.6974956 C32.8458851,21.7164089 32.8529514,21.7340796 32.8582245,21.7530287 C33.7066632,24.8000773 33.9055009,28.3307112 33.9265805,32 L34.9907798,32 C34.9703632,28.2940819 34.7779272,24.6800903 33.8850102,21.4733041 C33.7589819,21.0206915 33.6159402,20.577306 33.4599563,20.1415274 Z M29.1501571,23.1454818 C28.8890814,23.675747 28.6332622,24.2198608 28.3842242,24.7796081 C28.6051025,26.1187595 28.7148379,27.3969986 28.7282186,28.6227363 C28.9689437,27.5155439 29.228387,26.3957745 29.5305249,25.2547287 C29.4331575,24.5669452 29.3060517,23.8635809 29.1501571,23.1454818 Z" id="Shape"></path>
        </g>
    </g>
</svg>