<?xml version="1.0" encoding="UTF-8"?>
<svg width="55px" height="54px" viewBox="0 0 55 54" version="1.1" xmlns="http://www.w3.org/2000/svg" xmlns:xlink="http://www.w3.org/1999/xlink">
    <title>label@1x</title>
    <g id="Page-1" stroke="none" stroke-width="1" fill="none" fill-rule="evenodd">
        <g id="noun_Almond_2187220-Copy-14" transform="translate(0.197826, -0.000000)" fill="#91C423">
            <path d="M1.98295991,44.4995013 L2.07595928,44.5154246 C8.09777105,45.9733369 13.9059457,48.0707333 19.2054941,50.6899669 C19.7319264,50.9005398 19.9586921,51.5160468 19.7346924,52.0722794 C19.5414103,52.4588435 19.2141756,52.677 18.8011862,52.677 C18.7242722,52.677 18.6748451,52.6747533 18.6076572,52.6635553 C18.5553877,52.6548437 18.5052892,52.6419517 18.4576542,52.6232837 L18.388086,52.5907503 L18.32868,52.55226 L17.7638587,52.2765726 C13.1192229,50.0332147 8.16516705,48.2230264 2.95018232,46.8581367 L2.26849116,46.6826339 L1.58386441,46.5121878 C1.04345718,46.4041064 0.714302995,45.8116288 0.821840482,45.2739414 C0.924775193,44.7592678 1.46707143,44.436207 1.98295991,44.4995013 Z M1.85688414,38.9773569 L1.93313953,38.9897069 L2.49489338,39.0999896 C12.4178148,41.0783178 22.2615159,44.6499305 31.1993516,50.3313927 L31.7042938,50.6552417 C32.1885385,50.9457885 32.3261663,51.5273933 32.0763064,52.0221809 L32.05116,52.0668 L32.0429197,52.0894305 C31.9188919,52.3614205 31.6297055,52.5501006 31.3336269,52.6002323 L31.2528262,52.610428 L31.1785546,52.6135263 C31.1625386,52.6135263 31.1407239,52.6106011 31.1150417,52.605559 L31.0283244,52.5848906 L30.8800882,52.5406846 L30.744823,52.4951862 L30.6544265,52.4609476 L30.6696403,52.4657957 L30.5787057,52.4222562 C21.5497227,46.61791 11.6315305,43.0411132 1.53323617,41.0558053 C0.939630028,40.956871 0.583207275,40.3736337 0.692538749,39.82805 C0.786976089,39.2614259 1.3226894,38.9109132 1.85688414,38.9773569 Z M1.92391913,33.7733099 L1.97203585,33.7807314 C7.69300249,34.562734 13.8433246,35.9950828 20.0733032,38.2442223 C28.2440816,41.1940272 35.8441485,45.3061599 42.5294493,50.742 C42.9663412,51.0696689 42.9993892,51.7636767 42.6869034,52.1792852 C42.4898148,52.4749181 42.1848767,52.6135263 41.8421336,52.6135263 C41.616525,52.6135263 41.3845293,52.5140996 41.2690613,52.3956499 C34.7634766,47.0990677 27.3680027,43.0965559 19.4015223,40.2200202 C13.5418627,38.1042151 7.75699791,36.7279272 2.31621549,35.935329 L1.75176,35.85492 L1.71305335,35.8533855 C1.18038171,35.8105626 0.786194237,35.3289973 0.804423735,34.822621 L0.810285529,34.7465302 L0.8154,34.71066 L0.817063884,34.6760777 C0.862027874,34.1167725 1.39070537,33.710146 1.92391913,33.7733099 Z M51.3631862,24.129 C51.9208933,24.129 52.402923,24.5788944 52.402923,25.1687368 C52.402923,25.6998865 51.9948556,26.1623945 51.4464639,26.2052384 L51.2067272,26.214439 L50.8497984,26.2378666 L49.995001,26.30874 L49.2052716,26.3856847 L48.9266334,26.4153544 C47.002237,26.6250878 44.8413374,26.9457789 42.4982715,27.3991638 C36.4745321,28.5647619 30.3349217,30.3837117 24.3736389,32.9867141 L23.7356258,33.2686134 L23.36418,33.43626 L24.4728156,33.8384286 L25.1357926,34.0835052 L25.7670318,34.3209983 L26.3723752,34.5532954 L26.9576645,34.7827843 L27.5287418,35.0118525 L28.0914489,35.2428877 L28.44882,35.39268 L28.9221967,35.1930831 C36.0776122,32.2051935 43.2246155,30.3090853 49.9742806,29.2624579 L50.5867811,29.1696434 L51.1796238,29.083924 L51.2362388,29.0799474 C51.719914,29.0799474 52.1769053,29.4294202 52.3112804,29.8937065 L52.3315845,29.9767835 L52.3394493,30.0562105 C52.3394493,30.5683372 51.9476528,31.0505483 51.4183546,31.155646 C45.3264652,31.9932808 38.7146094,33.6074459 32.0616454,36.1618438 L31.4378242,36.4040782 L31.0635,36.55206 L31.1999194,36.6150038 C32.4861522,37.2089614 33.681927,37.7973896 34.831989,38.4068241 L35.3222044,38.6693737 L35.58708,38.81412 L36.100164,38.6155743 C40.4665916,36.9450927 45.0085847,35.612125 49.6091032,34.6524717 L50.3763782,34.4959922 L51.1061835,34.3537736 C51.6874119,34.2569022 52.2221294,34.6343498 52.3339389,35.194471 C52.4308103,35.7756994 52.0533627,36.3104169 51.5031431,36.4204495 C47.2311615,37.2419844 43.1448548,38.3306682 39.2525087,39.6963184 L38.5249688,39.9556259 L37.9674,40.1598 L38.4415164,40.435837 C39.2595798,40.9177466 40.0772794,41.4231485 40.879659,41.9432745 L41.4783376,42.3359927 L41.89482,42.61518 L42.384845,42.4309536 C44.6857688,41.5775361 47.0765102,40.8284532 49.5331066,40.1888016 L50.2720372,40.0001941 L50.99814,39.82176 L51.0313323,39.8106197 C51.5159345,39.6647408 52.0492688,39.9665385 52.225527,40.4294083 L52.2503307,40.5037897 L52.25904,40.5405 L52.2723575,40.5783563 C52.4182672,41.0629516 52.1171153,41.5961407 51.6677751,41.7693565 L51.5956387,41.7936553 L51.5248868,41.8109077 C49.2599565,42.3771403 47.0298752,43.0184379 44.860371,43.7295411 L43.98786,44.02026 L44.4313372,44.3413831 C46.7557087,46.0430223 48.9695016,47.892587 51.0421549,49.8763158 L51.5573602,50.3750352 L52.0304065,50.8430954 C52.4424636,51.2551525 52.4424636,51.8924264 52.0304065,52.3044835 C51.8236158,52.5112742 51.5935486,52.6135263 51.2997125,52.6135263 C51.0363088,52.6135263 50.7645585,52.5112626 50.6430085,52.2892343 L50.61258,52.22178 L50.3149861,51.9267055 C41.9044145,43.6568656 31.4572429,37.982354 19.9861736,34.4442709 L19.4560163,34.2824901 L18.9323716,34.1260805 C14.6905925,32.8725915 10.607943,31.9996964 6.83770351,31.4426874 L6.47744137,31.3903086 L5.77675768,31.2934048 L5.10334556,31.2067544 L4.45818595,31.1300956 L3.84225975,31.0631666 L3.25654788,31.0057056 L2.93400858,30.9770103 L2.49761063,30.9418165 L1.97054215,30.9071385 L1.91718618,30.9055263 C1.31266875,30.9055263 0.87744934,30.4703069 0.87744934,29.8657895 C0.87744934,29.275947 1.35947904,28.8260526 1.91718618,28.8260526 L1.98511582,28.8278628 L2.31786854,28.8472135 L2.94397904,28.8948384 L3.44260049,28.9388947 L3.76353358,28.9698748 L4.42997426,29.0399057 L5.12835361,29.1209718 C5.84237139,29.2076654 6.60280806,29.3114057 7.40519621,29.4336743 C11.3840879,30.0399816 15.6550515,30.9829109 20.068126,32.3307366 L20.54592,32.4783 L21.0343959,32.2440525 C27.3653844,29.2349038 33.9450291,27.1090372 40.4483982,25.7188052 L41.1208751,25.5776062 L41.7710657,25.4459248 C44.1153679,24.9796728 46.2939825,24.6403858 48.2592077,24.4086348 L49.1125912,24.3134704 L49.9290244,24.2333005 L50.4081032,24.1913652 L50.8137167,24.1595491 L51.2444575,24.132504 L51.3631862,24.129 Z M26.2276072,21.3996316 C26.7593326,21.3996316 27.1669098,21.7381616 27.252362,22.258377 L27.2635875,22.3467349 L27.2669779,22.4565869 L27.1403967,25.4226316 C27.1403967,25.9425666 26.7662409,26.3566367 26.2693159,26.4465163 L26.1854014,26.458457 L26.0824645,26.4619595 L25.9892724,26.4573318 C25.5072464,26.413171 25.1528676,26.0820555 25.075434,25.6010909 L25.0641971,25.5091875 L25.0612892,25.4054131 L25.1878704,22.4393684 C25.1878704,21.849526 25.6699001,21.3996316 26.2276072,21.3996316 Z M31.3402249,20.7963161 L31.3957498,20.8633623 L31.408833,20.8815339 L31.4738427,20.9819719 L32.8587866,23.6274187 C33.1646082,24.1371214 32.976045,24.7656655 32.4387287,25.0866641 C32.3431001,25.1344784 32.2574537,25.1641252 32.1655046,25.1794501 L32.1256377,25.1853552 L32.0469609,25.1915424 L31.9402388,25.1928947 C31.6333138,25.1928947 31.3648939,25.0721444 31.1546944,24.8489194 L31.0868113,24.7707408 L31.0421446,24.7097051 L31.0102139,24.6584491 L29.62527,22.0130024 C29.3347394,21.5287848 29.4903912,20.9373129 29.9143112,20.6369487 L29.9834493,20.592 C30.3879464,20.2886272 30.9923538,20.4087375 31.3402249,20.7963161 Z M22.4865347,20.209078 L22.5640833,20.2513469 L22.5987125,20.2746316 C22.9742145,20.5562581 23.1426022,21.0600495 22.9738394,21.525338 L22.9382136,21.6120647 L22.8895729,21.7019127 L21.2962718,24.2508641 C21.0995022,24.5460186 20.7233186,24.7485789 20.3880283,24.7485789 L20.2813062,24.7472266 L20.2026294,24.7410394 C20.1898901,24.7394278 20.1768466,24.7374816 20.1627625,24.7351343 C20.0938006,24.7236406 20.0283841,24.7040909 19.9596426,24.6748627 L19.8895384,24.6423483 L19.8276599,24.6041053 C19.4513799,24.3218953 19.2907848,23.8237998 19.4439616,23.3314828 L19.4763832,23.2392952 L19.5102923,23.1631832 L19.5367995,23.1133504 L21.1430809,20.5460526 C21.4505342,20.136115 22.0156467,19.9773066 22.4865347,20.209078 Z M34.1195947,17.4967401 L34.2029656,17.5307121 L34.2231457,17.5406568 L34.3169089,17.5917758 L36.7821885,19.1722943 C37.2664333,19.4628412 37.404061,20.0444459 37.1542011,20.5392335 L37.12986,20.58264 L37.1208144,20.6064831 C36.9967866,20.8784732 36.7076003,21.0671532 36.4115216,21.1172849 L36.3307209,21.1274806 L36.2564493,21.1305789 C36.1537151,21.1305789 36.0761201,21.1099447 35.9571033,21.0569163 L35.8218141,20.9926542 L35.7244313,20.9420709 L33.1917628,19.3590741 C32.6820315,19.0532353 32.5563633,18.4248947 32.8857125,17.8801579 C33.167339,17.5046558 33.6711304,17.3362682 34.1195947,17.4967401 Z M19.8200199,17.3563081 L19.8791223,17.4258406 L19.910155,17.4704713 C20.1786912,17.9180316 20.0672574,18.4624465 19.6677981,18.8056232 L19.5943341,18.8640342 L19.5071223,18.9206916 L16.8876761,20.3896114 C16.7920474,20.4374258 16.7064011,20.4670726 16.614452,20.4823974 C16.5862838,20.4870921 16.5622779,20.4901822 16.5365432,20.4922002 L16.448262,20.4955706 L16.3891862,20.4958421 L16.3891862,20.4958421 C16.0075403,20.4958421 15.6887967,20.3099084 15.4706384,19.9818445 C15.2021022,19.5342841 15.313536,18.9898693 15.7129953,18.6466925 L15.7864593,18.5882816 L15.8736711,18.5316242 L18.4312388,17.1009474 C18.8592719,16.7799226 19.4353204,16.9302654 19.8200199,17.3563081 Z M26.481502,8.00668421 C29.7097265,8.00668421 32.3452388,10.6211124 32.3452388,13.8704211 C32.3452388,17.0773595 29.6884405,19.7341579 26.481502,19.7341579 C23.2532774,19.7341579 20.6177651,17.1197297 20.6177651,13.8704211 C20.6177651,10.6211124 23.2532774,8.00668421 26.481502,8.00668421 Z M26.481502,10.0226842 C24.3794249,10.0226842 22.6972388,11.7225775 22.6972388,13.8069474 C22.6972388,15.8913172 24.3794249,17.5912105 26.481502,17.5912105 C28.5658719,17.5912105 30.2657651,15.9090245 30.2657651,13.8069474 C30.2657651,11.7225775 28.5835791,10.0226842 26.481502,10.0226842 Z M35.113923,13.2115263 L38.0971862,13.3384737 C38.6542784,13.3384737 39.0734493,13.7898886 39.0734493,14.3782105 C39.0734493,14.8981456 38.6992936,15.3122157 38.2023685,15.4020952 L38.1184541,15.414036 L38.0337125,15.4179474 L37.9530204,15.4175812 L34.9869757,15.291 C34.4564117,15.291 34.0509463,14.8815534 34.0135336,14.3343439 L34.0107125,14.2512632 L34.0185773,14.1718361 C34.120348,13.6629827 34.6019015,13.2115263 35.113923,13.2115263 Z M14.9292914,12.6402632 L17.9125546,12.7037368 C18.517072,12.7037368 18.9522914,13.1389563 18.9522914,13.7434737 C18.9522914,14.2634087 18.5781357,14.6774788 18.0812107,14.7673584 L17.9972962,14.7792991 L17.9039395,14.7831189 L14.9292914,14.7197368 C14.324774,14.7197368 13.8895546,14.2845174 13.8895546,13.68 C13.8895546,13.0901575 14.3715843,12.6402632 14.9292914,12.6402632 Z M37.700394,8.0691788 L37.7666523,8.16953362 C38.0078427,8.56339261 37.8909215,9.11328489 37.5160133,9.41714995 L37.4471953,9.46813744 L37.3771695,9.51128474 L37.3262024,9.53561143 L34.6603077,10.8685588 C34.564679,10.9163731 34.4790327,10.9460199 34.3870836,10.9613448 L34.3472166,10.96725 L34.2685398,10.9734371 L34.1618178,10.9747895 C33.7801718,10.9747895 33.4614283,10.7888558 33.2665546,10.4954211 C32.9529035,10.0772196 33.0910385,9.4373567 33.5423349,9.13249414 L33.6123608,9.08934684 L33.6633278,9.06502015 L36.3019733,7.74703115 C36.7874044,7.45577247 37.3806282,7.61293541 37.700394,8.0691788 Z M16.9185145,6.96026399 L17.0013328,6.99397815 L17.1053464,7.04882063 L19.678923,8.59547368 C20.0612724,8.88223573 20.2371455,9.41037724 20.0960481,9.87268273 L20.0658508,9.95851849 L20.0267981,10.0327588 C19.8300285,10.3279133 19.4538449,10.5304737 19.1185546,10.5304737 L19.0118325,10.5291213 C18.9973644,10.5285818 18.9840649,10.5278408 18.9711976,10.5268318 L18.8932888,10.517029 C18.8510671,10.5099921 18.8098445,10.4998465 18.7596168,10.4826501 L18.7060167,10.4629574 L18.5928154,10.4092846 L16.053868,8.88591621 C15.5438011,8.57987602 15.3552378,7.95133192 15.6610594,7.44162922 C15.9283359,6.99616844 16.4461909,6.79135433 16.9185145,6.96026399 Z M33.4180833,3.30387326 C33.8667673,3.57308368 34.0138693,4.08445641 33.8377779,4.6035211 L33.8033436,4.69515288 L33.7686446,4.77126488 L33.7371139,4.82791674 L32.0867981,7.30339042 L32.036196,7.36511509 C31.8150901,7.58622101 31.537504,7.73763158 31.2420283,7.73763158 C31.0922856,7.73763158 30.9863477,7.71038344 30.8165296,7.63258094 L30.6528154,7.55296885 C30.2050915,7.28433449 30.0499315,6.76243631 30.2421771,6.27452394 L30.2797202,6.18883302 L30.3337848,6.09239905 L31.9737963,3.63320817 C32.2796351,3.12347687 32.9079757,2.99780873 33.4180833,3.30387326 Z M21.4935997,3.077853 L21.5541284,3.14976663 L21.6298778,3.2625902 L23.1125877,5.91274467 C23.3185838,6.42773511 23.1730523,7.00986109 22.6637814,7.31403249 C22.5681527,7.36184683 22.4825064,7.39149363 22.3905572,7.40681849 C22.3623891,7.41151318 22.3383832,7.41460326 22.3126485,7.41662128 L22.2243672,7.41999164 C22.2068257,7.42019484 22.1873792,7.42026316 22.1652914,7.42026316 C21.8583664,7.42026316 21.5899466,7.29951278 21.3797471,7.07628784 L21.3118639,6.99810924 L21.2408104,6.89604138 L19.7581005,4.24588691 C19.5635485,3.75950705 19.6825506,3.21324394 20.1024388,2.91041006 L20.1796575,2.85955747 L20.2376151,2.83080905 C20.6803038,2.65373356 21.1784091,2.73564048 21.4935997,3.077853 Z M26.481502,1.215 C27.0132273,1.215 27.4208045,1.55353003 27.5062568,2.07374538 L27.5174822,2.16210331 L27.5212388,2.25473684 L27.5212388,5.238 C27.5212388,5.84251743 27.0860194,6.27773684 26.481502,6.27773684 C25.9497766,6.27773684 25.5421995,5.93920682 25.4567472,5.41899147 L25.4455217,5.33063353 L25.4417651,5.238 L25.4417651,2.25473684 C25.4417651,1.65021941 25.8769845,1.215 26.481502,1.215 Z" id="Combined-Shape"></path>
        </g>
    </g>
</svg>