<?xml version="1.0" encoding="UTF-8"?>
<svg width="37px" height="39px" viewBox="0 0 37 39" version="1.1" xmlns="http://www.w3.org/2000/svg" xmlns:xlink="http://www.w3.org/1999/xlink">
    <title>legumes 2@1x</title>
    <g id="Page-1" stroke="none" stroke-width="1" fill="none" fill-rule="evenodd">
        <g id="legumes" transform="translate(0.000000, 0.136364)" fill="#91C423">
            <path d="M25.2710999,23.2260274 C24.9096334,23.5273973 24.9096334,23.9794521 25.2710999,24.2808219 C28.4339315,26.9178082 29.1568645,30.760274 26.897699,32.7191781 C26.5362325,33.0205479 26.5362325,33.4726027 26.897699,33.7739726 C27.0784322,33.9246575 27.3495321,34 27.5302653,34 C27.8013652,34 27.9820984,33.9246575 28.1628317,33.7739726 C31.1449301,31.2876712 30.4219972,26.4657534 26.5362325,23.2260274 C26.2651327,22.9246575 25.6325663,22.9246575 25.2710999,23.2260274 Z" id="Path"></path>
            <path d="M36.0241485,17.4166667 C36.4255927,17.4958333 36.9073257,17.1791667 36.9876145,16.7833333 C37.0679034,16.3875 36.746748,15.9125 36.3453039,15.8333333 C34.8198159,15.5958333 33.5351946,15.7541667 32.4914397,16.0708333 C32.812595,15.0416667 32.9731727,13.775 32.7323062,12.2708333 C32.6520173,11.875 32.2505732,11.5583333 31.7688401,11.6375 C31.367396,11.7166667 31.0462406,12.1125 31.1265294,12.5875 C31.5279736,14.725 30.8053741,16.3083333 30.1630634,17.1791667 C29.9221969,17.3375 29.7616192,17.4958333 29.6010415,17.6541667 L29.1995974,17.2583333 C29.6813304,16.625 30.4842187,15.1208333 30.0024857,12.7458333 C29.9221969,12.35 29.5207527,12.0333333 29.0390197,12.1125 C28.6375755,12.1916667 28.3164201,12.5875 28.396709,13.0625 C28.6375755,14.6458333 28.3164201,15.675 27.9952648,16.15 L27.914976,16.0708333 C27.5938206,15.7541667 27.1120876,15.7541667 26.7909322,16.0708333 L24.944289,17.9708333 C23.0976457,16.9416667 21.0904248,16.4666667 19.1634927,16.4666667 C17.557716,16.4666667 15.9519392,16.8625 14.6673178,17.575 C14.3461625,16.3875 14.0250071,15.2 13.7038518,14.1708333 C13.9447183,14.25 14.1855848,14.25 14.4264513,14.25 C14.9081843,14.25 15.2293397,13.9333333 15.2293397,13.4583333 C15.2293397,9.18333333 13.623563,5.4625 11.134609,3.72083333 L11.134609,0.791666667 C11.134609,0.316666667 10.8134537,0 10.3317206,0 L6.23698994,0 C5.75525692,0 5.43410157,0.316666667 5.43410157,0.791666667 L5.43410157,3.72083333 C2.94514762,5.4625 1.41965972,9.18333333 1.41965972,13.4583333 C1.41965972,13.9333333 1.74081507,14.25 2.22254809,14.25 C2.94514762,14.25 3.58745832,14.0916667 4.22976902,13.8541667 C4.06919134,15.5166667 3.9889025,17.4166667 3.74803599,19.1583333 C3.66774716,19.6333333 3.58745832,20.2666667 3.42688065,20.8208333 C3.34659181,22.325 1.58023739,25.7291667 1.58023739,25.7291667 C1.58023739,25.7291667 1.58023739,25.8083333 1.49994856,25.8083333 C1.41965972,25.9666667 0.215327162,28.6583333 0.0547494877,29.5291667 C-0.186117024,31.5083333 0.375904836,33.4875 1.58023739,35.0708333 C3.90861367,38 7.36103366,38 7.68218901,38 C9.12738808,38 10.5725871,37.525 11.8572085,36.7333333 C11.9374974,36.7333333 12.0177862,36.8125 12.0980751,36.8125 C12.2586527,36.8125 16.5942499,37.6041667 21.010136,37.6041667 C25.2654443,37.6041667 28.1558425,36.8916667 29.6010415,35.4666667 C32.6520173,32.4583333 32.8928839,27.6291667 30.5645076,23.4333333 L32.4914397,21.5333333 C32.6520173,21.375 32.7323062,21.2166667 32.7323062,20.9791667 C32.7323062,20.7416667 32.6520173,20.5833333 32.4914397,20.425 L32.330862,20.2666667 C32.8928839,19.95 33.8563499,19.5541667 35.4621266,19.8708333 C35.8635708,19.95 36.3453039,19.6333333 36.4255927,19.2375 C36.5058815,18.8416667 36.1847262,18.3666667 35.783282,18.2875 C33.3746169,17.8916667 31.849129,18.6041667 31.2068183,19.0791667 L30.9659518,18.8416667 C31.1265294,18.6833333 31.2871071,18.525 31.4476848,18.2875 C32.2505732,17.7333333 33.8563499,17.1 36.0241485,17.4166667 Z M3.02543646,12.5083333 C3.26630297,9.025 4.6312132,6.01666667 6.63843413,4.82916667 C6.87930064,4.67083333 7.03987831,4.43333333 7.03987831,4.11666667 L7.03987831,1.58333333 L9.6091211,1.58333333 L9.6091211,4.11666667 C9.6091211,4.43333333 9.76969878,4.67083333 10.0105653,4.82916667 C12.0177862,6.01666667 13.4629853,9.025 13.623563,12.5083333 C11.9374974,12.0333333 10.8937425,10.2916667 10.8134537,10.1333333 C10.8134537,10.1333333 10.7331648,10.0541667 10.7331648,10.0541667 C10.3317206,9.57916667 9.68940994,9.89583333 9.68940994,9.89583333 C9.68940994,9.89583333 9.68940994,9.89583333 9.68940994,9.89583333 C9.44854343,10.0541667 9.36825459,10.2916667 9.36825459,10.5291667 C9.44854343,12.9833333 8.56536622,15.3583333 8.40478854,15.7541667 C8.40478854,15.7541667 8.40478854,15.7541667 8.40478854,15.7541667 C7.76247785,14.25 7.4413225,12.4291667 7.4413225,10.5291667 C7.4413225,10.45 7.4413225,10.3708333 7.36103366,10.2916667 C7.28074483,10.0541667 7.03987831,9.81666667 6.7990118,9.81666667 C6.71872297,9.81666667 6.63843413,9.81666667 6.55814529,9.81666667 C6.31727878,9.81666667 5.99612343,9.975 5.83554576,10.2125 C5.75525692,10.2916667 4.6312132,12.1125 3.02543646,12.5083333 Z M11.7769197,20.3458333 C11.7769197,20.3458333 11.7769197,20.425 11.7769197,20.3458333 C9.76969878,24.4625 10.8134537,32.3791667 11.2148978,35.2291667 C10.0105653,36.1 8.48507738,36.575 6.87930064,36.3375 C5.2735239,36.1791667 3.90861367,35.3083333 2.86485879,34.1208333 C1.90139274,32.8541667 1.41965972,31.35 1.66052623,29.7666667 C1.74081507,29.0541667 1.98168158,28.4208333 2.30283693,27.7875 C2.30283693,27.7875 5.11294622,23.0375 5.2735239,19.3958333 C5.67496808,17.1791667 5.75525692,14.8041667 5.83554576,12.6666667 C5.83554576,12.6666667 5.83554576,12.6666667 5.83554576,12.6666667 C6.07641227,14.6458333 6.71872297,16.4666667 7.60190017,17.9708333 C7.76247785,18.2083333 8.00334436,18.3666667 8.32449971,18.3666667 C8.56536622,18.3666667 8.80623273,18.2083333 8.9668104,18.05 C8.9668104,18.05 8.9668104,17.9708333 9.04709924,17.9708333 C10.652876,15.2 10.8134537,13.0625 10.8134537,12.825 C10.8134537,12.7458333 10.8134537,12.7458333 10.8134537,12.6666667 C10.9740313,12.825 11.134609,12.9833333 11.2951867,13.0625 C11.2951867,13.0625 11.2951867,13.0625 11.2951867,13.0625 C11.2951867,13.0625 11.2951867,13.0625 11.2951867,13.0625 C11.4557644,13.1416667 11.5360532,13.2208333 11.6966309,13.3791667 C11.6966309,13.3791667 11.7769197,13.3791667 11.7769197,13.4583333 C12.2586527,14.9625 12.7403857,16.7041667 13.2221188,18.525 C13.0615411,18.6833333 12.9009634,18.7625 12.7403857,18.9208333 C12.7403857,18.9208333 12.7403857,18.9208333 12.7403857,18.9208333 C12.7403857,18.9208333 12.7403857,18.9208333 12.7403857,18.9208333 C12.7403857,18.9208333 12.7403857,18.9208333 12.7403857,18.9208333 C12.7403857,18.9208333 12.7403857,18.9208333 12.7403857,18.9208333 C12.5798081,19.0791667 12.4192304,19.3166667 12.2586527,19.5541667 C12.2586527,19.5541667 12.2586527,19.6333333 12.1783639,19.6333333 C12.0980751,19.8708333 11.9374974,20.1083333 11.7769197,20.3458333 Z M28.4769978,34.3583333 C27.6741094,35.15 25.7471774,36.0208333 21.010136,36.0208333 C17.6380048,36.0208333 14.1855848,35.5458333 12.9009634,35.3083333 C12.7403857,34.3583333 12.3389416,30.7958333 12.3389416,30.5583333 C12.3389416,30.5583333 12.3389416,30.5583333 12.3389416,30.5583333 C12.2586527,29.45 11.5360532,21.6916667 14.3461625,19.6333333 C14.4264513,19.5541667 14.5067402,19.5541667 14.5067402,19.475 C15.7913616,18.525 17.3168495,17.9708333 19.0832039,17.9708333 C21.8933132,17.9708333 24.7034225,19.2375 26.9515099,21.375 C31.0462406,25.4125 31.6885513,31.1916667 28.4769978,34.3583333 Z M29.6813304,22.1666667 C29.1995974,21.5333333 27.5938206,19.5541667 26.3091992,18.9208333 L27.3529541,17.8916667 L30.6447964,21.1375 L29.6813304,22.1666667 Z" id="Shape"></path>
        </g>
    </g>
</svg>