<?xml version="1.0" encoding="UTF-8"?>
<svg width="35px" height="36px" viewBox="0 0 35 36" version="1.1" xmlns="http://www.w3.org/2000/svg" xmlns:xlink="http://www.w3.org/1999/xlink">
    <title>legumes@1x</title>
    <g id="Page-1" stroke="none" stroke-width="1" fill="none" fill-rule="evenodd">
        <g id="legumes" fill="#CE74F6">
            <path d="M23.2710999,22.2054795 C22.9096334,22.4794521 22.9096334,22.890411 23.2710999,23.1643836 C26.4339315,25.5616438 27.1568645,29.0547945 24.897699,30.8356164 C24.5362325,31.109589 24.5362325,31.5205479 24.897699,31.7945205 C25.0784322,31.9315068 25.3495321,32 25.5302653,32 C25.8013652,32 25.9820984,31.9315068 26.1628317,31.7945205 C29.1449301,29.5342466 28.4219972,25.1506849 24.5362325,22.2054795 C24.2651327,21.9315068 23.6325663,21.9315068 23.2710999,22.2054795 Z" id="Path"></path>
            <path d="M34.0768972,16.5 C34.4566417,16.575 34.9123351,16.275 34.988284,15.9 C35.0642329,15.525 34.7604373,15.075 34.3806928,15 C32.9376637,14.775 31.7224813,14.925 30.7351456,15.225 C31.0389412,14.25 31.190839,13.05 30.9629923,11.625 C30.8870434,11.25 30.5072989,10.95 30.0516055,11.025 C29.671861,11.1 29.3680654,11.475 29.4440143,11.925 C29.8237588,13.95 29.1402187,15.45 28.5326275,16.275 C28.3047808,16.425 28.152883,16.575 28.0009852,16.725 L27.6212407,16.35 C28.0769341,15.75 28.8364231,14.325 28.3807297,12.075 C28.3047808,11.7 27.9250363,11.4 27.4693429,11.475 C27.0895984,11.55 26.7858028,11.925 26.8617517,12.375 C27.0895984,13.875 26.7858028,14.85 26.4820072,15.3 L26.4060583,15.225 C26.1022627,14.925 25.6465693,14.925 25.3427737,15.225 L23.595949,17.025 C21.8491243,16.05 19.9504018,15.6 18.1276282,15.6 C16.6086502,15.6 15.0896722,15.975 13.8744898,16.65 C13.5706942,15.525 13.2668986,14.4 12.963103,13.425 C13.1909497,13.5 13.4187964,13.5 13.6466431,13.5 C14.1023365,13.5 14.4061321,13.2 14.4061321,12.75 C14.4061321,8.7 12.8871541,5.175 10.5327382,3.525 L10.5327382,0.75 C10.5327382,0.3 10.2289426,0 9.77324925,0 L5.89985535,0 C5.44416195,0 5.14036635,0.3 5.14036635,0.75 L5.14036635,3.525 C2.78595045,5.175 1.34292136,8.7 1.34292136,12.75 C1.34292136,13.2 1.64671695,13.5 2.10241035,13.5 C2.78595045,13.5 3.39354165,13.35 4.00113285,13.125 C3.84923505,14.7 3.77328615,16.5 3.54543945,18.15 C3.46949055,18.6 3.39354165,19.2 3.24164385,19.725 C3.16569495,21.15 1.49481915,24.375 1.49481915,24.375 C1.49481915,24.375 1.49481915,24.45 1.41887025,24.45 C1.34292136,24.6 0.203687856,27.15 0.0517900559,27.975 C-0.176056644,29.85 0.355585656,31.725 1.49481915,33.225 C3.69733725,36 6.96313995,36 7.26693555,36 C8.63401575,36 10.0010959,35.55 11.2162783,34.8 C11.2922272,34.8 11.3681761,34.875 11.444125,34.875 C11.5960228,34.875 15.6972634,35.625 19.8744529,35.625 C23.8997446,35.625 26.633905,34.95 28.0009852,33.6 C30.8870434,30.75 31.1148901,26.175 28.912372,22.2 L30.7351456,20.4 C30.8870434,20.25 30.9629923,20.1 30.9629923,19.875 C30.9629923,19.65 30.8870434,19.5 30.7351456,19.35 L30.5832478,19.2 C31.1148901,18.9 32.0262769,18.525 33.5452549,18.825 C33.9249994,18.9 34.3806928,18.6 34.4566417,18.225 C34.5325906,17.85 34.228795,17.4 33.8490505,17.325 C31.5705835,16.95 30.1275544,17.625 29.5199632,18.075 L29.2921165,17.85 C29.4440143,17.7 29.5959121,17.55 29.7478099,17.325 C30.5072989,16.8 32.0262769,16.2 34.0768972,16.5 Z M2.86189935,11.85 C3.08974605,8.55 4.38087735,5.7 6.27959985,4.575 C6.50744655,4.425 6.65934435,4.2 6.65934435,3.9 L6.65934435,1.5 L9.08970915,1.5 L9.08970915,3.9 C9.08970915,4.2 9.24160695,4.425 9.46945365,4.575 C11.3681761,5.7 12.7352563,8.55 12.8871541,11.85 C11.2922272,11.4 10.3048915,9.75 10.2289426,9.6 C10.2289426,9.6 10.1529937,9.525 10.1529937,9.525 C9.77324925,9.075 9.16565805,9.375 9.16565805,9.375 C9.16565805,9.375 9.16565805,9.375 9.16565805,9.375 C8.93781135,9.525 8.86186245,9.75 8.86186245,9.975 C8.93781135,12.3 8.10237345,14.55 7.95047565,14.925 C7.95047565,14.925 7.95047565,14.925 7.95047565,14.925 C7.34288445,13.5 7.03908885,11.775 7.03908885,9.975 C7.03908885,9.9 7.03908885,9.825 6.96313995,9.75 C6.88719105,9.525 6.65934435,9.3 6.43149765,9.3 C6.35554875,9.3 6.27959985,9.3 6.20365095,9.3 C5.97580425,9.3 5.67200865,9.45 5.52011085,9.675 C5.44416195,9.75 4.38087735,11.475 2.86189935,11.85 Z M11.1403294,19.275 C11.1403294,19.275 11.1403294,19.35 11.1403294,19.275 C9.24160695,23.175 10.2289426,30.675 10.6086871,33.375 C9.46945365,34.2 8.02642455,34.65 6.50744655,34.425 C4.98846855,34.275 3.69733725,33.45 2.71000155,32.325 C1.79861475,31.125 1.34292136,29.7 1.57076805,28.2 C1.64671695,27.525 1.87456365,26.925 2.17835925,26.325 C2.17835925,26.325 4.83657075,21.825 4.98846855,18.375 C5.36821305,16.275 5.44416195,14.025 5.52011085,12 C5.52011085,12 5.52011085,12 5.52011085,12 C5.74795755,13.875 6.35554875,15.6 7.19098665,17.025 C7.34288445,17.25 7.57073115,17.4 7.87452675,17.4 C8.10237345,17.4 8.33022015,17.25 8.48211795,17.1 C8.48211795,17.1 8.48211795,17.025 8.55806685,17.025 C10.0770448,14.4 10.2289426,12.375 10.2289426,12.15 C10.2289426,12.075 10.2289426,12.075 10.2289426,12 C10.3808404,12.15 10.5327382,12.3 10.684636,12.375 C10.684636,12.375 10.684636,12.375 10.684636,12.375 C10.684636,12.375 10.684636,12.375 10.684636,12.375 C10.8365338,12.45 10.9124827,12.525 11.0643805,12.675 C11.0643805,12.675 11.1403294,12.675 11.1403294,12.75 C11.5960228,14.175 12.0517162,15.825 12.5074096,17.55 C12.3555118,17.7 12.203614,17.775 12.0517162,17.925 C12.0517162,17.925 12.0517162,17.925 12.0517162,17.925 C12.0517162,17.925 12.0517162,17.925 12.0517162,17.925 C12.0517162,17.925 12.0517162,17.925 12.0517162,17.925 C12.0517162,17.925 12.0517162,17.925 12.0517162,17.925 C11.8998184,18.075 11.7479206,18.3 11.5960228,18.525 C11.5960228,18.525 11.5960228,18.6 11.5200739,18.6 C11.444125,18.825 11.2922272,19.05 11.1403294,19.275 Z M26.9377006,32.55 C26.1782116,33.3 24.355438,34.125 19.8744529,34.125 C16.6845991,34.125 13.4187964,33.675 12.203614,33.45 C12.0517162,32.55 11.6719717,29.175 11.6719717,28.95 C11.6719717,28.95 11.6719717,28.95 11.6719717,28.95 C11.5960228,27.9 10.9124827,20.55 13.5706942,18.6 C13.6466431,18.525 13.722592,18.525 13.722592,18.45 C14.9377744,17.55 16.3808035,17.025 18.0516793,17.025 C20.7098908,17.025 23.3681023,18.225 25.4946715,20.25 C29.3680654,24.075 29.9756566,29.55 26.9377006,32.55 Z M28.0769341,21 C27.6212407,20.4 26.1022627,18.525 24.8870803,17.925 L25.874416,16.95 L28.9883209,20.025 L28.0769341,21 Z" id="Shape"></path>
        </g>
    </g>
</svg>