<?xml version="1.0" encoding="UTF-8"?>
<svg width="34px" height="33px" viewBox="0 0 34 33" version="1.1" xmlns="http://www.w3.org/2000/svg" xmlns:xlink="http://www.w3.org/1999/xlink">
    <title>legumineuse@1x</title>
    <g id="Page-1" stroke="none" stroke-width="1" fill="none" fill-rule="evenodd">
        <g id="noun_Bean_2008611" transform="translate(0.000000, 0.882812)" fill="#015A5A">
            <path d="M19.232266,0.0764568608 C21.2681959,-0.214390262 23.2677698,0.330948093 24.7220055,1.60340426 C25.7036145,2.43958974 26.8306471,3.93018124 26.9760707,6.47509357 C29.4846271,7.12949959 31.7023364,8.91093822 32.8657249,11.4922064 L32.8657249,11.4922064 L32.8926552,11.5379879 C32.9061203,11.5729973 32.9141994,11.6133927 32.9384367,11.63763 C33.5928427,13.1645774 33.8473339,14.8369484 33.6655545,16.4366075 L33.6655545,16.4366075 L33.6655545,16.5820311 C33.6291986,16.6547429 33.6291986,16.7274547 33.5928427,16.8001664 C32.9747926,21.7082116 28.8302211,26.4344774 22.1407372,29.3065927 C18.9414189,30.6881166 15.8511682,31.3425226 13.0517646,31.3425226 C9.99786985,31.3425226 7.27117808,30.542693 5.19889232,29.0157456 C3.74465671,28.0341366 2.61762411,26.5799009 1.8905063,24.8711741 C1.8905063,24.8348182 1.85415041,24.8348182 1.85415041,24.7984623 L1.85415041,24.7984623 L1.74091472,24.5026221 C0.555150672,21.2409315 1.33768291,17.7475582 3.49016548,15.4186426 C1.30881205,14.1098305 0,11.8921212 0,9.45627658 C0,5.16628151 2.50855644,2.14874261 6.39863671,1.71247193 C7.70744876,1.56704837 9.0526167,1.78518371 10.288717,2.33052206 C12.0337997,3.09399576 14.1060855,2.83950453 15.6330329,1.63976015 C16.6873537,0.803574668 17.923454,0.258236313 19.232266,0.0764568608 Z M31.5569128,12.0739007 C29.8845419,8.36559987 25.6672586,6.65687302 22.1407372,8.22017631 C20.8682811,8.76551466 19.7776044,9.67441192 18.9414189,10.8378004 C17.1236244,13.3463568 14.1060855,14.618813 11.0521907,14.2188982 C9.63431095,14.0371188 8.21643123,14.2188982 6.94397506,14.7278807 C3.38109781,16.1821163 1.70872685,20.4357555 3.23567424,24.2167681 L3.23567424,24.2167681 L3.23567424,24.253124 C3.89008027,25.7800714 4.9080452,26.9798157 6.18050136,27.888713 C6.25321314,27.9614248 6.36228082,28.0341366 6.4349926,28.0704925 L6.4349926,28.0704925 L6.67783319,28.2270077 C10.2816612,30.4719022 15.7299819,30.4853315 21.5953989,27.9614248 C27.521409,25.4165125 31.3024216,21.3810086 32.1022512,17.1273694 L32.1022512,17.1273694 L32.1291815,17.0075297 C32.1426466,16.9213527 32.1507257,16.8244037 32.174963,16.7274547 C32.3930983,15.1641514 32.2113189,13.637204 31.5932687,12.1102566 C31.5569128,12.1102566 31.5569128,12.0739007 31.5569128,12.0739007 Z M28.8302211,17.4545725 L30.175389,17.9999108 C28.7211534,21.5264322 25.4491233,24.5076152 20.9773487,26.4344774 C18.3597246,27.56151 15.7421005,28.1432042 13.3062559,28.1432042 C11.597529,28.1432042 9.96151396,27.888713 8.50727835,27.3070188 L8.50727835,27.3070188 L9.01626081,25.9618508 C12.1792233,27.1615952 16.2874389,26.8707481 20.3592986,25.1256653 C24.4311583,23.3805826 27.4850531,20.581179 28.8302211,17.4545725 L28.8302211,17.4545725 Z M22.6133638,10.3288179 L23.1950581,11.6739859 C21.9226019,12.2193242 20.8319252,13.0918656 19.9593838,14.1825423 C18.2870129,16.291184 15.6693888,17.5272842 12.9790529,17.5272842 C12.7245616,17.5272842 12.4700704,17.5272842 12.2155792,17.4909284 L12.2155792,17.4909284 L12.3610027,16.0366927 C14.8332033,16.2548281 17.3054038,15.2005073 18.8323512,13.2736451 C19.8503161,12.0011889 21.1591282,10.983224 22.6133638,10.3288179 L22.6133638,10.3288179 Z M23.7767523,2.62136919 C22.6133638,1.63976015 21.0500605,1.23984535 19.4140455,1.4579807 C18.3597246,1.63976015 17.3781156,2.03967494 16.5055742,2.73043686 C14.578712,4.25738425 11.924732,4.58458727 9.67066684,3.60297823 C8.6890578,3.16670754 7.59838109,3.02128398 6.54406027,3.13035165 C3.45380959,3.49391056 1.45423562,5.9661111 1.45423562,9.41992069 C1.45423562,11.5285623 2.61762411,13.3463568 4.65355397,14.3279659 C5.19889232,13.9280511 5.78058657,13.6008481 6.39863671,13.3463568 C7.88922821,12.7283067 9.56159917,12.5101714 11.2339701,12.7283067 C13.7425266,13.0555097 16.251083,12.0011889 17.7416745,9.92890315 C18.7232835,8.58373521 20.0320956,7.4930585 21.5226871,6.83865247 C22.7951433,6.25695822 24.1403112,6.03882288 25.4854792,6.14789055 C25.3400556,4.69365494 24.7583613,3.45755467 23.7767523,2.62136919 Z M25.0492085,9.7471237 C26.7215794,9.63805603 28.3939504,10.2561062 29.6664065,11.4922064 L29.6664065,11.4922064 L28.6484416,12.5465273 C27.6668326,11.6012741 26.3943764,11.1286475 25.1582761,11.2013593 L25.1582761,11.2013593 Z M19.3413337,3.02128398 L19.5958249,4.43916371 C18.6869277,4.58458727 17.8143863,4.98450206 17.0872685,5.52984042 C15.9602359,6.3660259 14.578712,6.80229658 13.2335441,6.87500836 C12.5064263,6.87500836 11.8156644,6.76594069 11.1249025,6.51144946 L11.1249025,6.51144946 L11.597529,5.12992562 C13.1244764,5.67526398 14.9059151,5.38441686 16.2147271,4.40280782 C17.1236244,3.67569001 18.2143011,3.20306343 19.3413337,3.02128398 L19.3413337,3.02128398 Z M21.0500605,2.87586042 C22.1043813,3.02128398 23.0859904,3.56662234 23.7403964,4.4755196 L23.7403964,4.4755196 L22.5770079,5.31170508 C22.1770931,4.76636672 21.559043,4.40280782 20.904637,4.33009603 L20.904637,4.33009603 Z" id="Combined-Shape"></path>
        </g>
    </g>
</svg>