<svg id="Calque_1" data-name="Calque 1" xmlns="http://www.w3.org/2000/svg" xmlns:xlink="http://www.w3.org/1999/xlink" viewBox="0 0 174 29"><defs><style>.cls-1,.cls-2{fill:none;}.cls-2{clip-rule:evenodd;}.cls-3{fill:url(#Dégradé_sans_nom_3);}.cls-4{fill:#fff;}.cls-5,.cls-6{fill:#015a5c;}.cls-5{fill-rule:evenodd;}.cls-7{fill:#BDC660 ;}.cls-8{clip-path:url(#clip-path);}.cls-9{clip-path:url(#clip-path-2);}.cls-10{clip-path:url(#clip-path-3);}.cls-11{clip-path:url(#clip-path-4);}.cls-12{clip-path:url(#clip-path-5);}.cls-13{clip-path:url(#clip-path-6);}.cls-14{clip-path:url(#clip-path-7);}.cls-15{clip-path:url(#clip-path-8);}.cls-16{clip-path:url(#clip-path-9);}.cls-17{clip-path:url(#clip-path-10);}.cls-18{clip-path:url(#clip-path-11);}.cls-19{clip-path:url(#clip-path-12);}.cls-20{clip-path:url(#clip-path-13);}.cls-21{isolation:isolate;}</style><linearGradient id="Dégradé_sans_nom_3" x1="17040.11" y1="66" x2="17040.11" y2="2" gradientTransform="matrix(-1, 0, 0, 1, 17092.25, 0)" gradientUnits="userSpaceOnUse"><stop offset="0.1" stop-color="#95c94e"/><stop offset="0.52" stop-color="#95c993"/><stop offset="1" stop-color="#1a8087"/></linearGradient><clipPath id="clip-path"><rect class="cls-1" x="-549.77" y="-224.61" width="67.32" height="66.61"/></clipPath><clipPath id="clip-path-2"><path class="cls-2" d="M-469.28-222.82v61.75a1.59,1.59,0,0,1-1.6,1.58,1.59,1.59,0,0,1-1.6-1.58v-29.5H-477c-.43,0-2.33-25.73,7.74-32.25"/></clipPath><clipPath id="clip-path-3"><rect class="cls-1" x="-569" y="-220.64" width="13.9" height="61.15"/></clipPath><clipPath id="clip-path-4"><path class="cls-2" d="M-516.42-221.6a30.68,30.68,0,0,1,29.64,22.51c-5.72,1.41-11,3-16.12,4.71a15.76,15.76,0,0,0,.42-5.23,11.91,11.91,0,0,0-2.94-7.06c-.33-.4-.65-.76-1-1.12a13.35,13.35,0,0,0-6.87-3.65,14,14,0,0,0-3.13-.25,13.33,13.33,0,0,0-2.23.28,15.12,15.12,0,0,0-2.54.78,13.5,13.5,0,0,0-6.1,5,12.65,12.65,0,0,0-2.21,8.48,153.3,153.3,0,0,0-16.35-2.67,30.68,30.68,0,0,1,29.42-21.77"/></clipPath><clipPath id="clip-path-5"><path class="cls-2" d="M-510.8-198.54a4.57,4.57,0,0,1-1.49,3.49h0a4.62,4.62,0,0,1-3.51,1.46,4.75,4.75,0,0,1-3.57-1.48,4.58,4.58,0,0,1-1.46-3.48,4.66,4.66,0,0,1,1.44-3.49,4.79,4.79,0,0,1,3.59-1.47,4.69,4.69,0,0,1,3.53,1.44,4.63,4.63,0,0,1,1.49,3.52"/></clipPath><clipPath id="clip-path-6"><path class="cls-2" d="M-547.1-191.24a29.78,29.78,0,0,1,.55-5.7A151.68,151.68,0,0,1-528.88-194a16.4,16.4,0,0,0,2.17,4.72l1.83,2.72a157.06,157.06,0,0,0-22.22-4.58Z"/></clipPath><clipPath id="clip-path-7"><path class="cls-2" d="M-546.94-188.16A152.59,152.59,0,0,1-526.7-184c-2.32,1.27-4.61,2.57-6.84,3.95-4.08-1.22-8.28-2.28-12.47-3.16a29.69,29.69,0,0,1-.93-4.92"/></clipPath><clipPath id="clip-path-8"><path class="cls-2" d="M-541.95-174.43A29.78,29.78,0,0,1-544.9-180c2.7.6,5.4,1.27,8.07,2-1.75,1.14-3.45,2.32-5.12,3.53"/></clipPath><clipPath id="clip-path-9"><path class="cls-2" d="M-540.18-172.06a134.77,134.77,0,0,1,17.74-10.88l.16.24c1.33,2,2.66,4,4,6A133.82,133.82,0,0,0-534-166.41a30.86,30.86,0,0,1-6.15-5.65"/></clipPath><clipPath id="clip-path-10"><path class="cls-2" d="M-516.42-160.89a31.18,31.18,0,0,1-4.45-.32A141.48,141.48,0,0,1-489-177.66a30.74,30.74,0,0,1-27.43,16.77"/></clipPath><clipPath id="clip-path-11"><path class="cls-2" d="M-487.4-181.4A144.9,144.9,0,0,0-524.8-162a30.1,30.1,0,0,1-6.53-2.68,132.15,132.15,0,0,1,14.65-9.45l1.06,1.65,1.25-2,.84-1.35A153.48,153.48,0,0,1-486-186.93a30.59,30.59,0,0,1-1.35,5.53"/></clipPath><clipPath id="clip-path-12"><path class="cls-2" d="M-510.5-180.69q1.74-2.76,3.5-5.45a53.32,53.32,0,0,0,2.68-4.63,184.21,184.21,0,0,1,18.17-5.44,31.25,31.25,0,0,1,.41,5c0,.38,0,.77,0,1.16a157.11,157.11,0,0,0-24.73,9.39"/></clipPath><clipPath id="clip-path-13"><path class="cls-1" d="M-243.52-175.54h18.09V-173h-21v-35.55h2.93ZM-265-190h-15.68v14.5h18.07V-173h-21v-35.55h20.87V-206h-18v13.4H-265Zm-33.29,6.25a16,16,0,0,1-1.2,4.45,11.8,11.8,0,0,1-2.39,3.59,10.63,10.63,0,0,1-3.53,2.38,11.76,11.76,0,0,1-4.58.86,10.85,10.85,0,0,1-3.84-.65,10.3,10.3,0,0,1-3.06-1.77,11.94,11.94,0,0,1-2.3-2.64,15.87,15.87,0,0,1-1.61-3.25,19.36,19.36,0,0,1-.94-3.63,23.73,23.73,0,0,1-.33-3.74v-5.15a23.71,23.71,0,0,1,.33-3.73,19.16,19.16,0,0,1,.94-3.63,16.21,16.21,0,0,1,1.61-3.26,12.22,12.22,0,0,1,2.3-2.65,10.33,10.33,0,0,1,3.06-1.78A10.85,10.85,0,0,1-310-209a11.87,11.87,0,0,1,4.63.86,10.63,10.63,0,0,1,3.53,2.38,12,12,0,0,1,2.38,3.6,15.88,15.88,0,0,1,1.16,4.52h-2.91a15.69,15.69,0,0,0-.94-3.44,9.32,9.32,0,0,0-1.72-2.82,7.69,7.69,0,0,0-2.59-1.91,8.47,8.47,0,0,0-3.54-.69A7.61,7.61,0,0,0-313-206a7.82,7.82,0,0,0-2.36,1.56,9.17,9.17,0,0,0-1.72,2.29,14.42,14.42,0,0,0-1.15,2.77,19.88,19.88,0,0,0-.65,3,23.36,23.36,0,0,0-.2,3v5.2a23.67,23.67,0,0,0,.2,3,20.14,20.14,0,0,0,.65,3,14.69,14.69,0,0,0,1.15,2.77,9.35,9.35,0,0,0,1.72,2.29,7.7,7.7,0,0,0,2.36,1.58A7.61,7.61,0,0,0-310-175a8.8,8.8,0,0,0,3.58-.67,7.4,7.4,0,0,0,2.59-1.87,9.58,9.58,0,0,0,1.7-2.8,14.75,14.75,0,0,0,.92-3.47Zm-55.61-6.54h7.74A9,9,0,0,0-343-191a7.71,7.71,0,0,0,2.5-1.6,7.05,7.05,0,0,0,1.66-2.43,7.83,7.83,0,0,0,.6-3.1,8,8,0,0,0-.66-3.34,7.28,7.28,0,0,0-1.79-2.48,7.78,7.78,0,0,0-2.69-1.55,11.17,11.17,0,0,0-3.33-.59h-7.13Zm8.79,2.46h-8.79V-173h-2.88v-35.55h10a14.78,14.78,0,0,1,4.42.76,10.75,10.75,0,0,1,3.63,2,9.45,9.45,0,0,1,2.44,3.26,10.47,10.47,0,0,1,.89,4.42,9.53,9.53,0,0,1-.52,3.24,9.36,9.36,0,0,1-1.46,2.65,10,10,0,0,1-2.21,2.09,14.13,14.13,0,0,1-2.82,1.54l8.11,15.23v.32h-3.05ZM-389-185.52h11.87L-383-204.23Zm12.7,2.61H-389.8l-3.15,9.91h-2.95l11.57-35.55h2.64L-370.22-173h-2.93Zm-50.53-7.2h8.26a9.94,9.94,0,0,0,3.27-.59,8.23,8.23,0,0,0,2.63-1.56,7.13,7.13,0,0,0,1.77-2.44,7.93,7.93,0,0,0,.65-3.28,8.47,8.47,0,0,0-.63-3.32,7.33,7.33,0,0,0-1.76-2.52,8,8,0,0,0-2.64-1.61,10,10,0,0,0-3.29-.63h-8.26Zm0,2.46V-173h-2.93v-35.55h11.19a14.17,14.17,0,0,1,4.38.78,10.9,10.9,0,0,1,3.56,2.09,9.81,9.81,0,0,1,2.41,3.29,10.49,10.49,0,0,1,.88,4.37,10.4,10.4,0,0,1-.88,4.35,9.55,9.55,0,0,1-2.41,3.25,10.66,10.66,0,0,1-3.57,2,13.67,13.67,0,0,1-4.37.73Z"/></clipPath><symbol id="Nouveau_symbole_3" data-name="Nouveau symbole 3" viewBox="0 0 99.25 67"><circle class="cls-3" cx="52.13" cy="34" r="32"/><path class="cls-4" d="M19.13,33.5A33.5,33.5,0,1,0,52.63,0,33.54,33.54,0,0,0,19.13,33.5Zm62.79-8.64a151.73,151.73,0,0,0-16.28,2.69A12.9,12.9,0,0,0,63.45,19a13.57,13.57,0,0,0-6.08-5,14.92,14.92,0,0,0-2.52-.78,13.2,13.2,0,0,0-2.23-.28,13.39,13.39,0,0,0-3.11.25,13.19,13.19,0,0,0-6.83,3.67c-.35.36-.66.72-1,1.12a12.1,12.1,0,0,0-2.93,7.1,15.94,15.94,0,0,0,.42,5.26c-5.06-1.74-10.35-3.31-16-4.74a30.53,30.53,0,0,1,58.78-.74ZM48.53,22.63A4.59,4.59,0,0,1,52,21.18a5,5,0,0,1,5,5,4.64,4.64,0,0,1-1.45,3.51A4.71,4.71,0,0,1,52,31.15a4.57,4.57,0,0,1-3.49-1.46l0,0a4.9,4.9,0,0,1,0-7Zm34.64,11A155.43,155.43,0,0,0,61.06,38.2l1.82-2.73A17.29,17.29,0,0,0,65,30.71a150.34,150.34,0,0,1,17.58-2.95,30.19,30.19,0,0,1,.55,5.74Zm-1.08,8c-4.18.89-8.34,2-12.41,3.19-2.22-1.38-4.5-2.7-6.81-4A151.34,151.34,0,0,1,83,36.59,30.9,30.9,0,0,1,82.09,41.54ZM73,46.86q4-1.12,8-2A30,30,0,0,1,78,50.41Q75.57,48.58,73,46.86ZM70.16,58.48A132.49,132.49,0,0,0,54.5,48.17c1.32-2,2.65-4.08,4-6.08.05-.08.1-.16.16-.24A134,134,0,0,1,76.28,52.79,30.6,30.6,0,0,1,70.16,58.48ZM25.34,47.16A140.36,140.36,0,0,1,57.06,63.71,30.44,30.44,0,0,1,25.34,47.16Zm-2.93-9.32A150.75,150.75,0,0,1,49.76,49l.84,1.35,1.24,2,1.06-1.65a130.51,130.51,0,0,1,14.57,9.5,30,30,0,0,1-6.5,2.7A143.5,143.5,0,0,0,23.76,43.4,30.09,30.09,0,0,1,22.41,37.84Zm-.28-3.17q0-.59,0-1.17a30.36,30.36,0,0,1,.41-5A184.94,184.94,0,0,1,40.59,34c.83,1.62,1.72,3.19,2.67,4.67,1.17,1.79,2.34,3.63,3.49,5.47A155.78,155.78,0,0,0,22.13,34.67Z"/><path class="cls-5" d="M99.25,1.81v62.1a1.6,1.6,0,0,1-3.19,0V34.24H91.55C91.12,34.24,89.22,8.36,99.25,1.81Z"/><path class="cls-6" d="M12.68,4a1.16,1.16,0,0,0-1.15,1.15V20.26H8.07V5.15a1.16,1.16,0,0,0-2.31,0V20.26H2.3V5.15a1.15,1.15,0,1,0-2.3,0V22.28A6.69,6.69,0,0,0,2,27a6.61,6.61,0,0,0,3.26,1.76V63.58a1.92,1.92,0,0,0,3.84,0v-35a6.78,6.78,0,0,0,2.84-1.69,6.64,6.64,0,0,0,1.93-4.68V5.15A1.16,1.16,0,0,0,12.68,4Z"/><path class="cls-6" d="M52.93,3A30.59,30.59,0,0,0,23.44,25.67c5.69,1.42,11,3,16,4.74a15.94,15.94,0,0,1-.42-5.26A12.1,12.1,0,0,1,42,18c.33-.4.64-.75,1-1.12a13.19,13.19,0,0,1,6.83-3.67A14,14,0,0,1,52.92,13a13.2,13.2,0,0,1,2.23.28,14.92,14.92,0,0,1,2.52.78,13.57,13.57,0,0,1,6.08,5,12.9,12.9,0,0,1,2.19,8.53,154.7,154.7,0,0,1,16.28-2.69A30.59,30.59,0,0,0,52.93,3Z"/><path class="cls-6" d="M47.34,26.23a4.57,4.57,0,0,0,1.49,3.5l0,0a4.57,4.57,0,0,0,3.49,1.46,4.67,4.67,0,0,0,3.55-1.48,4.61,4.61,0,0,0,1.45-3.5,4.93,4.93,0,0,0-5-5,5,5,0,0,0-5,5Z"/><path class="cls-6" d="M83.47,33.57a31,31,0,0,0-.54-5.74,150.46,150.46,0,0,0-17.59,2.94,16.82,16.82,0,0,1-2.16,4.75l-1.82,2.73a155.65,155.65,0,0,1,22.11-4.6Z"/><path class="cls-6" d="M83.31,36.66a151.27,151.27,0,0,0-20.14,4.16c2.31,1.27,4.59,2.59,6.8,4,4.07-1.22,8.24-2.29,12.41-3.18A29.84,29.84,0,0,0,83.31,36.66Z"/><path class="cls-6" d="M78.34,50.47a30,30,0,0,0,2.94-5.58c-2.69.6-5.37,1.28-8,2C75,48.08,76.69,49.26,78.34,50.47Z"/><path class="cls-7" d="M76.58,52.86a134.09,134.09,0,0,0-17.65-11l-.16.25c-1.32,2-2.65,4-4,6.07A132.92,132.92,0,0,1,70.46,58.54,30.85,30.85,0,0,0,76.58,52.86Z"/><path class="cls-7" d="M52.93,64.1a30.69,30.69,0,0,0,4.43-.33A140.36,140.36,0,0,0,25.64,47.22,30.56,30.56,0,0,0,52.93,64.1Z"/><path class="cls-7" d="M24.06,43.47A143.17,143.17,0,0,1,61.27,62.93a30.48,30.48,0,0,0,6.5-2.69A129.24,129.24,0,0,0,53.2,50.73l-1.06,1.65-1.24-2L50.06,49A150.63,150.63,0,0,0,22.71,37.91,30.49,30.49,0,0,0,24.06,43.47Z"/><path class="cls-7" d="M47.05,44.18c-1.15-1.85-2.32-3.69-3.49-5.48A51.46,51.46,0,0,1,40.9,34a185.15,185.15,0,0,0-18.09-5.46,31.5,31.5,0,0,0-.41,5q0,.59,0,1.17A155,155,0,0,1,47.05,44.18Z"/></symbol></defs><title>logo3</title><use width="99.25" height="67" transform="translate(-0.13 0.16) scale(0.41 0.42)" xlink:href="#Nouveau_symbole_3"/><g id="PARCEL" class="cls-21"><g class="cls-21"><path class="cls-6" d="M63.65,15.62v8h-1.6V4.21h6.1a7.4,7.4,0,0,1,2.39.43,6,6,0,0,1,1.95,1.14A5.35,5.35,0,0,1,73.8,7.57,5.7,5.7,0,0,1,74.28,10a5.61,5.61,0,0,1-.48,2.37,5.18,5.18,0,0,1-1.31,1.77,5.88,5.88,0,0,1-1.95,1.12,7.78,7.78,0,0,1-2.39.4Zm0-1.35h4.5A5.22,5.22,0,0,0,69.94,14a4.5,4.5,0,0,0,1.44-.85,3.88,3.88,0,0,0,1-1.33A4.27,4.27,0,0,0,72.7,10a4.6,4.6,0,0,0-.35-1.81,4,4,0,0,0-1-1.38A4.39,4.39,0,0,0,70,5.91a5.48,5.48,0,0,0-1.8-.34h-4.5Z"/><path class="cls-6" d="M91.2,18.2H83.82L82.1,23.61H80.49l6.32-19.4h1.44l6.25,19.4H92.91Zm-6.92-1.43h6.47L87.53,6.57Z"/><path class="cls-6" d="M108.2,15.5h-4.79v8.11h-1.58V4.21h5.48a7.91,7.91,0,0,1,2.41.42,6.08,6.08,0,0,1,2,1.11A5.14,5.14,0,0,1,113,7.52a5.73,5.73,0,0,1,.49,2.41,5.14,5.14,0,0,1-1.08,3.22,5.43,5.43,0,0,1-1.21,1.13,7.58,7.58,0,0,1-1.54.84l4.43,8.31v.18h-1.67Zm-4.79-1.35h4.22a4.72,4.72,0,0,0,1.69-.35,4.33,4.33,0,0,0,1.37-.87,4.07,4.07,0,0,0,.9-1.32,4.28,4.28,0,0,0,.33-1.69,4.39,4.39,0,0,0-.36-1.83,4,4,0,0,0-1-1.35,4.27,4.27,0,0,0-1.47-.85,6.24,6.24,0,0,0-1.81-.32h-3.89Z"/><path class="cls-6" d="M133.73,17.72a8.71,8.71,0,0,1-.66,2.43,6.45,6.45,0,0,1-1.3,2,5.87,5.87,0,0,1-1.93,1.3,6.39,6.39,0,0,1-2.49.46,5.72,5.72,0,0,1-3.77-1.31,6.72,6.72,0,0,1-1.26-1.44,9.18,9.18,0,0,1-.87-1.78,10.3,10.3,0,0,1-.52-2,14.05,14.05,0,0,1-.18-2V12.51a14.3,14.3,0,0,1,.18-2,10,10,0,0,1,.52-2,8.91,8.91,0,0,1,.87-1.78,7,7,0,0,1,1.26-1.45,5.76,5.76,0,0,1,1.67-1,6,6,0,0,1,2.1-.35,6.47,6.47,0,0,1,2.52.46,6,6,0,0,1,1.92,1.3,6.2,6.2,0,0,1,1.3,2,8.4,8.4,0,0,1,.64,2.46h-1.59a9.45,9.45,0,0,0-.51-1.88,5.38,5.38,0,0,0-.94-1.53,4.17,4.17,0,0,0-1.41-1,4.49,4.49,0,0,0-1.93-.38,4.06,4.06,0,0,0-1.68.32,4.19,4.19,0,0,0-1.29.85,5.07,5.07,0,0,0-.94,1.24,8.49,8.49,0,0,0-.62,1.52,11,11,0,0,0-.36,1.63,12.84,12.84,0,0,0-.11,1.62v2.83a13.13,13.13,0,0,0,.11,1.63,11.42,11.42,0,0,0,.36,1.64,8.71,8.71,0,0,0,.62,1.51,5.32,5.32,0,0,0,.94,1.25,4.11,4.11,0,0,0,3,1.18,4.74,4.74,0,0,0,2-.37,4,4,0,0,0,1.41-1,4.9,4.9,0,0,0,.93-1.53,7.94,7.94,0,0,0,.5-1.89Z"/><path class="cls-6" d="M151.87,14.31h-8.55v7.91h9.86v1.39H141.74V4.21h11.38v1.4h-9.8v7.32h8.55Z"/><path class="cls-6" d="M163.56,22.22h9.87v1.39H162V4.21h1.6Z"/></g></g></svg>
