<?xml version="1.0" encoding="UTF-8"?>
<svg width="40px" height="35px" viewBox="0 0 40 35" version="1.1" xmlns="http://www.w3.org/2000/svg" xmlns:xlink="http://www.w3.org/1999/xlink">
    <title>pomme-de-terre@1x</title>
    <g id="Page-1" stroke="none" stroke-width="1" fill="none" fill-rule="evenodd">
        <g id="Group" transform="translate(0.000000, -0.753792)" fill="#48B7B7" fill-rule="nonzero">
            <g id="noun_potato_582314">
                <path d="M12.75541,2.29290608 C15.2112898,1.09854608 17.8593757,0.40923608 20.6322966,0.89948608 C23.2970272,1.37086608 25.7414142,2.68325608 27.7284694,4.38377608 C30.3932,6.66593608 32.5490796,9.81056608 33.3416824,13.1316861 C33.3943905,13.3533161 33.4403614,13.5797561 33.4795953,13.8095261 C36.7570078,15.6983761 39.1027158,18.9458661 39.5596513,22.5385661 C40.0732579,26.5671261 37.7481576,30.6608061 33.689635,32.2843661 C31.4465691,33.1808761 28.9395665,33.5394061 26.6267515,32.6277261 C25.6415462,32.2392261 23.7472256,31.0892661 23.4757591,29.8338561 C22.578929,30.6663561 21.3983472,31.2172861 20.11869,31.3945161 C19.2967609,31.5081061 18.468491,31.5858061 17.6406173,31.6646161 C16.4425982,33.0380561 14.3164412,33.8635261 12.6321603,34.4318461 C10.542463,35.1374361 8.24431123,35.5318561 6.03611985,35.1126461 C2.42739933,34.4281461 -0.423592917,31.9102961 0.0519687588,28.3057561 C0.414980838,25.5581361 2.06993547,23.0151261 4.38869494,21.0496861 C3.87746614,20.5964361 3.40507487,20.1061861 2.99807334,19.5608061 C1.65698941,17.7651961 1.10454527,15.5318761 1.81313217,13.4028961 C2.60930167,11.0108461 4.37403179,8.97325608 6.18948849,7.17172608 C8.094113,5.28139608 10.2761485,3.49836608 12.75541,2.29290608 Z M18.952375,20.1265361 C16.4873803,18.9144161 13.516705,18.9473461 10.8115517,19.7765161 C11.1190816,20.3144961 10.7798476,21.2087861 9.89728435,21.2087861 C9.33889569,21.2087861 9.057918,20.8532161 9.02502498,20.4558361 C7.76993846,21.0311861 6.62106071,21.7759961 5.67271147,22.6373561 C3.55051749,24.5650561 0.223567264,29.0409461 3.06267047,31.6298361 C4.91458689,33.3174061 7.76359763,33.5926861 10.1857918,33.0532261 C10.8301778,32.9100361 11.4610897,32.7298461 12.0793198,32.5170961 C12.4764138,32.3801961 12.8584484,32.0660661 13.223442,31.8644161 C13.6462956,31.6309461 14.0865864,31.4322561 14.5296514,31.2361561 C15.481171,30.8139861 16.4279351,30.3851561 17.4599039,30.1590861 C17.7119516,30.1039561 17.9354656,30.1946061 18.0698118,30.3511161 C19.4045549,30.1331861 20.8304473,29.8986061 21.8053487,29.0128261 C24.866777,26.2322761 22.0514519,21.6509361 18.952375,20.1265361 Z M28.8793286,14.4773761 C27.1815735,14.2235561 25.2420744,14.3460261 23.725429,15.1555861 C22.0526408,16.0476561 21.6717951,17.4044461 20.8284658,18.8696461 C23.9105017,20.9183361 26.4924053,25.0334761 24.4998019,28.5469961 C24.4625496,28.6132261 24.4217305,28.6776061 24.3805152,28.7423561 C24.4894981,28.8463261 24.556473,28.9961761 24.5259578,29.1652661 C24.4926685,29.3480461 25.2876491,29.8912061 25.4279398,30.0092361 C25.7422068,30.2748961 26.0834223,30.5113261 26.4622864,30.6937361 C27.4673068,31.1780661 28.560306,31.4000661 29.6917465,31.3116361 C31.7517212,31.1510561 33.8200182,30.2911761 35.2114324,28.8400361 C37.0732563,26.8971661 37.7259647,24.2657261 37.1120939,21.7944961 C36.9056208,21.9976261 36.6123578,22.1326761 36.2374567,22.1326761 C34.7291336,22.1326761 34.9042988,19.9729861 36.3856734,19.9389461 C34.9110359,17.1746761 32.2149975,14.9753961 28.8793286,14.4773761 Z M9.98328176,26.2851861 C11.2502573,26.2851861 11.0937183,28.1159461 9.83189462,28.1155761 C8.56491906,28.1155761 8.72145811,26.2851861 9.98328176,26.2851861 Z M18.7974211,23.8380061 C19.3673025,23.7347761 20.1396939,24.1084761 20.180513,24.7089861 C20.2455064,25.6643261 19.9439211,26.4890561 19.3399577,27.2608761 C18.9610936,27.7455761 18.2501289,27.9035661 17.7024404,27.5583561 C17.1848707,27.2320161 17.0049499,26.5142161 17.3842103,26.0295161 C17.4828894,25.9029761 17.5815684,25.7745861 17.6639991,25.6380561 C17.6929291,25.5899561 17.7087812,25.5666461 17.7198776,25.5511061 C17.7262184,25.5326061 17.736126,25.5052261 17.7523743,25.4641561 C17.7511854,25.4671161 17.8237086,25.2173661 17.8300494,25.2488161 C17.8371828,25.1566861 17.8538275,24.9672461 17.8645276,25.1293061 C17.8237086,24.5302761 18.1046863,23.9638061 18.7974211,23.8380061 Z M28.0962371,18.0241961 C29.6164492,18.0241961 29.4286024,20.2208861 27.9143347,20.2208861 C26.3941226,20.2208861 26.5823657,18.0241961 28.0962371,18.0241961 Z M28.8293947,9.07981608 C26.4765533,5.68099608 21.9848732,2.22963608 17.3544877,3.11208608 C14.6358602,3.63008608 12.1676951,5.10712608 10.1180242,6.81060608 C8.09966122,8.48781608 6.00322683,10.4702761 4.75844414,12.7368961 C3.75025339,14.5732061 3.66425599,16.4787061 4.9439132,18.2180761 C5.33427007,18.7479161 5.78090175,19.2263261 6.25289671,19.6832761 C10.1838103,17.1987261 15.2620164,16.2326561 19.3538283,18.0574961 C19.4132735,16.7491761 20.1317679,15.4504761 21.0912136,14.5177061 C23.5252968,12.1493361 27.5053517,11.7504761 30.835076,12.6921261 C30.2992765,11.3386661 29.5038996,10.0540261 28.8293947,9.07981608 Z M13.4881713,9.90824608 C14.0073261,9.48163608 14.6838126,9.60040608 15.1534298,10.0085161 C15.8362571,10.6023661 16.2420697,11.4174761 16.7108943,12.1574761 C17.0386355,12.6743661 16.7227833,13.3821761 16.1790578,13.6337761 C15.5707351,13.9157161 14.9247639,13.6533861 14.5974189,13.1372361 C14.1725838,12.4671661 13.9585811,11.9647061 13.3807736,11.4629861 C12.909175,11.0530261 13.0419359,10.2749161 13.4881713,9.90824608 Z M9.59094337,10.5868261 C10.0621457,10.1998061 10.8476151,10.2245961 11.2562018,10.6870961 C11.6069286,11.0837361 11.9267438,11.5022061 12.2469553,11.9203061 C12.6210639,12.4087061 12.6575236,13.0488061 12.1395577,13.4750461 C11.6937186,13.8413461 10.8480114,13.8631761 10.4742992,13.3747761 C10.1540877,12.9566761 9.83427243,12.5382061 9.48354569,12.1415661 C9.07416635,11.6783261 9.09754813,10.9923461 9.59094337,10.5868261 Z M22.3498668,5.13561608 C23.870079,5.13561608 23.6822321,7.33230608 22.1679645,7.33230608 C20.6477523,7.33230608 20.8359955,5.13561608 22.3498668,5.13561608 Z" id="Combined-Shape"></path>
            </g>
        </g>
    </g>
</svg>