<?xml version="1.0" encoding="UTF-8"?>
<svg width="25px" height="18px" viewBox="0 0 25 18" version="1.1" xmlns="http://www.w3.org/2000/svg" xmlns:xlink="http://www.w3.org/1999/xlink">
    <title>population@1x</title>
    <g id="Page-1" stroke="none" stroke-width="1" fill="none" fill-rule="evenodd">
        <path d="M7.5,0 C5.36211444,0 3.61111111,1.83001645 3.61111111,4.06451613 C3.61111111,5.39579294 4.23635361,6.58797881 5.19097222,7.33064516 C2.19169056,8.28217655 0,11.0330808 0,14.3346774 L0,17.1290323 C0,17.6100345 0.373115103,18 0.833333333,18 L24.1666667,18 C24.6268849,18 25,17.6100345 25,17.1290323 L25,14.34375 C25,11.0421769 22.8084722,8.28447416 19.8090278,7.33064516 C20.7636464,6.58797881 21.3888889,5.39579294 21.3888889,4.06451613 C21.3888889,1.83001645 19.6378856,0 17.5,0 C15.3621086,0 13.6111111,1.83002226 13.6111111,4.06451613 C13.6111111,5.39121745 14.2332375,6.57841297 15.1822917,7.32157258 C15.1305358,7.33792848 15.0772794,7.34944326 15.0260417,7.36693548 C14.5891798,7.51864934 14.3519158,8.01098442 14.4953372,8.46817471 C14.6387585,8.925365 15.1088734,9.17529843 15.546875,9.02721774 C16.1552614,8.81949194 16.8110097,8.70967742 17.5,8.70967742 C20.7762672,8.70967742 23.3333333,11.2424661 23.3333333,14.34375 L23.3333333,16.2580645 L15,16.2580645 L15,14.3346774 C15,11.0330808 12.8083094,8.28217655 9.80902778,7.33064516 C10.7636458,6.58797823 11.3888889,5.39579148 11.3888889,4.06451613 C11.3888889,1.83002226 9.63789139,0 7.5,0 Z M7.5,1.74193548 C8.73719361,1.74193548 9.72222222,2.77139323 9.72222222,4.06451613 C9.72222222,5.35754903 8.73717444,6.38709677 7.5,6.38709677 C6.26283583,6.38709677 5.27777778,5.35754613 5.27777778,4.06451613 C5.27777778,2.77139903 6.26281667,1.74193548 7.5,1.74193548 Z M17.5,1.74193548 C18.7371833,1.74193548 19.7222222,2.77139903 19.7222222,4.06451613 C19.7222222,5.35754613 18.7371642,6.38709677 17.5,6.38709677 C16.2628256,6.38709677 15.2777778,5.35754903 15.2777778,4.06451613 C15.2777778,2.77139323 16.2628064,1.74193548 17.5,1.74193548 Z M7.5,8.70967742 C10.7768739,8.70967742 13.3333333,11.2333935 13.3333333,14.3346774 L13.3333333,16.2580645 L1.66666667,16.2580645 L1.66666667,14.3346774 C1.66666667,11.2333935 4.22312611,8.70967742 7.5,8.70967742 Z" id="population" fill="#91C423"></path>
    </g>
</svg>