<?xml version="1.0" encoding="UTF-8"?>
<svg width="39px" height="24px" viewBox="0 0 39 24" version="1.1" xmlns="http://www.w3.org/2000/svg" xmlns:xlink="http://www.w3.org/1999/xlink">
    <title>prairie@1x</title>
    <g id="Page-1" stroke="none" stroke-width="1" fill="none" fill-rule="evenodd">
        <g id="noun_Straight-Grass_1099121" transform="translate(0.000000, -0.000000)" fill="#ABD848">
            <path d="M11.1803787,0 C11.1382465,0.0842692636 11.1481394,0.0827080751 11.1443337,0.0964445387 C11.1405429,0.110181002 11.1377108,0.119454861 11.1355661,0.128592552 C11.1312766,0.146872922 11.1282554,0.163876409 11.1238761,0.185095106 C11.1151225,0.227531501 11.1040765,0.283086867 11.090754,0.353629144 C11.064108,0.494713199 11.0276366,0.69506356 10.9826195,0.948855448 C10.8925848,1.45643923 10.7683057,2.17769135 10.6231456,3.05114488 C10.3328244,4.79805146 9.95809827,7.15523659 9.60414891,9.63565535 C9.25019955,12.1160736 8.91755318,14.7187085 8.70984777,16.9595711 C8.5219525,18.9867095 8.42936754,20.6870263 8.53741725,21.8197758 L9.54862048,21.8197758 C9.44530671,20.8813789 9.50940572,19.1348274 9.70254119,17.0511446 C9.90773972,14.8373269 10.2394389,12.2474025 10.5919717,9.77691198 C10.944504,7.30642098 11.3177992,4.95443217 11.6070714,3.21383369 C11.7517073,2.34353396 11.8753954,1.62612096 11.9645971,1.12323422 C12.0091982,0.871791095 12.045305,0.673625899 12.0707828,0.538723751 C12.0835217,0.471272926 12.094279,0.419253926 12.1009826,0.386751279 C12.1033768,0.375244372 12.1036825,0.370715928 12.1048963,0.365319104 C12.1034331,0.372007774 12.1128581,0.365917144 12.0727316,0.446176697 L11.1803787,0 Z M29.3050742,0.187043349 C24.3540218,6.71543383 22.9405826,14.1686998 22.5033207,21.7973695 L22.8910461,21.8197758 L23.5008852,21.8197758 C23.9355405,14.2891418 25.321837,7.08952003 30.1000085,0.789089504 L29.3050742,0.187043349 Z M2.13800189,0.548465966 L1.37813803,1.19337547 C5.33037248,5.85402938 6.37563606,12.6593817 6.59879074,17.195324 C6.92569813,17.7106888 7.22291849,18.230603 7.458021,18.7491475 C7.5333895,18.9153802 7.60314968,19.0834319 7.66844477,19.2518263 C7.68625878,14.878675 7.03267695,6.32048806 2.13800189,0.548465966 Z M9.29435824,0.792011869 L8.40395409,1.24208505 C8.91295391,2.25010506 9.370642,3.65431031 9.76099249,5.26838767 C9.89014069,4.45265821 10.0205428,3.63505182 10.1311822,2.96931317 C10.135758,2.94177939 10.1383382,2.93029792 10.1428727,2.9030689 C9.8840321,2.11459838 9.60161609,1.40050279 9.29435824,0.792011869 Z M37.5593362,2.17827592 C35.0993999,6.42485076 32.8910025,10.9401715 32.2919226,16.6595227 L33.284616,16.7637602 C33.8629595,11.2423807 35.9864577,6.8832975 38.4224629,2.67803231 L37.5593362,2.17827592 Z M22.2217815,3.01802275 L21.3118934,3.42523158 C22.5801621,6.2573502 23.2597344,8.95077443 23.4453568,11.5362881 C23.6493906,10.723896 23.8765201,9.91628571 24.136053,9.11641503 C23.7812387,7.13834582 23.1573963,5.10730594 22.2217815,3.01802275 Z M18.2471103,3.85582083 C15.0339929,9.49059251 14.0995947,13.8216556 12.9952837,18.176327 L13.013793,18.1811981 C13.1374896,17.9041251 13.2631787,17.6290252 13.389828,17.3745739 C14.0286573,16.0911094 14.6825704,15.1349243 14.6825704,15.1349243 L14.779989,15.2011691 C15.650008,11.9055187 16.7430648,8.50782336 19.1141341,4.34973199 L18.2471103,3.85582083 Z M20.5627459,6.90696522 C20.4562689,9.8897515 20.2509481,13.62591 19.7493019,16.5952266 C20.0015206,17.3258085 20.1947748,18.0546885 20.3133548,18.7803214 C21.1804783,15.4624248 21.4283576,10.638497 21.5603104,6.9420361 L20.5627459,6.90696522 Z M11.3518351,8.06527031 C11.2625565,8.66161289 11.1742003,9.22813927 11.0858829,9.84705324 C10.9964113,10.4740555 10.9176007,11.1076745 10.8325948,11.7418413 C11.2167469,15.4750739 11.2542658,19.2648156 10.8696139,21.7954213 L11.0303544,21.8197758 L11.8710754,21.8197758 C12.2823393,18.9885426 12.208343,14.935809 11.7590439,10.990745 C11.6461585,9.99955692 11.5099745,9.01778034 11.3518351,8.06527031 Z M30.7215376,9.30248426 L29.7415087,9.4846565 C30.3805032,12.918531 30.6938202,16.1097444 30.7264087,19.0910862 C31.007687,19.6011245 31.3352712,20.319365 31.6898769,21.3151483 L31.6996187,21.3151483 C31.8363065,17.6415227 31.531139,13.6531739 30.7215376,9.30248426 Z M0.137027599,11.3667805 L0.015254398,12.3575256 C-0.0655015431,12.3476547 0.187674948,12.4289931 0.461431095,12.6234778 C0.735186743,12.8179625 1.08623918,13.1059359 1.47458257,13.4593277 C2.25126886,14.1661111 3.18079051,15.1369389 4.02791881,16.1850949 C4.87504712,17.233251 5.64027987,18.3635419 6.09513737,19.3667805 C6.54999587,20.3700183 6.65527135,21.2058237 6.4166185,21.6960544 L6.57346208,21.7720409 C6.57260617,21.7825313 6.57192483,21.7997812 6.57053972,21.8197758 L7.43464058,21.8197758 C7.70708843,20.9535601 7.45929639,19.9587928 7.00405133,18.9547002 C6.49308481,17.8277091 5.68628156,16.6489475 4.80434374,15.5577201 C3.92240541,14.4664943 2.96514947,13.4674813 2.14579536,12.7218706 C1.73611805,12.3490648 1.36207974,12.0404478 1.03912221,11.8110084 C0.716164185,11.5815691 0.501157606,11.4112838 0.137027599,11.3667805 Z M26.9631354,12.0584513 L26.0931888,12.5474913 C27.8176247,15.6098139 28.2060549,18.677462 28.4594822,21.8197758 L29.4599691,21.8197758 C29.4344469,21.5029054 29.4093691,21.1862071 29.3800861,20.867998 C29.1849695,20.4208821 29.013317,20.0952037 28.8774074,19.8655624 C28.7409445,19.6349878 28.6395835,19.5009186 28.586126,19.4359473 C28.5326665,19.3709759 28.5783325,19.4184121 28.5783325,19.4184121 L28.8978649,19.0345837 C28.8978649,19.0345837 28.8994111,19.0314413 28.970929,19.1183631 C29.042433,19.2052679 29.15791,19.3609982 29.3060484,19.6113006 C29.5544015,20.0309321 29.898047,20.741837 30.2821807,21.8197758 L31.3381965,21.8197758 C30.8907036,20.501807 30.4794855,19.635324 30.1643045,19.1027762 C29.9928152,18.8130186 29.849106,18.6159158 29.7415087,18.4851436 C29.6339109,18.3543713 29.5369297,18.2688746 29.5369297,18.2688746 L29.130695,18.7559669 C28.8056276,16.5408788 28.2258087,14.3007559 26.9631354,12.0584513 Z M17.6070714,13.2771554 L16.7566083,13.798344 C18.4806507,16.6106176 19.2250982,19.2607425 18.8920198,21.7603504 L19.3391707,21.8197758 L19.8886103,21.8197758 C20.2357522,19.057601 19.3950463,16.1937184 17.6070714,13.2771554 Z M15.0946503,15.4164635 C15.0946503,15.4164635 14.459488,16.3469842 13.8369788,17.5976618 C13.2178359,18.8415764 12.5855625,20.3981292 12.6280164,21.8197758 L13.2924098,21.8197758 L13.6246068,21.8080854 C13.5865347,20.7230389 14.1394608,19.2269939 14.7293312,18.0418897 C15.3192021,16.8567861 15.9188102,15.9795423 15.9188102,15.9795423 L15.0946503,15.4164635 Z M3.72884448,17.2830005 L2.94754895,17.903556 C2.94754895,17.903556 3.51802567,18.6224663 4.03473816,19.582075 C4.41504567,20.2883597 4.73538958,21.118491 4.81116309,21.8197758 L5.82626281,21.8197758 C5.76530613,20.8599432 5.34165893,19.904837 4.91345236,19.1095955 C4.35004437,18.063267 3.72884448,17.2830005 3.72884448,17.2830005 Z M33.2894871,18.3945443 C33.2894871,18.3945443 32.8825237,19.546638 32.5705394,21.8197758 L33.580768,21.8197758 C33.8783904,19.7231715 34.2276262,18.7325865 34.2276262,18.7325865 L33.2894871,18.3945443 Z M25.4365888,18.8631272 L24.4448695,18.969313 C24.4448695,18.969313 24.5534499,20.0618656 24.3347868,21.8197758 L25.3430672,21.8197758 C25.5545194,20.0262097 25.4365888,18.8631272 25.4365888,18.8631272 Z M3.69085123,23.0043837 L3.69085123,24 L35.5213427,24 L35.5213427,23.0043837 L3.69085123,23.0043837 Z" id="Shape"></path>
        </g>
    </g>
</svg>