<?xml version="1.0" encoding="UTF-8"?>
<svg width="42px" height="31px" viewBox="0 0 42 31" version="1.1" xmlns="http://www.w3.org/2000/svg" xmlns:xlink="http://www.w3.org/1999/xlink">
    <title>regime@1x</title>
    <g id="Page-1" stroke="none" stroke-width="1" fill="none" fill-rule="evenodd">
        <g id="Group" transform="translate(-0.056911, -4.000000)" fill="#91C423">
            <g id="Group" transform="translate(4.920000, 8.610000)">
                <g id="noun_Food_1603826_000000" transform="translate(-4.346000, -4.346000)">
                    <path d="M7.91791221,0.42423479 C8.36571219,0.473443912 8.70172115,0.85660259 8.69204346,1.30699431 L8.69204346,8.26061169 C8.69204346,10.3541668 7.19201721,12.1185124 5.21524346,12.5251242 L5.21524346,29.1214247 C5.21967663,29.4348895 5.05498445,29.7264587 4.78423078,29.8844847 C4.51347711,30.0425108 4.17860981,30.0425108 3.90785614,29.8844847 C3.63710247,29.7264587 3.47241029,29.4348895 3.47684346,29.1214247 L3.47684346,12.5251242 C1.50006971,12.1185124 4.346e-05,10.3541668 4.346e-05,8.26061169 L4.346e-05,1.30699431 C-0.00438971167,0.993529571 0.160302467,0.701960388 0.431056141,0.543934302 C0.701809815,0.385908217 1.03667711,0.385908217 1.30743078,0.543934302 C1.57818445,0.701960388 1.74287663,0.993529571 1.73844346,1.30699431 L1.73844346,8.26061169 C1.73844346,9.41456161 2.45509017,10.3812859 3.47684346,10.7323992 L3.47684346,1.30699431 C3.47145749,1.05667178 3.57426857,0.816182734 3.75894757,0.647114571 C3.94362657,0.478046408 4.19223721,0.396819265 4.44111221,0.42423479 C4.88891219,0.473443912 5.22492115,0.85660259 5.21524346,1.30699431 L5.21524346,10.7323992 C6.23699675,10.3812859 6.95364346,9.41456161 6.95364346,8.26061169 L6.95364346,1.30699431 C6.94825749,1.05667178 7.05106857,0.816182734 7.23574757,0.647114571 C7.42042657,0.478046408 7.66903721,0.396819265 7.91791221,0.42423479 L7.91791221,0.42423479 Z M36.5064435,0.43779431 C37.8188355,0.43779431 38.9420853,1.23919671 39.684456,2.35272883 C40.4268266,3.46630441 40.8524435,4.92547391 40.8524435,6.52219431 C40.8524435,8.11891471 40.4268266,9.57810159 39.684456,10.6916772 C39.1115532,11.5510118 38.3140926,12.2216865 37.3756435,12.4844022 L37.3756435,29.1214247 C37.3800766,29.4348895 37.2153845,29.7264587 36.9446308,29.8844847 C36.6738771,30.0425108 36.3390098,30.0425108 36.0682561,29.8844847 C35.7975025,29.7264587 35.6328103,29.4348895 35.6372435,29.1214247 L35.6372435,12.4844022 C34.6987943,12.2216865 33.9013337,11.5510118 33.328431,10.6916772 C32.5860603,9.57810159 32.1604435,8.11891471 32.1604435,6.52219431 C32.1604435,4.92547391 32.5860603,3.46630441 33.328431,2.35272883 C34.0708016,1.23919671 35.1940514,0.43779431 36.5064435,0.43779431 L36.5064435,0.43779431 Z M36.5064435,2.17619431 C35.8986858,2.17619431 35.2840353,2.54304017 34.7680435,3.31701931 C34.2520516,4.09099845 33.8988435,5.23864667 33.8988435,6.52219431 C33.8988435,7.80574195 34.2520516,8.95340755 34.7680435,9.72738669 C35.2840353,10.5013658 35.8986858,10.8682117 36.5064435,10.8682117 C37.1142011,10.8682117 37.7288516,10.5013658 38.2448435,9.72738669 C38.7608353,8.95340755 39.1140435,7.80574195 39.1140435,6.52219431 C39.1140435,5.23864667 38.7608353,4.09099845 38.2448435,3.31701931 C37.7288516,2.54304017 37.1142011,2.17619431 36.5064435,2.17619431 Z M20.4262435,5.65299431 C27.1365935,5.65299431 32.5950435,11.1115008 32.5950435,17.8218247 C32.5950435,24.5321357 27.1365978,29.9906247 20.4262435,29.9906247 C13.7159282,29.9906247 8.25744346,24.5321357 8.25744346,17.8218247 C8.25744346,11.1115008 13.7159282,5.65299431 20.4262435,5.65299431 L20.4262435,5.65299431 Z M20.4262435,7.39139431 C14.6554378,7.39139431 9.99584346,12.0509756 9.99584346,17.8218247 C9.99584346,23.5926174 14.6554378,28.2522247 20.4262435,28.2522247 C26.1970883,28.2522247 30.8566435,23.5926174 30.8566435,17.8218247 C30.8566435,12.0509756 26.1970926,7.39139431 20.4262435,7.39139431 L20.4262435,7.39139431 Z M20.4262435,11.3028117 C24.0162959,11.3028117 26.9452435,14.231768 26.9452435,17.8218247 C26.9452435,21.411838 24.0163002,24.3408247 20.4262435,24.3408247 C16.8361867,24.3408247 13.9072435,21.411838 13.9072435,17.8218247 C13.9072435,14.231768 16.836191,11.3028117 20.4262435,11.3028117 Z M20.4262435,13.0412117 C17.7756919,13.0412117 15.6456435,15.1712863 15.6456435,17.8218247 C15.6456435,20.4723632 17.7756963,22.6024247 20.4262435,22.6024247 C23.0767906,22.6024247 25.2068435,20.4723632 25.2068435,17.8218247 C25.2068435,15.1712863 23.076795,13.0412117 20.4262435,13.0412117 Z" id="Shape"></path>
                </g>
            </g>
        </g>
    </g>
</svg>