<?xml version="1.0" encoding="UTF-8"?>
<svg width="72px" height="55px" viewBox="0 0 72 55" version="1.1" xmlns="http://www.w3.org/2000/svg" xmlns:xlink="http://www.w3.org/1999/xlink">
    <title>sol@1x</title>
    <g id="Page-1" stroke="none" stroke-width="1" fill="none" fill-rule="evenodd">
        <g id="sol" transform="translate(0.990834, 0.163853)" fill="#000000">
            <path d="M47.2245634,4.95171698 C50.0336338,5.882 51.1454178,7.12781761 51.0828451,9.44862893 C50.8861878,9.89146541 50.702939,10.3680314 50.534216,10.8837673 C47.4715023,9.76851572 46.6010704,8.20716352 47.2245634,4.95171698 L47.2245634,4.95171698 Z M59.0273521,7.55977358 C57.9155681,10.7444969 56.0070986,11.8271069 52.7745446,11.3244277 C52.8482911,10.8859434 53.2941221,9.93607547 53.2941221,9.93607547 C54.4193146,7.63376101 56.0227418,7.01357233 59.0273521,7.55977358 L59.0273521,7.55977358 Z M14.9403662,5.90484906 C18.7260188,5.17803145 20.7607512,5.94075472 22.1630516,8.81755975 C22.1630516,8.81755975 22.6513427,10.0971069 22.7586103,10.6911824 C18.6478028,11.374478 16.3169671,9.96871698 14.9403662,5.90484906 L14.9403662,5.90484906 Z M29.274,2.72338994 C30.1120282,6.86450943 29.0214742,8.85455346 25.0905634,10.2352893 C24.8682066,9.53349686 24.4983568,8.62606289 24.3598028,8.30508805 C24.2815869,5.40652201 25.7241127,3.86366667 29.274,2.72338994 L29.274,2.72338994 Z M57.8764601,18.4141635 C56.1869953,18.4141635 54.5154085,18.9668931 53.1723286,19.9722516 L51.5957183,21.1538742 C50.9197089,18.9701572 51.3241972,15.0803774 51.9029953,13.5843082 L52.0359624,13.1849937 L52.6616901,13.321 C53.3488732,13.429805 54.00477,13.4994403 54.6036808,13.4994403 C58.2161408,13.4994403 60.2642817,11.4952516 61.5269108,7.04077358 L61.8308357,5.96577987 L60.720169,5.6959434 C57.1267042,4.82223899 54.6416714,5.11492453 52.8773427,6.77528931 C52.052723,4.74389937 50.0548638,3.42300629 46.6915775,2.51883648 L45.587615,2.22179874 L45.310507,3.30332075 C43.9886573,8.45306289 45.2568732,11.2711132 49.7989859,12.9380063 C49.0447606,15.0194465 48.7486573,18.6372138 49.3017559,21.1658428 L45.6669484,19.288956 C44.5596338,18.7166415 43.3104131,18.4141635 42.0533709,18.4141635 L33.0250141,18.4141635 C30.8561972,18.4141635 28.7063756,19.0223836 26.7509765,20.1593962 C26.9766854,17.3946604 26.5833709,14.1881761 25.8302629,12.2775597 C31.2148732,10.358239 32.7277934,7.0951761 31.1847042,1.08152201 L30.9064789,0 L29.8036338,0.297037736 C25.7576338,1.38508805 23.4256808,2.99757862 22.5474272,5.51206289 C20.4959343,3.39689308 17.5628357,2.99757862 13.2542535,4.04428302 L12.1435869,4.31520755 L12.4475117,5.38911321 C13.9101502,10.5399434 16.2778592,12.8574906 20.4534742,12.8574906 C21.1942911,12.8574906 21.9999155,12.7758868 22.8602911,12.6333522 L23.4971925,12.5256352 L23.7161972,12.9260377 C24.3855023,14.4482201 24.8939061,18.4446289 24.3765634,21.2289497 C22.0334366,19.4108176 19.3014648,18.4141635 16.5337371,18.4141635 L0,18.4141635 L0,20.5902642 L16.5337371,20.5902642 C19.2299531,20.5902642 21.8099624,21.6968113 23.9955399,23.7902201 L24.7799343,24.5409748 L25.5632113,23.7902201 C25.6693615,23.6879434 25.7810986,23.5998113 25.8894836,23.5029748 L26.0079249,23.5530252 C26.0403286,23.4801258 26.0649108,23.397434 26.0950798,23.3212704 C28.1610986,21.539044 30.5410986,20.5902642 33.0250141,20.5902642 L42.0533709,20.5902642 C42.9461502,20.5902642 43.8333427,20.8046101 44.6199718,21.2115409 L50.8738967,24.4408742 L54.5344038,21.6978994 C55.4886385,20.9830503 56.6764038,20.5902642 57.8764601,20.5902642 L70.8748357,20.5902642 L70.8748357,18.4141635 L57.8764601,18.4141635 Z" id="Fill-1"></path>
            <path d="M29.8331972,35.2783994 C29.8331972,34.1533553 28.8934883,33.238305 27.7381268,33.238305 C26.5827653,33.238305 25.6430563,34.1533553 25.6430563,35.2783994 C25.6430563,36.4034434 26.5827653,37.3184937 27.7381268,37.3184937 C28.8934883,37.3184937 29.8331972,36.4034434 29.8331972,35.2783994" id="Fill-9"></path>
            <path d="M38.5485136,31.8782421 C39.7038751,31.8782421 40.643584,30.9631918 40.643584,29.8381478 C40.643584,28.7131038 39.7038751,27.7980535 38.5485136,27.7980535 C37.3931521,27.7980535 36.4534432,28.7131038 36.4534432,29.8381478 C36.4534432,30.9631918 37.3931521,31.8782421 38.5485136,31.8782421" id="Fill-11"></path>
            <path d="M3.50807981,33.238305 C2.35271831,33.238305 1.41300939,34.1533553 1.41300939,35.2783994 C1.41300939,36.4034434 2.35271831,37.3184937 3.50807981,37.3184937 C4.66344131,37.3184937 5.60315023,36.4034434 5.60315023,35.2783994 C5.60315023,34.1533553 4.66344131,33.238305 3.50807981,33.238305 Z" id="Fill-15"></path>
            <path d="M16.5644178,27.7980535 C15.4090563,27.7980535 14.4693474,28.7131038 14.4693474,29.8381478 C14.4693474,30.9631918 15.4090563,31.8782421 16.5644178,31.8782421 C17.7197793,31.8782421 18.6594883,30.9631918 18.6594883,29.8381478 C18.6594883,28.7131038 17.7197793,27.7980535 16.5644178,27.7980535" id="Fill-17"></path>
            <path d="M16.5644178,40.8546572 C15.4090563,40.8546572 14.4693474,41.7697075 14.4693474,42.8947516 C14.4693474,44.0197956 15.4090563,44.9348459 16.5644178,44.9348459 C17.7197793,44.9348459 18.6594883,44.0197956 18.6594883,42.8947516 C18.6594883,41.7697075 17.7197793,40.8546572 16.5644178,40.8546572" id="Fill-19"></path>
            <path d="M4.6254507,48.4710094 C3.4700892,48.4710094 2.53038028,49.3860597 2.53038028,50.5111038 C2.53038028,51.6361478 3.4700892,52.5511981 4.6254507,52.5511981 C5.78081221,52.5511981 6.72052113,51.6361478 6.72052113,50.5111038 C6.72052113,49.3860597 5.78081221,48.4710094 4.6254507,48.4710094" id="Fill-21"></path>
            <path d="M28.8554977,50.6471101 C27.7001362,50.6471101 26.7604272,51.5621604 26.7604272,52.6872044 C26.7604272,53.8122484 27.7001362,54.7272987 28.8554977,54.7272987 C30.0108592,54.7272987 30.9505681,53.8122484 30.9505681,52.6872044 C30.9505681,51.5621604 30.0108592,50.6471101 28.8554977,50.6471101" id="Fill-13"></path>
            <path d="M52.5080798,33.238305 C51.3527183,33.238305 50.4130094,34.1533553 50.4130094,35.2783994 C50.4130094,36.4034434 51.3527183,37.3184937 52.5080798,37.3184937 C53.6634413,37.3184937 54.6031502,36.4034434 54.6031502,35.2783994 C54.6031502,34.1533553 53.6634413,33.238305 52.5080798,33.238305 Z" id="Fill-15"></path>
            <path d="M64.5644178,27.7980535 C63.4090563,27.7980535 62.4693474,28.7131038 62.4693474,29.8381478 C62.4693474,30.9631918 63.4090563,31.8782421 64.5644178,31.8782421 C65.7197793,31.8782421 66.6594883,30.9631918 66.6594883,29.8381478 C66.6594883,28.7131038 65.7197793,27.7980535 64.5644178,27.7980535" id="Fill-17"></path>
            <path d="M64.5644178,40.8546572 C63.4090563,40.8546572 62.4693474,41.7697075 62.4693474,42.8947516 C62.4693474,44.0197956 63.4090563,44.9348459 64.5644178,44.9348459 C65.7197793,44.9348459 66.6594883,44.0197956 66.6594883,42.8947516 C66.6594883,41.7697075 65.7197793,40.8546572 64.5644178,40.8546572" id="Fill-19"></path>
            <path d="M53.6254507,48.4710094 C52.4700892,48.4710094 51.5303803,49.3860597 51.5303803,50.5111038 C51.5303803,51.6361478 52.4700892,52.5511981 53.6254507,52.5511981 C54.7808122,52.5511981 55.7205211,51.6361478 55.7205211,50.5111038 C55.7205211,49.3860597 54.7808122,48.4710094 53.6254507,48.4710094" id="Fill-21"></path>
            <path d="M40.0286479,40.8546572 C38.8732864,40.8546572 37.9335775,41.7697075 37.9335775,42.8947516 C37.9335775,44.0197956 38.8732864,44.9348459 40.0286479,44.9348459 C41.1840094,44.9348459 42.1237183,44.0197956 42.1237183,42.8947516 C42.1237183,41.7697075 41.1840094,40.8546572 40.0286479,40.8546572" id="Fill-23"></path>
        </g>
    </g>
</svg>