<?xml version="1.0" encoding="UTF-8"?>
<svg width="17px" height="25px" viewBox="0 0 17 25" version="1.1" xmlns="http://www.w3.org/2000/svg" xmlns:xlink="http://www.w3.org/1999/xlink">
    <title>territoire@1x</title>
    <g id="Page-1" stroke="none" stroke-width="1" fill="none" fill-rule="evenodd">
        <g id="MENUS-/-menu-etapes-/-icone-territoire" transform="translate(-4.000000, 5.000000)" fill="#91C423">
            <path d="M10.5420603,17.18574 L11.7421161,19.2149411 C11.9095592,19.5014419 12.258846,19.5863766 12.5220112,19.4035823 C12.5917556,19.355268 12.6507701,19.2909515 12.6951016,19.2149411 L13.8951574,17.18574 L14.5482701,16.0702026 L18.8718594,8.74242951 C19.662202,7.40255365 20.125,5.80787365 20.125,4.09748549 C20.125,-0.645933556 16.5779174,-4.5 12.2184676,-4.5 C7.85958259,-4.5 4.3125,-0.645933556 4.3125,4.09748549 C4.3125,5.80787365 4.77501563,7.40255365 5.56535826,8.74242951 L9.88894754,16.0702026 M12.2186152,1.5 C13.4160677,1.5 14.375,2.5006875 14.375,3.75 C14.375,4.9993125 13.4160677,6 12.2186152,6 C11.0217018,6 10.0625,4.9993125 10.0625,3.75 C10.0625,2.5006875 11.0217018,1.5 12.2186152,1.5 M12.2186003,0 C10.2410569,0 8.625,1.6865625 8.625,3.75 C8.625,5.81375 10.2410569,7.5 12.2186003,7.5 C14.1964431,7.5 15.8125,5.81375 15.8125,3.75 C15.8125,1.6865625 14.1964431,0 12.2186003,0 M12.2186152,-3 C15.7983343,-3 18.6875,0.287737438 18.6875,4.36219446 C18.6875,5.82983553 18.3071835,7.19229361 17.6600255,8.34100262 L12.2186152,18 L6.77747453,8.34100262 C6.13004698,7.19229361 5.75,5.82983553 5.75,4.36219446 C5.75,0.287737438 8.63916566,-3 12.2186152,-3" id="Fill-1"></path>
        </g>
    </g>
</svg>