<?xml version="1.0" encoding="UTF-8"?>
<svg width="44px" height="31px" viewBox="0 0 44 31" version="1.1" xmlns="http://www.w3.org/2000/svg" xmlns:xlink="http://www.w3.org/1999/xlink">
    <title>viande@1x</title>
    <g id="Page-1" stroke="none" stroke-width="1" fill="none" fill-rule="evenodd">
        <g id="viande" transform="translate(1.000000, 1.136364)" fill="#8B572A">
            <path d="M42.5988492,10.5013983 C36.6418492,6.19927428 31.9869132,8.47143003 30.0834547,9.82164973 C29.7230585,8.73909968 29.1542595,7.65987603 28.4215601,6.71920223 C32.0876765,5.94106503 33.1614231,2.41552183 33.1880055,0.442072082 C33.1932446,0.0287419818 32.8717547,-0.310125168 32.4683444,-0.316961118 C32.0520745,-0.317449418 31.7324897,0.00628108182 31.7248691,0.419366982 C31.7211184,0.618066932 31.5721019,5.18474783 27.1417028,5.36315358 C25.858184,4.24068653 23.9966383,3.22820483 21.4495748,3.22820483 C19.3391125,3.22820483 17.3735291,3.98501023 15.7772721,5.36440478 C11.3343408,5.19915208 11.178954,0.632501682 11.1747568,0.420343482 C11.1685651,0.00676933182 10.8451701,-0.315984568 10.4331866,-0.318181818 C10.0293,-0.312322418 9.70638126,0.0280095818 9.71162036,0.442072082 C9.73820282,2.41543023 10.8118601,5.94079033 14.477649,6.71911063 C13.7450985,7.65969293 13.1763292,8.73876393 12.8159628,9.82119193 C10.9050326,8.46303763 6.21913836,6.16771903 0.219332611,10.5016424 C0.0440610654,10.6281072 -0.0678650634,10.8270818 -0.0878688689,11.046076 C-0.107396423,11.264826 -0.0321439543,11.4813787 0.117408385,11.6386053 C0.153605793,11.6764471 2.58454592,14.1564275 6.60293186,14.1564275 C8.27325064,14.1564275 10.221301,13.7174627 12.3822194,12.5066778 C12.3880836,12.6891119 12.3993357,12.8691045 12.422614,13.0429021 L12.5978855,14.3597967 C13.8190709,23.5866033 14.6263678,29.6818182 21.4495748,29.6818182 C28.2727818,29.6818182 29.0796024,23.5875799 30.3012641,14.3627264 L30.477012,13.042658 C30.5002605,12.8687078 30.5114531,12.6885931 30.5172875,12.5060064 C32.6620123,13.7060186 34.5950598,14.1412908 36.2533525,14.1412908 C40.2479244,14.1412908 42.6650523,11.6759588 42.7007734,11.6383611 C42.8503258,11.4811346 42.9255782,11.2645818 42.9060507,11.0458318 C42.8860468,10.8268377 42.7741207,10.6278631 42.5988492,10.5013983 Z M1.87012384,11.181574 C6.80678026,8.07171073 10.4836725,9.93621268 11.979196,11.0272771 C6.92680319,14.0199529 3.32373461,12.2296697 1.87012384,11.181574 Z M29.0272115,12.8388006 L28.8514636,14.1610662 C27.5640751,23.8834783 26.7705903,28.1818182 21.4495748,28.1818182 C16.1285593,28.1818182 15.3350745,23.8825018 14.047686,14.1581365 L13.8724144,12.8388006 C13.6971429,11.5314275 14.2405799,9.26384943 15.847077,7.37517753 C16.0453886,7.14208428 16.2734381,6.90047658 16.5310766,6.66213433 C16.5319101,6.66127983 16.5328626,6.66066948 16.5336961,6.65981498 C17.6107469,5.66424003 19.216351,4.72820488 21.4495748,4.72820488 C24.2186747,4.72820488 26.0242574,6.16741388 27.0515963,7.37468928 C28.6585697,9.26360528 29.2020067,11.5311834 29.0272115,12.8388006 Z M30.9266215,11.030451 C31.4672009,10.6420232 32.2925965,10.1527654 33.3566091,9.83001153 C35.8008852,9.08977713 38.3508956,9.54339043 40.9475816,11.1805975 C39.5001626,12.2223455 35.9299574,13.9884588 30.9266215,11.030451 Z" id="Shape"></path>
        </g>
    </g>
</svg>