<?xml version="1.0" encoding="UTF-8"?>
<svg width="34px" height="29px" viewBox="0 0 34 29" version="1.1" xmlns="http://www.w3.org/2000/svg" xmlns:xlink="http://www.w3.org/1999/xlink">
    <!-- Generator: Sketch 53.1 (72631) - https://sketchapp.com -->
    <title>Path</title>
    <desc>Created with Sketch.</desc>
    <g id="Page-1" stroke="none" stroke-width="1" fill="none" fill-rule="evenodd">
        <g id="impacts" transform="translate(-592.000000, -625.000000)" fill="#000000">
            <g id="Group-19" transform="translate(581.000000, 618.000000)">
                <g id="noun_Arrow_1754122_000000" transform="translate(28.000000, 23.000000) rotate(-216.000000) translate(-28.000000, -23.000000) translate(8.000000, 10.000000)">
                    <path d="M0.374742861,13.9411489 L11.0416016,25.5729005 C11.5396012,26.1013148 12.3464006,26.1625515 12.9270668,25.6262688 C13.4461331,25.1468438 13.4590664,24.2118043 12.9790668,23.69119 L4.41640652,14.3687109 L38.666601,14.3687109 C39.4030671,14.3687109 40,13.7560705 40,13.0002936 C40,12.2445168 39.4030671,11.631808 38.666601,11.631808 L4.41640652,11.631808 L12.9790668,2.30932203 C13.4589998,1.78877612 13.4249331,0.876726049 12.9270668,0.374311669 C12.4013339,-0.156086844 11.5320012,-0.10887645 11.0416016,0.42767994 L0.374742861,12.05937 C-0.166256736,12.688705 -0.0817901326,13.4033609 0.374742861,13.9411489 L0.374742861,13.9411489 Z" id="Path"></path>
                </g>
            </g>
        </g>
    </g>
</svg>