<?xml version="1.0" encoding="UTF-8"?>
<svg width="59px" height="45px" viewBox="0 0 59 45" version="1.1" xmlns="http://www.w3.org/2000/svg" xmlns:xlink="http://www.w3.org/1999/xlink">
    <!-- Generator: Sketch 53.1 (72631) - https://sketchapp.com -->
    <title>noun_Air Pollution_383784_000000</title>
    <desc>Created with Sketch.</desc>
    <g id="Page-1" stroke="none" stroke-width="1" fill="none" fill-rule="evenodd">
        <g id="impacts" transform="translate(-499.000000, -397.000000)" fill="#000000">
            <g id="Group-17" transform="translate(499.000000, 384.000000)">
                <g id="noun_Air-Pollution_383784_000000" transform="translate(0.000000, 13.000000)">
                    <g id="Oval">
                        <ellipse cx="2.08137289" cy="25.4605263" rx="1.57333333" ry="1.57894737"></ellipse>
                        <ellipse cx="5.50666667" cy="19.5066111" rx="1.57333333" ry="1.57894737"></ellipse>
                        <ellipse cx="8.93196044" cy="25.4605263" rx="1.57333333" ry="1.57894737"></ellipse>
                        <ellipse cx="15.7825" cy="25.4605263" rx="1.57333333" ry="1.57894737"></ellipse>
                        <ellipse cx="22.6330396" cy="25.4605263" rx="1.57333333" ry="1.57894737"></ellipse>
                        <ellipse cx="29.4836271" cy="25.4605263" rx="1.57333333" ry="1.57894737"></ellipse>
                        <ellipse cx="36.3341667" cy="25.4605263" rx="1.57333333" ry="1.57894737"></ellipse>
                        <ellipse cx="29.4836271" cy="37.368405" rx="1.57333333" ry="1.57894737"></ellipse>
                        <ellipse cx="36.3341667" cy="37.368405" rx="1.57333333" ry="1.57894737"></ellipse>
                        <ellipse cx="50.0352938" cy="25.4605263" rx="1.57333333" ry="1.57894737"></ellipse>
                        <ellipse cx="56.8858333" cy="25.4605263" rx="1.57333333" ry="1.57894737"></ellipse>
                        <ellipse cx="32.9088729" cy="31.4143933" rx="1.57333333" ry="1.57894737"></ellipse>
                        <ellipse cx="39.7594604" cy="31.4143933" rx="1.57333333" ry="1.57894737"></ellipse>
                        <ellipse cx="46.61" cy="31.4143933" rx="1.57333333" ry="1.57894737"></ellipse>
                        <ellipse cx="53.4605396" cy="31.4143933" rx="1.57333333" ry="1.57894737"></ellipse>
                        <ellipse cx="43.1847062" cy="37.368405" rx="1.57333333" ry="1.57894737"></ellipse>
                        <ellipse cx="50.0352938" cy="37.368405" rx="1.57333333" ry="1.57894737"></ellipse>
                        <ellipse cx="19.2077938" cy="19.5066111" rx="1.57333333" ry="1.57894737"></ellipse>
                        <ellipse cx="26.0583333" cy="19.5066111" rx="1.57333333" ry="1.57894737"></ellipse>
                        <ellipse cx="32.9088729" cy="19.5066111" rx="1.57333333" ry="1.57894737"></ellipse>
                        <ellipse cx="39.7594604" cy="19.5066111" rx="1.57333333" ry="1.57894737"></ellipse>
                        <ellipse cx="46.61" cy="19.5066111" rx="1.57333333" ry="1.57894737"></ellipse>
                        <ellipse cx="53.4605396" cy="19.5066111" rx="1.57333333" ry="1.57894737"></ellipse>
                        <ellipse cx="46.61" cy="43.322272" rx="1.57333333" ry="1.57894737"></ellipse>
                        <ellipse cx="56.8858333" cy="37.368405" rx="1.57333333" ry="1.57894737"></ellipse>
                        <ellipse cx="53.4605396" cy="43.322272" rx="1.57333333" ry="1.57894737"></ellipse>
                        <ellipse cx="2.08137289" cy="13.5526476" rx="1.57333333" ry="1.57894737"></ellipse>
                        <ellipse cx="29.4836271" cy="1.64481718" rx="1.57328535" ry="1.57889921"></ellipse>
                        <ellipse cx="36.3341667" cy="1.64481718" rx="1.57328535" ry="1.57889921"></ellipse>
                        <ellipse cx="12.3572062" cy="7.59873237" rx="1.57333333" ry="1.57894737"></ellipse>
                        <ellipse cx="19.2077938" cy="7.59873237" rx="1.57333333" ry="1.57894737"></ellipse>
                        <ellipse cx="26.0583333" cy="7.59873237" rx="1.57333333" ry="1.57894737"></ellipse>
                        <ellipse cx="32.9088729" cy="7.59873237" rx="1.57333333" ry="1.57894737"></ellipse>
                        <ellipse cx="39.7594604" cy="7.59873237" rx="1.57333333" ry="1.57894737"></ellipse>
                        <ellipse cx="53.4605396" cy="7.59873237" rx="1.57333333" ry="1.57894737"></ellipse>
                        <ellipse cx="8.93196044" cy="13.5526476" rx="1.57333333" ry="1.57894737"></ellipse>
                        <ellipse cx="15.8480396" cy="13.5526476" rx="1.57333333" ry="1.57894737"></ellipse>
                        <ellipse cx="22.6330396" cy="13.5526476" rx="1.57333333" ry="1.57894737"></ellipse>
                        <ellipse cx="29.4180396" cy="13.5526476" rx="1.57333333" ry="1.57894737"></ellipse>
                        <ellipse cx="36.2030396" cy="13.5526476" rx="1.57333333" ry="1.57894737"></ellipse>
                        <ellipse cx="42.9880396" cy="13.5526476" rx="1.57333333" ry="1.57894737"></ellipse>
                        <ellipse cx="49.7730396" cy="13.5526476" rx="1.57333333" ry="1.57894737"></ellipse>
                        <ellipse cx="56.5580396" cy="13.5526476" rx="1.57333333" ry="1.57894737"></ellipse>
                        <ellipse cx="12.3572062" cy="19.5066111" rx="1.57333333" ry="1.57894737"></ellipse>
                        <ellipse cx="5.50666667" cy="31.4143933" rx="1.57333333" ry="1.57894737"></ellipse>
                        <ellipse cx="19.2077938" cy="31.4143933" rx="1.57333333" ry="1.57894737"></ellipse>
                        <ellipse cx="12.3572062" cy="31.4143933" rx="1.57333333" ry="1.57894737"></ellipse>
                    </g>
                </g>
            </g>
        </g>
    </g>
</svg>