<?xml version="1.0" encoding="utf-8"?>
<!-- Generator: Adobe Illustrator 23.0.2, SVG Export Plug-In . SVG Version: 6.00 Build 0)  -->
<svg version="1.1" id="Calque_1" xmlns="http://www.w3.org/2000/svg" xmlns:xlink="http://www.w3.org/1999/xlink" x="0px" y="0px"
	 viewBox="0 0 49 50" style="enable-background:new 0 0 49 50;" xml:space="preserve">
<style type="text/css">
	.st0{fill-rule:evenodd;clip-rule:evenodd;}
</style>
<title>Group 11</title>
<desc>Created with Sketch.</desc>
<g>
	<path class="st0" d="M31.4,10.4V12L29,14.3c-0.2,0.2-0.3,0.6-0.2,0.9l0.8,2.4L28.8,20c-0.2,0.5,0.1,1,0.6,1.1c0.1,0,0.2,0,0.3,0
		c0.4,0,0.7-0.2,0.8-0.6l0.9-2.6c0.1-0.2,0.1-0.4,0-0.6l-0.7-2.1l0.9-0.9c0.5,2.9,3,5.1,6,5.1c3,0,5.5-2.2,6-5.1l0.9,0.9l-0.7,2.1
		c-0.1,0.2-0.1,0.4,0,0.6l0.9,2.6c0.1,0.4,0.5,0.6,0.8,0.6c0.1,0,0.2,0,0.3,0c0.5-0.2,0.7-0.7,0.6-1.1l-0.8-2.4l0.8-2.4
		c0.1-0.3,0-0.7-0.2-0.9L43.6,12v-1.6l3,1.8c0.1,0.1,0.3,0.1,0.4,0.1c0.3,0,0.6-0.2,0.8-0.4c0.2-0.4,0.1-1-0.3-1.2l-4-2.4V7.9
		c0-0.5-0.4-0.9-0.9-0.9V6.6c0-0.2,0-0.4-0.1-0.7l2.1-0.7c0.4-0.1,0.6-0.5,0.6-0.8V1.8h0.9c0.5,0,0.9-0.4,0.9-0.9
		c0-0.5-0.4-0.9-0.9-0.9h-1.8c-0.5,0-0.9,0.4-0.9,0.9v2.9l-1.5,0.5c-0.8-1.5-2.4-2.5-4.2-2.5h-0.9c-1.8,0-3.4,1-4.2,2.5l-1.5-0.5
		V0.9C31.4,0.4,31,0,30.5,0h-1.8c-0.5,0-0.9,0.4-0.9,0.9c0,0.5,0.4,0.9,0.9,0.9h0.9v2.6c0,0.4,0.2,0.7,0.6,0.8l2.1,0.7
		c0,0.2-0.1,0.4-0.1,0.7V7c-0.5,0-0.9,0.4-0.9,0.9v0.4l-4,2.4c-0.4,0.2-0.5,0.8-0.3,1.2c0.2,0.3,0.5,0.4,0.8,0.4
		c0.2,0,0.3,0,0.4-0.1L31.4,10.4z M37.5,17.6c-2.4,0-4.4-2-4.4-4.4v-0.9c0,0,0,0,0,0V8.8h8.8v3.5c0,0,0,0,0,0v0.9
		C41.9,15.7,39.9,17.6,37.5,17.6z M34,6.6c0-1.7,1.4-3.1,3.1-3.1h0.9c1.7,0,3.1,1.4,3.1,3.1V7h-7V6.6z"/>
	<path class="st0" d="M20.6,10.7l-4-2.4V7.9c0-0.5-0.4-0.9-0.9-0.9V6.6c0-0.2,0-0.4-0.1-0.7l2.1-0.7c0.4-0.1,0.6-0.5,0.6-0.8V1.8
		h0.9c0.5,0,0.9-0.4,0.9-0.9c0-0.5-0.4-0.9-0.9-0.9h-1.8c-0.5,0-0.9,0.4-0.9,0.9v2.9l-1.5,0.5c-0.8-1.5-2.4-2.5-4.2-2.5h-0.9
		c-1.8,0-3.4,1-4.2,2.5L4.4,3.8V0.9C4.4,0.4,4,0,3.5,0H1.8C1.3,0,0.9,0.4,0.9,0.9c0,0.5,0.4,0.9,0.9,0.9h0.9v2.6
		c0,0.4,0.2,0.7,0.6,0.8l2.1,0.7c0,0.2-0.1,0.4-0.1,0.7V7C4.8,7,4.4,7.4,4.4,7.9v0.4l-4,2.4c-0.4,0.2-0.5,0.8-0.3,1.2
		c0.2,0.3,0.5,0.4,0.8,0.4c0.2,0,0.3,0,0.4-0.1l3-1.8V12L2,14.3c-0.2,0.2-0.3,0.6-0.2,0.9l0.8,2.4L1.8,20c-0.2,0.5,0.1,1,0.6,1.1
		c0.1,0,0.2,0,0.3,0c0.4,0,0.7-0.2,0.8-0.6l0.9-2.6c0.1-0.2,0.1-0.4,0-0.6l-0.7-2.1l0.9-0.9c0.5,2.9,3,5.1,6,5.1c3,0,5.5-2.2,6-5.1
		l0.9,0.9l-0.7,2.1c-0.1,0.2-0.1,0.4,0,0.6l0.9,2.6c0.1,0.4,0.5,0.6,0.8,0.6c0.1,0,0.2,0,0.3,0c0.5-0.2,0.7-0.7,0.6-1.1l-0.8-2.4
		l0.8-2.4c0.1-0.3,0-0.7-0.2-0.9L16.6,12v-1.6l3,1.8c0.1,0.1,0.3,0.1,0.4,0.1c0.3,0,0.6-0.2,0.8-0.4C21.1,11.5,21,10.9,20.6,10.7z
		 M7,6.6c0-1.7,1.4-3.1,3.1-3.1h0.9c1.7,0,3.1,1.4,3.1,3.1V7H7V6.6z M10.5,17.6c-2.4,0-4.4-2-4.4-4.4v-0.9c0,0,0,0,0,0V8.8h8.8v3.5
		c0,0,0,0,0,0v0.9C14.9,15.7,12.9,17.6,10.5,17.6z"/>
	<path class="st0" d="M20.6,38.7l-4-2.4v-0.4c0-0.5-0.4-0.9-0.9-0.9v-0.4c0-0.2,0-0.4-0.1-0.7l2.1-0.7c0.4-0.1,0.6-0.5,0.6-0.8v-2.6
		h0.9c0.5,0,0.9-0.4,0.9-0.9c0-0.5-0.4-0.9-0.9-0.9h-1.8c-0.5,0-0.9,0.4-0.9,0.9v2.9l-1.5,0.5c-0.8-1.5-2.4-2.5-4.2-2.5h-0.9
		c-1.8,0-3.4,1-4.2,2.5l-1.5-0.5v-2.9C4.4,28.4,4,28,3.5,28H1.8c-0.5,0-0.9,0.4-0.9,0.9c0,0.5,0.4,0.9,0.9,0.9h0.9v2.6
		c0,0.4,0.2,0.7,0.6,0.8l2.1,0.7c0,0.2-0.1,0.4-0.1,0.7V35c-0.5,0-0.9,0.4-0.9,0.9v0.4l-4,2.4c-0.4,0.2-0.5,0.8-0.3,1.2
		c0.2,0.3,0.5,0.4,0.8,0.4c0.2,0,0.3,0,0.4-0.1l3-1.8V40L2,42.3c-0.2,0.2-0.3,0.6-0.2,0.9l0.8,2.4L1.8,48c-0.2,0.5,0.1,1,0.6,1.1
		c0.1,0,0.2,0,0.3,0c0.4,0,0.7-0.2,0.8-0.6l0.9-2.6c0.1-0.2,0.1-0.4,0-0.6l-0.7-2.1l0.9-0.9c0.5,2.9,3,5.1,6,5.1c3,0,5.5-2.2,6-5.1
		l0.9,0.9l-0.7,2.1c-0.1,0.2-0.1,0.4,0,0.6l0.9,2.6c0.1,0.4,0.5,0.6,0.8,0.6c0.1,0,0.2,0,0.3,0c0.5-0.2,0.7-0.7,0.6-1.1l-0.8-2.4
		l0.8-2.4c0.1-0.3,0-0.7-0.2-0.9L16.6,40v-1.6l3,1.8c0.1,0.1,0.3,0.1,0.4,0.1c0.3,0,0.6-0.2,0.8-0.4C21.1,39.5,21,38.9,20.6,38.7z
		 M7,34.6c0-1.7,1.4-3.1,3.1-3.1h0.9c1.7,0,3.1,1.4,3.1,3.1V35H7V34.6z M10.5,45.6c-2.4,0-4.4-2-4.4-4.4v-0.9c0,0,0,0,0,0v-3.5h8.8
		v3.5c0,0,0,0,0,0v0.9C14.9,43.7,12.9,45.6,10.5,45.6z"/>
	<path class="st0" d="M48.6,38.7l-4-2.4v-0.4c0-0.5-0.4-0.9-0.9-0.9v-0.4c0-0.2,0-0.4-0.1-0.7l2.1-0.7c0.4-0.1,0.6-0.5,0.6-0.8v-2.6
		h0.9c0.5,0,0.9-0.4,0.9-0.9c0-0.5-0.4-0.9-0.9-0.9h-1.8c-0.5,0-0.9,0.4-0.9,0.9v2.9l-1.5,0.5c-0.8-1.5-2.4-2.5-4.2-2.5h-0.9
		c-1.8,0-3.4,1-4.2,2.5l-1.5-0.5v-2.9c0-0.5-0.4-0.9-0.9-0.9h-1.8c-0.5,0-0.9,0.4-0.9,0.9c0,0.5,0.4,0.9,0.9,0.9h0.9v2.6
		c0,0.4,0.2,0.7,0.6,0.8l2.1,0.7c0,0.2-0.1,0.4-0.1,0.7V35c-0.5,0-0.9,0.4-0.9,0.9v0.4l-4,2.4c-0.4,0.2-0.5,0.8-0.3,1.2
		c0.2,0.3,0.5,0.4,0.8,0.4c0.2,0,0.3,0,0.4-0.1l3-1.8V40L30,42.3c-0.2,0.2-0.3,0.6-0.2,0.9l0.8,2.4L29.8,48c-0.2,0.5,0.1,1,0.6,1.1
		c0.1,0,0.2,0,0.3,0c0.4,0,0.7-0.2,0.8-0.6l0.9-2.6c0.1-0.2,0.1-0.4,0-0.6l-0.7-2.1l0.9-0.9c0.5,2.9,3,5.1,6,5.1c3,0,5.5-2.2,6-5.1
		l0.9,0.9l-0.7,2.1c-0.1,0.2-0.1,0.4,0,0.6l0.9,2.6c0.1,0.4,0.5,0.6,0.8,0.6c0.1,0,0.2,0,0.3,0c0.5-0.2,0.7-0.7,0.6-1.1l-0.8-2.4
		l0.8-2.4c0.1-0.3,0-0.7-0.2-0.9L44.6,40v-1.6l3,1.8c0.1,0.1,0.3,0.1,0.4,0.1c0.3,0,0.6-0.2,0.8-0.4C49.1,39.5,49,38.9,48.6,38.7z
		 M35,34.6c0-1.7,1.4-3.1,3.1-3.1h0.9c1.7,0,3.1,1.4,3.1,3.1V35h-7V34.6z M38.5,45.6c-2.4,0-4.4-2-4.4-4.4v-0.9c0,0,0,0,0,0v-3.5
		h8.8v3.5c0,0,0,0,0,0v0.9C42.9,43.7,40.9,45.6,38.5,45.6z"/>
</g>
</svg>
