<?xml version="1.0" encoding="utf-8"?>
<!-- Generator: Adobe Illustrator 23.0.2, SVG Export Plug-In . SVG Version: 6.00 Build 0)  -->
<svg version="1.1" id="Calque_1" xmlns="http://www.w3.org/2000/svg" xmlns:xlink="http://www.w3.org/1999/xlink" x="0px" y="0px"
	 viewBox="0 0 21 32" style="enable-background:new 0 0 21 32;" xml:space="preserve">
<style type="text/css">
	.st0{fill-rule:evenodd;clip-rule:evenodd;}
</style>
<title>ICONS / IMPACTS / eau</title>
<desc>Created with Sketch.</desc>
<g id="Page-1">
	<g id="impacts" transform="translate(-816.000000, -575.000000)">
		<g id="Group-8" transform="translate(816.000000, 575.000000)">
			<g>
				<path id="Shape" class="st0" d="M10.4,0.6c-0.3,0-0.7,0.3-0.8,0.6C7.4,5,5.3,8.9,3.2,12.8c-0.8,1.8-2.2,4.4-2.6,7.5
					c-0.8,6.4,4.2,11.2,9.8,11.2c0,0,0,0,0,0c5.6,0.1,10.7-4.7,9.8-11.2c-0.4-3-1.7-5.7-2.6-7.5C15.7,8.9,13.6,5,11.5,1.1
					C11.3,0.7,10.8,0.5,10.4,0.6L10.4,0.6z M10.5,4c1.8,3.3,3.6,6.6,5.3,9.8c0.8,1.8,2,4.2,2.3,6.8c0.7,5.2-3.3,8.7-7.7,8.7
					c0,0,0,0,0,0c-4.4,0.1-8.3-3.5-7.7-8.7c0.3-2.5,1.5-4.9,2.3-6.8C7,10.5,8.7,7.2,10.5,4L10.5,4z M13.6,16c-0.7,0.1-1.2,1-0.9,1.6
					c1.2,2.2,1.2,3.7,0.9,4.7s-0.8,1.5-1,1.6c-0.5,0.3-0.7,1.1-0.4,1.6c0.3,0.5,1.1,0.7,1.6,0.3c0.7-0.4,1.6-1.4,2-2.9
					c0.4-1.6,0.2-3.7-1.1-6.2C14.5,16.2,14,15.9,13.6,16L13.6,16z"/>
			</g>
		</g>
	</g>
</g>
</svg>
