<?xml version="1.0" encoding="UTF-8"?>
<svg width="67px" height="52px" viewBox="0 0 67 52" version="1.1" xmlns="http://www.w3.org/2000/svg" xmlns:xlink="http://www.w3.org/1999/xlink">
    <!-- Generator: Sketch 53.1 (72631) - https://sketchapp.com -->
    <title>impact-empreinte</title>
    <desc>Created with Sketch.</desc>
    <g id="Page-1" stroke="none" stroke-width="1" fill="none" fill-rule="evenodd">
        <g id="impacts" transform="translate(-499.000000, -627.000000)" fill="#000000">
            <g id="impact-empreinte" transform="translate(499.000000, 627.000000)">
                <path d="M42.2642,4.5513 C44.7782,5.4063 45.7732,6.5513 45.7172,8.6843 C45.5412,9.0913 45.3772,9.5293 45.2262,10.0033 C42.4852,8.9783 41.7062,7.5433 42.2642,4.5513 L42.2642,4.5513 Z M52.8272,6.9483 C51.8322,9.8753 50.1242,10.8703 47.2312,10.4083 C47.2972,10.0053 47.6962,9.1323 47.6962,9.1323 C48.7032,7.0163 50.1382,6.4463 52.8272,6.9483 L52.8272,6.9483 Z M13.3712,5.4273 C16.7592,4.7593 18.5802,5.4603 19.8352,8.1043 C19.8352,8.1043 20.2722,9.2803 20.3682,9.8263 C16.6892,10.4543 14.6032,9.1623 13.3712,5.4273 L13.3712,5.4273 Z M26.1992,2.5033 C26.9492,6.3093 25.9732,8.1383 22.4552,9.4073 C22.2562,8.7623 21.9252,7.9283 21.8012,7.6333 C21.7312,4.9693 23.0222,3.5513 26.1992,2.5033 L26.1992,2.5033 Z M51.7972,16.9243 C50.2852,16.9243 48.7892,17.4323 47.5872,18.3563 L46.1762,19.4423 C45.5712,17.4353 45.9332,13.8603 46.4512,12.4853 L46.5702,12.1183 L47.1302,12.2433 C47.7452,12.3433 48.3322,12.4073 48.8682,12.4073 C52.1012,12.4073 53.9342,10.5653 55.0642,6.4713 L55.3362,5.4833 L54.3422,5.2353 C51.1262,4.4323 48.9022,4.7013 47.3232,6.2273 C46.5852,4.3603 44.7972,3.1463 41.7872,2.3153 L40.7992,2.0423 L40.5512,3.0363 C39.3682,7.7693 40.5032,10.3593 44.5682,11.8913 C43.8932,13.8043 43.6282,17.1293 44.1232,19.4533 L40.8702,17.7283 C39.8792,17.2023 38.7612,16.9243 37.6362,16.9243 L29.5562,16.9243 C27.6152,16.9243 25.6912,17.4833 23.9412,18.5283 C24.1432,15.9873 23.7912,13.0403 23.1172,11.2843 C27.9362,9.5203 29.2902,6.5213 27.9092,0.9943 L27.6602,0.0003 L26.6732,0.2733 C23.0522,1.2733 20.9652,2.7553 20.1792,5.0663 C18.3432,3.1223 15.7182,2.7553 11.8622,3.7173 L10.8682,3.9663 L11.1402,4.9533 C12.4492,9.6873 14.5682,11.8173 18.3052,11.8173 C18.9682,11.8173 19.6892,11.7423 20.4592,11.6113 L21.0292,11.5123 L21.2252,11.8803 C21.8242,13.2793 22.2792,16.9523 21.8162,19.5113 C19.7192,17.8403 17.2742,16.9243 14.7972,16.9243 L0.0002,16.9243 L0.0002,18.9243 L14.7972,18.9243 C17.2102,18.9243 19.5192,19.9413 21.4752,21.8653 L22.1772,22.5553 L22.8782,21.8653 C22.9732,21.7713 23.0732,21.6903 23.1702,21.6013 L23.2762,21.6473 C23.3052,21.5803 23.3272,21.5043 23.3542,21.4343 C25.2032,19.7963 27.3332,18.9243 29.5562,18.9243 L37.6362,18.9243 C38.4352,18.9243 39.2292,19.1213 39.9332,19.4953 L45.5302,22.4633 L48.8062,19.9423 C49.6602,19.2853 50.7232,18.9243 51.7972,18.9243 L63.4302,18.9243 L63.4302,16.9243 L51.7972,16.9243 Z" id="Fill-1"></path>
                <path d="M52.9702,42.3086 C53.1122,42.4276 53.2942,42.4846 53.4802,42.4656 C53.6612,42.4486 53.8312,42.3576 53.9492,42.2136 L58.6062,36.4896 C58.8452,36.1936 58.8012,35.7566 58.5042,35.5166 C58.2072,35.2756 57.7742,35.3206 57.5322,35.6176 L53.3182,40.7976 L50.5722,38.5096 C50.2782,38.2646 49.8412,38.3036 49.5982,38.5976 C49.3532,38.8906 49.3932,39.3266 49.6862,39.5706 L52.9702,42.3086 Z" id="Fill-3"></path>
                <path d="M46.2505,38.916 C46.2505,34.588 49.7715,31.067 54.0985,31.067 C58.4265,31.067 61.9465,34.588 61.9465,38.916 C61.9465,43.243 58.4265,46.763 54.0985,46.763 C49.7715,46.763 46.2505,43.243 46.2505,38.916 M54.0985,48.297 C59.2715,48.297 63.4805,44.089 63.4805,38.916 C63.4805,33.743 59.2715,29.534 54.0985,29.534 C48.9255,29.534 44.7175,33.743 44.7175,38.916 C44.7175,44.089 48.9255,48.297 54.0985,48.297" id="Fill-5"></path>
                <path d="M43.0269,42.8613 L43.5799,40.4993 C43.6749,40.0893 43.7239,39.5953 43.7249,39.0323 C43.7239,38.4383 43.6679,37.8953 43.5629,37.4613 L42.9779,35.1013 C42.9629,35.0423 42.9549,34.9743 42.9559,34.8993 C42.9549,34.7083 43.0119,34.4843 43.1109,34.2983 C43.2049,34.1183 43.3409,33.9613 43.4779,33.8783 L45.5419,32.5973 C45.9059,32.3713 46.3129,32.0353 46.7179,31.6253 C47.1219,31.2173 47.4529,30.8063 47.6749,30.4353 L48.9299,28.3583 C49.0139,28.2173 49.1729,28.0783 49.3549,27.9813 C49.5419,27.8823 49.7639,27.8223 49.9549,27.8223 C50.0229,27.8143 50.0879,27.8303 50.1519,27.8433 L52.5129,28.3963 C52.9219,28.4923 53.4149,28.5423 53.9789,28.5433 C54.5729,28.5423 55.1169,28.4853 55.5539,28.3783 L57.9089,27.7953 C58.1339,27.7393 58.4559,27.7913 58.7149,27.9273 C58.8959,28.0223 59.0529,28.1583 59.1349,28.2963 L60.4159,30.3583 C60.6459,30.7263 60.9819,31.1323 61.3859,31.5343 C61.7969,31.9373 62.2079,32.2683 62.5769,32.4923 L64.6559,33.7453 C64.7939,33.8293 64.9339,33.9873 65.0309,34.1713 C65.1319,34.3593 65.1919,34.5853 65.1899,34.7753 C65.1899,34.8423 65.1829,34.9083 65.1699,34.9683 L64.6169,37.3303 C64.5209,37.7373 64.4699,38.2443 64.4699,38.7973 C64.4709,39.3933 64.5279,39.9373 64.6339,40.3703 L65.2169,42.7273 C65.2329,42.7883 65.2409,42.8553 65.2409,42.9293 C65.2419,43.1223 65.1849,43.3403 65.0859,43.5303 L65.0859,43.5313 C64.9919,43.7113 64.8549,43.8693 64.7169,43.9533 L62.6549,45.2313 C62.2859,45.4623 61.8799,45.7993 61.4789,46.2043 C61.0739,46.6163 60.7429,47.0263 60.5219,47.3933 L59.2659,49.4723 C59.1839,49.6103 59.0259,49.7503 58.8419,49.8473 C58.6559,49.9473 58.4319,50.0073 58.2419,50.0073 C58.1769,49.9993 58.1039,50.0003 58.0459,49.9863 L55.6809,49.4323 C55.2709,49.3383 54.7779,49.2893 54.2149,49.2883 C53.6169,49.2893 53.0739,49.3453 52.6429,49.4513 L50.2869,50.0343 C50.2249,50.0493 50.1479,50.0673 50.0789,50.0573 C49.8869,50.0573 49.6709,50.0013 49.4819,49.9023 C49.3019,49.8093 49.1439,49.6723 49.0599,49.5353 L47.7819,47.4713 C47.5509,47.1023 47.2139,46.6963 46.8089,46.2963 C46.4009,45.8913 45.9899,45.5603 45.6199,45.3373 L43.5419,44.0833 C43.4019,44.0003 43.2619,43.8413 43.1659,43.6583 C43.0649,43.4693 43.0049,43.2443 43.0059,43.0533 C43.0059,42.9823 43.0119,42.9213 43.0269,42.8613 M66.7099,42.3733 L66.1229,40.0003 C66.0479,39.7073 66.0039,39.2473 66.0049,38.7973 C66.0039,38.3793 66.0429,37.9623 66.1099,37.6803 L66.6629,35.3173 C66.7039,35.1413 66.7239,34.9603 66.7239,34.7753 C66.7229,34.3233 66.6059,33.8653 66.3849,33.4513 C66.1559,33.0203 65.8329,32.6693 65.4479,32.4333 L63.3689,31.1793 C63.1179,31.0293 62.7789,30.7553 62.4649,30.4453 C62.1599,30.1433 61.8739,29.8003 61.7179,29.5493 L60.4389,27.4883 C60.2049,27.1103 59.8529,26.7923 59.4229,26.5693 C58.8269,26.2573 58.1349,26.1623 57.5389,26.3083 L55.1839,26.8913 C54.8889,26.9653 54.4339,27.0093 53.9929,27.0093 L53.9649,27.0093 C53.5519,27.0093 53.1419,26.9703 52.8639,26.9053 L50.5029,26.3513 C49.9109,26.2153 49.2249,26.3163 48.6349,26.6293 C48.2039,26.8583 47.8519,27.1823 47.6179,27.5673 L46.3649,29.6443 C46.2099,29.9023 45.9339,30.2403 45.6279,30.5493 C45.3279,30.8543 44.9859,31.1403 44.7349,31.2953 L42.6709,32.5753 C42.2949,32.8103 41.9759,33.1623 41.7529,33.5913 C41.5379,34.0053 41.4229,34.4573 41.4229,34.9023 C41.4229,35.1003 41.4469,35.2933 41.4929,35.4753 L42.0749,37.8293 C42.1489,38.1323 42.1949,38.5923 42.1939,39.0343 C42.1949,39.4563 42.1559,39.8733 42.0889,40.1513 L41.5359,42.5123 C41.4949,42.6873 41.4729,42.8693 41.4729,43.0553 C41.4739,43.5073 41.5909,43.9653 41.8129,44.3803 C42.0419,44.8123 42.3659,45.1643 42.7509,45.3973 L44.8289,46.6503 C45.0819,46.8023 45.4279,47.0853 45.7329,47.3863 C46.0399,47.6883 46.3259,48.0313 46.4789,48.2813 L47.7579,50.3443 C47.9939,50.7193 48.3439,51.0373 48.7729,51.2623 C49.1869,51.4773 49.6399,51.5903 50.0849,51.5913 C50.2809,51.5913 50.4729,51.5683 50.6569,51.5233 L53.0129,50.9403 C53.3109,50.8663 53.7659,50.8213 54.2049,50.8213 L54.2329,50.8213 C54.6489,50.8213 55.0589,50.8603 55.3339,50.9253 L57.6959,51.4793 C58.2999,51.6213 58.9729,51.5153 59.5629,51.2023 C59.9949,50.9733 60.3469,50.6493 60.5819,50.2633 L61.8339,48.1863 C61.9859,47.9343 62.2679,47.5883 62.5689,47.2823 C62.8729,46.9733 63.2149,46.6883 63.4639,46.5363 L65.5269,45.2573 C65.9039,45.0203 66.2209,44.6703 66.4449,44.2413 C66.6589,43.8303 66.7729,43.3773 66.7749,42.9293 C66.7749,42.7423 66.7159,42.4103 66.7099,42.3733" id="Fill-7"></path>
                <path d="M25.8047,32.4238 C25.8047,31.3898 24.9637,30.5488 23.9297,30.5488 C22.8957,30.5488 22.0547,31.3898 22.0547,32.4238 C22.0547,33.4578 22.8957,34.2988 23.9297,34.2988 C24.9637,34.2988 25.8047,33.4578 25.8047,32.4238" id="Fill-9"></path>
                <path d="M34.4995,29.2988 C35.5335,29.2988 36.3745,28.4578 36.3745,27.4238 C36.3745,26.3898 35.5335,25.5488 34.4995,25.5488 C33.4655,25.5488 32.6245,26.3898 32.6245,27.4238 C32.6245,28.4578 33.4655,29.2988 34.4995,29.2988" id="Fill-11"></path>
                <path d="M24.9297,46.5488 C23.8957,46.5488 23.0547,47.3898 23.0547,48.4238 C23.0547,49.4578 23.8957,50.2988 24.9297,50.2988 C25.9637,50.2988 26.8047,49.4578 26.8047,48.4238 C26.8047,47.3898 25.9637,46.5488 24.9297,46.5488" id="Fill-13"></path>
                <path d="M6.8047,32.4238 C6.8047,31.3898 5.9637,30.5488 4.9297,30.5488 C3.8957,30.5488 3.0547,31.3898 3.0547,32.4238 C3.0547,33.4578 3.8957,34.2988 4.9297,34.2988 C5.9637,34.2988 6.8047,33.4578 6.8047,32.4238" id="Fill-15"></path>
                <path d="M13.9297,25.5488 C12.8957,25.5488 12.0547,26.3898 12.0547,27.4238 C12.0547,28.4578 12.8957,29.2988 13.9297,29.2988 C14.9637,29.2988 15.8047,28.4578 15.8047,27.4238 C15.8047,26.3898 14.9637,25.5488 13.9297,25.5488" id="Fill-17"></path>
                <path d="M13.9297,37.5488 C12.8957,37.5488 12.0547,38.3898 12.0547,39.4238 C12.0547,40.4578 12.8957,41.2988 13.9297,41.2988 C14.9637,41.2988 15.8047,40.4578 15.8047,39.4238 C15.8047,38.3898 14.9637,37.5488 13.9297,37.5488" id="Fill-19"></path>
                <path d="M5.9297,44.5488 C4.8957,44.5488 4.0547,45.3898 4.0547,46.4238 C4.0547,47.4578 4.8957,48.2988 5.9297,48.2988 C6.9637,48.2988 7.8047,47.4578 7.8047,46.4238 C7.8047,45.3898 6.9637,44.5488 5.9297,44.5488" id="Fill-21"></path>
                <path d="M34.9292,37.5488 C33.8952,37.5488 33.0542,38.3898 33.0542,39.4238 C33.0542,40.4578 33.8952,41.2988 34.9292,41.2988 C35.9632,41.2988 36.8042,40.4578 36.8042,39.4238 C36.8042,38.3898 35.9632,37.5488 34.9292,37.5488" id="Fill-23"></path>
            </g>
        </g>
    </g>
</svg>