<?xml version="1.0" encoding="utf-8"?>
<!-- Generator: Adobe Illustrator 23.0.2, SVG Export Plug-In . SVG Version: 6.00 Build 0)  -->
<svg version="1.1" id="Calque_1" xmlns="http://www.w3.org/2000/svg" xmlns:xlink="http://www.w3.org/1999/xlink" x="0px" y="0px"
	 viewBox="0 0 81 50" style="enable-background:new 0 0 81 50;" xml:space="preserve">
<style type="text/css">
	.st0{fill-rule:evenodd;clip-rule:evenodd;}
</style>
<title>Group 23</title>
<desc>Created with Sketch.</desc>
<g>
	<path class="st0" d="M67.6,18.3c-3.5-4.2-6.2-1.5-1.7,1.7c-4.3,3.4-1.5,6.1,1.7,1.7c3.3,4.2,6,1.5,1.7-1.7
		C73.6,16.6,70.9,13.9,67.6,18.3z"/>
	<path class="st0" d="M37.1,44.3c-3.5-4.2-6.2-1.5-1.7,1.7c-4.3,3.4-1.5,6.1,1.7,1.7c3.3,4.2,6,1.5,1.7-1.7
		C43.1,42.6,40.4,39.9,37.1,44.3z"/>
	<path class="st0" d="M17.1,17.3c-3.5-4.2-6.2-1.5-1.7,1.7c-4.3,3.4-1.5,6.1,1.7,1.7c3.3,4.2,6,1.5,1.7-1.7
		C23.1,15.6,20.4,12.9,17.1,17.3z"/>
	<path class="st0" d="M22.6,29.4c-0.6,0-1,0.5-1,1c0,0.6,0.5,1,1,1c0.6,0,1-0.5,1-1C23.6,29.8,23.1,29.4,22.6,29.4z"/>
	<path class="st0" d="M24.8,25.6c-0.6,0-1,0.5-1,1s0.5,1,1,1c0.6,0,1-0.5,1-1S25.4,25.6,24.8,25.6z"/>
	<path class="st0" d="M27,29.4c-0.6,0-1,0.5-1,1c0,0.6,0.5,1,1,1s1-0.5,1-1C28,29.8,27.6,29.4,27,29.4z"/>
	<path class="st0" d="M31.4,29.4c-0.6,0-1,0.5-1,1c0,0.6,0.5,1,1,1c0.6,0,1-0.5,1-1C32.4,29.8,32,29.4,31.4,29.4z"/>
	<path class="st0" d="M35.8,31.4c0.6,0,1-0.5,1-1c0-0.6-0.5-1-1-1s-1,0.5-1,1C34.8,31,35.3,31.4,35.8,31.4z"/>
	<path class="st0" d="M40.2,29.4c-0.6,0-1,0.5-1,1c0,0.6,0.5,1,1,1c0.6,0,1-0.5,1-1C41.3,29.8,40.8,29.4,40.2,29.4z"/>
	<path class="st0" d="M44.6,29.4c-0.6,0-1,0.5-1,1c0,0.6,0.5,1,1,1s1-0.5,1-1C45.7,29.8,45.2,29.4,44.6,29.4z"/>
	<path class="st0" d="M40.2,37.1c-0.6,0-1,0.5-1,1s0.5,1,1,1c0.6,0,1-0.5,1-1S40.8,37.1,40.2,37.1z"/>
	<path class="st0" d="M44.6,37.1c-0.6,0-1,0.5-1,1s0.5,1,1,1s1-0.5,1-1S45.2,37.1,44.6,37.1z"/>
	<path class="st0" d="M53.5,29.4c-0.6,0-1,0.5-1,1c0,0.6,0.5,1,1,1s1-0.5,1-1C54.5,29.8,54,29.4,53.5,29.4z"/>
	<path class="st0" d="M57.9,29.4c-0.6,0-1,0.5-1,1c0,0.6,0.5,1,1,1c0.6,0,1-0.5,1-1C58.9,29.8,58.4,29.4,57.9,29.4z"/>
	<path class="st0" d="M42.4,33.2c-0.6,0-1,0.5-1,1c0,0.6,0.5,1,1,1s1-0.5,1-1C43.5,33.7,43,33.2,42.4,33.2z"/>
	<path class="st0" d="M46.9,33.2c-0.6,0-1,0.5-1,1c0,0.6,0.5,1,1,1s1-0.5,1-1C47.9,33.7,47.4,33.2,46.9,33.2z"/>
	<path class="st0" d="M51.3,33.2c-0.6,0-1,0.5-1,1c0,0.6,0.5,1,1,1s1-0.5,1-1C52.3,33.7,51.8,33.2,51.3,33.2z"/>
	<path class="st0" d="M55.7,33.2c-0.6,0-1,0.5-1,1c0,0.6,0.5,1,1,1c0.6,0,1-0.5,1-1C56.7,33.7,56.2,33.2,55.7,33.2z"/>
	<path class="st0" d="M49.1,37.1c-0.6,0-1,0.5-1,1s0.5,1,1,1c0.6,0,1-0.5,1-1S49.6,37.1,49.1,37.1z"/>
	<path class="st0" d="M53.5,37.1c-0.6,0-1,0.5-1,1s0.5,1,1,1s1-0.5,1-1S54,37.1,53.5,37.1z"/>
	<path class="st0" d="M33.6,27.6c0.6,0,1-0.5,1-1s-0.5-1-1-1c-0.6,0-1,0.5-1,1S33.1,27.6,33.6,27.6z"/>
	<path class="st0" d="M38,27.6c0.6,0,1-0.5,1-1s-0.5-1-1-1c-0.6,0-1,0.5-1,1S37.5,27.6,38,27.6z"/>
	<ellipse class="st0" cx="42.4" cy="26.6" rx="1" ry="1"/>
	<path class="st0" d="M46.9,25.6c-0.6,0-1,0.5-1,1s0.5,1,1,1s1-0.5,1-1S47.4,25.6,46.9,25.6z"/>
	<path class="st0" d="M51.3,25.6c-0.6,0-1,0.5-1,1s0.5,1,1,1s1-0.5,1-1S51.8,25.6,51.3,25.6z"/>
	<path class="st0" d="M55.7,25.6c-0.6,0-1,0.5-1,1s0.5,1,1,1c0.6,0,1-0.5,1-1S56.2,25.6,55.7,25.6z"/>
	<path class="st0" d="M51.3,40.9c-0.6,0-1,0.5-1,1c0,0.6,0.5,1,1,1s1-0.5,1-1C52.3,41.4,51.8,40.9,51.3,40.9z"/>
	<path class="st0" d="M57.9,37.1c-0.6,0-1,0.5-1,1s0.5,1,1,1c0.6,0,1-0.5,1-1S58.4,37.1,57.9,37.1z"/>
	<path class="st0" d="M55.7,40.9c-0.6,0-1,0.5-1,1c0,0.6,0.5,1,1,1c0.6,0,1-0.5,1-1C56.7,41.4,56.2,40.9,55.7,40.9z"/>
	<path class="st0" d="M22.6,21.7c-0.6,0-1,0.5-1,1c0,0.6,0.5,1,1,1c0.6,0,1-0.5,1-1C23.6,22.2,23.1,21.7,22.6,21.7z"/>
	<ellipse class="st0" cx="40.2" cy="15.1" rx="1" ry="1"/>
	<ellipse class="st0" cx="44.6" cy="15.1" rx="1" ry="1"/>
	<path class="st0" d="M29.2,17.9c-0.6,0-1,0.5-1,1c0,0.6,0.5,1,1,1c0.6,0,1-0.5,1-1C30.2,18.3,29.8,17.9,29.2,17.9z"/>
	<path class="st0" d="M33.6,19.9c0.6,0,1-0.5,1-1c0-0.6-0.5-1-1-1c-0.6,0-1,0.5-1,1C32.6,19.5,33.1,19.9,33.6,19.9z"/>
	<path class="st0" d="M38,19.9c0.6,0,1-0.5,1-1c0-0.6-0.5-1-1-1c-0.6,0-1,0.5-1,1C37,19.5,37.5,19.9,38,19.9z"/>
	<path class="st0" d="M42.4,17.9c-0.6,0-1,0.5-1,1c0,0.6,0.5,1,1,1s1-0.5,1-1C43.5,18.3,43,17.9,42.4,17.9z"/>
	<path class="st0" d="M46.9,17.9c-0.6,0-1,0.5-1,1c0,0.6,0.5,1,1,1s1-0.5,1-1C47.9,18.3,47.4,17.9,46.9,17.9z"/>
	<path class="st0" d="M55.7,17.9c-0.6,0-1,0.5-1,1c0,0.6,0.5,1,1,1c0.6,0,1-0.5,1-1C56.7,18.3,56.2,17.9,55.7,17.9z"/>
	<path class="st0" d="M27,21.7c-0.6,0-1,0.5-1,1c0,0.6,0.5,1,1,1s1-0.5,1-1C28,22.2,27.6,21.7,27,21.7z"/>
	<path class="st0" d="M31.5,21.7c-0.6,0-1,0.5-1,1c0,0.6,0.5,1,1,1s1-0.5,1-1C32.5,22.2,32,21.7,31.5,21.7z"/>
	<path class="st0" d="M35.8,23.8c0.6,0,1-0.5,1-1c0-0.6-0.5-1-1-1s-1,0.5-1,1C34.8,23.3,35.3,23.8,35.8,23.8z"/>
	<path class="st0" d="M40.2,23.8c0.6,0,1-0.5,1-1c0-0.6-0.5-1-1-1c-0.6,0-1,0.5-1,1C39.2,23.3,39.6,23.8,40.2,23.8z"/>
	<path class="st0" d="M44.6,23.8c0.6,0,1-0.5,1-1c0-0.6-0.5-1-1-1c-0.6,0-1,0.5-1,1C43.6,23.3,44,23.8,44.6,23.8z"/>
	<path class="st0" d="M48.9,23.8c0.6,0,1-0.5,1-1c0-0.6-0.5-1-1-1c-0.6,0-1,0.5-1,1C47.9,23.3,48.4,23.8,48.9,23.8z"/>
	<path class="st0" d="M53.3,23.8c0.6,0,1-0.5,1-1c0-0.6-0.5-1-1-1c-0.6,0-1,0.5-1,1C52.3,23.3,52.7,23.8,53.3,23.8z"/>
	<path class="st0" d="M57.7,23.8c0.6,0,1-0.5,1-1c0-0.6-0.5-1-1-1c-0.6,0-1,0.5-1,1C56.7,23.3,57.1,23.8,57.7,23.8z"/>
	<path class="st0" d="M29.2,25.6c-0.6,0-1,0.5-1,1s0.5,1,1,1c0.6,0,1-0.5,1-1S29.8,25.6,29.2,25.6z"/>
	<path class="st0" d="M24.8,33.2c-0.6,0-1,0.5-1,1c0,0.6,0.5,1,1,1c0.6,0,1-0.5,1-1C25.8,33.7,25.4,33.2,24.8,33.2z"/>
	<path class="st0" d="M34.6,34.2c0-0.6-0.5-1-1-1c-0.6,0-1,0.5-1,1c0,0.6,0.5,1,1,1C34.2,35.3,34.6,34.8,34.6,34.2z"/>
	<path class="st0" d="M29.2,33.2c-0.6,0-1,0.5-1,1c0,0.6,0.5,1,1,1c0.6,0,1-0.5,1-1C30.2,33.7,29.8,33.2,29.2,33.2z"/>
	<path class="st0" d="M74.8,3.1c-1.2,0.9-2.1,1.7-4.1,1.7c-2,0-2.9-0.7-4.1-1.7c-1.3-1-2.9-2.3-5.9-2.3c-3,0-4.6,1.3-5.9,2.3
		c-1.2,0.9-2.1,1.7-4.1,1.7S47.8,4,46.6,3.1c-1.3-1-2.9-2.3-5.9-2.3c-3,0-4.6,1.3-5.9,2.3c-1.2,0.9-2.1,1.7-4.1,1.7
		c-2,0-2.9-0.7-4.1-1.7c-1.3-1-2.9-2.3-5.9-2.3c-3,0-4.6,1.3-5.9,2.3c-1.2,0.9-2.1,1.7-4.1,1.7c-2,0-2.9-0.7-4.1-1.7
		C5.3,2,3.7,0.7,0.7,0.7v3c2,0,2.9,0.7,4.1,1.7c1.3,1,2.9,2.3,5.9,2.3c3,0,4.6-1.3,5.9-2.3c1.2-0.9,2.1-1.7,4.1-1.7
		c2,0,2.9,0.7,4.1,1.7c1.3,1,2.9,2.3,5.9,2.3s4.6-1.3,5.9-2.3c1.2-0.9,2.1-1.7,4.1-1.7c2,0,2.9,0.7,4.1,1.7c1.3,1,2.9,2.3,5.9,2.3
		c3,0,4.6-1.3,5.9-2.3c1.2-0.9,2.1-1.7,4.1-1.7c2,0,2.9,0.7,4.1,1.7c1.3,1,2.9,2.3,5.9,2.3s4.6-1.3,5.9-2.3c1.2-0.9,2.1-1.7,4.1-1.7
		v-3C77.7,0.7,76,2,74.8,3.1z"/>
</g>
</svg>
