<?xml version="1.0" encoding="UTF-8"?>
<svg width="50px" height="51px" viewBox="0 0 50 51" version="1.1" xmlns="http://www.w3.org/2000/svg" xmlns:xlink="http://www.w3.org/1999/xlink">
    <!-- Generator: Sketch 53.1 (72631) - https://sketchapp.com -->
    <title>noun_Water_1943440_000000</title>
    <desc>Created with Sketch.</desc>
    <g id="Page-1" stroke="none" stroke-width="1" fill="none" fill-rule="evenodd">
        <g id="impacts" transform="translate(-750.000000, -636.000000)" fill="#000000" fill-rule="nonzero">
            <g id="Group-20" transform="translate(750.000000, 616.000000)">
                <g id="noun_Water_1943440_000000" transform="translate(0.000000, 20.000000)">
                    <path d="M49.1666667,16.2501987 L43.3333333,16.2501987 C42.873096,16.2501987 42.5,16.6266865 42.5,17.0911078 L42.5,19.6138351 L35,19.6138351 L35,18.772926 C35,18.3085047 34.626904,17.9320169 34.1666667,17.9320169 L30.8333333,17.9320169 L30.8333333,13.7274714 C30.8333333,13.2630502 30.4602373,12.8865623 30,12.8865623 L27.5,12.8865623 L27.5,7.84110779 L29.9166667,7.84110779 L34.9008333,8.8501987 C36.3158942,9.13561505 37.7619303,8.53226457 38.5640198,7.32175455 C39.3661094,6.11124453 39.3661094,4.53224378 38.5640198,3.32173376 C37.7619303,2.11122374 36.3158942,1.50787326 34.9008333,1.79328961 L29.9166667,2.79565325 L27.5,2.79565325 L27.5,1.11383506 C27.5,0.649413797 27.126904,0.272925973 26.6666667,0.272925973 L23.3333333,0.272925973 C22.873096,0.272925973 22.5,0.649413797 22.5,1.11383506 L22.5,2.79565325 L20.0833333,2.79565325 L15.0983333,1.78656234 C13.7663004,1.516264 12.3977777,2.03313275 11.5689625,3.11954826 C10.7401473,4.20596378 10.5950205,5.67319514 11.1946856,6.90348521 C11.7943508,8.13377528 13.0346347,8.91339939 14.3933333,8.91410779 C14.6300617,8.91397738 14.8662017,8.89031771 15.0983333,8.84347143 L20.0833333,7.84110779 L22.5,7.84110779 L22.5,12.8865623 L20,12.8865623 C19.5397627,12.8865623 19.1666667,13.2630502 19.1666667,13.7274714 L19.1666667,17.9320169 L15.8333333,17.9320169 C15.373096,17.9320169 15,18.3085047 15,18.772926 L15,20.4547442 L10.8333333,20.4547442 C4.85310412,20.4616951 0.0068883492,25.3519674 0,31.3865623 L0,36.4320169 C0,36.8964381 0.373096042,37.272926 0.833333333,37.272926 L9.16666667,37.272926 C9.62690396,37.272926 10,36.8964381 10,36.4320169 L10,31.3865623 C10,30.9221411 10.373096,30.5456532 10.8333333,30.5456532 L15,30.5456532 L15,32.2274714 C15,32.6918927 15.373096,33.0683805 15.8333333,33.0683805 L34.1666667,33.0683805 C34.626904,33.0683805 35,32.6918927 35,32.2274714 L35,31.3865623 L42.5,31.3865623 L42.5,33.9092896 C42.5,34.3737109 42.873096,34.7501987 43.3333333,34.7501987 L49.1666667,34.7501987 C49.626904,34.7501987 50,34.3737109 50,33.9092896 L50,17.0911078 C50,16.6266865 49.626904,16.2501987 49.1666667,16.2501987 Z M30,4.47747143 C30.055996,4.47799092 30.1118814,4.47235158 30.1666667,4.46065325 L35.2316667,3.4389487 C35.9851905,3.28732857 36.7550094,3.60881109 37.1819867,4.25341789 C37.6089639,4.8980247 37.6089639,5.73873634 37.1819867,6.38334314 C36.7550094,7.02794995 35.9851905,7.34943247 35.2316667,7.19781234 L30.1666667,6.17610779 C30.1118814,6.16440946 30.055996,6.15877011 30,6.15928961 L27.5,6.15928961 L27.5,4.47747143 L30,4.47747143 Z M25.8333333,6.15928961 L24.1666667,6.15928961 L24.1666667,4.47747143 L25.8333333,4.47747143 L25.8333333,6.15928961 Z M24.1666667,1.95474415 L25.8333333,1.95474415 L25.8333333,2.79565325 L24.1666667,2.79565325 L24.1666667,1.95474415 Z M20,6.15928961 C19.944004,6.15877011 19.8881186,6.16440946 19.8333333,6.17610779 L14.7683333,7.19781234 C14.0148095,7.34943247 13.2449906,7.02794995 12.8180133,6.38334314 C12.3910361,5.73873634 12.3910361,4.8980247 12.8180133,4.25341789 C13.2449906,3.60881109 14.0148095,3.28732857 14.7683333,3.4389487 L19.8333333,4.46065325 C19.8881186,4.47235158 19.944004,4.47799092 20,4.47747143 L22.5,4.47747143 L22.5,6.15928961 L20,6.15928961 Z M24.1666667,7.84110779 L25.8333333,7.84110779 L25.8333333,12.8865623 L24.1666667,12.8865623 L24.1666667,7.84110779 Z M20.8333333,14.5683805 L29.1666667,14.5683805 L29.1666667,17.9320169 L20.8333333,17.9320169 L20.8333333,14.5683805 Z M10.8333333,28.8638351 C9.45262146,28.8638351 8.33333333,29.9932985 8.33333333,31.3865623 L8.33333333,35.5911078 L1.66666667,35.5911078 L1.66666667,31.3865623 C1.67263625,26.2804256 5.77319787,22.1425862 10.8333333,22.1365623 L15,22.1365623 L15,28.8638351 L10.8333333,28.8638351 Z M33.3333333,31.3865623 L16.6666667,31.3865623 L16.6666667,19.6138351 L33.3333333,19.6138351 L33.3333333,31.3865623 Z M35,29.7047442 L35,21.2956532 L42.5,21.2956532 L42.5,29.7047442 L35,29.7047442 Z M48.3333333,33.0683805 L44.1666667,33.0683805 L44.1666667,17.9320169 L48.3333333,17.9320169 L48.3333333,33.0683805 Z" id="Shape"></path>
                    <path d="M5,50.2723349 C6.42031767,50.2975818 7.74667344,49.5124585 8.48514524,48.2093373 C9.14183173,47.0426184 9.17230728,45.5892109 8.56518991,44.391932 L5.7051936,38.6903221 C5.55237622,38.4304851 5.2861791,38.272926 5,38.272926 C4.7138209,38.272926 4.44762378,38.4304851 4.2948064,38.6903221 L1.43481009,44.391932 C0.827692721,45.5892109 0.858168273,47.0426184 1.51485476,48.2093373 C2.25332656,49.5124585 3.57968233,50.2975818 5,50.2723349 Z M2.8451973,45.2068161 L5,40.9089042 L7.1548027,45.2068161 C7.49763048,45.8703081 7.48111305,46.6806585 7.11157858,47.3274058 C6.66002778,48.1093055 5.85650326,48.5757488 5,48.5531702 C4.14349674,48.5757488 3.33997222,48.1093055 2.88842142,47.3274058 C2.51888695,46.6806585 2.50236952,45.8703081 2.8451973,45.2068161 L2.8451973,45.2068161 Z" id="Shape"></path>
                </g>
            </g>
        </g>
    </g>
</svg>