<?xml version="1.0" encoding="utf-8"?>
<!-- Generator: Adobe Illustrator 23.0.2, SVG Export Plug-In . SVG Version: 6.00 Build 0)  -->
<svg version="1.1" id="Calque_1" xmlns="http://www.w3.org/2000/svg" xmlns:xlink="http://www.w3.org/1999/xlink" x="0px" y="0px"
	 viewBox="0 0 16 36" style="enable-background:new 0 0 16 36;" xml:space="preserve">
<style type="text/css">
	.st0{fill-rule:evenodd;clip-rule:evenodd;}
</style>
<title>noun_Temperature_218414_000000</title>
<desc>Created with Sketch.</desc>
<g id="Page-1">
	<g id="impacts" transform="translate(-355.000000, -337.000000)">
		<g id="Group-6" transform="translate(355.000000, 337.000000)">
			<g id="noun_Temperature_218414_000000">
				<path id="Combined-Shape" class="st0" d="M9.6,24c1.7,0.7,2.8,2.3,2.8,4.2c0,2.5-2.1,4.6-4.6,4.6s-4.6-2.1-4.6-4.6
					c0-1.9,1.2-3.5,2.8-4.2v-7.8c0-1,0.8-1.8,1.8-1.8s1.8,0.8,1.8,1.8V24z M12.7,22c1.9,1.5,2.9,3.7,2.9,6.1c0,4.3-3.5,7.8-7.8,7.8
					S0,32.4,0,28.1c0-2.4,1.1-4.6,2.9-6.1V4.9C2.9,2.2,5.1,0,7.8,0c2.7,0,4.9,2.2,4.9,4.9V22z M7.8,34.3c3.4,0,6.2-2.8,6.2-6.2
					c0-1.9-0.9-3.7-2.4-4.9c-0.1,0-0.1-0.1-0.2-0.1c-0.2-0.2-0.4-0.4-0.3-0.7c0,0,0,0,0-0.1V4.9c0-1.8-1.4-3.2-3.2-3.2
					S4.6,3.1,4.6,4.9v17.4c0,0,0,0,0,0.1c0,0.3-0.1,0.6-0.3,0.7l-0.1,0.1c-1.6,1.2-2.5,3-2.5,5C1.6,31.5,4.4,34.3,7.8,34.3z"/>
			</g>
		</g>
	</g>
</g>
</svg>
