<?xml version="1.0" encoding="utf-8"?>
<!-- Generator: Adobe Illustrator 23.0.2, SVG Export Plug-In . SVG Version: 6.00 Build 0)  -->
<svg version="1.1" id="Calque_1" xmlns="http://www.w3.org/2000/svg" xmlns:xlink="http://www.w3.org/1999/xlink" x="0px" y="0px"
	 viewBox="0 0 67 52" style="enable-background:new 0 0 67 52;" xml:space="preserve">
<path d="M51.8,16.9c-1.5,0-3,0.5-4.2,1.4l-1.4,1.1c-0.6-2-0.2-5.6,0.3-7l0.1-0.4l0.6,0.1c0.6,0.1,1.2,0.2,1.7,0.2
	c3.2,0,5.1-1.8,6.2-5.9l0.3-1l-1-0.2c-3.2-0.8-5.4-0.5-7,1c-0.7-1.9-2.5-3.1-5.5-3.9l-1-0.3l-0.2,1c-1.2,4.7,0,7.3,4,8.9
	c-0.7,1.9-0.9,5.2-0.4,7.6l-3.3-1.7c-1-0.5-2.1-0.8-3.2-0.8h-8.1c-1.9,0-3.9,0.6-5.6,1.6c0.2-2.5-0.1-5.5-0.8-7.2
	c4.8-1.8,6.2-4.8,4.8-10.3l-0.2-1l-1,0.3c-3.6,1-5.7,2.5-6.5,4.8c-1.8-1.9-4.5-2.3-8.3-1.3l-1,0.2l0.3,1c1.3,4.7,3.4,6.9,7.2,6.9
	c0.7,0,1.4-0.1,2.2-0.2l0.6-0.1l0.2,0.4c0.6,1.4,1.1,5.1,0.6,7.6c-2.1-1.7-4.5-2.6-7-2.6H0v2h14.8c2.4,0,4.7,1,6.7,2.9l0.7,0.7
	l0.7-0.7c0.1-0.1,0.2-0.2,0.3-0.3l0.1,0c0-0.1,0.1-0.1,0.1-0.2c1.8-1.6,4-2.5,6.2-2.5h8.1c0.8,0,1.6,0.2,2.3,0.6l5.6,3l3.3-2.5
	c0.9-0.7,1.9-1,3-1h11.6v-2H51.8z M26.2,2.5c0.7,3.8-0.2,5.6-3.7,6.9c-0.2-0.6-0.5-1.5-0.7-1.8C21.7,5,23,3.6,26.2,2.5z M13.4,5.4
	c3.4-0.7,5.2,0,6.5,2.7c0,0,0.4,1.2,0.5,1.7C16.7,10.5,14.6,9.2,13.4,5.4z M52.8,6.9c-1,2.9-2.7,3.9-5.6,3.5
	c0.1-0.4,0.5-1.3,0.5-1.3C48.7,7,50.1,6.4,52.8,6.9z M42.3,4.6c2.5,0.9,3.5,2,3.5,4.1c-0.2,0.4-0.3,0.8-0.5,1.3
	C42.5,9,41.7,7.5,42.3,4.6z"/>
<g>
	<path d="M53,42.3c0.1,0.1,0.3,0.2,0.5,0.2c0.2,0,0.4-0.1,0.5-0.3l4.7-5.7c0.2-0.3,0.2-0.7-0.1-1c-0.3-0.2-0.7-0.2-1,0.1l-4.2,5.2
		l-2.7-2.3c-0.3-0.2-0.7-0.2-1,0.1c-0.2,0.3-0.2,0.7,0.1,1L53,42.3z"/>
	<path d="M54.1,48.3c5.2,0,9.4-4.2,9.4-9.4s-4.2-9.4-9.4-9.4c-5.2,0-9.4,4.2-9.4,9.4S48.9,48.3,54.1,48.3z M46.3,38.9
		c0-4.3,3.5-7.8,7.8-7.8c4.3,0,7.8,3.5,7.8,7.8c0,4.3-3.5,7.8-7.8,7.8C49.8,46.8,46.3,43.2,46.3,38.9z"/>
	<path d="M66.7,42.4L66.1,40C66,39.7,66,39.2,66,38.8c0-0.4,0-0.8,0.1-1.1l0.6-2.4c0-0.2,0.1-0.4,0.1-0.5c0-0.5-0.1-0.9-0.3-1.3
		c-0.2-0.4-0.6-0.8-0.9-1l-2.1-1.3c-0.3-0.2-0.6-0.4-0.9-0.7c-0.3-0.3-0.6-0.6-0.7-0.9l-1.3-2.1c-0.2-0.4-0.6-0.7-1-0.9
		c-0.6-0.3-1.3-0.4-1.9-0.3l-2.4,0.6C54.9,27,54.4,27,54,27c0,0,0,0,0,0c-0.4,0-0.8,0-1.1-0.1l-2.4-0.6c-0.6-0.1-1.3,0-1.9,0.3
		c-0.4,0.2-0.8,0.6-1,0.9l-1.3,2.1c-0.2,0.3-0.4,0.6-0.7,0.9c-0.3,0.3-0.6,0.6-0.9,0.7l-2.1,1.3c-0.4,0.2-0.7,0.6-0.9,1
		c-0.2,0.4-0.3,0.9-0.3,1.3c0,0.2,0,0.4,0.1,0.6l0.6,2.4c0.1,0.3,0.1,0.8,0.1,1.2c0,0.4,0,0.8-0.1,1.1l-0.6,2.4
		c0,0.2-0.1,0.4-0.1,0.5c0,0.5,0.1,0.9,0.3,1.3c0.2,0.4,0.6,0.8,0.9,1l2.1,1.3c0.3,0.2,0.6,0.4,0.9,0.7c0.3,0.3,0.6,0.6,0.7,0.9
		l1.3,2.1c0.2,0.4,0.6,0.7,1,0.9c0.4,0.2,0.9,0.3,1.3,0.3c0.2,0,0.4,0,0.6-0.1l2.4-0.6c0.3-0.1,0.8-0.1,1.2-0.1c0,0,0,0,0,0
		c0.4,0,0.8,0,1.1,0.1l2.4,0.6c0.6,0.1,1.3,0,1.9-0.3c0.4-0.2,0.8-0.6,1-0.9l1.3-2.1c0.2-0.3,0.4-0.6,0.7-0.9
		c0.3-0.3,0.6-0.6,0.9-0.7l2.1-1.3c0.4-0.2,0.7-0.6,0.9-1c0.2-0.4,0.3-0.9,0.3-1.3C66.8,42.7,66.7,42.4,66.7,42.4z M43,42.9l0.6-2.4
		c0.1-0.4,0.1-0.9,0.1-1.5c0-0.6-0.1-1.1-0.2-1.6L43,35.1c0-0.1,0-0.1,0-0.2c0-0.2,0.1-0.4,0.2-0.6c0.1-0.2,0.2-0.3,0.4-0.4l2.1-1.3
		c0.4-0.2,0.8-0.6,1.2-1c0.4-0.4,0.7-0.8,1-1.2l1.3-2.1c0.1-0.1,0.2-0.3,0.4-0.4c0.2-0.1,0.4-0.2,0.6-0.2c0.1,0,0.1,0,0.2,0l2.4,0.6
		c0.4,0.1,0.9,0.1,1.5,0.1c0.6,0,1.1-0.1,1.6-0.2l2.4-0.6c0.2-0.1,0.5,0,0.8,0.1c0.2,0.1,0.3,0.2,0.4,0.4l1.3,2.1
		c0.2,0.4,0.6,0.8,1,1.2c0.4,0.4,0.8,0.7,1.2,1l2.1,1.3c0.1,0.1,0.3,0.2,0.4,0.4c0.1,0.2,0.2,0.4,0.2,0.6c0,0.1,0,0.1,0,0.2
		l-0.6,2.4c-0.1,0.4-0.1,0.9-0.1,1.5c0,0.6,0.1,1.1,0.2,1.6l0.6,2.4c0,0.1,0,0.1,0,0.2c0,0.2-0.1,0.4-0.2,0.6v0
		c-0.1,0.2-0.2,0.3-0.4,0.4l-2.1,1.3c-0.4,0.2-0.8,0.6-1.2,1c-0.4,0.4-0.7,0.8-1,1.2l-1.3,2.1c-0.1,0.1-0.2,0.3-0.4,0.4
		c-0.2,0.1-0.4,0.2-0.6,0.2c-0.1,0-0.1,0-0.2,0l-2.4-0.6c-0.4-0.1-0.9-0.1-1.5-0.1c-0.6,0-1.1,0.1-1.6,0.2L50.3,50
		c-0.1,0-0.1,0-0.2,0c-0.2,0-0.4-0.1-0.6-0.2c-0.2-0.1-0.3-0.2-0.4-0.4l-1.3-2.1c-0.2-0.4-0.6-0.8-1-1.2c-0.4-0.4-0.8-0.7-1.2-1
		l-2.1-1.3c-0.1-0.1-0.3-0.2-0.4-0.4c-0.1-0.2-0.2-0.4-0.2-0.6C43,43,43,42.9,43,42.9z"/>
</g>
<g>
	<circle cx="23.9" cy="32.4" r="1.9"/>
	<path d="M34.5,29.3c1,0,1.9-0.8,1.9-1.9c0-1-0.8-1.9-1.9-1.9c-1,0-1.9,0.8-1.9,1.9C32.6,28.5,33.5,29.3,34.5,29.3z"/>
	<circle cx="24.9" cy="48.4" r="1.9"/>
	<circle cx="4.9" cy="32.4" r="1.9"/>
	<circle cx="13.9" cy="27.4" r="1.9"/>
	<circle cx="13.9" cy="39.4" r="1.9"/>
	<circle cx="5.9" cy="46.4" r="1.9"/>
	<path d="M34.9,37.5c-1,0-1.9,0.8-1.9,1.9s0.8,1.9,1.9,1.9c1,0,1.9-0.8,1.9-1.9S36,37.5,34.9,37.5z"/>
</g>
</svg>
