<?xml version="1.0" encoding="UTF-8"?>
<svg width="38px" height="39px" viewBox="0 0 38 39" version="1.1" xmlns="http://www.w3.org/2000/svg" xmlns:xlink="http://www.w3.org/1999/xlink">
    <!-- Generator: Sketch 53.1 (72631) - https://sketchapp.com -->
    <title>Group 18</title>
    <desc>Created with Sketch.</desc>
    <defs>
        <polygon id="path-1" points="0.000339130435 0.0746086957 36.8205783 0.0746086957 36.8205783 23.1298826 0.000339130435 23.1298826"></polygon>
    </defs>
    <g id="Page-1" stroke="none" stroke-width="1" fill="none" fill-rule="evenodd">
        <g id="impacts" transform="translate(-387.000000, -572.000000)">
            <g id="Group-7" transform="translate(387.000000, 572.000000)">
                <g id="Group-18" transform="translate(0.347826, 0.000000)">
                    <g id="Group-15" transform="translate(0.000000, 0.773387)">
                        <mask id="mask-2" fill="white">
                            <use xlink:href="#path-1"></use>
                        </mask>
                        <g id="Clip-14"></g>
                    </g>
                    <path d="M17.9567022,29.5993891 C17.1377022,29.5993891 16.4730065,30.2640848 16.4730065,31.0830848 C16.4730065,31.9030739 17.1377022,32.5667804 17.9567022,32.5667804 C18.7757022,32.5667804 19.4403978,31.9030739 19.4403978,31.0830848 C19.4403978,30.2640848 18.7757022,29.5993891 17.9567022,29.5993891" id="Fill-1" fill="#B57A60"></path>
                    <path d="M26.9184783,28.32765 C27.7374783,28.32765 28.4021739,27.6639435 28.4021739,26.8439543 C28.4021739,26.0249543 27.7374783,25.3602587 26.9184783,25.3602587 C26.0994783,25.3602587 25.4347826,26.0249543 25.4347826,26.8439543 C25.4347826,27.6639435 26.0994783,28.32765 26.9184783,28.32765" id="Fill-3" fill="#B57A60"></path>
                    <path d="M35.76105,29.5993891 C34.94205,29.5993891 34.2773543,30.2640848 34.2773543,31.0830848 C34.2773543,31.9030739 34.94205,32.5667804 35.76105,32.5667804 C36.58005,32.5667804 37.2447457,31.9030739 37.2447457,31.0830848 C37.2447457,30.2640848 36.58005,29.5993891 35.76105,29.5993891" id="Fill-5" fill="#B57A60"></path>
                    <path d="M1.84800652,29.5993891 C1.02900652,29.5993891 0.36431087,30.2640848 0.36431087,31.0830848 C0.36431087,31.9030739 1.02900652,32.5667804 1.84800652,32.5667804 C2.66700652,32.5667804 3.33170217,31.9030739 3.33170217,31.0830848 C3.33170217,30.2640848 2.66700652,29.5993891 1.84800652,29.5993891" id="Fill-7" fill="#B57A60"></path>
                    <path d="M9.4784413,25.3602587 C8.6594413,25.3602587 7.99474565,26.0249543 7.99474565,26.8439543 C7.99474565,27.6639435 8.6594413,28.32765 9.4784413,28.32765 C10.2974413,28.32765 10.962137,27.6639435 10.962137,26.8439543 C10.962137,26.0249543 10.2974413,25.3602587 9.4784413,25.3602587" id="Fill-9" fill="#B57A60"></path>
                    <path d="M9.4784413,35.5341717 C8.6594413,35.5341717 7.99474565,36.1988674 7.99474565,37.0178674 C7.99474565,37.8378565 8.6594413,38.501563 9.4784413,38.501563 C10.2974413,38.501563 10.962137,37.8378565 10.962137,37.0178674 C10.962137,36.1988674 10.2974413,35.5341717 9.4784413,35.5341717" id="Fill-11" fill="#B57A60"></path>
                    <path d="M27.2827891,35.5341717 C26.4637891,35.5341717 25.7990935,36.1988674 25.7990935,37.0178674 C25.7990935,37.8378565 26.4637891,38.501563 27.2827891,38.501563 C28.1017891,38.501563 28.7664848,37.8378565 28.7664848,37.0178674 C28.7664848,36.1988674 28.1017891,35.5341717 27.2827891,35.5341717" id="Fill-16" fill="#B57A60"></path>
                    <path d="M14.9149623,2.46034536 C18.9704205,3.69675502 20.6143618,5.41667683 20.4952106,8.71837412 C20.1757472,9.4341448 19.8873668,10.2379838 19.6283424,11.1393886 C15.0479282,9.61546185 13.8339673,7.34122789 14.9149623,2.46034536 M21.7687471,9.02056922 C23.2918104,5.75513534 25.565181,4.94611589 29.8269952,5.89069142 C28.3522832,10.725813 26.1877029,12.1297251 21.4734593,11.2041447 C21.628874,10.4244813 21.7307569,9.69662282 21.7687471,9.02056922 M23.8884299,12.7634714 C27.7539369,12.7634714 29.8891611,10.5626276 31.2628537,5.58935974 L31.4398536,4.94956955 L30.7957464,4.78897444 C26.3543419,3.67862331 23.528386,4.19580864 21.618513,6.74374501 C21.0348447,3.90224768 18.8227766,2.18664295 14.6127672,1.02448694 L13.9738404,0.847486957 L13.8132453,1.49159422 C12.3152211,7.48196447 13.7787087,10.5367252 19.1992254,12.362847 C18.2460157,14.3737395 17.7918596,18.7572953 18.3323572,21.882856 C16.6461085,20.6507634 14.720694,19.9824805 12.775421,19.9824805 L0.000339130435,19.9824805 L0.000339130435,21.2776024 L12.775421,21.2776024 C14.9175526,21.2776024 16.9638451,22.1772803 18.6932644,23.8799339 L19.1474205,24.3271826 L19.60244,23.8799339 C21.3318593,22.1772803 23.3772884,21.2776024 25.5185566,21.2776024 L37.4975702,21.2776024 L37.4975702,19.9824805 L25.5185566,19.9824805 C23.4653567,19.9824805 21.4354691,20.7293341 19.6844644,22.0961194 C19.0161815,19.073305 19.5756741,14.23732 20.4442692,12.7444762 L21.072835,12.9180226" id="Fill-13" fill="#B57A60"></path>
                </g>
            </g>
        </g>
    </g>
</svg>