<?xml version="1.0" encoding="UTF-8"?>
<svg width="57px" height="46px" viewBox="0 0 57 46" version="1.1" xmlns="http://www.w3.org/2000/svg" xmlns:xlink="http://www.w3.org/1999/xlink">
    <!-- Generator: Sketch 53.1 (72631) - https://sketchapp.com -->
    <title>Group 12</title>
    <desc>Created with Sketch.</desc>
    <g id="Page-1" stroke="none" stroke-width="1" fill="none" fill-rule="evenodd">
        <g id="impacts" transform="translate(-272.000000, -396.000000)" fill-rule="nonzero">
            <g id="Group-14" transform="translate(271.000000, 384.000000)">
                <g id="Group-4" transform="translate(0.421053, 11.000000)">
                    <g id="Group-12" transform="translate(0.421053, 0.052632)">
                        <path d="M45.57169,19.7934757 C49.5560267,21.7299623 52.2526316,25.9137254 52.2526316,30.4315789 C52.2526316,37.0049163 46.9417584,42.3157895 40.3684211,42.3157895 C39.0276012,42.3157895 37.6577215,42.0656666 36.3237572,41.5966639 C34.0988017,44.4304292 30.6411942,46.1368421 26.9368421,46.1368421 C23.6278663,46.1368421 20.5215014,44.7863254 18.3153243,42.4913 C17.0459226,42.9218698 15.6653598,43.1263158 14.2,43.1263158 C6.70034683,43.1263158 0.578947368,37.0049163 0.578947368,29.5052632 C0.578947368,24.9669477 2.76887886,20.8167357 6.36842105,18.2140412 L6.36842105,17.6947368 C6.36842105,10.7545134 12.1620808,5 19.1789474,5 C23.4070997,5 27.2459854,7.09442012 29.6284652,10.5290716 C30.9407182,10.0137472 32.4014037,9.74736842 33.8842105,9.74736842 C39.7228031,9.74736842 44.6809103,14.0869721 45.57169,19.7934757 Z M43.6582427,20.5794703 C43.1289724,15.6043301 38.8895022,11.7473684 33.8842105,11.7473684 C32.3852175,11.7473684 30.9230641,12.0722914 29.6998452,12.6839009 L28.8715777,13.0980346 L28.3951387,12.3039694 C26.4253626,9.0210094 22.9896466,7 19.1789474,7 C13.2636263,7 8.36842105,11.8621296 8.36842105,17.6947368 L8.36842105,19.2720259 L7.92312125,19.5688924 C4.60856209,21.7785985 2.57894737,25.4608995 2.57894737,29.5052632 C2.57894737,35.9003468 7.80491633,41.1263158 14.2,41.1263158 C15.6764623,41.1263158 17.0265304,40.8880685 18.2153846,40.3927126 L18.8891868,40.1119616 L19.3619393,40.6681411 C21.2068637,42.8386403 23.972598,44.1368421 26.9368421,44.1368421 C30.2500725,44.1368421 33.3246616,42.4989769 35.1414946,39.8271637 L35.6001374,39.1526888 L36.3530364,39.4663968 C37.6814567,40.0199052 39.0532838,40.3157895 40.3684211,40.3157895 C45.8371889,40.3157895 50.2526316,35.9003468 50.2526316,30.4315789 C50.2526316,26.5265758 47.8020369,22.8960652 44.2620817,21.394266 L43.7204794,21.1644953 L43.6582427,20.5794703 Z" id="Shape" fill="#000000"></path>
                        <path d="M57.1157895,23.7157895 C57.1157895,27.6185866 55.109027,31.1040161 51.8570244,32.9251376 L50.8798177,31.1801256 C53.4949651,29.715643 55.1157895,26.900527 55.1157895,23.7157895 C55.1157895,20.1513731 53.0048242,16.9849251 49.8129189,15.6017662 L49.2854892,15.3732133 L49.217538,14.8024234 C48.6938672,10.4035886 45.0338644,7.11578947 40.6,7.11578947 C39.2966986,7.11578947 38.054713,7.40646695 36.994582,7.93653245 L36.1617637,8.35294162 L35.6870769,7.55190765 C33.9675242,4.65016244 31.0085706,2.94736842 27.5157895,2.94736842 C24.3981726,2.94736842 21.5215965,4.51382075 19.7682736,7.03422238 L18.1264632,5.89209341 C20.2465911,2.84440954 23.7302485,0.947368421 27.5157895,0.947368421 C31.4099733,0.947368421 34.7965809,2.73186809 36.9259463,5.7838757 C38.0599196,5.34792512 39.3094102,5.11578947 40.6,5.11578947 C45.861661,5.11578947 50.2447974,8.88822439 51.122205,14.0056604 C54.7513108,15.8105224 57.1157895,19.5425767 57.1157895,23.7157895 Z" id="Stroke-1" fill="#000000"></path>
                        <path d="M35.1686842,31.7178947 C35.9753549,31.177892 36.6153485,30.7045634 37.0886842,30.2978947 C37.5620199,29.891226 37.9053498,29.5145631 38.1186842,29.1678947 C38.3320186,28.8212263 38.4386842,28.4778964 38.4386842,28.1378947 C38.4386842,27.8245598 38.3436852,27.571229 38.1536842,27.3778947 C37.9636833,27.1845604 37.7020192,27.0878947 37.3686842,27.0878947 C37.0020157,27.0878947 36.7120186,27.2145601 36.4986842,27.4678947 C36.2853498,27.7212293 36.1686843,28.0812257 36.1486842,28.5478947 L34.9586842,28.0978947 C35.0053511,27.4312247 35.2520153,26.9078966 35.6986842,26.5278947 C36.1453531,26.1478928 36.7286806,25.9578947 37.4486842,25.9578947 C37.9620201,25.9578947 38.3970158,26.0545604 38.7536842,26.2478947 C39.1103527,26.441229 39.3786833,26.6962265 39.5586842,27.0128947 C39.7386851,27.329563 39.8286842,27.6778928 39.8286842,28.0578947 C39.8286842,28.6778978 39.5953532,29.262892 39.1286842,29.8128947 C38.6620152,30.3628975 37.9186893,30.9512249 36.8986842,31.5778947 L36.8986842,31.5878947 C37.2853528,31.5612279 37.6886821,31.5478947 38.1086842,31.5478947 L39.9286842,31.5478947 L39.9286842,32.6578947 L35.1686842,32.6578947 L35.1686842,31.7178947 Z" id="2" fill="#0C1321"></path>
                        <path d="M22.207,27.8182105 C21.9556654,28.641548 21.5093365,29.2633751 20.868,29.6837105 C20.2266635,30.104046 19.4596711,30.3142105 18.567,30.3142105 C17.7263291,30.3142105 16.9940031,30.1365456 16.37,29.7812105 C15.7459969,29.4258754 15.2671683,28.9167138 14.9335,28.2537105 C14.5998317,27.5907072 14.433,26.8042151 14.433,25.8942105 C14.433,24.984206 14.5998317,24.1977138 14.9335,23.5347105 C15.2671683,22.8717072 15.7438302,22.3625456 16.3635,22.0072105 C16.9831698,21.6518754 17.7089958,21.4742105 18.541,21.4742105 C19.4336711,21.4742105 20.1898302,21.660542 20.8095,22.0332105 C21.4291698,22.4058791 21.8559988,22.9605402 22.09,23.6972105 L20.465,24.3862105 C20.3263326,23.8748746 20.1096681,23.506545 19.815,23.2812105 C19.5203319,23.0558761 19.1216692,22.9432105 18.619,22.9432105 C17.8909964,22.9432105 17.3211687,23.1988746 16.9095,23.7102105 C16.4978313,24.2215464 16.292,24.9495391 16.292,25.8942105 C16.292,26.8388819 16.4913313,27.5668746 16.89,28.0782105 C17.2886687,28.5895464 17.8519964,28.8452105 18.58,28.8452105 C19.6286719,28.8452105 20.287332,28.3382156 20.556,27.3242105 L22.207,27.8182105 Z M27.446,21.4742105 C28.2866709,21.4742105 29.0168302,21.6518754 29.6365,22.0072105 C30.2561698,22.3625456 30.7328317,22.8717072 31.0665,23.5347105 C31.4001683,24.1977138 31.567,24.984206 31.567,25.8942105 C31.567,26.8042151 31.4001683,27.5907072 31.0665,28.2537105 C30.7328317,28.9167138 30.2561698,29.4258754 29.6365,29.7812105 C29.0168302,30.1365456 28.2866709,30.3142105 27.446,30.3142105 C26.6053291,30.3142105 25.8730031,30.1365456 25.249,29.7812105 C24.6249969,29.4258754 24.1461683,28.9167138 23.8125,28.2537105 C23.4788317,27.5907072 23.312,26.8042151 23.312,25.8942105 C23.312,24.984206 23.4788317,24.1977138 23.8125,23.5347105 C24.1461683,22.8717072 24.6249969,22.3625456 25.249,22.0072105 C25.8730031,21.6518754 26.6053291,21.4742105 27.446,21.4742105 Z M27.446,22.9432105 C26.7179964,22.9432105 26.1568353,23.196708 25.7625,23.7037105 C25.3681647,24.2107131 25.171,24.9408724 25.171,25.8942105 C25.171,26.8475486 25.3681647,27.577708 25.7625,28.0847105 C26.1568353,28.5917131 26.7179964,28.8452105 27.446,28.8452105 C28.1653369,28.8452105 28.7221647,28.5917131 29.1165,28.0847105 C29.5108353,27.577708 29.708,26.8475486 29.708,25.8942105 C29.708,24.9408724 29.5108353,24.2107131 29.1165,23.7037105 C28.7221647,23.196708 28.1653369,22.9432105 27.446,22.9432105 Z" id="CO" fill="#0C1321"></path>
                    </g>
                </g>
            </g>
        </g>
    </g>
</svg>