<?xml version="1.0" encoding="utf-8"?>
<!-- Generator: Adobe Illustrator 23.0.2, SVG Export Plug-In . SVG Version: 6.00 Build 0)  -->
<svg version="1.1" id="Calque_1" xmlns="http://www.w3.org/2000/svg" xmlns:xlink="http://www.w3.org/1999/xlink" x="0px" y="0px"
	 viewBox="0 0 57 63" style="enable-background:new 0 0 57 63;" xml:space="preserve">
<title>Group 27</title>
<desc>Created with Sketch.</desc>
<g>
	<path d="M31.1,41.4c-0.1-0.1-0.2-0.1-0.3-0.1c-0.1,0-0.2,0-0.3,0.1c-0.1,0-0.1,0.1-0.1,0.2l-3.7,11c0,0.1,0,0.2,0,0.3
		c0,0,0,0,0,0.1c0.1,0.2,0.4,0.4,1.2,0.5c0.6,0.1,1.4,0.2,2.2,0.2v3.8c0,0.1,0,0.2,0.1,0.3c0.1,0.1,0.2,0.1,0.3,0.1H31
		c0.1,0,0.2,0,0.3-0.1c0.1-0.1,0.1-0.2,0.1-0.3v-3.8c0.8,0,1.5-0.1,2.2-0.2c0.5-0.1,0.9-0.2,1.1-0.4c0.1-0.1,0.1-0.1,0.2-0.2
		c0-0.1,0-0.2,0-0.3l-3.6-11C31.2,41.6,31.1,41.5,31.1,41.4z"/>
	<path d="M19.3,9.5c0.3,0.1,0.8,0.1,1.2,0.1v2.2c0,0.1,0,0.1,0.1,0.2c0,0.1,0.1,0.1,0.2,0.1H21c0.1,0,0.1,0,0.2-0.1
		c0-0.1,0.1-0.1,0.1-0.2V9.6c0.5,0,0.9-0.1,1.2-0.1c0.3-0.1,0.5-0.1,0.6-0.2c0,0,0.1-0.1,0.1-0.1c0-0.1,0-0.1,0-0.2l-2.1-6.2
		c0-0.1-0.1-0.1-0.1-0.1c0,0-0.1,0-0.1,0c-0.1,0-0.1,0-0.1,0c0,0-0.1,0.1-0.1,0.1L18.6,9c0,0.1,0,0.1,0,0.2v0
		C18.6,9.3,18.9,9.4,19.3,9.5z"/>
	<path d="M5.9,30.6c0.4,0.1,1,0.2,1.5,0.2v2.7c0,0.1,0,0.2,0.1,0.2c0.1,0.1,0.1,0.1,0.2,0.1h0.4c0.1,0,0.2,0,0.2-0.1
		c0.1-0.1,0.1-0.1,0.1-0.2v-2.7c0.6,0,1.1-0.1,1.5-0.2c0.4-0.1,0.6-0.2,0.7-0.2c0,0,0.1-0.1,0.1-0.1c0-0.1,0-0.1,0-0.2l-2.6-7.7
		c0-0.1-0.1-0.1-0.1-0.2c-0.1,0-0.1-0.1-0.2-0.1c-0.1,0-0.1,0-0.2,0.1c-0.1,0-0.1,0.1-0.1,0.2L5,30c0,0.1,0,0.1,0,0.2c0,0,0,0,0,0
		C5.1,30.4,5.4,30.5,5.9,30.6z"/>
	<path d="M10.1,16.7c0.4,0.1,0.8,0.1,1.3,0.1v2.3c0,0.1,0,0.1,0.1,0.2c0.1,0.1,0.1,0.1,0.2,0.1h0.3c0.1,0,0.1,0,0.2-0.1
		c0-0.1,0.1-0.1,0.1-0.2v-2.3c0.5,0,0.9-0.1,1.3-0.1c0.3-0.1,0.5-0.1,0.6-0.2c0,0,0.1-0.1,0.1-0.1c0-0.1,0-0.1,0-0.2l-2.2-6.5
		C12,9.6,12,9.6,12,9.5c0,0-0.1-0.1-0.2-0.1c-0.1,0-0.1,0-0.1,0.1c-0.1,0-0.1,0.1-0.1,0.1l-2.2,6.5c0,0.1,0,0.1,0,0.2c0,0,0,0,0,0
		C9.4,16.5,9.7,16.6,10.1,16.7z"/>
	<path d="M30.6,6.2c0.3,0.1,0.7,0.1,1.1,0.1v2c0,0.1,0,0.1,0.1,0.2c0,0,0.1,0.1,0.2,0.1h0.2c0.1,0,0.1,0,0.2-0.1
		c0-0.1,0.1-0.1,0.1-0.2v-2c0.4,0,0.8-0.1,1.1-0.1c0.3,0,0.4-0.1,0.5-0.2c0,0,0.1-0.1,0.1-0.1c0,0,0-0.1,0-0.1l-1.9-5.6
		c0-0.1-0.1-0.1-0.1-0.1c0,0-0.1,0-0.1,0C32.1,0,32,0,32,0c0,0-0.1,0.1-0.1,0.1L30,5.7c0,0.1,0,0.1,0,0.1v0
		C30.1,6,30.3,6.1,30.6,6.2z"/>
	<path d="M48.2,18c0.4,0.1,0.8,0.1,1.3,0.2v2.4c0,0.1,0,0.1,0.1,0.2c0.1,0.1,0.1,0.1,0.2,0.1h0.3c0.1,0,0.2,0,0.2-0.1
		c0.1-0.1,0.1-0.1,0.1-0.2v-2.4c0.5,0,1-0.1,1.3-0.2c0.3-0.1,0.5-0.1,0.7-0.2c0,0,0.1-0.1,0.1-0.1c0-0.1,0-0.1,0-0.2l-2.3-6.8
		c0-0.1-0.1-0.1-0.1-0.1c0,0-0.1,0-0.2,0c-0.1,0-0.1,0-0.2,0c0,0-0.1,0.1-0.1,0.1l-2.3,6.8c0,0.1,0,0.1,0,0.2c0,0,0,0,0,0
		C47.5,17.9,47.7,18,48.2,18z"/>
	<path d="M50,37.3c-0.1-0.1-0.1-0.1-0.2-0.1c-0.1,0-0.2,0-0.2,0.1c-0.1,0-0.1,0.1-0.1,0.2l-3.1,9.3c0,0.1,0,0.2,0,0.2c0,0,0,0,0,0
		c0,0.2,0.4,0.3,1,0.5c0.5,0.1,1.2,0.2,1.8,0.2V51c0,0.1,0,0.2,0.1,0.3c0.1,0.1,0.2,0.1,0.2,0.1H50c0.1,0,0.2,0,0.3-0.1
		c0.1-0.1,0.1-0.2,0.1-0.3v-3.3c0.7,0,1.3-0.1,1.8-0.2c0.4-0.1,0.7-0.2,0.9-0.3c0.1,0,0.1-0.1,0.2-0.2c0-0.1,0-0.2,0-0.2l-3.1-9.3
		C50.1,37.4,50,37.3,50,37.3z"/>
	<path d="M44.5,9.4c0-0.1,0-0.1,0-0.2l-2-6c0-0.1,0-0.1-0.1-0.1c0,0-0.1-0.1-0.1-0.1c-0.1,0-0.1,0-0.1,0.1c0,0-0.1,0.1-0.1,0.1l-2,6
		c0,0.1,0,0.1,0,0.2l0,0c0,0.1,0.2,0.2,0.6,0.3c0.3,0.1,0.7,0.1,1.2,0.1v2.1c0,0.1,0,0.1,0.1,0.2c0,0.1,0.1,0.1,0.2,0.1h0.3
		c0.1,0,0.1,0,0.2-0.1c0-0.1,0.1-0.1,0.1-0.2V9.8c0.5,0,0.8-0.1,1.2-0.1c0.3-0.1,0.5-0.1,0.6-0.2C44.5,9.5,44.5,9.4,44.5,9.4z"/>
	<path d="M54.4,23c0-0.1-0.1-0.1-0.1-0.2c-0.1,0-0.1-0.1-0.2-0.1c-0.1,0-0.1,0-0.2,0.1c-0.1,0-0.1,0.1-0.1,0.2l-2.6,7.7
		c0,0.1,0,0.1,0,0.2c0,0,0,0,0,0c0,0.2,0.3,0.3,0.8,0.4c0.4,0.1,1,0.2,1.5,0.2v2.7c0,0.1,0,0.2,0.1,0.2c0.1,0.1,0.1,0.1,0.2,0.1h0.4
		c0.1,0,0.2,0,0.2-0.1c0.1-0.1,0.1-0.1,0.1-0.2v-2.7c0.6,0,1.1-0.1,1.5-0.2c0.4-0.1,0.6-0.2,0.7-0.2c0,0,0.1-0.1,0.1-0.1
		c0-0.1,0-0.1,0-0.2L54.4,23z"/>
	<path d="M28.5,22.9c0.3,0,0.6-0.1,0.8-0.3c0.2-0.2,0.3-0.5,0.3-0.8c0-0.3-0.1-0.6-0.3-0.8c-0.2-0.2-0.5-0.3-0.8-0.3
		c-0.3,0-0.6,0.1-0.8,0.3c-0.2,0.2-0.3,0.5-0.3,0.8c0,0.3,0.1,0.6,0.3,0.8C28,22.8,28.2,22.9,28.5,22.9z"/>
	<path d="M23.1,28.3c0.2-0.2,0.3-0.5,0.3-0.8c0-0.3-0.1-0.6-0.3-0.8c-0.2-0.2-0.5-0.3-0.8-0.3c-0.3,0-0.6,0.1-0.8,0.3
		c-0.2,0.2-0.3,0.5-0.3,0.8c0,0.3,0.1,0.6,0.3,0.8c0.2,0.2,0.5,0.3,0.8,0.3C22.6,28.6,22.9,28.5,23.1,28.3z"/>
	<path d="M22.3,15.6c-0.3,0-0.6,0.1-0.8,0.3c-0.2,0.2-0.3,0.5-0.3,0.8c0,0.3,0.1,0.6,0.3,0.8c0.2,0.2,0.5,0.3,0.8,0.3
		c0.3,0,0.6-0.1,0.8-0.3c0.2-0.2,0.3-0.5,0.3-0.8c0-0.3-0.1-0.6-0.3-0.8C22.9,15.7,22.6,15.6,22.3,15.6z"/>
	<path d="M45.8,27.5c0.3,0,0.6-0.1,0.8-0.3c0.2-0.2,0.3-0.5,0.3-0.8c0-0.3-0.1-0.6-0.3-0.8c-0.2-0.2-0.5-0.3-0.8-0.3
		s-0.6,0.1-0.8,0.3c-0.2,0.2-0.3,0.5-0.3,0.8c0,0.3,0.1,0.6,0.3,0.8C45.2,27.4,45.5,27.5,45.8,27.5z"/>
	<path d="M46.6,34.3c0-0.3-0.1-0.6-0.3-0.8c-0.2-0.2-0.5-0.3-0.8-0.3c-0.3,0-0.6,0.1-0.8,0.3c-0.2,0.2-0.3,0.5-0.3,0.8
		c0,0.3,0.1,0.6,0.3,0.8c0.2,0.2,0.5,0.3,0.8,0.3c0.3,0,0.6-0.1,0.8-0.3C46.5,34.9,46.6,34.6,46.6,34.3z"/>
	<path d="M31.5,13.1c-0.3,0-0.6,0.1-0.8,0.3c-0.2,0.2-0.3,0.5-0.3,0.8c0,0.3,0.1,0.6,0.3,0.8c0.2,0.2,0.5,0.3,0.8,0.3
		c0.3,0,0.6-0.1,0.8-0.3c0.2-0.2,0.3-0.5,0.3-0.8c0-0.3-0.1-0.6-0.3-0.8C32.1,13.3,31.8,13.1,31.5,13.1z"/>
	<path d="M15.8,34.7c0,0.3,0.1,0.6,0.3,0.8c0.2,0.2,0.5,0.3,0.8,0.3c0.3,0,0.6-0.1,0.8-0.3c0.2-0.2,0.3-0.5,0.3-0.8
		c0-0.3-0.1-0.6-0.3-0.8c-0.2-0.2-0.5-0.3-0.8-0.3c-0.3,0-0.6,0.1-0.8,0.3C15.9,34.2,15.8,34.4,15.8,34.7z"/>
	<path d="M27.6,34.5c0.2-0.2,0.3-0.5,0.3-0.8c0-0.3-0.1-0.6-0.3-0.8c-0.2-0.2-0.5-0.3-0.8-0.3s-0.6,0.1-0.8,0.3
		c-0.2,0.2-0.3,0.5-0.3,0.8c0,0.3,0.1,0.6,0.3,0.8c0.2,0.2,0.5,0.3,0.8,0.3S27.4,34.7,27.6,34.5z"/>
	<path d="M36.5,24.9c-0.3,0-0.6,0.1-0.8,0.3c-0.2,0.2-0.3,0.5-0.3,0.8c0,0.3,0.1,0.6,0.3,0.8c0.2,0.2,0.5,0.3,0.8,0.3
		c0.3,0,0.6-0.1,0.8-0.3c0.2-0.2,0.3-0.5,0.3-0.8c0-0.3-0.1-0.6-0.3-0.8C37.1,25,36.8,24.9,36.5,24.9z"/>
	<path d="M40.4,19.6c0.3,0,0.6-0.1,0.8-0.3c0.2-0.2,0.3-0.5,0.3-0.8s-0.1-0.6-0.3-0.8c-0.2-0.2-0.5-0.3-0.8-0.3
		c-0.3,0-0.6,0.1-0.8,0.3c-0.2,0.2-0.3,0.5-0.3,0.8s0.1,0.6,0.3,0.8C39.8,19.5,40.1,19.6,40.4,19.6z"/>
	<path d="M40.4,39.4c-0.3,0-0.6,0.1-0.8,0.3c-0.2,0.2-0.3,0.5-0.3,0.8c0,0.3,0.1,0.6,0.3,0.8c0.2,0.2,0.5,0.3,0.8,0.3
		c0.3,0,0.6-0.1,0.8-0.3c0.2-0.2,0.3-0.5,0.3-0.8c0-0.3-0.1-0.6-0.3-0.8C41,39.6,40.8,39.4,40.4,39.4z"/>
	<path d="M15.4,25.9c0.3,0,0.6-0.1,0.8-0.3c0.2-0.2,0.3-0.5,0.3-0.8c0-0.3-0.1-0.6-0.3-0.8c-0.2-0.2-0.5-0.3-0.8-0.3
		c-0.3,0-0.6,0.1-0.8,0.3c-0.2,0.2-0.3,0.5-0.3,0.8c0,0.3,0.1,0.6,0.3,0.8C14.9,25.8,15.1,25.9,15.4,25.9z"/>
	<path d="M35.7,33.6c-0.3,0-0.6,0.1-0.8,0.3c-0.2,0.2-0.3,0.5-0.3,0.8c0,0.3,0.1,0.6,0.3,0.8c0.2,0.2,0.5,0.3,0.8,0.3
		c0.3,0,0.6-0.1,0.8-0.3c0.2-0.2,0.3-0.5,0.3-0.8c0-0.3-0.1-0.6-0.3-0.8C36.3,33.7,36,33.6,35.7,33.6z"/>
	<path d="M21.6,41.3c0,0,0.1,0,0.1,0c0,0.1,0.1,0.1,0.1,0.2c0.2,0.2,0.5,0.3,0.8,0.3c0.3,0,0.6-0.1,0.8-0.3c0.2-0.2,0.3-0.5,0.3-0.8
		c0-0.3-0.1-0.6-0.3-0.8c-0.2-0.2-0.5-0.3-0.8-0.3c-0.3,0-0.6,0.1-0.8,0.3c-0.1,0.1-0.1,0.1-0.1,0.2c0,0-0.1,0-0.1,0
		C15.2,40,10,45.4,10,52.1V57l-2.6-2.7c-0.2-0.2-0.6-0.2-0.9,0c-0.2,0.2-0.2,0.7,0,0.9l3.7,3.8c0.1,0.1,0.1,0.1,0.2,0.1
		c0.1,0,0.2,0,0.2,0s0.2,0,0.2,0c0,0,0.1-0.1,0.1-0.1c0,0,0,0,0.1,0l3.7-3.8c0.2-0.2,0.2-0.7,0-0.9c-0.2-0.2-0.6-0.2-0.9,0L11.2,57
		v-4.8C11.2,46.1,15.9,41.3,21.6,41.3z"/>
	<path d="M23.5,61.7H0.7c-0.3,0-0.5,0.3-0.5,0.6S0.4,63,0.7,63h22.8c0.3,0,0.5-0.3,0.5-0.6S23.8,61.7,23.5,61.7z"/>
</g>
</svg>
