<?xml version="1.0" encoding="utf-8"?>
<!-- Generator: Adobe Illustrator 23.0.2, SVG Export Plug-In . SVG Version: 6.00 Build 0)  -->
<svg version="1.1" id="Calque_1" xmlns="http://www.w3.org/2000/svg" xmlns:xlink="http://www.w3.org/1999/xlink" x="0px" y="0px"
	 viewBox="0 0 28 28" style="enable-background:new 0 0 28 28;" xml:space="preserve">
<title>noun_bee_849472_000000</title>
<desc>Created with Sketch.</desc>
<g id="Page-1">
	<g id="impacts" transform="translate(-844.000000, -345.000000)">
		<g id="Group-3" transform="translate(844.000000, 345.000000)">
			<g id="noun_bee_849472_000000">
				<path id="Shape" d="M25.4,14l-5.8-4.9l1-0.5C20.8,8.5,21,8.2,21,7.9v-3l1.3-0.6c0.4-0.2,0.6-0.7,0.4-1.2
					c-0.2-0.4-0.7-0.6-1.2-0.4l-1.8,0.9c-0.3,0.1-0.5,0.5-0.5,0.8v3l-1,0.5c-0.2-0.5-0.6-1-1.1-1.3c0.2-0.4,0.3-0.8,0.3-1.3V4.6
					c0-0.9-0.6-1.7-1.5-1.9c-0.1-0.1-0.2-0.2-0.3-0.3c0.8-0.4,1.6-0.7,2.5-0.7h1c0.5,0,0.9-0.4,0.9-0.9S19.7,0,19.2,0h-1
					c-1.6,0-3,0.5-4.2,1.5C12.8,0.5,11.3,0,9.8,0h-1C8.3,0,7.9,0.4,7.9,0.9s0.4,0.9,0.9,0.9h1c0.9,0,1.7,0.2,2.5,0.7
					c-0.1,0.1-0.2,0.2-0.3,0.3c-0.9,0.2-1.5,1-1.5,1.9v0.6c0,0.5,0.1,0.9,0.3,1.3C10.4,6.8,10,7.3,9.8,7.9l-1-0.5v-3
					c0-0.3-0.2-0.6-0.5-0.8L6.5,2.7c-0.4-0.2-1,0-1.2,0.4c-0.2,0.4,0,1,0.4,1.2L7,4.9v3c0,0.3,0.2,0.6,0.5,0.8l1,0.5L2.6,14
					C1,15.4,0,17.5,0,19.7c0,2.2,1.8,4,4,4c0.7,0,1.4-0.2,1.9-0.5L5.3,27c-0.1,0.5,0.2,0.9,0.7,1c0,0,0.1,0,0.1,0
					c0.4,0,0.8-0.3,0.9-0.7l0.7-4.2l0.1-0.9l0.6-1l0.4-0.7c0.4,3.1,2.1,5.8,4.7,7.4C13.7,28,13.8,28,14,28s0.3,0,0.5-0.1
					c2.6-1.6,4.4-4.4,4.7-7.4l0.4,0.7l0.6,1l0.1,0.9l0.7,4.2c0.1,0.4,0.4,0.7,0.9,0.7c0,0,0.1,0,0.1,0c0.5-0.1,0.8-0.5,0.7-1
					l-0.6-3.9c0.6,0.3,1.2,0.5,1.9,0.5c2.2,0,4-1.8,4-4C28,17.5,27,15.4,25.4,14z M12.2,4.6c0-0.1,0.1-0.2,0.2-0.2
					c0.3,0,0.6-0.2,0.8-0.4c0.2-0.3,0.4-0.4,0.8-0.4s0.6,0.2,0.8,0.4c0.2,0.3,0.4,0.4,0.8,0.4c0.1,0,0.2,0.1,0.2,0.2v0.6
					c0,0.5-0.4,0.9-0.9,0.9h-1.8c-0.5,0-0.9-0.4-0.9-0.9V4.6z M12.9,8.1l-0.3-0.3h0.5h1.8h0.5l-0.3,0.3c-0.2,0.2-0.3,0.5-0.3,0.7
					l0.1,0.5c0.1,1,0.3,1.9,0.5,2.9h-2.9c0.2-0.9,0.4-1.9,0.5-2.9l0.1-0.5C13.1,8.6,13.1,8.3,12.9,8.1z M11.7,14.9
					c0.2-0.3,0.4-0.6,0.6-0.9h3.3c0.2,0.3,0.4,0.6,0.6,0.9c0.1,0.3,0.2,0.6,0.4,0.8h-5.3C11.5,15.5,11.6,15.2,11.7,14.9z M5.5,21.2
					c-0.4,0.4-1,0.6-1.6,0.6c-1.2,0-2.2-1-2.2-2.2c0-1.7,0.7-3.2,2-4.3l7.6-6.3l0,0l0,0.1C10.8,13.7,8.8,18,5.5,21.2z M14,26.1
					c-0.6-0.4-1.2-1-1.7-1.6h3.3C15.2,25.1,14.6,25.6,14,26.1z M16.7,22.7h-5.5c-0.3-0.6-0.4-1.1-0.6-1.8h6.6
					C17.2,21.6,17,22.2,16.7,22.7z M10.5,19.2c0-0.6,0.1-1.2,0.2-1.8h6.6c0.1,0.6,0.2,1.2,0.2,1.8H10.5z M24,21.9
					c-0.6,0-1.2-0.2-1.6-0.6c-3.2-3.2-5.3-7.5-5.8-12l0-0.1l0,0l7.6,6.3c1.3,1.1,2,2.6,2,4.3C26.2,20.9,25.3,21.9,24,21.9z"/>
			</g>
		</g>
	</g>
</g>
</svg>
