<svg id="Calque_1" data-name="Calque 1" xmlns="http://www.w3.org/2000/svg" viewBox="0 0 200 46"><defs><style>.cls-1{fill:#636363;}.cls-2,.cls-3,.cls-5{fill:#015a5c;}.cls-2{fill-rule:evenodd;}.cls-4{fill:#91c423;}.cls-5{stroke:#015a5c;stroke-linecap:round;stroke-linejoin:round;stroke-width:0.25px;}</style></defs><title>Plan de travail 1</title><path class="cls-1" d="M79.2637,25.9h2.3086a1.77,1.77,0,0,1,1.9931,1.7861,1.8056,1.8056,0,0,1-2.0508,1.8306H79.9131v2.668h-.6494Zm.6494,3.0542h1.6074c.9453,0,1.3711-.4853,1.3711-1.249a1.1911,1.1911,0,0,0-1.3369-1.2422H79.9131Z"/><path class="cls-1" d="M88.459,29.9106a2.1369,2.1369,0,0,1-1.8773,2.3681q-.1039.012-.2087.0138a2.1027,2.1027,0,0,1-2.0292-2.37A2.1237,2.1237,0,0,1,86.2,27.5613a2.1524,2.1524,0,0,1,.2212-.0148,2.09,2.09,0,0,1,2.0381,2.3641Zm-3.4863.0088c0,1.04.541,1.8433,1.4355,1.8433.91,0,1.4229-.752,1.4229-1.8418,0-1.0464-.5069-1.8447-1.4415-1.8447C85.4414,28.0762,84.9727,28.8564,84.9727,29.9194Z"/><path class="cls-1" d="M93.2559,30.8628c0,.4429.0078,1.106.01,1.3218h-.584a6.9723,6.9723,0,0,1-.0293-.7383,1.369,1.369,0,0,1-1.4179.8462c-.7032,0-1.4922-.3111-1.4922-1.648v-2.99h.5957V30.509c0,.6313.1992,1.2314,1.0293,1.2314.9316,0,1.2851-.521,1.2851-1.7417V27.6543h.6036Z"/><path class="cls-1" d="M94.8936,28.8857c0-.7026-.0079-1.0424-.0088-1.2314h.5908c.0107.1367.02.4565.02.9736A1.6647,1.6647,0,0,1,97.05,27.5464v.6216A1.5453,1.5453,0,0,0,95.4961,29.9v2.2842h-.6025Z"/><path class="cls-1" d="M104.19,30.8628c0,.4429.0078,1.106.0088,1.3218h-.584a7.1076,7.1076,0,0,1-.0273-.7383,1.3718,1.3718,0,0,1-1.42.8462c-.7032,0-1.49-.3111-1.49-1.648v-2.99h.5957V30.509c0,.6313.1983,1.2314,1.0293,1.2314.9317,0,1.2852-.521,1.2852-1.7417V27.6543h.6025Z"/><path class="cls-1" d="M105.83,28.7959c0-.396,0-.7842-.01-1.1416h.5889c.02.14.03.6772.0244.8076a1.452,1.452,0,0,1,1.4678-.9155c.8261,0,1.5185.4834,1.5185,1.7124v2.9258h-.6035v-2.84c0-.7509-.3047-1.247-1.0488-1.247-.9756,0-1.334.7846-1.334,1.7368V32.185H105.83Z"/><path class="cls-1" d="M111.3252,30.0137c.0078,1.0561.54,1.749,1.3633,1.749a1.1691,1.1691,0,0,0,1.208-.7827h.6113a1.785,1.785,0,0,1-1.84,1.3125c-1.3985,0-1.9551-1.1734-1.9551-2.3311,0-1.3193.66-2.415,2.0078-2.415a1.8959,1.8959,0,0,1,1.8848,2.0942c0,.1319,0,.2534-.01.3731Zm2.6621-.4683c-.0088-.8276-.4463-1.4849-1.2822-1.4849-.8711,0-1.2617.6075-1.3526,1.4849Z"/><path class="cls-1" d="M121.64,31.2656a5.9249,5.9249,0,0,0,.0635.919h-.5781a2.661,2.661,0,0,1-.0781-.65,1.4576,1.4576,0,0,1-1.4473.7578,1.3583,1.3583,0,0,1-1.5127-1.3706c0-1.003.7813-1.46,2.1348-1.46h.82v-.4272c0-.4287-.1318-.9815-1.0811-.9815-.8418,0-.9746.4327-1.0664.7959h-.5918c.0567-.5556.4-1.3037,1.6748-1.3022,1.0674.0015,1.6621.4438,1.6621,1.4556Zm-.59-1.3452h-.8174c-.959,0-1.52.2568-1.52.9722a.8778.8778,0,0,0,.8571.898.8665.8665,0,0,0,.1116-.0045c1.2022,0,1.3682-.8032,1.3682-1.71Z"/><path class="cls-1" d="M123.2881,32.1846V25.561h.6025v6.6236Z"/><path class="cls-1" d="M125.5381,25.561h.6025v.9239h-.6025Zm0,2.0933h.6025v4.53h-.6025Z"/><path class="cls-1" d="M127.7881,28.8228c0-.39,0-.8086-.0088-1.1685h.585c.0107.146.03.51.0244.7563a1.4059,1.4059,0,0,1,1.34-.8642,1.2669,1.2669,0,0,1,1.2871.8579,1.54,1.54,0,0,1,1.461-.8579c.7148,0,1.4257.415,1.4257,1.6592v2.979h-.5976V29.2783c0-.57-.2051-1.1826-.9863-1.1826-.8135,0-1.1758.6387-1.1758,1.4829v2.606h-.5918v-2.89c0-.6255-.1836-1.1972-.961-1.1972-.81,0-1.2011.6919-1.2011,1.5883v2.4991h-.6006Z"/><path class="cls-1" d="M135.8125,30.0137c.0078,1.0561.54,1.749,1.3633,1.749a1.17,1.17,0,0,0,1.209-.7827h.6113a1.7855,1.7855,0,0,1-1.8408,1.3125c-1.3985,0-1.9541-1.1734-1.9541-2.3311,0-1.3193.6592-2.415,2.0068-2.415a1.897,1.897,0,0,1,1.8961,1.8979,1.92,1.92,0,0,1-.01.1963c0,.1319,0,.2534-.0108.3731Zm2.6621-.4683c-.0088-.8276-.4453-1.4849-1.2812-1.4849-.8711,0-1.2627.6075-1.3536,1.4849Z"/><path class="cls-1" d="M140.38,28.7959c0-.396,0-.7842-.0088-1.1416h.5879c.0195.14.03.6772.0234.8076a1.4554,1.4554,0,0,1,1.4688-.9155c.8261,0,1.5185.4834,1.5185,1.7124v2.9258h-.6035v-2.84c0-.7509-.3037-1.247-1.0478-1.247-.9766,0-1.336.7846-1.336,1.7368V32.185H140.38Z"/><path class="cls-1" d="M144.9375,27.6543h.8145V26.2759h.6035v1.3784h1.0429v.5229h-1.0429v2.8116c0,.477.1084.7373.5312.7373a1.7224,1.7224,0,0,0,.4375-.0464v.4853a1.8237,1.8237,0,0,1-.6152.0826c-.6367,0-.957-.3243-.957-1.0616V28.1772h-.8145Z"/><path class="cls-1" d="M151.7344,31.2656a5.9126,5.9126,0,0,0,.0635.919H151.22a2.7169,2.7169,0,0,1-.0781-.65,1.4558,1.4558,0,0,1-1.4463.7578,1.359,1.359,0,0,1-1.5137-1.3706c0-1.003.7813-1.46,2.1348-1.46h.82v-.4272c0-.4287-.1318-.9815-1.08-.9815-.8427,0-.9746.4327-1.0664.7959h-.5918c.0567-.5556.4-1.3037,1.6739-1.3022,1.0673.0015,1.6621.4438,1.6621,1.4556Zm-.59-1.3452h-.8164c-.959,0-1.5195.2568-1.5195.9722a.8778.8778,0,0,0,.8571.898.8665.8665,0,0,0,.1116-.0045c1.2012,0,1.3672-.8032,1.3672-1.71Z"/><path class="cls-1" d="M152.6953,27.6543h.8145V26.2759h.6035v1.3784h1.0429v.5229h-1.0429v2.8116c0,.477.1084.7373.5312.7373a1.7224,1.7224,0,0,0,.4375-.0464v.4853a1.8241,1.8241,0,0,1-.6152.0826c-.6367,0-.957-.3243-.957-1.0616V28.1772h-.8145Z"/><path class="cls-1" d="M156.2539,25.561h.6035v.9239h-.6035Zm0,2.0933h.6035v4.53h-.6035Z"/><path class="cls-1" d="M162.2754,29.9106a2.1369,2.1369,0,0,1-1.8772,2.3681c-.0693.008-.139.0126-.2087.0138a2.1027,2.1027,0,0,1-2.0293-2.37,2.1226,2.1226,0,0,1,2.0761-2.376,2.0909,2.0909,0,0,1,2.0391,2.3641Zm-3.4873.0088c0,1.04.542,1.8433,1.4355,1.8433.91,0,1.4229-.752,1.4229-1.8418,0-1.0464-.5069-1.8447-1.4414-1.8447C159.2578,28.0762,158.7881,28.8564,158.7881,29.9194Z"/><path class="cls-1" d="M163.5723,28.7959c0-.396,0-.7842-.01-1.1416h.5889c.02.14.03.6772.0244.8076a1.452,1.452,0,0,1,1.4678-.9155c.8261,0,1.5185.4834,1.5185,1.7124v2.9258h-.6035v-2.84c0-.7509-.3047-1.247-1.0488-1.247-.9756,0-1.334.7846-1.334,1.7368V32.185h-.6035Z"/><path class="cls-1" d="M79.1172,38.8857c0-.7026-.0078-1.0424-.01-1.2314h.5918c.01.1367.02.4565.02.9736a1.6636,1.6636,0,0,1,1.5537-1.0815v.6216A1.5454,1.5454,0,0,0,79.72,39.9v2.2842h-.6025Z"/><path class="cls-1" d="M82.57,40.0137c.0078,1.0561.5391,1.749,1.3633,1.749a1.1715,1.1715,0,0,0,1.209-.7827h.61a1.7844,1.7844,0,0,1-1.8408,1.3125c-1.3984,0-1.9531-1.1734-1.9531-2.3311,0-1.3193.6582-2.415,2.0058-2.415A1.8968,1.8968,0,0,1,85.85,39.6406c0,.1319,0,.2534-.0108.3731Zm2.6621-.4683c-.0088-.8276-.4463-1.4849-1.2822-1.4849-.8711,0-1.2627.6075-1.3525,1.4849Zm.2129-4.0742L84.0859,36.87h-.6035L84.68,35.4712Z"/><path class="cls-1" d="M87.3984,40.9131a1.1216,1.1216,0,0,0,1.2071.8716c.7422,0,1.0381-.333,1.0381-.7969,0-.4741-.2129-.7017-1.1592-.93-1.2266-.2964-1.5078-.6694-1.5078-1.2749,0-.6328.4716-1.2363,1.56-1.2363a1.4715,1.4715,0,0,1,1.64,1.2807l.0006.0054H89.585a.986.986,0,0,0-1.0743-.7827c-.7177,0-.9267.3511-.9267.6841,0,.3808.2031.57,1.0693.7793,1.3213.3164,1.6192.7519,1.6192,1.4287,0,.81-.6514,1.3506-1.6836,1.3506a1.6032,1.6032,0,0,1-1.7959-1.3794Z"/><path class="cls-1" d="M91.5625,35.561h.6035v.9239h-.6035Zm0,2.0933h.6035v4.53h-.6035Z"/><path class="cls-1" d="M93.8125,42.1846V35.561h.6035v6.6236Z"/><path class="cls-1" d="M96.0625,35.561h.6035v.9239h-.6035Zm0,2.0933h.6035v4.53h-.6035Z"/><path class="cls-1" d="M98.58,40.0137c.0078,1.0561.54,1.749,1.3633,1.749a1.17,1.17,0,0,0,1.2089-.7827h.6114a1.7855,1.7855,0,0,1-1.8408,1.3125c-1.3985,0-1.9541-1.1734-1.9541-2.3311,0-1.3193.6591-2.415,2.0068-2.415a1.8969,1.8969,0,0,1,1.896,1.8978,1.9222,1.9222,0,0,1-.01.1964c0,.1319,0,.2534-.0107.3731Zm2.6621-.4683c-.0088-.8276-.4453-1.4849-1.2813-1.4849-.8711,0-1.2627.6075-1.3535,1.4849Z"/><path class="cls-1" d="M103.1475,38.7959c0-.396,0-.7842-.0088-1.1416h.5879c.0195.14.03.6772.0234.8076a1.4554,1.4554,0,0,1,1.4688-.9155c.8261,0,1.5185.4834,1.5185,1.7124v2.9258h-.6035v-2.84c0-.7509-.3037-1.247-1.0479-1.247-.9765,0-1.3359.7846-1.3359,1.7368V42.185h-.6025Z"/><path class="cls-1" d="M107.7031,37.6543h.8164V36.2759h.6026v1.3784h1.042v.5229h-1.042v2.8116c0,.477.1084.7373.5322.7373a1.7069,1.7069,0,0,0,.4355-.0464v.4853a1.818,1.818,0,0,1-.6142.0826c-.6367,0-.9561-.3243-.9561-1.0616V38.1772h-.8164Z"/><path class="cls-1" d="M111.4863,40.0137c.0078,1.0561.5391,1.749,1.3633,1.749a1.171,1.171,0,0,0,1.208-.7827h.61a1.7842,1.7842,0,0,1-1.84,1.3125c-1.3984,0-1.9541-1.1734-1.9541-2.3311,0-1.3193.6592-2.415,2.0069-2.415a1.8959,1.8959,0,0,1,1.8847,2.0942c0,.1319,0,.2534-.01.3731Zm2.6621-.4683c-.01-.8276-.4472-1.4849-1.2832-1.4849-.8711,0-1.2617.6075-1.3515,1.4849Z"/><path class="cls-1" d="M115.53,43.2139a6.0385,6.0385,0,0,0,.6357-2.26h.6094a5.4251,5.4251,0,0,1-.7315,2.26Z"/><path class="cls-1" d="M124.1133,40.8281a1.77,1.77,0,0,1-1.8106,1.4644c-1.1845,0-1.9756-.8677-1.9756-2.3521A2.1324,2.1324,0,0,1,122.18,37.561q.0883-.011.1773-.0146a1.6528,1.6528,0,0,1,1.7559,1.48h-.6055a1.1266,1.1266,0,0,0-1.1621-.95c-.8867,0-1.3906.7568-1.3906,1.8418,0,1.0571.4775,1.8462,1.3535,1.8462a1.1844,1.1844,0,0,0,1.1973-.9361Z"/><path class="cls-1" d="M125.4375,35.561h.6035v.9239h-.6035Zm0,2.0933h.6035v4.53h-.6035Z"/><path class="cls-1" d="M127.1074,37.6543h.8155V36.2759h.6025v1.3784h1.043v.5229h-1.043v2.8116c0,.477.1094.7373.5322.7373a1.7147,1.7147,0,0,0,.4365-.0464v.4853a1.8216,1.8216,0,0,1-.6152.0826c-.6367,0-.956-.3243-.956-1.0616V38.1772h-.8155Z"/><path class="cls-1" d="M134.3936,39.9106a2.137,2.137,0,0,1-1.8777,2.3681q-.1042.012-.2093.0138a2.1034,2.1034,0,0,1-2.0456-2.16q.0028-.1055.0163-.21a2.1237,2.1237,0,0,1,2.0782-2.376,2.09,2.09,0,0,1,2.0381,2.3641Zm-3.4874.0088c0,1.04.5411,1.8433,1.4356,1.8433.91,0,1.4238-.752,1.4238-1.8418,0-1.0464-.5078-1.8447-1.4414-1.8447C131.375,38.0762,130.9062,38.8564,130.9062,39.9194Z"/><path class="cls-1" d="M135.82,37.6543c.83,2.3989,1.2305,3.5288,1.3692,4.0049h.01c.166-.5347.51-1.5791,1.3252-4.0049h.6162l-1.6689,4.7681c-.4717,1.3339-.8037,1.65-1.6709,1.65a3.5181,3.5181,0,0,1-.4483-.0284v-.5571a2.9633,2.9633,0,0,0,.3916.0254c.6172,0,.83-.2876,1.1338-1.14l-1.7148-4.7183Z"/><path class="cls-1" d="M140.4834,40.0137c.0078,1.0561.54,1.749,1.3633,1.749a1.1693,1.1693,0,0,0,1.208-.7827h.6113a1.785,1.785,0,0,1-1.84,1.3125c-1.3985,0-1.9551-1.1734-1.9551-2.3311,0-1.3193.66-2.415,2.0078-2.415a1.8968,1.8968,0,0,1,1.8848,2.0942c0,.1319,0,.2534-.01.3731Zm2.6621-.4683c-.0088-.8276-.4463-1.4849-1.2822-1.4849-.8711,0-1.2617.6075-1.3526,1.4849Z"/><path class="cls-1" d="M145.05,38.7959c0-.396,0-.7842-.0088-1.1416h.5879c.02.14.03.6772.0234.8076a1.4555,1.4555,0,0,1,1.4688-.9155c.8262,0,1.5185.4834,1.5185,1.7124v2.9258h-.6035v-2.84c0-.7509-.3037-1.247-1.0478-1.247-.9766,0-1.336.7846-1.336,1.7368V42.185H145.05Z"/><path class="cls-1" d="M150.2793,38.7959c0-.396,0-.7842-.01-1.1416h.5879c.02.14.03.6772.0244.8076a1.4532,1.4532,0,0,1,1.4678-.9155c.8262,0,1.5195.4834,1.5195,1.7124v2.9258h-.6035v-2.84c0-.7509-.3047-1.247-1.0488-1.247-.9766,0-1.335.7846-1.335,1.7368V42.185h-.6025Z"/><path class="cls-1" d="M155.7734,40.0137c.0078,1.0561.54,1.749,1.3633,1.749a1.17,1.17,0,0,0,1.209-.7827h.6113a1.7853,1.7853,0,0,1-1.8408,1.3125c-1.3984,0-1.9541-1.1734-1.9541-2.3311,0-1.3193.6592-2.415,2.0068-2.415a1.8968,1.8968,0,0,1,1.8858,2.0942c0,.1319,0,.2534-.0108.3731Zm2.6621-.4683c-.0087-.8276-.4453-1.4849-1.2812-1.4849-.8711,0-1.2627.6075-1.3535,1.4849Z"/><path class="cls-1" d="M163.127,40.0137c.0078,1.0561.539,1.749,1.3632,1.749a1.1715,1.1715,0,0,0,1.209-.7827h.61a1.7847,1.7847,0,0,1-1.8408,1.3125c-1.3985,0-1.9532-1.1734-1.9532-2.3311,0-1.3193.6582-2.415,2.0059-2.415a1.8963,1.8963,0,0,1,1.8961,1.8965,1.9192,1.9192,0,0,1-.01.1977c0,.1319,0,.2534-.0107.3731Zm2.6621-.4683c-.0088-.8276-.4463-1.4849-1.2823-1.4849-.8711,0-1.2627.6075-1.3525,1.4849Z"/><path class="cls-1" d="M167.12,37.6543h.8154V36.2759h.6036v1.3784h1.042v.5229h-1.042v2.8116c0,.477.1074.7373.5312.7373a1.7147,1.7147,0,0,0,.4365-.0464v.4853a1.8233,1.8233,0,0,1-.6142.0826c-.6367,0-.9571-.3243-.9571-1.0616V38.1772H167.12Z"/><path class="cls-1" d="M173.2363,42.1846V35.561h.6026v6.6236Z"/><path class="cls-1" d="M179.2578,39.9106a2.137,2.137,0,0,1-1.8777,2.3681q-.1043.012-.2092.0138a2.1034,2.1034,0,0,1-2.0456-2.16q.0028-.1055.0163-.21a2.1231,2.1231,0,0,1,1.8548-2.3611,2.1477,2.1477,0,0,1,.2224-.0149,2.0908,2.0908,0,0,1,2.039,2.3641Zm-3.4883.0088c0,1.04.542,1.8433,1.4356,1.8433.91,0,1.4238-.752,1.4238-1.8418,0-1.0464-.5078-1.8447-1.4414-1.8447-.9482,0-1.4175.78-1.4175,1.8432Z"/><path class="cls-1" d="M184.0508,40.8281a1.7684,1.7684,0,0,1-1.81,1.4644c-1.1846,0-1.9756-.8677-1.9756-2.3521a2.1326,2.1326,0,0,1,1.853-2.3794q.0888-.0111.1783-.0146a1.6515,1.6515,0,0,1,1.7539,1.48h-.6045a1.1269,1.1269,0,0,0-1.1611-.95c-.8887,0-1.3907.7568-1.3907,1.8418,0,1.0571.4766,1.8462,1.3526,1.8462a1.186,1.186,0,0,0,1.1982-.9361Z"/><path class="cls-1" d="M188.5332,41.2656a5.9126,5.9126,0,0,0,.0635.919h-.5781a2.717,2.717,0,0,1-.0782-.65,1.4558,1.4558,0,0,1-1.4463.7578,1.3589,1.3589,0,0,1-1.5136-1.3706c0-1.003.7812-1.46,2.1347-1.46h.82v-.4272c0-.4287-.1318-.9815-1.08-.9815-.8428,0-.9746.4327-1.0664.7959h-.5918c.0566-.5556.4-1.3037,1.6738-1.3022,1.0674.0015,1.6621.4438,1.6621,1.4556Zm-.59-1.3452h-.8164c-.959,0-1.52.2568-1.52.9722a.8779.8779,0,0,0,.8573.898.8649.8649,0,0,0,.1115-.0045c1.2011,0,1.3672-.8032,1.3672-1.71Z"/><path class="cls-1" d="M190.1816,42.1846V35.561h.6036v6.6236Z"/><path class="cls-1" d="M192.6992,40.0137c.0078,1.0561.54,1.749,1.3633,1.749a1.17,1.17,0,0,0,1.209-.7827h.6113a1.7854,1.7854,0,0,1-1.8408,1.3125c-1.3984,0-1.9541-1.1734-1.9541-2.3311,0-1.3193.6592-2.415,2.0068-2.415a1.897,1.897,0,0,1,1.8961,1.8979,1.92,1.92,0,0,1-.01.1963c0,.1319,0,.2534-.0108.3731Zm2.6621-.4683c-.0088-.8276-.4453-1.4849-1.2812-1.4849-.8711,0-1.2627.6075-1.3535,1.4849Z"/><g id="Nouveau_symbole_3" data-name="Nouveau symbole 3"><path class="cls-2" d="M61.0392,22.2978h2.91V41.4772a1.0279,1.0279,0,0,0,2.0557,0V1.3312C59.5384,5.5663,60.7619,22.2978,61.0392,22.2978Z"/><path class="cls-3" d="M10.9228,3.4923V14.5456a4.2855,4.2855,0,0,1-1.2389,3.0252A4.35,4.35,0,0,1,7.85,18.6622V41.2654a1.24,1.24,0,1,1-2.4793,0V18.763A4.2611,4.2611,0,0,1,3.2684,17.62,4.34,4.34,0,0,1,2,14.5651V3.4923a.7434.7434,0,1,1,1.4868,0V13.26H5.7181V3.4917a.7431.7431,0,1,1,1.4862.0006V13.26H9.4365V3.4923a.7432.7432,0,1,1,1.4863,0Z"/><path class="cls-3" d="M55.0222,16.2748a98.4746,98.4746,0,0,0-10.4959,1.7385,8.3452,8.3452,0,0,0-1.4155-5.5149,8.7,8.7,0,0,0-3.9195-3.2441,9.2207,9.2207,0,0,0-1.6251-.5076,8.5381,8.5381,0,0,0-7.8492,2.3568c-.2235.2344-.4256.465-.6362.7225A7.8225,7.8225,0,0,0,27.19,16.4184a10.2725,10.2725,0,0,0,.2733,3.4016c-3.265-1.1309-6.6763-2.1427-10.3467-3.0644a19.676,19.676,0,0,1,37.9057-.4808Z"/><path class="cls-3" d="M32.53,17.1168a3.2329,3.2329,0,0,1,3.2231-3.2233c.0222,0,.0444,0,.0665,0a3.1913,3.1913,0,0,1,3.1587,3.2234,2.9835,2.9835,0,0,1-.9344,2.2642,3.0212,3.0212,0,0,1-2.2907.96,2.9448,2.9448,0,0,1-2.2515-.9459l-.0135-.0136a2.9684,2.9684,0,0,1-.9579-2.2652Z"/><path class="cls-3" d="M55.83,21.9163a99.6394,99.6394,0,0,0-14.2588,2.975c.3912-.5891.7817-1.1734,1.1733-1.765a10.8935,10.8935,0,0,0,1.3938-3.0709A96.7131,96.7131,0,0,1,55.48,18.1547a19.8047,19.8047,0,0,1,.351,3.71C55.831,21.882,55.83,21.8989,55.83,21.9163Z"/><path class="cls-3" d="M55.1292,27.0634c-2.6909.5743-5.3794,1.2648-8.0048,2.0548-1.4274-.8945-2.896-1.7446-4.3883-2.5657a97.6632,97.6632,0,0,1,12.9929-2.689A19.65,19.65,0,0,1,55.1292,27.0634Z"/><path class="cls-3" d="M49.2422,30.4972c1.71-.4853,3.4413-.9233,5.1773-1.3158a19.7225,19.7225,0,0,1-1.896,3.6118Q50.9188,31.615,49.2422,30.4972Z"/><path class="cls-4" d="M47.44,38.0107A85.447,85.447,0,0,0,37.34,31.3431c.8506-1.321,1.7074-2.6394,2.56-3.9275.0346-.0515.0692-.1043.1037-.156A86.19,86.19,0,0,1,51.387,34.3335,19.8662,19.8662,0,0,1,47.44,38.0107Z"/><path class="cls-4" d="M18.5328,30.6893A90.4822,90.4822,0,0,1,38.9944,41.3906,19.6419,19.6419,0,0,1,18.5328,30.6893Z"/><path class="cls-4" d="M16.6478,24.6678A97.2362,97.2362,0,0,1,34.282,31.8519c.1807.2923.3628.5859.5434.8778l.8019,1.2983.6793-1.071a83.9994,83.9994,0,0,1,9.4011,6.1471,19.56,19.56,0,0,1-4.193,1.7425,92.3371,92.3371,0,0,0-24-12.5834A19.6167,19.6167,0,0,1,16.6478,24.6678Z"/><path class="cls-4" d="M16.4645,22.6149c-.01-.2509-.0193-.5019-.0193-.7551a19.8336,19.8336,0,0,1,.2677-3.2289,118.6445,118.6445,0,0,1,11.6607,3.5337c.534,1.0474,1.1084,2.0637,1.7206,3.0163.7515,1.16,1.5053,2.3478,2.2469,3.54A100.0788,100.0788,0,0,0,16.4645,22.6149Z"/></g><g id="PARCEL"><path class="cls-5" d="M80.7266,11.876v7.0312H79.32V1.8447h5.3672a6.5887,6.5887,0,0,1,2.1035.375,5.1885,5.1885,0,0,1,1.711,1.002,4.6688,4.6688,0,0,1,1.1542,1.5762,5.0035,5.0035,0,0,1,.4219,2.0976,4.9637,4.9637,0,0,1-.4219,2.0918,4.5628,4.5628,0,0,1-1.1542,1.5586,5.1262,5.1262,0,0,1-1.7168.9785,6.5979,6.5979,0,0,1-2.0977.3516Zm0-1.1836h3.9609a4.6689,4.6689,0,0,0,1.57-.2813,3.9382,3.9382,0,0,0,1.2656-.75,3.43,3.43,0,0,0,.85-1.1718,3.7934,3.7934,0,0,0,.3106-1.57,4.0262,4.0262,0,0,0-.3047-1.5937,3.49,3.49,0,0,0-.8437-1.2129A3.86,3.86,0,0,0,86.27,3.3389,4.8064,4.8064,0,0,0,84.688,3.04H80.7266Z"/><path class="cls-5" d="M104.9648,14.1494H98.4727l-1.5118,4.7578H95.543l5.5547-17.0625h1.2656l5.5078,17.0625h-1.4063Zm-6.0937-1.2539h5.6953l-2.8359-8.9766Z"/><path class="cls-5" d="M119.9219,11.7705h-4.2188v7.1367H114.32V1.8447h4.8164a6.98,6.98,0,0,1,2.1211.3633,5.2374,5.2374,0,0,1,1.74.9785A4.544,4.544,0,0,1,124.17,4.751a5.0039,5.0039,0,0,1,.4278,2.1211,4.5937,4.5937,0,0,1-.252,1.5586,4.5155,4.5155,0,0,1-.6973,1.2714,4.9827,4.9827,0,0,1-1.06,1.002,6.9247,6.9247,0,0,1-1.3535.7383l3.8906,7.3125v.1523H123.66Zm-4.2188-1.1836h3.7149a4.2466,4.2466,0,0,0,1.4882-.3047,3.7864,3.7864,0,0,0,1.2012-.7676,3.4391,3.4391,0,0,0,.7969-1.166,3.7864,3.7864,0,0,0,.2871-1.4882,3.8744,3.8744,0,0,0-.3164-1.6055,3.49,3.49,0,0,0-.8613-1.1895,3.76,3.76,0,0,0-1.2891-.7441,5.3015,5.3015,0,0,0-1.6-.2813h-3.4219Z"/><path class="cls-5" d="M142.3789,13.7275a7.6018,7.6018,0,0,1-.5742,2.1387,5.73,5.73,0,0,1-1.1485,1.7227,5.0827,5.0827,0,0,1-1.6933,1.1425,5.6321,5.6321,0,0,1-2.1973.41,5.2132,5.2132,0,0,1-1.8457-.3105,4.9493,4.9493,0,0,1-1.4648-.85,5.6536,5.6536,0,0,1-1.1074-1.2656,7.7775,7.7775,0,0,1-.7735-1.5644,9.5771,9.5771,0,0,1-.4512-1.74,12.1984,12.1984,0,0,1-.1582-1.7929V9.1455a12.2009,12.2009,0,0,1,.1582-1.793,9.5771,9.5771,0,0,1,.4512-1.74,7.7775,7.7775,0,0,1,.7735-1.5644,5.7718,5.7718,0,0,1,1.1074-1.2715,4.88,4.88,0,0,1,1.4648-.8555,5.2127,5.2127,0,0,1,1.8457-.31,5.7,5.7,0,0,1,2.2207.41,5.0824,5.0824,0,0,1,1.6937,1.142,5.6275,5.6275,0,0,1,1.1426,1.7285,7.5577,7.5577,0,0,1,.5566,2.168h-1.3945a7.681,7.681,0,0,0-.4512-1.6524,4.5906,4.5906,0,0,0-.8262-1.3535,3.7219,3.7219,0,0,0-1.2422-.9141,4.0343,4.0343,0,0,0-1.6992-.3339,3.66,3.66,0,0,0-1.4765.2812,3.8071,3.8071,0,0,0-1.1309.75,4.4615,4.4615,0,0,0-.8262,1.0957,7.0116,7.0116,0,0,0-.5508,1.33,9.3853,9.3853,0,0,0-.31,1.4355,10.565,10.565,0,0,0-.1,1.4239v2.4961a10.6883,10.6883,0,0,0,.1,1.43,9.3731,9.3731,0,0,0,.31,1.4414,7.0116,7.0116,0,0,0,.5508,1.33,4.5705,4.5705,0,0,0,.8262,1.1016,3.7492,3.7492,0,0,0,1.1309.7559,3.66,3.66,0,0,0,1.4765.2812,4.2337,4.2337,0,0,0,1.7168-.3223,3.5485,3.5485,0,0,0,1.2422-.8964,4.58,4.58,0,0,0,.82-1.3477,7.2311,7.2311,0,0,0,.4395-1.6641Z"/><path class="cls-5" d="M158.3438,10.7275H150.82v6.961h8.6719v1.2187H149.4258V1.8447h10.0195V3.0752H150.82V9.5088h7.5235Z"/><path class="cls-5" d="M168.625,17.6885h8.6836v1.2187h-10.09V1.8447h1.4062Z"/></g></svg>