<?xml version="1.0" encoding="UTF-8"?>
<svg width="681px" height="57px" viewBox="0 0 681 57" version="1.1" xmlns="http://www.w3.org/2000/svg" xmlns:xlink="http://www.w3.org/1999/xlink">
    <!-- Generator: Sketch 53.2 (72643) - https://sketchapp.com -->
    <title>emploi2</title>
    <desc>Created with Sketch.</desc>
    <g id="emploi2" stroke="none" stroke-width="1" fill="none" fill-rule="evenodd">
        <g transform="translate(0.000000, 1.000000)" fill="#A261C0">
            <path d="M10.9876994,8.24789383 C10.8630746,6.89531793 9.64628333,5.83333333 8.16179154,5.83333333 L2.83820846,5.83333333 C1.35339297,5.83333333 0.136925431,6.89531793 0.0123006297,8.24789383 L9.76996262e-15,14.9131057 C9.76996262e-15,15.3658735 0.393943853,15.7327299 0.880142428,15.7327299 L0.965275734,15.7327299 C1.45147431,15.7327299 1.84541816,15.3658735 1.84541816,14.9131057 L1.84541816,8.47668926 L2.48634571,8.47668926 L2.48634571,15.6742499 L2.51353658,15.6742499 L2.51353658,23.8918946 C2.51353658,24.5038244 3.04634807,25 3.70346066,25 C4.36057324,25 4.89338473,24.5038244 4.89338473,23.8918946 L4.89338473,15.6742499 L6.13380613,15.6742499 L6.13380613,23.8918946 C6.13380613,24.5038244 6.66661762,25 7.32373021,25 C7.9808428,25 8.51365429,24.5038244 8.51365429,23.8918946 L8.51365429,15.6742499 L8.51365429,15.0816125 L8.51365429,8.47668926 L9.15458184,8.47668926 L9.15458184,14.9134071 C9.15458184,15.3661749 9.54852569,15.7330314 10.0347243,15.7330314 L10.1198576,15.7330314 C10.6060561,15.7330314 11,15.3661749 11,14.9134071 L10.9876994,8.24789383 Z" id="Path"></path>
            <path d="M3.66662112,2.17 C3.66662112,3.27277778 4.69259913,4.16666667 5.95833333,4.16666667 C7.22406754,4.16666667 8.25004555,3.27277778 8.25004555,2.17 C7.60474428,0.723333333 6.84084021,-3.02424752e-13 5.95833333,-3.02424752e-13 C5.07582646,-3.02424752e-13 4.31192239,0.723333333 3.66662112,2.17 Z" id="Path"></path>
            <path d="M10.9876994,37.2478938 C10.8630746,35.8953179 9.64628333,34.8333333 8.16179154,34.8333333 L2.83820846,34.8333333 C1.35339297,34.8333333 0.136925431,35.8953179 0.0123006297,37.2478938 L9.76996262e-15,43.9131057 C9.76996262e-15,44.3658735 0.393943853,44.7327299 0.880142428,44.7327299 L0.965275734,44.7327299 C1.45147431,44.7327299 1.84541816,44.3658735 1.84541816,43.9131057 L1.84541816,37.4766893 L2.48634571,37.4766893 L2.48634571,44.6742499 L2.51353658,44.6742499 L2.51353658,52.8918946 C2.51353658,53.5038244 3.04634807,54 3.70346066,54 C4.36057324,54 4.89338473,53.5038244 4.89338473,52.8918946 L4.89338473,44.6742499 L6.13380613,44.6742499 L6.13380613,52.8918946 C6.13380613,53.5038244 6.66661762,54 7.32373021,54 C7.9808428,54 8.51365429,53.5038244 8.51365429,52.8918946 L8.51365429,44.6742499 L8.51365429,44.0816125 L8.51365429,37.4766893 L9.15458184,37.4766893 L9.15458184,43.9134071 C9.15458184,44.3661749 9.54852569,44.7330314 10.0347243,44.7330314 L10.1198576,44.7330314 C10.6060561,44.7330314 11,44.3661749 11,43.9134071 L10.9876994,37.2478938 Z" id="Path"></path>
            <path d="M3.66662112,31.17 C3.66662112,32.2727778 4.69259913,33.1666667 5.95833333,33.1666667 C7.22406754,33.1666667 8.25004555,32.2727778 8.25004555,31.17 C7.60474428,29.7233333 6.84084021,29 5.95833333,29 C5.07582646,29 4.31192239,29.7233333 3.66662112,31.17 Z" id="Path"></path>
            <path d="M26.9876994,8.4145605 C26.8630746,7.0619846 25.6462833,6 24.1617915,6 L18.8382085,6 C17.353393,6 16.1369254,7.0619846 16.0123006,8.4145605 L16,15.0797724 C16,15.5325401 16.3939439,15.8993966 16.8801424,15.8993966 L16.9652757,15.8993966 C17.4514743,15.8993966 17.8454182,15.5325401 17.8454182,15.0797724 L17.8454182,8.64335593 L18.4863457,8.64335593 L18.4863457,15.8409166 L18.5135366,15.8409166 L18.5135366,24.0585613 C18.5135366,24.6704911 19.0463481,25.1666667 19.7034607,25.1666667 C20.3605732,25.1666667 20.8933847,24.6704911 20.8933847,24.0585613 L20.8933847,15.8409166 L22.1338061,15.8409166 L22.1338061,24.0585613 C22.1338061,24.6704911 22.6666176,25.1666667 23.3237302,25.1666667 C23.9808428,25.1666667 24.5136543,24.6704911 24.5136543,24.0585613 L24.5136543,15.8409166 L24.5136543,15.2482792 L24.5136543,8.64335593 L25.1545818,8.64335593 L25.1545818,15.0800738 C25.1545818,15.5328416 25.5485257,15.899698 26.0347243,15.899698 L26.1198576,15.899698 C26.6060561,15.899698 27,15.5328416 27,15.0800738 L26.9876994,8.4145605 Z" id="Path"></path>
            <path d="M19,2.17 C19,3.27277778 20.025978,4.16666667 21.2917122,4.16666667 C22.5574464,4.16666667 23.5834244,3.27277778 23.5834244,2.17 C22.9381232,0.723333333 22.1742191,-3.02424752e-13 21.2917122,-3.02424752e-13 C20.4092053,-3.02424752e-13 19.6453013,0.723333333 19,2.17 Z" id="Path"></path>
            <path d="M26.9876994,37.4145605 C26.8630746,36.0619846 25.6462833,35 24.1617915,35 L18.8382085,35 C17.353393,35 16.1369254,36.0619846 16.0123006,37.4145605 L16,44.0797724 C16,44.5325401 16.3939439,44.8993966 16.8801424,44.8993966 L16.9652757,44.8993966 C17.4514743,44.8993966 17.8454182,44.5325401 17.8454182,44.0797724 L17.8454182,37.6433559 L18.4863457,37.6433559 L18.4863457,44.8409166 L18.5135366,44.8409166 L18.5135366,53.0585613 C18.5135366,53.6704911 19.0463481,54.1666667 19.7034607,54.1666667 C20.3605732,54.1666667 20.8933847,53.6704911 20.8933847,53.0585613 L20.8933847,44.8409166 L22.1338061,44.8409166 L22.1338061,53.0585613 C22.1338061,53.6704911 22.6666176,54.1666667 23.3237302,54.1666667 C23.9808428,54.1666667 24.5136543,53.6704911 24.5136543,53.0585613 L24.5136543,44.8409166 L24.5136543,44.2482792 L24.5136543,37.6433559 L25.1545818,37.6433559 L25.1545818,44.0800738 C25.1545818,44.5328416 25.5485257,44.899698 26.0347243,44.899698 L26.1198576,44.899698 C26.6060561,44.899698 27,44.5328416 27,44.0800738 L26.9876994,37.4145605 Z" id="Path"></path>
            <path d="M19,31.17 C19,32.2727778 20.025978,33.1666667 21.2917122,33.1666667 C22.5574464,33.1666667 23.5834244,32.2727778 23.5834244,31.17 C22.9381232,29.7233333 22.1742191,29 21.2917122,29 C20.4092053,29 19.6453013,29.7233333 19,31.17 Z" id="Path"></path>
            <path d="M41.9876994,37.2478938 C41.8630746,35.8953179 40.6462833,34.8333333 39.1617915,34.8333333 L33.8382085,34.8333333 C32.353393,34.8333333 31.1369254,35.8953179 31.0123006,37.2478938 L31,43.9131057 C31,44.3658735 31.3939439,44.7327299 31.8801424,44.7327299 L31.9652757,44.7327299 C32.4514743,44.7327299 32.8454182,44.3658735 32.8454182,43.9131057 L32.8454182,37.4766893 L33.4863457,37.4766893 L33.4863457,44.6742499 L33.5135366,44.6742499 L33.5135366,52.8918946 C33.5135366,53.5038244 34.0463481,54 34.7034607,54 C35.3605732,54 35.8933847,53.5038244 35.8933847,52.8918946 L35.8933847,44.6742499 L37.1338061,44.6742499 L37.1338061,52.8918946 C37.1338061,53.5038244 37.6666176,54 38.3237302,54 C38.9808428,54 39.5136543,53.5038244 39.5136543,52.8918946 L39.5136543,44.6742499 L39.5136543,44.0816125 L39.5136543,37.4766893 L40.1545818,37.4766893 L40.1545818,43.9134071 C40.1545818,44.3661749 40.5485257,44.7330314 41.0347243,44.7330314 L41.1198576,44.7330314 C41.6060561,44.7330314 42,44.3661749 42,43.9134071 L41.9876994,37.2478938 Z" id="Path"></path>
            <path d="M34.6666211,31.17 C34.6666211,32.2727778 35.6925991,33.1666667 36.9583333,33.1666667 C38.2240675,33.1666667 39.2500455,32.2727778 39.2500455,31.17 C38.6047443,29.7233333 37.8408402,29 36.9583333,29 C36.0758265,29 35.3119224,29.7233333 34.6666211,31.17 Z" id="Path"></path>
            <g id="noun_Fruit_17919_000000" transform="translate(65.000000, 10.000000)">
                <path d="M39.02465,15.9530074 L39.02766,15.9505306 C36.09678,13.6327275 36.00175,11.920484 35.85813,9.32941547 L35.83147,8.87328503 C35.61991,5.26882258 33.61654,3.64697959 31.81957,3.64697959 C31.79463,3.64697959 31.77227,3.64697959 31.74862,3.64780516 C31.4803,3.6531714 30.99182,3.65152025 30.45647,3.64697959 C30.45647,3.64367729 30.45819,3.64078777 30.45819,3.63748547 L30.45819,1.02123684 C30.45819,0.546530954 30.057,0.161400002 29.5625,0.161400002 C29.068,0.161400002 28.66681,0.546530954 28.66681,1.02123684 L28.66681,3.63748547 C28.66681,3.64078777 28.66853,3.64367729 28.66853,3.64697959 C28.13318,3.65152025 27.6447,3.6531714 27.37638,3.64780516 C27.35273,3.64697959 27.33037,3.64697959 27.30543,3.64697959 C25.50846,3.64697959 23.50509,5.26882258 23.29353,8.87328503 L23.26687,9.32941547 C23.2114,10.3213444 23.16281,11.183658 22.96028,12.0013904 C20.73245,10.5747961 18.08064,9.71949988 15.22888,9.63735512 L15.22888,9.62084361 L15.22888,6.18108346 C15.22888,5.70637757 14.82812,5.32124662 14.33319,5.32124662 C13.83783,5.32124662 13.4375,5.70637757 13.4375,6.18108346 L13.4375,9.68647686 C5.91551,10.3411582 0,16.4219342 0,23.8104218 C0,31.6344004 6.63103,38 14.78125,38 C17.5526,38 20.13862,37.2512031 22.35914,35.9711483 C24.44292,37.2495519 26.91069,38 29.5625,38 C36.97226,38 43,32.2135416 43,25.1003835 C43,21.5281184 41.4778,18.2914499 39.02465,15.9530074 Z M14.78125,36.2803263 C7.61917,36.2803263 1.79181,30.686227 1.79181,23.8104218 C1.79181,17.3705204 6.90451,12.0554656 13.4375,11.4082145 L13.4375,12.2007669 C13.4375,12.6754728 13.83826,13.0606038 14.33319,13.0606038 C14.82812,13.0606038 15.22888,12.6754728 15.22888,12.2007669 L15.22888,11.3628078 C22.18284,11.5923178 27.77069,17.0803307 27.77069,23.8104218 C27.77069,30.686227 21.94333,36.2803263 14.78125,36.2803263 Z M29.5625,36.2803263 C27.53806,36.2803263 25.63273,35.7796148 23.9725,34.9036792 C23.97121,34.9045048 23.97035,34.9045048 23.96949,34.906156 C27.37122,32.3035293 29.5625,28.3011395 29.5625,23.8104218 C29.5625,19.551278 27.58794,15.7342299 24.48248,13.1303649 C24.9142,11.9184201 24.98472,10.7118416 25.05696,9.42105435 L25.08233,8.97111572 C25.22079,6.62070239 26.32718,5.36747884 27.30629,5.36747884 C27.31532,5.36747884 27.32392,5.36747884 27.33295,5.36747884 C27.77198,5.37738575 28.70336,5.36995557 29.56336,5.3588103 C30.42336,5.36995557 31.35431,5.37738575 31.79377,5.36747884 C31.8028,5.36747884 31.81226,5.36747884 31.82043,5.36747884 C32.79954,5.36747884 33.90593,6.62111518 34.04439,8.97111572 L34.06976,9.42105435 C34.22112,12.1355465 34.35055,14.4793552 37.88945,17.2784688 C39.95173,19.2974136 41.20991,22.0568995 41.20991,25.1003835 C41.20819,31.2649554 35.98412,36.2803263 29.5625,36.2803263 Z M18.76692,14.1924677 C18.73381,14.2869961 17.92369,16.5007767 14.33319,16.5007767 C10.74269,16.5007767 9.933,14.2869961 9.89946,14.1924677 C9.7438,13.7417035 9.9975,13.2550268 10.4662,13.104772 C10.92888,12.9553429 11.43026,13.1918703 11.59323,13.6306636 C11.62634,13.7078549 12.126,14.7806902 14.33319,14.7806902 C16.57435,14.7806902 17.05466,13.6748319 17.07401,13.6281869 C17.25246,13.1951726 17.76072,12.9652498 18.21824,13.1245859 C18.67447,13.2839219 18.92,13.7507848 18.76692,14.1924677 Z M22.13984,6.63514996 C23.59625,5.23868907 24.53322,3.5355269 24.97827,1.74113864 C25.12017,1.16777649 25.21305,0.586984151 25.25175,0 C24.64115,0.0379764711 24.03571,0.125900257 23.43887,0.262532996 C21.56923,0.689768296 19.79505,1.59005833 18.34036,2.98651922 C16.88567,4.38298011 15.94784,6.08614228 15.50236,7.88053054 C15.36046,8.45430548 15.26801,9.03509782 15.22931,9.6212564 C15.83991,9.5841055 16.44535,9.49618171 17.04305,9.35913619 C18.91226,8.93190089 20.68644,8.03161085 22.13984,6.63514996 Z M19.60671,4.20259187 C20.59012,3.25854634 21.75026,2.590243 22.98264,2.17786806 C22.55307,3.36133048 21.8569,4.47503177 20.87349,5.41907731 C19.89008,6.36353564 18.72994,7.03142618 17.49627,7.44380112 C17.92713,6.25992592 18.62373,5.1470502 19.60671,4.20259187 Z" id="Shape"></path>
            </g>
        </g>
    </g>
</svg>