<?xml version="1.0" encoding="UTF-8"?>
<svg width="681px" height="57px" viewBox="0 0 681 57" version="1.1" xmlns="http://www.w3.org/2000/svg" xmlns:xlink="http://www.w3.org/1999/xlink">
    <!-- Generator: Sketch 53.2 (72643) - https://sketchapp.com -->
    <title>emploi3</title>
    <desc>Created with Sketch.</desc>
    <g id="emploi3" stroke="none" stroke-width="1" fill="none" fill-rule="evenodd">
        <g transform="translate(0.000000, -1.000000)" fill="#F5A623">
            <path d="M10.9876994,10.2478938 C10.8630746,8.89531793 9.64628333,7.83333333 8.16179154,7.83333333 L2.83820846,7.83333333 C1.35339297,7.83333333 0.136925431,8.89531793 0.0123006297,10.2478938 L9.76996262e-15,16.9131057 C9.76996262e-15,17.3658735 0.393943853,17.7327299 0.880142428,17.7327299 L0.965275734,17.7327299 C1.45147431,17.7327299 1.84541816,17.3658735 1.84541816,16.9131057 L1.84541816,10.4766893 L2.48634571,10.4766893 L2.48634571,17.6742499 L2.51353658,17.6742499 L2.51353658,25.8918946 C2.51353658,26.5038244 3.04634807,27 3.70346066,27 C4.36057324,27 4.89338473,26.5038244 4.89338473,25.8918946 L4.89338473,17.6742499 L6.13380613,17.6742499 L6.13380613,25.8918946 C6.13380613,26.5038244 6.66661762,27 7.32373021,27 C7.9808428,27 8.51365429,26.5038244 8.51365429,25.8918946 L8.51365429,17.6742499 L8.51365429,17.0816125 L8.51365429,10.4766893 L9.15458184,10.4766893 L9.15458184,16.9134071 C9.15458184,17.3661749 9.54852569,17.7330314 10.0347243,17.7330314 L10.1198576,17.7330314 C10.6060561,17.7330314 11,17.3661749 11,16.9134071 L10.9876994,10.2478938 Z" id="Path"></path>
            <path d="M3.66662112,4.17 C3.66662112,5.27277778 4.69259913,6.16666667 5.95833333,6.16666667 C7.22406754,6.16666667 8.25004555,5.27277778 8.25004555,4.17 C7.60474428,2.72333333 6.84084021,2 5.95833333,2 C5.07582646,2 4.31192239,2.72333333 3.66662112,4.17 Z" id="Path"></path>
            <path d="M10.9876994,39.2478938 C10.8630746,37.8953179 9.64628333,36.8333333 8.16179154,36.8333333 L2.83820846,36.8333333 C1.35339297,36.8333333 0.136925431,37.8953179 0.0123006297,39.2478938 L9.76996262e-15,45.9131057 C9.76996262e-15,46.3658735 0.393943853,46.7327299 0.880142428,46.7327299 L0.965275734,46.7327299 C1.45147431,46.7327299 1.84541816,46.3658735 1.84541816,45.9131057 L1.84541816,39.4766893 L2.48634571,39.4766893 L2.48634571,46.6742499 L2.51353658,46.6742499 L2.51353658,54.8918946 C2.51353658,55.5038244 3.04634807,56 3.70346066,56 C4.36057324,56 4.89338473,55.5038244 4.89338473,54.8918946 L4.89338473,46.6742499 L6.13380613,46.6742499 L6.13380613,54.8918946 C6.13380613,55.5038244 6.66661762,56 7.32373021,56 C7.9808428,56 8.51365429,55.5038244 8.51365429,54.8918946 L8.51365429,46.6742499 L8.51365429,46.0816125 L8.51365429,39.4766893 L9.15458184,39.4766893 L9.15458184,45.9134071 C9.15458184,46.3661749 9.54852569,46.7330314 10.0347243,46.7330314 L10.1198576,46.7330314 C10.6060561,46.7330314 11,46.3661749 11,45.9134071 L10.9876994,39.2478938 Z" id="Path"></path>
            <path d="M3.66662112,33.17 C3.66662112,34.2727778 4.69259913,35.1666667 5.95833333,35.1666667 C7.22406754,35.1666667 8.25004555,34.2727778 8.25004555,33.17 C7.60474428,31.7233333 6.84084021,31 5.95833333,31 C5.07582646,31 4.31192239,31.7233333 3.66662112,33.17 Z" id="Path"></path>
            <path d="M26.9876994,39.4145605 C26.8630746,38.0619846 25.6462833,37 24.1617915,37 L18.8382085,37 C17.353393,37 16.1369254,38.0619846 16.0123006,39.4145605 L16,46.0797724 C16,46.5325401 16.3939439,46.8993966 16.8801424,46.8993966 L16.9652757,46.8993966 C17.4514743,46.8993966 17.8454182,46.5325401 17.8454182,46.0797724 L17.8454182,39.6433559 L18.4863457,39.6433559 L18.4863457,46.8409166 L18.5135366,46.8409166 L18.5135366,55.0585613 C18.5135366,55.6704911 19.0463481,56.1666667 19.7034607,56.1666667 C20.3605732,56.1666667 20.8933847,55.6704911 20.8933847,55.0585613 L20.8933847,46.8409166 L22.1338061,46.8409166 L22.1338061,55.0585613 C22.1338061,55.6704911 22.6666176,56.1666667 23.3237302,56.1666667 C23.9808428,56.1666667 24.5136543,55.6704911 24.5136543,55.0585613 L24.5136543,46.8409166 L24.5136543,46.2482792 L24.5136543,39.6433559 L25.1545818,39.6433559 L25.1545818,46.0800738 C25.1545818,46.5328416 25.5485257,46.899698 26.0347243,46.899698 L26.1198576,46.899698 C26.6060561,46.899698 27,46.5328416 27,46.0800738 L26.9876994,39.4145605 Z" id="Path"></path>
            <path d="M19,33.17 C19,34.2727778 20.025978,35.1666667 21.2917122,35.1666667 C22.5574464,35.1666667 23.5834244,34.2727778 23.5834244,33.17 C22.9381232,31.7233333 22.1742191,31 21.2917122,31 C20.4092053,31 19.6453013,31.7233333 19,33.17 Z" id="Path"></path>
            <g id="noun_Wheat_1878264_000000" transform="translate(47.000000, 0.000000)">
                <path d="M29.9999998,20.4181444 L29.9999998,14.9986102 C30.000217,14.6392066 29.8566183,14.2944613 29.6008398,14.0403245 C29.3450613,13.7861877 28.9980888,13.6435108 28.6363634,13.6437266 L23.181818,13.6437266 C22.8344114,13.6592887 22.4881474,13.6940728 22.1446362,13.7479172 C23.2638437,10.394206 22.3618814,6.69996413 19.8204545,4.22857317 L15.9641591,0.396759276 C15.4316437,-0.132253092 14.5683563,-0.132253092 14.0358409,0.396759276 L10.1795455,4.22857317 C7.63811146,6.70004781 6.73622392,10.3943873 7.8555683,13.7481204 C7.51199337,13.6942005 7.16566084,13.6593485 6.81818195,13.6437266 L1.36363659,13.6437266 C1.00191119,13.6435108 0.654938724,13.7861877 0.399160198,14.0403245 C0.143381672,14.2944613 -0.000216984698,14.6392066 2.46105472e-07,14.9986102 L2.46105472e-07,20.4181444 C0.00872608424,21.8552217 0.35004977,23.271045 0.997568412,24.5560942 C1.11549339,24.5146016 1.23874152,24.4899232 1.36363659,24.482795 C1.00191119,24.4825791 0.654938724,24.6252561 0.399160198,24.8793928 C0.143381672,25.1335296 -0.000216984698,25.4782749 2.46105472e-07,25.8376785 L2.46105472e-07,31.2572127 C0.00872608424,32.69429 0.35004977,34.1101134 0.997568412,35.3951625 C1.11549339,35.35367 1.23874152,35.3289915 1.36363659,35.3218633 C1.00191119,35.3216475 0.654938724,35.4643244 0.399160198,35.7184612 C0.143381672,35.9725979 -0.000216984698,36.3173433 2.46105472e-07,36.6767469 L2.46105472e-07,42.096281 C0.0063868875,47.331621 4.27629345,51.5741202 9.54545463,51.5804658 L13.6363637,51.5804658 L13.6363637,55.6451165 C13.6363637,56.393398 14.2468844,57 15,57 C15.7531156,57 16.3636363,56.393398 16.3636363,55.6451165 L16.3636363,51.5804658 L20.4545454,51.5804658 C25.7237221,51.5741574 29.9936506,47.3316364 29.9999998,42.096281 L29.9999998,36.6767469 C30.000217,36.3173433 29.8566183,35.9725979 29.6008398,35.7184612 C29.3450613,35.4643244 28.9980888,35.3216475 28.6363634,35.3218633 C28.7612585,35.3289915 28.8845066,35.35367 29.0024316,35.3951625 C29.6499502,34.1101134 29.9912739,32.69429 29.9999998,31.2572127 L29.9999998,25.8376785 C30.000217,25.4782749 29.8566183,25.1335296 29.6008398,24.8793928 C29.3450613,24.6252561 28.9980888,24.4825791 28.6363634,24.482795 C28.7612585,24.4899232 28.8845066,24.5146016 29.0024316,24.5560942 C29.6499502,23.271045 29.9912739,21.8552217 29.9999998,20.4181444 Z M12.107591,6.14444624 L15,3.27060276 L17.892409,6.14444624 C20.2524433,8.47754644 20.5580828,12.1680715 18.6136363,14.8530957 C17.1191339,15.6678762 15.8714017,16.8653086 15,18.3210556 C14.1285983,16.8653086 12.8808661,15.6678762 11.3863637,14.8530957 C9.44191718,12.1680715 9.74755668,8.47754644 12.107591,6.14444624 L12.107591,6.14444624 Z M2.72727293,20.4181444 L2.72727293,16.3534937 L6.81818195,16.3534937 C10.5821241,16.3574143 13.6324177,19.388129 13.6363637,23.1279114 L13.6363637,27.1925621 L13.4401364,27.1925621 L13.4401364,27.1925621 C11.6780827,25.4581334 9.29851795,24.4843927 6.81818195,24.482795 L4.12500018,24.482795 C3.22332684,23.3167342 2.73223401,21.8886153 2.72727293,20.4181444 Z M2.72727293,31.2572127 L2.72727293,27.1925621 L6.81818195,27.1925621 C10.5821241,27.1964827 13.6324177,30.2271974 13.6363637,33.9669798 L13.6363637,38.0316304 L13.4401364,38.0316304 L13.4401364,38.0316304 C11.6780827,36.2972017 9.29851795,35.3234611 6.81818195,35.3218633 L4.12500018,35.3218633 C3.22332684,34.1558026 2.73223401,32.7276836 2.72727293,31.2572127 Z M13.6363637,48.8706987 L9.54545463,48.8706987 C5.78151253,48.8667781 2.73121886,45.8360635 2.72727293,42.096281 L2.72727293,38.0316304 L6.81818195,38.0316304 C10.5821241,38.035551 13.6324177,41.0662657 13.6363637,44.8060481 L13.6363637,48.8706987 Z M27.2727271,42.096281 C27.2687811,45.8360635 24.2184875,48.8667781 20.4545454,48.8706987 L16.3636363,48.8706987 L16.3636363,44.8060481 C16.3675823,41.0662657 19.4178759,38.035551 23.181818,38.0316304 L27.2727271,38.0316304 L27.2727271,42.096281 Z M23.181818,35.3218633 C20.7014348,35.3234254 18.3218145,36.2971687 16.5597272,38.0316304 L16.5597272,38.0316304 L16.3636363,38.0316304 L16.3636363,33.9669798 C16.3675823,30.2271974 19.4178759,27.1964827 23.181818,27.1925621 L27.2727271,27.1925621 L27.2727271,31.2572127 C27.267766,32.7276836 26.7766732,34.1558026 25.8749998,35.3218633 L23.181818,35.3218633 Z M23.181818,24.482795 C20.7014348,24.4843571 18.3218145,25.4581004 16.5597272,27.1925621 L16.5597272,27.1925621 L16.3636363,27.1925621 L16.3636363,23.1279114 C16.3675823,19.388129 19.4178759,16.3574143 23.181818,16.3534937 L27.2727271,16.3534937 L27.2727271,20.4181444 C27.267766,21.8886153 26.7766732,23.3167342 25.8749998,24.482795 L23.181818,24.482795 Z" id="Shape"></path>
            </g>
        </g>
    </g>
</svg>