<?xml version="1.0" encoding="UTF-8"?>
<svg width="681px" height="57px" viewBox="0 0 681 57" version="1.1" xmlns="http://www.w3.org/2000/svg" xmlns:xlink="http://www.w3.org/1999/xlink">
    <!-- Generator: Sketch 53.2 (72643) - https://sketchapp.com -->
    <title>emploi1</title>
    <desc>Created with Sketch.</desc>
    <g id="emploi1" stroke="none" stroke-width="1" fill="none" fill-rule="evenodd">
        <g transform="translate(0.000000, 1.000000)" fill="#91C423">
            <g id="noun_Farmer_1431067_000000">
                <path d="M10.9876994,8.24789383 C10.8630746,6.89531793 9.64628333,5.83333333 8.16179154,5.83333333 L2.83820846,5.83333333 C1.35339297,5.83333333 0.136925431,6.89531793 0.0123006297,8.24789383 L0,14.9131057 C0,15.3658735 0.393943853,15.7327299 0.880142428,15.7327299 L0.965275734,15.7327299 C1.45147431,15.7327299 1.84541816,15.3658735 1.84541816,14.9131057 L1.84541816,8.47668926 L2.48634571,8.47668926 L2.48634571,15.6742499 L2.51353658,15.6742499 L2.51353658,23.8918946 C2.51353658,24.5038244 3.04634807,25 3.70346066,25 C4.36057324,25 4.89338473,24.5038244 4.89338473,23.8918946 L4.89338473,15.6742499 L6.13380613,15.6742499 L6.13380613,23.8918946 C6.13380613,24.5038244 6.66661762,25 7.32373021,25 C7.9808428,25 8.51365429,24.5038244 8.51365429,23.8918946 L8.51365429,15.6742499 L8.51365429,15.0816125 L8.51365429,8.47668926 L9.15458184,8.47668926 L9.15458184,14.9134071 C9.15458184,15.3661749 9.54852569,15.7330314 10.0347243,15.7330314 L10.1198576,15.7330314 C10.6060561,15.7330314 11,15.3661749 11,14.9134071 L10.9876994,8.24789383 Z" id="Path"></path>
                <path d="M3.66662112,2.17 C3.66662112,3.27277778 4.69259913,4.16666667 5.95833333,4.16666667 C7.22406754,4.16666667 8.25004555,3.27277778 8.25004555,2.17 C7.60474428,0.723333333 6.84084021,0 5.95833333,0 C5.07582646,0 4.31192239,0.723333333 3.66662112,2.17 Z" id="Path"></path>
            </g>
            <g id="noun_Farmer_1431067_000000" transform="translate(0.000000, 29.000000)">
                <path d="M10.9876994,8.24789383 C10.8630746,6.89531793 9.64628333,5.83333333 8.16179154,5.83333333 L2.83820846,5.83333333 C1.35339297,5.83333333 0.136925431,6.89531793 0.0123006297,8.24789383 L0,14.9131057 C0,15.3658735 0.393943853,15.7327299 0.880142428,15.7327299 L0.965275734,15.7327299 C1.45147431,15.7327299 1.84541816,15.3658735 1.84541816,14.9131057 L1.84541816,8.47668926 L2.48634571,8.47668926 L2.48634571,15.6742499 L2.51353658,15.6742499 L2.51353658,23.8918946 C2.51353658,24.5038244 3.04634807,25 3.70346066,25 C4.36057324,25 4.89338473,24.5038244 4.89338473,23.8918946 L4.89338473,15.6742499 L6.13380613,15.6742499 L6.13380613,23.8918946 C6.13380613,24.5038244 6.66661762,25 7.32373021,25 C7.9808428,25 8.51365429,24.5038244 8.51365429,23.8918946 L8.51365429,15.6742499 L8.51365429,15.0816125 L8.51365429,8.47668926 L9.15458184,8.47668926 L9.15458184,14.9134071 C9.15458184,15.3661749 9.54852569,15.7330314 10.0347243,15.7330314 L10.1198576,15.7330314 C10.6060561,15.7330314 11,15.3661749 11,14.9134071 L10.9876994,8.24789383 Z" id="Path"></path>
                <path d="M3.66662112,2.17 C3.66662112,3.27277778 4.69259913,4.16666667 5.95833333,4.16666667 C7.22406754,4.16666667 8.25004555,3.27277778 8.25004555,2.17 C7.60474428,0.723333333 6.84084021,0 5.95833333,0 C5.07582646,0 4.31192239,0.723333333 3.66662112,2.17 Z" id="Path"></path>
            </g>
            <g id="noun_Farmer_1431067_000000" transform="translate(16.000000, 29.000000)">
                <path d="M10.9876994,8.24789383 C10.8630746,6.89531793 9.64628333,5.83333333 8.16179154,5.83333333 L2.83820846,5.83333333 C1.35339297,5.83333333 0.136925431,6.89531793 0.0123006297,8.24789383 L0,14.9131057 C0,15.3658735 0.393943853,15.7327299 0.880142428,15.7327299 L0.965275734,15.7327299 C1.45147431,15.7327299 1.84541816,15.3658735 1.84541816,14.9131057 L1.84541816,8.47668926 L2.48634571,8.47668926 L2.48634571,15.6742499 L2.51353658,15.6742499 L2.51353658,23.8918946 C2.51353658,24.5038244 3.04634807,25 3.70346066,25 C4.36057324,25 4.89338473,24.5038244 4.89338473,23.8918946 L4.89338473,15.6742499 L6.13380613,15.6742499 L6.13380613,23.8918946 C6.13380613,24.5038244 6.66661762,25 7.32373021,25 C7.9808428,25 8.51365429,24.5038244 8.51365429,23.8918946 L8.51365429,15.6742499 L8.51365429,15.0816125 L8.51365429,8.47668926 L9.15458184,8.47668926 L9.15458184,14.9134071 C9.15458184,15.3661749 9.54852569,15.7330314 10.0347243,15.7330314 L10.1198576,15.7330314 C10.6060561,15.7330314 11,15.3661749 11,14.9134071 L10.9876994,8.24789383 Z" id="Path"></path>
                <path d="M3.66662112,2.17 C3.66662112,3.27277778 4.69259913,4.16666667 5.95833333,4.16666667 C7.22406754,4.16666667 8.25004555,3.27277778 8.25004555,2.17 C7.60474428,0.723333333 6.84084021,0 5.95833333,0 C5.07582646,0 4.31192239,0.723333333 3.66662112,2.17 Z" id="Path"></path>
            </g>
            <g id="noun_Farmer_1431067_000000" transform="translate(31.000000, 29.000000)">
                <path d="M10.9876994,8.24789383 C10.8630746,6.89531793 9.64628333,5.83333333 8.16179154,5.83333333 L2.83820846,5.83333333 C1.35339297,5.83333333 0.136925431,6.89531793 0.0123006297,8.24789383 L0,14.9131057 C0,15.3658735 0.393943853,15.7327299 0.880142428,15.7327299 L0.965275734,15.7327299 C1.45147431,15.7327299 1.84541816,15.3658735 1.84541816,14.9131057 L1.84541816,8.47668926 L2.48634571,8.47668926 L2.48634571,15.6742499 L2.51353658,15.6742499 L2.51353658,23.8918946 C2.51353658,24.5038244 3.04634807,25 3.70346066,25 C4.36057324,25 4.89338473,24.5038244 4.89338473,23.8918946 L4.89338473,15.6742499 L6.13380613,15.6742499 L6.13380613,23.8918946 C6.13380613,24.5038244 6.66661762,25 7.32373021,25 C7.9808428,25 8.51365429,24.5038244 8.51365429,23.8918946 L8.51365429,15.6742499 L8.51365429,15.0816125 L8.51365429,8.47668926 L9.15458184,8.47668926 L9.15458184,14.9134071 C9.15458184,15.3661749 9.54852569,15.7330314 10.0347243,15.7330314 L10.1198576,15.7330314 C10.6060561,15.7330314 11,15.3661749 11,14.9134071 L10.9876994,8.24789383 Z" id="Path"></path>
                <path d="M3.66662112,2.17 C3.66662112,3.27277778 4.69259913,4.16666667 5.95833333,4.16666667 C7.22406754,4.16666667 8.25004555,3.27277778 8.25004555,2.17 C7.60474428,0.723333333 6.84084021,0 5.95833333,0 C5.07582646,0 4.31192239,0.723333333 3.66662112,2.17 Z" id="Path"></path>
            </g>
            <g id="noun_Farmer_1431067_000000" transform="translate(47.000000, 29.000000)">
                <path d="M10.9876994,8.24789383 C10.8630746,6.89531793 9.64628333,5.83333333 8.16179154,5.83333333 L2.83820846,5.83333333 C1.35339297,5.83333333 0.136925431,6.89531793 0.0123006297,8.24789383 L0,14.9131057 C0,15.3658735 0.393943853,15.7327299 0.880142428,15.7327299 L0.965275734,15.7327299 C1.45147431,15.7327299 1.84541816,15.3658735 1.84541816,14.9131057 L1.84541816,8.47668926 L2.48634571,8.47668926 L2.48634571,15.6742499 L2.51353658,15.6742499 L2.51353658,23.8918946 C2.51353658,24.5038244 3.04634807,25 3.70346066,25 C4.36057324,25 4.89338473,24.5038244 4.89338473,23.8918946 L4.89338473,15.6742499 L6.13380613,15.6742499 L6.13380613,23.8918946 C6.13380613,24.5038244 6.66661762,25 7.32373021,25 C7.9808428,25 8.51365429,24.5038244 8.51365429,23.8918946 L8.51365429,15.6742499 L8.51365429,15.0816125 L8.51365429,8.47668926 L9.15458184,8.47668926 L9.15458184,14.9134071 C9.15458184,15.3661749 9.54852569,15.7330314 10.0347243,15.7330314 L10.1198576,15.7330314 C10.6060561,15.7330314 11,15.3661749 11,14.9134071 L10.9876994,8.24789383 Z" id="Path"></path>
                <path d="M3.66662112,2.17 C3.66662112,3.27277778 4.69259913,4.16666667 5.95833333,4.16666667 C7.22406754,4.16666667 8.25004555,3.27277778 8.25004555,2.17 C7.60474428,0.723333333 6.84084021,0 5.95833333,0 C5.07582646,0 4.31192239,0.723333333 3.66662112,2.17 Z" id="Path"></path>
            </g>
            <g id="noun_Farmer_1431067_000000" transform="translate(16.000000, 0.000000)">
                <path d="M10.9876994,8.24789383 C10.8630746,6.89531793 9.64628333,5.83333333 8.16179154,5.83333333 L2.83820846,5.83333333 C1.35339297,5.83333333 0.136925431,6.89531793 0.0123006297,8.24789383 L0,14.9131057 C0,15.3658735 0.393943853,15.7327299 0.880142428,15.7327299 L0.965275734,15.7327299 C1.45147431,15.7327299 1.84541816,15.3658735 1.84541816,14.9131057 L1.84541816,8.47668926 L2.48634571,8.47668926 L2.48634571,15.6742499 L2.51353658,15.6742499 L2.51353658,23.8918946 C2.51353658,24.5038244 3.04634807,25 3.70346066,25 C4.36057324,25 4.89338473,24.5038244 4.89338473,23.8918946 L4.89338473,15.6742499 L6.13380613,15.6742499 L6.13380613,23.8918946 C6.13380613,24.5038244 6.66661762,25 7.32373021,25 C7.9808428,25 8.51365429,24.5038244 8.51365429,23.8918946 L8.51365429,15.6742499 L8.51365429,15.0816125 L8.51365429,8.47668926 L9.15458184,8.47668926 L9.15458184,14.9134071 C9.15458184,15.3661749 9.54852569,15.7330314 10.0347243,15.7330314 L10.1198576,15.7330314 C10.6060561,15.7330314 11,15.3661749 11,14.9134071 L10.9876994,8.24789383 Z" id="Path"></path>
                <path d="M3.66662112,2.17 C3.66662112,3.27277778 4.69259913,4.16666667 5.95833333,4.16666667 C7.22406754,4.16666667 8.25004555,3.27277778 8.25004555,2.17 C7.60474428,0.723333333 6.84084021,0 5.95833333,0 C5.07582646,0 4.31192239,0.723333333 3.66662112,2.17 Z" id="Path"></path>
            </g>
            <g id="noun_Farmer_1431067_000000" transform="translate(31.000000, 0.000000)">
                <path d="M10.9876994,8.24789383 C10.8630746,6.89531793 9.64628333,5.83333333 8.16179154,5.83333333 L2.83820846,5.83333333 C1.35339297,5.83333333 0.136925431,6.89531793 0.0123006297,8.24789383 L0,14.9131057 C0,15.3658735 0.393943853,15.7327299 0.880142428,15.7327299 L0.965275734,15.7327299 C1.45147431,15.7327299 1.84541816,15.3658735 1.84541816,14.9131057 L1.84541816,8.47668926 L2.48634571,8.47668926 L2.48634571,15.6742499 L2.51353658,15.6742499 L2.51353658,23.8918946 C2.51353658,24.5038244 3.04634807,25 3.70346066,25 C4.36057324,25 4.89338473,24.5038244 4.89338473,23.8918946 L4.89338473,15.6742499 L6.13380613,15.6742499 L6.13380613,23.8918946 C6.13380613,24.5038244 6.66661762,25 7.32373021,25 C7.9808428,25 8.51365429,24.5038244 8.51365429,23.8918946 L8.51365429,15.6742499 L8.51365429,15.0816125 L8.51365429,8.47668926 L9.15458184,8.47668926 L9.15458184,14.9134071 C9.15458184,15.3661749 9.54852569,15.7330314 10.0347243,15.7330314 L10.1198576,15.7330314 C10.6060561,15.7330314 11,15.3661749 11,14.9134071 L10.9876994,8.24789383 Z" id="Path"></path>
                <path d="M3.66662112,2.17 C3.66662112,3.27277778 4.69259913,4.16666667 5.95833333,4.16666667 C7.22406754,4.16666667 8.25004555,3.27277778 8.25004555,2.17 C7.60474428,0.723333333 6.84084021,0 5.95833333,0 C5.07582646,0 4.31192239,0.723333333 3.66662112,2.17 Z" id="Path"></path>
            </g>
            <g id="noun_Farmer_1431067_000000" transform="translate(47.000000, 0.000000)">
                <path d="M10.9876994,8.24789383 C10.8630746,6.89531793 9.64628333,5.83333333 8.16179154,5.83333333 L2.83820846,5.83333333 C1.35339297,5.83333333 0.136925431,6.89531793 0.0123006297,8.24789383 L0,14.9131057 C0,15.3658735 0.393943853,15.7327299 0.880142428,15.7327299 L0.965275734,15.7327299 C1.45147431,15.7327299 1.84541816,15.3658735 1.84541816,14.9131057 L1.84541816,8.47668926 L2.48634571,8.47668926 L2.48634571,15.6742499 L2.51353658,15.6742499 L2.51353658,23.8918946 C2.51353658,24.5038244 3.04634807,25 3.70346066,25 C4.36057324,25 4.89338473,24.5038244 4.89338473,23.8918946 L4.89338473,15.6742499 L6.13380613,15.6742499 L6.13380613,23.8918946 C6.13380613,24.5038244 6.66661762,25 7.32373021,25 C7.9808428,25 8.51365429,24.5038244 8.51365429,23.8918946 L8.51365429,15.6742499 L8.51365429,15.0816125 L8.51365429,8.47668926 L9.15458184,8.47668926 L9.15458184,14.9134071 C9.15458184,15.3661749 9.54852569,15.7330314 10.0347243,15.7330314 L10.1198576,15.7330314 C10.6060561,15.7330314 11,15.3661749 11,14.9134071 L10.9876994,8.24789383 Z" id="Path"></path>
                <path d="M3.66662112,2.17 C3.66662112,3.27277778 4.69259913,4.16666667 5.95833333,4.16666667 C7.22406754,4.16666667 8.25004555,3.27277778 8.25004555,2.17 C7.60474428,0.723333333 6.84084021,0 5.95833333,0 C5.07582646,0 4.31192239,0.723333333 3.66662112,2.17 Z" id="Path"></path>
            </g>
            <g id="noun_Farmer_1431067_000000" transform="translate(63.000000, 0.000000)">
                <path d="M10.9876994,8.24789383 C10.8630746,6.89531793 9.64628333,5.83333333 8.16179154,5.83333333 L2.83820846,5.83333333 C1.35339297,5.83333333 0.136925431,6.89531793 0.0123006297,8.24789383 L0,14.9131057 C0,15.3658735 0.393943853,15.7327299 0.880142428,15.7327299 L0.965275734,15.7327299 C1.45147431,15.7327299 1.84541816,15.3658735 1.84541816,14.9131057 L1.84541816,8.47668926 L2.48634571,8.47668926 L2.48634571,15.6742499 L2.51353658,15.6742499 L2.51353658,23.8918946 C2.51353658,24.5038244 3.04634807,25 3.70346066,25 C4.36057324,25 4.89338473,24.5038244 4.89338473,23.8918946 L4.89338473,15.6742499 L6.13380613,15.6742499 L6.13380613,23.8918946 C6.13380613,24.5038244 6.66661762,25 7.32373021,25 C7.9808428,25 8.51365429,24.5038244 8.51365429,23.8918946 L8.51365429,15.6742499 L8.51365429,15.0816125 L8.51365429,8.47668926 L9.15458184,8.47668926 L9.15458184,14.9134071 C9.15458184,15.3661749 9.54852569,15.7330314 10.0347243,15.7330314 L10.1198576,15.7330314 C10.6060561,15.7330314 11,15.3661749 11,14.9134071 L10.9876994,8.24789383 Z" id="Path"></path>
                <path d="M3.66662112,2.17 C3.66662112,3.27277778 4.69259913,4.16666667 5.95833333,4.16666667 C7.22406754,4.16666667 8.25004555,3.27277778 8.25004555,2.17 C7.60474428,0.723333333 6.84084021,0 5.95833333,0 C5.07582646,0 4.31192239,0.723333333 3.66662112,2.17 Z" id="Path"></path>
            </g>
            <g id="noun_Farmer_1431067_000000" transform="translate(63.000000, 29.000000)">
                <path d="M10.9876994,8.24789383 C10.8630746,6.89531793 9.64628333,5.83333333 8.16179154,5.83333333 L2.83820846,5.83333333 C1.35339297,5.83333333 0.136925431,6.89531793 0.0123006297,8.24789383 L0,14.9131057 C0,15.3658735 0.393943853,15.7327299 0.880142428,15.7327299 L0.965275734,15.7327299 C1.45147431,15.7327299 1.84541816,15.3658735 1.84541816,14.9131057 L1.84541816,8.47668926 L2.48634571,8.47668926 L2.48634571,15.6742499 L2.51353658,15.6742499 L2.51353658,23.8918946 C2.51353658,24.5038244 3.04634807,25 3.70346066,25 C4.36057324,25 4.89338473,24.5038244 4.89338473,23.8918946 L4.89338473,15.6742499 L6.13380613,15.6742499 L6.13380613,23.8918946 C6.13380613,24.5038244 6.66661762,25 7.32373021,25 C7.9808428,25 8.51365429,24.5038244 8.51365429,23.8918946 L8.51365429,15.6742499 L8.51365429,15.0816125 L8.51365429,8.47668926 L9.15458184,8.47668926 L9.15458184,14.9134071 C9.15458184,15.3661749 9.54852569,15.7330314 10.0347243,15.7330314 L10.1198576,15.7330314 C10.6060561,15.7330314 11,15.3661749 11,14.9134071 L10.9876994,8.24789383 Z" id="Path"></path>
                <path d="M3.66662112,2.17 C3.66662112,3.27277778 4.69259913,4.16666667 5.95833333,4.16666667 C7.22406754,4.16666667 8.25004555,3.27277778 8.25004555,2.17 C7.60474428,0.723333333 6.84084021,0 5.95833333,0 C5.07582646,0 4.31192239,0.723333333 3.66662112,2.17 Z" id="Path"></path>
            </g>
            <g id="noun_Farmer_1431067_000000" transform="translate(79.000000, 29.000000)">
                <path d="M10.9876994,8.24789383 C10.8630746,6.89531793 9.64628333,5.83333333 8.16179154,5.83333333 L2.83820846,5.83333333 C1.35339297,5.83333333 0.136925431,6.89531793 0.0123006297,8.24789383 L0,14.9131057 C0,15.3658735 0.393943853,15.7327299 0.880142428,15.7327299 L0.965275734,15.7327299 C1.45147431,15.7327299 1.84541816,15.3658735 1.84541816,14.9131057 L1.84541816,8.47668926 L2.48634571,8.47668926 L2.48634571,15.6742499 L2.51353658,15.6742499 L2.51353658,23.8918946 C2.51353658,24.5038244 3.04634807,25 3.70346066,25 C4.36057324,25 4.89338473,24.5038244 4.89338473,23.8918946 L4.89338473,15.6742499 L6.13380613,15.6742499 L6.13380613,23.8918946 C6.13380613,24.5038244 6.66661762,25 7.32373021,25 C7.9808428,25 8.51365429,24.5038244 8.51365429,23.8918946 L8.51365429,15.6742499 L8.51365429,15.0816125 L8.51365429,8.47668926 L9.15458184,8.47668926 L9.15458184,14.9134071 C9.15458184,15.3661749 9.54852569,15.7330314 10.0347243,15.7330314 L10.1198576,15.7330314 C10.6060561,15.7330314 11,15.3661749 11,14.9134071 L10.9876994,8.24789383 Z" id="Path"></path>
                <path d="M3.66662112,2.17 C3.66662112,3.27277778 4.69259913,4.16666667 5.95833333,4.16666667 C7.22406754,4.16666667 8.25004555,3.27277778 8.25004555,2.17 C7.60474428,0.723333333 6.84084021,0 5.95833333,0 C5.07582646,0 4.31192239,0.723333333 3.66662112,2.17 Z" id="Path"></path>
            </g>
            <g id="noun_Farmer_1431067_000000" transform="translate(94.000000, 29.000000)">
                <path d="M10.9876994,8.24789383 C10.8630746,6.89531793 9.64628333,5.83333333 8.16179154,5.83333333 L2.83820846,5.83333333 C1.35339297,5.83333333 0.136925431,6.89531793 0.0123006297,8.24789383 L0,14.9131057 C0,15.3658735 0.393943853,15.7327299 0.880142428,15.7327299 L0.965275734,15.7327299 C1.45147431,15.7327299 1.84541816,15.3658735 1.84541816,14.9131057 L1.84541816,8.47668926 L2.48634571,8.47668926 L2.48634571,15.6742499 L2.51353658,15.6742499 L2.51353658,23.8918946 C2.51353658,24.5038244 3.04634807,25 3.70346066,25 C4.36057324,25 4.89338473,24.5038244 4.89338473,23.8918946 L4.89338473,15.6742499 L6.13380613,15.6742499 L6.13380613,23.8918946 C6.13380613,24.5038244 6.66661762,25 7.32373021,25 C7.9808428,25 8.51365429,24.5038244 8.51365429,23.8918946 L8.51365429,15.6742499 L8.51365429,15.0816125 L8.51365429,8.47668926 L9.15458184,8.47668926 L9.15458184,14.9134071 C9.15458184,15.3661749 9.54852569,15.7330314 10.0347243,15.7330314 L10.1198576,15.7330314 C10.6060561,15.7330314 11,15.3661749 11,14.9134071 L10.9876994,8.24789383 Z" id="Path"></path>
                <path d="M3.66662112,2.17 C3.66662112,3.27277778 4.69259913,4.16666667 5.95833333,4.16666667 C7.22406754,4.16666667 8.25004555,3.27277778 8.25004555,2.17 C7.60474428,0.723333333 6.84084021,0 5.95833333,0 C5.07582646,0 4.31192239,0.723333333 3.66662112,2.17 Z" id="Path"></path>
            </g>
            <g id="noun_Farmer_1431067_000000" transform="translate(110.000000, 29.000000)">
                <path d="M10.9876994,8.24789383 C10.8630746,6.89531793 9.64628333,5.83333333 8.16179154,5.83333333 L2.83820846,5.83333333 C1.35339297,5.83333333 0.136925431,6.89531793 0.0123006297,8.24789383 L0,14.9131057 C0,15.3658735 0.393943853,15.7327299 0.880142428,15.7327299 L0.965275734,15.7327299 C1.45147431,15.7327299 1.84541816,15.3658735 1.84541816,14.9131057 L1.84541816,8.47668926 L2.48634571,8.47668926 L2.48634571,15.6742499 L2.51353658,15.6742499 L2.51353658,23.8918946 C2.51353658,24.5038244 3.04634807,25 3.70346066,25 C4.36057324,25 4.89338473,24.5038244 4.89338473,23.8918946 L4.89338473,15.6742499 L6.13380613,15.6742499 L6.13380613,23.8918946 C6.13380613,24.5038244 6.66661762,25 7.32373021,25 C7.9808428,25 8.51365429,24.5038244 8.51365429,23.8918946 L8.51365429,15.6742499 L8.51365429,15.0816125 L8.51365429,8.47668926 L9.15458184,8.47668926 L9.15458184,14.9134071 C9.15458184,15.3661749 9.54852569,15.7330314 10.0347243,15.7330314 L10.1198576,15.7330314 C10.6060561,15.7330314 11,15.3661749 11,14.9134071 L10.9876994,8.24789383 Z" id="Path"></path>
                <path d="M3.66662112,2.17 C3.66662112,3.27277778 4.69259913,4.16666667 5.95833333,4.16666667 C7.22406754,4.16666667 8.25004555,3.27277778 8.25004555,2.17 C7.60474428,0.723333333 6.84084021,0 5.95833333,0 C5.07582646,0 4.31192239,0.723333333 3.66662112,2.17 Z" id="Path"></path>
            </g>
            <g id="noun_Farmer_1431067_000000" transform="translate(79.000000, 0.000000)">
                <path d="M10.9876994,8.24789383 C10.8630746,6.89531793 9.64628333,5.83333333 8.16179154,5.83333333 L2.83820846,5.83333333 C1.35339297,5.83333333 0.136925431,6.89531793 0.0123006297,8.24789383 L0,14.9131057 C0,15.3658735 0.393943853,15.7327299 0.880142428,15.7327299 L0.965275734,15.7327299 C1.45147431,15.7327299 1.84541816,15.3658735 1.84541816,14.9131057 L1.84541816,8.47668926 L2.48634571,8.47668926 L2.48634571,15.6742499 L2.51353658,15.6742499 L2.51353658,23.8918946 C2.51353658,24.5038244 3.04634807,25 3.70346066,25 C4.36057324,25 4.89338473,24.5038244 4.89338473,23.8918946 L4.89338473,15.6742499 L6.13380613,15.6742499 L6.13380613,23.8918946 C6.13380613,24.5038244 6.66661762,25 7.32373021,25 C7.9808428,25 8.51365429,24.5038244 8.51365429,23.8918946 L8.51365429,15.6742499 L8.51365429,15.0816125 L8.51365429,8.47668926 L9.15458184,8.47668926 L9.15458184,14.9134071 C9.15458184,15.3661749 9.54852569,15.7330314 10.0347243,15.7330314 L10.1198576,15.7330314 C10.6060561,15.7330314 11,15.3661749 11,14.9134071 L10.9876994,8.24789383 Z" id="Path"></path>
                <path d="M3.66662112,2.17 C3.66662112,3.27277778 4.69259913,4.16666667 5.95833333,4.16666667 C7.22406754,4.16666667 8.25004555,3.27277778 8.25004555,2.17 C7.60474428,0.723333333 6.84084021,0 5.95833333,0 C5.07582646,0 4.31192239,0.723333333 3.66662112,2.17 Z" id="Path"></path>
            </g>
            <g id="noun_Farmer_1431067_000000" transform="translate(94.000000, 0.000000)">
                <path d="M10.9876994,8.24789383 C10.8630746,6.89531793 9.64628333,5.83333333 8.16179154,5.83333333 L2.83820846,5.83333333 C1.35339297,5.83333333 0.136925431,6.89531793 0.0123006297,8.24789383 L0,14.9131057 C0,15.3658735 0.393943853,15.7327299 0.880142428,15.7327299 L0.965275734,15.7327299 C1.45147431,15.7327299 1.84541816,15.3658735 1.84541816,14.9131057 L1.84541816,8.47668926 L2.48634571,8.47668926 L2.48634571,15.6742499 L2.51353658,15.6742499 L2.51353658,23.8918946 C2.51353658,24.5038244 3.04634807,25 3.70346066,25 C4.36057324,25 4.89338473,24.5038244 4.89338473,23.8918946 L4.89338473,15.6742499 L6.13380613,15.6742499 L6.13380613,23.8918946 C6.13380613,24.5038244 6.66661762,25 7.32373021,25 C7.9808428,25 8.51365429,24.5038244 8.51365429,23.8918946 L8.51365429,15.6742499 L8.51365429,15.0816125 L8.51365429,8.47668926 L9.15458184,8.47668926 L9.15458184,14.9134071 C9.15458184,15.3661749 9.54852569,15.7330314 10.0347243,15.7330314 L10.1198576,15.7330314 C10.6060561,15.7330314 11,15.3661749 11,14.9134071 L10.9876994,8.24789383 Z" id="Path"></path>
                <path d="M3.66662112,2.17 C3.66662112,3.27277778 4.69259913,4.16666667 5.95833333,4.16666667 C7.22406754,4.16666667 8.25004555,3.27277778 8.25004555,2.17 C7.60474428,0.723333333 6.84084021,0 5.95833333,0 C5.07582646,0 4.31192239,0.723333333 3.66662112,2.17 Z" id="Path"></path>
            </g>
            <g id="noun_vegetables_994504_000000" transform="translate(143.000000, 6.000000)">
                <path d="M29.9518231,26.4371108 C29.5819504,26.8381071 29.5819504,27.4396015 29.9518231,27.8405978 C33.188209,31.3493151 33.9279544,36.4620174 31.6162501,39.0684932 C31.2463775,39.4694894 31.2463775,40.0709838 31.6162501,40.4719801 C31.8011865,40.6724782 32.078591,40.7727273 32.2635273,40.7727273 C32.5409318,40.7727273 32.7258682,40.6724782 32.9108045,40.4719801 C35.9622541,37.1637609 35.2225087,30.7478207 31.2463775,26.4371108 C30.968973,26.0361146 30.3216958,26.0361146 29.9518231,26.4371108 Z" id="Path"></path>
                <path d="M42.8395279,21.0833333 C43.316921,21.1791667 43.8897927,20.7958333 43.9852714,20.3166667 C44.08075,19.8375 43.6988355,19.2625 43.2214424,19.1666667 C41.4073487,18.8791667 39.8796908,19.0708333 38.6384688,19.4541667 C39.0203833,18.2083333 39.2113405,16.675 38.9249046,14.8541667 C38.829426,14.375 38.3520329,13.9916667 37.7791612,14.0875 C37.3017682,14.1833333 36.9198537,14.6625 37.0153323,15.2375 C37.4927254,17.825 36.6334178,19.7416667 35.8695889,20.7958333 C35.5831531,20.9875 35.3921958,21.1791667 35.2012386,21.3708333 L34.7238455,20.8916667 C35.2967172,20.125 36.2515034,18.3041667 35.6786317,15.4291667 C35.5831531,14.95 35.10576,14.5666667 34.5328883,14.6625 C34.0554952,14.7583333 33.6735807,15.2375 33.7690593,15.8125 C34.0554952,17.7291667 33.6735807,18.975 33.2916662,19.55 L33.1961876,19.4541667 C32.8142732,19.0708333 32.2414015,19.0708333 31.859487,19.4541667 L29.6634788,21.7541667 C27.4674706,20.5083333 25.0805052,19.9333333 22.7890184,19.9333333 C20.879446,19.9333333 18.9698737,20.4125 17.4422158,21.275 C17.0603013,19.8375 16.6783869,18.4 16.2964724,17.1541667 C16.5829083,17.25 16.8693441,17.25 17.15578,17.25 C17.7286517,17.25 18.1105661,16.8666667 18.1105661,16.2916667 C18.1105661,11.1166667 16.2009938,6.6125 13.2411567,4.50416667 L13.2411567,0.958333333 C13.2411567,0.383333333 12.8592422,0 12.2863705,0 L7.41696101,0 C6.84408931,0 6.46217484,0.383333333 6.46217484,0.958333333 L6.46217484,4.50416667 C3.50233771,6.6125 1.68824399,11.1166667 1.68824399,16.2916667 C1.68824399,16.8666667 2.07015846,17.25 2.64303016,17.25 C3.50233771,17.25 4.26616665,17.0583333 5.02999559,16.7708333 C4.83903835,18.7833333 4.74355974,21.0833333 4.45712388,23.1916667 C4.36164527,23.7666667 4.26616665,24.5333333 4.07520942,25.2041667 C3.9797308,27.025 1.87920122,31.1458333 1.87920122,31.1458333 C1.87920122,31.1458333 1.87920122,31.2416667 1.78372261,31.2416667 C1.68824399,31.4333333 0.256064733,34.6916667 0.0651074989,35.7458333 C-0.221328352,38.1416667 0.447021967,40.5375 1.87920122,42.4541667 C4.64808112,46 8.75366165,46 9.13557612,46 C10.8541912,46 12.5728063,45.425 14.1004642,44.4666667 C14.1959428,44.4666667 14.2914214,44.5625 14.3869001,44.5625 C14.5778573,44.5625 19.7337026,45.5208333 24.9850266,45.5208333 C30.0453933,45.5208333 33.4826235,44.6583333 35.2012386,42.9333333 C38.829426,39.2916667 39.1158619,33.4458333 36.346982,28.3666667 L38.6384688,26.0666667 C38.829426,25.875 38.9249046,25.6833333 38.9249046,25.3958333 C38.9249046,25.1083333 38.829426,24.9166667 38.6384688,24.725 L38.4475116,24.5333333 C39.1158619,24.15 40.2616053,23.6708333 42.1711776,24.0541667 C42.6485707,24.15 43.2214424,23.7666667 43.316921,23.2875 C43.4123997,22.8083333 43.0304852,22.2333333 42.5530921,22.1375 C39.6887336,21.6583333 37.8746399,22.5208333 37.1108109,23.0958333 L36.8243751,22.8083333 C37.0153323,22.6166667 37.2062895,22.425 37.3972468,22.1375 C38.3520329,21.4666667 40.2616053,20.7 42.8395279,21.0833333 Z M3.59781633,15.1416667 C3.88425218,10.925 5.50738867,7.28333333 7.8943541,5.84583333 C8.18078995,5.65416667 8.37174718,5.36666667 8.37174718,4.98333333 L8.37174718,1.91666667 L11.4270629,1.91666667 L11.4270629,4.98333333 C11.4270629,5.36666667 11.6180202,5.65416667 11.904456,5.84583333 C14.2914214,7.28333333 16.0100366,10.925 16.2009938,15.1416667 C14.1959428,14.5666667 12.9547208,12.4583333 12.8592422,12.2666667 C12.8592422,12.2666667 12.7637636,12.1708333 12.7637636,12.1708333 C12.2863705,11.5958333 11.5225415,11.9791667 11.5225415,11.9791667 C11.5225415,11.9791667 11.5225415,11.9791667 11.5225415,11.9791667 C11.2361057,12.1708333 11.1406271,12.4583333 11.1406271,12.7458333 C11.2361057,15.7166667 10.1858409,18.5916667 9.99488367,19.0708333 C9.99488367,19.0708333 9.99488367,19.0708333 9.99488367,19.0708333 C9.23105474,17.25 8.84914027,15.0458333 8.84914027,12.7458333 C8.84914027,12.65 8.84914027,12.5541667 8.75366165,12.4583333 C8.65818304,12.1708333 8.37174718,11.8833333 8.08531133,11.8833333 C7.98983272,11.8833333 7.8943541,11.8833333 7.79887548,11.8833333 C7.51243963,11.8833333 7.13052516,12.075 6.93956793,12.3625 C6.84408931,12.4583333 5.50738867,14.6625 3.59781633,15.1416667 Z M14.0049856,24.6291667 C14.0049856,24.6291667 14.0049856,24.725 14.0049856,24.6291667 C11.6180202,29.6125 12.8592422,39.1958333 13.3366353,42.6458333 C11.904456,43.7 10.0903623,44.275 8.18078995,43.9875 C6.27121761,43.7958333 4.64808112,42.7416667 3.4068591,41.3041667 C2.26111569,39.7708333 1.68824399,37.95 1.97467984,36.0333333 C2.07015846,35.1708333 2.35659431,34.4041667 2.73850878,33.6375 C2.73850878,33.6375 6.08026037,27.8875 6.27121761,23.4791667 C6.74861069,20.7958333 6.84408931,17.9208333 6.93956793,15.3333333 C6.93956793,15.3333333 6.93956793,15.3333333 6.93956793,15.3333333 C7.22600378,17.7291667 7.98983272,19.9333333 9.0400975,21.7541667 C9.23105474,22.0416667 9.51749059,22.2333333 9.89940506,22.2333333 C10.1858409,22.2333333 10.4722768,22.0416667 10.663234,21.85 C10.663234,21.85 10.663234,21.7541667 10.7587126,21.7541667 C12.668285,18.4 12.8592422,15.8125 12.8592422,15.525 C12.8592422,15.4291667 12.8592422,15.4291667 12.8592422,15.3333333 C13.0501994,15.525 13.2411567,15.7166667 13.4321139,15.8125 C13.4321139,15.8125 13.4321139,15.8125 13.4321139,15.8125 C13.4321139,15.8125 13.4321139,15.8125 13.4321139,15.8125 C13.6230711,15.9083333 13.7185497,16.0041667 13.909507,16.1958333 C13.909507,16.1958333 14.0049856,16.1958333 14.0049856,16.2916667 C14.5778573,18.1125 15.150729,20.2208333 15.7236007,22.425 C15.5326435,22.6166667 15.3416862,22.7125 15.150729,22.9041667 C15.150729,22.9041667 15.150729,22.9041667 15.150729,22.9041667 C15.150729,22.9041667 15.150729,22.9041667 15.150729,22.9041667 C15.150729,22.9041667 15.150729,22.9041667 15.150729,22.9041667 C15.150729,22.9041667 15.150729,22.9041667 15.150729,22.9041667 C14.9597718,23.0958333 14.7688145,23.3833333 14.5778573,23.6708333 C14.5778573,23.6708333 14.5778573,23.7666667 14.4823787,23.7666667 C14.3869001,24.0541667 14.1959428,24.3416667 14.0049856,24.6291667 Z M33.8645379,41.5916667 C32.9097518,42.55 30.618265,43.6041667 24.9850266,43.6041667 C20.9749246,43.6041667 16.8693441,43.0291667 15.3416862,42.7416667 C15.150729,41.5916667 14.6733359,37.2791667 14.6733359,36.9916667 C14.6733359,36.9916667 14.6733359,36.9916667 14.6733359,36.9916667 C14.5778573,35.65 13.7185497,26.2583333 17.0603013,23.7666667 C17.15578,23.6708333 17.2512586,23.6708333 17.2512586,23.575 C18.7789164,22.425 20.5930102,21.7541667 22.6935397,21.7541667 C26.0352913,21.7541667 29.3770429,23.2875 32.0504442,25.875 C36.9198537,30.7625 37.6836826,37.7583333 33.8645379,41.5916667 Z M35.2967172,26.8333333 C34.7238455,26.0666667 32.8142732,23.6708333 31.2866153,22.9041667 L32.5278373,21.6583333 L36.4424606,25.5875 L35.2967172,26.8333333 Z" id="Shape"></path>
            </g>
        </g>
    </g>
</svg>