<?xml version="1.0" encoding="UTF-8"?>
<svg width="75px" height="22px" viewBox="0 0 75 22" version="1.1" xmlns="http://www.w3.org/2000/svg" xmlns:xlink="http://www.w3.org/1999/xlink">
    <!-- Generator: Sketch 53.1 (72631) - https://sketchapp.com -->
    <title>Group 12</title>
    <desc>Created with Sketch.</desc>
    <g id="ECRAN" stroke="none" stroke-width="1" fill="none" fill-rule="evenodd">
        <g id="Group-12" fill="#A261C0">
            <g id="noun_Farmer_1431067_000000">
                <path d="M8.92473889,7.01049156 C8.82351262,5.86083783 7.83517614,4.95817901 6.62940038,4.95817901 L2.30532968,4.95817901 C1.09929099,4.95817901 0.111217433,5.86083783 0.00999116421,7.01049156 L0,12.6757453 C0,13.060586 0.31998018,13.3724042 0.714894092,13.3724042 L0.784043465,13.3724042 C1.17895738,13.3724042 1.49893756,13.060586 1.49893756,12.6757453 L1.49893756,7.20496162 L2.0195298,7.20496162 L2.0195298,13.3226978 L2.04161553,13.3226978 L2.04161553,20.3074783 C2.04161553,20.8276025 2.47439069,21.2493386 3.0081292,21.2493386 C3.54186771,21.2493386 3.97464288,20.8276025 3.97464288,20.3074783 L3.97464288,13.3226978 L4.98217291,13.3226978 L4.98217291,20.3074783 C4.98217291,20.8276025 5.41494808,21.2493386 5.94868658,21.2493386 C6.48242509,21.2493386 6.91520026,20.8276025 6.91520026,20.3074783 L6.91520026,13.3226978 L6.91520026,12.8189716 L6.91520026,7.20496162 L7.4357925,7.20496162 L7.4357925,12.6760015 C7.4357925,13.0608422 7.75577268,13.3726604 8.15068659,13.3726604 L8.21983596,13.3726604 C8.61474988,13.3726604 8.93473006,13.0608422 8.93473006,12.6760015 L8.92473889,7.01049156 Z" id="Path"></path>
                <path d="M2.97820636,1.84444259 C2.97820636,2.78177453 3.81155513,3.54155644 4.83964545,3.54155644 C5.86773576,3.54155644 6.70108454,2.78177453 6.70108454,1.84444259 C6.17693975,0.614814198 5.55646006,0 4.83964545,0 C4.12283084,0 3.50235114,0.614814198 2.97820636,1.84444259 Z" id="Path"></path>
            </g>
            <g id="noun_Farmer_1431067_000000" transform="translate(13.402095, 0.000000)">
                <path d="M8.92473889,7.01049156 C8.82351262,5.86083783 7.83517614,4.95817901 6.62940038,4.95817901 L2.30532968,4.95817901 C1.09929099,4.95817901 0.111217433,5.86083783 0.00999116421,7.01049156 L0,12.6757453 C0,13.060586 0.31998018,13.3724042 0.714894092,13.3724042 L0.784043465,13.3724042 C1.17895738,13.3724042 1.49893756,13.060586 1.49893756,12.6757453 L1.49893756,7.20496162 L2.0195298,7.20496162 L2.0195298,13.3226978 L2.04161553,13.3226978 L2.04161553,20.3074783 C2.04161553,20.8276025 2.47439069,21.2493386 3.0081292,21.2493386 C3.54186771,21.2493386 3.97464288,20.8276025 3.97464288,20.3074783 L3.97464288,13.3226978 L4.98217291,13.3226978 L4.98217291,20.3074783 C4.98217291,20.8276025 5.41494808,21.2493386 5.94868658,21.2493386 C6.48242509,21.2493386 6.91520026,20.8276025 6.91520026,20.3074783 L6.91520026,13.3226978 L6.91520026,12.8189716 L6.91520026,7.20496162 L7.4357925,7.20496162 L7.4357925,12.6760015 C7.4357925,13.0608422 7.75577268,13.3726604 8.15068659,13.3726604 L8.21983596,13.3726604 C8.61474988,13.3726604 8.93473006,13.0608422 8.93473006,12.6760015 L8.92473889,7.01049156 Z" id="Path"></path>
                <path d="M2.97820636,1.84444259 C2.97820636,2.78177453 3.81155513,3.54155644 4.83964545,3.54155644 C5.86773576,3.54155644 6.70108454,2.78177453 6.70108454,1.84444259 C6.17693975,0.614814198 5.55646006,0 4.83964545,0 C4.12283084,0 3.50235114,0.614814198 2.97820636,1.84444259 Z" id="Path"></path>
            </g>
            <g id="noun_Farmer_1431067_000000" transform="translate(26.804190, 0.000000)">
                <path d="M8.92473889,7.01049156 C8.82351262,5.86083783 7.83517614,4.95817901 6.62940038,4.95817901 L2.30532968,4.95817901 C1.09929099,4.95817901 0.111217433,5.86083783 0.00999116421,7.01049156 L0,12.6757453 C0,13.060586 0.31998018,13.3724042 0.714894092,13.3724042 L0.784043465,13.3724042 C1.17895738,13.3724042 1.49893756,13.060586 1.49893756,12.6757453 L1.49893756,7.20496162 L2.0195298,7.20496162 L2.0195298,13.3226978 L2.04161553,13.3226978 L2.04161553,20.3074783 C2.04161553,20.8276025 2.47439069,21.2493386 3.0081292,21.2493386 C3.54186771,21.2493386 3.97464288,20.8276025 3.97464288,20.3074783 L3.97464288,13.3226978 L4.98217291,13.3226978 L4.98217291,20.3074783 C4.98217291,20.8276025 5.41494808,21.2493386 5.94868658,21.2493386 C6.48242509,21.2493386 6.91520026,20.8276025 6.91520026,20.3074783 L6.91520026,13.3226978 L6.91520026,12.8189716 L6.91520026,7.20496162 L7.4357925,7.20496162 L7.4357925,12.6760015 C7.4357925,13.0608422 7.75577268,13.3726604 8.15068659,13.3726604 L8.21983596,13.3726604 C8.61474988,13.3726604 8.93473006,13.0608422 8.93473006,12.6760015 L8.92473889,7.01049156 Z" id="Path"></path>
                <path d="M2.97820636,1.84444259 C2.97820636,2.78177453 3.81155513,3.54155644 4.83964545,3.54155644 C5.86773576,3.54155644 6.70108454,2.78177453 6.70108454,1.84444259 C6.17693975,0.614814198 5.55646006,0 4.83964545,0 C4.12283084,0 3.50235114,0.614814198 2.97820636,1.84444259 Z" id="Path"></path>
            </g>
            <g id="noun_Farmer_1431067_000000" transform="translate(40.206285, 0.000000)">
                <path d="M8.92473889,7.01049156 C8.82351262,5.86083783 7.83517614,4.95817901 6.62940038,4.95817901 L2.30532968,4.95817901 C1.09929099,4.95817901 0.111217433,5.86083783 0.00999116421,7.01049156 L0,12.6757453 C0,13.060586 0.31998018,13.3724042 0.714894092,13.3724042 L0.784043465,13.3724042 C1.17895738,13.3724042 1.49893756,13.060586 1.49893756,12.6757453 L1.49893756,7.20496162 L2.0195298,7.20496162 L2.0195298,13.3226978 L2.04161553,13.3226978 L2.04161553,20.3074783 C2.04161553,20.8276025 2.47439069,21.2493386 3.0081292,21.2493386 C3.54186771,21.2493386 3.97464288,20.8276025 3.97464288,20.3074783 L3.97464288,13.3226978 L4.98217291,13.3226978 L4.98217291,20.3074783 C4.98217291,20.8276025 5.41494808,21.2493386 5.94868658,21.2493386 C6.48242509,21.2493386 6.91520026,20.8276025 6.91520026,20.3074783 L6.91520026,13.3226978 L6.91520026,12.8189716 L6.91520026,7.20496162 L7.4357925,7.20496162 L7.4357925,12.6760015 C7.4357925,13.0608422 7.75577268,13.3726604 8.15068659,13.3726604 L8.21983596,13.3726604 C8.61474988,13.3726604 8.93473006,13.0608422 8.93473006,12.6760015 L8.92473889,7.01049156 Z" id="Path"></path>
                <path d="M2.97820636,1.84444259 C2.97820636,2.78177453 3.81155513,3.54155644 4.83964545,3.54155644 C5.86773576,3.54155644 6.70108454,2.78177453 6.70108454,1.84444259 C6.17693975,0.614814198 5.55646006,0 4.83964545,0 C4.12283084,0 3.50235114,0.614814198 2.97820636,1.84444259 Z" id="Path"></path>
            </g>
            <g id="noun_Farmer_1431067_000000" transform="translate(53.608380, 0.000000)">
                <path d="M8.92473889,7.01049156 C8.82351262,5.86083783 7.83517614,4.95817901 6.62940038,4.95817901 L2.30532968,4.95817901 C1.09929099,4.95817901 0.111217433,5.86083783 0.00999116421,7.01049156 L0,12.6757453 C0,13.060586 0.31998018,13.3724042 0.714894092,13.3724042 L0.784043465,13.3724042 C1.17895738,13.3724042 1.49893756,13.060586 1.49893756,12.6757453 L1.49893756,7.20496162 L2.0195298,7.20496162 L2.0195298,13.3226978 L2.04161553,13.3226978 L2.04161553,20.3074783 C2.04161553,20.8276025 2.47439069,21.2493386 3.0081292,21.2493386 C3.54186771,21.2493386 3.97464288,20.8276025 3.97464288,20.3074783 L3.97464288,13.3226978 L4.98217291,13.3226978 L4.98217291,20.3074783 C4.98217291,20.8276025 5.41494808,21.2493386 5.94868658,21.2493386 C6.48242509,21.2493386 6.91520026,20.8276025 6.91520026,20.3074783 L6.91520026,13.3226978 L6.91520026,12.8189716 L6.91520026,7.20496162 L7.4357925,7.20496162 L7.4357925,12.6760015 C7.4357925,13.0608422 7.75577268,13.3726604 8.15068659,13.3726604 L8.21983596,13.3726604 C8.61474988,13.3726604 8.93473006,13.0608422 8.93473006,12.6760015 L8.92473889,7.01049156 Z" id="Path"></path>
                <path d="M2.97820636,1.84444259 C2.97820636,2.78177453 3.81155513,3.54155644 4.83964545,3.54155644 C5.86773576,3.54155644 6.70108454,2.78177453 6.70108454,1.84444259 C6.17693975,0.614814198 5.55646006,0 4.83964545,0 C4.12283084,0 3.50235114,0.614814198 2.97820636,1.84444259 Z" id="Path"></path>
            </g>
            <g id="noun_Farmer_1431067_000000" transform="translate(65.893634, 0.000000)">
                <path d="M8.92473889,7.01049156 C8.82351262,5.86083783 7.83517614,4.95817901 6.62940038,4.95817901 L2.30532968,4.95817901 C1.09929099,4.95817901 0.111217433,5.86083783 0.00999116421,7.01049156 L0,12.6757453 C0,13.060586 0.31998018,13.3724042 0.714894092,13.3724042 L0.784043465,13.3724042 C1.17895738,13.3724042 1.49893756,13.060586 1.49893756,12.6757453 L1.49893756,7.20496162 L2.0195298,7.20496162 L2.0195298,13.3226978 L2.04161553,13.3226978 L2.04161553,20.3074783 C2.04161553,20.8276025 2.47439069,21.2493386 3.0081292,21.2493386 C3.54186771,21.2493386 3.97464288,20.8276025 3.97464288,20.3074783 L3.97464288,13.3226978 L4.98217291,13.3226978 L4.98217291,20.3074783 C4.98217291,20.8276025 5.41494808,21.2493386 5.94868658,21.2493386 C6.48242509,21.2493386 6.91520026,20.8276025 6.91520026,20.3074783 L6.91520026,13.3226978 L6.91520026,12.8189716 L6.91520026,7.20496162 L7.4357925,7.20496162 L7.4357925,12.6760015 C7.4357925,13.0608422 7.75577268,13.3726604 8.15068659,13.3726604 L8.21983596,13.3726604 C8.61474988,13.3726604 8.93473006,13.0608422 8.93473006,12.6760015 L8.92473889,7.01049156 Z" id="Path"></path>
                <path d="M2.97820636,1.84444259 C2.97820636,2.78177453 3.81155513,3.54155644 4.83964545,3.54155644 C5.86773576,3.54155644 6.70108454,2.78177453 6.70108454,1.84444259 C6.17693975,0.614814198 5.55646006,0 4.83964545,0 C4.12283084,0 3.50235114,0.614814198 2.97820636,1.84444259 Z" id="Path"></path>
            </g>
        </g>
    </g>
</svg>