<?xml version="1.0" encoding="UTF-8"?>
<svg width="52px" height="52px" viewBox="0 0 52 52" version="1.1" xmlns="http://www.w3.org/2000/svg" xmlns:xlink="http://www.w3.org/1999/xlink">
    <!-- Generator: Sketch 53.1 (72631) - https://sketchapp.com -->
    <title>pourcent4</title>
    <desc>Created with Sketch.</desc>
    <g id="pourcent4" stroke="none" stroke-width="1" fill="none" fill-rule="evenodd">
        <g id="Group-5" transform="translate(-5.000000, -4.000000)" fill-rule="nonzero">
            <g id="Group">
                <path d="M31.1004367,55 C17.2363794,55 6,44.0740024 6,30.5982533 C6,23.739576 8.8509185,17.3498007 13.7987556,12.7450062 C18.4257596,8.43880073 24.559845,6 31.1004367,6 C44.8310103,6 56,16.9922994 56,30.5982533 C56,44.0409345 44.7973997,55 31.1004367,55 Z M31.1004367,51 C42.6076987,51 52,41.8118792 52,30.5982533 C52,19.2158417 42.6360228,10 31.1004367,10 C25.576336,10 20.4144352,12.0522778 16.5238551,15.6731169 C12.3797283,19.5299239 10,24.8636187 10,30.5982533 C10,41.8393995 19.4208315,51 31.1004367,51 Z" id="Oval-Copy-2" fill="#D4D4D4" transform="translate(31.000000, 30.500000) rotate(-270.000000) translate(-31.000000, -30.500000) "></path>
                <path d="M37.9380897,54.8752791 L36.8873215,51.0157602 C45.8537665,48.5746125 52.2033233,40.5360489 52.2033233,31.3570661 C52.2033233,19.9746545 42.8393461,10.7588129 31.30376,10.7588129 C25.7796593,10.7588129 20.6177585,12.8110907 16.7271784,16.4319298 C12.5830516,20.2887367 10.2033233,25.6224316 10.2033233,31.3570661 C10.2033233,38.3973748 13.9302771,44.8436744 19.9724828,48.5720086 L17.8719863,51.9761112 C10.6681967,47.5310233 6.2033233,39.8083862 6.2033233,31.3570661 C6.2033233,24.4983889 9.0542418,18.1086136 14.0020789,13.503819 C18.6290829,9.1976136 24.7631683,6.75881287 31.30376,6.75881287 C45.0343336,6.75881287 56.2033233,17.7511122 56.2033233,31.3570661 C56.2033233,42.3673794 48.6208115,51.9668687 37.9380897,54.8752791 Z" id="Oval-Copy-3" fill="#B57A60" transform="translate(31.203323, 30.817046) rotate(-210.000000) translate(-31.203323, -30.817046) "></path>
            </g>
            <path d="M20.5534374,33.31 C19.5234322,33.31 18.6934405,32.9900032 18.0634374,32.35 C17.4334342,31.7099968 17.1184374,30.8800051 17.1184374,29.86 C17.1184374,28.8399949 17.455934,28.0050033 18.1309374,27.355 C18.8059407,26.7049967 19.7034318,26.38 20.8234374,26.38 C23.5634511,26.38 24.9334374,28.1699821 24.9334374,31.75 C24.9334374,33.0600065 24.6234405,34.2499946 24.0034374,35.32 C23.6834358,35.8700027 23.2284403,36.3124983 22.6384374,36.6475 C22.0484344,36.9825017 21.3059418,37.15 20.4109374,37.15 C19.5159329,37.15 18.6334417,36.9050024 17.7634374,36.415 L17.7634374,35.035 L17.8384373,35.035 C18.6584415,35.5650026 19.5384327,35.83 20.4784374,35.83 C21.0884404,35.83 21.6084352,35.7000013 22.0384374,35.44 C22.4684395,35.1799987 22.7884363,34.8350022 22.9984374,34.405 C23.3784392,33.6249961 23.5884372,32.8250041 23.6284374,32.005 L23.5984374,32.005 C22.918434,32.8750043 21.9034441,33.31 20.5534374,33.31 Z M20.8084374,27.655 C20.1184339,27.655 19.5584395,27.8649979 19.1284374,28.285 C18.6984352,28.7050021 18.4834374,29.2349968 18.4834374,29.875 C18.4834374,30.5150032 18.6734354,31.039998 19.0534374,31.45 C19.4334392,31.860002 19.9884337,32.065 20.7184374,32.065 C22.0184439,32.065 22.9634344,31.5150055 23.5534374,30.415 C23.283436,28.5749908 22.3684452,27.655 20.8084374,27.655 Z M26.8478124,31.765 C26.8478124,30.1149918 27.195309,28.8050048 27.8903125,27.835 C28.5853159,26.8649951 29.5903059,26.38 30.9053125,26.38 C32.220319,26.38 33.2278089,26.8649951 33.9278125,27.835 C34.6278159,28.8050048 34.9778125,30.1149918 34.9778125,31.765 C34.9778125,33.4150082 34.6278159,34.7249951 33.9278125,35.695 C33.2278089,36.6650049 32.220319,37.15 30.9053125,37.15 C29.5903059,37.15 28.5853159,36.6650049 27.8903125,35.695 C27.195309,34.7249951 26.8478124,33.4150082 26.8478124,31.765 Z M28.9028124,34.795 C29.3728148,35.5250037 30.0428081,35.89 30.9128125,35.89 C31.7828168,35.89 32.4503101,35.5250037 32.9153125,34.795 C33.3803148,34.0649964 33.6128124,33.0575064 33.6128124,31.7725 C33.6128124,30.4874936 33.3803148,29.4800037 32.9153125,28.75 C32.4503101,28.0199963 31.7828168,27.655 30.9128125,27.655 C30.0428081,27.655 29.3753148,28.0199963 28.9103124,28.75 C28.4453101,29.4800037 28.2128125,30.4874936 28.2128125,31.7725 C28.2128125,33.0575064 28.4428101,34.0649964 28.9028124,34.795 Z M44.8421875,26.485 L46.0121876,26.485 L39.3971875,37.06 L38.2271875,37.06 L44.8421875,26.485 Z M37.2821876,27.04 C37.7021897,26.5299974 38.2971837,26.275 39.0671875,26.275 C39.8371914,26.275 40.4321855,26.5274975 40.8521875,27.0325 C41.2721897,27.5375025 41.4821875,28.1799961 41.4821875,28.96 C41.4821875,29.7400039 41.2721897,30.3824975 40.8521875,30.8875 C40.4321855,31.3925025 39.8371914,31.645 39.0671875,31.645 C38.2971837,31.645 37.7021897,31.3925025 37.2821876,30.8875 C36.8621854,30.3824975 36.6521876,29.7400039 36.6521876,28.96 C36.6521876,28.1799961 36.8621854,27.5400025 37.2821876,27.04 Z M38.0621876,30.19 C38.3021887,30.5100016 38.6371854,30.67 39.0671875,30.67 C39.4971897,30.67 39.8321864,30.5100016 40.0721876,30.19 C40.3121888,29.8699984 40.4321876,29.4600025 40.4321876,28.96 C40.4321876,28.4599975 40.3121888,28.0500016 40.0721876,27.73 C39.8321864,27.4099984 39.4971897,27.25 39.0671875,27.25 C38.6371854,27.25 38.3021887,27.4099984 38.0621876,27.73 C37.8221864,28.0500016 37.7021875,28.4599975 37.7021876,28.96 C37.7021875,29.4600025 37.8221864,29.8699984 38.0621876,30.19 Z M43.3721875,32.665 C43.7921897,32.1549974 44.3871837,31.9 45.1571876,31.9 C45.9271914,31.9 46.5221855,32.1524975 46.9421875,32.6575 C47.3621897,33.1625025 47.5721876,33.8049961 47.5721876,34.585 C47.5721876,35.3650039 47.3621897,36.0074975 46.9421875,36.5125 C46.5221855,37.0175025 45.9271914,37.27 45.1571876,37.27 C44.3871837,37.27 43.7921897,37.0175025 43.3721875,36.5125 C42.9521855,36.0074975 42.7421875,35.3650039 42.7421875,34.585 C42.7421875,33.8049961 42.9521855,33.1650025 43.3721875,32.665 Z M44.1521876,35.815 C44.3921888,36.1350016 44.7271854,36.295 45.1571876,36.295 C45.5871897,36.295 45.9221864,36.1350016 46.1621875,35.815 C46.4021887,35.4949984 46.5221875,35.0850025 46.5221875,34.585 C46.5221875,34.0849975 46.4021887,33.6750016 46.1621875,33.355 C45.9221864,33.0349984 45.5871897,32.875 45.1571876,32.875 C44.7271854,32.875 44.3921888,33.0349984 44.1521876,33.355 C43.9121863,33.6750016 43.7921876,34.0849975 43.7921876,34.585 C43.7921876,35.0850025 43.9121863,35.4949984 44.1521876,35.815 Z" id="90%" fill="#0C1321"></path>
        </g>
    </g>
</svg>