<?xml version="1.0" encoding="UTF-8"?>
<svg width="52px" height="52px" viewBox="0 0 52 52" version="1.1" xmlns="http://www.w3.org/2000/svg" xmlns:xlink="http://www.w3.org/1999/xlink">
    <!-- Generator: Sketch 53.1 (72631) - https://sketchapp.com -->
    <title>pourcent2</title>
    <desc>Created with Sketch.</desc>
    <defs>
        <ellipse id="path-1" cx="23" cy="22.5" rx="23" ry="22.5"></ellipse>
        <path d="M24.1025153,0.124524701 C23.7746136,0.0697127352 23.4408797,0.0415082337 23.1025153,0.0415082337" id="path-3"></path>
    </defs>
    <g id="pourcent2" stroke="none" stroke-width="1" fill="none" fill-rule="evenodd">
        <g id="Group-5" transform="translate(3.000000, 4.000000)">
            <g id="Group">
                <mask id="mask-2" fill="white">
                    <use xlink:href="#path-1"></use>
                </mask>
                <use id="Oval" stroke="#D4D4D4" stroke-width="4" xlink:href="#path-1"></use>
                <mask id="mask-4" fill="white">
                    <use xlink:href="#path-3"></use>
                </mask>
                <use id="Oval" stroke="#A261C0" stroke-width="4" stroke-linecap="round" stroke-linejoin="round" xlink:href="#path-3"></use>
            </g>
            <path d="M19.1056249,27.725 L21.1606249,27.725 L21.1606249,29 L15.4006249,29 L15.4006249,27.725 L17.7406249,27.725 L17.7406249,20.135 L17.6806249,20.135 L15.5056249,21.215 L15.5056249,19.76 L17.8456249,18.53 L19.1056249,18.53 L19.1056249,27.725 Z M31.94,18.485 L33.11,18.485 L26.495,29.06 L25.325,29.06 L31.94,18.485 Z M24.38,19.04 C24.8000021,18.5299974 25.3949962,18.275 26.165,18.275 C26.9350039,18.275 27.5299979,18.5274975 27.95,19.0325 C28.3700021,19.5375025 28.58,20.1799961 28.58,20.96 C28.58,21.7400039 28.3700021,22.3824975 27.95,22.8875 C27.5299979,23.3925025 26.9350039,23.645 26.165,23.645 C25.3949962,23.645 24.8000021,23.3925025 24.38,22.8875 C23.9599979,22.3824975 23.75,21.7400039 23.75,20.96 C23.75,20.1799961 23.9599979,19.5400025 24.38,19.04 Z M25.16,22.19 C25.4000012,22.5100016 25.7349978,22.67 26.165,22.67 C26.5950022,22.67 26.9299988,22.5100016 27.17,22.19 C27.4100012,21.8699984 27.53,21.4600025 27.53,20.96 C27.53,20.4599975 27.4100012,20.0500016 27.17,19.73 C26.9299988,19.4099984 26.5950022,19.25 26.165,19.25 C25.7349978,19.25 25.4000012,19.4099984 25.16,19.73 C24.9199988,20.0500016 24.8,20.4599975 24.8,20.96 C24.8,21.4600025 24.9199988,21.8699984 25.16,22.19 Z M30.47,24.665 C30.8900021,24.1549974 31.4849962,23.9 32.255,23.9 C33.0250039,23.9 33.6199979,24.1524975 34.04,24.6575 C34.4600021,25.1625025 34.67,25.8049961 34.67,26.585 C34.67,27.3650039 34.4600021,28.0074975 34.04,28.5125 C33.6199979,29.0175025 33.0250039,29.27 32.255,29.27 C31.4849962,29.27 30.8900021,29.0175025 30.47,28.5125 C30.0499979,28.0074975 29.84,27.3650039 29.84,26.585 C29.84,25.8049961 30.0499979,25.1650025 30.47,24.665 Z M31.25,27.815 C31.4900012,28.1350016 31.8249978,28.295 32.255,28.295 C32.6850022,28.295 33.0199988,28.1350016 33.26,27.815 C33.5000012,27.4949984 33.62,27.0850025 33.62,26.585 C33.62,26.0849975 33.5000012,25.6750016 33.26,25.355 C33.0199988,25.0349984 32.6850022,24.875 32.255,24.875 C31.8249978,24.875 31.4900012,25.0349984 31.25,25.355 C31.0099988,25.6750016 30.89,26.0849975 30.89,26.585 C30.89,27.0850025 31.0099988,27.4949984 31.25,27.815 Z" id="1%" fill="#0C1321" fill-rule="nonzero"></path>
        </g>
    </g>
</svg>