<?xml version="1.0" encoding="UTF-8"?>
<svg width="52px" height="52px" viewBox="0 0 52 52" version="1.1" xmlns="http://www.w3.org/2000/svg" xmlns:xlink="http://www.w3.org/1999/xlink">
    <!-- Generator: Sketch 53.1 (72631) - https://sketchapp.com -->
    <title>pourcent3</title>
    <desc>Created with Sketch.</desc>
    <defs>
        <ellipse id="path-1" cx="23" cy="22.5" rx="23" ry="22.5"></ellipse>
        <path d="M36.474144,4.25301445 C32.706467,1.57470819 28.0846076,0 23.1025153,0" id="path-3"></path>
    </defs>
    <g id="pourcent3" stroke="none" stroke-width="1" fill="none" fill-rule="evenodd">
        <g id="Group-5" transform="translate(3.000000, 4.000000)">
            <g id="Group">
                <mask id="mask-2" fill="white">
                    <use xlink:href="#path-1"></use>
                </mask>
                <use id="Oval" stroke="#D4D4D4" stroke-width="4" xlink:href="#path-1"></use>
                <mask id="mask-4" fill="white">
                    <use xlink:href="#path-3"></use>
                </mask>
                <use id="Oval" stroke="#F5A623" stroke-width="4" stroke-linecap="round" stroke-linejoin="round" xlink:href="#path-3"></use>
            </g>
            <path d="M18.0106249,18.38 C19.2006308,18.38 20.083122,18.6599972 20.6581249,19.22 C21.2331278,19.7800028 21.5206249,20.3799968 21.5206249,21.02 C21.5206249,21.6600032 21.3581265,22.1724981 21.0331249,22.5575 C20.7081233,22.9425019 20.2906274,23.2199991 19.7806249,23.39 L19.7806249,23.405 C21.2706323,23.9050025 22.0156249,24.8449931 22.0156249,26.225 C22.0156249,26.9450036 21.7206278,27.599997 21.1306249,28.19 C20.8406234,28.4800014 20.4256276,28.7124991 19.8856249,28.8875 C19.3456222,29.0625009 18.7206284,29.15 18.0106249,29.15 C17.3006214,29.15 16.6756276,29.0625009 16.1356249,28.8875 C15.5956222,28.7124991 15.1806264,28.4800014 14.8906249,28.19 C14.300622,27.599997 14.0056249,26.9450036 14.0056249,26.225 C14.0056249,24.8449931 14.7506175,23.9050025 16.2406249,23.405 L16.2406249,23.39 C15.7306224,23.2199991 15.3131265,22.9425019 14.9881249,22.5575 C14.6631233,22.1724981 14.5006249,21.6600032 14.5006249,21.02 C14.5006249,20.3799968 14.788122,19.7800028 15.3631249,19.22 C15.9381278,18.6599972 16.820619,18.38 18.0106249,18.38 Z M16.0156249,27.35 C16.445627,27.750002 17.1106204,27.95 18.0106249,27.95 C18.9106294,27.95 19.5756228,27.747502 20.0056249,27.3425 C20.4356271,26.937498 20.6506249,26.5150022 20.6506249,26.075 C20.6506249,25.4349968 20.3956274,24.9375018 19.8856249,24.5825 C19.3756224,24.2274982 18.7506286,24.05 18.0106249,24.05 C17.2706212,24.05 16.6456274,24.2274982 16.1356249,24.5825 C15.6256224,24.9375018 15.3706249,25.4349968 15.3706249,26.075 C15.3706249,26.5150022 15.5856228,26.9399979 16.0156249,27.35 Z M18.0106249,19.58 C17.3106214,19.58 16.7781267,19.7324985 16.4131249,20.0375 C16.0481231,20.3425015 15.8656249,20.7174978 15.8656249,21.1625 C15.8656249,21.6075022 16.0381232,21.9949983 16.3831249,22.325 C16.7281266,22.6550016 17.2706212,22.82 18.0106249,22.82 C18.7506286,22.82 19.2931232,22.6550016 19.6381249,22.325 C19.9831266,21.9949983 20.1556249,21.6075022 20.1556249,21.1625 C20.1556249,20.7174978 19.9731267,20.3425015 19.6081249,20.0375 C19.2431231,19.7324985 18.7106284,19.58 18.0106249,19.58 Z M31.94,18.485 L33.11,18.485 L26.495,29.06 L25.325,29.06 L31.94,18.485 Z M24.38,19.04 C24.8000021,18.5299974 25.3949962,18.275 26.165,18.275 C26.9350039,18.275 27.5299979,18.5274975 27.95,19.0325 C28.3700021,19.5375025 28.58,20.1799961 28.58,20.96 C28.58,21.7400039 28.3700021,22.3824975 27.95,22.8875 C27.5299979,23.3925025 26.9350039,23.645 26.165,23.645 C25.3949962,23.645 24.8000021,23.3925025 24.38,22.8875 C23.9599979,22.3824975 23.75,21.7400039 23.75,20.96 C23.75,20.1799961 23.9599979,19.5400025 24.38,19.04 Z M25.16,22.19 C25.4000012,22.5100016 25.7349978,22.67 26.165,22.67 C26.5950022,22.67 26.9299988,22.5100016 27.17,22.19 C27.4100012,21.8699984 27.53,21.4600025 27.53,20.96 C27.53,20.4599975 27.4100012,20.0500016 27.17,19.73 C26.9299988,19.4099984 26.5950022,19.25 26.165,19.25 C25.7349978,19.25 25.4000012,19.4099984 25.16,19.73 C24.9199988,20.0500016 24.8,20.4599975 24.8,20.96 C24.8,21.4600025 24.9199988,21.8699984 25.16,22.19 Z M30.47,24.665 C30.8900021,24.1549974 31.4849962,23.9 32.255,23.9 C33.0250039,23.9 33.6199979,24.1524975 34.04,24.6575 C34.4600021,25.1625025 34.67,25.8049961 34.67,26.585 C34.67,27.3650039 34.4600021,28.0074975 34.04,28.5125 C33.6199979,29.0175025 33.0250039,29.27 32.255,29.27 C31.4849962,29.27 30.8900021,29.0175025 30.47,28.5125 C30.0499979,28.0074975 29.84,27.3650039 29.84,26.585 C29.84,25.8049961 30.0499979,25.1650025 30.47,24.665 Z M31.25,27.815 C31.4900012,28.1350016 31.8249978,28.295 32.255,28.295 C32.6850022,28.295 33.0199988,28.1350016 33.26,27.815 C33.5000012,27.4949984 33.62,27.0850025 33.62,26.585 C33.62,26.0849975 33.5000012,25.6750016 33.26,25.355 C33.0199988,25.0349984 32.6850022,24.875 32.255,24.875 C31.8249978,24.875 31.4900012,25.0349984 31.25,25.355 C31.0099988,25.6750016 30.89,26.0849975 30.89,26.585 C30.89,27.0850025 31.0099988,27.4949984 31.25,27.815 Z" id="8%" fill="#0C1321" fill-rule="nonzero"></path>
        </g>
    </g>
</svg>