<?xml version="1.0" encoding="UTF-8"?>
<svg width="19px" height="19px" viewBox="0 0 19 19" version="1.1" xmlns="http://www.w3.org/2000/svg" xmlns:xlink="http://www.w3.org/1999/xlink">
    <title>ICONS / recherche</title>
    <g id="home-2021" stroke="none" stroke-width="1" fill="none" fill-rule="evenodd">
        <g id="faq-copy-2" transform="translate(-434.000000, -377.000000)" fill="#015A5A">
            <g id="Group-3" transform="translate(408.000000, 334.000000)">
                <g id="ICONS-/-recherche" transform="translate(26.000000, 43.000000)">
                    <path d="M7.69244693,13.981503 C4.32479667,13.981503 1.58505327,11.206289 1.58505327,7.79371101 C1.58505327,4.38232436 4.32479667,1.60651472 7.69244693,1.60651472 C11.0600972,1.60651472 13.7998406,4.38232436 13.7998406,7.79371101 C13.7998406,11.206289 11.0600972,13.981503 7.69244693,13.981503 M18.7648906,17.6257955 L13.7410478,12.5930025 C14.7675697,11.2688341 15.3848939,9.60453961 15.3848939,7.79371101 C15.3848939,3.49656708 11.9343458,-1.82436648e-15 7.69244693,-1.82436648e-15 C3.451136,-1.82436648e-15 -1.77635684e-15,3.49656708 -1.77635684e-15,7.79371101 C-1.77635684e-15,12.0914506 3.451136,15.587422 7.69244693,15.587422 C9.57734336,15.587422 11.3034993,14.8952566 12.6422108,13.7509797 L17.6501796,18.7676898 C17.8048046,18.9225633 18.0058759,19 18.2075351,19 C18.411546,19 18.6161449,18.9201806 18.7707699,18.7611374 C19.078844,18.4460294 19.0759044,17.9379252 18.7648906,17.6257955" id="Fill-1"></path>
                </g>
            </g>
        </g>
    </g>
</svg>