<?xml version="1.0" encoding="UTF-8"?>
<svg width="196px" height="62px" viewBox="0 0 196 62" version="1.1" xmlns="http://www.w3.org/2000/svg" xmlns:xlink="http://www.w3.org/1999/xlink">
    <!-- Generator: Sketch 53.2 (72643) - https://sketchapp.com -->
    <title>Group 25</title>
    <desc>Created with Sketch.</desc>
    <g id="Page-1" stroke="none" stroke-width="1" fill="none" fill-rule="evenodd">
        <g id="impacts" transform="translate(-563.000000, -48.000000)">
            <g id="Group-26" transform="translate(564.000000, 49.000000)">
                <g id="Group-25">
                    <path d="M89.28,12.76 C91.3626771,12.76 93.1446593,13.1486628 94.626,13.926 C96.1073407,14.7033372 97.2293295,15.7593267 97.992,17.094 C98.7546705,18.4286733 99.136,19.9173251 99.136,21.56 C99.136,23.2026749 98.7546705,24.6913267 97.992,26.026 C97.2293295,27.3606733 96.1073407,28.4166628 94.626,29.194 C93.1446593,29.9713372 91.3626771,30.36 89.28,30.36 L81.536,30.36 L81.536,44 L77.488,44 L77.488,12.76 L89.28,12.76 Z M89.676,26.576 C91.3480084,26.576 92.6679952,26.0993381 93.636,25.146 C94.6040048,24.1926619 95.088,22.9973405 95.088,21.56 C95.088,20.1226595 94.6040048,18.9200048 93.636,17.952 C92.6679952,16.9839952 91.3480084,16.5 89.676,16.5 L81.536,16.5 L81.536,26.576 L89.676,26.576 Z M110.84,22.44 C113.509347,22.44 115.54066,23.0926601 116.934,24.398 C118.32734,25.7033399 119.024,27.5146551 119.024,29.832 L119.024,44 L115.504,44 L115.504,40.128 C114.213327,43.002681 112.057348,44.44 109.036,44.44 C106.982656,44.44 105.310673,43.9120053 104.02,42.856 C102.729327,41.7999947 102.084,40.3040097 102.084,38.368 C102.084,36.3733234 102.773326,34.7966725 104.152,33.638 C105.530674,32.4793275 107.598653,31.9 110.356,31.9 L115.064,31.9 L115.064,30.052 C115.064,27.2066524 113.553348,25.784 110.532,25.784 C108.331989,25.784 106.396008,26.546659 104.724,28.072 L102.656,25.432 C103.682672,24.4346617 104.899993,23.6866692 106.308,23.188 C107.716007,22.6893308 109.226659,22.44 110.84,22.44 Z M110.092,41.404 C111.529341,41.404 112.717329,40.9053383 113.656,39.908 C114.594671,38.9106617 115.064,37.4733427 115.064,35.596 L115.064,34.892 L110.532,34.892 C109.123993,34.892 108.03867,35.1779971 107.276,35.75 C106.51333,36.3220029 106.132,37.1359947 106.132,38.192 C106.132,39.1600048 106.49133,39.9373304 107.21,40.524 C107.92867,41.1106696 108.889327,41.404 110.092,41.404 Z M135.7,22.44 C137.372008,22.44 138.765328,23.0413273 139.88,24.244 L137.988,27.456 C137.049329,26.6053291 135.934673,26.18 134.644,26.18 C133.29466,26.18 132.158005,26.7006615 131.234,27.742 C130.309995,28.7833385 129.848,30.2133242 129.848,32.032 L129.848,44 L125.668,44 L125.668,22.88 L129.584,22.88 L129.584,26.84 C130.082669,25.6079938 130.874661,24.5666709 131.96,23.716 C133.045339,22.8653291 134.291993,22.44 135.7,22.44 Z M151.232,44.44 C149.501325,44.44 147.932007,44.073337 146.524,43.34 C145.115993,42.606663 143.994004,41.5286738 143.158,40.106 C142.321996,38.6833262 141.904,36.9600101 141.904,34.936 L141.904,31.944 C141.904,29.9199899 142.321996,28.1966738 143.158,26.774 C143.994004,25.3513262 145.115993,24.273337 146.524,23.54 C147.932007,22.806663 149.501325,22.44 151.232,22.44 C153.226677,22.44 154.927993,22.9166619 156.336,23.87 C157.744007,24.8233381 158.78533,26.2826568 159.46,28.248 L156.072,29.304 C155.162662,26.9573216 153.564011,25.784 151.276,25.784 C149.721326,25.784 148.445338,26.3119947 147.448,27.368 C146.450662,28.4240053 145.952,29.9493234 145.952,31.944 L145.952,34.936 C145.952,36.9306766 146.450662,38.4559947 147.448,39.512 C148.445338,40.5680053 149.721326,41.096 151.276,41.096 C153.564011,41.096 155.162662,39.9226784 156.072,37.576 L159.46,38.632 C158.78533,40.5973432 157.736674,42.0566619 156.314,43.01 C154.891326,43.9633381 153.197343,44.44 151.232,44.44 Z M180.932,40.128 C180.022662,41.536007 178.886007,42.606663 177.522,43.34 C176.157993,44.073337 174.625342,44.44 172.924,44.44 C171.046657,44.44 169.352674,44.0220042 167.842,43.186 C166.331326,42.3499958 165.143338,41.1913407 164.278,39.71 C163.412662,38.2286593 162.98,36.5640092 162.98,34.716 L162.98,31.196 C162.98,29.4653247 163.375996,27.9400066 164.168,26.62 C164.960004,25.2999934 166.037993,24.273337 167.402,23.54 C168.766007,22.806663 170.269325,22.44 171.912,22.44 C173.554675,22.44 175.065326,22.806663 176.444,23.54 C177.822674,24.273337 178.907996,25.3073267 179.7,26.642 C180.492004,27.9766733 180.888,29.4946582 180.888,31.196 L180.888,34.716 L166.764,34.716 L166.764,34.98 C166.764,36.8280092 167.343328,38.3019945 168.502,39.402 C169.660672,40.5020055 171.119991,41.052 172.88,41.052 C175.138678,41.052 176.89866,40.0986762 178.16,38.192 L180.932,40.128 Z M172.044,25.652 C170.547993,25.652 169.294005,26.1433284 168.282,27.126 C167.269995,28.1086716 166.764,29.3479925 166.764,30.844 L166.764,31.636 L177.324,31.636 L177.324,30.844 C177.324,29.318659 176.818005,28.0720048 175.806,27.104 C174.793995,26.1359952 173.540007,25.652 172.044,25.652 Z M191.36,44 C189.834659,44 188.595338,43.5233381 187.642,42.57 C186.688662,41.6166619 186.212,40.377341 186.212,38.852 L186.212,12.76 L190.26,12.76 L190.26,37.796 C190.26,39.5853423 191.154658,40.48 192.944,40.48 L194.22,40.48 L194.22,44 L191.36,44 Z" id="Parcel" fill="#015A5A" fill-rule="nonzero"></path>
                    <g id="Group-5" transform="translate(19.736842, 15.789474)" stroke="#015A5A" stroke-width="2">
                        <path d="M13.0928081,12.8221739 C12.2892892,13.6352174 11.3455073,14.0295652 10.2071532,14.0295652 C9.06495043,14.0295652 8.111333,13.6321739 7.292847,12.8152174 C6.48847283,12.0126087 6.09761797,11.0682609 6.09761797,9.92782609 C6.09761797,8.78391304 6.49061099,7.83 7.28557727,7.02565217 C8.10534616,6.21826087 9.06067412,5.82608696 10.2071532,5.82608696 C11.3489283,5.82608696 12.2957037,6.21652174 13.1000778,7.01913043 C13.9185638,7.83608696 14.3162608,8.78826087 14.3162608,9.92782609 C14.3162608,11.0643478 13.9211296,12.0065217 13.0928081,12.8221739 Z M20.4797084,9.21869565 C20.3129322,7.15826087 19.5872422,5.40391304 18.2594475,3.84913043 C18.0007307,3.53478261 17.752277,3.25304348 17.5004022,2.98782609 C16.0511603,1.5426087 14.3479055,0.62 12.3183681,0.194347826 C11.6568228,0.0669565217 10.9721853,0 10.3033702,0 C10.185344,0 10.0677454,0.00217391304 9.95057452,0.00652173913 C9.39123299,0.0282608696 8.82034542,0.0991304348 8.26014863,0.216521739 C7.61912956,0.351304348 6.97212365,0.552608696 6.33751904,0.814347826 C4.4170276,1.62565217 2.89850943,2.87782609 1.7045633,4.63956522 C0.381044927,6.61478261 -0.163757142,8.75 0.0423610662,11.16 C0.238643758,13.3647826 0.962623274,15.4269565 2.19462858,17.2843478 C3.45058123,19.1795652 4.70567862,21.0669565 5.96163127,22.946087 C7.36597192,25.063913 8.78613493,27.2408696 10.1849164,29.4230435 C10.3063636,29.6152174 10.4290938,29.8073913 10.5518239,30 C11.5691584,28.3582609 12.5894863,26.7130435 13.6145181,25.0647826 C14.6746157,23.3608696 15.7565225,21.6595652 16.8303043,20.0073913 C17.6851389,18.68 18.4920789,17.2604348 19.2258939,15.7956522 C20.2534915,13.7326087 20.6755634,11.5191304 20.4797084,9.21869565 Z" id="Stroke-3"></path>
                    </g>
                    <path d="M15.3478153,25.5964352 C15.3478153,26.6325459 14.5052398,27.4759931 13.4695651,27.4759931 C12.4343262,27.4759931 11.5917508,26.6329818 11.5917508,25.5964352 L11.5917508,25.5162315 L15.3478153,25.5162315 L15.3478153,25.5964352 Z M16.0116759,18.9473684 C15.6450923,18.9473684 15.3478153,19.2446454 15.3478153,19.611229 L15.3478153,24.1872027 L14.1334256,24.1872027 L14.1334256,19.611229 C14.1334256,19.2446454 13.8361486,18.9473684 13.4695651,18.9473684 C13.1029816,18.9473684 12.8057045,19.2446454 12.8057045,19.611229 L12.8057045,24.1872027 L11.5917508,24.1872027 L11.5917508,19.611229 C11.5917508,19.2446454 11.2944737,18.9473684 10.9274543,18.9473684 C10.5608708,18.9473684 10.2631579,19.2450813 10.2631579,19.6121007 L10.2631579,25.5964352 C10.2631579,27.0762819 11.2748587,28.3120302 12.6391945,28.681665 L12.6391945,44.3950653 C12.6391945,44.8536217 13.0110088,45.225 13.4695651,45.225 C13.9285573,45.225 14.2999356,44.8531858 14.2999356,44.3950653 L14.2999356,28.681665 C15.6642715,28.312902 16.6755364,27.0767178 16.6755364,25.5964352 L16.6755364,19.6121007 C16.6764082,19.2450813 16.3791312,18.9473684 16.0116759,18.9473684 L16.0116759,18.9473684 Z" id="Fill-4" fill="#015A5A"></path>
                    <path d="M45.5752448,31.3597403 L45.5752448,19.7697106 C46.0750892,20.0644217 46.686458,20.7040075 46.8830814,22.0938078 C47.2261645,24.5115139 47.3730722,29.5220508 47.4165175,31.3597403 L45.5752448,31.3597403 Z M48.2357069,21.903007 C47.8317108,19.0432342 45.8927983,18.202994 44.9249096,18.1582051 C44.7408272,18.1528304 44.5571926,18.2173265 44.4210343,18.3467665 C44.2853238,18.4753107 44.2105263,18.6535706 44.2105263,18.8403404 L44.2105263,45.4252539 C44.2105263,45.8023766 44.5168826,46.1073892 44.8935574,46.1073892 C45.2697844,46.1073892 45.5752448,45.8023766 45.5752448,45.4252539 L45.5752448,32.7244588 L48.113881,32.7244588 C48.2979635,32.7244588 48.4721924,32.651005 48.6011845,32.5202213 C48.728385,32.3898856 48.8000473,32.2134172 48.7964642,32.0302305 C48.7915374,31.7431335 48.6683679,24.963882 48.2357069,21.903007 L48.2357069,21.903007 Z" id="Fill-6" fill="#015A5A" transform="translate(46.503559, 32.132642) scale(-1, 1) translate(-46.503559, -32.132642) "></path>
                    <path d="M30,60 C46.5685425,60 60,46.5685425 60,30 C60,13.4314575 46.5685425,0 30,0 C13.4314575,0 0,13.4314575 0,30 C0,46.5685425 13.4314575,60 30,60 Z" id="Oval" stroke="#91C423" stroke-width="2" stroke-dasharray="4"></path>
                </g>
            </g>
        </g>
    </g>
</svg>