<?xml version="1.0" encoding="utf-8"?>
<!-- Generator: Adobe Illustrator 23.0.3, SVG Export Plug-In . SVG Version: 6.00 Build 0)  -->
<svg version="1.1" id="Calque_1" xmlns="http://www.w3.org/2000/svg" xmlns:xlink="http://www.w3.org/1999/xlink" x="0px" y="0px"
	 viewBox="0 0 344 67" style="enable-background:new 0 0 344 67;" xml:space="preserve">
<style type="text/css">
	.st0{filter:url(#Adobe_OpacityMaskFilter);}
	.st1{fill-rule:evenodd;clip-rule:evenodd;fill:#FFFFFF;}
	.st2{mask:url(#mask-2_1_);fill:none;}
	.st3{filter:url(#Adobe_OpacityMaskFilter_1_);}
	.st4{mask:url(#mask-4_1_);fill-rule:evenodd;clip-rule:evenodd;fill:#FFFFFF;}
	.st5{fill-rule:evenodd;clip-rule:evenodd;fill:#015A5C;}
	.st6{filter:url(#Adobe_OpacityMaskFilter_2_);}
	.st7{mask:url(#mask-6_1_);fill-rule:evenodd;clip-rule:evenodd;fill:#015A5C;}
	.st8{fill-rule:evenodd;clip-rule:evenodd;fill:#91C423;}
	.st9{enable-background:new    ;}
	.st10{fill:#015A5C;}
</style>
<title>Group 3</title>
<desc>Created with Sketch.</desc>
<g id="Page-1">
	<g id="Artboard" transform="translate(-75.000000, -76.000000)">
		<g id="Group-3" transform="translate(75.000000, 76.000000)">
			<g id="Group-45">
				<g id="Group-17" transform="translate(22.000000, 2.000000)">
					<g id="Clip-16">
					</g>
					<defs>
						<filter id="Adobe_OpacityMaskFilter" filterUnits="userSpaceOnUse" x="0" y="0.6" width="63.3" height="63.4">
							<feColorMatrix  type="matrix" values="1 0 0 0 0  0 1 0 0 0  0 0 1 0 0  0 0 0 1 0"/>
						</filter>
					</defs>
					<mask maskUnits="userSpaceOnUse" x="0" y="0.6" width="63.3" height="63.4" id="mask-2_1_">
						<g class="st0">
							<path id="path-1_1_" class="st1" d="M0,32.3C0,49.8,14.2,64,31.6,64l0,0c17.5,0,31.6-14.2,31.6-31.7l0,0
								c0-17.5-14.2-31.7-31.6-31.7l0,0C14.2,0.6,0,14.8,0,32.3"/>
						</g>
					</mask>
					<path id="Fill-15" class="st2" d="M0,32.3C0,49.8,14.2,64,31.6,64l0,0c17.5,0,31.6-14.2,31.6-31.7l0,0
						c0-17.5-14.2-31.7-31.6-31.7l0,0C14.2,0.6,0,14.8,0,32.3"/>
				</g>
				<g id="Group-44">
					<g id="Group-20" transform="translate(18.787879, 0.000000)">
						<g id="Clip-19">
						</g>
						<defs>
							<filter id="Adobe_OpacityMaskFilter_1_" filterUnits="userSpaceOnUse" x="0.4" y="0.4" width="67.3" height="66.6">
								<feColorMatrix  type="matrix" values="1 0 0 0 0  0 1 0 0 0  0 0 1 0 0  0 0 0 1 0"/>
							</filter>
						</defs>
						<mask maskUnits="userSpaceOnUse" x="0.4" y="0.4" width="67.3" height="66.6" id="mask-4_1_">
							<g class="st3">
								<polygon id="path-3_1_" class="st1" points="0.4,0.4 67.8,0.4 67.8,67 0.4,67 								"/>
							</g>
						</mask>
						<path id="Fill-18" class="st4" d="M40,44.2c1.2-1.8,2.3-3.7,3.5-5.4c1-1.5,1.8-3,2.7-4.6c5.7-2,11.7-3.8,18.2-5.4
							c0.3,1.6,0.4,3.3,0.4,5c0,0.4,0,0.8,0,1.2C57.9,36.8,49.2,39.8,40,44.2 M63.1,43.5c-13.9,4.9-26.4,11.4-37.4,19.4
							c-2.3-0.6-4.5-1.5-6.5-2.7c4.8-3.6,9.8-6.7,14.6-9.5l1.1,1.6l1.2-2c0.3-0.4,0.6-0.9,0.8-1.4c10.1-5.3,19.8-8.8,27.5-11
							C64.2,39.9,63.7,41.8,63.1,43.5 M34.1,64.1c-1.5,0-3-0.1-4.5-0.3c9.5-6.6,20.2-12.1,31.9-16.5C56.5,57.2,46.1,64.1,34.1,64.1
							 M10.3,52.9c5.5-4,11.5-7.7,17.7-10.9c0.1,0.1,0.1,0.2,0.2,0.2c1.3,2,2.7,4,4,6c-5.2,2.9-10.5,6.3-15.7,10.3
							C14.2,56.9,12.1,55,10.3,52.9 M8.6,50.5c-1.2-1.7-2.2-3.6-3-5.6c2.7,0.6,5.4,1.3,8.1,2C11.9,48.1,10.2,49.3,8.6,50.5
							 M3.6,36.8c6.8,0.9,13.6,2.3,20.2,4.1c-2.3,1.3-4.6,2.6-6.8,3.9c-4.1-1.2-8.3-2.3-12.5-3.2C4.1,40.1,3.7,38.5,3.6,36.8
							 M3.4,33.7c0-2,0.2-3.9,0.6-5.7c5.8,0.6,11.8,1.6,17.7,2.9c0.5,1.7,1.2,3.2,2.2,4.7c0.6,0.9,1.2,1.8,1.8,2.7
							C18.3,36.3,10.9,34.8,3.4,33.7C3.4,33.7,3.4,33.7,3.4,33.7 M39.7,26.4c0,1.4-0.5,2.5-1.5,3.5l0,0c-1,1-2.1,1.5-3.5,1.5
							c-1.4,0-2.5-0.5-3.6-1.5c-1-1-1.5-2.1-1.5-3.5c0-1.4,0.5-2.5,1.4-3.5c1-1,2.1-1.5,3.6-1.5c1.4,0,2.5,0.4,3.5,1.4
							C39.3,23.9,39.7,25,39.7,26.4 M34.1,3.3c14.2,0,26.1,9.6,29.6,22.5c-5.7,1.4-11,3-16.1,4.7c0.4-1.7,0.6-3.4,0.4-5.2
							c-0.2-2.7-1.2-5-2.9-7.1c-0.3-0.4-0.6-0.8-1-1.1c-1.9-1.9-4.2-3.1-6.9-3.7c-1-0.2-2-0.3-3.1-0.2c-0.7,0-1.5,0.1-2.2,0.3
							c-0.8,0.2-1.7,0.4-2.5,0.8c-2.5,1.1-4.5,2.7-6.1,5c-1.7,2.6-2.5,5.3-2.2,8.5c-5.4-1.2-10.9-2.1-16.4-2.7
							C8.4,12.5,20.2,3.3,34.1,3.3 M34.1,0.4C15.5,0.4,0.4,15.3,0.4,33.7C0.4,52.1,15.5,67,34.1,67c18.6,0,33.7-14.9,33.7-33.3
							C67.8,15.3,52.7,0.4,34.1,0.4"/>
					</g>
					<path id="Fill-21" class="st5" d="M99.7,2.2v61.7c0,0.9-0.7,1.6-1.6,1.6s-1.6-0.7-1.6-1.6V34.4H92C91.6,34.4,89.6,8.7,99.7,2.2
						"/>
					<g id="Group-25" transform="translate(0.000000, 4.203668)">
						<g id="Clip-24">
						</g>
						<defs>
							<filter id="Adobe_OpacityMaskFilter_2_" filterUnits="userSpaceOnUse" x="0" y="0.2" width="13.9" height="61.1">
								<feColorMatrix  type="matrix" values="1 0 0 0 0  0 1 0 0 0  0 0 1 0 0  0 0 0 1 0"/>
							</filter>
						</defs>
						<mask maskUnits="userSpaceOnUse" x="0" y="0.2" width="13.9" height="61.1" id="mask-6_1_">
							<g class="st6">
								<polygon id="path-5_1_" class="st1" points="0,0.2 13.9,0.2 13.9,61.3 0,61.3 								"/>
							</g>
						</mask>
						<path id="Fill-23" class="st7" d="M12.7,0.2c-0.6,0-1.2,0.5-1.2,1.1v15H8.1v-15c0-0.6-0.5-1.1-1.2-1.1c-0.6,0-1.2,0.5-1.2,1.1
							v15H2.3v-15c0-0.6-0.5-1.1-1.2-1.1C0.5,0.2,0,0.7,0,1.3v15v1v1c0,1.8,0.7,3.5,2,4.7c0.9,0.9,2,1.5,3.3,1.8v34.6
							c0,1.1,0.9,1.9,1.9,1.9c1.1,0,1.9-0.9,1.9-1.9V24.6c1.1-0.3,2.1-0.9,2.9-1.7c1.2-1.2,1.9-2.9,1.9-4.7v-0.9v-1v-15
							C13.9,0.7,13.4,0.2,12.7,0.2"/>
					</g>
					<path id="Fill-26" class="st5" d="M52.6,3.4c14.2,0,26.1,9.6,29.6,22.5c-5.7,1.4-11,3-16.1,4.7c0.4-1.7,0.6-3.4,0.4-5.2
						c-0.2-2.7-1.2-5-2.9-7.1c-0.3-0.4-0.6-0.8-1-1.1c-1.9-1.9-4.2-3.1-6.9-3.7c-1-0.2-2-0.3-3.1-0.2c-0.7,0-1.5,0.1-2.2,0.3
						c-0.8,0.2-1.7,0.4-2.5,0.8c-2.5,1.1-4.5,2.7-6.1,5c-1.7,2.6-2.5,5.3-2.2,8.5c-5.4-1.2-10.9-2.1-16.4-2.7
						C26.9,12.6,38.7,3.4,52.6,3.4"/>
					<path id="Fill-28" class="st5" d="M58.2,26.5c0,1.4-0.5,2.5-1.5,3.5l0,0c-1,1-2.1,1.5-3.5,1.5c-1.4,0-2.5-0.5-3.6-1.5
						c-1-1-1.5-2.1-1.5-3.5c0-1.4,0.5-2.5,1.4-3.5c1-1,2.1-1.5,3.6-1.5c1.4,0,2.5,0.4,3.5,1.4C57.7,24,58.2,25,58.2,26.5"/>
					<path id="Fill-30" class="st5" d="M21.9,33.8c0-2,0.2-3.9,0.5-5.7c5.8,0.6,11.8,1.6,17.7,2.9c0.5,1.7,1.2,3.2,2.2,4.7
						c0.6,0.9,1.2,1.8,1.8,2.7C36.8,36.4,29.3,34.8,21.9,33.8L21.9,33.8z"/>
					<path id="Fill-32" class="st5" d="M22.1,36.8c6.8,0.9,13.6,2.3,20.2,4.1c-2.3,1.3-4.6,2.6-6.8,3.9c-4.1-1.2-8.3-2.3-12.5-3.2
						C22.6,40.2,22.2,38.5,22.1,36.8"/>
					<path id="Fill-34" class="st5" d="M27.1,50.6c-1.2-1.7-2.2-3.6-3-5.6c2.7,0.6,5.4,1.3,8.1,2C30.4,48.2,28.7,49.4,27.1,50.6"/>
					<path id="Fill-36" class="st8" d="M28.8,52.9c5.5-4,11.5-7.7,17.7-10.9c0.1,0.1,0.1,0.2,0.2,0.2c1.3,2,2.7,4,4,6
						c-5.2,2.9-10.5,6.3-15.7,10.3C32.7,57,30.6,55.1,28.8,52.9"/>
					<path id="Fill-38" class="st8" d="M52.6,64.1c-1.5,0-3-0.1-4.5-0.3c9.5-6.6,20.2-12.1,31.9-16.5C75,57.3,64.6,64.1,52.6,64.1"
						/>
					<path id="Fill-40" class="st8" d="M81.6,43.6C67.7,48.5,55.2,55,44.2,63c-2.3-0.6-4.5-1.5-6.5-2.7c4.8-3.6,9.8-6.7,14.6-9.5
						l1.1,1.6l1.2-2c0.3-0.4,0.6-0.9,0.8-1.3c10.1-5.3,19.8-8.8,27.5-11.1C82.7,40,82.2,41.8,81.6,43.6"/>
					<path id="Fill-42" class="st8" d="M58.5,44.3c1.2-1.8,2.3-3.7,3.5-5.4c1-1.5,1.8-3,2.7-4.6c5.7-2,11.7-3.8,18.2-5.4
						c0.3,1.6,0.4,3.3,0.4,5c0,0.4,0,0.8,0,1.2C76.3,36.9,67.7,39.9,58.5,44.3"/>
				</g>
			</g>
			<g class="st9">
				<path class="st10" d="M142.2,37.4V52h-2.9V16.5h11.2c1.6,0,3,0.3,4.4,0.8c1.4,0.5,2.5,1.2,3.6,2.1c1,0.9,1.8,2,2.4,3.3
					c0.6,1.3,0.9,2.7,0.9,4.4c0,1.6-0.3,3.1-0.9,4.4c-0.6,1.3-1.4,2.4-2.4,3.2c-1,0.9-2.2,1.6-3.6,2c-1.4,0.5-2.8,0.7-4.4,0.7H142.2
					z M142.2,34.9h8.3c1.2,0,2.3-0.2,3.3-0.6c1-0.4,1.9-0.9,2.6-1.6c0.7-0.7,1.3-1.5,1.8-2.4c0.4-1,0.6-2.1,0.6-3.3
					s-0.2-2.3-0.6-3.3c-0.4-1-1-1.8-1.8-2.5c-0.7-0.7-1.6-1.2-2.6-1.6c-1-0.4-2.1-0.6-3.3-0.6h-8.3V34.9z"/>
				<path class="st10" d="M192.7,42.1h-13.5L176,52h-3l11.6-35.5h2.6L198.8,52h-2.9L192.7,42.1z M180,39.5h11.9L186,20.8L180,39.5z"
					/>
				<path class="st10" d="M223.9,37.1h-8.8V52h-2.9V16.5h10c1.6,0,3,0.3,4.4,0.8c1.4,0.5,2.6,1.2,3.6,2c1,0.9,1.8,2,2.4,3.3
					c0.6,1.3,0.9,2.8,0.9,4.4c0,1.2-0.2,2.3-0.5,3.2s-0.8,1.9-1.5,2.6c-0.6,0.8-1.4,1.5-2.2,2.1c-0.9,0.6-1.8,1.1-2.8,1.5l8.1,15.2
					V52h-3.1L223.9,37.1z M215.1,34.7h7.7c1.1,0,2.1-0.2,3.1-0.6s1.8-0.9,2.5-1.6c0.7-0.7,1.3-1.5,1.7-2.4c0.4-0.9,0.6-2,0.6-3.1
					c0-1.3-0.2-2.4-0.7-3.3s-1-1.8-1.8-2.5c-0.8-0.7-1.7-1.2-2.7-1.6c-1-0.4-2.1-0.6-3.3-0.6h-7.1V34.7z"/>
				<path class="st10" d="M270.6,41.2c-0.2,1.6-0.6,3.1-1.2,4.5c-0.6,1.4-1.4,2.6-2.4,3.6c-1,1-2.2,1.8-3.5,2.4
					c-1.4,0.6-2.9,0.9-4.6,0.9c-1.4,0-2.7-0.2-3.8-0.6c-1.1-0.4-2.2-1-3.1-1.8c-0.9-0.7-1.7-1.6-2.3-2.6c-0.7-1-1.2-2.1-1.6-3.3
					c-0.4-1.2-0.7-2.4-0.9-3.6c-0.2-1.3-0.3-2.5-0.3-3.7v-5.2c0-1.2,0.1-2.5,0.3-3.7c0.2-1.3,0.5-2.5,0.9-3.6c0.4-1.2,1-2.2,1.6-3.3
					c0.7-1,1.4-1.9,2.3-2.6c0.9-0.8,1.9-1.4,3.1-1.8c1.1-0.4,2.4-0.6,3.8-0.6c1.7,0,3.3,0.3,4.6,0.9c1.4,0.6,2.5,1.4,3.5,2.4
					c1,1,1.8,2.2,2.4,3.6c0.6,1.4,1,2.9,1.2,4.5h-2.9c-0.2-1.2-0.5-2.4-0.9-3.4c-0.4-1.1-1-2-1.7-2.8c-0.7-0.8-1.6-1.4-2.6-1.9
					c-1-0.5-2.2-0.7-3.5-0.7c-1.2,0-2.2,0.2-3.1,0.6c-0.9,0.4-1.7,0.9-2.4,1.6c-0.7,0.7-1.2,1.4-1.7,2.3c-0.5,0.9-0.9,1.8-1.1,2.8
					s-0.5,2-0.6,3c-0.1,1-0.2,2-0.2,3v5.2c0,1,0.1,2,0.2,3c0.1,1,0.4,2,0.6,3s0.7,1.9,1.1,2.8c0.5,0.9,1,1.6,1.7,2.3
					c0.7,0.7,1.5,1.2,2.4,1.6c0.9,0.4,1.9,0.6,3.1,0.6c1.4,0,2.6-0.2,3.6-0.7c1-0.4,1.9-1.1,2.6-1.9c0.7-0.8,1.3-1.7,1.7-2.8
					s0.7-2.2,0.9-3.5H270.6z"/>
				<path class="st10" d="M303.9,35h-15.7v14.5h18.1V52h-21V16.5h20.9V19h-18v13.4h15.7V35z"/>
				<path class="st10" d="M325.3,49.5h18.1V52h-21V16.5h2.9V49.5z"/>
			</g>
		</g>
	</g>
</g>
</svg>
