<?xml version="1.0" encoding="UTF-8"?>
<svg width="334px" height="82px" viewBox="0 0 334 82" version="1.1" xmlns="http://www.w3.org/2000/svg" xmlns:xlink="http://www.w3.org/1999/xlink">
    <!-- Generator: Sketch 53.2 (72643) - https://sketchapp.com -->
    <title>Group 12</title>
    <desc>Created with Sketch.</desc>
    <g id="Page-1" stroke="none" stroke-width="1" fill="none" fill-rule="evenodd">
        <g id="home2" transform="translate(-68.000000, -66.000000)">
            <g id="Group-12" transform="translate(69.000000, 66.500000)">
                <path d="M110.8,0 C113.033344,0 114.966658,0.433329 116.6,1.3 C118.233341,2.166671 119.474996,3.3499925 120.325,4.85 C121.175004,6.3500075 121.6,8.0166575 121.6,9.85 C121.6,11.6833425 121.175004,13.3416592 120.325,14.825 C119.474996,16.3083407 118.233341,17.4916622 116.6,18.375 C114.966658,19.2583378 113.033344,19.7 110.8,19.7 L101.3,19.7 L101.3,35.5 L97.3,35.5 L97.3,0 L110.8,0 Z M111.15,15.95 C113.116676,15.95 114.683327,15.3666725 115.85,14.2 C117.016672,13.0333275 117.6,11.583342 117.6,9.85 C117.6,8.116658 117.008339,6.65833925 115.825,5.475 C114.641661,4.29166075 113.083343,3.7 111.15,3.7 L101.3,3.7 L101.3,15.95 L111.15,15.95 Z M135,11 C138.000015,11 140.266659,11.7249927 141.8,13.175 C143.333341,14.6250072 144.1,16.649987 144.1,19.25 L144.1,35.5 L140.6,35.5 L140.6,30.85 C139.899996,32.383341 138.933339,33.6249952 137.7,34.575 C136.46666,35.5250047 134.933342,36 133.1,36 C130.799988,36 128.93334,35.400006 127.5,34.2 C126.066659,32.999994 125.35,31.333344 125.35,29.2 C125.35,26.933322 126.124992,25.1500065 127.675,23.85 C129.225008,22.5499935 131.516651,21.9 134.55,21.9 L140.2,21.9 L140.2,19.45 C140.2,16.049983 138.383351,14.35 134.75,14.35 C132.116653,14.35 129.883342,15.216658 128.05,16.95 L125.95,14.3 C127.083339,13.1999945 128.424992,12.3750027 129.975,11.825 C131.525008,11.2749972 133.199991,11 135,11 Z M134.05,32.95 C135.783342,32.95 137.241661,32.3333395 138.425,31.1 C139.608339,29.8666605 140.2,28.1666775 140.2,26 L140.2,24.9 L134.7,24.9 C132.966658,24.9 131.641671,25.2583298 130.725,25.975 C129.808329,26.6916703 129.35,27.6999935 129.35,29 C129.35,30.1666725 129.774996,31.116663 130.625,31.85 C131.475004,32.583337 132.616659,32.95 134.05,32.95 Z M162.9,11 C164.866676,11 166.483327,11.66666 167.75,13 L165.85,16.15 C164.716661,15.1833285 163.400007,14.7 161.9,14.7 C160.266658,14.7 158.891672,15.3166605 157.775,16.55 C156.658328,17.7833395 156.1,19.433323 156.1,21.5 L156.1,35.5 L151.95,35.5 L151.95,11.5 L155.85,11.5 L155.85,15.9 C156.450003,14.499993 157.36666,13.333338 158.6,12.4 C159.833339,11.466662 161.266658,11 162.9,11 Z M180.95,36 C179.016657,36 177.241675,35.5750043 175.625,34.725 C174.008325,33.8749957 172.725005,32.6333415 171.775,31 C170.824995,29.3666585 170.35,27.4333445 170.35,25.2 L170.35,21.75 C170.35,19.5166555 170.824995,17.5916747 171.775,15.975 C172.725005,14.3583252 174.008325,13.1250042 175.625,12.275 C177.241675,11.4249957 179.016657,11 180.95,11 C183.116677,11 184.999992,11.5166615 186.6,12.55 C188.200008,13.5833385 189.383329,15.133323 190.15,17.2 L186.8,18.3 C185.666661,15.6666535 183.733347,14.35 181,14.35 C179.09999,14.35 177.516673,14.9999935 176.25,16.3 C174.983327,17.6000065 174.35,19.416655 174.35,21.75 L174.35,25.2 C174.35,27.5666785 174.983327,29.3999935 176.25,30.7 C177.516673,32.0000065 179.09999,32.65 181,32.65 C183.76668,32.65 185.699994,31.31668 186.8,28.65 L190.15,29.75 C189.383329,31.8500105 188.191675,33.4166615 186.575,34.45 C184.958325,35.4833385 183.083344,36 180.95,36 Z M214.6,31.15 C213.566661,32.7166745 212.275008,33.9166625 210.725,34.75 C209.174992,35.5833375 207.466676,36 205.6,36 C203.499989,36 201.600008,35.5250047 199.9,34.575 C198.199991,33.6249952 196.858338,32.316675 195.875,30.65 C194.891662,28.983325 194.4,27.116677 194.4,25.05 L194.4,20.85 C194.4,18.9499905 194.849995,17.2500075 195.75,15.75 C196.650004,14.2499925 197.866659,13.0833375 199.4,12.25 C200.933341,11.4166625 202.616657,11 204.45,11 C206.316676,11 208.016659,11.4166625 209.55,12.25 C211.083341,13.0833375 212.299995,14.2499925 213.2,15.75 C214.100004,17.2500075 214.55,18.9499905 214.55,20.85 L214.55,24.8 L198.15,24.8 L198.15,25.3 C198.15,27.500011 198.858326,29.26666 200.275,30.6 C201.691674,31.93334 203.449989,32.6 205.55,32.6 C208.21668,32.6 210.316659,31.4833445 211.85,29.25 L214.6,31.15 Z M204.6,14.2 C202.799991,14.2 201.275006,14.8083272 200.025,16.025 C198.774994,17.2416727 198.15,18.749991 198.15,20.55 L198.15,21.7 L211.05,21.7 L211.05,20.55 C211.05,18.7166575 210.425006,17.200006 209.175,16 C207.924994,14.799994 206.400009,14.2 204.6,14.2 Z M226.6,35.5 C224.966658,35.5 223.608339,34.9583387 222.525,33.875 C221.441661,32.7916613 220.9,31.4333415 220.9,29.8 L220.9,0 L224.9,0 L224.9,28.8 C224.9,29.8333385 225.174997,30.6249973 225.725,31.175 C226.275003,31.7250027 227.066661,32 228.1,32 L229.65,32 L229.65,35.5 L226.6,35.5 Z" id="Parcel" fill="#015A5A" fill-rule="nonzero"></path>
                <path d="M101.115,49.6 C102.115005,49.6 102.919997,49.8724973 103.53,50.4175 C104.140003,50.9625027 104.445,51.6949954 104.445,52.615 C104.445,53.5350046 104.140003,54.2674973 103.53,54.8125 C102.919997,55.3575027 102.115005,55.63 101.115,55.63 L98.82,55.63 L98.82,59.5 L97.62,59.5 L97.62,49.6 L101.115,49.6 Z M100.935,54.505 C101.705004,54.505 102.272498,54.3475016 102.6375,54.0325 C103.002502,53.7174984 103.185,53.2450032 103.185,52.615 C103.185,51.9849969 103.002502,51.5125016 102.6375,51.1975 C102.272498,50.8824984 101.705004,50.725 100.935,50.725 L98.82,50.725 L98.82,54.505 L100.935,54.505 Z M109.71,51.85 C110.840006,51.85 111.727497,52.1949966 112.3725,52.885 C113.017503,53.5750035 113.34,54.5299939 113.34,55.75 C113.34,56.9700061 113.017503,57.9249966 112.3725,58.615 C111.727497,59.3050035 110.840006,59.65 109.71,59.65 C108.579994,59.65 107.692503,59.3050035 107.0475,58.615 C106.402497,57.9249966 106.08,56.9700061 106.08,55.75 C106.08,54.5299939 106.402497,53.5750035 107.0475,52.885 C107.692503,52.1949966 108.579994,51.85 109.71,51.85 Z M109.71,52.885 C108.949996,52.885 108.355002,53.1399975 107.925,53.65 C107.494998,54.1600026 107.28,54.8599956 107.28,55.75 C107.28,56.6400045 107.494998,57.3399975 107.925,57.85 C108.355002,58.3600026 108.949996,58.615 109.71,58.615 C110.470004,58.615 111.064998,58.3600026 111.495,57.85 C111.925002,57.3399975 112.14,56.6400045 112.14,55.75 C112.14,54.8599956 111.925002,54.1600026 111.495,53.65 C111.064998,53.1399975 110.470004,52.885 109.71,52.885 Z M122.16,52 L122.16,59.5 L121.11,59.5 L121.035,58.36 C120.534997,59.2200043 119.640006,59.65 118.35,59.65 C117.539996,59.65 116.877503,59.4250023 116.3625,58.975 C115.847497,58.5249978 115.59,57.8350047 115.59,56.905 L115.59,52 L116.79,52 L116.79,56.59 C116.79,57.3200037 116.939998,57.8374985 117.24,58.1425 C117.540001,58.4475015 117.979997,58.6 118.56,58.6 C119.250003,58.6 119.822498,58.3900021 120.2775,57.97 C120.732502,57.5499979 120.96,56.9200042 120.96,56.08 L120.96,52 L122.16,52 Z M128.49,51.85 C128.850002,51.85 129.124999,51.8999995 129.315,52 L129.075,53.17 C128.834999,53.0399994 128.520002,52.975 128.13,52.975 C127.809998,52.975 127.497502,53.0674991 127.1925,53.2525 C126.887498,53.4375009 126.637501,53.7174981 126.4425,54.0925 C126.247499,54.4675019 126.15,54.9199974 126.15,55.45 L126.15,59.5 L124.95,59.5 L124.95,52 L125.925,52 L126.09,53.23 C126.510002,52.3099954 127.309994,51.85 128.49,51.85 Z M142.68,52 L142.68,59.5 L141.63,59.5 L141.555,58.36 C141.054997,59.2200043 140.160006,59.65 138.87,59.65 C138.059996,59.65 137.397503,59.4250023 136.8825,58.975 C136.367497,58.5249978 136.11,57.8350047 136.11,56.905 L136.11,52 L137.31,52 L137.31,56.59 C137.31,57.3200037 137.459998,57.8374985 137.76,58.1425 C138.060001,58.4475015 138.499997,58.6 139.08,58.6 C139.770003,58.6 140.342498,58.3900021 140.7975,57.97 C141.252502,57.5499979 141.48,56.9200042 141.48,56.08 L141.48,52 L142.68,52 Z M149.115,51.85 C149.965004,51.85 150.664997,52.0949976 151.215,52.585 C151.765003,53.0750025 152.04,53.7799954 152.04,54.7 L152.04,59.5 L150.84,59.5 L150.84,55.12 C150.84,54.3399961 150.672502,53.7750018 150.3375,53.425 C150.002498,53.0749983 149.555003,52.9 148.995,52.9 C148.594998,52.9 148.220002,52.9874991 147.87,53.1625 C147.519998,53.3375009 147.232501,53.622498 147.0075,54.0175 C146.782499,54.412502 146.67,54.909997 146.67,55.51 L146.67,59.5 L145.47,59.5 L145.47,52 L146.52,52 L146.595,53.17 C146.845001,52.7199978 147.189998,52.3875011 147.63,52.1725 C148.070002,51.9574989 148.564997,51.85 149.115,51.85 Z M161.19,55.36 C161.19,55.6400014 161.17,55.9199986 161.13,56.2 L155.475,56.2 C155.545,56.9600038 155.797498,57.5499979 156.2325,57.97 C156.667502,58.3900021 157.229997,58.6 157.92,58.6 C158.470003,58.6 158.927498,58.505001 159.2925,58.315 C159.657502,58.1249991 159.904999,57.8500018 160.035,57.49 L161.04,58.015 C160.739998,58.5450027 160.340002,58.9499986 159.84,59.23 C159.339997,59.5100014 158.700004,59.65 157.92,59.65 C156.789994,59.65 155.902503,59.3050035 155.2575,58.615 C154.612497,57.9249966 154.29,56.9700061 154.29,55.75 C154.29,54.5299939 154.597497,53.5750035 155.2125,52.885 C155.827503,52.1949966 156.699994,51.85 157.83,51.85 C158.530003,51.85 159.134997,52.0049985 159.645,52.315 C160.155003,52.6250016 160.539999,53.0449974 160.8,53.575 C161.060001,54.1050027 161.19,54.6999967 161.19,55.36 Z M157.83,52.9 C157.169997,52.9 156.637502,53.0949981 156.2325,53.485 C155.827498,53.875002 155.58,54.4249965 155.49,55.135 L160.035,55.135 C159.955,54.4349965 159.725002,53.887502 159.345,53.4925 C158.964998,53.097498 158.460003,52.9 157.83,52.9 Z M174.735,58.63 C174.935001,58.63 175.134999,58.6050003 175.335,58.555 L175.26,59.5 C174.979999,59.6000005 174.680002,59.65 174.36,59.65 C173.969998,59.65 173.662501,59.5650009 173.4375,59.395 C173.212499,59.2249992 173.07,58.940002 173.01,58.54 C172.779999,58.8900018 172.442502,59.162499 171.9975,59.3575 C171.552498,59.552501 171.085002,59.65 170.595,59.65 C169.854996,59.65 169.245002,59.4775017 168.765,59.1325 C168.284998,58.7874983 168.045,58.2900033 168.045,57.64 C168.045,57.0699972 168.294997,56.5775021 168.795,56.1625 C169.295002,55.7474979 170.019995,55.4600008 170.97,55.3 L172.965,54.97 L172.965,54.55 C172.965,54.0499975 172.810002,53.6500015 172.5,53.35 C172.189998,53.0499985 171.760003,52.9 171.21,52.9 C170.709997,52.9 170.277502,53.0199988 169.9125,53.26 C169.547498,53.5000012 169.265001,53.8549977 169.065,54.325 L168.18,53.68 C168.380001,53.1199972 168.752497,52.6750017 169.2975,52.345 C169.842503,52.0149984 170.479996,51.85 171.21,51.85 C172.100004,51.85 172.814997,52.0649979 173.355,52.495 C173.895003,52.9250022 174.165,53.5599958 174.165,54.4 L174.165,58.09 C174.165,58.2700009 174.21,58.4049996 174.3,58.495 C174.39,58.5850005 174.534999,58.63 174.735,58.63 Z M170.655,58.6 C171.285003,58.6 171.827498,58.4500015 172.2825,58.15 C172.737502,57.8499985 172.965,57.4600024 172.965,56.98 L172.965,55.945 L171.285,56.26 C170.614997,56.3800006 170.115002,56.5524989 169.785,56.7775 C169.454998,57.0025011 169.29,57.2899983 169.29,57.64 C169.29,57.9500016 169.409999,58.1874992 169.65,58.3525 C169.890001,58.5175008 170.224998,58.6 170.655,58.6 Z M178.215,57.49 C178.215,57.8700019 178.272499,58.1324993 178.3875,58.2775 C178.502501,58.4225007 178.714998,58.495 179.025,58.495 C179.235001,58.495 179.417499,58.4800002 179.5725,58.45 C179.727501,58.4199999 179.909999,58.3650004 180.12,58.285 L179.925,59.44 C179.594998,59.5800007 179.225002,59.65 178.815,59.65 C178.204997,59.65 177.752501,59.4850017 177.4575,59.155 C177.162499,58.8249984 177.015,58.3200034 177.015,57.64 L177.015,48.55 L178.215,48.55 L178.215,57.49 Z M182.265,50.56 C181.994999,50.56 181.777501,50.4775008 181.6125,50.3125 C181.447499,50.1474992 181.365,49.9300014 181.365,49.66 C181.365,49.3899987 181.447499,49.1725008 181.6125,49.0075 C181.777501,48.8424992 181.994999,48.76 182.265,48.76 C182.535001,48.76 182.752499,48.8424992 182.9175,49.0075 C183.082501,49.1725008 183.165,49.3899987 183.165,49.66 C183.165,49.9300014 183.082501,50.1474992 182.9175,50.3125 C182.752499,50.4775008 182.535001,50.56 182.265,50.56 Z M182.865,59.5 L181.665,59.5 L181.665,52 L182.865,52 L182.865,59.5 Z M194.37,51.85 C194.870002,51.85 195.337498,51.952499 195.7725,52.1575 C196.207502,52.362501 196.559999,52.6799979 196.83,53.11 C197.100001,53.5400022 197.235,54.0699969 197.235,54.7 L197.235,59.5 L196.035,59.5 L196.035,54.82 C196.035,54.1699968 195.872502,53.6875016 195.5475,53.3725 C195.222498,53.0574984 194.795003,52.9 194.265,52.9 C193.864998,52.9 193.497502,52.997499 193.1625,53.1925 C192.827498,53.387501 192.557501,53.6724981 192.3525,54.0475 C192.147499,54.4225019 192.045,54.8699974 192.045,55.39 L192.045,59.5 L190.845,59.5 L190.845,54.82 C190.845,54.1699968 190.682502,53.6875016 190.3575,53.3725 C190.032498,53.0574984 189.605003,52.9 189.075,52.9 C188.714998,52.9 188.365002,52.9924991 188.025,53.1775 C187.684998,53.3625009 187.405001,53.6499981 187.185,54.04 C186.964999,54.430002 186.855,54.9149971 186.855,55.495 L186.855,59.5 L185.655,59.5 L185.655,52 L186.705,52 L186.78,53.17 C187.040001,52.7299978 187.382498,52.4000011 187.8075,52.18 C188.232502,51.9599989 188.689998,51.85 189.18,51.85 C189.730003,51.85 190.237498,51.9749988 190.7025,52.225 C191.167502,52.4750013 191.519999,52.8399976 191.76,53.32 C191.980001,52.8399976 192.339997,52.4750013 192.84,52.225 C193.340002,51.9749988 193.849997,51.85 194.37,51.85 Z M206.385,55.36 C206.385,55.6400014 206.365,55.9199986 206.325,56.2 L200.67,56.2 C200.74,56.9600038 200.992498,57.5499979 201.4275,57.97 C201.862502,58.3900021 202.424997,58.6 203.115,58.6 C203.665003,58.6 204.122498,58.505001 204.4875,58.315 C204.852502,58.1249991 205.099999,57.8500018 205.23,57.49 L206.235,58.015 C205.934998,58.5450027 205.535002,58.9499986 205.035,59.23 C204.534997,59.5100014 203.895004,59.65 203.115,59.65 C201.984994,59.65 201.097503,59.3050035 200.4525,58.615 C199.807497,57.9249966 199.485,56.9700061 199.485,55.75 C199.485,54.5299939 199.792497,53.5750035 200.4075,52.885 C201.022503,52.1949966 201.894994,51.85 203.025,51.85 C203.725003,51.85 204.329997,52.0049985 204.84,52.315 C205.350003,52.6250016 205.734999,53.0449974 205.995,53.575 C206.255001,54.1050027 206.385,54.6999967 206.385,55.36 Z M203.025,52.9 C202.364997,52.9 201.832502,53.0949981 201.4275,53.485 C201.022498,53.875002 200.775,54.4249965 200.685,55.135 L205.23,55.135 C205.15,54.4349965 204.920002,53.887502 204.54,53.4925 C204.159998,53.097498 203.655003,52.9 203.025,52.9 Z M212.31,51.85 C213.160004,51.85 213.859997,52.0949976 214.41,52.585 C214.960003,53.0750025 215.235,53.7799954 215.235,54.7 L215.235,59.5 L214.035,59.5 L214.035,55.12 C214.035,54.3399961 213.867502,53.7750018 213.5325,53.425 C213.197498,53.0749983 212.750003,52.9 212.19,52.9 C211.789998,52.9 211.415002,52.9874991 211.065,53.1625 C210.714998,53.3375009 210.427501,53.622498 210.2025,54.0175 C209.977499,54.412502 209.865,54.909997 209.865,55.51 L209.865,59.5 L208.665,59.5 L208.665,52 L209.715,52 L209.79,53.17 C210.040001,52.7199978 210.384998,52.3875011 210.825,52.1725 C211.265002,51.9574989 211.759997,51.85 212.31,51.85 Z M222.54,58.975 C222.039997,59.4250023 221.395004,59.65 220.605,59.65 C219.994997,59.65 219.497502,59.4850017 219.1125,59.155 C218.727498,58.8249984 218.53,58.3200034 218.52,57.64 L218.52,53.035 L217.02,53.035 L217.02,52 L218.52,52 L218.52,50.2 L219.72,49.87 L219.72,52 L222.495,52 L222.495,53.035 L219.72,53.035 L219.72,57.43 C219.72,57.7900018 219.822499,58.0624991 220.0275,58.2475 C220.232501,58.4325009 220.504998,58.525 220.845,58.525 C221.325002,58.525 221.749998,58.3400019 222.12,57.97 L222.54,58.975 Z M230.385,58.63 C230.585001,58.63 230.784999,58.6050003 230.985,58.555 L230.91,59.5 C230.629999,59.6000005 230.330002,59.65 230.01,59.65 C229.619998,59.65 229.312501,59.5650009 229.0875,59.395 C228.862499,59.2249992 228.72,58.940002 228.66,58.54 C228.429999,58.8900018 228.092502,59.162499 227.6475,59.3575 C227.202498,59.552501 226.735002,59.65 226.245,59.65 C225.504996,59.65 224.895002,59.4775017 224.415,59.1325 C223.934998,58.7874983 223.695,58.2900033 223.695,57.64 C223.695,57.0699972 223.944997,56.5775021 224.445,56.1625 C224.945002,55.7474979 225.669995,55.4600008 226.62,55.3 L228.615,54.97 L228.615,54.55 C228.615,54.0499975 228.460002,53.6500015 228.15,53.35 C227.839998,53.0499985 227.410003,52.9 226.86,52.9 C226.359997,52.9 225.927502,53.0199988 225.5625,53.26 C225.197498,53.5000012 224.915001,53.8549977 224.715,54.325 L223.83,53.68 C224.030001,53.1199972 224.402497,52.6750017 224.9475,52.345 C225.492503,52.0149984 226.129996,51.85 226.86,51.85 C227.750004,51.85 228.464997,52.0649979 229.005,52.495 C229.545003,52.9250022 229.815,53.5599958 229.815,54.4 L229.815,58.09 C229.815,58.2700009 229.86,58.4049996 229.95,58.495 C230.04,58.5850005 230.184999,58.63 230.385,58.63 Z M226.305,58.6 C226.935003,58.6 227.477498,58.4500015 227.9325,58.15 C228.387502,57.8499985 228.615,57.4600024 228.615,56.98 L228.615,55.945 L226.935,56.26 C226.264997,56.3800006 225.765002,56.5524989 225.435,56.7775 C225.104998,57.0025011 224.94,57.2899983 224.94,57.64 C224.94,57.9500016 225.059999,58.1874992 225.3,58.3525 C225.540001,58.5175008 225.874998,58.6 226.305,58.6 Z M237.315,58.975 C236.814997,59.4250023 236.170004,59.65 235.38,59.65 C234.769997,59.65 234.272502,59.4850017 233.8875,59.155 C233.502498,58.8249984 233.305,58.3200034 233.295,57.64 L233.295,53.035 L231.795,53.035 L231.795,52 L233.295,52 L233.295,50.2 L234.495,49.87 L234.495,52 L237.27,52 L237.27,53.035 L234.495,53.035 L234.495,57.43 C234.495,57.7900018 234.597499,58.0624991 234.8025,58.2475 C235.007501,58.4325009 235.279998,58.525 235.62,58.525 C236.100002,58.525 236.524998,58.3400019 236.895,57.97 L237.315,58.975 Z M239.61,50.56 C239.339999,50.56 239.122501,50.4775008 238.9575,50.3125 C238.792499,50.1474992 238.71,49.9300014 238.71,49.66 C238.71,49.3899987 238.792499,49.1725008 238.9575,49.0075 C239.122501,48.8424992 239.339999,48.76 239.61,48.76 C239.880001,48.76 240.097499,48.8424992 240.2625,49.0075 C240.427501,49.1725008 240.51,49.3899987 240.51,49.66 C240.51,49.9300014 240.427501,50.1474992 240.2625,50.3125 C240.097499,50.4775008 239.880001,50.56 239.61,50.56 Z M240.21,59.5 L239.01,59.5 L239.01,52 L240.21,52 L240.21,59.5 Z M246.165,51.85 C247.295006,51.85 248.182497,52.1949966 248.8275,52.885 C249.472503,53.5750035 249.795,54.5299939 249.795,55.75 C249.795,56.9700061 249.472503,57.9249966 248.8275,58.615 C248.182497,59.3050035 247.295006,59.65 246.165,59.65 C245.034994,59.65 244.147503,59.3050035 243.5025,58.615 C242.857497,57.9249966 242.535,56.9700061 242.535,55.75 C242.535,54.5299939 242.857497,53.5750035 243.5025,52.885 C244.147503,52.1949966 245.034994,51.85 246.165,51.85 Z M246.165,52.885 C245.404996,52.885 244.810002,53.1399975 244.38,53.65 C243.949998,54.1600026 243.735,54.8599956 243.735,55.75 C243.735,56.6400045 243.949998,57.3399975 244.38,57.85 C244.810002,58.3600026 245.404996,58.615 246.165,58.615 C246.925004,58.615 247.519998,58.3600026 247.95,57.85 C248.380002,57.3399975 248.595,56.6400045 248.595,55.75 C248.595,54.8599956 248.380002,54.1600026 247.95,53.65 C247.519998,53.1399975 246.925004,52.885 246.165,52.885 Z M255.765,51.85 C256.615004,51.85 257.314997,52.0949976 257.865,52.585 C258.415003,53.0750025 258.69,53.7799954 258.69,54.7 L258.69,59.5 L257.49,59.5 L257.49,55.12 C257.49,54.3399961 257.322502,53.7750018 256.9875,53.425 C256.652498,53.0749983 256.205003,52.9 255.645,52.9 C255.244998,52.9 254.870002,52.9874991 254.52,53.1625 C254.169998,53.3375009 253.882501,53.622498 253.6575,54.0175 C253.432499,54.412502 253.32,54.909997 253.32,55.51 L253.32,59.5 L252.12,59.5 L252.12,52 L253.17,52 L253.245,53.17 C253.495001,52.7199978 253.839998,52.3875011 254.28,52.1725 C254.720002,51.9574989 255.214997,51.85 255.765,51.85 Z M270.06,51.85 C270.420002,51.85 270.694999,51.8999995 270.885,52 L270.645,53.17 C270.404999,53.0399994 270.090002,52.975 269.7,52.975 C269.379998,52.975 269.067502,53.0674991 268.7625,53.2525 C268.457498,53.4375009 268.207501,53.7174981 268.0125,54.0925 C267.817499,54.4675019 267.72,54.9199974 267.72,55.45 L267.72,59.5 L266.52,59.5 L266.52,52 L267.495,52 L267.66,53.23 C268.080002,52.3099954 268.879994,51.85 270.06,51.85 Z M279.075,55.36 C279.075,55.6400014 279.055,55.9199986 279.015,56.2 L273.36,56.2 C273.43,56.9600038 273.682498,57.5499979 274.1175,57.97 C274.552502,58.3900021 275.114997,58.6 275.805,58.6 C276.355003,58.6 276.812498,58.505001 277.1775,58.315 C277.542502,58.1249991 277.789999,57.8500018 277.92,57.49 L278.925,58.015 C278.624998,58.5450027 278.225002,58.9499986 277.725,59.23 C277.224997,59.5100014 276.585004,59.65 275.805,59.65 C274.674994,59.65 273.787503,59.3050035 273.1425,58.615 C272.497497,57.9249966 272.175,56.9700061 272.175,55.75 C272.175,54.5299939 272.482497,53.5750035 273.0975,52.885 C273.712503,52.1949966 274.584994,51.85 275.715,51.85 C276.415003,51.85 277.019997,52.0049985 277.53,52.315 C278.040003,52.6250016 278.424999,53.0449974 278.685,53.575 C278.945001,54.1050027 279.075,54.6999967 279.075,55.36 Z M275.715,52.9 C275.054997,52.9 274.522502,53.0949981 274.1175,53.485 C273.712498,53.875002 273.465,54.4249965 273.375,55.135 L277.92,55.135 C277.84,54.4349965 277.610002,53.887502 277.23,53.4925 C276.849998,53.097498 276.345003,52.9 275.715,52.9 Z M277.38,48.25 L275.91,50.755 L274.935,50.755 L276.075,48.25 L277.38,48.25 Z M283.905,59.65 C283.184996,59.65 282.535003,59.5075014 281.955,59.2225 C281.374997,58.9374986 280.950001,58.5150028 280.68,57.955 L281.655,57.28 C281.825001,57.7200022 282.119998,58.0499989 282.54,58.27 C282.960002,58.4900011 283.454997,58.6 284.025,58.6 C284.615003,58.6 285.064998,58.4950011 285.375,58.285 C285.685002,58.074999 285.84,57.8100016 285.84,57.49 C285.84,57.1999986 285.695001,56.9675009 285.405,56.7925 C285.114999,56.6174991 284.605004,56.4650007 283.875,56.335 C283.154996,56.2049994 282.585002,56.0475009 282.165,55.8625 C281.744998,55.6774991 281.440001,55.4425014 281.25,55.1575 C281.059999,54.8724986 280.965,54.5200021 280.965,54.1 C280.965,53.689998 281.084999,53.3150017 281.325,52.975 C281.565001,52.6349983 281.909998,52.362501 282.36,52.1575 C282.810002,51.952499 283.329997,51.85 283.92,51.85 C284.720004,51.85 285.362498,51.9974985 285.8475,52.2925 C286.332502,52.5875015 286.679999,53.039997 286.89,53.65 L285.87,54.25 C285.709999,53.7699976 285.467502,53.4250011 285.1425,53.215 C284.817498,53.004999 284.410002,52.9 283.92,52.9 C283.429998,52.9 283.015002,53.0099989 282.675,53.23 C282.334998,53.4500011 282.165,53.7049986 282.165,53.995 C282.165,54.3250017 282.312499,54.5799991 282.6075,54.76 C282.902501,54.9400009 283.429996,55.0949994 284.19,55.225 C285.230005,55.3950009 285.964998,55.6499983 286.395,55.99 C286.825002,56.3300017 287.04,56.8099969 287.04,57.43 C287.04,57.8600022 286.912501,58.2424983 286.6575,58.5775 C286.402499,58.9125017 286.037502,59.1749991 285.5625,59.365 C285.087498,59.555001 284.535003,59.65 283.905,59.65 Z M289.86,50.56 C289.589999,50.56 289.372501,50.4775008 289.2075,50.3125 C289.042499,50.1474992 288.96,49.9300014 288.96,49.66 C288.96,49.3899987 289.042499,49.1725008 289.2075,49.0075 C289.372501,48.8424992 289.589999,48.76 289.86,48.76 C290.130001,48.76 290.347499,48.8424992 290.5125,49.0075 C290.677501,49.1725008 290.76,49.3899987 290.76,49.66 C290.76,49.9300014 290.677501,50.1474992 290.5125,50.3125 C290.347499,50.4775008 290.130001,50.56 289.86,50.56 Z M290.46,59.5 L289.26,59.5 L289.26,52 L290.46,52 L290.46,59.5 Z M294.39,57.49 C294.39,57.8700019 294.447499,58.1324993 294.5625,58.2775 C294.677501,58.4225007 294.889998,58.495 295.2,58.495 C295.410001,58.495 295.592499,58.4800002 295.7475,58.45 C295.902501,58.4199999 296.084999,58.3650004 296.295,58.285 L296.1,59.44 C295.769998,59.5800007 295.400002,59.65 294.99,59.65 C294.379997,59.65 293.927501,59.4850017 293.6325,59.155 C293.337499,58.8249984 293.19,58.3200034 293.19,57.64 L293.19,48.55 L294.39,48.55 L294.39,57.49 Z M298.44,50.56 C298.169999,50.56 297.952501,50.4775008 297.7875,50.3125 C297.622499,50.1474992 297.54,49.9300014 297.54,49.66 C297.54,49.3899987 297.622499,49.1725008 297.7875,49.0075 C297.952501,48.8424992 298.169999,48.76 298.44,48.76 C298.710001,48.76 298.927499,48.8424992 299.0925,49.0075 C299.257501,49.1725008 299.34,49.3899987 299.34,49.66 C299.34,49.9300014 299.257501,50.1474992 299.0925,50.3125 C298.927499,50.4775008 298.710001,50.56 298.44,50.56 Z M299.04,59.5 L297.84,59.5 L297.84,52 L299.04,52 L299.04,59.5 Z M308.265,55.36 C308.265,55.6400014 308.245,55.9199986 308.205,56.2 L302.55,56.2 C302.62,56.9600038 302.872498,57.5499979 303.3075,57.97 C303.742502,58.3900021 304.304997,58.6 304.995,58.6 C305.545003,58.6 306.002498,58.505001 306.3675,58.315 C306.732502,58.1249991 306.979999,57.8500018 307.11,57.49 L308.115,58.015 C307.814998,58.5450027 307.415002,58.9499986 306.915,59.23 C306.414997,59.5100014 305.775004,59.65 304.995,59.65 C303.864994,59.65 302.977503,59.3050035 302.3325,58.615 C301.687497,57.9249966 301.365,56.9700061 301.365,55.75 C301.365,54.5299939 301.672497,53.5750035 302.2875,52.885 C302.902503,52.1949966 303.774994,51.85 304.905,51.85 C305.605003,51.85 306.209997,52.0049985 306.72,52.315 C307.230003,52.6250016 307.614999,53.0449974 307.875,53.575 C308.135001,54.1050027 308.265,54.6999967 308.265,55.36 Z M304.905,52.9 C304.244997,52.9 303.712502,53.0949981 303.3075,53.485 C302.902498,53.875002 302.655,54.4249965 302.565,55.135 L307.11,55.135 C307.03,54.4349965 306.800002,53.887502 306.42,53.4925 C306.039998,53.097498 305.535003,52.9 304.905,52.9 Z M314.19,51.85 C315.040004,51.85 315.739997,52.0949976 316.29,52.585 C316.840003,53.0750025 317.115,53.7799954 317.115,54.7 L317.115,59.5 L315.915,59.5 L315.915,55.12 C315.915,54.3399961 315.747502,53.7750018 315.4125,53.425 C315.077498,53.0749983 314.630003,52.9 314.07,52.9 C313.669998,52.9 313.295002,52.9874991 312.945,53.1625 C312.594998,53.3375009 312.307501,53.622498 312.0825,54.0175 C311.857499,54.412502 311.745,54.909997 311.745,55.51 L311.745,59.5 L310.545,59.5 L310.545,52 L311.595,52 L311.67,53.17 C311.920001,52.7199978 312.264998,52.3875011 312.705,52.1725 C313.145002,51.9574989 313.639997,51.85 314.19,51.85 Z M324.42,58.975 C323.919997,59.4250023 323.275004,59.65 322.485,59.65 C321.874997,59.65 321.377502,59.4850017 320.9925,59.155 C320.607498,58.8249984 320.41,58.3200034 320.4,57.64 L320.4,53.035 L318.9,53.035 L318.9,52 L320.4,52 L320.4,50.2 L321.6,49.87 L321.6,52 L324.375,52 L324.375,53.035 L321.6,53.035 L321.6,57.43 C321.6,57.7900018 321.702499,58.0624991 321.9075,58.2475 C322.112501,58.4325009 322.384998,58.525 322.725,58.525 C323.205002,58.525 323.629998,58.3400019 324,57.97 L324.42,58.975 Z M332.55,55.36 C332.55,55.6400014 332.53,55.9199986 332.49,56.2 L326.835,56.2 C326.905,56.9600038 327.157498,57.5499979 327.5925,57.97 C328.027502,58.3900021 328.589997,58.6 329.28,58.6 C329.830003,58.6 330.287498,58.505001 330.6525,58.315 C331.017502,58.1249991 331.264999,57.8500018 331.395,57.49 L332.4,58.015 C332.099998,58.5450027 331.700002,58.9499986 331.2,59.23 C330.699997,59.5100014 330.060004,59.65 329.28,59.65 C328.149994,59.65 327.262503,59.3050035 326.6175,58.615 C325.972497,57.9249966 325.65,56.9700061 325.65,55.75 C325.65,54.5299939 325.957497,53.5750035 326.5725,52.885 C327.187503,52.1949966 328.059994,51.85 329.19,51.85 C329.890003,51.85 330.494997,52.0049985 331.005,52.315 C331.515003,52.6250016 331.899999,53.0449974 332.16,53.575 C332.420001,54.1050027 332.55,54.6999967 332.55,55.36 Z M329.19,52.9 C328.529997,52.9 327.997502,53.0949981 327.5925,53.485 C327.187498,53.875002 326.94,54.4249965 326.85,55.135 L331.395,55.135 C331.315,54.4349965 331.085002,53.887502 330.705,53.4925 C330.324998,53.097498 329.820003,52.9 329.19,52.9 Z M100.56,69.85 C101.310004,69.85 101.942497,70.0224983 102.4575,70.3675 C102.972503,70.7125017 103.374999,71.2049968 103.665,71.845 L102.525,72.385 C102.204998,71.3949951 101.540005,70.9 100.53,70.9 C99.7799962,70.9 99.1925021,71.1524975 98.7675,71.6575 C98.3424979,72.1625025 98.13,72.8599956 98.13,73.75 C98.13,74.6400045 98.3424979,75.3374975 98.7675,75.8425 C99.1925021,76.3475025 99.7799962,76.6 100.53,76.6 C101.110003,76.6 101.577498,76.4675013 101.9325,76.2025 C102.287502,75.9374987 102.519999,75.5550025 102.63,75.055 L103.74,75.445 C103.479999,76.1450035 103.080003,76.6874981 102.54,77.0725 C101.999997,77.4575019 101.340004,77.65 100.56,77.65 C99.4299943,77.65 98.5425032,77.3050035 97.8975,76.615 C97.2524968,75.9249966 96.93,74.9700061 96.93,73.75 C96.93,72.5299939 97.2524968,71.5750035 97.8975,70.885 C98.5425032,70.1949966 99.4299943,69.85 100.56,69.85 Z M106.455,68.56 C106.184999,68.56 105.967501,68.4775008 105.8025,68.3125 C105.637499,68.1474992 105.555,67.9300014 105.555,67.66 C105.555,67.3899987 105.637499,67.1725008 105.8025,67.0075 C105.967501,66.8424992 106.184999,66.76 106.455,66.76 C106.725001,66.76 106.942499,66.8424992 107.1075,67.0075 C107.272501,67.1725008 107.355,67.3899987 107.355,67.66 C107.355,67.9300014 107.272501,68.1474992 107.1075,68.3125 C106.942499,68.4775008 106.725001,68.56 106.455,68.56 Z M107.055,77.5 L105.855,77.5 L105.855,70 L107.055,70 L107.055,77.5 Z M114.435,76.975 C113.934997,77.4250023 113.290004,77.65 112.5,77.65 C111.889997,77.65 111.392502,77.4850017 111.0075,77.155 C110.622498,76.8249984 110.425,76.3200034 110.415,75.64 L110.415,71.035 L108.915,71.035 L108.915,70 L110.415,70 L110.415,68.2 L111.615,67.87 L111.615,70 L114.39,70 L114.39,71.035 L111.615,71.035 L111.615,75.43 C111.615,75.7900018 111.717499,76.0624991 111.9225,76.2475 C112.127501,76.4325009 112.399998,76.525 112.74,76.525 C113.220002,76.525 113.644998,76.3400019 114.015,75.97 L114.435,76.975 Z M119.295,69.85 C120.425006,69.85 121.312497,70.1949966 121.9575,70.885 C122.602503,71.5750035 122.925,72.5299939 122.925,73.75 C122.925,74.9700061 122.602503,75.9249966 121.9575,76.615 C121.312497,77.3050035 120.425006,77.65 119.295,77.65 C118.164994,77.65 117.277503,77.3050035 116.6325,76.615 C115.987497,75.9249966 115.665,74.9700061 115.665,73.75 C115.665,72.5299939 115.987497,71.5750035 116.6325,70.885 C117.277503,70.1949966 118.164994,69.85 119.295,69.85 Z M119.295,70.885 C118.534996,70.885 117.940002,71.1399975 117.51,71.65 C117.079998,72.1600026 116.865,72.8599956 116.865,73.75 C116.865,74.6400045 117.079998,75.3399975 117.51,75.85 C117.940002,76.3600026 118.534996,76.615 119.295,76.615 C120.055004,76.615 120.649998,76.3600026 121.08,75.85 C121.510002,75.3399975 121.725,74.6400045 121.725,73.75 C121.725,72.8599956 121.510002,72.1600026 121.08,71.65 C120.649998,71.1399975 120.055004,70.885 119.295,70.885 Z M128.1,78.76 C127.809999,79.4800036 127.485002,79.9874985 127.125,80.2825 C126.764998,80.5775015 126.300003,80.725 125.73,80.725 C125.349998,80.725 125.032501,80.6750005 124.7775,80.575 C124.522499,80.4749995 124.290001,80.3150011 124.08,80.095 L124.5,79.075 C124.790001,79.475002 125.194997,79.675 125.715,79.675 C126.005001,79.675 126.262499,79.5875009 126.4875,79.4125 C126.712501,79.2374991 126.909999,78.9200023 127.08,78.46 L127.47,77.485 L124.335,70 L125.7,70 L127.575,74.89 L128.04,76.225 L128.58,74.74 L130.335,70 L131.625,70 L128.1,78.76 Z M139.71,73.36 C139.71,73.6400014 139.69,73.9199986 139.65,74.2 L133.995,74.2 C134.065,74.9600038 134.317498,75.5499979 134.7525,75.97 C135.187502,76.3900021 135.749997,76.6 136.44,76.6 C136.990003,76.6 137.447498,76.505001 137.8125,76.315 C138.177502,76.1249991 138.424999,75.8500018 138.555,75.49 L139.56,76.015 C139.259998,76.5450027 138.860002,76.9499986 138.36,77.23 C137.859997,77.5100014 137.220004,77.65 136.44,77.65 C135.309994,77.65 134.422503,77.3050035 133.7775,76.615 C133.132497,75.9249966 132.81,74.9700061 132.81,73.75 C132.81,72.5299939 133.117497,71.5750035 133.7325,70.885 C134.347503,70.1949966 135.219994,69.85 136.35,69.85 C137.050003,69.85 137.654997,70.0049985 138.165,70.315 C138.675003,70.6250016 139.059999,71.0449974 139.32,71.575 C139.580001,72.1050027 139.71,72.6999967 139.71,73.36 Z M136.35,70.9 C135.689997,70.9 135.157502,71.0949981 134.7525,71.485 C134.347498,71.875002 134.1,72.4249965 134.01,73.135 L138.555,73.135 C138.475,72.4349965 138.245002,71.887502 137.865,71.4925 C137.484998,71.097498 136.980003,70.9 136.35,70.9 Z M145.635,69.85 C146.485004,69.85 147.184997,70.0949976 147.735,70.585 C148.285003,71.0750025 148.56,71.7799954 148.56,72.7 L148.56,77.5 L147.36,77.5 L147.36,73.12 C147.36,72.3399961 147.192502,71.7750018 146.8575,71.425 C146.522498,71.0749983 146.075003,70.9 145.515,70.9 C145.114998,70.9 144.740002,70.9874991 144.39,71.1625 C144.039998,71.3375009 143.752501,71.622498 143.5275,72.0175 C143.302499,72.412502 143.19,72.909997 143.19,73.51 L143.19,77.5 L141.99,77.5 L141.99,70 L143.04,70 L143.115,71.17 C143.365001,70.7199978 143.709998,70.3875011 144.15,70.1725 C144.590002,69.9574989 145.084997,69.85 145.635,69.85 Z M154.92,69.85 C155.770004,69.85 156.469997,70.0949976 157.02,70.585 C157.570003,71.0750025 157.845,71.7799954 157.845,72.7 L157.845,77.5 L156.645,77.5 L156.645,73.12 C156.645,72.3399961 156.477502,71.7750018 156.1425,71.425 C155.807498,71.0749983 155.360003,70.9 154.8,70.9 C154.399998,70.9 154.025002,70.9874991 153.675,71.1625 C153.324998,71.3375009 153.037501,71.622498 152.8125,72.0175 C152.587499,72.412502 152.475,72.909997 152.475,73.51 L152.475,77.5 L151.275,77.5 L151.275,70 L152.325,70 L152.4,71.17 C152.650001,70.7199978 152.994998,70.3875011 153.435,70.1725 C153.875002,69.9574989 154.369997,69.85 154.92,69.85 Z M166.995,73.36 C166.995,73.6400014 166.975,73.9199986 166.935,74.2 L161.28,74.2 C161.35,74.9600038 161.602498,75.5499979 162.0375,75.97 C162.472502,76.3900021 163.034997,76.6 163.725,76.6 C164.275003,76.6 164.732498,76.505001 165.0975,76.315 C165.462502,76.1249991 165.709999,75.8500018 165.84,75.49 L166.845,76.015 C166.544998,76.5450027 166.145002,76.9499986 165.645,77.23 C165.144997,77.5100014 164.505004,77.65 163.725,77.65 C162.594994,77.65 161.707503,77.3050035 161.0625,76.615 C160.417497,75.9249966 160.095,74.9700061 160.095,73.75 C160.095,72.5299939 160.402497,71.5750035 161.0175,70.885 C161.632503,70.1949966 162.504994,69.85 163.635,69.85 C164.335003,69.85 164.939997,70.0049985 165.45,70.315 C165.960003,70.6250016 166.344999,71.0449974 166.605,71.575 C166.865001,72.1050027 166.995,72.6999967 166.995,73.36 Z M163.635,70.9 C162.974997,70.9 162.442502,71.0949981 162.0375,71.485 C161.632498,71.875002 161.385,72.4249965 161.295,73.135 L165.84,73.135 C165.76,72.4349965 165.530002,71.887502 165.15,71.4925 C164.769998,71.097498 164.265003,70.9 163.635,70.9 Z M180.825,73.36 C180.825,73.6400014 180.805,73.9199986 180.765,74.2 L175.11,74.2 C175.18,74.9600038 175.432498,75.5499979 175.8675,75.97 C176.302502,76.3900021 176.864997,76.6 177.555,76.6 C178.105003,76.6 178.562498,76.505001 178.9275,76.315 C179.292502,76.1249991 179.539999,75.8500018 179.67,75.49 L180.675,76.015 C180.374998,76.5450027 179.975002,76.9499986 179.475,77.23 C178.974997,77.5100014 178.335004,77.65 177.555,77.65 C176.424994,77.65 175.537503,77.3050035 174.8925,76.615 C174.247497,75.9249966 173.925,74.9700061 173.925,73.75 C173.925,72.5299939 174.232497,71.5750035 174.8475,70.885 C175.462503,70.1949966 176.334994,69.85 177.465,69.85 C178.165003,69.85 178.769997,70.0049985 179.28,70.315 C179.790003,70.6250016 180.174999,71.0449974 180.435,71.575 C180.695001,72.1050027 180.825,72.6999967 180.825,73.36 Z M177.465,70.9 C176.804997,70.9 176.272502,71.0949981 175.8675,71.485 C175.462498,71.875002 175.215,72.4249965 175.125,73.135 L179.67,73.135 C179.59,72.4349965 179.360002,71.887502 178.98,71.4925 C178.599998,71.097498 178.095003,70.9 177.465,70.9 Z M187.695,76.975 C187.194997,77.4250023 186.550004,77.65 185.76,77.65 C185.149997,77.65 184.652502,77.4850017 184.2675,77.155 C183.882498,76.8249984 183.685,76.3200034 183.675,75.64 L183.675,71.035 L182.175,71.035 L182.175,70 L183.675,70 L183.675,68.2 L184.875,67.87 L184.875,70 L187.65,70 L187.65,71.035 L184.875,71.035 L184.875,75.43 C184.875,75.7900018 184.977499,76.0624991 185.1825,76.2475 C185.387501,76.4325009 185.659998,76.525 186,76.525 C186.480002,76.525 186.904998,76.3400019 187.275,75.97 L187.695,76.975 Z M195.645,75.49 C195.645,75.8700019 195.702499,76.1324993 195.8175,76.2775 C195.932501,76.4225007 196.144998,76.495 196.455,76.495 C196.665001,76.495 196.847499,76.4800002 197.0025,76.45 C197.157501,76.4199999 197.339999,76.3650004 197.55,76.285 L197.355,77.44 C197.024998,77.5800007 196.655002,77.65 196.245,77.65 C195.634997,77.65 195.182501,77.4850017 194.8875,77.155 C194.592499,76.8249984 194.445,76.3200034 194.445,75.64 L194.445,66.55 L195.645,66.55 L195.645,75.49 Z M202.26,69.85 C203.390006,69.85 204.277497,70.1949966 204.9225,70.885 C205.567503,71.5750035 205.89,72.5299939 205.89,73.75 C205.89,74.9700061 205.567503,75.9249966 204.9225,76.615 C204.277497,77.3050035 203.390006,77.65 202.26,77.65 C201.129994,77.65 200.242503,77.3050035 199.5975,76.615 C198.952497,75.9249966 198.63,74.9700061 198.63,73.75 C198.63,72.5299939 198.952497,71.5750035 199.5975,70.885 C200.242503,70.1949966 201.129994,69.85 202.26,69.85 Z M202.26,70.885 C201.499996,70.885 200.905002,71.1399975 200.475,71.65 C200.044998,72.1600026 199.83,72.8599956 199.83,73.75 C199.83,74.6400045 200.044998,75.3399975 200.475,75.85 C200.905002,76.3600026 201.499996,76.615 202.26,76.615 C203.020004,76.615 203.614998,76.3600026 204.045,75.85 C204.475002,75.3399975 204.69,74.6400045 204.69,73.75 C204.69,72.8599956 204.475002,72.1600026 204.045,71.65 C203.614998,71.1399975 203.020004,70.885 202.26,70.885 Z M211.38,69.85 C212.130004,69.85 212.762497,70.0224983 213.2775,70.3675 C213.792503,70.7125017 214.194999,71.2049968 214.485,71.845 L213.345,72.385 C213.024998,71.3949951 212.360005,70.9 211.35,70.9 C210.599996,70.9 210.012502,71.1524975 209.5875,71.6575 C209.162498,72.1625025 208.95,72.8599956 208.95,73.75 C208.95,74.6400045 209.162498,75.3374975 209.5875,75.8425 C210.012502,76.3475025 210.599996,76.6 211.35,76.6 C211.930003,76.6 212.397498,76.4675013 212.7525,76.2025 C213.107502,75.9374987 213.339999,75.5550025 213.45,75.055 L214.56,75.445 C214.299999,76.1450035 213.900003,76.6874981 213.36,77.0725 C212.819997,77.4575019 212.160004,77.65 211.38,77.65 C210.249994,77.65 209.362503,77.3050035 208.7175,76.615 C208.072497,75.9249966 207.75,74.9700061 207.75,73.75 C207.75,72.5299939 208.072497,71.5750035 208.7175,70.885 C209.362503,70.1949966 210.249994,69.85 211.38,69.85 Z M222.825,76.63 C223.025001,76.63 223.224999,76.6050003 223.425,76.555 L223.35,77.5 C223.069999,77.6000005 222.770002,77.65 222.45,77.65 C222.059998,77.65 221.752501,77.5650009 221.5275,77.395 C221.302499,77.2249992 221.16,76.940002 221.1,76.54 C220.869999,76.8900018 220.532502,77.162499 220.0875,77.3575 C219.642498,77.552501 219.175002,77.65 218.685,77.65 C217.944996,77.65 217.335002,77.4775017 216.855,77.1325 C216.374998,76.7874983 216.135,76.2900032 216.135,75.64 C216.135,75.0699972 216.384997,74.5775021 216.885,74.1625 C217.385002,73.7474979 218.109995,73.4600008 219.06,73.3 L221.055,72.97 L221.055,72.55 C221.055,72.0499975 220.900002,71.6500015 220.59,71.35 C220.279998,71.0499985 219.850003,70.9 219.3,70.9 C218.799997,70.9 218.367502,71.0199988 218.0025,71.26 C217.637498,71.5000012 217.355001,71.8549977 217.155,72.325 L216.27,71.68 C216.470001,71.1199972 216.842497,70.6750017 217.3875,70.345 C217.932503,70.0149983 218.569996,69.85 219.3,69.85 C220.190004,69.85 220.904997,70.0649979 221.445,70.495 C221.985003,70.9250022 222.255,71.5599958 222.255,72.4 L222.255,76.09 C222.255,76.2700009 222.3,76.4049996 222.39,76.495 C222.48,76.5850005 222.624999,76.63 222.825,76.63 Z M218.745,76.6 C219.375003,76.6 219.917498,76.4500015 220.3725,76.15 C220.827502,75.8499985 221.055,75.4600024 221.055,74.98 L221.055,73.945 L219.375,74.26 C218.704997,74.3800006 218.205002,74.5524989 217.875,74.7775 C217.544998,75.0025011 217.38,75.2899983 217.38,75.64 C217.38,75.9500016 217.499999,76.1874992 217.74,76.3525 C217.980001,76.5175008 218.314998,76.6 218.745,76.6 Z M226.305,75.49 C226.305,75.8700019 226.362499,76.1324993 226.4775,76.2775 C226.592501,76.4225007 226.804998,76.495 227.115,76.495 C227.325001,76.495 227.507499,76.4800002 227.6625,76.45 C227.817501,76.4199999 227.999999,76.3650004 228.21,76.285 L228.015,77.44 C227.684998,77.5800007 227.315002,77.65 226.905,77.65 C226.294997,77.65 225.842501,77.4850017 225.5475,77.155 C225.252499,76.8249984 225.105,76.3200034 225.105,75.64 L225.105,66.55 L226.305,66.55 L226.305,75.49 Z M236.19,73.36 C236.19,73.6400014 236.17,73.9199986 236.13,74.2 L230.475,74.2 C230.545,74.9600038 230.797498,75.5499979 231.2325,75.97 C231.667502,76.3900021 232.229997,76.6 232.92,76.6 C233.470003,76.6 233.927498,76.505001 234.2925,76.315 C234.657502,76.1249991 234.904999,75.8500018 235.035,75.49 L236.04,76.015 C235.739998,76.5450027 235.340002,76.9499986 234.84,77.23 C234.339997,77.5100014 233.700004,77.65 232.92,77.65 C231.789994,77.65 230.902503,77.3050035 230.2575,76.615 C229.612497,75.9249966 229.29,74.9700061 229.29,73.75 C229.29,72.5299939 229.597497,71.5750035 230.2125,70.885 C230.827503,70.1949966 231.699994,69.85 232.83,69.85 C233.530003,69.85 234.134997,70.0049985 234.645,70.315 C235.155003,70.6250016 235.539999,71.0449974 235.8,71.575 C236.060001,72.1050027 236.19,72.6999967 236.19,73.36 Z M232.83,70.9 C232.169997,70.9 231.637502,71.0949981 231.2325,71.485 C230.827498,71.875002 230.58,72.4249965 230.49,73.135 L235.035,73.135 C234.955,72.4349965 234.725002,71.887502 234.345,71.4925 C233.964998,71.097498 233.460003,70.9 232.83,70.9 Z" id="Pourunealimentationrésilientecitoyenneetlocale" fill="#000000" fill-rule="nonzero"></path>
                <path d="M38,77.5 C58.9868205,77.5 76,60.4868205 76,39.5 C76,18.5131795 58.9868205,1.5 38,1.5 C17.0131795,1.5 0,18.5131795 0,39.5 C0,60.4868205 17.0131795,77.5 38,77.5 Z" id="Oval" stroke="#91C423" stroke-width="2" stroke-dasharray="4,4"></path>
                <g id="Group-5" transform="translate(25.000000, 20.500000)" stroke="#015A5A" stroke-width="2">
                    <path d="M16.5842236,16.2414203 C15.566433,17.2712754 14.3709759,17.7707826 12.9290607,17.7707826 C11.4822705,17.7707826 10.2743551,17.2674203 9.2376062,16.2326087 C8.21873225,15.215971 7.72364943,14.0197971 7.72364943,12.5752464 C7.72364943,11.1262899 8.22144058,9.918 9.22839787,8.89915942 C10.2667718,7.87646377 11.4768539,7.37971014 12.9290607,7.37971014 C14.3753092,7.37971014 15.574558,7.87426087 16.5934319,8.89089855 C17.6301809,9.92571014 18.1339303,11.1317971 18.1339303,12.5752464 C18.1339303,14.0148406 17.6334309,15.2082609 16.5842236,16.2414203 Z M25.9409639,11.6770145 C25.7297142,9.06713043 24.8105068,6.84495652 23.1286335,4.87556522 C22.8009255,4.4773913 22.4862175,4.12052174 22.1671762,3.78457971 C20.3314697,1.95397101 18.1740136,0.785333333 15.6032663,0.246173913 C14.7653088,0.0848115942 13.8981014,0 13.0509356,0 C12.9014357,0 12.7524776,0.00275362319 12.6040611,0.00826086957 C11.8955618,0.0357971014 11.1724375,0.125565217 10.4628549,0.27426087 C9.65089744,0.444985507 8.83135662,0.699971014 8.02752411,1.03150725 C5.59490163,2.05915942 3.67144528,3.64524638 2.15911351,5.87678261 C0.482656907,8.37872464 -0.207425713,11.0833333 0.0536573505,14.136 C0.302282094,16.9287246 1.21932281,19.5408116 2.77986287,21.8935072 C4.37073623,24.2941159 5.96052625,26.6848116 7.55139961,29.0650435 C9.3302311,31.7476232 11.1291042,34.5051014 12.9008941,37.2691884 C13.0547273,37.5126087 13.2101854,37.756029 13.3656436,38 C14.6542673,35.9204638 15.9466826,33.8365217 17.2450563,31.7487246 C18.5878465,29.5904348 19.9582618,27.4354493 21.3183854,25.3426957 C22.4011759,23.6613333 23.4232999,21.8632174 24.3527989,20.0078261 C25.6544226,17.3946377 26.189047,14.5908986 25.9409639,11.6770145 Z" id="Stroke-3"></path>
                </g>
                <path d="M19.4405661,32.9221513 C19.4405661,34.2345581 18.3733038,35.3029246 17.0614491,35.3029246 C15.7501466,35.3029246 14.6828843,34.2351102 14.6828843,32.9221513 L14.6828843,32.8205598 L19.4405661,32.8205598 L19.4405661,32.9221513 Z M20.2814561,24.5 C19.8171169,24.5 19.4405661,24.8765509 19.4405661,25.34089 L19.4405661,31.1371234 L17.9023391,31.1371234 L17.9023391,25.34089 C17.9023391,24.8765509 17.5257883,24.5 17.0614491,24.5 C16.59711,24.5 16.2205591,24.8765509 16.2205591,25.34089 L16.2205591,31.1371234 L14.6828843,31.1371234 L14.6828843,25.34089 C14.6828843,24.8765509 14.3063334,24.5 13.8414421,24.5 C13.377103,24.5 13,24.877103 13,25.3419943 L13,32.9221513 C13,34.7966238 14.2814877,36.361905 16.0096464,36.830109 L16.0096464,56.7337494 C16.0096464,57.3145875 16.4806111,57.785 17.0614491,57.785 C17.6428393,57.785 18.1132518,57.3140353 18.1132518,56.7337494 L18.1132518,36.830109 C19.8414105,36.3630092 21.1223461,34.7971759 21.1223461,32.9221513 L21.1223461,25.3419943 C21.1234504,24.877103 20.7468995,24.5 20.2814561,24.5 L20.2814561,24.5 Z" id="Fill-4" fill="#015A5A"></path>
                <path d="M57.7286434,40.2223378 L57.7286434,25.5416334 C58.3617797,25.9149341 59.1361802,26.7250762 59.3852364,28.4854899 C59.8198084,31.5479176 60.0058915,37.8945977 60.0609221,40.2223378 L57.7286434,40.2223378 Z M61.098562,28.2438089 C60.5868337,24.62143 58.1308778,23.5571258 56.9048856,23.5003931 C56.6717144,23.4935852 56.4391106,23.5752802 56.2666434,23.7392375 C56.0947435,23.9020602 56,24.1278561 56,24.3644312 L56,58.0386549 C56,58.5163437 56.3880512,58.902693 56.8651727,58.902693 C57.3417269,58.902693 57.7286434,58.5163437 57.7286434,58.0386549 L57.7286434,41.9509812 L60.9442493,41.9509812 C61.1774204,41.9509812 61.3981104,41.8579397 61.5615004,41.6922804 C61.7226211,41.5271884 61.8133933,41.3036618 61.8088547,41.0716253 C61.8026141,40.7079691 61.6465993,32.1209172 61.098562,28.2438089 L61.098562,28.2438089 Z" id="Fill-6" fill="#015A5A" transform="translate(58.904509, 41.201346) scale(-1, 1) translate(-58.904509, -41.201346) "></path>
            </g>
        </g>
    </g>
</svg>