<svg id="Calque_1" data-name="Calque 1" xmlns="http://www.w3.org/2000/svg" xmlns:xlink="http://www.w3.org/1999/xlink" viewBox="0 0 400 90"><defs><style>.cls-1,.cls-2{fill:none;}.cls-2{clip-rule:evenodd;}.cls-21,.cls-3,.cls-4{fill:#015a5c;}.cls-3{fill-rule:evenodd;}.cls-5{fill:#91c423;}.cls-6{clip-path:url(#clip-path);}.cls-7{clip-path:url(#clip-path-2);}.cls-8{clip-path:url(#clip-path-3);}.cls-9{clip-path:url(#clip-path-4);}.cls-10{clip-path:url(#clip-path-5);}.cls-11{clip-path:url(#clip-path-6);}.cls-12{clip-path:url(#clip-path-7);}.cls-13{clip-path:url(#clip-path-8);}.cls-14{clip-path:url(#clip-path-9);}.cls-15{clip-path:url(#clip-path-10);}.cls-16{clip-path:url(#clip-path-11);}.cls-17{clip-path:url(#clip-path-12);}.cls-18{clip-path:url(#clip-path-13);}.cls-19{fill:#636363;}.cls-20{isolation:isolate;}.cls-21{stroke:#015a5c;stroke-linecap:round;stroke-linejoin:round;stroke-width:0.25px;}</style><clipPath id="clip-path"><rect class="cls-1" x="-757.7736" y="-187.6124" width="67.3164" height="66.6124"/></clipPath><clipPath id="clip-path-2"><path class="cls-2" d="M-677.2793-185.8151v61.7405a1.5959,1.5959,0,0,1-1.6024,1.5841,1.5939,1.5939,0,0,1-1.6-1.5841v-29.4967h-4.5333c-.4315,0-2.3394-25.73,7.7357-32.2438"/></clipPath><clipPath id="clip-path-3"><rect class="cls-1" x="-777" y="-183.6373" width="13.905" height="61.147"/></clipPath><clipPath id="clip-path-4"><path class="cls-2" d="M-724.4172-184.6036a30.6833,30.6833,0,0,1,29.6363,22.51c-5.7212,1.419-11.0351,2.972-16.1236,4.7116a15.6026,15.6026,0,0,0,.4267-5.2308,11.9339,11.9339,0,0,0-2.9455-7.0613c-.33-.3973-.6424-.7514-.9915-1.1127a13.3282,13.3282,0,0,0-6.8654-3.6539,13.7744,13.7744,0,0,0-3.1249-.2441,13.6439,13.6439,0,0,0-2.2376.2752,14.4053,14.4053,0,0,0-2.5333.78,13.499,13.499,0,0,0-6.1042,4.9891,12.6987,12.6987,0,0,0-2.2085,8.48,155.6142,155.6142,0,0,0-16.3515-2.6729,30.6888,30.6888,0,0,1,29.423-21.77"/></clipPath><clipPath id="clip-path-5"><path class="cls-2" d="M-718.7968-161.5383a4.5338,4.5338,0,0,1-1.4934,3.484l-.0218.0191a4.6085,4.6085,0,0,1-3.5055,1.4549,4.7391,4.7391,0,0,1-3.5709-1.4764,4.5618,4.5618,0,0,1-1.4569-3.4816,4.6775,4.6775,0,0,1,1.4327-3.496,4.7991,4.7991,0,0,1,3.5927-1.4621,4.6732,4.6732,0,0,1,3.53,1.44,4.6128,4.6128,0,0,1,1.4934,3.5176"/></clipPath><clipPath id="clip-path-6"><path class="cls-2" d="M-755.0989-154.237a29.7228,29.7228,0,0,1,.5479-5.7046,152.7952,152.7952,0,0,1,17.67,2.9217,16.658,16.658,0,0,0,2.17,4.7235c.6109.9093,1.2194,1.809,1.8279,2.7159a157.0672,157.0672,0,0,0-22.2158-4.5776Z"/></clipPath><clipPath id="clip-path-7"><path class="cls-2" d="M-754.94-151.1632a153.6217,153.6217,0,0,1,20.2425,4.1349c-2.3249,1.2634-4.6134,2.57-6.8388,3.9458-4.0873-1.2132-8.2788-2.2756-12.47-3.1586a29.7512,29.7512,0,0,1-.9334-4.9221"/></clipPath><clipPath id="clip-path-8"><path class="cls-2" d="M-749.9474-137.43a30.39,30.39,0,0,1-2.9551-5.5539c2.7054.603,5.4036,1.2754,8.0678,2.022q-2.6109,1.7193-5.1127,3.5319"/></clipPath><clipPath id="clip-path-9"><path class="cls-2" d="M-748.1767-135.0616A134.8119,134.8119,0,0,1-730.441-145.94c.0534.079.1067.16.1625.2393,1.3284,1.9813,2.6618,4.0081,3.9854,6.04a133.6053,133.6053,0,0,0-15.7333,10.2534,30.7732,30.7732,0,0,1-6.15-5.6543"/></clipPath><clipPath id="clip-path-10"><path class="cls-2" d="M-724.4172-123.886a31.0209,31.0209,0,0,1-4.4509-.3231,141.5778,141.5778,0,0,1,31.8788-16.4556,30.742,30.742,0,0,1-27.4279,16.7787"/></clipPath><clipPath id="clip-path-11"><path class="cls-2" d="M-695.4019-144.3969a144.4867,144.4867,0,0,0-37.394,19.3511,30.6321,30.6321,0,0,1-6.5309-2.68,130.7458,130.7458,0,0,1,14.6473-9.4518l1.0569,1.6463,1.2485-1.9957c.2813-.45.5649-.9021.8485-1.35a152.6057,152.6057,0,0,1,27.474-11.05,30,30,0,0,1-1.35,5.53"/></clipPath><clipPath id="clip-path-12"><path class="cls-2" d="M-718.5033-143.6936c1.1588-1.833,2.33-3.6587,3.5006-5.4438a53.1421,53.1421,0,0,0,2.6813-4.6373,186.2607,186.2607,0,0,1,18.1672-5.4342,30.19,30.19,0,0,1,.417,4.9652c0,.3876-.0146.7753-.0291,1.16a157.0684,157.0684,0,0,0-24.737,9.39"/></clipPath><clipPath id="clip-path-13"><path class="cls-1" d="M-451.5248-138.5391h18.0908V-136h-21.02v-35.5469h2.93Zm-21.4493-14.5019H-488.648v14.5019h18.0664V-136h-20.9716v-35.5469h20.874v2.5635H-488.648V-155.58h15.6739Zm-33.29,6.25a15.8478,15.8478,0,0,1-1.1963,4.4556,11.9368,11.9368,0,0,1-2.3926,3.5888,10.59,10.59,0,0,1-3.5278,2.38,11.7368,11.7368,0,0,1-4.5776.8545,10.8587,10.8587,0,0,1-3.8452-.647,10.3114,10.3114,0,0,1-3.0518-1.77,11.7832,11.7832,0,0,1-2.3071-2.6367,16.2024,16.2024,0,0,1-1.6114-3.2593,19.9276,19.9276,0,0,1-.94-3.6255,25.3643,25.3643,0,0,1-.33-3.7353v-5.1514a25.3644,25.3644,0,0,1,.33-3.7354,19.9318,19.9318,0,0,1,.94-3.6255,16.2016,16.2016,0,0,1,1.6114-3.2592,12.03,12.03,0,0,1,2.3071-2.649,10.17,10.17,0,0,1,3.0518-1.7822,10.8587,10.8587,0,0,1,3.8452-.647,11.872,11.872,0,0,1,4.6264.8545,10.5913,10.5913,0,0,1,3.5279,2.38,11.7158,11.7158,0,0,1,2.38,3.6011,15.7425,15.7425,0,0,1,1.16,4.5166H-509.17a15.9871,15.9871,0,0,0-.94-3.4424,9.5663,9.5663,0,0,0-1.7212-2.82,7.7483,7.7483,0,0,0-2.5879-1.9043,8.4021,8.4021,0,0,0-3.54-.6958,7.6261,7.6261,0,0,0-3.0762.5859,7.9342,7.9342,0,0,0-2.356,1.5625,9.3033,9.3033,0,0,0-1.7212,2.2827,14.6055,14.6055,0,0,0-1.1474,2.771,19.5739,19.5739,0,0,0-.647,2.9907,22.0178,22.0178,0,0,0-.2075,2.9664v5.2a22.2866,22.2866,0,0,0,.2075,2.9785,19.5166,19.5166,0,0,0,.647,3.0029,14.6028,14.6028,0,0,0,1.1474,2.771,9.5247,9.5247,0,0,0,1.7212,2.2949,7.8141,7.8141,0,0,0,2.356,1.5747,7.6261,7.6261,0,0,0,3.0762.586,8.82,8.82,0,0,0,3.5766-.6714,7.3919,7.3919,0,0,0,2.5879-1.8677,9.5381,9.5381,0,0,0,1.709-2.8076,15.0586,15.0586,0,0,0,.9155-3.4668Zm-55.6046-6.543h7.7393a8.8483,8.8483,0,0,0,3.1005-.6348,7.8892,7.8892,0,0,0,2.5025-1.5991,7.1668,7.1668,0,0,0,1.66-2.4292,7.887,7.887,0,0,0,.5982-3.1006,8.07,8.07,0,0,0-.6592-3.3447,7.2749,7.2749,0,0,0-1.7944-2.478,7.8314,7.8314,0,0,0-2.6856-1.55,11.0433,11.0433,0,0,0-3.3325-.5859h-7.1289Zm8.7891,2.4658h-8.7891V-136H-564.75v-35.5469h10.0342a14.5441,14.5441,0,0,1,4.419.7569,10.91,10.91,0,0,1,3.6254,2.0385,9.4668,9.4668,0,0,1,2.4415,3.2593,10.4272,10.4272,0,0,1,.8911,4.419,9.57,9.57,0,0,1-.5249,3.247,9.4094,9.4094,0,0,1-1.4527,2.649,10.3887,10.3887,0,0,1-2.2094,2.0874,14.4272,14.4272,0,0,1-2.82,1.538l8.1055,15.2344V-136h-3.0518Zm-43.8859,2.3438H-585.1l-5.9082-18.7012Zm12.6953,2.6123h-13.5254L-600.9452-136h-2.9541l11.5723-35.5469h2.6367L-578.2157-136h-2.93Zm-50.5265-7.2022h8.252a9.7241,9.7241,0,0,0,3.2715-.5859,8.2063,8.2063,0,0,0,2.6367-1.5625,7.1456,7.1456,0,0,0,1.77-2.4414,7.9045,7.9045,0,0,0,.647-3.2715,8.386,8.386,0,0,0-.6348-3.32,7.2737,7.2737,0,0,0-1.7578-2.5269,8.0378,8.0378,0,0,0-2.6367-1.6113,10.0083,10.0083,0,0,0-3.2959-.6225h-8.252Zm0,2.4659V-136h-2.93v-35.5469h11.1817a13.7228,13.7228,0,0,1,4.3823.7813,10.8115,10.8115,0,0,1,3.5645,2.0874,9.7271,9.7271,0,0,1,2.4047,3.2837,10.4252,10.4252,0,0,1,.8789,4.37,10.3419,10.3419,0,0,1-.8789,4.3579,9.5056,9.5056,0,0,1-2.4047,3.2471,10.68,10.68,0,0,1-3.5767,2.0385,13.7487,13.7487,0,0,1-4.37.7325Z"/></clipPath><symbol id="Nouveau_symbole_3" data-name="Nouveau symbole 3" viewBox="0 0 99.248 63.691"><path class="cls-3" d="M99.2475,0V62.0975a1.5939,1.5939,0,0,1-3.1877,0V32.4308h-4.512C91.1178,32.4308,89.2206,6.5509,99.2475,0Z"/><path class="cls-4" d="M12.6837,2.19a1.1529,1.1529,0,0,0-1.1524,1.1531V18.4513H8.07V3.3427a1.1523,1.1523,0,1,0-2.3046,0V18.4513h-3.46V3.3427A1.1523,1.1523,0,1,0,0,3.3427V20.47a6.7046,6.7046,0,0,0,1.9668,4.7259A6.6112,6.6112,0,0,0,5.226,26.9633V61.77a1.9222,1.9222,0,0,0,3.8444,0V26.8074a6.7489,6.7489,0,0,0,2.8445-1.6882A6.6205,6.6205,0,0,0,13.836,20.44V3.3427A1.1529,1.1529,0,0,0,12.6837,2.19Z"/><path class="cls-4" d="M52.9345,1.2179A30.5866,30.5866,0,0,0,23.44,23.8583c5.6915,1.4256,10.9812,2.9906,16.0439,4.74a15.8563,15.8563,0,0,1-.4238-5.2616,12.0852,12.0852,0,0,1,2.9321-7.1035c.3266-.3983.64-.755.9866-1.1175a13.2221,13.2221,0,0,1,6.8325-3.6768A13.2813,13.2813,0,0,1,55.15,11.47a14.33,14.33,0,0,1,2.52.7851,13.4826,13.4826,0,0,1,6.0776,5.0179,12.884,12.884,0,0,1,2.195,8.5305,152.9831,152.9831,0,0,1,16.2752-2.689A30.5851,30.5851,0,0,0,52.9345,1.2179Z"/><path class="cls-4" d="M47.3416,24.4169A4.5864,4.5864,0,0,0,48.827,27.92l.0209.0209a4.5712,4.5712,0,0,0,3.4912,1.4631,4.6889,4.6889,0,0,0,3.552-1.4856A4.6088,4.6088,0,0,0,57.34,24.417a4.9421,4.9421,0,0,0-5.001-4.9858,5.0067,5.0067,0,0,0-4.9978,4.9857Z"/><path class="cls-4" d="M83.4718,31.761a30.5478,30.5478,0,0,0-.5443-5.7384,150.289,150.289,0,0,0-17.587,2.94,16.833,16.833,0,0,1-2.1613,4.75c-.6072.915-1.2127,1.8189-1.8193,2.73a154.8332,154.8332,0,0,1,22.11-4.6023C83.47,31.8139,83.4718,31.7878,83.4718,31.761Z"/><path class="cls-4" d="M83.3137,34.8527A151.7784,151.7784,0,0,0,63.1665,39.012c2.314,1.27,4.5913,2.585,6.8046,3.9686,4.071-1.222,8.24-2.29,12.4125-3.1783A30.325,30.325,0,0,0,83.3137,34.8527Z"/><path class="cls-4" d="M78.3432,48.6651a30.4929,30.4929,0,0,0,2.94-5.5867c-2.692.6071-5.3767,1.2846-8.0282,2.0352Q75.8549,46.8425,78.3432,48.6651Z"/><path class="cls-5" d="M76.5808,51.0475A133.702,133.702,0,0,0,58.9294,40.1057c-.0535.08-.1071.1616-.1607.2415-1.3215,1.9922-2.65,4.0315-3.969,6.0748A132.5146,132.5146,0,0,1,70.46,56.7355,30.7738,30.7738,0,0,0,76.5808,51.0475Z"/><path class="cls-5" d="M52.9345,62.2887a30.64,30.64,0,0,0,4.43-.3253A140.4188,140.4188,0,0,0,25.6362,45.411,30.5641,30.5641,0,0,0,52.9345,62.2887Z"/><path class="cls-5" d="M24.0571,41.6581A143.3067,143.3067,0,0,1,61.2726,61.1219a30.37,30.37,0,0,0,6.5018-2.6951,130.2472,130.2472,0,0,0-14.5777-9.5083L52.1435,50.575,50.9,48.5669c-.28-.4516-.5625-.9057-.8427-1.3579A150.9978,150.9978,0,0,0,22.7133,36.0967,30.2794,30.2794,0,0,0,24.0571,41.6581Z"/><path class="cls-5" d="M47.0478,42.3659c-1.15-1.8439-2.3189-3.6813-3.4841-5.4755-.9493-1.4734-1.84-3.0454-2.6681-4.6655a184.31,184.31,0,0,0-18.0813-5.466,30.6059,30.6059,0,0,0-.4152,4.9944c0,.3917.0149.78.03,1.1681A155.4232,155.4232,0,0,1,47.0478,42.3659Z"/></symbol></defs><title>PARCEL-LOGO-DEF</title><path class="cls-19" d="M159.7294,51.4868h4.7128c2.4123,0,4.0689,1.3437,4.0689,3.6463,0,2.3953-1.6865,3.737-4.1865,3.737h-3.2695v5.4465h-1.3257Zm1.3257,6.235h3.2815c1.93,0,2.799-.9908,2.799-2.55a2.4313,2.4313,0,0,0-2.7293-2.5359h-3.3512Z"/><path class="cls-19" d="M178.5011,59.6745c0,2.6136-1.4713,4.8624-4.2584,4.8624-2.5677,0-4.1427-2.0514-4.1427-4.8385,0-2.6843,1.5112-4.85,4.24-4.85C176.85,54.848,178.5011,56.7708,178.5011,59.6745Zm-7.1172.0179c0,2.1222,1.1045,3.763,2.9306,3.763,1.858,0,2.9047-1.5351,2.9047-3.76,0-2.1361-1.0347-3.7659-2.9426-3.7659C172.3408,55.93,171.3839,57.5224,171.3839,59.6924Z"/><path class="cls-19" d="M188.2936,61.6183c0,.9041.016,2.2577.02,2.6983h-1.1921a14.1347,14.1347,0,0,1-.06-1.5072,2.7948,2.7948,0,0,1-2.8947,1.7275c-1.4354,0-3.0463-.635-3.0463-3.3642V55.0683h1.2161v5.8273c0,1.2888.4067,2.5139,2.1013,2.5139,1.9019,0,2.6236-1.0636,2.6236-3.5556V55.0683h1.232Z"/><path class="cls-19" d="M191.6369,57.5822c0-1.4344-.016-2.1281-.018-2.5139h1.2061c.022.2791.0419.932.0419,1.9876a3.3988,3.3988,0,0,1,3.1738-2.2079v1.2689c-1.9138.0967-3.1738,1.2729-3.1738,3.5367v4.663h-1.23Z"/><path class="cls-19" d="M210.6159,61.6183c0,.9041.0159,2.2577.0179,2.6983h-1.1921a14.4547,14.4547,0,0,1-.0558-1.5072,2.8,2.8,0,0,1-2.8987,1.7275c-1.4354,0-3.0423-.635-3.0423-3.3642V55.0683h1.2161v5.8273c0,1.2888.4047,2.5139,2.1013,2.5139,1.9019,0,2.6236-1.0636,2.6236-3.5556V55.0683h1.23Z"/><path class="cls-19" d="M213.9631,57.3988c0-.8084,0-1.6008-.02-2.3305h1.2022c.04.2851.0618,1.3826.05,1.6487a2.9642,2.9642,0,0,1,2.9964-1.869c1.6865,0,3.1.9868,3.1,3.4958v5.9728H220.06V58.5182c0-1.5331-.622-2.5458-2.1412-2.5458-1.9916,0-2.7232,1.6019-2.7232,3.5456v4.7986h-1.2321Z"/><path class="cls-19" d="M225.1811,59.8848c.016,2.1561,1.1025,3.5706,2.7831,3.5706a2.3868,2.3868,0,0,0,2.4661-1.5979h1.2479a3.6438,3.6438,0,0,1-3.7559,2.6794c-2.8548,0-3.9912-2.3953-3.9912-4.7587,0-2.6934,1.3477-4.93,4.0989-4.93,2.9086,0,3.8476,2.4292,3.8476,4.2753,0,.2691,0,.5173-.02.7615Zm5.4346-.9559c-.018-1.69-.9111-3.0313-2.6176-3.0313-1.7783,0-2.5758,1.24-2.7612,3.0313Z"/><path class="cls-19" d="M246.2375,62.4406a12.0713,12.0713,0,0,0,.13,1.876h-1.18a5.44,5.44,0,0,1-.16-1.3267,2.9753,2.9753,0,0,1-2.9545,1.547,2.7725,2.7725,0,0,1-3.0881-2.798c0-2.0474,1.5949-2.9814,4.358-2.9814h1.6746v-.8722c0-.8752-.2691-2.0036-2.2069-2.0036-1.7185,0-1.99.8832-2.177,1.6248h-1.2081c.1156-1.1344.8173-2.6615,3.419-2.6585,2.179.003,3.3931.9061,3.3931,2.9715Zm-1.2042-2.7462h-1.6686c-1.9577,0-3.102.5244-3.102,1.9847a1.7921,1.7921,0,0,0,1.9776,1.8241c2.4541,0,2.793-1.64,2.793-3.4918Z"/><path class="cls-19" d="M249.6027,64.3166V50.795h1.23V64.3166Z"/><path class="cls-19" d="M254.1959,50.795h1.23v1.886h-1.23Zm0,4.2733h1.23v9.2483h-1.23Z"/><path class="cls-19" d="M258.7892,57.4536c0-.7954,0-1.6507-.018-2.3853h1.1942c.0219.298.0618,1.0407.05,1.544A2.87,2.87,0,0,1,262.75,54.848a2.5864,2.5864,0,0,1,2.6276,1.7514A3.1432,3.1432,0,0,1,268.36,54.848c1.4593,0,2.9107.8473,2.9107,3.3871v6.0815h-1.22V58.3837c0-1.1643-.4187-2.4143-2.0135-2.4143-1.6607,0-2.4,1.3038-2.4,3.0273v5.32H264.429v-5.9c0-1.2769-.3748-2.4441-1.9617-2.4441-1.6546,0-2.4521,1.4125-2.4521,3.2426v5.1016h-1.226Z"/><path class="cls-19" d="M275.1705,59.8848c.016,2.1561,1.1025,3.5706,2.7831,3.5706a2.3878,2.3878,0,0,0,2.4681-1.5979h1.248a3.6448,3.6448,0,0,1-3.758,2.6794c-2.8548,0-3.9891-2.3953-3.9891-4.7587,0-2.6934,1.3456-4.93,4.0968-4.93,2.9086,0,3.85,2.4292,3.85,4.2753,0,.2691,0,.5173-.0219.7615Zm5.4346-.9559c-.018-1.69-.9091-3.0313-2.6156-3.0313-1.7783,0-2.5777,1.24-2.7631,3.0313Z"/><path class="cls-19" d="M284.4946,57.3988c0-.8084,0-1.6008-.0179-2.3305h1.2c.04.2851.0618,1.3826.0478,1.6487a2.9712,2.9712,0,0,1,2.9984-1.869c1.6866,0,3.1.9868,3.1,3.4958v5.9728H290.591V58.5182c0-1.5331-.62-2.5458-2.1391-2.5458-1.9936,0-2.7273,1.6019-2.7273,3.5456v4.7986h-1.23Z"/><path class="cls-19" d="M293.7987,55.0683h1.6627v-2.814h1.232v2.814h2.1292v1.0676h-2.1292v5.74c0,.9739.2213,1.5052,1.0845,1.5052a3.5257,3.5257,0,0,0,.8932-.0947v.9908a3.7269,3.7269,0,0,1-1.256.1685c-1.3,0-1.9537-.6619-1.9537-2.1671V56.1359h-1.6627Z"/><path class="cls-19" d="M307.6741,62.4406a12.0842,12.0842,0,0,0,.13,1.876h-1.18a5.5467,5.5467,0,0,1-.1595-1.3267,2.9717,2.9717,0,0,1-2.9525,1.547,2.7743,2.7743,0,0,1-3.09-2.798c0-2.0474,1.5949-2.9814,4.358-2.9814h1.6747v-.8722c0-.8752-.2692-2.0036-2.205-2.0036-1.72,0-1.99.8832-2.177,1.6248H300.864c.1156-1.1344.8174-2.6615,3.417-2.6585,2.179.003,3.3931.9061,3.3931,2.9715ZM306.47,59.6944h-1.6666c-1.9578,0-3.1021.5244-3.1021,1.9847a1.7922,1.7922,0,0,0,1.9777,1.8241c2.4521,0,2.791-1.64,2.791-3.4918Z"/><path class="cls-19" d="M309.6358,55.0683h1.6627v-2.814h1.232v2.814H314.66v1.0676h-2.1292v5.74c0,.9739.2213,1.5052,1.0846,1.5052a3.5254,3.5254,0,0,0,.8931-.0947v.9908a3.7269,3.7269,0,0,1-1.256.1685c-1.3,0-1.9537-.6619-1.9537-2.1671V56.1359h-1.6627Z"/><path class="cls-19" d="M316.9005,50.795h1.232v1.886h-1.232Zm0,4.2733h1.232v9.2483h-1.232Z"/><path class="cls-19" d="M329.193,59.6745c0,2.6136-1.4713,4.8624-4.2583,4.8624-2.5678,0-4.1427-2.0514-4.1427-4.8385,0-2.6843,1.5092-4.85,4.2384-4.85C327.54,54.848,329.193,56.7708,329.193,59.6745Zm-7.1191.0179c0,2.1222,1.1064,3.763,2.9306,3.763,1.858,0,2.9046-1.5351,2.9046-3.76,0-2.1361-1.0346-3.7659-2.9425-3.7659C323.0328,55.93,322.0739,57.5224,322.0739,59.6924Z"/><path class="cls-19" d="M331.8405,57.3988c0-.8084,0-1.6008-.02-2.3305h1.2021c.04.2851.0618,1.3826.05,1.6487a2.9642,2.9642,0,0,1,2.9963-1.869c1.6866,0,3.1.9868,3.1,3.4958v5.9728h-1.2321V58.5182c0-1.5331-.622-2.5458-2.1411-2.5458-1.9916,0-2.7232,1.6019-2.7232,3.5456v4.7986h-1.2321Z"/><path class="cls-19" d="M159.43,77.9967c0-1.4344-.0159-2.1282-.02-2.514h1.2081c.02.2791.0419.932.0419,1.9876a3.396,3.396,0,0,1,3.1718-2.2079v1.269c-1.9119.0966-3.1718,1.2729-3.1718,3.5366v4.663h-1.23Z"/><path class="cls-19" d="M166.48,80.2993c.0159,2.156,1.1,3.57,2.783,3.57a2.3913,2.3913,0,0,0,2.4681-1.5979h1.246a3.6429,3.6429,0,0,1-3.7579,2.6794c-2.8549,0-3.9872-2.3953-3.9872-4.7587,0-2.6933,1.3437-4.93,4.0948-4.93,2.9107,0,3.85,2.4292,3.85,4.2753,0,.2691,0,.5173-.022.7616Zm5.4345-.956c-.0179-1.6895-.9111-3.0312-2.6176-3.0312-1.7783,0-2.5777,1.24-2.7611,3.0312Zm.4346-8.3173-2.7751,2.8559h-1.232l2.4441-2.8559Z"/><path class="cls-19" d="M176.336,82.1354A2.29,2.29,0,0,0,178.8,83.9146c1.5151,0,2.1192-.68,2.1192-1.6267,0-.9679-.4346-1.4324-2.3664-1.8989-2.504-.6051-3.0781-1.3666-3.0781-2.6027,0-1.2918.9629-2.5239,3.1838-2.5239,2.2228,0,3.2136,1.3238,3.3492,2.6256H180.8a2.0127,2.0127,0,0,0-2.193-1.5979c-1.4653,0-1.8919.7167-1.8919,1.3965,0,.7776.4147,1.1643,2.183,1.5909,2.6973.646,3.3054,1.5351,3.3054,2.9167,0,1.6547-1.33,2.7571-3.437,2.7571-2.2388,0-3.419-1.1553-3.6662-2.8159Z"/><path class="cls-19" d="M184.8367,71.21h1.232v1.8859h-1.232Zm0,4.2732h1.232V84.731h-1.232Z"/><path class="cls-19" d="M189.43,84.731V71.21h1.232V84.731Z"/><path class="cls-19" d="M194.0232,71.21h1.232v1.8859h-1.232Zm0,4.2732h1.232V84.731h-1.232Z"/><path class="cls-19" d="M199.1627,80.2993c.0159,2.156,1.1024,3.57,2.7831,3.57a2.3876,2.3876,0,0,0,2.468-1.5979h1.248a3.6446,3.6446,0,0,1-3.7579,2.6794c-2.8548,0-3.9892-2.3953-3.9892-4.7587,0-2.6933,1.3457-4.93,4.0968-4.93,2.9087,0,3.85,2.4292,3.85,4.2753,0,.2691,0,.5173-.022.7616Zm5.4345-.956c-.0179-1.6895-.909-3.0312-2.6156-3.0312-1.7783,0-2.5777,1.24-2.7631,3.0312Z"/><path class="cls-19" d="M208.4867,77.8132c0-.8084,0-1.6008-.0179-2.3305h1.2c.04.2851.0618,1.3826.0479,1.6487a2.971,2.971,0,0,1,2.9984-1.869c1.6865,0,3.1.9869,3.1,3.4958V84.731h-1.232V78.9326c0-1.533-.62-2.5458-2.1392-2.5458-1.9936,0-2.7272,1.6019-2.7272,3.5456V84.731h-1.23Z"/><path class="cls-19" d="M217.7869,75.4827h1.6666V72.6688h1.23v2.8139h2.1271V76.55h-2.1271v5.74c0,.9738.2213,1.5051,1.0865,1.5051a3.4809,3.4809,0,0,0,.8891-.0947v.9908a3.7151,3.7151,0,0,1-1.254.1685c-1.3,0-1.9517-.6619-1.9517-2.167V76.55h-1.6666Z"/><path class="cls-19" d="M225.51,80.2993c.0159,2.156,1.1,3.57,2.783,3.57a2.39,2.39,0,0,0,2.4661-1.5979h1.246a3.6421,3.6421,0,0,1-3.7559,2.6794c-2.8549,0-3.9892-2.3953-3.9892-4.7587,0-2.6933,1.3457-4.93,4.0968-4.93,2.9107,0,3.8477,2.4292,3.8477,4.2753,0,.2691,0,.5173-.02.7616Zm5.4345-.956c-.02-1.6895-.9131-3.0312-2.62-3.0312-1.7783,0-2.5757,1.24-2.7591,3.0312Z"/><path class="cls-19" d="M233.7655,86.8323a12.323,12.323,0,0,0,1.2979-4.6132h1.244a11.0752,11.0752,0,0,1-1.4932,4.6132Z"/><path class="cls-19" d="M251.2873,81.9619a3.6138,3.6138,0,0,1-3.6962,2.9894c-2.4182,0-4.033-1.7713-4.033-4.8016,0-2.5707,1.41-4.8873,4.1447-4.8873a3.3743,3.3743,0,0,1,3.5845,3.02h-1.2361a2.3,2.3,0,0,0-2.3724-1.9387c-1.81,0-2.8388,1.545-2.8388,3.76,0,2.1581.9748,3.7689,2.7631,3.7689a2.4175,2.4175,0,0,0,2.4441-1.9109Z"/><path class="cls-19" d="M253.9906,71.21h1.232v1.8859h-1.232Zm0,4.2732h1.232V84.731h-1.232Z"/><path class="cls-19" d="M257.4,75.4827h1.6647V72.6688h1.23v2.8139h2.1292V76.55h-2.1292v5.74c0,.9738.2233,1.5051,1.0865,1.5051a3.4968,3.4968,0,0,0,.8912-.0947v.9908a3.72,3.72,0,0,1-1.256.1685c-1.3,0-1.9517-.6619-1.9517-2.167V76.55H257.4Z"/><path class="cls-19" d="M272.2738,80.0889c0,2.6136-1.4712,4.8624-4.26,4.8624-2.5657,0-4.1427-2.0514-4.1427-4.8384,0-2.6844,1.5112-4.85,4.2424-4.85C270.6212,75.2624,272.2738,77.1853,272.2738,80.0889Zm-7.1191.018c0,2.1222,1.1045,3.7629,2.9306,3.7629,1.858,0,2.9067-1.5351,2.9067-3.76,0-2.1362-1.0367-3.7659-2.9426-3.7659C266.1116,76.344,265.1547,77.9368,265.1547,80.1069Z"/><path class="cls-19" d="M275.1865,75.4827c1.6945,4.8973,2.5119,7.2039,2.795,8.1758h.02c.339-1.0915,1.0407-3.2237,2.7054-8.1758h1.2579l-3.407,9.7338c-.9629,2.7232-1.6408,3.3681-3.4111,3.3681a7.1777,7.1777,0,0,1-.915-.0578V87.39a6.0726,6.0726,0,0,0,.7994.0518c1.26,0,1.6945-.5871,2.3146-2.3265l-3.5008-9.6321Z"/><path class="cls-19" d="M284.7059,80.2993c.016,2.156,1.1025,3.57,2.7831,3.57a2.3868,2.3868,0,0,0,2.4661-1.5979h1.2479a3.6437,3.6437,0,0,1-3.7559,2.6794c-2.8548,0-3.9912-2.3953-3.9912-4.7587,0-2.6933,1.3477-4.93,4.0989-4.93,2.9086,0,3.8476,2.4292,3.8476,4.2753,0,.2691,0,.5173-.02.7616Zm5.4346-.956c-.018-1.6895-.9111-3.0312-2.6176-3.0312-1.7783,0-2.5758,1.24-2.7612,3.0312Z"/><path class="cls-19" d="M294.028,77.8132c0-.8084,0-1.6008-.018-2.3305h1.2c.04.2851.0618,1.3826.0478,1.6487a2.9711,2.9711,0,0,1,2.9984-1.869c1.6866,0,3.1.9869,3.1,3.4958V84.731h-1.232V78.9326c0-1.533-.62-2.5458-2.1391-2.5458-1.9936,0-2.7273,1.6019-2.7273,3.5456V84.731h-1.23Z"/><path class="cls-19" d="M304.7037,77.8132c0-.8084,0-1.6008-.02-2.3305h1.2c.04.2851.0618,1.3826.05,1.6487a2.9663,2.9663,0,0,1,2.9964-1.869c1.6866,0,3.102.9869,3.102,3.4958V84.731H310.8V78.9326c0-1.533-.622-2.5458-2.1411-2.5458-1.9936,0-2.7253,1.6019-2.7253,3.5456V84.731h-1.23Z"/><path class="cls-19" d="M315.92,80.2993c.0159,2.156,1.1024,3.57,2.783,3.57a2.3878,2.3878,0,0,0,2.4681-1.5979h1.248a3.6447,3.6447,0,0,1-3.758,2.6794c-2.8548,0-3.9891-2.3953-3.9891-4.7587,0-2.6933,1.3456-4.93,4.0968-4.93,2.9087,0,3.85,2.4292,3.85,4.2753,0,.2691,0,.5173-.0219.7616Zm5.4345-.956c-.0179-1.6895-.9091-3.0312-2.6156-3.0312-1.7783,0-2.5777,1.24-2.7631,3.0312Z"/><path class="cls-19" d="M330.9314,80.2993c.016,2.156,1.1005,3.57,2.7831,3.57a2.3914,2.3914,0,0,0,2.4681-1.5979h1.246a3.643,3.643,0,0,1-3.758,2.6794c-2.8548,0-3.9872-2.3953-3.9872-4.7587,0-2.6933,1.3437-4.93,4.0949-4.93,2.9106,0,3.85,2.4292,3.85,4.2753,0,.2691,0,.5173-.0219.7616Zm5.4346-.956c-.018-1.6895-.9111-3.0312-2.6176-3.0312-1.7783,0-2.5777,1.24-2.7611,3.0312Z"/><path class="cls-19" d="M339.0832,75.4827h1.6647V72.6688h1.232v2.8139h2.1272V76.55H341.98v5.74c0,.9738.2193,1.5051,1.0846,1.5051a3.5053,3.5053,0,0,0,.8911-.0947v.9908a3.722,3.722,0,0,1-1.254.1685c-1.3,0-1.9537-.6619-1.9537-2.167V76.55h-1.6647Z"/><path class="cls-19" d="M351.5691,84.731V71.21h1.23V84.731Z"/><path class="cls-19" d="M363.8617,80.0889c0,2.6136-1.4713,4.8624-4.26,4.8624-2.5657,0-4.1427-2.0514-4.1427-4.8384,0-2.6844,1.5092-4.85,4.24-4.85C362.207,75.2624,363.8617,77.1853,363.8617,80.0889Zm-7.1212.018c0,2.1222,1.1065,3.7629,2.9306,3.7629,1.858,0,2.9067-1.5351,2.9067-3.76,0-2.1362-1.0367-3.7659-2.9426-3.7659C357.7,76.344,356.7405,77.9368,356.7405,80.1069Z"/><path class="cls-19" d="M373.6462,81.9619a3.61,3.61,0,0,1-3.6941,2.9894c-2.4182,0-4.0331-1.7713-4.0331-4.8016,0-2.5707,1.41-4.8873,4.1467-4.8873a3.3714,3.3714,0,0,1,3.5805,3.02h-1.234a2.3008,2.3008,0,0,0-2.37-1.9387c-1.8142,0-2.8389,1.545-2.8389,3.76,0,2.1581.9729,3.7689,2.7612,3.7689a2.4211,2.4211,0,0,0,2.4461-1.9109Z"/><path class="cls-19" d="M382.7968,82.855a12.0842,12.0842,0,0,0,.13,1.876h-1.18a5.5458,5.5458,0,0,1-.1595-1.3267,2.9718,2.9718,0,0,1-2.9525,1.547,2.7743,2.7743,0,0,1-3.09-2.798c0-2.0474,1.5949-2.9814,4.358-2.9814h1.6747V78.3c0-.8752-.2692-2.0036-2.205-2.0036-1.72,0-1.99.8832-2.177,1.6248h-1.2081c.1156-1.1344.8174-2.6615,3.417-2.6585,2.179.003,3.3931.9061,3.3931,2.9715Zm-1.2041-2.7461h-1.6666c-1.9578,0-3.1021.5243-3.1021,1.9846a1.7922,1.7922,0,0,0,1.9777,1.8241c2.4521,0,2.791-1.64,2.791-3.4917Z"/><path class="cls-19" d="M386.162,84.731V71.21h1.2321V84.731Z"/><path class="cls-19" d="M391.3015,80.2993c.016,2.156,1.1025,3.57,2.7831,3.57a2.3875,2.3875,0,0,0,2.468-1.5979h1.248a3.6445,3.6445,0,0,1-3.7579,2.6794c-2.8548,0-3.9892-2.3953-3.9892-4.7587,0-2.6933,1.3457-4.93,4.0969-4.93,2.9086,0,3.85,2.4292,3.85,4.2753,0,.2691,0,.5173-.0219.7616Zm5.4346-.956c-.018-1.6895-.9091-3.0312-2.6156-3.0312-1.7783,0-2.5778,1.24-2.7632,3.0312Z"/><use width="99.2475" height="63.6908" transform="translate(2 1.3312) scale(1.3164 1.3197)" xlink:href="#Nouveau_symbole_3"/><g id="PARCEL" class="cls-20"><g class="cls-20"><path class="cls-21" d="M162.7158,22.8578V37.2117H159.845V2.38h10.9568a13.4448,13.4448,0,0,1,4.2942.7656,10.5934,10.5934,0,0,1,3.4928,2.0454,9.5309,9.5309,0,0,1,2.3564,3.2177,10.2155,10.2155,0,0,1,.8612,4.2822,10.1342,10.1342,0,0,1-.8612,4.27,9.3131,9.3131,0,0,1-2.3564,3.1818A10.4644,10.4644,0,0,1,175.084,22.14a13.4731,13.4731,0,0,1-4.2822.7177Zm0-2.4163h8.086a9.5305,9.5305,0,0,0,3.2057-.5741,8.0441,8.0441,0,0,0,2.5837-1.5311,7.0022,7.0022,0,0,0,1.7344-2.3923,7.7445,7.7445,0,0,0,.634-3.2057,8.2176,8.2176,0,0,0-.622-3.2536,7.1251,7.1251,0,0,0-1.7225-2.476,7.8759,7.8759,0,0,0-2.5837-1.579,9.8111,9.8111,0,0,0-3.23-.61h-8.086Z"/><path class="cls-21" d="M212.1968,27.4989H198.9434l-3.0861,9.7128h-2.8947L204.3022,2.38h2.5837L218.13,37.2117H215.259Zm-12.44-2.56h11.6266L205.594,6.6139Z"/><path class="cls-21" d="M242.7307,22.6425h-8.6123V37.2117h-2.8229V2.38h9.8324a14.2472,14.2472,0,0,1,4.33.7417,10.6913,10.6913,0,0,1,3.5526,1.9975,9.2769,9.2769,0,0,1,2.3923,3.1938,10.2165,10.2165,0,0,1,.8732,4.33,9.3779,9.3779,0,0,1-.5144,3.1818,9.2172,9.2172,0,0,1-1.4234,2.5956,10.1777,10.1777,0,0,1-2.165,2.0455,14.1414,14.1414,0,0,1-2.7632,1.5071l7.9425,14.9281v.311h-2.99Zm-8.6123-2.4163h7.5836a8.6726,8.6726,0,0,0,3.0383-.622,7.7333,7.7333,0,0,0,2.4521-1.5669,7.0252,7.0252,0,0,0,1.6268-2.38,7.73,7.73,0,0,0,.5861-3.0382,7.9086,7.9086,0,0,0-.6459-3.2775A7.1292,7.1292,0,0,0,247.001,6.913,7.6724,7.6724,0,0,0,244.37,5.3939,10.824,10.824,0,0,0,241.104,4.82h-6.9856Z"/><path class="cls-21" d="M288.5755,26.6376a15.5286,15.5286,0,0,1-1.1722,4.366,11.7,11.7,0,0,1-2.3445,3.5167,10.3783,10.3783,0,0,1-3.4569,2.3325,11.5015,11.5015,0,0,1-4.4856.8373,10.6418,10.6418,0,0,1-3.7679-.6339,10.1053,10.1053,0,0,1-2.99-1.7345,11.5446,11.5446,0,0,1-2.2607-2.5837,15.8768,15.8768,0,0,1-1.579-3.1937,19.5336,19.5336,0,0,1-.921-3.5526,24.8585,24.8585,0,0,1-.323-3.66V17.2837a24.86,24.86,0,0,1,.323-3.66,19.5378,19.5378,0,0,1,.921-3.5526,15.8768,15.8768,0,0,1,1.579-3.1937,11.7921,11.7921,0,0,1,2.2607-2.5957,9.967,9.967,0,0,1,2.99-1.7464,10.6418,10.6418,0,0,1,3.7679-.6339,11.6322,11.6322,0,0,1,4.5334.8373,10.3763,10.3763,0,0,1,3.4569,2.3325A11.4793,11.4793,0,0,1,287.4391,8.6a15.427,15.427,0,0,1,1.1364,4.4257h-2.8469a15.6689,15.6689,0,0,0-.921-3.3731,9.3734,9.3734,0,0,0-1.6866-2.7631,7.5917,7.5917,0,0,0-2.5358-1.866,8.2335,8.2335,0,0,0-3.4689-.6819,7.4715,7.4715,0,0,0-3.0143.5742,7.7736,7.7736,0,0,0-2.3086,1.5311,9.1075,9.1075,0,0,0-1.6866,2.2368,14.3088,14.3088,0,0,0-1.1244,2.7153,19.1646,19.1646,0,0,0-.6339,2.9306,21.5594,21.5594,0,0,0-.2034,2.9066v5.0957a21.8254,21.8254,0,0,0,.2034,2.9186,19.1089,19.1089,0,0,0,.6339,2.9425,14.3088,14.3088,0,0,0,1.1244,2.7153,9.3275,9.3275,0,0,0,1.6866,2.2488A7.6565,7.6565,0,0,0,274.102,34.7a7.4715,7.4715,0,0,0,3.0143.5742,8.6427,8.6427,0,0,0,3.5047-.6579,7.2436,7.2436,0,0,0,2.5359-1.83,9.3456,9.3456,0,0,0,1.6746-2.7512,14.7525,14.7525,0,0,0,.8971-3.3971Z"/><path class="cls-21" d="M321.1668,20.5133H305.8081v14.21h17.7032v2.488h-20.55V2.38h20.4543v2.512H305.8081V18.0253h15.3587Z"/><path class="cls-21" d="M342.1554,34.7237h17.727v2.488H339.2846V2.38h2.8708Z"/></g></g></svg>