<?xml version="1.0" encoding="UTF-8"?>
<svg width="19px" height="21px" viewBox="0 0 19 21" version="1.1" xmlns="http://www.w3.org/2000/svg" xmlns:xlink="http://www.w3.org/1999/xlink">
    <title>Group 3</title>
    <g id="home-2021" stroke="none" stroke-width="1" fill="none" fill-rule="evenodd">
        <g id="accueil-schema-outil-calcul-copy" transform="translate(-1173.000000, -48.000000)">
            <g id="Group-3" transform="translate(1173.000000, 48.777778)">
                <g id="icon/-notification" transform="translate(0.000000, 0.000000)" fill="#FFFFFF" fill-rule="nonzero">
                    <g id="noun_notification_2184933">
                        <path d="M12.0940455,17.2839506 C12.0043622,18.9217759 10.647876,20.2222222 8.98765432,20.2222222 C7.32743262,20.2222222 5.97094642,18.9217759 5.88126318,17.2839506 L2.07749395,17.2839506 C0.930194464,17.2839506 0,16.3558532 0,15.2098765 C0,14.0654536 0.929414716,13.1358025 2.07479547,13.1358025 C2.07345002,13.1358025 2.07407407,8.98739485 2.07407407,8.98739485 C2.07407407,6.06548863 3.90128024,3.50370101 6.56790123,2.50920856 L6.56790123,2.41811229 C6.56790123,1.08302807 7.65279995,0 8.98765432,0 C10.3239407,0 11.4074074,1.08237633 11.4074074,2.41811229 L11.4074074,2.50926618 C14.0739626,3.50389103 15.9012346,6.06610404 15.9012346,8.98739485 L15.9012346,13.1351998 C17.044185,13.1358025 17.9753086,14.0650929 17.9753086,15.2098765 C17.9753086,16.3546013 17.0443834,17.2839506 15.8978147,17.2839506 L12.0940455,17.2839506 Z M10.7075154,17.2839506 L7.26779324,17.2839506 C7.35451104,18.1573644 8.0914213,18.8395062 8.98765432,18.8395062 C9.88388734,18.8395062 10.6207976,18.1573644 10.7075154,17.2839506 Z M7.45085718,3.67278658 C5.10353221,4.34982558 3.45679012,6.50646149 3.45679012,8.98739485 L3.45679012,13.1351998 C3.45679012,13.8986409 2.83729334,14.5185185 2.07479547,14.5185185 C1.69314645,14.5185185 1.38271605,14.8290279 1.38271605,15.2098765 C1.38271605,15.5915007 1.69314973,15.9012346 2.07749395,15.9012346 L15.8978147,15.9012346 C16.2812543,15.9012346 16.5925926,15.5904234 16.5925926,15.2098765 C16.5925926,14.8293566 16.2811413,14.5185185 15.9005132,14.5185185 C15.1365037,14.5185185 14.5185185,13.9008334 14.5185185,13.1351998 L14.5185185,8.98739485 C14.5185185,6.50706626 12.8716517,4.34992548 10.5244246,3.67281182 L10.0246914,3.52865185 L10.0246914,2.41811229 C10.0246914,1.84634116 9.56059917,1.38271605 8.98765432,1.38271605 C8.41591928,1.38271605 7.95061728,1.84721576 7.95061728,2.41811229 L7.95061728,3.52864079 L7.45085718,3.67278658 Z" id="Shape"></path>
                    </g>
                </g>
                <circle id="Oval" fill="#F50C39" cx="15.5" cy="5.72222222" r="3.5"></circle>
            </g>
        </g>
    </g>
</svg>