<?xml version="1.0" encoding="UTF-8"?>
<svg width="253px" height="302px" viewBox="0 0 253 302" version="1.1" xmlns="http://www.w3.org/2000/svg" xmlns:xlink="http://www.w3.org/1999/xlink">
    <title>Path</title>
    <g id="Page-1" stroke="none" stroke-width="1" fill="none" fill-rule="evenodd">
        <g id="surface1" transform="translate(-357.000000, -1944.000000)" fill="#015A5A" fill-rule="nonzero">
            <polygon id="Path" points="454.120678 1944 418.069798 1953.06197 387.731898 1962.51794 374.926941 1973.5499 374.926941 2013.34377 381.427919 2021.02674 375.320939 2017.28376 373.744945 2030.28571 374.729941 2038.75669 379.851924 2042.30267 371.577952 2045.45466 370.789954 2052.15264 377.487932 2064.3666 371.380952 2061.01761 357 2080.71755 357 2080.71755 384.776908 2104.35747 392.262883 2123.07241 385.564905 2133.31637 388.716895 2152.81931 385.564905 2170.54925 393.444879 2189.06719 384.579909 2194.78017 388.125897 2201.87215 400.536856 2204.43314 414.52381 2200.29615 434.814742 2205.22114 439.739726 2201.67515 463.773646 2215.6621 478.942596 2218.02609 483.473581 2213.10111 488.989563 2216.6471 506.918474 2210.14612 512.828454 2211.72211 516.569472 2217.2381 515.190476 2223.54207 523.858447 2232.80104 544.543379 2246 561.288324 2223.54207 555.772342 2220.78408 557.742335 2214.6771 554.196347 2209.35812 566.213307 2204.43314 559.121331 2186.5062 561.877352 2180.59622 579.410294 2171.73125 591.427254 2175.86823 593.397247 2169.76125 592.808219 2138.04436 598.915199 2137.45336 609.949132 2121.49641 606.994142 2114.60144 609.949132 2106.91846 608.176138 2094.3105 607.386171 2094.3105 599.309198 2091.74951 606.598174 2077.76256 599.900196 2066.1396 604.433151 2051.75864 598.324201 2053.13764 589.262231 2042.30267 575.866275 2044.66667 563.847345 2041.90868 558.922361 2046.24266 554.196347 2026.14873 542.177417 2023.19374 539.616425 2017.28376 533.312446 2022.01174 526.22047 2019.64775 519.522492 2000.93281 520.507489 1994.23483 511.841487 1984.58187 498.83756 1985.56686 486.623601 1994.03783 480.122622 1991.27984 473.818643 1979.65688 466.531637 1979.65688 463.576647 1973.7469 465.938669 1961.13894 460.227658 1947.74299"></polygon>
        </g>
    </g>
</svg>