<?xml version="1.0" encoding="UTF-8"?>
<svg width="184px" height="220px" viewBox="0 0 184 220" version="1.1" xmlns="http://www.w3.org/2000/svg" xmlns:xlink="http://www.w3.org/1999/xlink">
    <title>Path</title>
    <g id="Page-1" stroke="none" stroke-width="1" fill="none" fill-rule="evenodd">
        <g id="surface1" transform="translate(-392.000000, -1455.000000)" fill="#91C322" fill-rule="nonzero">
            <g id="Group-7" transform="translate(151.000000, 1386.000000)">
                <polygon id="Path" points="311.483014 69 285.319948 75.5765084 263.302942 82.438952 254.010049 90.4451361 254.010049 119.324586 258.727979 124.900322 254.295984 122.183938 253.152244 131.619798 253.867082 137.767403 257.584239 140.34082 251.5796 142.628301 251.00773 147.489198 255.868628 156.353188 251.436633 153.922739 241 168.219497 241 168.219497 261.158428 185.375605 266.591196 198.957525 261.730298 206.391839 264.017779 220.545629 261.730298 233.41271 267.449001 246.851662 261.01546 250.997722 263.588877 256.144555 272.595834 258.003133 282.746532 255.000814 297.472192 258.575003 301.046381 256.001587 318.488425 266.152285 329.496928 267.867896 332.785183 264.293706 336.788275 266.867123 349.799754 262.149193 354.088781 263.292933 356.803735 267.296025 355.802962 271.870988 362.093535 278.590464 377.105131 288.169291 389.257375 271.870988 385.254282 269.869442 386.683958 265.437447 384.110542 261.577323 392.831564 258.003133 387.684731 244.993084 389.684848 240.704057 402.408962 234.270516 411.129984 237.272835 412.559659 232.84084 412.132186 209.823061 416.564181 209.394158 424.571795 197.813784 422.427281 192.809919 424.571795 187.234184 423.285087 178.084259 422.711787 178.084259 416.850116 176.225681 422.139917 166.074983 417.279019 157.639896 420.568703 147.203263 416.135278 148.204036 409.55877 140.34082 399.836975 142.05643 391.114523 140.054884 387.540334 143.200171 384.110542 128.617478 375.38809 126.472965 373.529512 122.183938 368.954549 125.615159 363.807717 123.899549 358.946819 110.317629 359.661657 105.456731 353.372513 98.4513203 343.935224 99.1661582 335.071234 105.313764 330.353304 103.312218 325.778342 94.8771309 320.489971 94.8771309 318.345458 90.5881037 320.059639 81.438179 315.915009 71.7163839"></polygon>
            </g>
        </g>
    </g>
</svg>