<?xml version="1.0" encoding="UTF-8"?>
<svg width="300px" height="358px" viewBox="0 0 300 358" version="1.1" xmlns="http://www.w3.org/2000/svg" xmlns:xlink="http://www.w3.org/1999/xlink">
    <title>Path</title>
    <g id="Page-1" stroke="none" stroke-width="1" fill="none" fill-rule="evenodd">
        <g id="surface1" transform="translate(-334.000000, -875.000000)" fill="#F1EDEA" fill-rule="nonzero">
            <g id="Group-5" transform="translate(151.000000, 875.000000)">
                <polygon id="Path" points="298.129811 0 255.393999 10.7423353 219.430528 21.9517286 204.251142 35.0293542 204.251142 82.2022179 211.957599 91.30985 204.7182 86.8727984 202.849967 102.285714 204.017613 112.327462 210.089367 116.530985 200.281148 120.267449 199.347032 128.207436 207.287019 142.686236 200.047619 138.716243 183 162.069145 183 162.069145 215.927593 190.092629 224.801696 212.277886 216.861709 224.421396 220.598174 247.54077 216.861709 268.558382 226.20287 290.510111 215.694064 297.282453 219.897586 305.689498 234.609915 308.725375 251.190476 303.821265 275.243966 309.659491 281.082192 305.455969 309.572733 322.03653 327.554468 324.838878 332.925636 319.000652 339.464449 323.204175 360.717926 315.497717 367.723796 317.365949 372.158513 323.904762 370.52381 331.377691 380.799087 342.353555 405.319635 358 425.169602 331.377691 418.630789 328.108284 420.96608 320.868885 416.762557 314.563601 431.007828 308.725375 422.600783 287.474234 425.867854 280.468363 446.651937 269.959556 460.897208 274.863666 463.232498 267.624266 462.534247 230.026093 469.773646 229.325506 482.853607 210.409654 479.350672 202.236138 482.853607 193.128506 480.751846 178.182648 479.815395 178.182648 470.240705 175.146771 478.881279 158.56621 470.941292 144.787997 476.314795 127.740378 469.073059 129.375082 458.330724 116.530985 442.45075 119.333333 428.203144 116.063927 422.364918 121.201566 416.762557 97.3816047 402.514951 93.8786693 399.479074 86.8727984 392.006145 92.4774951 383.5991 89.6751468 375.659113 67.4898891 376.826758 59.5499022 366.553816 48.1069798 351.138565 49.2746249 336.659765 59.3163731 328.953307 56.0469667 321.480378 42.2687541 312.84214 42.2687541 309.339204 35.2628832 312.139217 20.3170254 305.369211 4.43705153"></polygon>
            </g>
        </g>
    </g>
</svg>