<?xml version="1.0" encoding="utf-8"?>
<!-- Generator: Adobe Illustrator 19.1.0, SVG Export Plug-In . SVG Version: 6.00 Build 0)  -->
<svg version="1.1" id="Layer_1" xmlns="http://www.w3.org/2000/svg" xmlns:xlink="http://www.w3.org/1999/xlink" x="0px" y="0px"
	 viewBox="0 0 562.2 317.4" style="enable-background:new 0 0 562.2 317.4;" xml:space="preserve">
<style type="text/css">
	.st0{fill:none;}
</style>
<g>
	<g>
		<path d="M58,190.2h7.5c5.6,0,9.2,2.1,9.2,6.6c0,2.8-1.6,5.1-4.9,5.9v0.2c4.1,0.6,6.7,2.8,6.7,6.5c0,5.2-4,7.9-10.3,7.9H58V190.2z
			 M64.7,202.1c5.7,0,8-1.8,8-5.4c0-3.5-2.7-5-7.8-5h-5v10.4H64.7z M65.6,215.7c5.5,0,8.9-2,8.9-6.3c0-3.9-3.2-5.8-8.9-5.8h-5.6
			v12.1H65.6z"/>
		<path d="M81.7,197.5h1.9V210c0,4.2,1.3,6.2,4.6,6.2c2.4,0,4.2-1.2,6.5-4v-14.6h1.9v19.7H95l-0.2-3.3h-0.1c-2,2.3-4.1,3.8-6.9,3.8
			c-4.2,0-6.1-2.5-6.1-7.6V197.5z"/>
		<path d="M104.3,197.5h1.6l0.2,3.7h0.1c1.3-2.4,3.3-4.2,5.7-4.2c0.8,0,1.3,0.1,2,0.4l-0.4,1.6c-0.7-0.2-1.1-0.3-1.9-0.3
			c-1.8,0-4,1.4-5.5,5.1v13.4h-1.9V197.5z"/>
		<path d="M124.4,197.1c4.8,0,7.8,3.3,7.8,9.1c0,0.5,0,1-0.1,1.5h-14.6c0.1,5,3.1,8.6,7.6,8.6c2.2,0,3.9-0.7,5.4-1.8l0.8,1.4
			c-1.6,0.9-3.4,1.9-6.4,1.9c-5.2,0-9.4-3.9-9.4-10.3C115.6,201,119.9,197.1,124.4,197.1z M130.4,206.3c0-5.1-2.3-7.6-5.9-7.6
			c-3.5,0-6.5,2.9-7,7.6H130.4z"/>
		<path d="M148.9,204.9c0.1-3-0.8-6.2-4.8-6.2c-2.7,0-5.1,1.3-6.5,2.3l-0.8-1.4c1.4-1,4.2-2.5,7.5-2.5c4.8,0,6.4,3.4,6.4,7.6v12.6
			h-1.6l-0.2-2.5h-0.1c-2.1,1.6-4.5,3-7.2,3c-3.2,0-5.9-1.7-5.9-5.4C135.9,208,140,205.9,148.9,204.9z M142.1,216.2
			c2.3,0,4.4-1.1,6.9-3.2v-6.7c-8.3,0.9-11.1,2.8-11.1,6C137.8,215.1,139.7,216.2,142.1,216.2z"/>
		<path d="M157.8,197.5h1.9V210c0,4.2,1.3,6.2,4.6,6.2c2.4,0,4.2-1.2,6.5-4v-14.6h1.9v19.7H171l-0.2-3.3h-0.1
			c-2,2.3-4.1,3.8-6.9,3.8c-4.2,0-6.1-2.5-6.1-7.6V197.5z"/>
		<path d="M196.1,197.1c2.4,0,4.1,0.9,6.1,2.4l-0.1-3.6v-8.1h1.9v29.6h-1.6l-0.2-2.5H202c-1.6,1.6-3.9,3-6.6,3
			c-5.1,0-8.4-3.7-8.4-10.3C187.1,201.1,191.2,197.1,196.1,197.1z M195.7,216.2c2.2,0,4.2-1.2,6.4-3.2v-11.7
			c-2.2-1.8-3.9-2.5-5.9-2.5c-4,0-7.1,3.8-7.1,8.8C189,212.7,191.4,216.2,195.7,216.2z"/>
		<path d="M210.3,196.7c1.9-1.5,2.8-2.8,2.8-5.1c-0.1,0-0.2,0-0.3,0c-0.8,0-1.6-0.5-1.6-1.5s0.7-1.6,1.6-1.6c1.1,0,1.9,1,1.9,2.8
			c0,2.9-1.3,5-3.6,6.4L210.3,196.7z"/>
		<path d="M231.6,208h-11l-3.2,9.3h-2l9.8-27.1h1.9l9.8,27.1h-2.1L231.6,208z M231,206.4l-1.8-5.1c-1.1-3.2-2.1-6-3.1-9.4H226
			c-1,3.3-1.9,6.2-3.1,9.4l-1.8,5.1H231z"/>
		<path d="M240.9,197.5h1.6l0.2,3h0.1c2.1-2,4.2-3.5,7-3.5c4.2,0,6.1,2.5,6.1,7.6v12.7H254v-12.4c0-4.2-1.3-6.2-4.6-6.2
			c-2.4,0-4.1,1.2-6.6,3.7v14.9h-1.9V197.5z"/>
		<path d="M275.3,204.9c0.1-3-0.8-6.2-4.8-6.2c-2.7,0-5.1,1.3-6.5,2.3l-0.8-1.4c1.4-1,4.2-2.5,7.5-2.5c4.8,0,6.4,3.4,6.4,7.6v12.6
			h-1.6l-0.2-2.5h-0.1c-2.1,1.6-4.5,3-7.2,3c-3.2,0-5.9-1.7-5.9-5.4C262.2,208,266.3,205.9,275.3,204.9z M268.4,216.2
			c2.3,0,4.4-1.1,6.9-3.2v-6.7c-8.3,0.9-11.1,2.8-11.1,6C264.2,215.1,266.1,216.2,268.4,216.2z"/>
		<path d="M284.4,187.7h1.9v27.2c0,0.9,0.4,1.3,0.9,1.3c0.2,0,0.3,0,0.8-0.1l0.3,1.5c-0.4,0.1-0.8,0.2-1.3,0.2c-1.6,0-2.5-1-2.5-3.1
			V187.7z"/>
		<path d="M293.6,224.6c2.5,0,4.2-2.2,5.2-5.2l0.5-1.7l-8.3-20.1h2L298,210c0.6,1.6,1.4,3.8,2.2,5.5h0.2c0.6-1.7,1.3-3.9,1.9-5.5
			l4.3-12.4h1.9l-8,22.2c-1.1,3.3-3.2,6.5-6.8,6.5c-0.8,0-1.5-0.2-2.1-0.4l0.4-1.6C292.4,224.4,293,224.6,293.6,224.6z"/>
		<path d="M311.4,213.7c1.7,1.4,3.5,2.5,6.5,2.5c3.2,0,4.8-1.8,4.8-3.9c0-2.5-2.6-3.5-4.9-4.4c-3.1-1.1-6.5-2.3-6.5-5.6
			c0-2.9,2.3-5.3,6.5-5.3c2.2,0,4.3,0.9,5.8,2.1l-1,1.3c-1.3-1-2.8-1.8-4.9-1.8c-3.1,0-4.6,1.8-4.6,3.6c0,2.2,2.4,3.1,4.8,4
			c3.2,1.2,6.6,2.2,6.6,6c0,3-2.4,5.5-6.8,5.5c-3,0-5.6-1.2-7.4-2.7L311.4,213.7z"/>
		<path d="M337,197.1c4.8,0,7.8,3.3,7.8,9.1c0,0.5,0,1-0.1,1.5h-14.6c0.1,5,3.1,8.6,7.6,8.6c2.2,0,3.9-0.7,5.4-1.8l0.8,1.4
			c-1.6,0.9-3.4,1.9-6.4,1.9c-5.2,0-9.4-3.9-9.4-10.3C328.2,201,332.5,197.1,337,197.1z M343,206.3c0-5.1-2.3-7.6-5.9-7.6
			c-3.5,0-6.5,2.9-7,7.6H343z"/>
		<path d="M357.8,212.4c2,2.2,4.9,3.7,8.2,3.7c4.2,0,6.9-2.2,6.9-5.4c0-3.4-2.3-4.5-5-5.7l-4.2-1.8c-2.4-1-5.6-2.7-5.6-6.7
			c0-3.9,3.5-6.7,8.1-6.7c3.4,0,6.1,1.5,7.8,3.2l-1.1,1.3c-1.6-1.7-3.8-2.8-6.6-2.8c-3.7,0-6.1,1.9-6.1,4.9c0,3.1,2.8,4.3,4.8,5.2
			l4.2,1.8c3.1,1.4,5.8,3,5.8,7.2c0,4.2-3.5,7.3-8.9,7.3c-4,0-7.2-1.7-9.4-4.1L357.8,212.4z"/>
		<path d="M387.7,197.1c4.9,0,9.1,3.8,9.1,10.4c0,6.5-4.2,10.3-9.1,10.3c-4.9,0-9.1-3.8-9.1-10.3
			C378.6,200.8,382.9,197.1,387.7,197.1z M387.7,216.2c4.1,0,7.2-3.5,7.2-8.7c0-5.2-3.1-8.8-7.2-8.8s-7.1,3.6-7.1,8.8
			C380.6,212.6,383.6,216.2,387.7,216.2z"/>
		<path d="M410.4,197.1c2.8,0,4.6,1.2,5.9,2.4l-1.1,1.3c-1.3-1.2-2.8-2.1-4.8-2.1c-4.1,0-7.3,3.6-7.3,8.8c0,5.2,2.9,8.7,7.3,8.7
			c2.2,0,4-1,5.4-2.3l1,1.2c-1.7,1.5-3.9,2.6-6.5,2.6c-5.2,0-9.2-3.8-9.2-10.3C401.2,200.8,405.5,197.1,410.4,197.1z"/>
		<path d="M421.1,191.2c0-1,0.8-1.6,1.7-1.6s1.7,0.6,1.7,1.6c0,0.9-0.8,1.6-1.7,1.6S421.1,192.1,421.1,191.2z M421.8,197.5h1.9v19.7
			h-1.9V197.5z"/>
		<path d="M438.6,197.1c4.8,0,7.8,3.3,7.8,9.1c0,0.5,0,1-0.1,1.5h-14.6c0.1,5,3.1,8.6,7.6,8.6c2.2,0,3.9-0.7,5.4-1.8l0.8,1.4
			c-1.6,0.9-3.4,1.9-6.4,1.9c-5.2,0-9.4-3.9-9.4-10.3C429.8,201,434.1,197.1,438.6,197.1z M444.6,206.3c0-5.1-2.3-7.6-5.9-7.6
			c-3.5,0-6.5,2.9-7,7.6H444.6z M437.9,193.8h-1.6l3.8-5.6h2.2L437.9,193.8z"/>
		<path d="M451.9,199.1h-3.2v-1.4l3.2-0.2l0.3-5.7h1.6v5.7h5.9v1.6h-5.9V212c0,2.5,0.6,4.2,3.4,4.2c0.8,0,1.8-0.3,2.5-0.6l0.5,1.5
			c-1.2,0.4-2.4,0.7-3.3,0.7c-3.9,0-5.1-2.4-5.1-6V199.1z"/>
		<path d="M475.6,204.9c0.1-3-0.8-6.2-4.8-6.2c-2.7,0-5.1,1.3-6.5,2.3l-0.8-1.4c1.4-1,4.2-2.5,7.5-2.5c4.8,0,6.4,3.4,6.4,7.6v12.6
			h-1.6l-0.2-2.5h-0.1c-2.1,1.6-4.5,3-7.2,3c-3.2,0-5.9-1.7-5.9-5.4C462.5,208,466.6,205.9,475.6,204.9z M468.7,216.2
			c2.3,0,4.4-1.1,6.9-3.2v-6.7c-8.3,0.9-11.1,2.8-11.1,6C464.5,215.1,466.4,216.2,468.7,216.2z"/>
		<path d="M484.7,187.7h1.9v27.2c0,0.9,0.4,1.3,0.9,1.3c0.2,0,0.3,0,0.8-0.1l0.3,1.5c-0.4,0.1-0.8,0.2-1.3,0.2c-1.6,0-2.5-1-2.5-3.1
			V187.7z"/>
		<path d="M501.8,197.1c4.8,0,7.8,3.3,7.8,9.1c0,0.5,0,1-0.1,1.5h-14.6c0.1,5,3.1,8.6,7.6,8.6c2.2,0,3.9-0.7,5.4-1.8l0.8,1.4
			c-1.6,0.9-3.4,1.9-6.4,1.9c-5.2,0-9.4-3.9-9.4-10.3C493,201,497.3,197.1,501.8,197.1z M507.8,206.3c0-5.1-2.3-7.6-5.9-7.6
			c-3.5,0-6.5,2.9-7,7.6H507.8z"/>
		<path d="M65.2,243.1c2.4,0,4.1,0.9,6.1,2.4l-0.1-3.6v-8.1h1.9v29.6h-1.6l-0.2-2.5h-0.1c-1.6,1.6-3.9,3-6.6,3
			c-5.1,0-8.4-3.7-8.4-10.3C56.2,247.1,60.4,243.1,65.2,243.1z M64.9,262.2c2.2,0,4.2-1.2,6.4-3.2v-11.7c-2.2-1.8-3.9-2.5-5.9-2.5
			c-4,0-7.1,3.8-7.1,8.8C58.2,258.7,60.6,262.2,64.9,262.2z"/>
		<path d="M79.4,242.7c1.9-1.5,2.8-2.8,2.8-5.1c-0.1,0-0.2,0-0.3,0c-0.8,0-1.6-0.5-1.6-1.5s0.7-1.6,1.6-1.6c1.1,0,1.9,1,1.9,2.8
			c0,2.9-1.3,5-3.6,6.4L79.4,242.7z"/>
		<path d="M90.2,236.2h1.9v27.1h-1.9V236.2z"/>
		<path d="M99.9,243.5h1.6l0.2,3h0.1c2.1-2,4.2-3.5,7-3.5c4.2,0,6.1,2.5,6.1,7.6v12.7H113v-12.4c0-4.2-1.3-6.2-4.6-6.2
			c-2.4,0-4.1,1.2-6.6,3.7v14.9h-1.9V243.5z"/>
		<path d="M122.8,245.1h-3.2v-1.4l3.2-0.2l0.3-5.7h1.6v5.7h5.9v1.6h-5.9V258c0,2.5,0.6,4.2,3.4,4.2c0.8,0,1.8-0.3,2.5-0.6l0.5,1.5
			c-1.2,0.4-2.4,0.7-3.3,0.7c-3.9,0-5.1-2.4-5.1-6V245.1z"/>
		<path d="M142.2,243.1c4.8,0,7.8,3.3,7.8,9.1c0,0.5,0,1-0.1,1.5h-14.6c0.1,5,3.1,8.6,7.6,8.6c2.2,0,3.9-0.7,5.4-1.8l0.8,1.4
			c-1.6,0.9-3.4,1.9-6.4,1.9c-5.2,0-9.4-3.9-9.4-10.3C133.4,247,137.7,243.1,142.2,243.1z M148.2,252.3c0-5.1-2.3-7.6-5.9-7.6
			c-3.5,0-6.5,2.9-7,7.6H148.2z M141.5,239.8h-1.6l3.8-5.6h2.2L141.5,239.8z"/>
		<path d="M155.5,243.5h1.6l0.2,3.7h0.1c1.3-2.4,3.3-4.2,5.7-4.2c0.8,0,1.3,0.1,2,0.4l-0.4,1.6c-0.7-0.2-1.1-0.3-1.9-0.3
			c-1.8,0-4,1.4-5.5,5.1v13.4h-1.9V243.5z"/>
		<path d="M175.6,243.1c4.8,0,7.8,3.3,7.8,9.1c0,0.5,0,1-0.1,1.5h-14.6c0.1,5,3.1,8.6,7.6,8.6c2.2,0,3.9-0.7,5.4-1.8l0.8,1.4
			c-1.6,0.9-3.4,1.9-6.4,1.9c-5.2,0-9.4-3.9-9.4-10.3C166.7,247,171,243.1,175.6,243.1z M181.5,252.3c0-5.1-2.3-7.6-5.9-7.6
			c-3.5,0-6.5,2.9-7,7.6H181.5z M174.8,234.2h1.6l4,5.6h-1.6l-3.2-4.1h-0.2l-3.2,4.1h-1.5L174.8,234.2z"/>
		<path d="M188.8,245.1h-3.2v-1.4l3.2-0.2l0.3-5.7h1.6v5.7h5.9v1.6h-5.9V258c0,2.5,0.6,4.2,3.4,4.2c0.8,0,1.8-0.3,2.5-0.6l0.5,1.5
			c-1.2,0.4-2.4,0.7-3.3,0.7c-3.9,0-5.1-2.4-5.1-6V245.1z"/>
		<path d="M220,235.7c3.2,0,5.7,1.6,7.2,3.2l-1.1,1.2c-1.5-1.6-3.5-2.8-6.1-2.8c-6.1,0-9.9,4.7-9.9,12.3c0,7.5,3.8,12.4,9.7,12.4
			c2.9,0,5-1.1,7-3.3l1.1,1.2c-2.1,2.4-4.6,3.9-8.3,3.9c-6.8,0-11.6-5.5-11.6-14.1C208.2,241.1,213,235.7,220,235.7z"/>
		<path d="M240.8,243.1c4.9,0,9.1,3.8,9.1,10.4c0,6.5-4.2,10.3-9.1,10.3c-4.9,0-9.1-3.8-9.1-10.3
			C231.7,246.8,235.9,243.1,240.8,243.1z M240.8,262.2c4.1,0,7.2-3.5,7.2-8.7c0-5.2-3.1-8.8-7.2-8.8c-4.1,0-7.1,3.6-7.1,8.8
			C233.6,258.6,236.7,262.2,240.8,262.2z"/>
		<path d="M255.9,233.7h1.9v27.2c0,0.9,0.4,1.3,0.9,1.3c0.2,0,0.3,0,0.8-0.1l0.3,1.5c-0.4,0.1-0.8,0.2-1.3,0.2c-1.6,0-2.5-1-2.5-3.1
			V233.7z"/>
		<path d="M265.9,233.7h1.9v27.2c0,0.9,0.4,1.3,0.9,1.3c0.2,0,0.3,0,0.8-0.1l0.3,1.5c-0.4,0.1-0.8,0.2-1.3,0.2c-1.6,0-2.5-1-2.5-3.1
			V233.7z"/>
		<path d="M283.1,243.1c4.8,0,7.8,3.3,7.8,9.1c0,0.5,0,1-0.1,1.5h-14.6c0.1,5,3.1,8.6,7.6,8.6c2.2,0,3.9-0.7,5.4-1.8l0.8,1.4
			c-1.6,0.9-3.4,1.9-6.4,1.9c-5.2,0-9.4-3.9-9.4-10.3C274.2,247,278.6,243.1,283.1,243.1z M289.1,252.3c0-5.1-2.3-7.6-5.9-7.6
			c-3.5,0-6.5,2.9-7,7.6H289.1z"/>
		<path d="M303.9,243.1c2.8,0,4.6,1.2,5.9,2.4l-1.1,1.3c-1.3-1.2-2.8-2.1-4.8-2.1c-4.1,0-7.3,3.6-7.3,8.8c0,5.2,2.9,8.7,7.3,8.7
			c2.2,0,4-1,5.4-2.3l1,1.2c-1.7,1.5-3.9,2.6-6.5,2.6c-5.2,0-9.2-3.8-9.2-10.3C294.6,246.8,298.9,243.1,303.9,243.1z"/>
		<path d="M315.7,245.1h-3.2v-1.4l3.2-0.2l0.3-5.7h1.6v5.7h5.9v1.6h-5.9V258c0,2.5,0.6,4.2,3.4,4.2c0.8,0,1.8-0.3,2.5-0.6l0.5,1.5
			c-1.2,0.4-2.4,0.7-3.3,0.7c-3.9,0-5.1-2.4-5.1-6V245.1z"/>
		<path d="M327.7,237.2c0-1,0.8-1.6,1.7-1.6c0.9,0,1.7,0.6,1.7,1.6c0,0.9-0.8,1.6-1.7,1.6C328.4,238.8,327.7,238.1,327.7,237.2z
			 M328.4,243.5h1.9v19.7h-1.9V243.5z"/>
		<path d="M345.8,235.4c-0.8-0.4-1.7-0.6-2.4-0.6c-2.2,0-3.2,1.6-3.2,4.5v4.3h4.7v1.6h-4.7v18.2h-1.9v-18.2h-2.8v-1.4l2.8-0.2v-4.4
			c0-3.9,1.8-5.9,5-5.9c0.9,0,2,0.2,3,0.7L345.8,235.4z"/>
	</g>
	<g>
		<path d="M113.2,106.4c7.2-5.3,11.9-13.8,11.9-23.4c0-15.9-13-28.9-28.9-28.9H54v108h48.4c15.9,0,28.9-13,28.9-28.9
			C131.3,121.1,123.8,110.7,113.2,106.4z M102.4,154.5H61.7V61.7h34.6c11.7,0,21.3,9.6,21.3,21.3s-9.5,21.3-21.3,21.3h-7.8v7.6h7.8
			h6.2c11.7,0,21.3,9.6,21.3,21.3S114.2,154.5,102.4,154.5z"/>
		<rect x="380.6" y="55.2" width="7.6" height="105.9"/>
		<path d="M508.1,139.5c-7.9,9.6-19.2,15.1-30.9,15.1c-23.1,0-42-20.8-42-46.5s18.8-46.5,42-46.5c11.7,0,23,5.5,30.9,15.1l5.9-4.9
			C504.6,60.5,491.2,54,477.2,54c-27.3,0-49.6,24.3-49.6,54.1s22.2,54.1,49.6,54.1c14,0,27.4-6.5,36.8-17.8L508.1,139.5z"/>
		<path d="M290.1,72.6c4.5-6.8,12.1-10.8,20.3-10.8c9.6,0,18.7,4.7,24.2,12.6l1.7,2.3l6.2-4.4l-1.7-2.3c-7-9.9-18.4-15.8-30.4-15.8
			c-10.7,0-20.7,5.3-26.7,14.3c-0.4,0.6-0.7,1.1-1,1.6c-6.4,11.3-3,25.8,7.9,33.1c1.3,0.8,2.5,1.5,3.7,2.1l29,12.9
			c0.9,0.4,1.8,0.9,2.6,1.5c7.5,5,9.9,15.2,5.4,23.1c-0.2,0.4-0.5,0.8-0.7,1.1c-4.5,6.8-12.1,10.8-20.3,10.8
			c-9.6,0-18.7-4.7-24.2-12.6l-1.7-2.3l-6.2,4.4l1.7,2.3c7,9.9,18.4,15.8,30.4,15.8c10.7,0,20.7-5.3,26.7-14.3
			c0.4-0.6,0.7-1.1,1-1.6c6.4-11.3,3-25.8-7.9-33.1c-1.3-0.8-2.5-1.5-3.7-2.1l-29-12.9c-0.9-0.4-1.8-0.9-2.6-1.5
			c-7.5-5-9.9-15.2-5.4-23.1C289.7,73.3,289.9,72.9,290.1,72.6z"/>
		<rect x="193.7" y="115.9" width="24.4" height="7.6"/>
	</g>
	<path d="M171.7,161.1L204,63c0.4-1.2,1.4-1.4,1.9-1.4s1.5,0.1,1.9,1.4l32.3,98.1h8L214.9,60.6c-1.3-4-4.9-6.6-9.1-6.6h0
		c-4.2,0-7.8,2.6-9.1,6.6l-33.1,100.4H171.7z"/>
	<rect class="st0" width="562.2" height="317.4"/>
</g>
</svg>
