<?xml version="1.0" encoding="UTF-8"?>
<svg width="207px" height="96px" viewBox="0 0 207 96" version="1.1" xmlns="http://www.w3.org/2000/svg" xmlns:xlink="http://www.w3.org/1999/xlink">
    <title>logo-ademe@2x</title>
    <g id="home-2021" stroke="none" stroke-width="1" fill="none" fill-rule="evenodd">
        <g id="accueil-schema-outil-calcul-copy" transform="translate(-783.000000, -4194.000000)" fill-rule="nonzero">
            <g id="logo-ademe" transform="translate(783.000000, 4194.000000)">
                <path d="M15.98,15.015 L15.98,15.015 C16,15.005 16.01,14.995 16.02,14.985 C16.02,14.985 16.02,14.985 16.02,14.985 C16,14.995 15.99,15.005 15.98,15.015" id="XMLID_217_" fill="#0D327A"></path>
                <path d="M22.005,12.995 C22.005,12.995 21.995,13.005 21.995,13.005 C22.005,13.005 22.005,13.005 22.005,12.995" id="XMLID_216_" fill="#0D327A"></path>
                <path d="M14.7370892,12.4805726 C14.7026604,12.4458078 14.8403756,12.4805726 14.8748044,12.4110429 L14.6338028,12.4110429 C14.599374,12.4110429 14.599374,12.3762781 14.599374,12.3415133 C14.42723,12.3762781 14.2550861,12.4458078 14.0829421,12.4805726 C13.8763693,12.5501022 13.6697966,12.6891616 13.428795,12.7586912 C13.084507,12.8977505 12.7746479,13.1758691 12.3959311,13.3149284 C12.3615023,13.3149284 12.3615023,13.2801636 12.3615023,13.2453988 C12.3959311,13.1411043 12.5336463,13.1063395 12.5680751,13.0368098 C12.5680751,13.002045 12.5680751,12.9672802 12.5336463,12.9672802 C12.7746479,12.6196319 13.1533646,12.4110429 13.4632238,12.1329243 L13.4632238,12.0286299 C13.5665102,11.8895706 13.7386541,11.8200409 13.7730829,11.6809816 C13.8075117,11.5766871 13.9452269,11.4723926 14.0829421,11.402863 C14.0485133,11.3680982 13.9796557,11.3680982 13.9796557,11.2985685 C13.8419405,11.2985685 13.7386541,11.3680982 13.600939,11.2638037 C13.6697966,11.194274 13.7386541,11.1595092 13.8075117,11.1595092 C13.7730829,11.1595092 13.7730829,11.1247444 13.7386541,11.1247444 C13.7042254,11.0552147 13.8075117,10.9856851 13.9107981,10.9509202 C14.0485133,10.9161554 14.1862285,10.9161554 14.2895149,10.8118609 C14.0829421,10.7770961 13.8075117,10.8813906 13.600939,10.7423313 C13.7730829,10.3251534 14.0140845,9.97750511 14.3928013,9.76891616 C14.42723,9.76891616 14.4960876,9.76891616 14.4960876,9.80368098 C14.4960876,9.97750511 14.3928013,10.0817996 14.2550861,10.1165644 C14.4960876,10.1860941 14.771518,10.1860941 15.0125196,10.3251534 C14.9780908,10.394683 14.9092332,10.3599182 14.8748044,10.3599182 C15.0469484,10.4642127 15.2190923,10.394683 15.3912363,10.5337423 C15.2879499,10.6380368 15.1846635,10.5337423 15.1158059,10.5337423 C16.114241,10.8118609 17.1471049,11.0552147 17.9733959,11.6809816 C17.28482,12.0286299 16.5618153,12.202454 15.7699531,12.3415133 C15.6666667,12.3415133 15.5978091,12.3415133 15.5289515,12.3067485 C15.5289515,12.3415133 15.5289515,12.4110429 15.4945227,12.4110429 C15.3568075,12.4110429 15.2879499,12.4110429 15.1846635,12.4805726 C15.0125196,12.5501022 14.8403756,12.5848671 14.7370892,12.4805726 M14.0829421,14.7402863 L14.0829421,14.7402863 C13.9452269,14.8445808 13.8419405,14.9141104 13.7042254,14.9836401 C13.5665102,15.0531697 13.428795,15.1226994 13.2910798,15.192229 C13.2910798,15.192229 13.2910798,15.192229 13.2910798,15.192229 C13.2910798,15.192229 13.256651,15.1574642 13.256651,15.192229 C13.1189358,15.2617587 13.0156495,15.3312883 12.9467919,15.4355828 C12.9123631,15.4355828 12.9123631,15.4703476 12.9123631,15.4703476 L12.9123631,15.4703476 L12.9123631,15.4703476 C12.9123631,15.4703476 12.8779343,15.5051125 12.8779343,15.5051125 L12.8779343,15.5051125 C12.8779343,15.5051125 12.8779343,15.5051125 12.8779343,15.5051125 C12.8435055,15.5398773 12.8435055,15.5398773 12.8090767,15.5746421 C12.7746479,15.609407 12.7746479,15.609407 12.7746479,15.609407 C12.7402191,15.609407 12.7057903,15.609407 12.7057903,15.5746421 L12.7057903,15.5746421 C12.6713615,15.5746421 12.6713615,15.609407 12.6369327,15.609407 C12.6025039,15.609407 12.6025039,15.609407 12.6025039,15.6441718 C12.6025039,15.6441718 12.6025039,15.6441718 12.5680751,15.6441718 C12.5336463,15.6441718 12.5336463,15.6441718 12.5336463,15.6441718 C12.4992175,15.6789366 12.4647887,15.7137014 12.4303599,15.7484663 C12.3615023,15.8179959 12.2926448,15.8875256 12.258216,15.9570552 L12.258216,15.9570552 C12.258216,15.9570552 12.258216,15.9570552 12.258216,15.9570552 C12.258216,15.9570552 12.258216,15.9570552 12.258216,15.9570552 L12.258216,15.9570552 C12.258216,15.9570552 12.258216,15.9570552 12.258216,15.9570552 C12.258216,15.9570552 12.258216,15.99182 12.2237872,15.99182 C12.2237872,15.99182 12.2237872,15.99182 12.2237872,15.99182 C12.2237872,15.99182 12.2237872,15.99182 12.1893584,15.99182 C12.1893584,15.99182 12.1893584,15.99182 12.1893584,15.9570552 C12.1893584,15.9570552 12.1893584,15.9570552 12.1893584,15.9222904 C12.1893584,15.9222904 12.1893584,15.8875256 12.1549296,15.8875256 C12.1549296,15.8875256 12.1549296,15.8875256 12.1549296,15.8875256 C12.1893584,15.8527607 12.2237872,15.8179959 12.258216,15.7832311 C12.258216,15.7832311 12.258216,15.7832311 12.258216,15.7832311 L12.2926448,15.7484663 C12.3270736,15.7137014 12.3270736,15.7137014 12.3270736,15.6789366 C12.3270736,15.6789366 12.3270736,15.6789366 12.3615023,15.6441718 C12.3959311,15.609407 12.4303599,15.5398773 12.4647887,15.5051125 C12.4647887,15.5051125 12.4647887,15.5051125 12.4647887,15.5051125 L12.4647887,15.4703476 C12.4647887,15.4355828 12.4992175,15.4355828 12.4992175,15.400818 C12.4992175,15.3660532 12.5336463,15.3660532 12.5336463,15.3312883 C12.5336463,15.3312883 12.5336463,15.3312883 12.5336463,15.3312883 C12.5336463,15.3312883 12.5336463,15.3312883 12.5336463,15.3312883 C12.5336463,15.3312883 12.5336463,15.3312883 12.5336463,15.3312883 C12.5336463,15.2965235 12.5680751,15.2965235 12.5680751,15.2617587 C12.5680751,15.2617587 12.5680751,15.2617587 12.5680751,15.2617587 C12.5680751,15.2617587 12.5680751,15.2617587 12.5680751,15.2269939 C12.5680751,15.2269939 12.5680751,15.192229 12.5680751,15.192229 C12.5680751,15.192229 12.5680751,15.192229 12.5680751,15.192229 C12.5680751,15.192229 12.5680751,15.1574642 12.5680751,15.1574642 C12.5680751,15.1574642 12.5680751,15.1574642 12.5680751,15.1226994 C12.6025039,15.0531697 12.6369327,15.0184049 12.7057903,14.9488753 L12.7057903,14.9488753 C12.6713615,14.9836401 12.6369327,15.0184049 12.6025039,15.0531697 C12.5680751,15.0879346 12.4992175,15.0531697 12.5336463,15.0184049 C12.5680751,14.9836401 12.5680751,14.9836401 12.6025039,14.9488753 L12.6025039,14.9488753 C12.6369327,14.8793456 12.7057903,14.8445808 12.7746479,14.7750511 C12.8090767,14.7402863 12.8435055,14.7402863 12.8779343,14.7055215 C12.8779343,14.7055215 12.8779343,14.7055215 12.8779343,14.7055215 C12.9123631,14.6707566 12.9123631,14.6359918 12.9467919,14.6359918 C12.9467919,14.6359918 12.9467919,14.6359918 12.9467919,14.6359918 C13.256651,14.3578732 13.7730829,14.3578732 14.1862285,14.1492843 C14.3583725,14.0797546 14.5305164,14.1840491 14.7026604,14.1492843 C14.8059468,14.1492843 14.9092332,14.1492843 14.9780908,14.2188139 C14.599374,14.392638 14.3239437,14.5664622 14.0829421,14.7402863 M14.6682316,14.9836401 C14.6682316,15.0184049 14.6338028,15.0531697 14.599374,15.0879346 C14.6338028,15.0879346 14.6682316,15.1226994 14.6338028,15.1226994 C14.5649452,15.192229 14.4960876,15.2617587 14.3928013,15.2965235 C14.3928013,15.2965235 14.3583725,15.2965235 14.3583725,15.2965235 C14.3239437,15.3312883 14.2895149,15.3660532 14.2206573,15.400818 C14.1862285,15.4355828 14.0140845,15.400818 14.0485133,15.3660532 C14.1173709,15.2965235 14.1862285,15.2269939 14.2895149,15.1574642 C14.3239437,15.1226994 14.3928013,15.0879346 14.42723,15.0184049 C14.4616588,14.9836401 14.4616588,14.9488753 14.4960876,14.9488753 C14.4960876,14.9488753 14.6682316,14.9488753 14.6682316,14.9836401 M13.1877934,10.1860941 C13.1533646,10.2556237 13.1189358,10.2556237 13.084507,10.3251534 C13.0500782,10.394683 13.0156495,10.4294479 12.9467919,10.4642127 C12.9123631,10.4642127 12.8779343,10.4642127 12.8779343,10.4294479 C12.9123631,10.2903885 13.0156495,10.1860941 13.1189358,10.1513292 C13.1877934,10.1165644 13.1877934,10.1513292 13.1877934,10.1860941 M10.5367762,12.3067485 C10.5367762,12.3067485 10.5023474,12.2719836 10.5023474,12.2372188 C10.915493,11.6809816 11.2253521,11.1595092 11.5352113,10.603272 C11.9483568,10.394683 12.2926448,10.0470348 12.6025039,9.6993865 C13.1533646,9.10838446 13.7042254,8.62167689 14.3928013,8.27402863 C14.6338028,8.16973415 14.9780908,8.20449898 15.2190923,8.30879346 C15.1158059,8.44785276 14.9780908,8.41308793 14.8403756,8.51738241 C14.8059468,8.51738241 14.771518,8.51738241 14.7370892,8.48261759 C14.771518,8.44785276 14.771518,8.41308793 14.771518,8.37832311 C14.4616588,8.72597137 14.0140845,8.8997955 13.7386541,9.31697342 C13.5320814,9.62985685 13.428795,10.0470348 13.0156495,10.1513292 C12.8779343,10.1860941 13.0500782,10.0470348 12.9812207,10.0817996 C11.9827856,10.7075665 11.2942097,11.4376278 10.5367762,12.3067485 M15.3912363,13.002045 C15.3223787,13.002045 15.1846635,13.0368098 15.2190923,12.9672802 C15.2535211,12.793456 15.4600939,12.793456 15.5978091,12.7586912 C15.6666667,12.7239264 15.7699531,12.6543967 15.8043818,12.6891616 C15.8732394,12.793456 15.9765258,12.7586912 16.0109546,12.8282209 C15.8732394,13.002045 15.6322379,12.8977505 15.3912363,13.002045 M20.314554,15.2965235 C20.486698,15.1226994 20.6932707,14.9141104 20.8654147,14.7402863 L20.8654147,14.7402863 C21.2097027,14.3578732 21.5195618,13.9754601 21.9327074,13.6625767 C22.0704225,13.5582822 22.1737089,13.4539877 22.2769953,13.3844581 C22.3114241,13.3496933 22.3114241,13.2801636 22.3458529,13.2453988 C22.1737089,13.3149284 22.1048513,13.4539877 21.9327074,13.4887526 C21.8982786,13.4887526 21.8638498,13.4539877 21.8982786,13.4192229 C22.0015649,13.3496933 22.1392801,13.2453988 22.2425665,13.1758691 C22.2425665,13.1758691 22.2425665,13.1758691 22.2081377,13.1758691 C22.1737089,13.1758691 22.1737089,13.1411043 22.1737089,13.1063395 C21.7605634,13.0368098 21.4507042,13.3149284 21.1408451,13.593047 C21.0719875,13.6278119 21.0031299,13.5582822 20.9687011,13.5582822 C20.486698,13.7321063 20.14241,14.1492843 19.6604069,14.3231084 L19.6604069,14.2535787 C19.4538341,14.3231084 19.2816901,14.4274029 19.0751174,14.4621677 C18.799687,14.5316973 18.5242567,14.4969325 18.2832551,14.4969325 C17.9045383,14.5316973 17.5258216,14.6359918 17.1126761,14.7055215 C17.1126761,14.7055215 17.0782473,14.7055215 17.0782473,14.7055215 C16.8716745,14.7750511 16.6651017,14.8445808 16.4929577,14.9488753 L16.458529,14.9488753 C16.4241002,14.9836401 16.4241002,14.9836401 16.4241002,15.0184049 C16.3552426,15.0879346 16.286385,15.1574642 16.2175274,15.2269939 C16.0109546,15.3312883 15.8732394,15.5051125 15.7010955,15.6441718 C15.7010955,15.6441718 15.6666667,15.6441718 15.6666667,15.6441718 C15.4945227,15.8179959 15.3223787,15.99182 15.1502347,16.1308793 C15.1502347,16.1308793 15.0813772,16.1656442 15.0469484,16.1308793 C15.0469484,16.1308793 15.0469484,16.0961145 15.0813772,16.0961145 C15.1158059,16.0613497 15.1158059,15.99182 15.1502347,15.9570552 C15.1846635,15.9222904 15.2190923,15.8527607 15.2535211,15.8179959 C15.2879499,15.7484663 15.3568075,15.6789366 15.3912363,15.609407 C15.3912363,15.609407 15.3912363,15.5746421 15.3912363,15.5746421 C15.3912363,15.5746421 15.3568075,15.5746421 15.3568075,15.5746421 C15.5289515,15.4355828 15.7010955,15.2965235 15.8732394,15.1574642 L15.8732394,15.1574642 C15.8388106,15.1574642 15.8388106,15.1574642 15.8388106,15.1226994 C15.8732394,15.0879346 15.8732394,15.0531697 15.8732394,15.0531697 C15.8732394,15.0531697 15.8732394,15.0184049 15.8732394,15.0184049 C15.8732394,15.0184049 15.8732394,14.9836401 15.8388106,14.9836401 C15.8043818,15.0184049 15.7355243,15.0531697 15.7010955,15.0879346 C15.6322379,15.1574642 15.5633803,15.2965235 15.4600939,15.2965235 C15.4600939,15.2965235 15.4256651,15.2965235 15.4256651,15.2965235 C15.4256651,15.2965235 15.3912363,15.2965235 15.3912363,15.2965235 C15.3912363,15.2965235 15.3912363,15.2965235 15.3912363,15.2965235 C15.3912363,15.2965235 15.3912363,15.2965235 15.3912363,15.2965235 C15.3912363,15.2965235 15.3912363,15.2965235 15.3912363,15.2965235 C15.3912363,15.2965235 15.3912363,15.2617587 15.4256651,15.2617587 C15.4256651,15.2617587 15.4256651,15.2269939 15.4256651,15.2269939 C15.4256651,15.2269939 15.4256651,15.2269939 15.4256651,15.192229 C15.4256651,15.192229 15.4256651,15.1574642 15.4600939,15.1574642 C15.4600939,15.1574642 15.4600939,15.1226994 15.4945227,15.1226994 C15.4945227,15.0879346 15.5289515,15.0879346 15.5289515,15.0531697 C15.5289515,15.0531697 15.5289515,15.0184049 15.5633803,15.0184049 C15.5633803,14.9836401 15.5978091,14.9836401 15.5978091,14.9488753 C15.5978091,14.9141104 15.5978091,14.9141104 15.5633803,14.8793456 C15.6322379,14.809816 15.7010955,14.7402863 15.7699531,14.6707566 L15.7699531,14.6707566 C15.9076682,14.601227 16.0109546,14.5316973 16.1486698,14.4621677 C16.1486698,14.4621677 16.1830986,14.4274029 16.1830986,14.4274029 C16.0109546,14.4969325 15.8388106,14.5664622 15.6666667,14.6707566 C15.6666667,14.6707566 15.6322379,14.6707566 15.5978091,14.7055215 C15.5978091,14.7055215 15.5633803,14.7055215 15.5289515,14.6707566 C15.5289515,14.6707566 15.5289515,14.6707566 15.5289515,14.6359918 C15.5633803,14.5664622 15.6666667,14.5316973 15.7355243,14.4621677 C15.7699531,14.4621677 15.8043818,14.4621677 15.8043818,14.4969325 C16.8372457,13.6973415 18.2143975,13.8711656 19.3849765,13.4539877 L19.6604069,13.2453988 C19.8325509,13.1758691 19.9358372,13.0368098 20.14241,12.9325153 C20.3834116,12.7239264 20.5899844,12.5153374 20.6932707,12.202454 C20.6932707,12.1676892 20.6588419,12.1329243 20.6588419,12.1329243 C20.2456964,12.5848671 19.7636933,12.9325153 19.2472613,13.1758691 C18.5931142,13.5235174 17.8356808,13.4539877 17.1471049,13.5582822 C17.1815336,13.4887526 17.2503912,13.4887526 17.3192488,13.4887526 C17.3192488,13.3844581 17.3881064,13.3496933 17.456964,13.2801636 L17.5602504,13.2801636 C17.5946792,13.2801636 17.5946792,13.2106339 17.629108,13.2106339 C17.6979656,13.2106339 17.801252,13.1758691 17.7668232,13.1758691 C17.6635368,13.0368098 17.4913928,13.2801636 17.3192488,13.1758691 C17.3881064,13.1063395 17.3536776,13.002045 17.4225352,12.9672802 L17.5602504,12.9672802 C17.5602504,12.8977505 17.629108,12.8282209 17.629108,12.8282209 C18.1111111,12.5501022 18.5586854,12.3067485 19.0062598,12.0633947 C18.9029734,12.0633947 18.8341158,12.1676892 18.7308294,12.0981595 C18.799687,12.0981595 18.7308294,11.993865 18.799687,11.993865 C19.143975,11.8895706 19.4194053,11.7157464 19.7981221,11.5766871 C19.6604069,11.5766871 19.5915493,11.6809816 19.4538341,11.5766871 C19.5226917,11.5419223 19.5571205,11.4723926 19.6604069,11.4723926 L19.6604069,11.3680982 C19.6604069,11.3333333 19.6948357,11.3333333 19.7292645,11.3333333 C19.6948357,11.3333333 19.6604069,11.2985685 19.6604069,11.2985685 C19.6948357,11.2290389 19.7981221,11.2638037 19.8669797,11.194274 C19.8325509,11.194274 19.7636933,11.194274 19.7636933,11.1595092 C19.8669797,11.0204499 20.0046948,10.9856851 20.1768388,10.9509202 C20.14241,10.8813906 20.0391236,10.9509202 20.0391236,10.8813906 C20.0391236,10.8466258 20.0735524,10.8466258 20.1079812,10.8466258 L20.0391236,10.8466258 C19.970266,10.8118609 20.0046948,10.7423313 20.0046948,10.7075665 C20.2112676,10.4989775 20.2112676,10.1860941 20.2801252,9.94274029 C20.2456964,9.94274029 20.2112676,9.94274029 20.2112676,9.90797546 C19.9014085,10.2556237 19.3849765,10.394683 18.9029734,10.5337423 L18.7308294,10.5337423 C18.5586854,10.603272 18.3521127,10.603272 18.1799687,10.4989775 C18.0422535,10.4294479 17.9733959,10.3251534 17.8701095,10.2556237 C17.629108,10.0817996 17.3536776,9.97750511 17.0782473,9.87321063 C16.286385,9.62985685 15.4600939,9.49079755 14.6338028,9.52556237 C14.9780908,9.31697342 15.3568075,9.31697342 15.7355243,9.21267894 C16.286385,9.03885481 16.8028169,8.86503067 17.3536776,8.8997955 C17.2503912,8.86503067 17.1471049,8.8997955 17.0438185,8.8997955 C16.5962441,8.86503067 16.1486698,9.00408998 15.6666667,9.10838446 C15.3568075,9.17791411 15.0469484,9.31697342 14.7370892,9.35173824 C14.5305164,9.42126789 14.4616588,9.59509202 14.2206573,9.5603272 L14.2206573,9.45603272 C14.5305164,9.07361963 14.9092332,8.69120654 15.4256651,8.65644172 C16.0109546,8.55214724 16.5273865,8.65644172 17.1126761,8.72597137 C17.5258216,8.7607362 17.9045383,8.86503067 18.3176839,8.93456033 C18.4898279,8.93456033 18.5242567,9.17791411 18.627543,9.21267894 C18.8341158,9.28220859 19.0062598,9.21267894 19.2128326,9.35173824 C19.2128326,9.28220859 19.1784038,9.21267894 19.2128326,9.14314928 C19.3505477,9.00408998 19.4882629,9.17791411 19.6259781,9.10838446 C19.8669797,8.93456033 19.4194053,8.65644172 19.2816901,8.44785276 C19.2816901,8.41308793 19.3161189,8.37832311 19.3161189,8.37832311 C19.5571205,8.58691207 19.7636933,8.86503067 20.0735524,9.00408998 C20.2456964,9.07361963 20.6244131,9.17791411 20.5555556,8.96932515 C20.3834116,8.62167689 20.0735524,8.30879346 19.8325509,7.99591002 L19.8325509,7.85685072 C19.7636933,7.85685072 19.7636933,7.82208589 19.7292645,7.78732106 L19.7292645,7.64826176 C19.5915493,7.57873211 19.6259781,7.4396728 19.5571205,7.37014315 C19.4538341,7.19631902 19.5226917,6.98773006 19.4538341,6.7791411 C19.3849765,6.57055215 19.3505477,6.43149284 19.3161189,6.22290389 C19.2128326,5.66666667 19.1095462,5.1799591 19.0406886,4.69325153 C18.971831,4.06748466 19.3849765,3.61554192 19.6604069,3.0593047 C19.8669797,2.67689162 20.14241,2.29447853 20.5555556,2.01635992 C20.6588419,1.63394683 20.8998435,1.32106339 21.1752739,0.973415133 C21.4162754,0.660531697 21.8638498,0.486707566 22.1392801,0.312883436 C22.5868545,0.104294479 23,0 23,0 L1,0 L1,17 L16.6306729,17 C17.2503912,16.5480573 17.8356808,16.3394683 18.6964006,15.9222904 C19.0751174,16.0613497 20.0046948,15.609407 20.314554,15.2965235" id="XMLID_208_" fill="#0D327A"></path>
                <path d="M47,0 L29.2507227,0 C29.2507227,0 29.2844666,0 29.4194421,0.0693877551 C29.5544176,0.13877551 29.7568808,0.242857143 29.8581124,0.312244898 C30.0943196,0.451020408 30.2967828,0.589795918 30.4655022,0.832653061 C30.5329899,0.936734694 30.6342215,1.11020408 30.5667338,1.24897959 C30.499246,1.42244898 30.4655022,1.66530612 30.3305267,1.73469388 C30.1280634,1.83877551 29.8918563,1.83877551 29.6893931,1.80408163 C29.5544176,1.80408163 29.453186,1.76938776 29.3182105,1.73469388 C29.7906247,1.94285714 30.229295,2.15102041 30.5329899,2.60204082 C30.5667338,2.67142857 30.7017093,2.70612245 30.8029409,2.70612245 C30.8366848,2.70612245 30.8366848,2.7755102 30.8366848,2.81020408 C30.769197,2.87959184 30.7017093,2.91428571 30.7354531,3.01836735 L30.8366848,3.01836735 C31.0054041,2.94897959 30.9716603,2.63673469 31.1741235,2.74081633 C31.3428429,2.84489796 31.3765867,3.05306122 31.309099,3.22653061 C31.1741235,3.36530612 31.0728919,3.43469388 30.9379164,3.53877551 C30.9041725,3.60816327 30.9041725,3.7122449 30.9379164,3.74693878 C31.039148,3.88571429 31.0728919,3.98979592 31.1066357,4.12857143 C31.2078674,4.33673469 31.2416112,4.61428571 31.309099,4.82244898 C31.4440745,5.30816327 31.5453061,5.79387755 31.5115622,6.24489796 C31.5115622,6.4877551 31.3765867,6.73061224 31.4778184,6.97346939 C31.5453061,7.21632653 31.6802816,7.4244898 31.8152571,7.63265306 C31.9502326,7.84081633 32.0514642,7.94489796 32.1526958,8.15306122 C32.3551591,8.46530612 32.6925978,8.8122449 32.5238784,9.19387755 C32.4226468,9.40204082 32.0852081,9.40204082 31.8827448,9.50612245 C31.6802816,9.67959184 31.849001,9.92244898 31.9502326,10.0959184 C32.1189519,10.3734694 31.7477693,10.5816327 31.5453061,10.6857143 C31.6127938,10.7897959 31.7477693,10.755102 31.7815132,10.8244898 C31.8152571,10.9979592 31.9839764,11.0673469 31.8827448,11.2408163 C31.7477693,11.4489796 31.3765867,11.5183673 31.57905,11.8306122 C31.7140255,12.0387755 31.6127938,12.3163265 31.5453061,12.5244898 C31.4440745,12.8020408 31.2078674,12.9408163 30.9716603,13.0102041 C30.769197,13.0795918 30.5667338,13.0795918 30.3642705,13.044898 C30.2967828,13.0102041 30.229295,12.9755102 30.1618073,12.9755102 C29.6219053,12.9061224 29.1157472,12.7673469 28.5758453,12.7673469 C28.4071259,12.8020408 28.2721504,12.8367347 28.1371749,12.9061224 C28.0021994,13.0102041 27.8672239,13.1142857 27.7659923,13.2530612 C27.7659923,13.2530612 27.7659923,13.2530612 27.7659923,13.2530612 C27.7322484,13.2877551 27.7322484,13.2877551 27.6985046,13.322449 L27.6647607,13.3571429 L27.6310168,13.3918367 C27.5297852,13.4959184 27.4622974,13.6346939 27.3948097,13.7734694 C27.3948097,13.7734694 27.3948097,13.8081633 27.3948097,13.8081633 C27.3948097,13.8081633 27.3948097,13.8428571 27.3610658,13.8428571 C27.2598342,14.0510204 27.1923465,14.2244898 27.1248587,14.4326531 C26.9223955,15.1612245 26.9898832,15.7857143 27.1586026,15.9591837 C27.1923465,15.9938776 28.1709188,16.3061224 28.8795401,16.6183673 C29.2169788,16.7571429 29.4194421,16.8959184 29.6219053,17 L47,17 L47,0 Z" id="XMLID_207_" fill="#E60012"></path>
                <path d="M30.1896843,6.35608782 C30.3218714,6.39221776 30.4871053,6.39221776 30.4871053,6.46447763 C30.4210118,6.7173872 30.0574971,6.78964708 29.8592164,7.07868658 L29.7600761,7.07868658 C29.6609357,7.15094646 29.6939825,7.29546621 29.5948421,7.29546621 C29.4957018,7.25933627 29.3965614,7.29546621 29.3304679,7.33159615 C29.462655,7.4761159 29.5948421,7.54837577 29.7931228,7.54837577 C29.8261696,7.54837577 29.8922632,7.62063565 29.8922632,7.69289553 C29.8922632,7.69289553 29.92531,7.69289553 29.9583568,7.65676559 C29.9914036,7.65676559 30.0244503,7.65676559 30.0244503,7.69289553 L30.0244503,7.83741528 C29.92531,7.98193503 29.7931228,7.90967515 29.6609357,7.94580509 C29.8922632,8.01806497 30.1566375,8.01806497 30.3549182,7.94580509 C30.5531989,7.87354522 30.3549182,7.54837577 30.4871053,7.36772608 C30.4210118,7.36772608 30.4871053,7.25933627 30.4210118,7.25933627 C30.4871053,7.18707639 30.5531989,7.07868658 30.6192925,7.04255664 C30.685386,7.04255664 30.7845264,7.0064267 30.8175732,6.93416683 C30.8175732,6.86190695 30.685386,6.82577701 30.7184328,6.75351714 C30.9167135,6.60899739 31.0489007,6.4283477 30.9828071,6.21156807 C30.9497603,6.10317825 30.7184328,6.10317825 30.5531989,6.03091838 C30.387965,5.9586585 30.222731,6.03091838 30.0244503,6.06704832 C29.8592164,6.06704832 29.7270293,6.17543813 29.5617953,6.21156807 C29.3635146,6.28382794 29.1652339,6.4283477 29,6.53673751 C29.1982807,6.4283477 29.4296082,6.39221776 29.6609357,6.31995788 C29.8592164,6.35608782 29.9914036,6.31995788 30.1896843,6.35608782" id="XMLID_206_" fill="#9FA0A0"></path>
                <path d="M3.17643332,27.7056075 L3.17643332,30.8523364 L4.62654419,30.8523364 C5.69686411,30.8523364 6.35286665,30.264486 6.35286665,29.2616822 C6.35286665,28.2934579 5.73139056,27.7056075 4.62654419,27.7056075 L3.17643332,27.7056075 Z M0.621476085,25.4925234 L4.48843839,25.4925234 C7.25055432,25.4925234 8.97687678,26.9102804 8.97687678,29.2616822 C8.97687678,30.7831776 8.25182135,31.9242991 6.97434273,32.5121495 L10.9448844,38.1140187 L7.87203041,38.1140187 L4.52296484,32.9962617 L3.21095977,32.9962617 L3.21095977,38.1140187 L0.656002534,38.1140187 L0.656002534,25.4925234 L0.621476085,25.4925234 Z M15.0190054,24.4205607 L17.0560659,22 L19.680076,22 L17.3322775,24.4205607 L15.0190054,24.4205607 Z M12.533101,25.4925234 L19.8872347,25.4925234 L19.8872347,27.671028 L15.0880583,27.671028 L15.0880583,30.6102804 L19.1621793,30.6102804 L19.1621793,32.788785 L15.0880583,32.788785 L15.0880583,35.935514 L19.8872347,35.935514 L19.8872347,38.1140187 L12.533101,38.1140187 L12.533101,25.4925234 Z M25.445993,27.7056075 L25.445993,30.8523364 L27.137789,30.8523364 C28.208109,30.8523364 28.8641115,30.264486 28.8641115,29.2616822 C28.8641115,28.2934579 28.208109,27.7056075 27.137789,27.7056075 L25.445993,27.7056075 Z M22.8565093,25.4925234 L27.0342097,25.4925234 C29.7963256,25.4925234 31.4881216,26.9102804 31.4881216,29.2616822 C31.4881216,31.5785047 29.7963256,33.0308411 27.0342097,33.0308411 L25.445993,33.0308411 L25.445993,38.1485981 L22.8910358,38.1485981 L22.8910358,25.4925234 L22.8565093,25.4925234 Z M41.0864745,25.4925234 L43.6414317,25.4925234 L43.6414317,33.1691589 C43.6414317,36.488785 41.7079506,38.4598131 38.5315173,38.4598131 C35.3896104,38.4598131 33.4216028,36.488785 33.4216028,33.1691589 L33.4216028,25.4925234 L35.97656,25.4925234 L35.97656,33.3766355 C35.97656,35.071028 36.9433006,36.0738318 38.5315173,36.0738318 C40.0852075,36.0738318 41.0864745,35.071028 41.0864745,33.3766355 L41.0864745,25.4925234 Z M49.3728223,32.6504673 L49.3728223,35.935514 L50.8229332,35.935514 C51.9968324,35.935514 52.7218879,35.3130841 52.7218879,34.2411215 C52.7218879,33.2037383 51.9968324,32.6158879 50.8229332,32.6158879 L49.3728223,32.6158879 L49.3728223,32.6504673 Z M49.3728223,27.7056075 L49.3728223,30.4719626 L50.4431422,30.4719626 C51.4098828,30.4719626 51.962306,29.9878505 51.962306,29.088785 C51.962306,28.2588785 51.4098828,27.7056075 50.4431422,27.7056075 L49.3728223,27.7056075 Z M46.8178651,25.4925234 L50.4086158,25.4925234 C53.0326259,25.4925234 54.6208426,26.8065421 54.6208426,28.9158879 C54.6208426,29.9186916 54.1374723,30.817757 53.2743111,31.4056075 C54.6208426,31.9934579 55.345898,33.1 55.345898,34.4140187 C55.345898,36.7308411 53.5505226,38.1140187 50.6503009,38.1140187 L46.8178651,38.1140187 L46.8178651,25.4925234 Z M57.9699081,25.4925234 L60.5248654,25.4925234 L60.5248654,35.7971963 L65.3240418,35.7971963 L65.3240418,38.1140187 L57.9699081,38.1140187 L57.9699081,25.4925234 Z M67.6027875,25.4925234 L70.1577447,25.4925234 L70.1577447,38.1140187 L67.6027875,38.1140187 L67.6027875,25.4925234 Z M83.3813747,31.8205607 C83.3813747,29.4 81.6895787,27.5327103 79.3417802,27.5327103 C76.9594552,27.5327103 75.2676592,29.4 75.2676592,31.8205607 C75.2676592,34.2411215 76.9594552,36.1084112 79.3417802,36.1084112 C81.6895787,36.1084112 83.3813747,34.2411215 83.3813747,31.8205607 M86.9030725,39.0130841 C87.1792841,39.0130841 87.5245486,38.9785047 87.8007602,38.8747664 L87.8007602,41.053271 C87.3864428,41.2261682 87.0411783,41.2953271 86.4542287,41.2953271 C85.0386443,41.2953271 83.7611657,40.7074766 82.5182135,39.635514 L81.0335762,38.2869159 C80.481153,38.4252336 79.9287298,38.4943925 79.3072537,38.4943925 C75.3367121,38.4943925 72.6091226,35.4168224 72.6091226,31.8205607 C72.6091226,28.2242991 75.3367121,25.146729 79.3072537,25.146729 C83.2777954,25.146729 86.0053849,28.2242991 86.0053849,31.8205607 C86.0053849,33.9299065 85.0731707,35.8663551 83.5194805,37.0766355 L84.2790624,37.8028037 C85.245803,38.7018692 86.1089642,39.0130841 86.9030725,39.0130841 M95.8799493,25.4925234 L98.4349066,25.4925234 L98.4349066,33.1691589 C98.4349066,36.488785 96.5014254,38.4598131 93.3249921,38.4598131 C90.1830852,38.4598131 88.2150776,36.488785 88.2150776,33.1691589 L88.2150776,25.4925234 L90.7700348,25.4925234 L90.7700348,33.3766355 C90.7700348,35.071028 91.7367754,36.0738318 93.3249921,36.0738318 C94.8786823,36.0738318 95.8799493,35.071028 95.8799493,33.3766355 L95.8799493,25.4925234 Z M101.645866,25.4925234 L109,25.4925234 L109,27.671028 L104.200824,27.671028 L104.200824,30.6102804 L108.274945,30.6102804 L108.274945,32.788785 L104.200824,32.788785 L104.200824,35.935514 L109,35.935514 L109,38.1140187 L101.645866,38.1140187 L101.645866,25.4925234 Z M0.621476085,43.7850467 L7.97560976,43.7850467 L7.97560976,45.9635514 L3.17643332,45.9635514 L3.17643332,48.9028037 L7.25055432,48.9028037 L7.25055432,51.0813084 L3.17643332,51.0813084 L3.17643332,56.4065421 L0.621476085,56.4065421 L0.621476085,43.7850467 L0.621476085,43.7850467 Z M12.8093126,45.9635514 L12.8093126,49.1102804 L14.2594235,49.1102804 C15.3297434,49.1102804 15.985746,48.5224299 15.985746,47.5196262 C15.985746,46.5514019 15.3642699,45.9635514 14.2594235,45.9635514 L12.8093126,45.9635514 Z M10.2543554,43.7850467 L14.1213177,43.7850467 C16.8834336,43.7850467 18.6097561,45.2028037 18.6097561,47.5542056 C18.6097561,49.0757009 17.8847007,50.2168224 16.607222,50.8046729 L20.5777637,56.4065421 L17.5049097,56.4065421 L14.1558442,51.288785 L12.8438391,51.288785 L12.8438391,56.4065421 L10.2888818,56.4065421 L10.2888818,43.7850467 L10.2543554,43.7850467 Z M29.2439024,50.9429907 L27.51758,46.2056075 L25.7912575,50.9429907 L29.2439024,50.9429907 Z M25.8603104,43.7850467 L29.209376,43.7850467 L33.974026,56.4065421 L31.2464365,56.4065421 L30.0380108,53.1214953 L24.9971492,53.1214953 L23.7887235,56.4065421 L21.061134,56.4065421 L25.8603104,43.7850467 Z M35.9420336,43.7850467 L39.2220462,43.7850467 L44.8498575,52.8102804 L44.8498575,43.7850467 L47.4048147,43.7850467 L47.4048147,56.4065421 L44.124802,56.4065421 L38.4969908,47.346729 L38.4969908,56.4065421 L35.9420336,56.4065421 L35.9420336,43.7850467 Z M59.8688628,52.6373832 L61.9059233,54.1934579 C60.9391828,55.5420561 59.420019,56.4757009 57.5901172,56.6831776 L56.036427,59.311215 L53.7576813,59.311215 L55.345898,56.6485981 C52.0658853,56.0607477 49.890719,53.2943925 49.890719,50.0785047 C49.890719,46.482243 52.6183085,43.4046729 56.5888502,43.4046729 C58.8675958,43.4046729 60.7665505,44.4420561 61.9059233,45.9635514 L59.8688628,47.5196262 C59.1438074,46.482243 58.0044346,45.7906542 56.5888502,45.7906542 C54.2065252,45.7906542 52.5147292,47.6579439 52.5147292,50.0785047 C52.5147292,52.4990654 54.2065252,54.3663551 56.5888502,54.3663551 C58.038961,54.3663551 59.1783339,53.6747664 59.8688628,52.6373832 M70.641115,50.9429907 L68.9147925,46.2056075 L67.1884701,50.9429907 L70.641115,50.9429907 Z M67.257523,43.7850467 L70.6065885,43.7850467 L75.3712385,56.4065421 L72.643649,56.4065421 L71.4352233,53.1214953 L66.3943617,53.1214953 L65.185936,56.4065421 L62.4583465,56.4065421 L67.257523,43.7850467 Z M77.3392461,43.7850467 L79.8942034,43.7850467 L79.8942034,56.4065421 L77.3392461,56.4065421 L77.3392461,43.7850467 Z M84.1754831,52.9485981 C84.9350649,53.9168224 85.936332,54.5046729 86.9721254,54.5046729 C87.9733925,54.5046729 88.5948685,53.9514019 88.5948685,53.0523364 C88.5948685,50.8046729 82.8289515,51.288785 82.8289515,47.1046729 C82.8289515,45.0990654 84.4516946,43.4392523 86.8685461,43.4392523 C88.7675008,43.4392523 90.2176117,44.3037383 91.2879316,45.5831776 L89.4235033,47.2775701 C88.6984479,46.3093458 87.8698131,45.7214953 86.9030725,45.7214953 C86.0053849,45.7214953 85.4529617,46.3093458 85.4529617,47.035514 C85.4529617,49.2831776 91.2188787,48.764486 91.2188787,53.0523364 C91.1843522,55.4037383 89.3544504,56.8214953 87.0411783,56.8214953 C84.9005385,56.8214953 83.4849541,56.0607477 82.3455812,54.7121495 L84.1754831,52.9485981 Z M93.8774153,43.7850467 L101.231549,43.7850467 L101.231549,45.9635514 L96.4323725,45.9635514 L96.4323725,48.9028037 L100.506494,48.9028037 L100.506494,51.0813084 L96.4323725,51.0813084 L96.4323725,54.2280374 L101.231549,54.2280374 L101.231549,56.4065421 L93.8774153,56.4065421 L93.8774153,43.7850467 Z M3.65980361,95.7925234 L3.76338296,95.5158879 C2.52043079,95.2738318 2.34779854,95.2738318 2.86569528,93.9252336 L3.38359202,92.5420561 L4.76464998,92.5420561 C5.38612607,92.5420561 5.38612607,92.7841121 5.28254672,93.4757009 L5.62781121,93.4757009 L6.45644599,91.2280374 L6.1111815,91.2280374 C5.80044346,91.746729 5.55875831,92.1616822 4.90275578,92.1616822 L3.55622426,92.1616822 L4.2812797,90.1906542 C4.48843839,89.5682243 4.62654419,89.4299065 5.48970542,89.4299065 L6.07665505,89.4299065 C6.93981628,89.4299065 7.04339563,89.6719626 7.04339563,90.5364486 L7.38866012,90.5364486 L7.66487171,89.0149533 L2.52043079,89.0149533 L2.41685144,89.2915888 C3.41811847,89.4990654 3.52169781,89.6028037 3.03832753,90.882243 L1.93348115,93.9598131 C1.45011086,95.2392523 1.27747862,95.3429907 0.138105797,95.5504673 L0.0690528983,95.8271028 L3.65980361,95.8271028 L3.65980361,95.7925234 Z M10.8067786,92.0579439 C10.9794108,91.435514 10.8758315,90.9168224 10.4269876,90.9168224 C9.87456446,90.9168224 9.73645866,91.3317757 9.18403548,92.5420561 L9.18403548,91.8504673 C9.18403548,91.3663551 9.01140323,90.9168224 8.56255939,90.9168224 C8.04466265,90.9168224 7.56129237,91.746729 7.21602787,92.5420561 L7.45771302,92.5420561 C7.69939816,92.1616822 7.94108331,91.9542056 8.11371555,91.9542056 C8.3554007,91.9542056 8.45898004,92.3 8.11371555,93.0607477 L7.11244853,95.3084112 C6.93981628,95.7233645 7.11244853,96 7.52676592,96 C7.76845106,96 7.87203041,95.9308411 7.97560976,95.6542056 L8.97687678,93.0261682 C9.25308838,92.6803738 9.49477352,92.3691589 9.84003801,92.0579439 L10.8067786,92.0579439 L10.8067786,92.0579439 Z M15.3297434,90.7093458 L14.9499525,90.6747664 L14.5011086,91.0897196 L14.3975293,91.0897196 C12.2568895,91.0897196 10.4269876,93.4757009 10.4269876,95.2046729 C10.4269876,95.688785 10.7377257,95.9654206 11.1865695,95.9654206 C11.7389927,95.9654206 12.2914159,95.1700935 12.8783655,94.3401869 L12.8438391,94.6514019 C12.7747862,95.5158879 13.0164713,95.9654206 13.4653152,95.9654206 C13.9832119,95.9654206 14.4665822,95.135514 14.8118467,94.3401869 L14.5701615,94.3401869 C14.3284764,94.7205607 14.0867913,94.9280374 13.914159,94.9280374 C13.7070003,94.9280374 13.5688945,94.582243 13.914159,93.8214953 L15.3297434,90.7093458 Z M11.3937282,94.5476636 C11.3937282,93.4065421 12.6712068,91.8504673 13.3962623,91.8504673 C13.5688945,91.8504673 13.7070003,91.8850467 13.8451061,91.9196262 L13.0855242,93.9252336 C12.6712068,94.4439252 11.9806779,95.1009346 11.6699398,95.1009346 C11.4973076,95.0317757 11.3937282,94.8934579 11.3937282,94.5476636 M16.1238518,91.6429907 L16.987013,91.6429907 L15.6404815,95.3775701 C15.5023757,95.688785 15.6750079,96 16.0202724,96 C16.7798543,96 18.0573329,95.2392523 18.4716503,94.2018692 L18.2299652,94.2018692 C17.8847007,94.582243 17.2286981,95.0663551 16.6417485,95.1700935 L17.8847007,91.6775701 L19.1621793,91.6775701 L19.3348115,91.1588785 L18.0918594,91.1588785 L18.5752296,89.8102804 L18.0918594,89.8102804 L17.1941717,91.1588785 L16.1238518,91.2971963 L16.1238518,91.6429907 Z M22.2005068,94.2018692 L21.8897688,94.2018692 C21.4754514,94.6859813 21.061134,95.0663551 20.6468166,95.0663551 C20.1979728,95.0663551 19.9908141,94.7897196 19.9908141,94.2018692 C19.9908141,93.9598131 20.0253405,93.717757 20.059867,93.4757009 L22.6493506,92.611215 C23.1672474,91.4009346 22.5457713,90.882243 21.8207159,90.882243 C20.6122901,90.882243 19.1967057,92.9224299 19.1967057,94.7205607 C19.1967057,95.5158879 19.5764967,95.9654206 20.1634463,95.9654206 C20.8885017,96 21.6135572,95.3084112 22.2005068,94.2018692 M21.3028191,91.6084112 C21.6480836,91.6084112 21.9588217,91.8850467 21.7861894,92.5420561 L20.1979728,92.9224299 C20.4741844,92.1616822 20.9575546,91.6084112 21.3028191,91.6084112 M27.0342097,92.0579439 C27.2068419,91.435514 27.1032626,90.9168224 26.6544188,90.9168224 C26.1019956,90.9168224 25.9638898,91.3317757 25.4114666,92.5420561 L25.4114666,91.8504673 C25.4114666,91.3663551 25.2388343,90.9168224 24.7899905,90.9168224 C24.2720938,90.9168224 23.7887235,91.746729 23.443459,92.5420561 L23.6851441,92.5420561 C23.9268293,92.1616822 24.1685144,91.9542056 24.3411467,91.9542056 C24.5483054,91.9542056 24.6864111,92.3 24.3411467,93.0607477 L23.3398796,95.3084112 C23.1672474,95.7233645 23.3398796,96 23.754197,96 C23.9958822,96 24.133988,95.9308411 24.2375673,95.6542056 L25.2388343,93.0261682 C25.5150459,92.6803738 25.7567311,92.3691589 26.1019956,92.0579439 L27.0342097,92.0579439 L27.0342097,92.0579439 Z M27.0687361,95.3084112 C26.8961039,95.7233645 27.0687361,96 27.4830535,96 C27.7247387,96 27.8628445,95.9308411 27.9664238,95.6542056 L28.9676908,93.0261682 C29.4165347,92.4728972 30.3832753,91.8504673 30.7285398,91.8504673 C31.0047513,91.8504673 30.9702249,92.0579439 30.7975927,92.4037383 L29.2784289,95.3429907 C29.1403231,95.6196262 29.3129553,95.9654206 29.6582198,95.9654206 C30.4178017,95.9654206 31.2809629,95.3084112 31.6607539,94.3401869 L31.4190687,94.3401869 C31.1773836,94.6859813 30.7630662,95.0663551 30.3832753,95.135514 L31.6952803,92.4728972 C31.8679126,92.1271028 31.9369655,91.8158879 31.9369655,91.5738318 C31.9369655,91.1588785 31.6952803,90.8476636 31.2464365,90.8476636 C30.590434,90.8476636 29.9344314,91.5738318 29.1748495,92.4728972 L29.1748495,91.7813084 C29.1748495,91.2971963 29.0022173,90.8476636 28.5533735,90.8476636 C28.2771619,90.8476636 28.0009503,91.0897196 27.7592651,91.435514 L27.7592651,91.5392523 C28.2426354,91.5046729 28.4497941,92.2308411 28.1045296,92.9915888 L27.0687361,95.3084112 Z M35.286031,89.5682243 C35.6312955,89.5682243 35.9075071,89.2915888 35.9075071,88.9457944 C35.9075071,88.6 35.6312955,88.3233645 35.286031,88.3233645 C34.9407666,88.3233645 34.664555,88.6 34.664555,88.9457944 C34.664555,89.3261682 34.9407666,89.5682243 35.286031,89.5682243 M35.0098194,91.435514 C35.1133988,91.0897196 34.8717137,90.882243 34.6990814,90.882243 C33.9394995,90.882243 33.0763383,91.5392523 32.6965474,92.5074766 L32.9382325,92.5074766 C33.1799176,92.1616822 33.594235,91.7813084 33.974026,91.7121495 L32.5584416,95.446729 C32.4203358,95.7925234 32.6965474,96 32.8691796,96 C33.594235,96 34.4228698,95.3084112 34.7681343,94.3747664 L34.5264492,94.3747664 C34.284764,94.7205607 33.8704466,95.1009346 33.4906557,95.1700935 L35.0098194,91.435514 Z M36.1837187,91.6429907 L37.0468799,91.6429907 L35.7003484,95.3775701 C35.5622426,95.688785 35.7348749,96 36.0801394,96 C36.8397213,96 38.1171999,95.2392523 38.5315173,94.2018692 L38.2898321,94.2018692 C37.9445676,94.582243 37.2885651,95.0663551 36.7016155,95.1700935 L37.9445676,91.6775701 L39.2220462,91.6775701 L39.3946785,91.1588785 L38.1517263,91.1588785 L38.6350966,89.8102804 L38.1517263,89.8102804 L37.2540386,91.1588785 L36.1837187,91.2971963 L36.1837187,91.6429907 Z M41.742477,90.4327103 L43.5723788,88.7383178 L43.5723788,88.5308411 L42.6056383,88.5308411 L41.5007919,90.4327103 L41.742477,90.4327103 Z M42.2603738,94.2018692 L41.9496357,94.2018692 C41.5353183,94.6859813 41.121001,95.0663551 40.7066836,95.0663551 C40.2578397,95.0663551 40.050681,94.7897196 40.050681,94.2018692 C40.050681,93.9598131 40.0852075,93.717757 40.1197339,93.4757009 L42.7092176,92.611215 C43.1925879,91.4009346 42.6056383,90.882243 41.8805828,90.882243 C40.6721571,90.882243 39.2565727,92.9224299 39.2565727,94.7205607 C39.2565727,95.5158879 39.6363636,95.9654206 40.2233133,95.9654206 C40.9483687,96 41.6734241,95.3084112 42.2603738,94.2018692 M41.3626861,91.6084112 C41.7079506,91.6084112 42.0186886,91.8850467 41.8460564,92.5420561 L40.2578397,92.9224299 C40.5340513,92.1616822 41.0174216,91.6084112 41.3626861,91.6084112 M5.48970542,76.8429907 L7.31960722,75.5981308 L7.31960722,75.3906542 L6.21476085,75.3906542 L5.21349382,76.8429907 L5.48970542,76.8429907 L5.48970542,76.8429907 Z M4.76464998,80.7504673 C5.38612607,80.7504673 5.38612607,80.9925234 5.28254672,81.6841121 L5.62781121,81.6841121 L6.45644599,79.4364486 L6.1111815,79.4364486 C5.80044346,79.9551402 5.55875831,80.3700935 4.90275578,80.3700935 L3.55622426,80.3700935 L4.24675325,78.5028037 C4.48843839,77.8803738 4.59201774,77.7420561 5.45517897,77.7420561 L6.0421286,77.7420561 C6.90528983,77.7420561 7.00886918,77.9841121 7.00886918,78.8485981 L7.35413367,78.8485981 L7.66487171,77.3271028 L2.52043079,77.3271028 L2.41685144,77.6037383 C3.41811847,77.811215 3.52169781,77.9149533 3.03832753,79.1943925 L1.93348115,82.2719626 C1.45011086,83.5514019 1.27747862,83.6551402 0.138105797,83.8626168 L0.0690528983,84.1392523 L5.80044346,84.1392523 L6.83623693,82.5140187 L6.45644599,82.5140187 C5.80044346,83.1364486 4.97180868,83.7242991 3.83243586,83.7242991 C2.31327209,83.7242991 2.45137789,83.6551402 2.96927463,82.2719626 L3.52169781,80.7850467 L4.76464998,80.7850467 L4.76464998,80.7504673 Z M11.2556224,84.7616822 C11.2556224,84.1738318 10.7377257,83.9317757 9.84003801,83.6897196 C9.11498258,83.482243 8.76971809,83.4130841 8.76971809,83.171028 C8.76971809,82.9635514 8.90782388,82.7560748 9.25308838,82.5831776 C10.4615141,82.5140187 11.2556224,81.4074766 11.2556224,80.4738318 C11.2556224,80.2663551 11.221096,80.0934579 11.1520431,79.9551402 L12.1878366,79.9551402 L12.3604688,79.4364486 L10.7031992,79.4364486 C10.4960405,79.2981308 10.2888818,79.228972 10.0471967,79.228972 C8.73519164,79.228972 7.90655686,80.3700935 7.90655686,81.3037383 C7.90655686,81.9953271 8.3554007,82.4448598 8.90782388,82.5485981 C8.2863478,82.8252336 7.97560976,83.1364486 7.97560976,83.5168224 C7.97560976,83.7242991 8.04466265,83.8971963 8.2172949,84.0009346 C6.80171048,84.4158879 6.2492873,84.8654206 6.2492873,85.5570093 C6.2492873,86.2140187 7.11244853,86.4560748 8.11371555,86.4560748 C9.84003801,86.4560748 11.2556224,85.5224299 11.2556224,84.7616822 M9.25308838,82.2028037 C8.94235033,82.2028037 8.83877099,81.9261682 8.83877099,81.6495327 C8.83877099,80.8196262 9.28761482,79.6093458 9.97814381,79.6093458 C10.2888818,79.6093458 10.3924612,79.8859813 10.3924612,80.1626168 C10.3924612,80.9925234 9.94361736,82.2028037 9.25308838,82.2028037 M7.31960722,85.211215 C7.31960722,84.7271028 7.80297751,84.4158879 8.49350649,84.1392523 C8.70066519,84.2429907 9.04592968,84.3813084 9.49477352,84.5196262 C10.219829,84.7616822 10.4615141,84.8308411 10.4615141,85.0728972 C10.4615141,85.5224299 9.70193221,85.8682243 8.63161229,85.8682243 C7.73392461,85.8682243 7.31960722,85.6953271 7.31960722,85.211215 M16.8143807,79.0214953 L16.4345898,78.9869159 L15.985746,79.4018692 L15.8821666,79.4018692 C13.7415268,79.4018692 11.911625,81.7878505 11.911625,83.5168224 C11.911625,84.0009346 12.222363,84.2775701 12.6712068,84.2775701 C13.22363,84.2775701 13.7760532,83.482243 14.3630029,82.6523364 L14.3284764,82.9635514 C14.2594235,83.8280374 14.5011086,84.2775701 14.9499525,84.2775701 C15.4678492,84.2775701 15.9512195,83.482243 16.296484,82.6523364 L16.0547989,82.6523364 C15.8131137,82.9981308 15.5714286,83.2401869 15.3987963,83.2401869 C15.1916376,83.2401869 15.0535318,82.8943925 15.3987963,82.1336449 L16.8143807,79.0214953 Z M12.8783655,82.8598131 C12.8783655,81.7186916 14.1558442,80.1626168 14.8808996,80.1626168 C15.0535318,80.1626168 15.1916376,80.1971963 15.3297434,80.2317757 L14.5701615,82.2373832 C14.1558442,82.7560748 13.4653152,83.4130841 13.1545771,83.4130841 C12.9819449,83.3439252 12.8783655,83.2056075 12.8783655,82.8598131 M17.8156478,83.482243 L20.4051315,76.635514 L20.3360786,76.5317757 L18.7133354,76.7046729 L18.7133354,76.9121495 L19.0240735,77.1542056 C19.3002851,77.3616822 19.2312322,77.6037383 18.9550206,78.2953271 L16.9179601,83.6551402 C16.7798543,83.9317757 16.9524865,84.2775701 17.297751,84.2775701 C18.0573329,84.2775701 18.8514412,83.6205607 19.1967057,82.6523364 L18.9550206,82.6523364 C18.7133354,83.0327103 18.1954387,83.4130841 17.8156478,83.482243 M22.7874564,77.9149533 C23.1327209,77.9149533 23.4089325,77.6383178 23.4089325,77.2925234 C23.4089325,76.946729 23.1327209,76.6700935 22.7874564,76.6700935 C22.442192,76.6700935 22.1659804,76.946729 22.1659804,77.2925234 C22.1659804,77.6383178 22.442192,77.9149533 22.7874564,77.9149533 M22.5112449,79.782243 C22.6148242,79.4364486 22.3731391,79.228972 22.2005068,79.228972 C21.4409249,79.228972 20.5777637,79.9205607 20.1979728,80.8542056 L20.4396579,80.8542056 C20.681343,80.5084112 21.0956604,80.1280374 21.4754514,80.0588785 L20.059867,83.7934579 C19.9217612,84.1392523 20.1979728,84.346729 20.370605,84.346729 C21.0956604,84.346729 21.9242952,83.6551402 22.2695597,82.7214953 L22.0278746,82.7214953 C21.7861894,83.0672897 21.371872,83.4476636 20.9920811,83.5168224 L22.5112449,79.782243 Z M23.6851441,79.9551402 L24.5483054,79.9551402 L23.2017738,83.6897196 C23.063668,84.0009346 23.2363003,84.3121495 23.5815648,84.3121495 C24.3411467,84.3121495 25.6186253,83.5514019 26.0329427,82.5140187 L25.7912575,82.5140187 C25.445993,82.8943925 24.7899905,83.3785047 24.2030409,83.482243 L25.445993,79.9897196 L26.7234717,79.9897196 L26.8961039,79.471028 L25.6531517,79.471028 L26.136522,78.1224299 L25.6531517,78.1224299 L24.755464,79.471028 L23.6851441,79.6093458 L23.6851441,79.9551402 Z M29.2784289,78.7448598 L31.1083307,77.0504673 L31.1083307,76.8429907 L30.1415901,76.8429907 L29.0367437,78.7448598 L29.2784289,78.7448598 Z M29.7617992,82.5140187 L29.4510611,82.5140187 C29.0367437,82.9981308 28.6224264,83.3785047 28.208109,83.3785047 C27.7592651,83.3785047 27.5521064,83.1018692 27.5521064,82.5140187 C27.5521064,82.2719626 27.5866329,82.0299065 27.6211593,81.7878505 L30.210643,80.9233645 C30.7285398,79.7130841 30.1070637,79.1943925 29.4165347,79.1943925 C28.1735825,79.1943925 26.7925245,81.2345794 26.7925245,83.0327103 C26.7925245,83.8280374 27.1723155,84.2775701 27.7592651,84.2775701 C28.4497941,84.3121495 29.1748495,83.6205607 29.7617992,82.5140187 M28.8986379,79.9205607 C29.2439024,79.9205607 29.5546405,80.1971963 29.3820082,80.8542056 L27.7937916,81.2345794 C28.0354767,80.4738318 28.518847,79.9205607 28.8986379,79.9205607 M5.83496991,65.6392523 L2.45137789,65.6392523 L2.34779854,65.9158879 C3.34906557,66.1233645 3.45264492,66.2271028 2.96927463,67.5065421 L1.86442825,70.5841121 C1.38105797,71.8635514 1.20842572,71.9672897 0.0690528983,72.1747664 L0,72.4514019 L5.17896737,72.4514019 L6.3183402,70.4457944 L5.93854926,70.4457944 C5.31707317,71.1373832 4.55749129,72.0364486 3.41811847,72.0364486 C2.55495724,72.0364486 2.45137789,71.8981308 2.90022173,70.5841121 L4.0050681,67.5065421 C4.45391194,66.2271028 4.66107064,66.1233645 5.80044346,65.9158879 L5.83496991,65.6392523 Z M9.59835287,66.2271028 C9.94361736,66.2271028 10.219829,65.9504673 10.219829,65.6046729 C10.219829,65.2588785 9.94361736,64.982243 9.59835287,64.982243 C9.25308838,64.982243 8.97687678,65.2588785 8.97687678,65.6046729 C8.97687678,65.9504673 9.25308838,66.2271028 9.59835287,66.2271028 M9.32214127,68.0943925 C9.42572062,67.7485981 9.18403548,67.5411215 9.01140323,67.5411215 C8.25182135,67.5411215 7.38866012,68.1981308 7.00886918,69.1663551 L7.25055432,69.1663551 C7.49223947,68.8205607 7.90655686,68.4401869 8.2863478,68.371028 L6.87076338,72.071028 C6.73265759,72.4168224 7.00886918,72.6242991 7.18150143,72.6242991 C7.90655686,72.6242991 8.73519164,71.9327103 9.08045613,70.9990654 L8.83877099,70.9990654 C8.59708584,71.3448598 8.18276845,71.7252336 7.80297751,71.7943925 L9.32214127,68.0943925 Z M14.3975293,68.5785047 C14.3975293,67.817757 14.1213177,67.5411215 13.603421,67.5411215 C12.9474184,67.5411215 12.3259424,68.2327103 11.7044663,69.0626168 L13.2581565,64.9476636 L13.1891036,64.8439252 L11.5663605,65.0168224 L11.5663605,65.2242991 L11.8770985,65.4663551 C12.1533101,65.6738318 12.0842572,65.9158879 11.8080456,66.6074766 L10.1162496,70.9299065 C9.97814381,71.2411215 9.84003801,71.6214953 9.84003801,71.7252336 C9.84003801,72.1747664 10.4615141,72.5897196 11.0139373,72.5897196 C12.2914159,72.6242991 14.3975293,70.3420561 14.3975293,68.5785047 M11.4627811,71.8635514 C11.221096,71.8635514 10.841305,71.6214953 10.841305,71.4140187 C10.841305,71.3448598 10.9448844,71.0682243 11.0829902,70.6878505 L11.4973076,69.5813084 C11.9461514,69.0626168 12.6366804,68.4747664 13.0164713,68.4747664 C13.2581565,68.4747664 13.4307887,68.6130841 13.4307887,68.9588785 C13.4307887,70.0308411 12.4985746,71.8635514 11.4627811,71.8635514 M17.8156478,70.8261682 L17.5049097,70.8261682 C17.0905923,71.3102804 16.6762749,71.6906542 16.2619576,71.6906542 C15.8131137,71.6906542 15.605955,71.4140187 15.605955,70.8261682 C15.605955,70.5841121 15.6404815,70.3420561 15.6750079,70.1345794 L18.2644916,69.2700935 C18.7823883,68.0598131 18.1609123,67.5411215 17.4703833,67.5411215 C16.2619576,67.5411215 14.8463731,69.5813084 14.8463731,71.3794393 C14.8463731,72.1747664 15.2261641,72.6242991 15.8131137,72.6242991 C16.4691162,72.6242991 17.1941717,71.9672897 17.8156478,70.8261682 M16.9179601,68.2327103 C17.2632246,68.2327103 17.5739626,68.5093458 17.4013304,69.1663551 L15.7785873,69.546729 C16.0547989,68.7859813 16.5381691,68.2327103 16.9179601,68.2327103 M22.6493506,68.682243 C22.8219829,68.0943925 22.7184035,67.5411215 22.2695597,67.5411215 C21.7171365,67.5411215 21.5790307,67.9560748 21.0266075,69.1663551 L21.0266075,68.4747664 C21.0266075,67.9906542 20.8539753,67.5411215 20.4051315,67.5411215 C19.8872347,67.5411215 19.4038644,68.371028 19.0585999,69.1663551 L19.3002851,69.1663551 C19.5419702,68.7859813 19.7836554,68.5785047 19.9562876,68.5785047 C20.1634463,68.5785047 20.3015521,68.9242991 19.9562876,69.6850467 L18.9550206,71.9327103 C18.7823883,72.3476636 18.9550206,72.6242991 19.369338,72.6242991 C19.6110231,72.6242991 19.7491289,72.5551402 19.8527083,72.2785047 L20.8539753,69.6504673 C21.1301869,69.3046729 21.371872,68.9934579 21.7171365,68.682243 L22.6493506,68.682243 L22.6493506,68.682243 Z M23.3053532,68.2672897 L23.9958822,68.2672897 L22.6493506,72.0018692 C22.5112449,72.3130841 22.6838771,72.6242991 23.0291416,72.6242991 C23.7887235,72.6242991 25.0662021,71.8635514 25.4805195,70.8261682 L25.2388343,70.8261682 C24.8935698,71.2065421 24.2375673,71.6906542 23.6506177,71.7943925 L24.8935698,68.3018692 L26.1710485,68.3018692 L26.3436807,67.7831776 L25.1007285,67.7831776 L25.5840988,66.4345794 L25.1007285,66.4345794 L24.2030409,67.7831776 L23.3398796,67.9214953 L23.3398796,68.2672897 L23.3053532,68.2672897 Z M28.6569528,67.0915888 L30.4868546,65.3971963 L30.4868546,65.1897196 L29.520114,65.1897196 L28.4152677,67.0915888 L28.6569528,67.0915888 Z M29.1748495,70.8261682 L28.8641115,70.8261682 C28.4497941,71.3102804 28.0354767,71.6906542 27.6211593,71.6906542 C27.1723155,71.6906542 26.9651568,71.4140187 26.9651568,70.8261682 C26.9651568,70.5841121 26.9996832,70.3420561 27.0342097,70.1345794 L29.6236934,69.2700935 C30.1415901,68.0598131 29.520114,67.5411215 28.7950586,67.5411215 C27.5866329,67.5411215 26.1710485,69.5813084 26.1710485,71.3794393 C26.1710485,72.1747664 26.5508394,72.6242991 27.137789,72.6242991 C27.8628445,72.6242991 28.5878999,71.9672897 29.1748495,70.8261682 M28.2771619,68.2327103 C28.6224264,68.2327103 28.9331644,68.5093458 28.7605322,69.1663551 L27.137789,69.546729 C27.4485271,68.7859813 27.8973709,68.2327103 28.2771619,68.2327103" id="XMLID_1_" fill="#000000"></path>
                <rect id="XMLID_24_" fill="#00479D" x="126" y="0" width="81" height="96"></rect>
                <rect id="XMLID_25_" fill="#FFFFFF" x="128" y="2" width="77" height="92"></rect>
                <path d="M150.136097,53.4874552 C153.544103,58.6290323 159.371794,62 165.983326,62 C176.479985,62 185,53.4874552 185,43 C185,41.9784946 184.93184,40.9910394 184.76144,40.0035842 C183.875358,34.453405 180.569592,29.6863799 175.968784,26.8261649 C173.071978,25.0215054 169.663972,24 165.983326,24 C162.74572,24 159.712594,24.8172043 157.054349,26.2132616 C154.805065,27.4050179 152.828422,29.0394265 151.260739,30.9802867 C149.045535,33.7043011 147.546012,37.0412186 147.137052,40.718638 C147.034811,41.4336918 147.000731,42.1827957 147.000731,42.9659498 C146.966651,46.8817204 148.125373,50.4569892 150.136097,53.4874552" id="XMLID_26_" fill="#8C97CB"></path>
                <path d="M176.075651,27.2683643 L173.089427,27.9196866 L175.148892,29.1194907 L175.83538,28.2967679 L176.693491,27.748286 L176.075651,27.2683643 Z M176.1443,26.7198825 C180.778097,29.5994123 184.107565,34.3643487 185,39.9520078 L185,39.9520078 L183.489726,41.2203722 L182.528642,40.9804114 L182.082424,41.3574927 L182.116749,41.6317336 C182.116749,41.7688541 182.185398,42.0088149 182.288371,42.3858962 C182.494317,43.1400588 182.562966,43.8942214 182.562966,44.6483839 C182.562966,45.3339863 182.528642,45.5739471 182.391344,46.2252693 L181.567558,46.2252693 L179.267822,44.374143 L177.517277,44.7855044 L176.384571,44.5798237 L174.942946,45.0254652 L175.595109,45.5739471 L176.727815,45.2654261 L177.688899,46.0538688 L177.551601,46.3966699 L177.139708,47.0479922 L176.281598,48.2820764 L174.942946,49.34476 L172.505912,46.8080313 L171.853748,46.8765916 L174.462404,49.8589618 L175.526461,49.6532811 L175.801056,50.201763 L174.736999,51.950049 L172.64321,53.9382958 L171.71645,56.3036239 C171.682126,56.3721841 171.613477,56.4407444 171.441855,56.5093046 C171.132935,56.6464251 170.789691,56.920666 170.412122,57.2634672 C169.897256,57.7433888 169.622661,57.9833497 169.588336,58.0519099 C169.176443,58.4289912 168.695901,58.8060725 168.112386,59.1831538 C167.528871,59.5602351 166.979681,59.9030362 166.396165,60.2115573 C165.400757,60.7257591 164.268052,61 163.238319,61 C162.586155,61 161.899667,60.8971596 161.213178,60.6571988 C161.110205,60.6229187 161.075881,60.5886386 161.075881,60.5543585 L161.522098,59.2859941 C161.556422,59.2174339 161.933991,58.8060725 162.654804,58.0176298 C162.998048,57.6748286 163.238319,57.194907 163.444265,56.612145 C163.718861,55.755142 163.924807,55.2409403 164.027781,55.0695397 C164.439674,54.3839373 164.64562,53.8354554 164.508322,53.698335 L161.796693,50.9902057 L160.663988,48.8648384 L160.801285,48.3506366 C160.904259,48.0078355 161.178854,47.3907933 161.69372,46.3966699 C161.968316,45.8481881 162.208586,45.5739471 162.483182,45.4368266 L164.302376,44.5455436 L167.837791,45.0940255 L168.901848,45.8139079 L169.416714,45.7453477 L171.579153,46.2938296 L172.128343,44.8883448 L169.38239,44.1341822 L168.421306,43.1743389 L168.284008,43.208619 L168.730226,44.3398629 L168.181035,44.4427032 L168.112386,44.3055828 L168.318333,44.2713026 C168.318333,44.2713026 168.146711,43.5514202 167.734818,43.3800196 C167.59752,43.3114594 167.494547,43.2428991 167.322925,43.2428991 C167.116978,43.2428991 166.773734,43.3800196 166.602112,43.5514202 C166.018597,44.0999021 165.538055,44.4769833 165.503731,44.4427032 L164.371025,43.5857003 L164.782918,42.5572968 L164.95454,42.5915769 C165.057513,42.625857 165.160486,42.625857 165.26346,42.625857 C165.606704,42.625857 165.846975,42.4201763 165.881299,42.2144956 C165.949948,41.9745348 165.778326,41.8374143 165.778326,41.8374143 C165.778326,41.8374143 165.675353,41.7002938 165.675353,41.7002938 C165.675353,41.7002938 165.846975,41.5288932 165.81265,41.5288932 C165.81265,41.5288932 166.224543,41.6317336 166.499139,41.6660137 C166.773734,41.6660137 167.048329,41.6317336 167.185627,41.4946131 L167.460222,41.0832517 L167.90644,40.9461312 L167.975089,40.3290891 L168.249684,40.3633692 C168.249684,40.3633692 168.421306,40.56905 168.455631,40.877571 L169.245092,40.6718903 L169.485363,39.8491675 L169.348065,39.712047 L169.69131,38.9236043 L169.38239,38.7179236 L168.867524,40.1576885 L168.592928,40.1919687 L168.455631,39.8834476 L167.734818,39.9520078 L167.322925,39.3006856 L168.181035,38.4094025 L169.039146,37.2781587 L170.2405,37.65524 L170.54942,38.238002 L170.926989,38.238002 L170.789691,37.380999 L171.785099,36.4554358 L171.132935,33.5073457 L171.544828,32.5817826 L172.02537,32.6160627 L172.094019,31.8961802 L168.970497,28.5024486 L169.07347,27.5768854 L171.647801,26.9941234 L172.02537,27.0969638 L173.50132,26.9598433 L173.844564,27.0969638 L176.1443,26.7198825 L176.1443,26.7198825 Z M150.092067,53.5269344 L151.430719,52.4299706 L152.529101,52.7042116 L155.446676,50.510284 L155.583974,49.34476 L153.661806,46.5680705 C153.627482,46.5337904 153.524509,44.7855044 153.14694,43.4828599 C152.940994,42.7972576 152.494776,40.8090108 152.494776,40.7747307 L152.254505,40.2605289 L150.435311,37.5523996 L151.602341,34.6043095 L152.529101,34.5700294 L152.597749,34.1243879 L151.911261,33.5416259 L151.876937,33.4045054 L151.842612,32.8560235 C151.842612,32.4789422 152.494776,32.1018609 152.906669,32.1018609 C153.009642,32.1018609 153.14694,32.136141 153.249913,32.136141 C153.558833,32.2047013 153.833428,32.4446621 154.073699,32.6503428 C154.108024,32.6846229 154.897485,34.5357493 154.897485,34.5357493 L154.210997,35.0842311 L153.867753,35.906954 L154.31397,36.2840353 L154.966134,35.1870715 L157.609114,36.0783546 L159.222362,37.0039177 L159.702904,36.4554358 L161.075881,36.5582762 L162.071289,35.2213516 L161.178854,34.8785504 L162.139938,33.7473066 L162.036964,33.3702253 L160.595339,33.0959843 L161.69372,31.9304603 L162.757777,32.6160627 L162.723453,32.9245837 L163.409941,32.993144 L163.993456,31.8961802 L163.581563,31.553379 L165.26346,29.9422135 L166.773734,29.222331 L167.975089,28.4338883 L168.21536,28.2624878 L168.249684,27.4397649 L168.043738,26.8570029 L167.563196,26.6170421 L168.249684,26.1028404 L168.078062,26 C167.631844,26.3085211 166.567788,27.0284035 164.714269,27.165524 C163.375617,27.2683643 160.698312,26.6856024 160.698312,26.6856024 L158.055332,26.2742409 L157.128573,26.1028404 C154.863161,27.3026445 152.872345,28.9480901 151.293422,30.9020568 L151.224773,33.4045054 L150.81288,34.5357493 L149.851796,37.8609207 L150.160716,38.7864838 L148.650441,38.9921645 L147.140167,40.6718903 C147.071518,41.3917728 147.002869,42.1459354 147.002869,42.9343781 C146.93422,46.8765916 148.101251,50.4760039 150.092067,53.5269344 M153.078291,41.2203722 L153.14694,41.5974535 L153.490184,41.4946131 L153.387211,41.1175318 L153.078291,41.2203722 Z M167.391574,43.7228208 L167.151303,43.6885406 L167.116978,44.1341822 L167.357249,44.1684623 L167.494547,43.5857003 L167.425898,43.5514202 L167.391574,43.7228208 Z M173.81024,58.1204701 C173.81024,58.1204701 173.604293,57.8805093 173.604293,57.8805093 C173.604293,57.8805093 173.295373,58.08619 173.295373,58.08619 C173.295373,58.08619 173.535644,58.3261508 173.535644,58.3261508 L173.81024,58.1204701 Z M174.256457,55.7894221 L173.638618,56.1322233 L172.88348,56.3036239 L171.201584,57.9833497 L171.304557,58.360431 L171.544828,58.3261508 L172.505912,57.9147894 C172.746183,57.8119491 173.535644,57.3663075 173.947537,56.920666 C174.325106,56.5093046 174.462404,56.337904 174.66835,55.9265426 L174.256457,55.7894221 Z M165.26346,40.7404505 L165.675353,40.8432909 L165.81265,40.4662096 L165.503731,40.3976494 L165.26346,40.7404505 Z M166.396165,39.9177277 C166.396165,39.9177277 165.915624,41.1175318 165.915624,41.1175318 C165.915624,41.1175318 166.670761,41.1860921 166.670761,41.1860921 L166.842383,40.1919687 L166.705085,40.0891283 L166.808058,39.7463271 L166.43049,39.5406464 L166.293192,39.7806072 L166.396165,39.9177277 Z M153.661806,41.0489716 C153.661806,41.0489716 153.936402,40.9461312 153.936402,40.9461312 L153.833428,40.7061704 C153.833428,40.7061704 153.696131,40.8432909 153.696131,40.8432909 L153.661806,41.0489716 Z M153.490184,40.3290891 L153.593158,40.56905 L153.902077,40.4319295 C153.902077,40.4319295 153.833428,40.1919687 153.799104,40.1919687 L153.490184,40.3290891 Z M153.284238,39.4720862 L153.352887,39.8491675 L153.730455,39.8491675 L153.696131,39.4378061 L153.284238,39.4720862 Z M152.906669,38.7522037 L153.112616,39.0607248 L153.490184,39.129285 L153.661806,38.4094025 L153.078291,38.2722821 L152.906669,38.7522037 Z M152.597749,37.8266405 L153.181265,37.8952008 L153.352887,36.489716 L153.352887,36.0783546 L153.249913,35.632713 L152.940994,35.5984329 L152.597749,37.8266405 Z M165.915624,30.1478942 L164.199403,31.5190989 L164.817242,31.9647405 L166.190219,30.5592556 L165.915624,30.1478942 Z M164.405349,32.5132223 L164.165078,32.5132223 L163.684536,33.3702253 L162.963724,33.4387855 L162.139938,34.6385896 L162.586155,34.9128306 L163.718861,34.1929481 L164.576971,33.2673849 L164.405349,32.5132223 Z M163.993456,34.5357493 L163.135346,35.2899119 L163.135346,35.8041136 L164.508322,36.1469148 L167.219951,34.2957884 L167.151303,33.5416259 L166.087246,33.1645446 L163.993456,34.5357493 Z M159.874526,36.7639569 L160.904259,36.9353575 L160.561014,37.6209598 L159.66858,37.1410382 L159.874526,36.7639569 Z" id="XMLID_27_" fill="#00479D"></path>
                <path d="M141.986634,11.0808637 L141.017011,13.9271804 L142.886999,13.9271804 L141.986634,11.0808637 Z M144.099028,17.6994073 L143.614216,16.1219306 L140.289793,16.1219306 L139.770352,17.6994073 L137,17.6994073 L140.913123,7 L142.956258,7 L146.86938,17.6994073 L144.099028,17.6994073 Z M155.00729,9.9491956 C154.764885,9.5719729 154.383961,9.36621507 153.726002,9.36621507 L152.548603,9.36621507 L152.548603,15.3674852 L153.726002,15.3674852 C154.383961,15.3674852 154.764885,15.1274344 155.00729,14.7502117 C155.215067,14.4415749 155.284326,14.1672312 155.284326,12.3497036 C155.284326,10.5664691 155.215067,10.2578323 155.00729,9.9491956 M156.808019,16.6363251 C156.080802,17.3564776 155.00729,17.6994073 153.899149,17.6994073 L149.916768,17.6994073 L149.916768,7 L153.899149,7 C155.00729,7 156.080802,7.30863675 156.808019,8.06308213 C158.054678,9.29762913 157.91616,10.669348 157.91616,12.3497036 C157.91616,14.0300593 158.054678,15.4017782 156.808019,16.6363251 M161.517618,17.6994073 L161.517618,7 L168.859052,7 L168.859052,9.3319221 L164.184083,9.3319221 L164.184083,11.1151566 L168.201094,11.1151566 L168.201094,13.4470787 L164.184083,13.4470787 L164.184083,15.3331922 L168.859052,15.3331922 L168.859052,17.6651143 L161.517618,17.6651143 L161.517618,17.6994073 Z M179.940462,17.6994073 L179.940462,12.5897544 L178.416768,15.2303133 L176.719927,15.2303133 L175.196233,12.5897544 L175.196233,17.6994073 L172.529769,17.6994073 L172.529769,7 L175.126974,7 L177.551033,11.6981372 L179.975091,7 L182.572296,7 L182.572296,17.6994073 L179.940462,17.6994073 Z M186.554678,17.6994073 L186.554678,7 L193.896112,7 L193.896112,9.3319221 L189.221142,9.3319221 L189.221142,11.1151566 L193.238153,11.1151566 L193.238153,13.4470787 L189.221142,13.4470787 L189.221142,15.3331922 L193.896112,15.3331922 L193.896112,17.6651143 L186.554678,17.6651143 L186.554678,17.6994073 Z M139.077764,70.9906859 L139.597205,69.4817951 L140.082017,70.9906859 L139.077764,70.9906859 Z M139.147023,67.9043184 L137.415553,72.5681626 L138.523694,72.5681626 L138.7661,71.8480102 L140.324423,71.8480102 L140.532199,72.5681626 L141.64034,72.5681626 L139.90887,67.9043184 L139.147023,67.9043184 Z M144.756987,72.6367485 C144.237546,72.6367485 143.821993,72.4652837 143.441069,72.1223539 C142.956258,71.6422523 142.956258,71.0249788 142.956258,70.3391194 L142.956258,70.1676545 C142.956258,69.4817951 142.956258,68.8645216 143.441069,68.38442 C143.821993,68.0071973 144.202916,67.8700254 144.756987,67.8700254 C146.142163,67.8700254 146.488457,68.8645216 146.592345,69.3446232 L145.518834,69.3446232 C145.414945,68.9674005 145.172539,68.7959356 144.791616,68.7959356 C144.58384,68.7959356 144.376063,68.8988146 144.272175,69.0359865 C144.168287,69.1731583 144.099028,69.3446232 144.099028,70.2362405 C144.099028,71.1278577 144.168287,71.2993226 144.272175,71.4707875 C144.376063,71.6079594 144.58384,71.6765453 144.791616,71.6765453 C145.034022,71.6765453 145.241798,71.6079594 145.345687,71.4707875 C145.484204,71.3336156 145.553463,71.1621507 145.553463,70.9220999 L145.553463,70.784928 L144.826245,70.784928 L144.826245,69.9276037 L146.592345,69.9276037 L146.592345,70.5448772 C146.592345,71.3336156 146.453827,71.7451312 146.107533,72.088061 C145.761239,72.4652837 145.345687,72.6367485 144.756987,72.6367485 M149.501215,71.6422523 L151.613609,71.6422523 L151.613609,72.5681626 L148.427704,72.5681626 L148.427704,67.9043184 L151.613609,67.9043184 L151.613609,68.8302286 L149.501215,68.8302286 L149.501215,69.7561389 L151.301944,69.7561389 L151.301944,70.6820491 L149.501215,70.6820491 L149.501215,71.6422523 Z M156.150061,72.6024555 L154.522479,70.0647756 L154.522479,72.6024555 L153.448967,72.6024555 L153.448967,67.9043184 L154.383961,67.9043184 L156.011543,70.4419983 L156.011543,67.9043184 L157.085055,67.9043184 L157.085055,72.5681626 L156.150061,72.5681626 L156.150061,72.6024555 Z M162.452612,71.1964437 C162.279465,72.1223539 161.621507,72.6367485 160.686513,72.6367485 C160.167072,72.6367485 159.751519,72.4652837 159.370595,72.1223539 C158.885784,71.6422523 158.885784,71.0249788 158.885784,70.3391194 L158.885784,70.1676545 C158.885784,69.4817951 158.885784,68.8645216 159.370595,68.38442 C159.716889,68.0414903 160.132442,67.8700254 160.686513,67.8700254 C161.621507,67.8700254 162.279465,68.38442 162.452612,69.3103302 L161.344471,69.3103302 C161.275213,69.0702794 161.136695,68.7959356 160.686513,68.7959356 C160.478736,68.7959356 160.27096,68.8645216 160.167072,69.0359865 C160.063183,69.1731583 159.959295,69.3446232 159.959295,70.2705334 C159.959295,71.1621507 160.028554,71.3336156 160.167072,71.5050804 C160.27096,71.6422523 160.478736,71.7108383 160.686513,71.7108383 C161.136695,71.7108383 161.275213,71.4364945 161.344471,71.1964437 L162.452612,71.1964437 L162.452612,71.1964437 Z M165.153706,71.6422523 L167.2661,71.6422523 L167.2661,72.5681626 L164.080194,72.5681626 L164.080194,67.9043184 L167.2661,67.9043184 L167.2661,68.8302286 L165.153706,68.8302286 L165.153706,69.7561389 L166.954435,69.7561389 L166.954435,70.6820491 L165.153706,70.6820491 L165.153706,71.6422523 Z M174.469016,71.3679086 C174.330498,71.5736664 174.122722,71.6765453 173.845687,71.6765453 L173.256987,71.6765453 L173.256987,68.8645216 L173.845687,68.8645216 C174.122722,68.8645216 174.330498,68.9674005 174.469016,69.1731583 C174.572904,69.3103302 174.607533,69.4817951 174.607533,70.2705334 C174.607533,71.0935648 174.572904,71.2307367 174.469016,71.3679086 M175.681045,70.4419983 C175.681045,70.3734124 175.681045,70.3048264 175.681045,70.2362405 C175.681045,70.1676545 175.681045,70.0990686 175.681045,70.0304826 C175.681045,69.3789162 175.681045,68.8302286 175.196233,68.350127 C174.884569,68.0414903 174.469016,67.9043184 173.949575,67.9043184 L172.218104,67.9043184 L172.218104,72.5681626 L173.949575,72.5681626 C174.469016,72.5681626 174.919198,72.3966977 175.196233,72.1223539 C175.681045,71.6422523 175.681045,71.1278577 175.681045,70.4419983 M178.555286,71.6422523 L180.667679,71.6422523 L180.667679,72.5681626 L177.481774,72.5681626 L177.481774,67.9043184 L180.667679,67.9043184 L180.667679,68.8302286 L178.555286,68.8302286 L178.555286,69.7561389 L180.356015,69.7561389 L180.356015,70.6820491 L178.555286,70.6820491 L178.555286,71.6422523 Z M186.693196,71.6422523 L188.73633,71.6422523 L188.73633,72.5681626 L185.619684,72.5681626 L185.619684,67.9043184 L186.693196,67.9043184 L186.693196,71.6422523 Z M191.402795,70.9906859 L191.922236,69.4817951 L192.407047,70.9906859 L191.402795,70.9906859 Z M192.891859,72.6024555 L194,72.6024555 L192.26853,67.9386113 L191.437424,67.9386113 L189.705954,72.6024555 L190.814095,72.6024555 L191.056501,71.8823031 L192.614824,71.8823031 L192.891859,72.6024555 Z M138.800729,76.4775614 L137.623329,76.4775614 L137.623329,75.5516511 L141.08627,75.5516511 L141.08627,76.4775614 L139.90887,76.4775614 L139.90887,80.2154953 L138.835358,80.2154953 L138.835358,76.4775614 L138.800729,76.4775614 Z M145.657351,77.5749365 L144.930134,77.5749365 L144.930134,76.4775614 L145.657351,76.4775614 C146.038275,76.4775614 146.246051,76.7519052 146.246051,77.0262489 C146.246051,77.2662997 146.038275,77.5749365 145.657351,77.5749365 M146.557716,78.226503 C146.730863,78.123624 147.319563,77.7806943 147.319563,77.0262489 C147.319563,76.3060965 146.765492,75.5516511 145.72661,75.5516511 L143.856622,75.5516511 L143.856622,80.2154953 L144.930134,80.2154953 L144.930134,78.4322608 L145.414945,78.4322608 L146.28068,80.2154953 L147.527339,80.2154953 L146.488457,78.2607959 L146.557716,78.226503 Z M151.475091,78.6380186 L151.994532,77.1291279 L152.479344,78.6380186 L151.475091,78.6380186 Z M151.54435,75.5516511 L149.81288,80.2154953 L150.921021,80.2154953 L151.163426,79.4953429 L152.72175,79.4953429 L152.929526,80.2154953 L154.037667,80.2154953 L152.306197,75.5516511 L151.54435,75.5516511 Z M157.708384,75.5516511 L159.335966,78.0893311 L159.335966,75.5516511 L160.409478,75.5516511 L160.409478,80.2154953 L159.439854,80.2154953 L157.812272,77.6778154 L157.812272,80.2154953 L156.738761,80.2154953 L156.738761,75.5516511 L157.708384,75.5516511 Z M165.361482,77.4034716 C165.777035,77.4720576 166.0887,77.5749365 166.296476,77.7806943 C166.538882,77.9864522 166.64277,78.3293819 166.64277,78.7751905 C166.64277,79.7696867 165.742406,80.2154953 164.842041,80.2154953 C164.045565,80.2154953 163.491495,80.0440305 163.075942,79.6325148 L163.76853,78.9466554 C164.080194,79.2209992 164.634265,79.2552921 164.842041,79.2552921 C165.465371,79.2552921 165.603888,78.9809483 165.603888,78.7751905 C165.603888,78.6380186 165.569259,78.5351397 165.5,78.4665538 C165.430741,78.3979678 165.292224,78.3293819 165.153706,78.3293819 L164.565006,78.2607959 C164.149453,78.19221 163.837789,78.0550381 163.630012,77.8492803 C163.422236,77.6435224 163.318348,77.3348857 163.318348,76.92337 C163.318348,76.0660457 164.010936,75.4830652 165.015188,75.4830652 C165.707776,75.4830652 166.192588,75.6545301 166.573512,75.9974598 L165.915553,76.6490262 C165.603888,76.3746825 165.257594,76.3746825 165.049818,76.3746825 L165.015188,76.3746825 C164.565006,76.3746825 164.35723,76.6490262 164.35723,76.8890771 C164.35723,76.92337 164.35723,77.0605419 164.461118,77.1634208 C164.565006,77.2320068 164.668894,77.3005927 164.842041,77.3348857 L165.361482,77.4034716 M169.55164,75.5516511 L170.625152,75.5516511 L170.625152,80.2154953 L169.55164,80.2154953 L169.55164,75.5516511 Z M174.607533,76.4775614 L173.430134,76.4775614 L173.430134,75.5516511 L176.893074,75.5516511 L176.893074,76.4775614 L175.715674,76.4775614 L175.715674,80.2154953 L174.607533,80.2154953 L174.607533,76.4775614 Z M179.698056,75.5516511 L180.771567,75.5516511 L180.771567,80.2154953 L179.698056,80.2154953 L179.698056,75.5516511 Z M186.000608,79.0838273 C185.896719,79.1867062 185.723572,79.3238781 185.481166,79.3238781 C185.238761,79.3238781 185.065614,79.1867062 184.961725,79.0838273 C184.857837,78.9466554 184.788578,78.7751905 184.788578,77.8835732 C184.788578,76.991956 184.857837,76.8204911 184.961725,76.6833192 C185.065614,76.5461473 185.27339,76.4432684 185.481166,76.4432684 C185.688943,76.4432684 185.896719,76.5461473 186.000608,76.6833192 C186.104496,76.8204911 186.173755,76.991956 186.173755,77.8835732 C186.208384,78.7751905 186.139125,78.9123624 186.000608,79.0838273 M187.281896,77.7806943 C187.281896,77.0948349 187.281896,76.4775614 186.797084,75.9974598 C186.41616,75.6202371 186.035237,75.4830652 185.481166,75.4830652 C184.927096,75.4830652 184.546173,75.6545301 184.165249,75.9974598 C183.680437,76.4775614 183.680437,77.0948349 183.680437,77.7806943 L183.680437,77.9521592 C183.680437,78.6380186 183.680437,79.2552921 184.165249,79.7353937 C184.546173,80.1126164 184.927096,80.2497883 185.481166,80.2497883 C186.035237,80.2497883 186.41616,80.0783235 186.797084,79.7353937 C187.281896,79.2552921 187.281896,78.6380186 187.281896,77.9521592 L187.281896,77.7806943 Z M192.926488,80.2154953 L191.298906,77.6778154 L191.298906,80.2154953 L190.190765,80.2154953 L190.190765,75.5516511 L191.160389,75.5516511 L192.787971,78.0893311 L192.787971,75.5516511 L193.861482,75.5516511 L193.861482,80.2154953 L192.926488,80.2154953 Z M138.696841,86.9026249 L140.809235,86.9026249 L140.809235,87.8285351 L137.623329,87.8285351 L137.623329,83.130398 L140.809235,83.130398 L140.809235,84.0563082 L138.696841,84.0563082 L138.696841,84.9822185 L140.49757,84.9822185 L140.49757,85.9081287 L138.696841,85.9081287 L138.696841,86.9026249 Z M140.116646,81.4500423 L139.389429,82.5474174 L138.835358,82.5474174 L139.147023,81.4500423 L140.116646,81.4500423 Z M145.899757,84.5707028 C145.830498,84.330652 145.691981,84.0563082 145.241798,84.0563082 C145.034022,84.0563082 144.826245,84.1248942 144.722357,84.262066 C144.618469,84.3992379 144.514581,84.5707028 144.514581,85.496613 C144.514581,86.3882303 144.58384,86.5596952 144.722357,86.73116 C144.826245,86.8683319 145.034022,86.9369179 145.241798,86.9369179 C145.691981,86.9369179 145.830498,86.6625741 145.899757,86.4225233 L147.007898,86.4225233 C146.834751,87.3484335 146.176792,87.8628281 145.241798,87.8628281 C144.722357,87.8628281 144.306804,87.6913633 143.925881,87.3484335 C143.441069,86.8683319 143.441069,86.2510584 143.441069,85.565199 L143.441069,85.3937341 C143.441069,84.7078747 143.441069,84.0906012 143.925881,83.6104996 C144.272175,83.2675699 144.687728,83.096105 145.241798,83.096105 C146.176792,83.096105 146.834751,83.6104996 147.007898,84.5364098 L145.899757,84.5364098 M151.786756,86.6968671 C151.682868,86.834039 151.475091,86.9369179 151.267315,86.9369179 C151.059538,86.9369179 150.851762,86.834039 150.747874,86.6968671 C150.643985,86.5596952 150.574727,86.3882303 150.574727,85.496613 C150.574727,84.6049958 150.643985,84.4335309 150.747874,84.296359 C150.851762,84.1591871 151.059538,84.0563082 151.267315,84.0563082 C151.475091,84.0563082 151.682868,84.1248942 151.786756,84.296359 C151.890644,84.4335309 151.959903,84.6049958 151.959903,85.496613 C151.994532,86.3882303 151.925273,86.5596952 151.786756,86.6968671 M151.267315,83.130398 C150.713244,83.130398 150.332321,83.3018628 149.951397,83.6447925 C149.466586,84.1248942 149.466586,84.7421677 149.466586,85.4280271 L149.466586,85.599492 C149.466586,86.2853514 149.466586,86.9026249 149.951397,87.3827265 C150.332321,87.7599492 150.713244,87.8971211 151.267315,87.8971211 C151.821385,87.8971211 152.202309,87.7256562 152.583232,87.3827265 C153.068044,86.9026249 153.068044,86.2853514 153.068044,85.599492 L153.068044,85.4280271 C153.068044,84.7421677 153.068044,84.1248942 152.583232,83.6447925 C152.236938,83.2675699 151.821385,83.130398 151.267315,83.130398 M156.946537,86.9026249 L158.989672,86.9026249 L158.989672,87.8285351 L155.873026,87.8285351 L155.873026,83.130398 L156.946537,83.130398 L156.946537,86.9026249 Z M163.664642,86.6968671 C163.560753,86.834039 163.352977,86.9369179 163.1452,86.9369179 C162.902795,86.9369179 162.695018,86.799746 162.625759,86.6968671 C162.521871,86.5596952 162.452612,86.3882303 162.452612,85.496613 C162.452612,84.6049958 162.521871,84.4335309 162.625759,84.296359 C162.729648,84.1591871 162.937424,84.0563082 163.1452,84.0563082 C163.352977,84.0563082 163.560753,84.1248942 163.664642,84.296359 C163.76853,84.4335309 163.837789,84.6049958 163.837789,85.496613 C163.837789,86.3882303 163.76853,86.5596952 163.664642,86.6968671 M163.1452,83.130398 C162.59113,83.130398 162.210207,83.3018628 161.829283,83.6447925 C161.344471,84.1248942 161.344471,84.7421677 161.344471,85.4280271 L161.344471,85.599492 C161.344471,86.2853514 161.344471,86.9026249 161.829283,87.3827265 C162.210207,87.7599492 162.59113,87.8971211 163.1452,87.8971211 C163.699271,87.8971211 164.080194,87.7256562 164.461118,87.3827265 C164.94593,86.9026249 164.94593,86.2853514 164.94593,85.599492 L164.94593,85.4280271 C164.94593,84.7421677 164.94593,84.1248942 164.461118,83.6447925 C164.080194,83.2675699 163.699271,83.130398 163.1452,83.130398 M170.105711,84.6049958 C170.001823,84.2277731 169.759417,84.0563082 169.378493,84.0563082 C169.170717,84.0563082 168.96294,84.1248942 168.859052,84.296359 C168.755164,84.4335309 168.685905,84.6049958 168.685905,85.496613 C168.685905,86.4225233 168.755164,86.5596952 168.859052,86.73116 C168.96294,86.8683319 169.170717,86.9712108 169.378493,86.9712108 C169.620899,86.9712108 169.828676,86.9026249 169.932564,86.765453 C170.071081,86.6282811 170.14034,86.4568163 170.14034,86.2167655 L170.14034,86.0795936 L169.413123,86.0795936 L169.413123,85.2222693 L171.213852,85.2222693 L171.213852,85.8395428 C171.213852,86.6282811 171.075334,87.0397968 170.72904,87.4170195 C170.382746,87.7942422 169.967193,87.9314141 169.343864,87.9314141 C168.824423,87.9314141 168.40887,87.7599492 168.027947,87.4170195 C167.543135,86.9369179 167.543135,86.3196444 167.543135,85.6337849 L167.543135,85.4623201 C167.543135,84.7764606 167.543135,84.1591871 168.027947,83.6790855 C168.40887,83.3018628 168.789793,83.1646909 169.343864,83.1646909 C170.72904,83.1646909 171.075334,84.1591871 171.179222,84.6392887 L170.105711,84.6392887 M174.018834,83.1646909 L175.092345,83.1646909 L175.092345,87.8628281 L174.018834,87.8628281 L174.018834,83.1646909 Z M180.390644,86.2167655 L180.390644,86.3539373 L180.113609,86.0795936 L179.594168,86.5939881 L179.940462,86.9369179 L179.836574,86.9712108 C179.801944,86.9712108 179.767315,86.9712108 179.732685,86.9712108 C179.490279,86.9712108 179.282503,86.834039 179.213244,86.73116 C179.109356,86.5939881 179.040097,86.4225233 179.040097,85.530906 C179.040097,84.6392887 179.109356,84.4678239 179.213244,84.330652 C179.317132,84.1934801 179.524909,84.0906012 179.732685,84.0906012 C179.940462,84.0906012 180.148238,84.1934801 180.252126,84.330652 C180.356015,84.4678239 180.425273,84.6392887 180.425273,85.530906 C180.425273,85.8395428 180.425273,86.0795936 180.390644,86.2167655 M181.22175,87.1083827 C181.498785,86.6625741 181.498785,86.1481795 181.498785,85.565199 L181.498785,85.3937341 C181.498785,84.7078747 181.498785,84.0906012 181.013973,83.6104996 C180.63305,83.2332769 180.252126,83.096105 179.698056,83.096105 C179.143985,83.096105 178.763062,83.2675699 178.382139,83.6104996 C177.897327,84.0906012 177.897327,84.7078747 177.897327,85.3937341 L177.897327,85.565199 C177.897327,86.2510584 177.897327,86.8683319 178.382139,87.3484335 C178.763062,87.7256562 179.143985,87.8628281 179.698056,87.8628281 C180.04435,87.8628281 180.356015,87.7942422 180.59842,87.6570703 L180.63305,87.6227773 L181.013973,88 L181.533414,87.4856054 L181.18712,87.1426757 L181.22175,87.1083827 Z M185.308019,86.1824725 C185.308019,86.6625741 185.585055,86.9369179 186.000608,86.9369179 C186.45079,86.9369179 186.727825,86.6282811 186.727825,86.1824725 L186.727825,83.130398 L187.801337,83.130398 L187.801337,86.1824725 C187.801337,87.1426757 187.03949,87.8628281 186.000608,87.8628281 C184.961725,87.8628281 184.234508,87.1426757 184.234508,86.1824725 L184.234508,83.130398 L185.308019,83.130398 L185.308019,86.1824725 M191.783718,86.9026249 L193.896112,86.9026249 L193.896112,87.8285351 L190.710207,87.8285351 L190.710207,83.130398 L193.896112,83.130398 L193.896112,84.0563082 L191.783718,84.0563082 L191.783718,84.9822185 L193.584447,84.9822185 L193.584447,85.9081287 L191.783718,85.9081287 L191.783718,86.9026249 Z" id="XMLID_28_" fill="#E72410"></path>
            </g>
        </g>
    </g>
</svg>