<?xml version="1.0" encoding="utf-8"?>
<!-- Generator: Adobe Illustrator 23.0.3, SVG Export Plug-In . SVG Version: 6.00 Build 0)  -->
<svg version="1.1" id="Calque_1" xmlns="http://www.w3.org/2000/svg" xmlns:xlink="http://www.w3.org/1999/xlink" x="0px" y="0px"
	 viewBox="0 0 96 96" style="enable-background:new 0 0 96 96;" xml:space="preserve">
<path d="M49,89.9c3.3-2.8,6.6-5.6,9.9-8.4c0.4-0.4,0.5-0.8,0.5-1.2c0-0.5-0.2-0.9-0.8-1.2c-0.4-0.2-0.9-0.4-1.3-0.6
	c-0.7-0.3-1.3-0.2-1.8,0.2c-1.8,1.5-3.5,3-5.2,4.4c0-23.5,0-47,0-70.5c1.8,1.5,3.5,3,5.2,4.4c0.6,0.5,1.2,0.5,1.8,0.2
	c0.4-0.2,0.9-0.4,1.3-0.6c0.8-0.4,1-1.8,0.3-2.4c-3.3-2.8-6.6-5.6-9.9-8.4c-0.7-0.6-1.5-0.6-2.1,0c-3.3,2.8-6.6,5.6-9.9,8.4
	c-0.7,0.6-0.5,2,0.3,2.4c0.4,0.2,0.9,0.4,1.3,0.6c0.7,0.3,1.3,0.2,1.8-0.2c1.8-1.5,3.5-3,5.2-4.4c0,23.5,0,47,0,70.5
	c-1.8-1.5-3.5-3-5.2-4.4c-0.6-0.5-1.2-0.5-1.8-0.2c-0.4,0.2-0.9,0.4-1.3,0.6c-0.8,0.4-1,1.8-0.3,2.4c3.3,2.8,6.6,5.6,9.9,8.4
	C47.6,90.5,48.4,90.5,49,89.9z"/>
</svg>
