<?xml version="1.0" encoding="utf-8"?>
<!-- Generator: Adobe Illustrator 23.0.3, SVG Export Plug-In . SVG Version: 6.00 Build 0)  -->
<svg version="1.1" id="Calque_1" xmlns="http://www.w3.org/2000/svg" xmlns:xlink="http://www.w3.org/1999/xlink" x="0px" y="0px"
	 viewBox="0 0 64 64" style="enable-background:new 0 0 64 64;" xml:space="preserve">
<style type="text/css">
	.st0{fill:#91C423;}
</style>
<g>
	<path class="st0" d="M57.2,14c0.2-0.9,0.3-1.8,0.3-2.7C57.6,6.2,52.3,2,48,2c-4.3,0-9.2,4.1-9.2,9.4c0,0.5,0,0.9,0.1,1.4
		c-2.6,0.8-4.7,2.7-5.9,5.1c-0.7-1.7-2-3-3.7-3.8c0.2-0.9,0.3-1.8,0.3-2.7C29.6,6.2,24.3,2,20,2c-4.3,0-9.2,4.1-9.2,9.4
		c0,0.5,0,0.9,0.1,1.4c-4,1.2-6.8,4.9-6.8,9.1c0.1,2.4,1.1,4.8,2.6,6.6C3.7,29.8,1.9,32.8,2,36c0,4.4,3.1,8,7,8c1.7,0,3.4-0.7,4.6-2
		l4.4,4.4v11.2L3.2,55c-0.5-0.1-1.1,0.2-1.2,0.8c-0.1,0.5,0.2,1.1,0.8,1.2c0,0,0,0,0.1,0l29,5c0.1,0,0.2,0,0.3,0l29-5
		c0.5-0.1,0.9-0.6,0.8-1.1c-0.1-0.5-0.6-0.9-1.1-0.8c0,0,0,0-0.1,0l-11.8,2V45.9l5.7-5.7c0.4-0.4,0.4-1,0-1.4c-0.4-0.4-1-0.4-1.4,0
		L49,43.1V32.7c1.2,0.8,2.6,1.2,4,1.3c4.6,0,9-6.3,9-11.1C62,18.6,60.2,15.3,57.2,14z M6,21.8c0-3.6,2.6-6.7,6.1-7.3
		c0.5-0.1,0.9-0.6,0.9-1.1c0,0,0-0.1,0-0.1c-0.1-0.6-0.2-1.3-0.2-1.9C13,7.4,16.1,4.3,20,4c3.4,0,7.6,3.4,7.6,7.4c0,1-0.2,2-0.5,3
		c-0.2,0.5,0.1,1.1,0.6,1.3c0,0,0.1,0,0.1,0c2.6,0.6,4.2,3.5,4.2,7.2c0,4.2-3.8,9.1-7,9.1c-2.1-0.1-4-1.3-5-3.3c0,0,0,0,0,0v-1.3
		l3.7-3.7c0.4-0.4,0.4-1,0-1.4c-0.4-0.4-1-0.4-1.4,0L20,24.6V12c0-0.6-0.4-1-1-1s-1,0.4-1,1v17.1c-0.9,1.1-2.2,1.7-3.6,1.9
		C13.2,29.1,11.2,28,9,28c-0.1,0-0.1,0-0.1,0C7.2,26.4,6.2,24.2,6,21.8z M9,42c-2.8,0-5-2.7-5-6s2.2-6,5-6s5,2.7,5,6
		c0,1-0.2,2-0.6,2.9l-3.6-3.6c-0.4-0.4-1-0.4-1.4,0c-0.4,0.4-0.4,1,0,1.4l3.9,3.9C11.4,41.5,10.2,42,9,42z M14.8,40.4
		c0.8-1.3,1.2-2.9,1.2-4.4c0-1.1-0.2-2.2-0.6-3.2c0.9-0.2,1.8-0.6,2.6-1.1v11.9L14.8,40.4z M32,41c-0.6,0-1,0.4-1,1v7.9
		c-2.8-0.6-5-3.4-5-6.9c0-3.9,2.7-7,6-7s6,3.1,6,7c0,3.5-2.2,6.3-5,6.9V42C33,41.4,32.6,41,32,41z M33,59.8v-7.9
		c3.9-0.6,7-4.3,7-8.9c0-5-3.6-9-8-9s-8,4-8,9c0,4.6,3.1,8.4,7,8.9v7.9l-11-1.9v-26c1.3,1.3,3.1,2,5,2.1c3.5,0,6.9-3.6,8.3-7.5
		C35.2,30,38.8,33,42,33c1.9,0,3.7-0.8,5-2.1v26.5L33,59.8z M53,32c-1.5,0-3-0.7-4-1.9V14c0-0.6-0.4-1-1-1s-1,0.4-1,1v10.1l-4.4-3
		c-0.5-0.3-1.1-0.2-1.4,0.3c-0.3,0.5-0.2,1.1,0.3,1.4l5.6,3.7v1.7c-0.3,0-0.5,0.2-0.6,0.4c-1,1.4-2.6,2.3-4.4,2.3
		c-3.2,0-8-4.9-8-9.1c0-3.6,2.6-6.7,6.1-7.3c0.5-0.1,0.9-0.6,0.9-1.1c0,0,0-0.1,0-0.1c-0.1-0.6-0.2-1.3-0.2-1.9
		C41,7.4,44.1,4.3,48,4c3.4,0,7.6,3.4,7.6,7.4c0,1-0.2,2-0.5,3c-0.2,0.5,0.1,1.1,0.6,1.3c0,0,0.1,0,0.1,0c2.6,0.6,4.2,3.5,4.2,7.2
		C60,27.1,56.2,32,53,32z"/>
</g>
</svg>
