<svg xmlns:dc="http://purl.org/dc/elements/1.1/" xmlns:cc="http://creativecommons.org/ns#" xmlns:rdf="http://www.w3.org/1999/02/22-rdf-syntax-ns#" xmlns:svg="http://www.w3.org/2000/svg" xmlns="http://www.w3.org/2000/svg" xmlns:sodipodi="http://sodipodi.sourceforge.net/DTD/sodipodi-0.dtd" xmlns:inkscape="http://www.inkscape.org/namespaces/inkscape" version="1.1" x="0px" y="0px" viewBox="0 0 100 100"><g transform="translate(0,-952.36218)"><path style="text-indent:0;text-transform:none;direction:ltr;block-progression:tb;baseline-shift:baseline;color:#000000;enable-background:accumulate;" d="m 9.8124599,967.3929 a 2.0001788,1.9992093 0 0 0 -1.8124809,1.99901 l 0,32.95239 a 2.0001788,1.9992093 0 0 0 1.999979,1.999 l 79.999159,0 a 2.0001788,1.9992093 0 0 0 1.999979,-1.999 l 0,-32.95239 a 2.0001788,1.9992093 0 0 0 -1.999979,-1.99901 l -79.999159,0 a 2.0001788,1.9992093 0 0 0 -0.1874981,0 z m 2.1874771,3.99802 75.999201,0 0,28.95438 -3.999958,0 0,-7.96478 a 2.0001785,1.999209 0 0 0 -2.218726,-2.03025 2.0001785,1.999209 0 0 0 -1.781232,2.03025 l 0,7.96478 -3.999958,0 0,-14.96132 a 2.000179,1.9992095 0 0 0 -2.218726,-2.03024 2.000179,1.9992095 0 0 0 -1.781231,2.03024 l 0,14.96132 -3.999958,0 0,-7.96478 a 2.0001784,1.9992089 0 0 0 -2.218727,-2.03025 2.0001784,1.9992089 0 0 0 -1.781231,2.03025 l 0,7.96478 -3.999958,0 0,-14.96132 a 2.0001792,1.9992097 0 0 0 -2.218727,-2.03024 2.0001792,1.9992097 0 0 0 -1.781231,2.03024 l 0,14.96132 -3.999958,0 0,-7.96478 a 2.0001786,1.9992091 0 0 0 -2.218727,-2.03025 2.0001786,1.9992091 0 0 0 -1.781231,2.03025 l 0,7.96478 -3.999958,0 0,-14.96132 a 2.0001792,1.9992097 0 0 0 -2.218727,-2.03024 2.0001792,1.9992097 0 0 0 -1.781231,2.03024 l 0,14.96132 -3.999958,0 0,-7.96478 a 2.0001785,1.999209 0 0 0 -2.218727,-2.03025 2.0001785,1.999209 0 0 0 -1.781231,2.03025 l 0,7.96478 -3.999958,0 0,-14.96132 a 2.0001792,1.9992097 0 0 0 -2.218727,-2.03024 2.0001792,1.9992097 0 0 0 -1.781231,2.03024 l 0,14.96132 -3.999958,0 0,-7.96478 a 2.0001785,1.999209 0 0 0 -2.218727,-2.03025 2.0001785,1.999209 0 0 0 -1.781231,2.03025 l 0,7.96478 -3.999958,0 0,-28.95438 z M 7.7812313,1009.3409 A 2.0001795,1.99921 0 0 0 6,1011.3711 l 0,15.9921 a 2.0001795,1.99921 0 1 0 3.999958,0 l 0,-15.9921 a 2.0001795,1.99921 0 0 0 -2.2187267,-2.0302 z m 83.9991177,0 a 2.0001795,1.99921 0 0 0 -1.781232,2.0302 l 0,15.9921 a 2.0001795,1.99921 0 1 0 3.999958,0 l 0,-15.9921 a 2.0001795,1.99921 0 0 0 -2.218726,-2.0302 z m -67.030546,0.031 a 2.0001792,1.9992097 0 0 0 -1.093739,0.4998 l -8.999905,7.996 a 2.0001792,1.9992097 0 0 0 0,2.9673 l 8.999905,7.996 a 2.0001792,1.9992097 0 0 0 3.343715,-1.4678 l 0,-5.997 45.999517,0 0,5.997 a 2.0001792,1.9992097 0 0 0 3.343715,1.468 l 8.999905,-7.996 a 2.0001792,1.9992097 0 0 0 0,-2.9673 l -8.999905,-7.996 a 2.0001792,1.9992097 0 0 0 -1.499984,-0.4998 2.0001792,1.9992097 0 0 0 -1.843731,1.999 l 0,5.997 -45.999517,0 0,-5.997 a 2.0001792,1.9992097 0 0 0 -2.249976,-1.999 z m -1.749982,6.4343 0,7.0902 -3.999958,-3.5295 3.999958,-3.5607 z m 53.999433,0 3.999958,3.5607 -3.999958,3.5295 0,-7.0902 z" fill="#000000" fill-opacity="1" stroke="none" marker="none" visibility="visible" display="inline" overflow="visible"></path></g></svg>