<svg xmlns="http://www.w3.org/2000/svg" xmlns:xlink="http://www.w3.org/1999/xlink" version="1.1" x="0px" y="0px" viewBox="0 0 100 100" style="enable-background:new 0 0 100 100;" xml:space="preserve"><g><rect x="8.2" y="41.9" width="8.4" height="13.9"></rect><rect x="38.9" y="11.2" width="22.3" height="8.4"></rect><polygon points="16.6,78.2 16.6,67 8.2,67 8.2,86.5 27.8,86.5 27.8,78.2  "></polygon><polygon points="16.6,19.6 27.8,19.6 27.8,11.2 8.2,11.2 8.2,30.8 16.6,30.8  "></polygon><polygon points="72.4,11.2 72.4,19.6 83.5,19.6 83.5,30.8 91.9,30.8 91.9,11.2  "></polygon><rect x="83.5" y="41.9" width="8.4" height="13.9"></rect><polygon points="83.5,78.2 72.4,78.2 72.4,86.5 91.9,86.5 91.9,67 83.5,67  "></polygon><rect x="38.9" y="78.2" width="22.3" height="8.4"></rect></g></svg>