<svg xmlns="http://www.w3.org/2000/svg" xmlns:xlink="http://www.w3.org/1999/xlink" class="icon-detail-svg" version="1.1" x="0px" y="0px" viewBox="0 0 100 100" style="enable-background:new 0 0 100 100;" xml:space="preserve"><path d="M50,5C25.19,5,5,25.19,5,50c0,24.81,20.19,45,45,45c24.81,0,45-20.19,45-45C95,25.19,74.81,5,50,5z M50,91  C27.39,91,9,72.61,9,50S27.39,9,50,9s41,18.39,41,41S72.61,91,50,91z M83,48h-6.08C75.94,34.7,65.3,24.06,52,23.08V17  c0-1.1-0.9-2-2-2s-2,0.9-2,2v6.08C34.7,24.06,24.06,34.7,23.08,48H17c-1.1,0-2,0.9-2,2s0.9,2,2,2h6.08  C24.06,65.3,34.7,75.94,48,76.92V83c0,1.1,0.9,2,2,2s2-0.9,2-2v-6.08C65.3,75.94,75.94,65.3,76.92,52H83c1.1,0,2-0.9,2-2  S84.1,48,83,48z M52,72.91V67c0-1.1-0.9-2-2-2s-2,0.9-2,2v5.91C36.91,71.95,28.05,63.09,27.09,52H33c1.1,0,2-0.9,2-2s-0.9-2-2-2  h-5.91C28.05,36.91,36.91,28.05,48,27.09V33c0,1.1,0.9,2,2,2s2-0.9,2-2v-5.91C63.09,28.05,71.95,36.91,72.91,48H67c-1.1,0-2,0.9-2,2  s0.9,2,2,2h5.91C71.95,63.09,63.09,71.95,52,72.91z"></path></svg>