<?xml version="1.0" encoding="utf-8"?>
<!-- Generator: Adobe Illustrator 23.0.3, SVG Export Plug-In . SVG Version: 6.00 Build 0)  -->
<svg version="1.1" id="Calque_1" xmlns="http://www.w3.org/2000/svg" xmlns:xlink="http://www.w3.org/1999/xlink" x="0px" y="0px"
	 viewBox="0 0 128 128" style="enable-background:new 0 0 128 128;" xml:space="preserve">
<style type="text/css">
	.st0{fill:#91C423;}
</style>
<title>Artboard 16</title>
<path class="st0" d="M61.3,69.2c-5.5,5.5-5.5,14.3,0,19.8c5.5,5.5,14.3,5.5,19.8,0c5.5-5.5,5.5-14.3,0-19.8
	c-5.4-5.5-14.2-5.5-19.7-0.1C61.4,69.1,61.3,69.1,61.3,69.2z M78.3,86.2c-3.9,3.9-10.2,3.9-14.1,0s-3.9-10.2,0-14.1s10.2-3.9,14.1,0
	c0,0,0,0,0,0C82.1,75.9,82.1,82.2,78.3,86.2L78.3,86.2z"/>
<path class="st0" d="M35.8,89c-5.5,5.5-5.5,14.3,0,19.8c5.5,5.5,14.3,5.5,19.8,0c5.5-5.5,5.5-14.3,0-19.8
	C50.2,83.5,41.3,83.5,35.8,89C35.8,89,35.8,89,35.8,89z M52.8,106c-3.9,3.9-10.2,3.9-14.1,0s-3.9-10.2,0-14.1s10.2-3.9,14.1,0
	c0,0,0,0,0,0C56.7,95.8,56.7,102.1,52.8,106L52.8,106z"/>
<path class="st0" d="M81.1,43.7c-5.5,5.5-5.5,14.3,0,19.8c5.5,5.5,14.3,5.5,19.8,0c5.5-5.5,5.5-14.3,0-19.8
	C95.4,38.3,86.5,38.3,81.1,43.7C81.1,43.7,81.1,43.7,81.1,43.7z M98.1,60.7c-3.9,3.9-10.2,3.9-14.1,0s-3.9-10.2,0-14.1
	s10.2-3.9,14.1,0c0,0,0,0,0,0C101.9,50.5,101.9,56.8,98.1,60.7L98.1,60.7z"/>
<path class="st0" d="M106.5,23.1c1.1-1.5,1.9-3.1,2.4-4.8c0.3-0.9,0.5-1.7,0.6-2.6c0.1-0.4,0.1-0.9,0.2-1.3c0-0.4,0-0.9,0-1.3
	c-0.1-1.9-1.1-3.7-2.6-4.9c-1.1-0.9-2.7-0.8-3.7,0.2l-0.2,0.2c-0.6,0.6-1.1,1.4-1.5,2.2c-0.3,0.6-0.5,1.3-0.7,1.9
	c-0.2,1.2-0.2,2.4-0.4,3.7s-0.3,2.4-0.5,3.7c-0.1,0.6-0.2,1.3-0.3,1.9l-0.2,1c0,0.2-0.1,0.4-0.1,0.6c-9.1-0.5-19.5,10-24.1,14.5
	c-3.4,3.4-5.6,7.7-6.2,12.5c-0.6,3.7-3.1,6.9-6.6,8.3c-5.2,2.2-9.4,6.4-11.7,11.6c-1.4,3.5-4.6,6-8.3,6.6c-4.7,0.7-9.1,2.8-12.5,6.2
	l0,0c-5.8,5.8-21.2,21.2-11.3,31.1c4.3,4.3,12.7,6.4,21.2,6.4s17-2.1,21.2-6.4c1.6-1.6,3-3.5,4-5.5c2-4.2,5.8-7.2,10.4-8.3
	c8.5-1.8,15.2-8.5,17-17c1-4.6,4.1-8.4,8.4-10.4c2-1,3.9-2.4,5.5-4c8.5-8.5,8.5-33.9,0-42.4c-0.6-0.6-1.2-1.1-1.9-1.6l0.1-0.1
	C105.4,24.5,106,23.8,106.5,23.1z M103.7,66.3c-1.3,1.3-2.9,2.4-4.5,3.3c-5.3,2.6-9.1,7.4-10.4,13.1c-1.5,7-6.9,12.5-13.9,13.9
	c-5.7,1.3-10.6,5.1-13.1,10.4c-0.9,1.7-2,3.2-3.3,4.5c-7,7-29.7,7-36.8,0c-4.8-4.8-1.2-12.9,11.3-25.5l0,0c2.8-2.8,6.3-4.6,10.2-5.1
	c5.1-0.8,9.4-4.2,11.4-9c1.8-4.3,5.2-7.7,9.5-9.5c4.8-2,8.2-6.3,9-11.4c0.5-3.9,2.3-7.4,5.1-10.2c12.6-12.6,20.7-16.2,25.5-11.4
	C110.7,36.6,110.7,59.3,103.7,66.3z"/>
<g>
	<g>
		<path class="st0" d="M23.9,36.1c0.1-0.1,0.2-0.3,0.3-0.4c0.5-0.9,1.1-1.7,1.8-2.4c0.5-0.5,1.2-1,1.9-1.5c0,0,0.1-0.1,0.1-0.1
			c0,0,0,0,0,0c0.2-0.1,0.3-0.2,0.5-0.3c0.1,0,0.1-0.1,0.2-0.1c3.8-2.6,4.2-7.2,4.3-8.1c0-0.2,0-0.3,0-0.5c-0.4-2.8-1.6-5.3-3.5-7.2
			c-2.4-2.4-5.6-3.6-9.1-3.6c-4,0-8.1,1.7-11.1,4.7C3.5,22.4,3,31.4,8.3,36.7c1.6,1.6,3.6,2.7,5.8,3.2c0.1,0,0.3,0.1,0.4,0.1
			c0.3,0,0.7,0,1,0C19.8,40,22.7,37.6,23.9,36.1z M19.8,32.9c-0.1,0.2-1.6,2.1-4.6,1.9c-1.2-0.3-2.3-0.9-3.2-1.8
			c-3.2-3.2-2.7-8.9,1.1-12.7c2-2,4.7-3.2,7.4-3.2c2.1,0,4,0.8,5.4,2.1c1,1,1.7,2.4,2,4c-0.1,0.7-0.4,2.7-1.9,3.7
			c-0.2,0.1-0.4,0.2-0.6,0.3c-0.2,0.1-0.4,0.2-0.5,0.3c-0.9,0.6-1.8,1.3-2.5,2C21.3,30.5,20.5,31.6,19.8,32.9z"/>
		<path class="st0" d="M19,24.9l-1.3,1.3c-1,1-1,2.7,0,3.7c0.5,0.5,1.2,0.8,1.8,0.8c0.7,0,1.3-0.3,1.8-0.8l1.3-1.3c1-1,1-2.7,0-3.7
			C21.6,23.8,20,23.8,19,24.9z"/>
		<path class="st0" d="M31.6,38.5c-0.7,0-1.5,0.1-2.2,0.2c-2.2,0.4-4.3,1.4-6,3c-0.1,0.1-0.2,0.2-0.3,0.3c-3.1,3.7-2.8,7.9-2.1,9.9
			c0,0.2,0.1,0.3,0.2,0.5c0.5,0.9,0.8,1.9,1,2.9c0.1,0.7,0.2,1.5,0.2,2.4c0,0.1,0,0.1,0,0.2c0,0.2,0,0.4,0,0.6c0,0.1,0,0.2,0,0.2
			c-0.1,4.6,3.5,7.6,4.2,8.1c0.1,0.1,0.3,0.2,0.4,0.3c1.8,0.9,3.8,1.4,5.8,1.4c0.7,0,1.5-0.1,2.2-0.2c7.3-1.3,12-9.1,10.5-17.2
			C44,43.8,38.2,38.5,31.6,38.5z M33.8,63.1c-1.5,0.3-3,0.1-4.4-0.6c-0.5-0.4-2-1.8-2-3.6c0-0.2,0-0.4,0-0.7c0-0.2,0-0.4,0-0.6
			c0-1.1-0.1-2.2-0.2-3.2c-0.3-1.4-0.7-2.7-1.3-4c0,0,0,0,0,0c0,0-0.9-2.4,1-4.9c1-0.8,2.1-1.4,3.3-1.6c0.4-0.1,0.8-0.1,1.3-0.1
			c4,0,7.7,3.5,8.6,8.3C41.1,57.3,38.3,62.2,33.8,63.1z"/>
		<path class="st0" d="M32.7,52.4c-0.3-1.4-1.6-2.4-3-2.1c-1.4,0.3-2.4,1.6-2.1,3l0.3,1.8c0.2,1.3,1.3,2.1,2.6,2.1
			c0.2,0,0.3,0,0.5,0c1.4-0.3,2.4-1.6,2.1-3L32.7,52.4z"/>
		<path class="st0" d="M65.3,25.8c0-0.1-0.1-0.3-0.1-0.4c-1.7-4.5-5.4-6.4-7.5-6.8c-0.2,0-0.3-0.1-0.5-0.1c-1-0.1-2-0.3-3-0.6
			c-0.7-0.3-1.4-0.6-2.2-1.1c0,0-0.1-0.1-0.1-0.1c0,0,0,0,0,0c-0.2-0.1-0.3-0.2-0.5-0.3c-0.1,0-0.1-0.1-0.2-0.1
			c-1.4-0.9-3-1.3-4.8-1.3c-2,0-3.7,0.6-4.3,0.8c-0.1,0.1-0.3,0.1-0.4,0.2c-2.4,1.5-4.1,3.7-5.1,6.2c-1.2,3.4-0.9,7.2,1,10.6
			c1.8,3.3,4.8,5.8,8.5,7.2c1.8,0.7,3.7,1,5.6,1c0,0,0,0,0,0c6.1,0,11.2-3.3,13.1-8.5C65.6,30.4,65.7,28.1,65.3,25.8z M59.9,30.7
			c-1.1,3.1-4.3,5.1-8.2,5.1c0,0,0,0,0,0c-1.3,0-2.6-0.2-3.9-0.7c-2.5-0.9-4.6-2.6-5.8-4.8C41,28.3,40.8,26,41.5,24
			c0.5-1.4,1.5-2.6,2.8-3.5c0.4-0.1,1.2-0.4,2.1-0.4c0.8,0,1.5,0.2,2,0.5c0.2,0.1,0.4,0.3,0.5,0.4c0.2,0.1,0.3,0.2,0.5,0.3
			c1,0.6,1.9,1.1,2.9,1.4c1.3,0.5,2.7,0.8,4.1,0.9c0.2,0,2.6,0.6,3.7,3.4C60.4,28.3,60.3,29.6,59.9,30.7z"/>
		<path class="st0" d="M53.1,23.5l-1.7-0.6c-1.4-0.5-2.9,0.2-3.3,1.6c-0.5,1.4,0.2,2.9,1.6,3.3l1.7,0.6c0.3,0.1,0.6,0.2,0.9,0.2
			c1.1,0,2.1-0.7,2.5-1.7C55.2,25.5,54.5,24,53.1,23.5z"/>
	</g>
</g>
<path class="st0" d="M39.9,93.8l-1.3,1.3c-1,1-1,2.7,0,3.7c0.5,0.5,1.2,0.8,1.8,0.8s1.3-0.3,1.8-0.8l1.3-1.3c1-1,1-2.7,0-3.7
	C42.6,92.8,40.9,92.8,39.9,93.8z"/>
<path class="st0" d="M66.4,72.9l-1.3,1.3c-1,1-1,2.7,0,3.7c0.5,0.5,1.2,0.8,1.8,0.8s1.3-0.3,1.8-0.8l1.3-1.3c1-1,1-2.7,0-3.7
	C69,71.9,67.4,71.9,66.4,72.9z"/>
<path class="st0" d="M85.6,50.9l-1.3,1.3c-1,1-1,2.7,0,3.7c0.5,0.5,1.2,0.8,1.8,0.8c0.7,0,1.3-0.3,1.8-0.8l1.3-1.3c1-1,1-2.7,0-3.7
	C88.2,49.9,86.6,49.9,85.6,50.9z"/>
</svg>
