<?xml version="1.0" encoding="UTF-8"?>
<svg width="21px" height="21px" viewBox="0 0 21 21" version="1.1" xmlns="http://www.w3.org/2000/svg" xmlns:xlink="http://www.w3.org/1999/xlink">
    <title>noun-info-2394143</title>
    <g id="Page-1" stroke="none" stroke-width="1" fill="none" fill-rule="evenodd">
        <g id="noun-info-2394143" fill="#594231" fill-rule="nonzero">
            <circle id="Oval" cx="10.5" cy="6.23" r="1.45833333"></circle>
            <path d="M11.7133333,10.2256 L11.7133333,15.0322667 C11.7133333,15.7023722 11.1701055,16.2456 10.5,16.2456 C9.8298945,16.2456 9.28666667,15.7023722 9.28666667,15.0322667 L9.28666667,10.2256 C9.28666667,9.5554945 9.8298945,9.01226667 10.5,9.01226667 C11.1701055,9.01226667 11.7133333,9.5554945 11.7133333,10.2256 L11.7133333,10.2256 Z" id="Path"></path>
            <path d="M10.5,0 C4.7012,0 0,4.7012 0,10.5 C0,16.2988 4.7012,21 10.5,21 C16.2988,21 21,16.2988 21,10.5 C21,4.7012 16.2988,0 10.5,0 Z M16.6044667,16.6044667 C14.4298503,18.816484 11.2356951,19.6918441 8.23719012,18.8975237 C5.23868517,18.1032033 2.89679669,15.7613148 2.10247629,12.7628099 C1.30815588,9.76430494 2.18351601,6.57014966 4.39553333,4.39553333 C6.57014966,2.18351601 9.76430494,1.30815588 12.7628099,2.10247629 C15.7613148,2.89679669 18.1032033,5.23868517 18.8975237,8.23719012 C19.6918441,11.2356951 18.816484,14.4298503 16.6044667,16.6044667 Z" id="Shape"></path>
            <path d="M10.5,0 C4.7012,0 0,4.7012 0,10.5 C0,16.2988 4.7012,21 10.5,21 C16.2988,21 21,16.2988 21,10.5 C21,4.7012 16.2988,0 10.5,0 Z M16.6044667,16.6044667 C14.4298503,18.816484 11.2356951,19.6918441 8.23719012,18.8975237 C5.23868517,18.1032033 2.89679669,15.7613148 2.10247629,12.7628099 C1.30815588,9.76430494 2.18351601,6.57014966 4.39553333,4.39553333 C6.57014966,2.18351601 9.76430494,1.30815588 12.7628099,2.10247629 C15.7613148,2.89679669 18.1032033,5.23868517 18.8975237,8.23719012 C19.6918441,11.2356951 18.816484,14.4298503 16.6044667,16.6044667 Z" id="Shape"></path>
        </g>
    </g>
</svg>
