<?xml version="1.0" encoding="UTF-8"?>
<svg width="26px" height="26px" viewBox="0 0 26 26" version="1.1" xmlns="http://www.w3.org/2000/svg" xmlns:xlink="http://www.w3.org/1999/xlink">
    <title>Group 3</title>
    <g id="Symbols" stroke="none" stroke-width="1" fill="none" fill-rule="evenodd">
        <g id="Rectangle-Copy-3" transform="translate(-113.000000, -7.000000)">
            <g id="Group-3" transform="translate(113.000000, 7.000000)">
                <circle id="Oval" fill="#594231" cx="13" cy="13" r="13"></circle>
                <g id="noun-list-1015747" transform="translate(7.000000, 8.000000)" fill="#FFFFFF" fill-rule="nonzero">
                    <path d="M0,10 C0,9.3372583 0.5372583,8.8 1.2,8.8 C1.8627417,8.8 2.4,9.3372583 2.4,10 C2.4,10.6627417 1.8627417,11.2 1.2,11.2 C0.5372583,11.2 0,10.6627417 0,10 Z M1.2,2.4 C1.8627417,2.4 2.4,1.8627417 2.4,1.2 C2.4,0.5372583 1.8627417,1.77635684e-15 1.2,1.77635684e-15 C0.5372583,1.77635684e-15 0,0.5372583 0,1.2 C0,1.8627417 0.5372583,2.4 1.2,2.4 L1.2,2.4 Z M1.2,6.8 C1.8627417,6.8 2.4,6.2627417 2.4,5.6 C2.4,4.9372583 1.8627417,4.4 1.2,4.4 C0.5372583,4.4 0,4.9372583 0,5.6 C0,6.2627417 0.5372583,6.8 1.2,6.8 Z M5.2,2 L11.2,2 C11.6418278,2 12,1.6418278 12,1.2 C12,0.758172205 11.6418278,0.4 11.2,0.4 L5.2,0.4 C4.7581722,0.4 4.4,0.7581722 4.4,1.2 C4.4,1.6418278 4.7581722,2 5.2,2 L5.2,2 Z M5.2,6.4 L11.2,6.4 C11.6418278,6.4 12,6.04182779 12,5.6 C12,5.15817221 11.6418278,4.8 11.2,4.8 L5.2,4.8 C4.7581722,4.8 4.4,5.1581722 4.4,5.6 C4.4,6.0418278 4.7581722,6.4 5.2,6.4 L5.2,6.4 Z M5.2,10.8 L11.2,10.8 C11.6418278,10.8 12,10.4418278 12,10 C12,9.5581722 11.6418278,9.2 11.2,9.2 L5.2,9.2 C4.7581722,9.2 4.4,9.5581722 4.4,10 C4.4,10.4418278 4.7581722,10.8 5.2,10.8 Z" id="Shape"></path>
                </g>
            </g>
        </g>
    </g>
</svg>
