<?xml version="1.0" encoding="UTF-8"?>
<svg width="318px" height="153px" viewBox="0 0 318 153" version="1.1" xmlns="http://www.w3.org/2000/svg" xmlns:xlink="http://www.w3.org/1999/xlink">
    <title>parvcours2</title>
    <defs>
        <polygon id="path-1" points="51.4855811 0 -1.0128523e-14 77.562999 284.941477 77.562999 233.455183 0"></polygon>
        <polygon id="path-3" points="51.4855811 0 -1.0128523e-14 77.562999 284.941477 77.562999 233.455183 0"></polygon>
        <path d="M52.027257,0 L0,78.3790765 L286.462446,78.3790765 L234.435189,0 L52.027257,0 Z M52.4655868,0.816790231 L233.996146,0.816790231 L284.940764,77.5622863 L1.52168163,77.5622863 L52.4655868,0.816790231 Z" id="path-5"></path>
        <polygon id="path-7" points="0 0 12.6310266 0 12.6310266 12.631668 0 12.631668"></polygon>
        <polygon id="path-9" points="0 257.544793 423.633314 257.544793 423.633314 0 0 0"></polygon>
    </defs>
    <g id="home-2021" stroke="none" stroke-width="1" fill="none" fill-rule="evenodd">
        <g id="accueil-schema-outil-calcul-copy" transform="translate(-55.000000, -1076.000000)">
            <g id="Group" transform="translate(57.000000, 1079.054900)">
                <g id="Group-140" transform="translate(-47.753007, -2.138194)">
                    <polygon id="Fill-1" fill="#C5DB86" points="125.506447 40.2007616 74.0201536 117.763761 358.962343 117.763761 307.47605 40.2007616"></polygon>
                    <g id="Group-4" transform="translate(74.020724, 40.200904)">
                        <mask id="mask-2" fill="white">
                            <use xlink:href="#path-1"></use>
                        </mask>
                        <g id="Clip-3"></g>
                        <polygon id="Fill-2" fill="#bdc660" mask="url(#mask-2)" points="197.303734 216.516337 -73.6767595 29.9460529 -73.0630978 29.0537132 197.917396 215.623997"></polygon>
                    </g>
                    <polygon id="Fill-5" fill="#bdc660" points="81.243758 106.882133 98.523219 117.764117 100.556642 117.764117 81.8431651 105.979103"></polygon>
                    <polygon id="Fill-6" fill="#bdc660" points="88.9025562 95.344223 127.541153 117.763903 129.700017 117.763903 89.5026761 94.4397668"></polygon>
                    <polygon id="Fill-7" fill="#bdc660" points="95.738506 85.0458951 156.558731 117.763832 158.845173 117.763832 96.3400513 84.1393007"></polygon>
                    <polygon id="Fill-8" fill="#bdc660" points="101.876834 75.798561 185.572887 117.764188 187.990472 117.764188 102.480518 74.8891157"></polygon>
                    <polygon id="Fill-9" fill="#bdc660" points="107.420032 67.4477719 214.588469 117.763761 217.136484 117.763761 108.025853 66.5354756"></polygon>
                    <polygon id="Fill-10" fill="#bdc660" points="112.450063 59.8700825 243.601913 117.763832 246.283922 117.763832 113.058023 58.9542226"></polygon>
                    <polygon id="Fill-11" fill="#bdc660" points="117.035349 52.9624319 272.616782 117.763974 275.432784 117.763974 117.645447 52.0430083"></polygon>
                    <polygon id="Fill-12" fill="#bdc660" points="121.232268 46.6397913 301.629585 117.763974 304.582431 117.763974 121.844504 45.7168041"></polygon>
                    <polygon id="Fill-13" fill="#bdc660" points="125.506447 40.2007616 125.088074 40.8315289 330.640534 117.763761 333.732363 117.763761 126.494293 40.2007616"></polygon>
                    <polygon id="Fill-14" fill="#bdc660" points="141.905044 40.2007616 358.747882 117.441606 357.74792 115.935604 145.133717 40.2007616"></polygon>
                    <polygon id="Fill-15" fill="#bdc660" points="160.407623 40.2007616 350.310639 104.731466 349.329921 103.253974 163.774566 40.2007616"></polygon>
                    <polygon id="Fill-16" fill="#bdc660" points="178.911628 40.2007616 342.820616 93.4467893 341.857003 91.9956681 182.415416 40.2007616"></polygon>
                    <polygon id="Fill-17" fill="#bdc660" points="197.411642 40.2007616 336.126998 83.3630649 335.17764 81.9333256 201.05655 40.2007616"></polygon>
                    <polygon id="Fill-18" fill="#bdc660" points="215.91137 40.2007616 330.108765 74.2964083 329.172236 72.8859127 219.700251 40.2007616"></polygon>
                    <polygon id="Fill-19" fill="#bdc660" points="234.412738 40.2007616 324.668058 66.0999967 323.743646 64.7080322 238.340601 40.2007616"></polygon>
                    <polygon id="Fill-20" fill="#bdc660" points="252.914391 40.2007616 319.725836 58.6555168 318.812827 57.2792324 256.983375 40.2007616"></polygon>
                    <polygon id="Fill-21" fill="#bdc660" points="271.415046 40.2007616 315.217382 51.8631862 314.313639 50.5018691 275.625151 40.2007616"></polygon>
                    <polygon id="Fill-22" fill="#bdc660" points="289.914775 40.2007616 311.087887 45.6417534 310.191984 44.2918401 294.270989 40.2007616"></polygon>
                    <g id="Group-25" transform="translate(74.020724, 40.200904)">
                        <mask id="mask-4" fill="white">
                            <use xlink:href="#path-3"></use>
                        </mask>
                        <g id="Clip-24"></g>
                        <polygon id="Fill-23" fill="#bdc660" mask="url(#mask-4)" points="349.350804 28.5473175 120.884028 -28.1889561 121.1456 -29.240235 349.612376 27.4960386"></polygon>
                    </g>
                    <polygon id="Stroke-26" stroke="#bdc660" stroke-width="1.146" points="358.961702 117.763689 74.0209376 117.763689 125.506519 40.2006903 307.476121 40.2006903"></polygon>
                    <line x1="50.4458484" y1="117.90702" x2="103.482333" y2="41.8236511" id="Fill-27" fill="#594231"></line>
                    <polygon id="Fill-28" fill="#594231" points="51.3229357 118.518329 49.5689037 117.295995 102.605388 41.2119137 104.35942 42.4342481"></polygon>
                    <polygon id="Fill-29" fill="#594231" points="61.1363924 117.134419 60.7073281 115.141622 50.8944416 117.266987 49.4917861 107.32367 47.4740434 107.610189 49.1845989 119.720208"></polygon>
                    <polygon id="Fill-30" fill="#594231" points="48.2868424 121.007972 46.265536 106.702026 50.4008038 106.114735 51.7920556 115.978226 61.5272543 113.869966 62.4060522 117.953917"></polygon>
                    <polygon id="Fill-31" fill="#594231" points="106.45592 52.1209099 104.438177 52.4074279 103.036947 42.465537 93.2226353 44.5894767 92.793571 42.5973924 104.74679 40.0130282"></polygon>
                    <polygon id="Fill-32" fill="#594231" points="103.529088 53.6165768 102.139262 43.7537991 92.4026378 45.8599205 91.5231272 41.7781076 105.645188 38.7247661 107.663643 53.0292861"></polygon>
                    <path d="M73.2442741,141.898843 L359.639723,141.898843 L73.2442741,141.898843 Z" id="Fill-33" fill="#594231"></path>
                    <polygon id="Fill-34" fill="#594231" points="73.2445592 142.968225 359.640008 142.968225 359.640008 140.830031 73.2445592 140.830031"></polygon>
                    <polygon id="Fill-35" fill="#594231" points="353.080884 133.57079 351.73097 135.062537 358.879667 141.896918 351.73097 148.734151 353.080884 150.225185 361.786185 141.896918"></polygon>
                    <polygon id="Fill-36" fill="#594231" points="353.026217 151.757059 350.24015 148.680197 357.33254 141.897132 350.24015 135.115493 353.026217 132.038631 363.333026 141.897132"></polygon>
                    <polygon id="Fill-37" fill="#594231" points="79.8029714 133.57079 81.1528847 135.062537 74.0041884 141.896918 81.1528847 148.734151 79.8029714 150.225185 71.0976696 141.896918"></polygon>
                    <polygon id="Fill-38" fill="#594231" points="79.857923 151.757059 69.5511136 141.897132 79.857923 132.038631 82.6439902 135.115493 75.5508869 141.897132 82.6439902 148.680197"></polygon>
                    <path d="M74.4373153,118.182847 L357.856398,118.182847 L306.912493,41.4373507 L125.381933,41.4373507 L74.4373153,118.182847 Z M359.37808,118.999637 L72.9156336,118.999637 L124.942891,40.6212732 L307.350823,40.6212732 L359.37808,118.999637 Z" id="Fill-39" fill="#bdc660"></path>
                    <g id="Group-42" transform="translate(72.915990, 40.620703)">
                        <mask id="mask-6" fill="white">
                            <use xlink:href="#path-5"></use>
                        </mask>
                        <g id="Clip-41"></g>
                        <polygon id="Fill-40" fill="#bdc660" mask="url(#mask-6)" points="198.063933 216.92409 -72.9158475 30.3538066 -72.3021857 29.4614668 198.677595 216.031751"></polygon>
                    </g>
                    <path d="M80.5539765,107.492659 L81.2446133,107.927425 L81.8440204,107.025107 L81.1533836,106.589628 L80.5539765,107.492659 Z M97.5291012,118.182918 L98.8255597,118.999708 L100.858982,118.999708 L99.562524,118.182918 L97.5291012,118.182918 Z" id="Fill-43" fill="#bdc660"></path>
                    <path d="M88.2049347,95.9666513 L88.9119643,96.3771847 L89.5120841,95.4727285 L88.8050546,95.0629079 L88.2049347,95.9666513 Z M126.492155,118.183203 L127.8998,118.999281 L130.05795,118.999281 L128.651018,118.183203 L126.492155,118.183203 Z" id="Fill-44" fill="#bdc660"></path>
                    <path d="M95.0334721,85.6795134 L95.755469,86.067952 L96.3570144,85.1613576 L95.6350174,84.772919 L95.0334721,85.6795134 Z M155.453854,118.182918 L156.971972,118.999708 L159.258415,118.999708 L157.740297,118.182918 L155.453854,118.182918 Z" id="Fill-45" fill="#bdc660"></path>
                    <path d="M101.165457,76.4418012 L101.900283,76.8102833 L102.504679,75.900838 L101.769141,75.5323559 L101.165457,76.4418012 Z M184.413915,118.182918 L186.042506,118.999708 L188.460091,118.999708 L186.8315,118.182918 L184.413915,118.182918 Z" id="Fill-46" fill="#bdc660"></path>
                    <path d="M106.702596,68.1001349 L107.449539,68.4507988 L108.055361,67.5385026 L107.307705,67.1878387 L106.702596,68.1001349 Z M213.37426,118.183061 L215.113325,118.999138 L217.660627,118.999138 L215.921562,118.183061 L213.37426,118.183061 Z" id="Fill-47" fill="#bdc660"></path>
                    <path d="M111.727282,60.5305707 L112.484915,60.8648417 L113.092875,59.9496946 L112.335242,59.6147108 L111.727282,60.5305707 Z M242.332467,118.182704 L244.182005,118.999494 L246.864726,118.999494 L245.014476,118.182704 L242.332467,118.182704 Z" id="Fill-48" fill="#bdc660"></path>
                    <path d="M116.307793,53.6301187 L117.075405,53.9501351 L117.685503,53.0314243 L116.917891,52.7114079 L116.307793,53.6301187 Z M271.290532,118.182918 L273.251256,118.999708 L276.067258,118.999708 L274.106534,118.182918 L271.290532,118.182918 Z" id="Fill-49" fill="#bdc660"></path>
                    <path d="M120.499794,47.3148905 L121.276671,47.621365 L121.888908,46.6983778 L121.11203,46.3919033 L120.499794,47.3148905 Z M300.247812,118.183203 L302.31901,118.999281 L305.272569,118.999281 L303.201372,118.183203 L300.247812,118.183203 Z" id="Fill-50" fill="#bdc660"></path>
                    <path d="M124.943247,40.6209168 L124.35168,41.5125438 L125.136397,41.8061892 L125.381577,41.437707 L127.241806,41.437707 L125.060135,40.6209168 L124.943247,40.6209168 Z M329.204238,118.18249 L331.385909,118.999281 L334.477738,118.999281 L332.296067,118.18249 L329.204238,118.18249 Z" id="Fill-51" fill="#bdc660"></path>
                    <path d="M140.417573,40.6209168 L142.709717,41.437707 L145.936965,41.437707 L143.644821,40.6209168 L140.417573,40.6209168 Z M357.762888,118.04137 L359.045804,118.49823 L358.045842,116.992229 L356.762925,116.535368 L357.762888,118.04137 Z" id="Fill-52" fill="#bdc660"></path>
                    <path d="M158.865058,40.6209168 L161.268389,41.437707 L164.634619,41.437707 L162.232002,40.6209168 L158.865058,40.6209168 Z M349.333983,105.343346 L350.599081,105.773836 L349.618363,104.296344 L348.353265,103.866567 L349.333983,105.343346 Z" id="Fill-53" fill="#bdc660"></path>
                    <path d="M177.311332,40.6209168 L179.825136,41.437707 L183.330349,41.437707 L180.816545,40.6209168 L177.311332,40.6209168 Z M341.8518,94.0722112 L343.101218,94.4784681 L342.137605,93.0266342 L340.888187,92.6203772 L341.8518,94.0722112 Z" id="Fill-54" fill="#bdc660"></path>
                    <path d="M195.756537,40.6209168 L198.380814,41.437707 L202.027148,41.437707 L199.402871,40.6209168 L195.756537,40.6209168 Z M335.164668,83.9977523 L336.399832,84.3826272 L335.450474,82.952888 L334.21531,82.5687257 L335.164668,83.9977523 Z" id="Fill-55" fill="#bdc660"></path>
                    <path d="M214.203095,40.6209168 L216.937846,41.437707 L220.726726,41.437707 L217.991976,40.6209168 L214.203095,40.6209168 Z M329.152422,74.9410739 L330.374757,75.3059923 L329.438227,73.8954968 L328.215893,73.5305783 L329.152422,74.9410739 Z" id="Fill-56" fill="#bdc660"></path>
                    <path d="M232.648799,40.6209168 L235.494736,41.437707 L239.421886,41.437707 L236.576662,40.6209168 L232.648799,40.6209168 Z M323.717346,66.7539278 L324.928277,67.101028 L324.004577,65.7090635 L322.792933,65.3612506 L323.717346,66.7539278 Z" id="Fill-57" fill="#bdc660"></path>
                    <path d="M251.094146,40.6209168 L254.050556,41.437707 L258.118827,41.437707 L255.16313,40.6209168 L251.094146,40.6209168 Z M318.780826,59.3172879 L319.981778,59.6487081 L319.068056,58.2724237 L317.867104,57.9410035 L318.780826,59.3172879 Z" id="Fill-58" fill="#bdc660"></path>
                    <path d="M269.540562,40.6209168 L272.607446,41.437707 L276.81755,41.437707 L273.750667,40.6209168 L269.540562,40.6209168 Z M314.276577,52.5320846 L315.468264,52.8492501 L314.56452,51.4879331 L313.372833,51.1707676 L314.276577,52.5320846 Z" id="Fill-59" fill="#bdc660"></path>
                    <path d="M287.984199,40.6209168 L291.161556,41.437707 L295.517057,41.437707 L292.338988,40.6209168 L287.984199,40.6209168 Z M310.151572,46.3177792 L311.333994,46.6214028 L310.43809,45.2722022 L309.255669,44.9685786 L310.151572,46.3177792 Z" id="Fill-60" fill="#bdc660"></path>
                    <polygon id="Fill-61" fill="#bdc660" points="306.431613 40.6209168 307.53207 40.8938929 307.351036 40.6209168"></polygon>
                    <path d="M124.943247,40.6209168 L72.91599,118.999281 L359.378436,118.999281 L307.351179,40.6209168 L124.943247,40.6209168 Z M125.381577,41.437707 L306.912136,41.437707 L357.856754,118.18249 L74.4376716,118.18249 L125.381577,41.437707 Z" id="Fill-62" fill="#bdc660"></path>
                    <polygon id="Fill-63" fill="#594231" points="361.46902 121.0734 71.6460451 121.0734 72.8819214 119.17896 124.779461 39.6588006 134.537467 39.6588006 134.537467 42.1091713 126.105854 42.1091713 76.1690389 118.62303 356.946026 118.62303 307.00921 42.1091713 296.71523 42.1091713 296.71523 39.6588006 308.335604 39.6588006 308.697671 40.2147312"></polygon>
                    <g id="Group-139">
                        <path d="M185.671743,32.9436588 L185.81714,32.0384899 L188.100732,17.8643997 C188.587527,15.9264829 190.377909,14.5295293 192.439128,14.5295293 L196.943591,14.5295293 C199.006236,14.5295293 200.795192,15.9264829 201.296242,17.9271201 L204.665323,28.5211602 C204.671025,28.540404 204.658909,28.5033419 204.665323,28.5211602" id="Fill-64" fill="#FFFFFF"></path>
                        <path d="M186.880393,33.138092 L184.462095,32.7496533 L186.913179,17.5656227 C187.543946,15.0575208 189.816134,13.3049142 192.439698,13.3049142 L196.943448,13.3049142 C199.554896,13.3049142 201.823521,15.0653608 202.474244,17.5905683 L206.204681,29.3214151 L203.894005,30.0519648 L203.119979,27.7883298 L203.144212,27.7783515 L200.107976,18.2241866 C199.74377,16.7702144 198.443035,15.7545721 196.943448,15.7545721 L192.439698,15.7545721 C190.98145,15.7545721 189.668599,16.7445561 189.300829,18.1165641 L186.880393,33.138092 Z" id="Fill-66" fill="#594231"></path>
                        <path d="M199.80927,6.31615475 C199.80927,9.12788028 197.529955,11.4071954 194.71823,11.4071954 C191.907217,11.4071954 189.627902,9.12788028 189.627902,6.31615475 C189.627902,3.50442922 191.907217,1.22511407 194.71823,1.22511407 C197.529955,1.22511407 199.80927,3.50442922 199.80927,6.31615475" id="Fill-68" fill="#FFFFFF"></path>
                        <g id="Group-72" transform="translate(188.402859, 0.000000)">
                            <mask id="mask-8" fill="white">
                                <use xlink:href="#path-7"></use>
                            </mask>
                            <g id="Clip-71"></g>
                            <path d="M6.31551329,2.45029942 C4.18373356,2.45029942 2.44965796,4.18437501 2.44965796,6.31615475 C2.44965796,8.44793449 4.18373356,10.1820101 6.31551329,10.1820101 C8.44729303,10.1820101 10.1813686,8.44793449 10.1813686,6.31615475 C10.1813686,4.18437501 8.44729303,2.45029942 6.31551329,2.45029942 M6.31551329,12.631668 C2.83310748,12.631668 0,9.79856057 0,6.31615475 C0,2.83374893 2.83310748,-7.12731441e-05 6.31551329,-7.12731441e-05 C9.79791911,-7.12731441e-05 12.6310266,2.83374893 12.6310266,6.31615475 C12.6310266,9.79856057 9.79791911,12.631668 6.31551329,12.631668" id="Fill-70" fill="#594231" mask="url(#mask-8)"></path>
                        </g>
                        <line x1="148.122913" y1="65.1746575" x2="148.122913" y2="89.3191477" id="Fill-73" fill="#FFFFFF"></line>
                        <mask id="mask-10" fill="white">
                            <use xlink:href="#path-9"></use>
                        </mask>
                        <g id="Clip-76"></g>
                        <polygon id="Fill-75" fill="#594231" mask="url(#mask-10)" points="146.897514 89.3195041 149.347884 89.3195041 149.347884 65.1750138 146.897514 65.1750138"></polygon>
                        <path d="M167.965855,89.3192903 L165.515484,89.3192903 L165.515484,66.392858 L148.13339,66.3051921 C145.608182,66.2930756 143.552665,64.2282927 143.552665,61.7016597 L143.552665,32.7391049 L146.003036,32.7391049 L146.003036,61.7016597 C146.003036,62.8840812 146.963798,63.850545 148.145506,63.8562469 L166.892481,63.9496147 C167.567438,63.9531783 168.112678,64.5026943 168.111255,65.1776509 C168.110539,65.3864813 168.057797,65.5824824 167.965855,65.7542507 L167.965855,89.3192903 Z" id="Fill-77" fill="#594231" mask="url(#mask-10)"></path>
                        <path d="M166.74067,50.6295193 L161.649629,50.6295193 L161.649629,49.7022557 L161.649629,35.35711 C161.649629,32.6259231 158.886369,29.9752749 155.39541,29.9752749 C151.904452,29.9752749 149.431987,32.6259231 149.431987,35.35711 L149.431987,55.4290528 C149.431987,58.0960939 151.544523,60.2642229 154.186618,60.3654308 C154.573631,60.4623623 154.97775,60.5200935 155.39541,60.5200935 L176.340449,60.5200935" id="Fill-78" fill="#FFFFFF" mask="url(#mask-10)"></path>
                        <path d="M176.340449,61.7454927 L155.39541,61.7454927 C154.942113,61.7454927 154.4767,61.6906124 154.011286,61.5822772 C150.746976,61.3912652 148.206801,58.7128204 148.206801,55.4299794 L148.206801,35.3573238 C148.206801,31.7138407 151.431911,28.7503034 155.39541,28.7503034 C159.379579,28.7503034 162.874814,31.837856 162.874814,35.3573238 L162.874814,49.4045478 L166.74067,49.4045478 L166.74067,51.8542058 L160.425156,51.8542058 L160.425156,35.3573238 C160.425156,33.3951742 158.274133,31.2006741 155.39541,31.2006741 C152.560878,31.2006741 150.657172,33.3495594 150.657172,35.3573238 L150.657172,55.4299794 C150.657172,57.4341802 152.228032,59.064197 154.233658,59.1418847 L154.485965,59.1775213 C154.796716,59.2559218 155.103191,59.295122 155.39541,59.295122 L176.340449,59.295122 L176.340449,61.7454927 Z" id="Fill-79" fill="#594231" mask="url(#mask-10)"></path>
                        <path d="M160.922643,21.1029801 C160.922643,23.9147057 158.643328,26.1940208 155.831602,26.1940208 C153.020589,26.1940208 150.741274,23.9147057 150.741274,21.1029801 C150.741274,18.2912546 153.020589,16.0119394 155.831602,16.0119394 C158.643328,16.0119394 160.922643,18.2912546 160.922643,21.1029801" id="Fill-80" fill="#FFFFFF" mask="url(#mask-10)"></path>
                        <path d="M155.83203,17.2373386 C153.70025,17.2373386 151.966174,18.9714142 151.966174,21.1031939 C151.966174,23.2349737 153.70025,24.9690493 155.83203,24.9690493 C157.96381,24.9690493 159.697885,23.2349737 159.697885,21.1031939 C159.697885,18.9714142 157.96381,17.2373386 155.83203,17.2373386 M155.83203,27.4187072 C152.349624,27.4187072 149.516516,24.5855998 149.516516,21.1031939 C149.516516,17.6207881 152.349624,14.7869679 155.83203,14.7869679 C159.314436,14.7869679 162.147543,17.6207881 162.147543,21.1031939 C162.147543,24.5855998 159.314436,27.4187072 155.83203,27.4187072" id="Fill-81" fill="#594231" mask="url(#mask-10)"></path>
                        <line x1="284.992295" y1="65.4655232" x2="284.992295" y2="89.6107262" id="Fill-82" fill="#FFFFFF" mask="url(#mask-10)"></line>
                        <polygon id="Fill-83" fill="#594231" mask="url(#mask-10)" points="283.766896 89.6102985 286.217266 89.6102985 286.217266 65.4658083 283.766896 65.4658083"></polygon>
                        <path d="M266.374324,90.2533961 C265.697942,90.2533961 265.149139,89.7045929 265.149139,89.0282108 L265.149139,65.4631712 C265.057196,65.2921156 265.004454,65.0954017 265.003739,64.8865714 C265.002316,64.2116147 265.547556,63.6620988 266.222512,63.6592479 L284.969487,63.5658801 C286.151196,63.5594655 287.112671,62.5930016 287.112671,61.4105802 L287.112671,32.4480254 C287.112671,31.7716432 287.660761,31.2235528 288.337143,31.2235528 C289.014238,31.2235528 289.562329,31.7716432 289.562329,32.4480254 L289.562329,61.4105802 C289.562329,63.9372131 287.506811,66.0027089 284.981604,66.0141126 L267.59951,66.1017785 L267.59951,89.0282108 C267.59951,89.7045929 267.050706,90.2533961 266.374324,90.2533961" id="Fill-84" fill="#594231" mask="url(#mask-10)"></path>
                        <path d="M266.374538,50.3385824 L271.465579,50.3385824 L271.465579,49.4113187 L271.465579,35.066173 C271.465579,32.3349862 274.228838,29.6843379 277.719797,29.6843379 C281.210756,29.6843379 283.683221,32.3349862 283.683221,35.066173 L283.683221,55.1381159 C283.683221,57.8051569 281.570685,59.973286 278.92859,60.0744938 C278.541576,60.1714253 278.137458,60.2291566 277.719797,60.2291566 L257.647141,60.2291566" id="Fill-85" fill="#FFFFFF" mask="url(#mask-10)"></path>
                        <path d="M277.719583,61.4545557 L257.64764,61.4545557 L257.64764,59.004185 L277.719583,59.004185 C278.011803,59.004185 278.318278,58.9649848 278.629029,58.8865843 L278.881335,58.8509478 C280.886962,58.77326 282.457822,57.1432432 282.457822,55.1390424 L282.457822,35.0663869 C282.457822,33.0586224 280.554829,30.9097371 277.719583,30.9097371 C274.840861,30.9097371 272.689837,33.1042372 272.689837,35.0663869 L272.689837,51.5632688 L266.374324,51.5632688 L266.374324,49.1136108 L270.240179,49.1136108 L270.240179,35.0663869 C270.240179,31.546919 273.735414,28.4593664 277.719583,28.4593664 C281.683796,28.4593664 284.908193,31.4229037 284.908193,35.0663869 L284.908193,55.1390424 C284.908193,58.4218834 282.368018,61.1003282 279.103708,61.2913402 C278.638294,61.3996754 278.173593,61.4545557 277.719583,61.4545557" id="Fill-86" fill="#594231" mask="url(#mask-10)"></path>
                        <path d="M272.192565,20.8121144 C272.192565,23.62384 274.47188,25.9031551 277.283605,25.9031551 C280.094618,25.9031551 282.373933,23.62384 282.373933,20.8121144 C282.373933,18.0003889 280.094618,15.7210737 277.283605,15.7210737 C274.47188,15.7210737 272.192565,18.0003889 272.192565,20.8121144" id="Fill-87" fill="#FFFFFF" mask="url(#mask-10)"></path>
                        <path d="M277.283178,16.9464016 C275.151398,16.9464016 273.417322,18.6804772 273.417322,20.812257 C273.417322,22.9440367 275.151398,24.6781123 277.283178,24.6781123 C279.414958,24.6781123 281.149033,22.9440367 281.149033,20.812257 C281.149033,18.6804772 279.414958,16.9464016 277.283178,16.9464016 M277.283178,27.1277703 C273.800772,27.1277703 270.967664,24.2946628 270.967664,20.812257 C270.967664,17.3298512 273.800772,14.4960309 277.283178,14.4960309 C280.765584,14.4960309 283.598691,17.3298512 283.598691,20.812257 C283.598691,24.2946628 280.765584,27.1277703 277.283178,27.1277703" id="Fill-88" fill="#594231" mask="url(#mask-10)"></path>
                        <path d="M225.555696,28.8738197 C225.56211,28.8560015 226.387453,27.3008215 226.393868,27.2822904 L229.1108,17.9276903 C229.611138,15.9270531 231.400806,14.5300995 233.462738,14.5300995 L237.967201,14.5300995 C240.029133,14.5300995 241.818802,15.9270531 242.305597,17.8642572 L244.43025,31.0490761 L244.589189,32.0383473" id="Fill-89" fill="#FFFFFF" mask="url(#mask-10)"></path>
                        <path d="M243.380396,32.2332794 L241.10607,18.1162078 C240.737588,16.7449125 239.425449,15.7549285 237.967201,15.7549285 L233.462738,15.7549285 C231.963151,15.7549285 230.662416,16.7705708 230.298923,18.2245429 L227.569162,27.6233324 C227.532813,27.7523368 227.532813,27.7523368 226.983297,28.7907865 C226.823645,29.0944101 226.677535,29.368099 226.651164,29.4215539 L225.632671,28.9005472 L224.403209,28.4586537 C224.435282,28.3695623 224.435282,28.3695623 224.818019,27.6454271 C224.983372,27.3339635 225.164406,26.9911396 225.249934,26.8279241 L227.93408,17.5852228 C228.559146,15.0835355 230.837748,13.3045578 233.462738,13.3045578 L237.967201,13.3045578 C240.590053,13.3045578 242.86224,15.0571644 243.493008,17.5659791 L243.51439,17.6693251 L245.798694,31.8434153 L243.380396,32.2332794 Z" id="Fill-90" fill="#594231" mask="url(#mask-10)"></path>
                        <path d="M230.59713,6.31615475 C230.59713,9.12788028 232.876445,11.4071954 235.688171,11.4071954 C238.499184,11.4071954 240.778499,9.12788028 240.778499,6.31615475 C240.778499,3.50442922 238.499184,1.22511407 235.688171,1.22511407 C232.876445,1.22511407 230.59713,3.50442922 230.59713,6.31615475" id="Fill-91" fill="#FFFFFF" mask="url(#mask-10)"></path>
                        <path d="M235.687886,2.45029942 C233.556106,2.45029942 231.82203,4.18437501 231.82203,6.31615475 C231.82203,8.44793449 233.556106,10.1820101 235.687886,10.1820101 C237.819666,10.1820101 239.553741,8.44793449 239.553741,6.31615475 C239.553741,4.18437501 237.819666,2.45029942 235.687886,2.45029942 M235.687886,12.631668 C232.20548,12.631668 229.372373,9.79856057 229.372373,6.31615475 C229.372373,2.83374893 232.20548,-7.12731441e-05 235.687886,-7.12731441e-05 C239.170292,-7.12731441e-05 242.003399,2.83374893 242.003399,6.31615475 C242.003399,9.79856057 239.170292,12.631668 235.687886,12.631668" id="Fill-92" fill="#594231" mask="url(#mask-10)"></path>
                        <path d="M266.229069,48.7386428 C266.229069,59.9042936 244.023209,68.9559829 216.630089,68.9559829 C189.237681,68.9559829 167.03182,59.9042936 167.03182,48.7386428 C167.03182,37.5729921 189.237681,28.5213028 216.630089,28.5213028 C244.023209,28.5213028 266.229069,37.5729921 266.229069,48.7386428" id="Fill-93" fill="#FFFFFF" mask="url(#mask-10)"></path>
                        <path d="M216.630017,29.7456328 C190.408628,29.7456328 168.256934,38.4430946 168.256934,48.7385003 C168.256934,59.0339059 190.408628,67.7313677 216.630017,67.7313677 C242.851407,67.7313677 265.003813,59.0339059 265.003813,48.7385003 C265.003813,38.4430946 242.851407,29.7456328 216.630017,29.7456328 M216.630017,70.1810257 C188.131451,70.1810257 165.806564,60.7629924 165.806564,48.7385003 C165.806564,36.7147209 188.131451,27.2952622 216.630017,27.2952622 C245.129297,27.2952622 267.454184,36.7147209 267.454184,48.7385003 C267.454184,60.7629924 245.129297,70.1810257 216.630017,70.1810257" id="Fill-94" fill="#594231" mask="url(#mask-10)"></path>
                        <line x1="182.449342" y1="63.4291782" x2="182.449342" y2="93.9739968" id="Fill-95" fill="#FFFFFF" mask="url(#mask-10)"></line>
                        <polygon id="Fill-96" fill="#594231" mask="url(#mask-10)" points="181.224085 93.9736404 183.674456 93.9736404 183.674456 63.4295345 181.224085 63.4295345"></polygon>
                        <line x1="250.811334" y1="63.4291782" x2="250.811334" y2="93.9739968" id="Fill-97" fill="#FFFFFF" mask="url(#mask-10)"></line>
                        <polygon id="Fill-98" fill="#594231" mask="url(#mask-10)" points="249.585721 93.9736404 252.036092 93.9736404 252.036092 63.4295345 249.585721 63.4295345"></polygon>
                        <path d="M187.853058,48.7386428 C187.853058,50.372936 184.603002,51.6979038 180.593175,51.6979038 C176.584061,51.6979038 173.333293,50.372936 173.333293,48.7386428 C173.333293,47.1043496 176.584061,45.7793819 180.593175,45.7793819 C184.603002,45.7793819 187.853058,47.1043496 187.853058,48.7386428" id="Fill-99" fill="#FFFFFF" mask="url(#mask-10)"></path>
                        <path d="M187.853058,48.7386428 C187.853058,50.372936 184.603002,51.6979038 180.593175,51.6979038 C176.584061,51.6979038 173.333293,50.372936 173.333293,48.7386428 C173.333293,47.1043496 176.584061,45.7793819 180.593175,45.7793819 C184.603002,45.7793819 187.853058,47.1043496 187.853058,48.7386428 Z" id="Stroke-100" stroke="#bdc660" stroke-width="1.344" mask="url(#mask-10)"></path>
                        <path d="M206.503458,35.1904734 C206.503458,36.8247666 203.253402,38.1497344 199.243575,38.1497344 C195.234461,38.1497344 191.983693,36.8247666 191.983693,35.1904734 C191.983693,33.5561802 195.234461,32.2312125 199.243575,32.2312125 C203.253402,32.2312125 206.503458,33.5561802 206.503458,35.1904734" id="Fill-101" fill="#FFFFFF" mask="url(#mask-10)"></path>
                        <path d="M206.503458,35.1904734 C206.503458,36.8247666 203.253402,38.1497344 199.243575,38.1497344 C195.234461,38.1497344 191.983693,36.8247666 191.983693,35.1904734 C191.983693,33.5561802 195.234461,32.2312125 199.243575,32.2312125 C203.253402,32.2312125 206.503458,33.5561802 206.503458,35.1904734 Z" id="Stroke-102" stroke="#bdc660" stroke-width="1.344" mask="url(#mask-10)"></path>
                        <path d="M239.458663,35.2940333 C239.458663,36.9283265 236.208607,38.2532942 232.19878,38.2532942 C228.189666,38.2532942 224.938898,36.9283265 224.938898,35.2940333 C224.938898,33.6597401 228.189666,32.3347723 232.19878,32.3347723 C236.208607,32.3347723 239.458663,33.6597401 239.458663,35.2940333" id="Fill-103" fill="#FFFFFF" mask="url(#mask-10)"></path>
                        <path d="M239.458663,35.2940333 C239.458663,36.9283265 236.208607,38.2532942 232.19878,38.2532942 C228.189666,38.2532942 224.938898,36.9283265 224.938898,35.2940333 C224.938898,33.6597401 228.189666,32.3347723 232.19878,32.3347723 C236.208607,32.3347723 239.458663,33.6597401 239.458663,35.2940333 Z" id="Stroke-104" stroke="#bdc660" stroke-width="1.344" mask="url(#mask-10)"></path>
                        <path d="M259.507869,50.606213 C259.507869,52.2405062 256.257814,53.5654739 252.247987,53.5654739 C248.238873,53.5654739 244.988105,52.2405062 244.988105,50.606213 C244.988105,48.9719198 248.238873,47.6469521 252.247987,47.6469521 C256.257814,47.6469521 259.507869,48.9719198 259.507869,50.606213" id="Fill-105" fill="#FFFFFF" mask="url(#mask-10)"></path>
                        <path d="M259.507869,50.606213 C259.507869,52.2405062 256.257814,53.5654739 252.247987,53.5654739 C248.238873,53.5654739 244.988105,52.2405062 244.988105,50.606213 C244.988105,48.9719198 248.238873,47.6469521 252.247987,47.6469521 C256.257814,47.6469521 259.507869,48.9719198 259.507869,50.606213 Z" id="Stroke-106" stroke="#bdc660" stroke-width="1.344" mask="url(#mask-10)"></path>
                        <path d="M227.823678,52.4177625 C232.402265,53.37995 233.996645,54.6065608 233.996645,55.3677579 C233.996645,57.5045268 226.252818,59.2143695 216.69509,59.2143695 C207.137361,59.2143695 201.252338,57.8908272 198.710024,55.903732 C197.137739,54.6742703 200.369263,53.2117453 203.099737,52.3657331" id="Stroke-107" stroke="#90BF22" stroke-width="1.423" stroke-linecap="round" stroke-linejoin="round" mask="url(#mask-10)"></path>
                        <g id="Group-110" mask="url(#mask-10)">
                            <g transform="translate(214.619250, 40.662017)">
                                <path d="M3.39617433,11.7557459 C-0.339251146,7.96045093 -0.0869442162,2.79314799 0.078409478,1.66560685 C0.193871971,0.957864529 0.687082128,0.36986109 1.37201704,0.124681475 C2.05909015,-0.124774529 2.83525469,0.00565532431 3.40971623,0.466079835 C3.98417777,0.927217077 4.26998308,1.64921403 4.16022244,2.3626582 C4.08182198,2.83021002 4.15523332,6.20428066 6.15373228,8.01675671" id="Fill-108" stroke="none" fill="#FFFFFF" fill-rule="evenodd"></path>
                                <path d="M3.39617433,11.7557459 C-0.339251146,7.96045093 -0.0869442162,2.79314799 0.078409478,1.66560685 C0.193871971,0.957864529 0.687082128,0.36986109 1.37201704,0.124681475 C2.05909015,-0.124774529 2.83525469,0.00565532431 3.40971623,0.466079835 C3.98417777,0.927217077 4.26998308,1.64921403 4.16022244,2.3626582 C4.08182198,2.83021002 4.15523332,6.20428066 6.15373228,8.01675671" id="Stroke-109" stroke="#025A5A" stroke-width="1.423" fill="none" stroke-linecap="round" stroke-linejoin="round"></path>
                            </g>
                        </g>
                        <polyline id="Stroke-111" stroke="#025A5A" stroke-width="1.423" stroke-linecap="round" stroke-linejoin="round" mask="url(#mask-10)" points="217.155728 40.7102221 217.63112 38.8991715 214.593458 39.42588 215.917001 40.9896128"></polyline>
                        <path d="M216.320906,44.3584805 C216.433517,45.5957823 216.863294,46.7810546 217.571037,47.8052497" id="Stroke-112" stroke="#025A5A" stroke-width="0.712" stroke-linecap="round" stroke-linejoin="round" mask="url(#mask-10)"></path>
                        <g id="Group-115" mask="url(#mask-10)">
                            <g transform="translate(218.154887, 47.447265)">
                                <path d="M3.00247185,8.4633804 C2.14933232,8.1868406 1.04246039,7.64373924 0.520028244,6.78418512 C-0.552632574,4.97099634 0.0874002598,2.63252448 1.94976751,1.55630001 C3.29326628,0.755189871 6.64239132,-0.187753825 8.7841493,0.03248019 C9.58597217,0.118007963 9.26880668,0.939787314 9.54962286,1.43513566 C9.83043905,1.92977128 10.5460214,2.04951017 10.4134534,2.814271 C10.138339,4.41150216 8.79056388,6.33587705 7.04579731,7.54965869" id="Fill-113" stroke="none" fill="#FFFFFF" fill-rule="evenodd"></path>
                                <path d="M3.00247185,8.4633804 C2.14933232,8.1868406 1.04246039,7.64373924 0.520028244,6.78418512 C-0.552632574,4.97099634 0.0874002598,2.63252448 1.94976751,1.55630001 C3.29326628,0.755189871 6.64239132,-0.187753825 8.7841493,0.03248019 C9.58597217,0.118007963 9.26880668,0.939787314 9.54962286,1.43513566 C9.83043905,1.92977128 10.5460214,2.04951017 10.4134534,2.814271 C10.138339,4.41150216 8.79056388,6.33587705 7.04579731,7.54965869" id="Stroke-114" stroke="#025A5A" stroke-width="1.423" fill="none" stroke-linecap="round" stroke-linejoin="round"></path>
                            </g>
                        </g>
                        <g id="Group-118" mask="url(#mask-10)">
                            <g transform="translate(227.823678, 45.430116)">
                                <path d="M0,2.53093667 L1.2943203,1.7811432 L1.94005498,1.39911914 C1.71340638,1.03063699 1.78254133,0.553106923 2.10612141,0.25447245 C2.42970148,-0.0441620237 2.91934798,-0.0847877158 3.28212828,0.158253705 C3.64562132,0.401295127 3.78317849,0.861006906 3.61283567,1.26298744 C4.05472916,1.30004947 4.40539303,1.63645871 4.45385877,2.06837397 C4.50161178,2.50028922 4.23291202,2.90939707 3.81026228,3.04909243 C3.38832527,3.18878779 2.92718803,3.02058317 2.70624128,2.64568643 L2.06050659,3.02771048 L0.76190991,3.78962039" id="Fill-116" stroke="none" fill="#FFFFFF" fill-rule="evenodd"></path>
                                <path d="M0,2.53093667 L1.2943203,1.7811432 L1.94005498,1.39911914 C1.71340638,1.03063699 1.78254133,0.553106923 2.10612141,0.25447245 C2.42970148,-0.0441620237 2.91934798,-0.0847877158 3.28212828,0.158253705 C3.64562132,0.401295127 3.78317849,0.861006906 3.61283567,1.26298744 C4.05472916,1.30004947 4.40539303,1.63645871 4.45385877,2.06837397 C4.50161178,2.50028922 4.23291202,2.90939707 3.81026228,3.04909243 C3.38832527,3.18878779 2.92718803,3.02058317 2.70624128,2.64568643 L2.06050659,3.02771048 L0.76190991,3.78962039" id="Stroke-117" stroke="#025A5A" stroke-width="1.423" fill="none" stroke-linecap="round" stroke-linejoin="round"></path>
                            </g>
                        </g>
                        <path d="M220.762078,49.898542 C220.895359,49.818716 221.067127,49.8593417 221.145527,49.9897716 C221.223928,50.1209142 221.179738,50.291257 221.045745,50.3710829 C220.912464,50.4516216 220.741409,50.4102831 220.663008,50.2798533 C220.584608,50.1494234 220.628797,49.9783679 220.762078,49.898542" id="Fill-119" fill="#025A5A" mask="url(#mask-10)"></path>
                        <path d="M221.256571,50.8883121 C221.434041,50.7814024 221.663541,50.8362827 221.767599,51.0101892 C221.872371,51.1840957 221.813214,51.4121697 221.635031,51.5190794 C221.457561,51.6252764 221.228774,51.5711088 221.124003,51.3972024 C221.019231,51.2225832 221.079101,50.9952218 221.256571,50.8883121" id="Fill-120" fill="#025A5A" mask="url(#mask-10)"></path>
                        <path d="M219.97173,51.3043335 C220.194102,51.1710527 220.479907,51.2387622 220.61105,51.456858 C220.74148,51.6742411 220.667356,51.9593336 220.444984,52.0926144 C220.222611,52.2258952 219.936806,52.157473 219.806376,51.9400899 C219.675234,51.7227068 219.749358,51.4376142 219.97173,51.3043335" id="Fill-121" fill="#025A5A" mask="url(#mask-10)"></path>
                        <path d="M202.814502,48.1271905 C202.739666,47.953284 202.679083,47.7800903 202.649149,47.5776746 C202.574312,47.0424133 202.724698,46.5214066 203.06966,46.0873531 C203.415335,45.6532997 203.896429,45.3931527 204.451646,45.3204541 C204.557131,45.3061995 204.646935,45.3061995 204.752419,45.3061995 C204.872871,44.4095833 205.593442,43.6861609 206.554917,43.5557311 C207.216332,43.4687778 207.862066,43.7004155 208.32748,44.1487236 C208.658187,43.7581468 209.138568,43.5122544 209.664564,43.4402686 C210.670941,43.3098387 211.617448,43.9028313 211.918221,44.8144148 C212.368667,44.8144148 212.834081,44.9590993 213.194723,45.2342136 C213.630202,45.5663464 213.916007,46.0296219 213.990844,46.5648832 C214.020779,46.7815536 214.005811,46.9989366 213.960909,47.215607 C214.591677,47.504976 215.027868,48.0979685 215.117672,48.7636597 C215.162575,49.0965053 215.042836,49.4436055 214.922384,49.7764511 C214.712128,50.3694436 214.622324,50.7600205 214.967286,51.1071207 C215.463347,51.5846507 216.079147,52.2353745 216.635078,53.0022736 L216.694947,53.0749722 L216.694947,53.1612127 C216.694947,53.5810115 216.499659,53.9573337 216.169664,54.2174807 C216.259468,54.3186885 216.349272,54.4198964 216.439789,54.5360716 L216.499659,54.6080575 L216.499659,54.6950107 C216.544561,55.4469424 215.989343,56.0834116 215.102705,56.2430634 L214.937351,56.2715727 L214.75703,56.0834116 C214.171165,55.4469424 213.630202,54.8539498 213.014402,54.4198964 C212.66944,54.1882587 212.218281,54.3764198 211.587514,54.7092654 C211.271774,54.8682045 210.956746,55.0278563 210.655974,55.0855876 C209.935402,55.230272 209.229085,54.9986343 208.733024,54.5068496 C208.462899,54.752742 208.117224,54.9116811 207.756582,54.9843797 C207.200652,55.0855876 206.690336,55.012889 206.284792,54.7384874 C205.954084,54.5211043 205.713894,54.1882587 205.578475,53.7834272 C205.518605,53.7976819 205.443056,53.8269038 205.383186,53.8269038 C204.241391,54.0435742 203.325531,53.465549 203.099595,52.3658044 C203.024758,52.0329588 203.054693,51.7150806 203.14521,51.3964896 C202.589279,51.1213753 202.198702,50.6010813 202.063283,50.0080888 C201.943544,49.3423976 202.228637,48.5904659 202.814502,48.1271905" id="Fill-122" fill="#FFFFFF" mask="url(#mask-10)"></path>
                        <path d="M202.814502,48.1271905 C202.739666,47.953284 202.679083,47.7800903 202.649149,47.5776746 C202.574312,47.0424133 202.724698,46.5214066 203.06966,46.0873531 C203.415335,45.6532997 203.896429,45.3931527 204.451646,45.3204541 C204.557131,45.3061995 204.646935,45.3061995 204.752419,45.3061995 C204.872871,44.4095833 205.593442,43.6861609 206.554917,43.5557311 C207.216332,43.4687778 207.862066,43.7004155 208.32748,44.1487236 C208.658187,43.7581468 209.138568,43.5122544 209.664564,43.4402686 C210.670941,43.3098387 211.617448,43.9028313 211.918221,44.8144148 C212.368667,44.8144148 212.834081,44.9590993 213.194723,45.2342136 C213.630202,45.5663464 213.916007,46.0296219 213.990844,46.5648832 C214.020779,46.7815536 214.005811,46.9989366 213.960909,47.215607 C214.591677,47.504976 215.027868,48.0979685 215.117672,48.7636597 C215.162575,49.0965053 215.042836,49.4436055 214.922384,49.7764511 C214.712128,50.3694436 214.622324,50.7600205 214.967286,51.1071207 C215.463347,51.5846507 216.079147,52.2353745 216.635078,53.0022736 L216.694947,53.0749722 L216.694947,53.1612127 C216.694947,53.5810115 216.499659,53.9573337 216.169664,54.2174807 C216.259468,54.3186885 216.349272,54.4198964 216.439789,54.5360716 L216.499659,54.6080575 L216.499659,54.6950107 C216.544561,55.4469424 215.989343,56.0834116 215.102705,56.2430634 L214.937351,56.2715727 L214.75703,56.0834116 C214.171165,55.4469424 213.630202,54.8539498 213.014402,54.4198964 C212.66944,54.1882587 212.218281,54.3764198 211.587514,54.7092654 C211.271774,54.8682045 210.956746,55.0278563 210.655974,55.0855876 C209.935402,55.230272 209.229085,54.9986343 208.733024,54.5068496 C208.462899,54.752742 208.117224,54.9116811 207.756582,54.9843797 C207.200652,55.0855876 206.690336,55.012889 206.284792,54.7384874 C205.954084,54.5211043 205.713894,54.1882587 205.578475,53.7834272 C205.518605,53.7976819 205.443056,53.8269038 205.383186,53.8269038 C204.241391,54.0435742 203.325531,53.465549 203.099595,52.3658044 C203.024758,52.0329588 203.054693,51.7150806 203.14521,51.3964896 C202.589279,51.1213753 202.198702,50.6010813 202.063283,50.0080888 C201.943544,49.3423976 202.228637,48.5904659 202.814502,48.1271905 Z" id="Stroke-123" stroke="#025A5A" stroke-width="1.423" mask="url(#mask-10)"></path>
                        <path d="M202.720422,47.6400386 C202.795259,48.1460779 203.68546,48.4454251 204.166554,48.6478408 L204.467327,48.7782707 L204.301973,49.053385 C204.151586,49.3277866 204.091717,49.6314102 204.121652,49.9357465 C204.166554,50.3263234 204.346875,50.629947 204.602033,50.8181081 C204.857903,51.0062692 205.217833,51.0925097 205.623377,51.0347784 C205.758796,51.0205238 205.894215,50.9770472 206.029634,50.9335706 L206.404531,50.7746314 L206.450145,51.2086849 L206.450145,51.2229395 C206.495047,51.6135164 206.660401,51.9171399 206.915559,52.1202684 C207.170717,52.3077168 207.516392,52.39467 207.921936,52.3369388 C208.282578,52.2934621 208.598318,52.1202684 208.838508,51.8736633 L209.123601,51.5700397 L209.333857,51.9171399 C209.634629,52.423892 210.220495,52.713261 210.821327,52.6405624 C211.031583,52.6120531 211.317388,52.4958779 211.602481,52.3661608 C212.248216,52.0910464 213.045049,51.7439462 213.675817,52.2499855 C214.291617,52.7417702 214.786965,53.3639848 215.327928,54.0439306" id="Stroke-124" stroke="#025A5A" stroke-width="1.423" mask="url(#mask-10)"></path>
                        <path d="M211.541471,48.5970944 C211.657646,48.2457178 211.629137,47.862981 211.453805,47.5422518 C211.308408,47.2671375 211.06109,47.0526053 210.769583,46.9456956 L210.95917,46.3648195 C211.381107,46.5180567 211.745312,46.8238185 211.964121,47.23649 C212.225693,47.7104564 212.269883,48.2763652 212.094551,48.7959464 L211.541471,48.5970944 Z" id="Fill-125" fill="#025A5A" mask="url(#mask-10)"></path>
                        <path d="M208.707437,47.4200184 C208.823612,47.0686418 208.795103,46.685905 208.619771,46.3651758 C208.474374,46.0900615 208.227056,45.8755293 207.935549,45.7686196 L208.125136,45.1877435 C208.547073,45.3409808 208.911278,45.6467426 209.130087,46.0594141 C209.391659,46.5333805 209.435849,47.0992892 209.260517,47.6188704 L208.707437,47.4200184 Z" id="Fill-126" fill="#025A5A" mask="url(#mask-10)"></path>
                        <path d="M209.128947,47.776099 C207.971471,47.9136562 207.140426,48.5479872 206.516786,49.7753107 L205.98295,49.5408221 C206.472596,48.5622418 207.110491,47.9001143 207.926569,47.5280685 C207.229517,47.4453916 206.472596,47.431137 205.656519,47.48673 L205.611617,46.9350759 C209.06979,46.6735035 211.637048,47.6934222 213.477321,50.0511378 L213.002642,50.3675905 C211.933545,49.0583029 210.672723,48.1894832 209.128947,47.776099" id="Fill-127" fill="#025A5A" mask="url(#mask-10)"></path>
                        <path d="M211.486092,48.3902597 L211.52743,48.9347865 C210.545999,49.0167506 209.90953,49.5071099 209.536771,50.4742864 L209.02503,50.2832744 C209.481178,49.1122566 210.297256,48.4993076 211.486092,48.3902597" id="Fill-128" fill="#025A5A" mask="url(#mask-10)"></path>
                        <path d="M223.9224,58.8595718 L223.9224,59.3171454 C223.9224,60.2059215 220.685174,60.9243548 216.695303,60.9243548 C212.70472,60.9243548 209.468207,60.2059215 209.468207,59.3171454 L209.468207,58.8595718" id="Stroke-129" stroke="#90BF22" stroke-width="1.423" stroke-linecap="round" stroke-linejoin="round" mask="url(#mask-10)"></path>
                        <path d="M203.631649,55.1274249 C206.264479,56.0596776 210.91719,56.679754 216.232028,56.679754 C221.546866,56.679754 226.206705,56.0596776 228.832407,55.1274249" id="Stroke-130" stroke="#90BF22" stroke-width="1.423" stroke-linecap="round" stroke-linejoin="round" mask="url(#mask-10)"></path>
                        <path d="M181.76405,42.5499244 C182.273653,42.5342444 182.378425,41.877106 182.848828,41.8329166 L186.163029,41.7317088 C186.227175,41.7295706 186.28063,41.7944291 186.283481,41.8763932 C186.285619,41.9583574 186.235728,42.0260668 186.172294,42.028205 L183.613589,42.1058928 C183.549443,42.108031 183.500264,42.1757404 183.502402,42.2584173 L183.503115,42.2641191 C183.505253,42.3460833 183.559421,42.4109418 183.622854,42.4088036 L186.18156,42.3311159 C186.244993,42.3289777 186.299161,42.3938363 186.301299,42.4758004 C186.30415,42.5570518 186.254259,42.625474 186.190825,42.6276122 L183.631407,42.7052999 C183.567974,42.7074381 183.518083,42.7751476 183.520933,42.8571117 L183.520933,42.8628135 C183.523784,42.9454904 183.577239,43.010349 183.640672,43.0082108 L186.200091,42.930523 C186.263524,42.9283848 186.316979,42.9925307 186.31983,43.0752075 C186.321968,43.1571716 186.27279,43.2248811 186.208644,43.2270193 L183.649938,43.304707 C183.586505,43.3068452 183.536614,43.3745547 183.539465,43.4565188 L183.539465,43.4629334 C183.541603,43.5448975 183.59577,43.6097561 183.659203,43.6076179 L186.217909,43.5299302 C186.282055,43.527792 186.33551,43.5926505 186.338427,43.6746147 C186.340499,43.7565788 186.290608,43.8242883 186.227175,43.8264265 L182.912974,43.9276343 C182.440433,43.9119542 182.295748,43.2619432 181.786145,43.2776232 L181.39343,43.2904524 C180.800438,43.3082707 175.737193,43.7515897 175.447824,43.7601424 C175.127808,43.7701207 174.859821,43.4864536 174.84913,43.1265242 C174.837726,42.7673075 175.088608,42.4679603 175.407912,42.4579821 C175.69728,42.4494293 180.781907,42.5798592 181.371335,42.5613281 L181.76405,42.5499244 Z" id="Fill-131" fill="#594231" mask="url(#mask-10)"></path>
                        <path d="M180.531524,53.9301074 C180.95061,53.9172782 181.326932,52.6457653 183.542102,52.9764727 C185.757271,53.3078928 186.874121,54.568002 186.060182,54.5929476 L175.447611,54.8979967 C175.127594,54.9072622 174.859607,54.6243078 174.848916,54.2643784 C174.837513,53.9051618 175.088394,53.6051018 175.407698,53.5958363 C175.407698,53.5958363 180.211508,53.9400856 180.531524,53.9301074" id="Fill-132" fill="#594231" mask="url(#mask-10)"></path>
                        <path d="M251.077326,56.3712125 C250.567723,56.3868926 250.462951,57.044031 249.992548,57.0882204 L246.678347,57.1894282 C246.614201,57.1915664 246.560746,57.1267079 246.557896,57.0447437 C246.555757,56.9627796 246.605649,56.8950701 246.669082,56.892932 L249.227788,56.8152442 C249.291933,56.813106 249.341112,56.7453965 249.338974,56.6627197 L249.338261,56.6570178 C249.336123,56.5750537 249.281955,56.5101952 249.218522,56.5123334 L246.659816,56.5900211 C246.596383,56.5921593 246.542215,56.5273007 246.540077,56.4453366 C246.537226,56.3640852 246.587118,56.295663 246.650551,56.2935248 L249.209969,56.2158371 C249.273402,56.2136989 249.323294,56.1459894 249.320443,56.0640253 L249.320443,56.0583234 C249.317592,55.9756466 249.264137,55.910788 249.200704,55.9129262 L246.641285,55.9906139 C246.577852,55.9927521 246.524397,55.9286063 246.521546,55.8459295 C246.519408,55.7639654 246.568587,55.6962559 246.632732,55.6941177 L249.191438,55.6164299 C249.254871,55.6142917 249.304763,55.5465823 249.301912,55.4639054 L249.301912,55.4582036 C249.299773,55.3762394 249.245606,55.3113809 249.182173,55.3135191 L246.623467,55.3912068 C246.559321,55.393345 246.505866,55.3284864 246.502949,55.2465223 C246.500877,55.1645582 246.550768,55.0968487 246.614201,55.0947105 L249.928403,54.9935027 C250.400943,55.0091828 250.545628,55.6591938 251.055231,55.6435137 L251.447946,55.6306846 C252.040939,55.6128663 257.104183,55.1695473 257.393552,55.1609946 C257.713568,55.1510163 257.981555,55.4346834 257.992246,55.7946128 C258.00365,56.1538294 257.752768,56.4531767 257.433465,56.4631549 C257.144096,56.4717077 252.05947,56.3412778 251.470041,56.3598088 L251.077326,56.3712125 Z" id="Fill-133" fill="#594231" mask="url(#mask-10)"></path>
                        <path d="M252.309852,44.9910296 C251.890766,45.0038588 251.514444,46.2753717 249.299274,45.9446643 C247.084105,45.6132442 245.967255,44.353135 246.781194,44.3281894 L257.393765,44.0231403 C257.713782,44.0138748 257.981769,44.2968292 257.99246,44.6567586 C258.003864,45.0159752 257.752982,45.3160352 257.433678,45.3253007 C257.433678,45.3253007 252.629869,44.9810514 252.309852,44.9910296" id="Fill-134" fill="#594231" mask="url(#mask-10)"></path>
                        <path d="M240.276736,39.018554 C239.869766,39.3257412 240.164124,39.9230102 239.804908,40.2301974 L237.157823,42.2272709 C237.107219,42.2657584 237.025968,42.2436637 236.976789,42.1780925 C236.926898,42.1132339 236.928324,42.0291316 236.97964,41.9906441 L239.023041,40.449006 C239.074358,40.4105185 239.075071,40.3264162 239.025892,40.2608449 L239.022329,40.2558558 C238.97315,40.1902845 238.891186,40.1689025 238.840582,40.2066773 L236.797181,41.7483154 C236.745864,41.7868029 236.664613,41.7654209 236.615435,41.6998497 C236.566256,41.6342784 236.567682,41.5501761 236.618285,41.5116886 L238.662399,39.9700505 C238.713003,39.9322757 238.714429,39.8481734 238.66525,39.7818894 L238.661686,39.777613 C238.611795,39.7120417 238.530544,39.689947 238.47994,39.7284345 L236.435826,41.2700726 C236.385222,41.3085601 236.303971,41.2864654 236.25408,41.2208941 C236.204901,41.1553228 236.206327,41.0712205 236.256931,41.0334458 L238.301044,39.4918077 C238.351648,39.4533202 238.353074,39.3692178 238.303895,39.3036466 L238.300332,39.2986574 C238.25044,39.2330861 238.169189,39.2109915 238.118585,39.249479 L236.074471,40.7911171 C236.023867,40.8296046 235.942616,40.8075099 235.893438,40.7419386 C235.844259,40.67708 235.844972,40.5929777 235.896288,40.5544902 L238.543373,38.5574167 C238.937514,38.2972698 239.431436,38.7441524 239.838406,38.4369651 L240.151295,38.2003383 C240.625262,37.8432598 244.502521,34.5568552 244.734158,34.382236 C244.989316,34.1897985 245.372766,34.2667735 245.588723,34.5540042 C245.805394,34.841235 245.774034,35.2303864 245.518876,35.4228239 C245.287951,35.5967303 241.061453,38.4269869 240.590338,38.7826399 L240.276736,39.018554 Z" id="Fill-135" fill="#594231" mask="url(#mask-10)"></path>
                        <path d="M222.411481,32.6725358 C222.081486,32.9305446 222.530507,34.1785373 220.548401,35.2219761 C218.566295,36.2661277 216.920598,35.9111874 217.562056,35.4094245 L225.937363,28.8843682 C226.18967,28.6876543 226.573833,28.757502 226.795492,29.0411691 C227.016439,29.3241235 226.992206,29.7139876 226.739899,29.9107014 C226.739899,29.9107014 222.663788,32.4758219 222.411481,32.6725358" id="Fill-136" fill="#594231" mask="url(#mask-10)"></path>
                        <path d="M209.349537,33.4963821 L209.035935,33.2604679 C208.56482,32.904815 204.338322,30.0745584 204.107397,29.9006519 C203.852239,29.7082144 203.820879,29.3190631 204.037549,29.0318323 C204.253507,28.7446015 204.636957,28.6676265 204.892114,28.860064 C205.123752,29.0346832 209.001011,32.3210879 209.474978,32.6781664 L209.787867,32.9147932 C210.194836,33.2219804 210.688759,32.7750978 211.0829,33.0352448 L213.729984,35.0323183 C213.781301,35.0708058 213.782014,35.1549081 213.732835,35.2197667 C213.683657,35.285338 213.602405,35.3074326 213.551801,35.2689451 L211.507688,33.727307 C211.457084,33.6888195 211.375832,33.7109142 211.325941,33.7764855 L211.322378,33.7814746 C211.273199,33.8470459 211.274625,33.9311482 211.325228,33.9696357 L213.369342,35.5112738 C213.419946,35.5490486 213.421372,35.6331509 213.372193,35.6987222 C213.322302,35.7642935 213.241051,35.7863882 213.190447,35.7479007 L211.146333,34.2062626 C211.095729,34.1677751 211.014478,34.1898697 210.964586,34.255441 L210.961023,34.2597174 C210.911844,34.3260014 210.91327,34.4101038 210.963874,34.4478785 L213.007987,35.9895166 C213.058591,36.0280041 213.060017,36.1121064 213.010838,36.1776777 C212.96166,36.243249 212.880408,36.264631 212.829092,36.2261435 L210.785691,34.6845054 C210.735087,34.6467306 210.653123,34.6681125 210.603944,34.7336838 L210.600381,34.738673 C210.551202,34.8042442 210.551915,34.8883466 210.603231,34.9268341 L212.646633,36.4684722 C212.697949,36.5069597 212.699375,36.591062 212.649483,36.6559205 C212.600305,36.7214918 212.519054,36.7435865 212.46845,36.705099 L209.821365,34.7080255 C209.462148,34.4008382 209.756507,33.8035693 209.349537,33.4963821" id="Fill-137" fill="#594231" mask="url(#mask-10)"></path>
                        <path d="M186.51184,34.5804466 C186.260246,34.3837327 185.908156,34.412242 185.72641,34.6453051 C185.54395,34.8776556 185.600969,35.2261813 185.853276,35.4228951 L194.207201,41.9743225 C194.849372,42.4760855 194.654084,40.9757858 193.11886,39.3600236 C191.584349,37.7449742 190.620736,38.3037556 190.290029,38.0457468 C190.038435,37.849033 186.51184,34.5804466 186.51184,34.5804466" id="Fill-138" fill="#594231" mask="url(#mask-10)"></path>
                    </g>
                </g>
            </g>
        </g>
    </g>
</svg>
