<svg id="Calque_1" data-name="Calque 1" xmlns="http://www.w3.org/2000/svg" xmlns:xlink="http://www.w3.org/1999/xlink" viewBox="0 0 525 401"><defs><style>.cls-1,.cls-10,.cls-11,.cls-13,.cls-15,.cls-16,.cls-19,.cls-2,.cls-4,.cls-6,.cls-8{fill:none;}.cls-1,.cls-12,.cls-2,.cls-4,.cls-6{stroke:#91c022;}.cls-1,.cls-12,.cls-2,.cls-4,.cls-6,.cls-7,.cls-8,.cls-9{stroke-miterlimit:10;}.cls-1{stroke-width:1.15px;}.cls-2{stroke-width:2.86px;}.cls-3,.cls-7{fill:#91c022;}.cls-4{stroke-width:2.82px;}.cls-5{clip-path:url(#clip-path);}.cls-6{stroke-width:1.52px;}.cls-10,.cls-11,.cls-7,.cls-8,.cls-9{stroke:#015a5a;stroke-width:3.44px;}.cls-7{opacity:0.1;}.cls-12,.cls-14,.cls-18,.cls-9{fill:#fff;}.cls-10,.cls-11,.cls-13,.cls-14,.cls-15,.cls-16{stroke-linejoin:round;}.cls-11,.cls-13,.cls-14,.cls-15,.cls-16{stroke-linecap:round;}.cls-12{stroke-width:1.34px;}.cls-13{stroke:#90bf22;}.cls-13,.cls-14,.cls-15,.cls-18,.cls-19{stroke-width:1.42px;}.cls-14,.cls-15,.cls-16,.cls-18,.cls-19{stroke:#025a5a;}.cls-14,.cls-20{fill-rule:evenodd;}.cls-16{stroke-width:0.71px;}.cls-17,.cls-20{fill:#025a5a;}.cls-21{fill:#015a5a;}</style><clipPath id="clip-path"><polygon class="cls-1" points="480 274.7 80.2 274.7 152.4 165.8 407.7 165.8 480 274.7"/></clipPath></defs><title>parcours1</title><line class="cls-2" x1="47.6" y1="273.7" x2="122" y2="167"/><polygon class="cls-3" points="62.6 272.6 62 269.8 48.2 272.8 46.2 258.9 43.4 259.3 45.8 276.3 62.6 272.6"/><polygon class="cls-3" points="126.2 181.4 123.3 181.8 121.4 167.9 107.6 170.8 107 168 123.8 164.4 126.2 181.4"/><line class="cls-4" x1="481.4" y1="307.4" x2="79.6" y2="307.4"/><polygon class="cls-3" points="472.2 295.7 470.3 297.8 480.3 307.4 470.3 317 472.2 319.1 484.4 307.4 472.2 295.7"/><polygon class="cls-3" points="88.8 295.7 90.7 297.8 80.6 307.4 90.7 317 88.8 319.1 76.6 307.4 88.8 295.7"/><g class="cls-5"><line class="cls-6" x1="-22.8" y1="207.2" x2="357.4" y2="469"/><line class="cls-6" x1="-1.3" y1="200.8" x2="380.1" y2="441"/><line class="cls-6" x1="19" y1="194.7" x2="400.3" y2="416"/><line class="cls-6" x1="38.3" y1="189" x2="418.4" y2="393.5"/><line class="cls-6" x1="56.5" y1="183.5" x2="434.8" y2="373.2"/><line class="cls-6" x1="73.9" y1="178.3" x2="449.7" y2="354.7"/><line class="cls-6" x1="90.4" y1="173.3" x2="463.3" y2="337.9"/><line class="cls-6" x1="106.2" y1="168.6" x2="475.7" y2="322.5"/><line class="cls-6" x1="121.2" y1="164.1" x2="487.1" y2="308.4"/><line class="cls-6" x1="135.5" y1="159.8" x2="497.7" y2="295.4"/><line class="cls-6" x1="149.3" y1="155.7" x2="507.4" y2="283.3"/><line class="cls-6" x1="162.4" y1="151.8" x2="516.5" y2="272.1"/><line class="cls-6" x1="174.9" y1="148" x2="524.9" y2="261.7"/><line class="cls-6" x1="187" y1="144.4" x2="532.7" y2="252"/><line class="cls-6" x1="198.6" y1="141" x2="540" y2="242.9"/><line class="cls-6" x1="209.7" y1="137.6" x2="546.9" y2="234.4"/><line class="cls-6" x1="220.3" y1="134.4" x2="553.3" y2="226.4"/><line class="cls-6" x1="230.6" y1="131.4" x2="559.4" y2="218.9"/><line class="cls-6" x1="240.5" y1="128.4" x2="565.1" y2="211.8"/><line class="cls-6" x1="250" y1="125.6" x2="570.5" y2="205.2"/><polygon class="cls-6" points="480 274.7 80.2 274.7 152.4 165.8 407.7 165.8 480 274.7"/></g><polygon class="cls-1" points="480 274.7 80.2 274.7 152.4 165.8 407.7 165.8 480 274.7"/><polyline class="cls-7" points="393.1 165.6 408.5 165.6 480.8 276.4 80.5 276.4 152.8 165.6 165.6 165.6"/><polyline class="cls-8" points="393.1 165.6 408.5 165.6 480.8 276.4 80.5 276.4 152.8 165.6 165.6 165.6"/><path class="cls-9" d="M237.3,154.5l.2-1.3,3.2-19.9a6.2,6.2,0,0,1,6.1-4.6h6.3a6.2,6.2,0,0,1,6.1,4.7l4.8,14.9h0"/><circle class="cls-9" cx="250" cy="117.1" r="7.1"/><line class="cls-9" x1="184.6" y1="199.7" x2="184.6" y2="233.6"/><path class="cls-10" d="M179.9,154.2v40.7a4.7,4.7,0,0,0,4.8,4.7h26.1v33.9"/><path class="cls-9" d="M210.8,179.3h-7.2V157.9c0-3.8-3.9-7.6-8.8-7.6s-8.3,3.8-8.3,7.6v28.2a6.9,6.9,0,0,0,6.6,6.9l1.7.2h29.4"/><circle class="cls-9" cx="195.4" cy="137.9" r="7.1"/><line class="cls-9" x1="376.7" y1="200.1" x2="376.7" y2="234"/><path class="cls-11" d="M381.4,153.8v40.6a4.8,4.8,0,0,1-4.8,4.8H350.5v33.9"/><path class="cls-9" d="M350.5,178.9h7.2V157.5c0-3.9,3.9-7.6,8.8-7.6s8.3,3.7,8.3,7.6v28.1a6.9,6.9,0,0,1-6.6,7l-1.7.2H338.3"/><circle class="cls-9" cx="365.8" cy="137.5" r="7.1"/><path class="cls-9" d="M293.3,148.8l1.1-2.2,3.9-13.2a6.2,6.2,0,0,1,6.1-4.7h6.3a6.2,6.2,0,0,1,6.1,4.6l3,18.5.2,1.4"/><circle class="cls-9" cx="307.5" cy="117.1" r="7.1"/><ellipse class="cls-9" cx="280.7" cy="176.7" rx="69.6" ry="28.4"/><line class="cls-9" x1="232.8" y1="197.3" x2="232.8" y2="240.1"/><line class="cls-9" x1="328.7" y1="197.3" x2="328.7" y2="240.1"/><ellipse class="cls-12" cx="230.2" cy="176.7" rx="10.2" ry="4.2"/><ellipse class="cls-12" cx="256.4" cy="157.7" rx="10.2" ry="4.2"/><ellipse class="cls-12" cx="302.6" cy="157.8" rx="10.2" ry="4.2"/><ellipse class="cls-12" cx="330.7" cy="179.3" rx="10.2" ry="4.2"/><path class="cls-13" d="M296.5,181.8c6.4,1.4,8.6,3.1,8.6,4.2,0,3-10.9,5.4-24.3,5.4s-21.6-1.9-25.2-4.7,2.3-3.8,6.2-4.9"/><g id="noun_meats_1601874_000000" data-name="noun meats 1601874 000000"><g id="Group-9"><path class="cls-14" d="M282.7,181.8c-5.2-5.3-4.9-12.5-4.7-14.1a3,3,0,0,1,1.9-2.2,3,3,0,0,1,3.9,3.1c-.1.7,0,5.4,2.8,8"/><polyline class="cls-15" points="281.5 165.4 282.2 162.9 277.9 163.6 279.7 165.8"/><path class="cls-16" d="M280.3,170.5a10.8,10.8,0,0,0,1.8,4.9"/></g><g id="Group-10"><path class="cls-14" d="M287.1,186.7a6.4,6.4,0,0,1-3.5-2.3,5.4,5.4,0,0,1,2-7.4,20.3,20.3,0,0,1,9.6-2.1c1.1.1.7,1.3,1.1,2s1.4.8,1.2,1.9a11.7,11.7,0,0,1-4.7,6.6"/><path class="cls-14" d="M296.5,175.6l1.8-1.1.9-.5a1.4,1.4,0,0,1,.2-1.6,1.5,1.5,0,0,1,1.7-.2,1.3,1.3,0,0,1,.4,1.6,1.3,1.3,0,0,1,1.2,1.1,1.3,1.3,0,0,1-.9,1.4,1.3,1.3,0,0,1-1.6-.6l-.9.6-1.8,1"/><ellipse class="cls-17" cx="286.7" cy="178.6" rx="0.4" ry="0.4" transform="translate(-51 173.1) rotate(-31)"/><ellipse class="cls-17" cx="287.5" cy="180.1" rx="0.5" ry="0.5" transform="translate(-51.7 173.7) rotate(-31)"/><ellipse class="cls-17" cx="285.8" cy="180.8" rx="0.7" ry="0.6" transform="translate(-52.3 172.9) rotate(-31)"/></g></g><g id="noun_Salad_2021361_000000-2" data-name="noun Salad 2021361 000000-2"><g id="noun_Salad_2021361_000000" data-name="noun Salad 2021361 000000"><path class="cls-18" d="M261.4,175.8l-.3-.8a2.9,2.9,0,0,1,.6-2.1,3,3,0,0,1,2-1h.4a3,3,0,0,1,2.5-2.4,3.3,3.3,0,0,1,2.5.8,3.2,3.2,0,0,1,1.9-1,2.9,2.9,0,0,1,3.1,2,3.5,3.5,0,0,1,1.8.5,3.1,3.1,0,0,1,1.1,1.9,1.4,1.4,0,0,1,0,.9,2.8,2.8,0,0,1,1.6,2.2,3.2,3.2,0,0,1-.2,1.4c-.3.9-.5,1.4,0,1.9a32,32,0,0,1,2.4,2.6h0v.2a1.8,1.8,0,0,1-.7,1.5l.4.4h.1a2.3,2.3,0,0,1-2,2.2h-.2l-.3-.2a18.1,18.1,0,0,0-2.4-2.4c-.5-.3-1.1,0-2,.4l-1.3.6a3.3,3.3,0,0,1-2.7-.8,3.5,3.5,0,0,1-1.4.6,2.5,2.5,0,0,1-2.1-.3,3,3,0,0,1-1-1.4c0,.1-.1.1-.2.1a2.6,2.6,0,0,1-3.2-2,3.3,3.3,0,0,1,0-1.4,2.8,2.8,0,0,1-1.5-2A2.6,2.6,0,0,1,261.4,175.8Z"/><path class="cls-19" d="M261.2,175.1c.1.7,1.4,1.2,2.1,1.4l.4.2-.2.4a1.8,1.8,0,0,0-.3,1.2,1.9,1.9,0,0,0,.7,1.3,2,2,0,0,0,1.4.3l.6-.2.5-.2v.6h0a1.8,1.8,0,0,0,.6,1.3,1.7,1.7,0,0,0,1.4.3,2,2,0,0,0,1.3-.6l.4-.5.3.5a2.2,2.2,0,0,0,2.1,1l1.1-.3c.9-.4,2-.9,2.9-.2a13.7,13.7,0,0,1,2.3,2.5"/><path class="cls-20" d="M273.6,176.5a1.9,1.9,0,0,0-.1-1.5,2.2,2.2,0,0,0-1-.9l.3-.8a2.8,2.8,0,0,1,1.6,3.4Z"/><path class="cls-20" d="M269.6,174.8a1.6,1.6,0,0,0-.1-1.5,1.4,1.4,0,0,0-1-.8l.3-.8a2.4,2.4,0,0,1,1.4,1.2,2.5,2.5,0,0,1,.2,2.2Z"/><path class="cls-20" d="M270.2,175.3a4.4,4.4,0,0,0-3.6,2.8l-.8-.3a5.7,5.7,0,0,1,2.7-2.8,10.5,10.5,0,0,0-3.1-.1v-.8c4.8-.3,8.4,1.1,11,4.4l-.6.4A10.6,10.6,0,0,0,270.2,175.3Z"/><path class="cls-20" d="M273.5,176.2v.7a3.1,3.1,0,0,0-2.8,2.2l-.7-.3A3.7,3.7,0,0,1,273.5,176.2Z"/></g></g><path class="cls-13" d="M291,190.9v.6c0,1.3-4.6,2.3-10.2,2.3s-10.1-1-10.1-2.3v-.6"/><path class="cls-13" d="M262.5,185.6c3.7,1.3,10.2,2.2,17.7,2.2s14-.9,17.7-2.2"/><path class="cls-21" d="M231.8,168c.7,0,.9-1,1.6-1l4.6-.2.2.2c0,.2-.1.2-.2.2l-3.6.2c-.1,0-.1.1-.1.2h0c0,.1,0,.2.1.2H238a.2.2,0,0,1,.2.2l-.2.2h-3.6v.2h0l.2.2h3.6v.2c0,.1,0,.2-.1.2h-3.6c-.1,0-.2.1-.2.3h0l.2.2h3.6c.1,0,.1,0,.1.2s0,.2-.1.2h-4.7c-.6,0-.8-.9-1.5-.9h-.6l-8.3.7a.9.9,0,0,1-.9-.9.9.9,0,0,1,.8-.9c.4-.1,7.6.1,8.4.1Z"/><path class="cls-21" d="M230.1,183.9c.6,0,1.1-1.8,4.2-1.3s4.7,2.2,3.6,2.3l-14.9.4a.9.9,0,0,1-.9-.9.9.9,0,0,1,.8-.9S229.7,184,230.1,183.9Z"/><path class="cls-21" d="M329.1,187.4c-.7,0-.9.9-1.5,1h-4.7l-.2-.2a.2.2,0,0,1,.2-.2h3.6c.1,0,.1-.1.1-.2h0c0-.1,0-.2-.1-.2h-3.6l-.2-.2.2-.2h3.6a.4.4,0,0,0,.1-.3h0a.2.2,0,0,0-.2-.2h-3.5c-.1,0-.2,0-.2-.2v-.2h3.6a.2.2,0,0,0,.2-.2h0l-.2-.2h-3.6c-.1,0-.1-.1-.1-.2s0-.2.1-.2l4.7-.2c.6.1.8,1,1.5,1h.6l8.3-.6a.9.9,0,0,1,.9.9.9.9,0,0,1-.8.9c-.4,0-7.5-.2-8.4-.1Z"/><path class="cls-21" d="M330.8,171.4c-.6,0-1.1,1.8-4.2,1.3s-4.7-2.2-3.5-2.2l14.8-.5a.9.9,0,0,1,.9.9,1,1,0,0,1-.8,1Z"/><path class="cls-21" d="M313.9,163c-.5.5-.1,1.3-.6,1.7l-3.8,2.8h-.2c-.1-.1-.1-.3,0-.3l2.9-2.2v-.2h0c-.1-.1-.2-.2-.3-.1l-2.9,2.2h-.2a.2.2,0,0,1,0-.3l2.9-2.1v-.3h-.3l-2.9,2.2h-.2c-.1-.1-.1-.2,0-.2l2.9-2.2v-.3h-.3l-2.9,2.2h-.2c-.1,0-.1-.2,0-.2l3.7-2.8c.5-.4,1.2.2,1.8-.2l.4-.3,6.5-5.4a1,1,0,0,1,1.2.3.9.9,0,0,1-.1,1.2l-6.9,4.7-.5.3Z"/><path class="cls-21" d="M288.9,154.1c-.5.4.1,2.1-2.7,3.6s-5,1-4.1.3l11.7-9.2a.8.8,0,0,1,1.2.2c.3.4.3,1-.1,1.2S289.2,153.8,288.9,154.1Z"/><path class="cls-21" d="M270.5,155.3l-.4-.4-6.9-4.7c-.4-.2-.4-.8-.1-1.2a.8.8,0,0,1,1.2-.2l6.4,5.3.4.4c.6.4,1.3-.2,1.9.1l3.7,2.8a.2.2,0,0,1,0,.3h-.3l-2.8-2.2c-.1-.1-.2,0-.3.1h0c-.1.1-.1.2,0,.2l2.9,2.2v.3h-.3l-2.8-2.1c-.1-.1-.2,0-.3,0h0c-.1.1-.1.3,0,.3l2.9,2.2v.2c-.1.1-.2.2-.3.1l-2.9-2.2h-.2a.2.2,0,0,0,0,.3l2.9,2.1v.3h-.3l-3.7-2.8c-.5-.5-.1-1.3-.7-1.7Z"/><path class="cls-21" d="M238.5,156.8a.8.8,0,0,0-1.1.1.7.7,0,0,0,.2,1.1l11.7,9.2c.9.7.6-1.4-1.5-3.7s-3.5-1.5-4-1.8Z"/></svg>