<?xml version="1.0" encoding="utf-8"?>
<!-- Generator: Adobe Illustrator 23.0.4, SVG Export Plug-In . SVG Version: 6.00 Build 0)  -->
<svg version="1.1" id="Calque_1" xmlns="http://www.w3.org/2000/svg" xmlns:xlink="http://www.w3.org/1999/xlink" x="0px" y="0px"
	 viewBox="0 0 786 401" style="enable-background:new 0 0 786 401;" xml:space="preserve">
<style type="text/css">
	.st0{fill:#F8F8F3;}
	.st1{fill:none;stroke:#91C423;stroke-width:0.99;stroke-miterlimit:10;}
	.st2{fill:none;stroke:#91C423;stroke-width:0.99;stroke-miterlimit:10;stroke-dasharray:5.82,5.82;}
	.st3{fill:none;stroke:#91C423;stroke-width:0.48;stroke-miterlimit:10;}
	.st4{fill:none;stroke:#91C423;stroke-width:0.48;stroke-miterlimit:10;stroke-dasharray:7.01,7.01;}
	.st5{fill:#FFFFFF;stroke:#015A5A;stroke-width:3;stroke-miterlimit:10;}
	.st6{opacity:0.12;fill:#91C423;stroke:#015A5A;stroke-width:3.24;stroke-miterlimit:10;enable-background:new    ;}
	.st7{fill:none;stroke:#91C423;stroke-miterlimit:10;}
	.st8{fill:none;stroke:#015A5A;stroke-width:3;stroke-miterlimit:10;}
	.st9{fill:none;stroke:#015A5A;stroke-width:2.5;stroke-miterlimit:10;}
	.st10{fill:#FFFFFF;stroke:#015A5A;stroke-width:2.5;stroke-miterlimit:10;}
	.st11{fill:#015A5A;}
	.st12{fill:#FFFFFF;}
	.st13{fill:#FFFFFF;stroke:#91C423;stroke-width:3.95;stroke-miterlimit:10;}
	.st14{clip-path:url(#SVGID_2_);}
	.st15{fill:none;stroke:#91C022;stroke-width:1.52;stroke-miterlimit:10;}
</style>
<title>parcours1</title>
<ellipse class="st0" cx="388" cy="231.3" rx="246.5" ry="82.1"/>
<path class="st1" d="M429.5,133.7l3,0.2"/>
<path class="st2" d="M438.3,134.2c138.2,8.3,243,48.9,243,97.7c0,54.8-132.5,99.3-295.9,99.3s-296-44.5-296-99.3
	c0-50.7,113-92.4,259-98.5"/>
<path class="st1" d="M351.4,133.3l2.9-0.2"/>
<path class="st3" d="M439.3,120.1l3.5,0.2"/>
<path class="st4" d="M449.8,120.6c173.4,9.2,305.5,56.8,305.5,114.2c0,63.9-164.3,115.7-366.9,115.7S21.5,298.7,21.5,234.8
	C21.5,176,160.2,127.5,340,120"/>
<path class="st3" d="M343.5,119.9l3.5-0.2"/>
<ellipse class="st5" cx="390.5" cy="245.5" rx="94.5" ry="37.5"/>
<ellipse class="st5" cx="389.5" cy="212" rx="170.7" ry="56.1"/>
<ellipse class="st6" cx="389.5" cy="210.7" rx="124.2" ry="40.8"/>
<line class="st7" x1="318.7" y1="176" x2="275" y2="230"/>
<line class="st7" x1="347.9" y1="172" x2="309.3" y2="244"/>
<line class="st7" x1="373.9" y1="172" x2="352" y2="251"/>
<line class="st7" x1="397.8" y1="178" x2="399.9" y2="251"/>
<line class="st7" x1="416.5" y1="172" x2="442.6" y2="247"/>
<line class="st7" x1="443.6" y1="175" x2="476.9" y2="237"/>
<line class="st7" x1="472.7" y1="181" x2="505" y2="223"/>
<line class="st7" x1="333" y1="175" x2="295" y2="236"/>
<line class="st7" x1="361" y1="171" x2="333" y2="247"/>
<line class="st7" x1="387" y1="170" x2="375" y2="251"/>
<line class="st7" x1="410" y1="168" x2="420" y2="249"/>
<line class="st7" x1="430" y1="172" x2="457" y2="243"/>
<line class="st7" x1="457" y1="177" x2="491" y2="231"/>
<line class="st7" x1="486" y1="184" x2="511" y2="214"/>
<line class="st7" x1="305" y1="180" x2="267" y2="218"/>
<ellipse class="st8" cx="389.5" cy="210.7" rx="124.2" ry="40.8"/>
<line class="st9" x1="290.8" y1="214" x2="290.5" y2="174.3"/>
<path class="st10" d="M294.6,167c0,5-4,9-4,9s-4-4-4-9s4-9,4-9S294.6,162,294.6,167z"/>
<path class="st10" d="M287.1,172.6c3.1,3.3,3.3,8.5,3.3,8.5c-3-0.2-5.8-1.5-8-3.6c-3.1-3.3-3.4-8.5-3.4-8.5
	C282,169.2,284.9,170.5,287.1,172.6z"/>
<path class="st10" d="M298.8,177.5c-3.1,3.4-8,3.6-8,3.6s0.2-5.2,3.4-8.5s8-3.6,8-3.6S302,174.2,298.8,177.5z"/>
<path class="st10" d="M286.8,183.5c3.4,3.6,3.6,9.2,3.6,9.2s-5.3-0.2-8.7-3.8s-3.6-9.3-3.6-9.3S283.4,179.9,286.8,183.5z"/>
<path class="st10" d="M299.5,188.9c-3.4,3.6-8.7,3.8-8.7,3.8s0.3-5.6,3.7-9.2s8.7-3.9,8.7-3.9S302.9,185.3,299.5,188.9z"/>
<path class="st10" d="M286.8,195.1c3.4,3.7,3.6,9.3,3.6,9.3s-5.3-0.3-8.7-3.9s-3.6-9.2-3.6-9.2S283.4,191.5,286.8,195.1z"/>
<path class="st10" d="M299.5,200.5c-3.4,3.6-8.7,3.9-8.7,3.9s0.3-5.6,3.7-9.3s8.7-3.8,8.7-3.8S302.9,196.9,299.5,200.5z"/>
<path class="st10" d="M333.6,222.6c0,5.6-4.2,10.1-4.2,10.1s-4.1-4.5-4.1-10.1s4.1-10.2,4.1-10.2S333.6,217,333.6,222.6z"/>
<path class="st10" d="M324.8,226c3.9,4,4.2,10.1,4.2,10.1s-6.2-0.3-10.1-4.2s-4.3-10.1-4.3-10.1S320.8,222,324.8,226z"/>
<path class="st10" d="M339.5,231.9c-3.9,3.9-10.1,4.2-10.1,4.2s0.3-6.1,4.3-10.1s10.1-4.2,10.1-4.2S343.5,227.9,339.5,231.9z"/>
<path class="st11" d="M486.1,211v-32.9c-1.6,0.5-3.2,0-5.3-1.2c-7.6,4.2-17.3,1.4-21.5-6.2c-1.3-2.4-2-5.1-1.9-7.9
	c-0.1-4.3,1.6-8.5,4.8-11.4c-6.1-13,6.5-26.7,19.5-22.3c15.4-11.3,36.8,2.9,32,21.9c14.1,13.4-4.5,36.1-20.7,24.7
	c-0.9,0.9-2,1.6-3.2,2V211H486.1z M501.5,147.4l2.4,2.4l-14.1,13.8v9.7c1.3-0.1,2.5-0.9,3.2-2c15,12.5,30.8-7.7,16.6-19.5
	c6.1-17.4-13-30.4-27.1-18.6c-13.8-5.7-21.9,8.5-15.8,19c-2.5,1.8-4.3,4.4-5.3,7.3c-2.8,10.1,7.7,21.1,19.4,13.8
	c1.7,0.8,3.5,1.2,5.3,1.2v-3.6l-12.1-9l2-2.8l10.1,7.7c0-15,1.6-10.5-5.3-19l2.9-2.1C490.6,154.2,501.5,147.4,501.5,147.4z"/>
<path class="st12" d="M494,154l3,2l-7.2,7.6v9.7c1.3-0.1,2.5-0.9,3.2-2c15,12.5,30.8-7.7,16.6-19.5c6.1-17.4-13-30.4-27.1-18.6
	c-13.8-5.7-21.9,8.5-15.8,19c-2.5,1.8-4.3,4.4-5.3,7.3c-2.8,10.1,7.7,21.1,19.4,13.8c1.7,0.8,3.5,1.2,5.3,1.2v-3.6l-12.1-9l2-2.8
	l10.1,7.7V162"/>
<path class="st11" d="M476.7,199.6c-0.2-0.6-0.8-1-1.4-1h-9.1l-10.1-10.1c-0.3-0.2-0.6-0.4-1-0.4h-34.9c-4.3,0.1-7.7,3.5-7.7,7.8
	v10.9c0,0.8,0.6,1.4,1.4,1.4c0,0,0.1,0,0.1,0c0.8,0,1.4-0.6,1.4-1.4v-10.9c0.1-2.1,1.4-3.9,3.4-4.6v32.6c0,0.8,0.6,1.4,1.4,1.5
	c0.8,0,1.5-0.7,1.5-1.5l0,0v-6.5l4.5-4.5l3.9,11.5c0.2,0.6,0.8,1,1.4,1h0.4c0.8-0.2,1.2-1.1,1-1.9c0,0,0,0,0,0l0,0l-4-11.7h16.9
	l-2.5,11.9c-0.2,0.7,0.1,1.4,0.8,1.6c0.1,0,0.2,0,0.3,0.1h0.3c0.7,0,1.3-0.5,1.5-1.1l1.9-9.5l4.7,9.9c0.3,0.5,0.8,0.8,1.4,0.8
	c0.8,0,1.4-0.6,1.4-1.4c0,0,0-0.1,0-0.1c0-0.2,0-0.4-0.1-0.6l-2.8-5.9l5.7-5.7h6c0.7,3.6,3.9,6.2,7.6,6.2c0.8,0,1.5-0.7,1.5-1.5V204
	l2.9-2.8C476.8,200.8,476.9,200.1,476.7,199.6z M471,202.4c-0.3,0.2-0.5,0.6-0.5,1v11.4c-1.9-0.7-3.3-2.5-3.3-4.6
	c0-0.8-0.7-1.5-1.5-1.5h-7.9c-0.4,0-0.8,0.2-1.1,0.4l-5.4,5.4l-2.3-4.9l0,0l-0.2-0.3l0,0l-0.3-0.3h-22.7l-4,4v-21.9h4
	c0.4,3.8,3.9,6.6,7.7,6.2c0,0,0.1,0,0.1,0c3.2-0.4,5.8-3,6.2-6.2h14.7l0.9,1c-1.8,0.7-2.7,2.6-2.1,4.4c0.7,1.8,2.7,2.7,4.5,2.1
	c0.9-0.4,1.7-1.2,2.1-2.1l4.7,4.7c0.3,0.3,0.6,0.5,1,0.5h6.2L471,202.4z"/>
<path class="st12" d="M471,202.4c-0.3,0.2-0.5,0.6-0.5,1v11.4c-1.9-0.7-3.3-2.5-3.3-4.6c0-0.8-0.7-1.5-1.5-1.5h-7.9
	c-0.4,0-0.8,0.2-1.1,0.4l-5.4,5.4l-2.3-4.9l0,0l-0.2-0.3l0,0l-0.3-0.3h-22.7l-4,4v-21.9h4c0.4,3.8,3.9,6.6,7.7,6.2c0,0,0.1,0,0.1,0
	c3.2-0.4,5.8-3,6.2-6.2h14.7l0.9,1c-1.8,0.7-2.7,2.6-2.1,4.4c0.7,1.8,2.7,2.7,4.5,2.1c0.9-0.4,1.7-1.2,2.1-2.1l4.7,4.7
	c0.3,0.3,0.6,0.5,1,0.5h6.2L471,202.4z"/>
<path class="st11" d="M455.9,190c-1.7,0-3.1,1.4-3.1,3.1v0c0.1,1.7,1.4,3,3.1,3.1c1.7,0,3-1.3,3-3c0,0,0-0.1,0-0.1
	c0.1-1.7-1.2-3-2.9-3.1C456,190,455.9,190,455.9,190z"/>
<path class="st13" d="M445.8,84.3c-0.7-10.5-4.8-20.4-11.7-28.3l-4-4.6c-7.5-7.5-17-12.6-27.3-14.7c-3.5-0.7-7-1-10.6-1h-1.9
	c-3,0.1-6,0.5-8.9,1.1c-3.5,0.7-6.8,1.8-10.1,3.2c-10,4.2-18.4,11.2-24.4,20.2c-7,10.4-9.8,21.6-8.8,34.4c1.1,11.5,5,22.6,11.4,32.3
	l19.8,29.8c7.4,11.2,14.9,22.7,22.2,34.2l2,3l16.1-26c5.6-9,11.3-18,16.9-26.7c4.6-7.2,8.8-14.6,12.7-22.2
	C444.6,108.3,446.9,96.3,445.8,84.3z M406.9,103.3c-3.9,4.2-9.5,6.5-15.2,6.4c-11.9,0-21.6-9.7-21.7-21.6
	c-0.1-11.9,9.4-21.6,21.3-21.7c0.1,0,0.3,0,0.4,0c11.9,0.1,21.6,9.8,21.6,21.7C413.4,93.8,411.1,99.4,406.9,103.3z"/>
<polygon class="st0" points="507.6,136.8 507.6,136.8 507.6,136.8 507.6,136.8 "/>
<path class="st5" d="M201.6,185.7c2.4-4.6-6.1-5.7-4.2-9.6l20.5-38.4c0.2-0.4-9.2,24.4-9.2,24.4s0.4,0.9,1.4,0.9h0.1
	c1.1,0,2.2-0.4,2.4-0.9S226,137,226.9,137s-10.4,25.1-10.4,25.1s0.4,0.9,1.5,0.9l0,0c1.1,0,2.2-0.4,2.4-0.9s12.5-25.1,13.4-25.1
	s-9.5,25.1-9.5,25.1s0.4,0.9,1.5,0.9h0.1c1,0,2.1-0.4,2.3-0.9s14.1-24.8,14-24.4l-16.6,38.4c-2,3.9-11.5,5-13.6,9.6
	c0,0-28.5,71.6-31,77.3s-11,11-19,7c-5-2-8.2-6.3-4.6-13C161,250.3,201.6,185.7,201.6,185.7z"/>
<path class="st5" d="M584,204c-2.2-4.3-18-10-29-34c-9-24,0.6-36.2,3.3-31.3L624.9,257c3.8,6.7,4.3,12.3-3.6,12.3
	s-13.4-5.6-16.6-12.3C598.9,238.9,591.9,221.2,584,204z"/>
<circle class="st11" cx="478.5" cy="145.5" r="4.5"/>
<circle class="st11" cx="503.8" cy="164.5" r="4"/>
<path class="st10" d="M362.6,197.6c0,5.6-4.2,10.1-4.2,10.1s-4.1-4.5-4.1-10.1s4.1-10.2,4.1-10.2S362.6,192,362.6,197.6z"/>
<path class="st10" d="M353.8,201c3.9,4,4.2,10.1,4.2,10.1s-6.2-0.3-10.1-4.2s-4.3-10.1-4.3-10.1S349.8,197,353.8,201z"/>
<path class="st10" d="M368.5,206.9c-3.9,3.9-10.1,4.2-10.1,4.2s0.3-6.1,4.3-10.1s10.1-4.2,10.1-4.2S372.5,202.9,368.5,206.9z"/>
<line class="st9" x1="328.8" y1="200" x2="328.5" y2="160.3"/>
<path class="st10" d="M332.6,153c0,5-4,9-4,9s-4-4-4-9s4-9,4-9S332.6,148,332.6,153z"/>
<path class="st10" d="M325.1,158.6c3.1,3.3,3.3,8.5,3.3,8.5c-3-0.2-5.8-1.5-8-3.6c-3.1-3.3-3.4-8.5-3.4-8.5
	C320,155.2,322.9,156.5,325.1,158.6z"/>
<path class="st10" d="M336.8,163.5c-3.1,3.4-8,3.6-8,3.6s0.2-5.2,3.4-8.5s8-3.6,8-3.6S340,160.2,336.8,163.5z"/>
<path class="st10" d="M324.8,169.5c3.4,3.6,3.6,9.2,3.6,9.2s-5.3-0.2-8.7-3.8s-3.6-9.3-3.6-9.3S321.4,165.9,324.8,169.5z"/>
<path class="st10" d="M337.5,174.9c-3.4,3.6-8.7,3.8-8.7,3.8s0.3-5.6,3.7-9.2s8.7-3.9,8.7-3.9S340.9,171.3,337.5,174.9z"/>
<path class="st10" d="M324.8,181.1c3.4,3.7,3.6,9.3,3.6,9.3s-5.3-0.3-8.7-3.9s-3.6-9.2-3.6-9.2S321.4,177.5,324.8,181.1z"/>
<path class="st10" d="M337.5,186.5c-3.4,3.6-8.7,3.9-8.7,3.9s0.3-5.6,3.7-9.3s8.7-3.8,8.7-3.8S340.9,182.9,337.5,186.5z"/>
<path class="st10" d="M378.5,211.7c0.9,0,1.7,0.4,2.3,1.1c2.1,2.2,2,7,2,7.5s0.5,9,8.2,10.3h1.7l0.4,1.5c0.1,0.3,0.5,0.5,0.8,0.4
	c0.3-0.1,0.5-0.4,0.4-0.7l-0.3-1.2h0.6c2.9-0.2,5.4-2,6.6-4.6h0.2c3.1-2.1,4.6-5.4,4.6-9.8l0,0c-0.1-0.7-0.4-2.3-1.1-2.3
	s-0.8,0.2-1.8,1.2c-1.6,1.8-3.7,3-6.1,3.3l-3,0.3c-3.7,0-5.1-1.8-7-4.1c-0.7-1-1.5-2-2.4-2.9c-0.8-0.9-1.8-1.4-3-1.5
	C380.4,210.3,379.3,210.8,378.5,211.7z"/>
<path class="st9" d="M398.5,222.2c0,0-0.8,3.3-5.1,3.3s-6.1-2.9-6.3-5.5"/>
<polyline class="st9" points="394.5,236.8 392.2,235.8 393.6,231.9 "/>
<line class="st9" x1="389.6" y1="236.4" x2="392.2" y2="235.7"/>
<line class="st7" x1="675.5" y1="5.5" x2="675.5" y2="6.5"/>
<circle class="st11" cx="498.8" cy="144.5" r="4"/>
<g>
	<defs>
		<polygon id="SVGID_1_" points="1286,274.7 886.2,274.7 958.4,165.8 1213.7,165.8 		"/>
	</defs>
	<clipPath id="SVGID_2_">
		<use xlink:href="#SVGID_1_"  style="overflow:visible;"/>
	</clipPath>
	<g class="st14">
		<line class="st15" x1="783.2" y1="207.2" x2="1163.4" y2="469"/>
	</g>
</g>
</svg>
