<svg id="Calque_1" data-name="Calque 1" xmlns="http://www.w3.org/2000/svg" xmlns:xlink="http://www.w3.org/1999/xlink" viewBox="0 0 786 401"><defs><style>.cls-1,.cls-10,.cls-16,.cls-18,.cls-3,.cls-4,.cls-5,.cls-6,.cls-9{fill:none;}.cls-1,.cls-18{stroke:#91c022;}.cls-1,.cls-10,.cls-11,.cls-14,.cls-15,.cls-16,.cls-18,.cls-3,.cls-4,.cls-5,.cls-6,.cls-7,.cls-8,.cls-9{stroke-miterlimit:10;}.cls-1{stroke-width:1.15px;}.cls-15,.cls-2{fill:#f8f8f3;}.cls-14,.cls-3,.cls-4,.cls-5,.cls-6,.cls-9{stroke:#91c423;}.cls-3,.cls-4{stroke-width:0.99px;}.cls-4{stroke-dasharray:5.82 5.82;}.cls-5,.cls-6{stroke-width:0.48px;}.cls-6{stroke-dasharray:7.01 7.01;}.cls-11,.cls-13,.cls-14,.cls-7{fill:#fff;}.cls-10,.cls-11,.cls-15,.cls-16,.cls-7,.cls-8{stroke:#015a5a;}.cls-10,.cls-7{stroke-width:3px;}.cls-8{fill:#91c423;stroke-width:3.24px;opacity:0.12;}.cls-11,.cls-16{stroke-width:2.5px;}.cls-12{fill:#015a5a;}.cls-14{stroke-width:3.95px;}.cls-15{stroke-width:0px;}.cls-17{clip-path:url(#clip-path);}.cls-18{stroke-width:1.52px;}</style><clipPath id="clip-path"><polygon class="cls-1" points="1286 274.7 886.2 274.7 958.4 165.8 1213.7 165.8 1286 274.7"/></clipPath></defs><title>parcours1</title><ellipse class="cls-2" cx="388" cy="231.3" rx="246.5" ry="82.1"/><path class="cls-3" d="M429.5,133.7l3,.2"/><path class="cls-4" d="M438.3,134.2c138.2,8.3,243,48.9,243,97.7,0,54.8-132.5,99.3-295.9,99.3s-296-44.5-296-99.3c0-50.7,113-92.4,259-98.5"/><path class="cls-3" d="M351.4,133.3l2.9-.2"/><path class="cls-5" d="M439.3,120.1l3.5.2"/><path class="cls-6" d="M449.8,120.6c173.4,9.2,305.5,56.8,305.5,114.2,0,63.9-164.3,115.7-366.9,115.7S21.5,298.7,21.5,234.8C21.5,176,160.2,127.5,340,120"/><path class="cls-5" d="M343.5,119.9l3.5-.2"/><ellipse class="cls-7" cx="390.5" cy="245.5" rx="94.5" ry="37.5"/><ellipse class="cls-7" cx="389.5" cy="212" rx="170.7" ry="56.1"/><ellipse class="cls-8" cx="389.5" cy="210.7" rx="124.2" ry="40.8"/><line class="cls-9" x1="318.7" y1="176" x2="275" y2="230"/><line class="cls-9" x1="347.9" y1="172" x2="309.3" y2="244"/><line class="cls-9" x1="373.9" y1="172" x2="352" y2="251"/><line class="cls-9" x1="397.8" y1="178" x2="399.9" y2="251"/><line class="cls-9" x1="416.5" y1="172" x2="442.6" y2="247"/><line class="cls-9" x1="443.6" y1="175" x2="476.9" y2="237"/><line class="cls-9" x1="472.7" y1="181" x2="505" y2="223"/><line class="cls-9" x1="333" y1="175" x2="295" y2="236"/><line class="cls-9" x1="361" y1="171" x2="333" y2="247"/><line class="cls-9" x1="387" y1="170" x2="375" y2="251"/><line class="cls-9" x1="410" y1="168" x2="420" y2="249"/><line class="cls-9" x1="430" y1="172" x2="457" y2="243"/><line class="cls-9" x1="457" y1="177" x2="491" y2="231"/><line class="cls-9" x1="486" y1="184" x2="511" y2="214"/><line class="cls-9" x1="305" y1="180" x2="267" y2="218"/><ellipse class="cls-10" cx="389.5" cy="210.7" rx="124.2" ry="40.8"/><line class="cls-11" x1="290.8" y1="214" x2="290.5" y2="174.3"/><path class="cls-11" d="M294.6,167c0,5-4,9-4,9s-4-4-4-9,4-9,4-9S294.6,162,294.6,167Z"/><path class="cls-11" d="M287.1,172.6c3.1,3.3,3.3,8.5,3.3,8.5a12.8,12.8,0,0,1-8-3.6c-3.1-3.3-3.4-8.5-3.4-8.5A13,13,0,0,1,287.1,172.6Z"/><path class="cls-11" d="M298.8,177.5c-3.1,3.4-8,3.6-8,3.6s.2-5.2,3.4-8.5,8-3.6,8-3.6S302,174.2,298.8,177.5Z"/><path class="cls-11" d="M286.8,183.5c3.4,3.6,3.6,9.2,3.6,9.2s-5.3-.2-8.7-3.8-3.6-9.3-3.6-9.3S283.4,179.9,286.8,183.5Z"/><path class="cls-11" d="M299.5,188.9c-3.4,3.6-8.7,3.8-8.7,3.8s.3-5.6,3.7-9.2,8.7-3.9,8.7-3.9S302.9,185.3,299.5,188.9Z"/><path class="cls-11" d="M286.8,195.1c3.4,3.7,3.6,9.3,3.6,9.3s-5.3-.3-8.7-3.9-3.6-9.2-3.6-9.2S283.4,191.5,286.8,195.1Z"/><path class="cls-11" d="M299.5,200.5c-3.4,3.6-8.7,3.9-8.7,3.9s.3-5.6,3.7-9.3,8.7-3.8,8.7-3.8S302.9,196.9,299.5,200.5Z"/><path class="cls-11" d="M333.6,222.6c0,5.6-4.2,10.1-4.2,10.1s-4.1-4.5-4.1-10.1,4.1-10.2,4.1-10.2S333.6,217,333.6,222.6Z"/><path class="cls-11" d="M324.8,226c3.9,4,4.2,10.1,4.2,10.1s-6.2-.3-10.1-4.2-4.3-10.1-4.3-10.1S320.8,222,324.8,226Z"/><path class="cls-11" d="M339.5,231.9c-3.9,3.9-10.1,4.2-10.1,4.2s.3-6.1,4.3-10.1,10.1-4.2,10.1-4.2S343.5,227.9,339.5,231.9Z"/><path class="cls-12" d="M486.1,211V178.1c-1.6.5-3.2,0-5.3-1.2a15.8,15.8,0,0,1-23.4-14.1,14.8,14.8,0,0,1,4.8-11.4c-6.1-13,6.5-26.7,19.5-22.3,15.4-11.3,36.8,2.9,32,21.9,14.1,13.4-4.5,36.1-20.7,24.7a8.7,8.7,0,0,1-3.2,2V211Zm15.4-63.6,2.4,2.4-14.1,13.8v9.7a4.1,4.1,0,0,0,3.2-2c15,12.5,30.8-7.7,16.6-19.5,6.1-17.4-13-30.4-27.1-18.6-13.8-5.7-21.9,8.5-15.8,19a15,15,0,0,0-5.3,7.3c-2.8,10.1,7.7,21.1,19.4,13.8a13.1,13.1,0,0,0,5.3,1.2v-3.6l-12.1-9,2-2.8,10.1,7.7c0-15,1.6-10.5-5.3-19l2.9-2.1C490.6,154.2,501.5,147.4,501.5,147.4Z"/><path class="cls-13" d="M494,154l3,2-7.2,7.6v9.7a4.1,4.1,0,0,0,3.2-2c15,12.5,30.8-7.7,16.6-19.5,6.1-17.4-13-30.4-27.1-18.6-13.8-5.7-21.9,8.5-15.8,19a15,15,0,0,0-5.3,7.3c-2.8,10.1,7.7,21.1,19.4,13.8a13.1,13.1,0,0,0,5.3,1.2v-3.6l-12.1-9,2-2.8,10.1,7.7V162"/><path class="cls-12" d="M476.7,199.6a1.5,1.5,0,0,0-1.4-1h-9.1l-10.1-10.1a1.8,1.8,0,0,0-1-.4H420.2a7.8,7.8,0,0,0-7.7,7.8v10.9a1.4,1.4,0,0,0,1.5,1.4,1.4,1.4,0,0,0,1.4-1.4V195.9a5.1,5.1,0,0,1,3.4-4.6v32.6a1.5,1.5,0,0,0,1.4,1.5,1.5,1.5,0,0,0,1.5-1.5v-6.5l4.5-4.5,3.9,11.5a1.4,1.4,0,0,0,1.4,1h.4a1.5,1.5,0,0,0,1-1.9h0l-4-11.7h16.9l-2.5,11.9a1.3,1.3,0,0,0,1.1,1.7h.3a1.6,1.6,0,0,0,1.5-1.1l1.9-9.5,4.7,9.9a1.6,1.6,0,0,0,1.4.8,1.4,1.4,0,0,0,1.4-1.5,1.3,1.3,0,0,0-.1-.6l-2.8-5.9,5.7-5.7h6A7.7,7.7,0,0,0,472,218a1.5,1.5,0,0,0,1.5-1.5V204l2.9-2.8A1.6,1.6,0,0,0,476.7,199.6Zm-5.7,2.8a1.2,1.2,0,0,0-.5,1v11.4a5,5,0,0,1-3.3-4.6,1.5,1.5,0,0,0-1.5-1.5h-7.9a2.1,2.1,0,0,0-1.1.4l-5.4,5.4-2.3-4.9h0l-.2-.3h0l-.3-.3H425.8l-4,4V191.1h4a7,7,0,0,0,7.8,6.2,7.2,7.2,0,0,0,6.2-6.2h14.7l.9,1a3.5,3.5,0,0,0-2.1,4.4,3.6,3.6,0,0,0,4.5,2.1,3.9,3.9,0,0,0,2.1-2.1l4.7,4.7a1.6,1.6,0,0,0,1,.5h6.2Z"/><path class="cls-13" d="M471,202.4a1.2,1.2,0,0,0-.5,1v11.4a5,5,0,0,1-3.3-4.6,1.5,1.5,0,0,0-1.5-1.5h-7.9a2.1,2.1,0,0,0-1.1.4l-5.4,5.4-2.3-4.9h0l-.2-.3h0l-.3-.3H425.8l-4,4V191.1h4a7,7,0,0,0,7.8,6.2,7.2,7.2,0,0,0,6.2-6.2h14.7l.9,1a3.5,3.5,0,0,0-2.1,4.4,3.6,3.6,0,0,0,4.5,2.1,3.9,3.9,0,0,0,2.1-2.1l4.7,4.7a1.6,1.6,0,0,0,1,.5h6.2Z"/><path class="cls-12" d="M455.9,190a3.1,3.1,0,0,0-3.1,3.1,3.2,3.2,0,0,0,3.1,3.1,3,3,0,0,0,3-3.1,3,3,0,0,0-3-3.1Z"/><path class="cls-14" d="M445.8,84.3A48.1,48.1,0,0,0,434.1,56l-4-4.6a53.8,53.8,0,0,0-27.3-14.7,54.4,54.4,0,0,0-10.6-1h-1.9a55.5,55.5,0,0,0-8.9,1.1A53.8,53.8,0,0,0,371.3,40a54.5,54.5,0,0,0-24.4,20.2c-7,10.4-9.8,21.6-8.8,34.4a69.8,69.8,0,0,0,11.4,32.3l19.8,29.8c7.4,11.2,14.9,22.7,22.2,34.2l2,3,16.1-26c5.6-9,11.3-18,16.9-26.7A251.2,251.2,0,0,0,439.2,119,64.9,64.9,0,0,0,445.8,84.3Zm-38.9,19a20.5,20.5,0,0,1-15.2,6.4A21.7,21.7,0,0,1,370,88.1a21.5,21.5,0,0,1,21.7-21.7,21.7,21.7,0,0,1,21.6,21.7A20.5,20.5,0,0,1,406.9,103.3Z"/><circle class="cls-15" cx="507.6" cy="136.8"/><path class="cls-7" d="M201.6,185.7c2.4-4.6-6.1-5.7-4.2-9.6l20.5-38.4c.2-.4-9.2,24.4-9.2,24.4s.4.9,1.4.9h.1c1.1,0,2.2-.4,2.4-.9S226,137,226.9,137s-10.4,25.1-10.4,25.1.4.9,1.5.9h0c1.1,0,2.2-.4,2.4-.9S232.9,137,233.8,137s-9.5,25.1-9.5,25.1.4.9,1.5.9h.1c1,0,2.1-.4,2.3-.9s14.1-24.8,14-24.4l-16.6,38.4c-2,3.9-11.5,5-13.6,9.6,0,0-28.5,71.6-31,77.3s-11,11-19,7c-5-2-8.2-6.3-4.6-13S201.6,185.7,201.6,185.7Z"/><path class="cls-7" d="M584,204c-2.2-4.3-18-10-29-34-9-24,.6-36.2,3.3-31.3L624.9,257c3.8,6.7,4.3,12.3-3.6,12.3s-13.4-5.6-16.6-12.3A477.3,477.3,0,0,0,584,204Z"/><circle class="cls-12" cx="478.5" cy="145.5" r="4.5"/><circle class="cls-12" cx="503.8" cy="164.5" r="4"/><path class="cls-11" d="M362.6,197.6c0,5.6-4.2,10.1-4.2,10.1s-4.1-4.5-4.1-10.1,4.1-10.2,4.1-10.2S362.6,192,362.6,197.6Z"/><path class="cls-11" d="M353.8,201c3.9,4,4.2,10.1,4.2,10.1s-6.2-.3-10.1-4.2-4.3-10.1-4.3-10.1S349.8,197,353.8,201Z"/><path class="cls-11" d="M368.5,206.9c-3.9,3.9-10.1,4.2-10.1,4.2s.3-6.1,4.3-10.1,10.1-4.2,10.1-4.2S372.5,202.9,368.5,206.9Z"/><line class="cls-11" x1="328.8" y1="200" x2="328.5" y2="160.3"/><path class="cls-11" d="M332.6,153c0,5-4,9-4,9s-4-4-4-9,4-9,4-9S332.6,148,332.6,153Z"/><path class="cls-11" d="M325.1,158.6c3.1,3.3,3.3,8.5,3.3,8.5a12.8,12.8,0,0,1-8-3.6c-3.1-3.3-3.4-8.5-3.4-8.5A13,13,0,0,1,325.1,158.6Z"/><path class="cls-11" d="M336.8,163.5c-3.1,3.4-8,3.6-8,3.6s.2-5.2,3.4-8.5,8-3.6,8-3.6S340,160.2,336.8,163.5Z"/><path class="cls-11" d="M324.8,169.5c3.4,3.6,3.6,9.2,3.6,9.2s-5.3-.2-8.7-3.8-3.6-9.3-3.6-9.3S321.4,165.9,324.8,169.5Z"/><path class="cls-11" d="M337.5,174.9c-3.4,3.6-8.7,3.8-8.7,3.8s.3-5.6,3.7-9.2,8.7-3.9,8.7-3.9S340.9,171.3,337.5,174.9Z"/><path class="cls-11" d="M324.8,181.1c3.4,3.7,3.6,9.3,3.6,9.3s-5.3-.3-8.7-3.9-3.6-9.2-3.6-9.2S321.4,177.5,324.8,181.1Z"/><path class="cls-11" d="M337.5,186.5c-3.4,3.6-8.7,3.9-8.7,3.9s.3-5.6,3.7-9.3,8.7-3.8,8.7-3.8S340.9,182.9,337.5,186.5Z"/><path class="cls-11" d="M378.5,211.7a3,3,0,0,1,2.3,1.1c2.1,2.2,2,7,2,7.5s.5,9,8.2,10.3h1.7l.4,1.5a.7.7,0,0,0,.8.4.6.6,0,0,0,.4-.7l-.3-1.2h.6a8,8,0,0,0,6.6-4.6h.2c3.1-2.1,4.6-5.4,4.6-9.8h0c-.1-.7-.4-2.3-1.1-2.3s-.8.2-1.8,1.2a9.7,9.7,0,0,1-6.1,3.3l-3,.3c-3.7,0-5.1-1.8-7-4.1a19.3,19.3,0,0,0-2.4-2.9,4.3,4.3,0,0,0-3-1.5A4.7,4.7,0,0,0,378.5,211.7Z"/><path class="cls-16" d="M398.5,222.2s-.8,3.3-5.1,3.3-6.1-2.9-6.3-5.5"/><polyline class="cls-16" points="394.5 236.8 392.2 235.8 393.6 231.9"/><line class="cls-16" x1="389.6" y1="236.4" x2="392.2" y2="235.7"/><line class="cls-9" x1="675.5" y1="5.5" x2="675.5" y2="6.5"/><circle class="cls-12" cx="498.8" cy="144.5" r="4"/><g class="cls-17"><line class="cls-18" x1="783.2" y1="207.2" x2="1163.4" y2="469"/></g><polygon class="cls-1" points="1286 274.7 886.2 274.7 958.4 165.8 1213.7 165.8 1286 274.7"/></svg>