<?xml version="1.0" encoding="utf-8"?>
<!-- Generator: Adobe Illustrator 23.0.4, SVG Export Plug-In . SVG Version: 6.00 Build 0)  -->
<svg version="1.1" id="Calque_1" xmlns="http://www.w3.org/2000/svg" xmlns:xlink="http://www.w3.org/1999/xlink" x="0px" y="0px"
	 viewBox="0 0 525 249" style="enable-background:new 0 0 525 249;" xml:space="preserve">
<style type="text/css">
	.st0{fill:none;stroke:#91C022;stroke-width:2.86;stroke-miterlimit:10;}
	.st1{fill:#91C022;}
	.st2{fill:none;stroke:#91C022;stroke-width:2.82;stroke-miterlimit:10;}
	.st3{clip-path:url(#SVGID_2_);}
	.st4{fill:none;stroke:#91C022;stroke-width:1.52;stroke-miterlimit:10;}
	.st5{fill:none;stroke:#91C022;stroke-width:1.15;stroke-miterlimit:10;}
	.st6{opacity:0.1;fill:#91C022;stroke:#015A5A;stroke-width:3.44;stroke-miterlimit:10;enable-background:new    ;}
	.st7{fill:none;stroke:#015A5A;stroke-width:3.44;stroke-miterlimit:10;}
	.st8{fill:#FFFFFF;stroke:#015A5A;stroke-width:3.44;stroke-miterlimit:10;}
	.st9{fill:none;stroke:#015A5A;stroke-width:3.44;stroke-linejoin:round;}
	.st10{fill:none;stroke:#015A5A;stroke-width:3.44;stroke-linecap:round;stroke-linejoin:round;}
	.st11{fill:#FFFFFF;stroke:#91C022;stroke-width:1.34;stroke-miterlimit:10;}
	.st12{fill:none;stroke:#90BF22;stroke-width:1.42;stroke-linecap:round;stroke-linejoin:round;}
	
		.st13{fill-rule:evenodd;clip-rule:evenodd;fill:#FFFFFF;stroke:#025A5A;stroke-width:1.42;stroke-linecap:round;stroke-linejoin:round;}
	.st14{fill:none;stroke:#025A5A;stroke-width:1.42;stroke-linecap:round;stroke-linejoin:round;}
	.st15{fill:none;stroke:#025A5A;stroke-width:0.71;stroke-linecap:round;stroke-linejoin:round;}
	.st16{fill:#025A5A;}
	.st17{fill:#FFFFFF;stroke:#025A5A;stroke-width:1.42;}
	.st18{fill:none;stroke:#025A5A;stroke-width:1.42;}
	.st19{fill-rule:evenodd;clip-rule:evenodd;fill:#025A5A;}
	.st20{fill:#015A5A;}
</style>
<title>parcours1</title>
<line class="st0" x1="47.6" y1="183.7" x2="122" y2="77"/>
<polygon class="st1" points="62.6,182.6 62,179.8 48.2,182.8 46.2,168.9 43.4,169.3 45.8,186.3 "/>
<polygon class="st1" points="126.2,91.4 123.3,91.8 121.4,77.9 107.6,80.8 107,78 123.8,74.4 "/>
<line class="st2" x1="481.4" y1="217.4" x2="79.6" y2="217.4"/>
<polygon class="st1" points="472.2,205.7 470.3,207.8 480.3,217.4 470.3,227 472.2,229.1 484.4,217.4 "/>
<polygon class="st1" points="88.8,205.7 90.7,207.8 80.6,217.4 90.7,227 88.8,229.1 76.6,217.4 "/>
<g>
	<defs>
		<polygon id="SVGID_1_" points="480,184.7 80.2,184.7 152.4,75.8 407.7,75.8 		"/>
	</defs>
	<clipPath id="SVGID_2_">
		<use xlink:href="#SVGID_1_"  style="overflow:visible;"/>
	</clipPath>
	<g class="st3">
		<line class="st4" x1="-22.8" y1="117.2" x2="357.4" y2="379"/>
		<line class="st4" x1="-1.3" y1="110.8" x2="380.1" y2="351"/>
		<line class="st4" x1="19" y1="104.7" x2="400.3" y2="326"/>
		<line class="st4" x1="38.3" y1="99" x2="418.4" y2="303.5"/>
		<line class="st4" x1="56.5" y1="93.5" x2="434.8" y2="283.2"/>
		<line class="st4" x1="73.9" y1="88.3" x2="449.7" y2="264.7"/>
		<line class="st4" x1="90.4" y1="83.3" x2="463.3" y2="247.9"/>
		<line class="st4" x1="106.2" y1="78.6" x2="475.7" y2="232.5"/>
		<line class="st4" x1="121.2" y1="74.1" x2="487.1" y2="218.4"/>
		<line class="st4" x1="135.5" y1="69.8" x2="497.7" y2="205.4"/>
		<line class="st4" x1="149.3" y1="65.7" x2="507.4" y2="193.3"/>
		<line class="st4" x1="162.4" y1="61.8" x2="516.5" y2="182.1"/>
		<line class="st4" x1="174.9" y1="58" x2="524.9" y2="171.7"/>
		<line class="st4" x1="187" y1="54.4" x2="532.7" y2="162"/>
		<line class="st4" x1="198.6" y1="51" x2="540" y2="152.9"/>
		<line class="st4" x1="209.7" y1="47.6" x2="546.9" y2="144.4"/>
		<line class="st4" x1="220.3" y1="44.4" x2="553.3" y2="136.4"/>
		<line class="st4" x1="230.6" y1="41.4" x2="559.4" y2="128.9"/>
		<line class="st4" x1="240.5" y1="38.4" x2="565.1" y2="121.8"/>
		<line class="st4" x1="250" y1="35.6" x2="570.5" y2="115.2"/>
		<polygon class="st4" points="480,184.7 80.2,184.7 152.4,75.8 407.7,75.8 		"/>
	</g>
</g>
<polygon class="st5" points="480,184.7 80.2,184.7 152.4,75.8 407.7,75.8 "/>
<polyline class="st6" points="393.1,75.6 408.5,75.6 480.8,186.4 80.5,186.4 152.8,75.6 165.6,75.6 "/>
<polyline class="st7" points="393.1,75.6 408.5,75.6 480.8,186.4 80.5,186.4 152.8,75.6 165.6,75.6 "/>
<path class="st8" d="M237.3,64.5l0.2-1.3l3.2-19.9c0.7-2.8,3.3-4.7,6.1-4.6h6.3c2.9,0,5.4,1.9,6.1,4.7l4.8,14.9l0,0"/>
<circle class="st8" cx="250" cy="27.1" r="7.1"/>
<line class="st7" x1="184.6" y1="109.7" x2="184.6" y2="143.6"/>
<path class="st9" d="M179.9,64.2v40.7c0,2.6,2.1,4.7,4.7,4.7c0,0,0.1,0,0.1,0h26.1v33.9"/>
<path class="st8" d="M210.8,89.3h-7.2V67.9c0-3.8-3.9-7.6-8.8-7.6s-8.3,3.8-8.3,7.6v28.2c0,3.7,2.9,6.7,6.6,6.9l1.7,0.2h29.4"/>
<circle class="st8" cx="195.4" cy="47.9" r="7.1"/>
<line class="st7" x1="376.7" y1="110.1" x2="376.7" y2="144"/>
<path class="st10" d="M381.4,63.8v40.6c0,2.7-2.1,4.8-4.8,4.8h-26.1v33.9"/>
<path class="st8" d="M350.5,88.9h7.2V67.5c0-3.9,3.9-7.6,8.8-7.6s8.3,3.7,8.3,7.6v28.1c0.1,3.7-2.9,6.8-6.6,7l-1.7,0.2h-28.2"/>
<circle class="st8" cx="365.8" cy="47.5" r="7.1"/>
<path class="st8" d="M293.3,58.8l1.1-2.2l3.9-13.2c0.7-2.8,3.2-4.7,6.1-4.7h6.3c2.8-0.1,5.4,1.8,6.1,4.6l3,18.5l0.2,1.4"/>
<circle class="st8" cx="307.5" cy="27.1" r="7.1"/>
<ellipse class="st8" cx="280.7" cy="86.7" rx="69.6" ry="28.4"/>
<line class="st7" x1="232.8" y1="107.3" x2="232.8" y2="150.1"/>
<line class="st7" x1="328.7" y1="107.3" x2="328.7" y2="150.1"/>
<ellipse class="st11" cx="230.2" cy="86.7" rx="10.2" ry="4.2"/>
<ellipse class="st11" cx="256.4" cy="67.7" rx="10.2" ry="4.2"/>
<ellipse class="st11" cx="302.6" cy="67.8" rx="10.2" ry="4.2"/>
<ellipse class="st11" cx="330.7" cy="89.3" rx="10.2" ry="4.2"/>
<path class="st12" d="M296.5,91.8c6.4,1.4,8.6,3.1,8.6,4.2c0,3-10.9,5.4-24.3,5.4s-21.6-1.9-25.2-4.7s2.3-3.8,6.2-4.9"/>
<g id="noun_meats_1601874_000000">
	<g id="Group-9">
		<path class="st13" d="M282.7,91.8c-5.2-5.3-4.9-12.5-4.7-14.1c0.2-1,0.9-1.8,1.9-2.2c1.6-0.5,3.3,0.4,3.8,1.9
			c0.1,0.4,0.2,0.8,0.1,1.2c-0.1,0.7,0,5.4,2.8,8"/>
		<polyline class="st14" points="281.5,75.4 282.2,72.9 277.9,73.6 279.7,75.8 		"/>
		<path class="st15" d="M280.3,80.5c0.2,1.8,0.8,3.4,1.8,4.9"/>
	</g>
	<g id="Group-10">
		<path class="st13" d="M287.1,96.7c-1.4-0.4-2.6-1.2-3.5-2.3c-1.5-2.6-0.6-5.9,2-7.4c0,0,0,0,0,0c3-1.5,6.3-2.2,9.6-2.1
			c1.1,0.1,0.7,1.3,1.1,2s1.4,0.8,1.2,1.9c-0.7,2.7-2.4,5-4.7,6.6"/>
		<path class="st13" d="M296.5,85.6l1.8-1.1l0.9-0.5c-0.3-0.5-0.2-1.2,0.2-1.6c0.5-0.4,1.1-0.5,1.7-0.2c0.5,0.4,0.7,1,0.4,1.6
			c0.6,0,1.1,0.5,1.2,1.1c0.1,0.6-0.3,1.2-0.9,1.4c-0.6,0.2-1.3,0-1.6-0.6l-0.9,0.6l-1.8,1"/>
		<ellipse class="st16" cx="286.7" cy="88.5" rx="0.4" ry="0.4"/>
		<ellipse class="st16" cx="287.5" cy="90" rx="0.5" ry="0.5"/>
		<ellipse transform="matrix(0.8572 -0.515 0.515 0.8572 -5.8807 160.1481)" class="st16" cx="285.8" cy="90.7" rx="0.7" ry="0.6"/>
	</g>
</g>
<g id="noun_Salad_2021361_000000-2">
	<g id="noun_Salad_2021361_000000">
		<path class="st17" d="M261.4,85.8l-0.3-0.8c-0.1-0.8,0.1-1.5,0.6-2.1c0.5-0.6,1.2-0.9,2-1h0.4c0.2-1.2,1.2-2.2,2.5-2.4
			c0.9-0.1,1.8,0.2,2.5,0.8c0.5-0.5,1.2-0.9,1.9-1c1.4-0.2,2.7,0.7,3.1,2c0.6,0,1.3,0.2,1.8,0.5c0.6,0.5,1,1.2,1.1,1.9
			c0.1,0.3,0.1,0.6,0,0.9c0.9,0.4,1.5,1.2,1.6,2.2c0,0.5,0,1-0.2,1.4c-0.3,0.9-0.5,1.4,0,1.9c0.8,0.8,1.6,1.7,2.4,2.6l0,0v0.2
			c0,0.6-0.2,1.1-0.7,1.5l0.4,0.4h0.1c0,1.1-0.9,2.1-2,2.2h-0.2l-0.3-0.2c-0.7-0.9-1.5-1.7-2.4-2.4c-0.5-0.3-1.1,0-2,0.4l-1.3,0.6
			c-1,0.1-2-0.1-2.7-0.8c-0.4,0.3-0.9,0.5-1.4,0.6c-0.7,0.2-1.5,0.1-2.1-0.3c-0.5-0.4-0.8-0.8-1-1.4c0,0.1-0.1,0.1-0.2,0.1
			c-1.4,0.4-2.8-0.5-3.2-1.9c0,0,0-0.1,0-0.1c-0.1-0.5-0.1-0.9,0-1.4c-0.8-0.4-1.3-1.1-1.5-2C260.2,87.3,260.6,86.3,261.4,85.8z"/>
		<path class="st18" d="M261.2,85.1c0.1,0.7,1.4,1.2,2.1,1.4l0.4,0.2l-0.2,0.4c-0.2,0.4-0.3,0.8-0.3,1.2c0,0.5,0.3,1,0.7,1.3
			c0.4,0.3,0.9,0.4,1.4,0.3l0.6-0.2l0.5-0.2v0.6l0,0c0,0.5,0.2,1,0.6,1.3c0.4,0.3,0.9,0.4,1.4,0.3c0.5,0,1-0.2,1.3-0.6l0.4-0.5
			l0.3,0.5c0.5,0.7,1.3,1.1,2.1,1l1.1-0.3c0.9-0.4,2-0.9,2.9-0.2c0.9,0.7,1.6,1.6,2.3,2.5"/>
		<path class="st19" d="M273.6,86.5c0.2-0.5,0.1-1-0.1-1.5c-0.2-0.4-0.6-0.7-1-0.9l0.3-0.8c1.3,0.6,2,2,1.6,3.4L273.6,86.5z"/>
		<path class="st19" d="M269.6,84.8c0.2-0.5,0.2-1-0.1-1.5c-0.2-0.4-0.6-0.7-1-0.8l0.3-0.8c0.6,0.2,1.1,0.6,1.4,1.2
			c0.4,0.7,0.5,1.5,0.2,2.2L269.6,84.8z"/>
		<path class="st19" d="M270.2,85.3c-1.6,0.2-3,1.3-3.6,2.8l-0.8-0.3c0.5-1.2,1.5-2.2,2.7-2.8c-1-0.2-2.1-0.2-3.1-0.1v-0.8
			c4.8-0.3,8.4,1.1,11,4.4l-0.6,0.4C274.4,87.1,272.4,85.9,270.2,85.3z"/>
		<path class="st19" d="M273.5,86.2v0.7c-1.3,0.1-2.4,1-2.8,2.2l-0.7-0.3C270.5,87.3,271.9,86.2,273.5,86.2z"/>
	</g>
</g>
<path class="st12" d="M291,100.9v0.6c0,1.3-4.6,2.3-10.2,2.3s-10.1-1-10.1-2.3v-0.6"/>
<path class="st12" d="M262.5,95.6c3.7,1.3,10.2,2.2,17.7,2.2s14-0.9,17.7-2.2"/>
<path class="st20" d="M231.8,78c0.7,0,0.9-1,1.6-1l4.6-0.2l0.2,0.2c0,0.2-0.1,0.2-0.2,0.2l-3.6,0.2c-0.1,0-0.1,0.1-0.1,0.2l0,0
	c0,0.1,0,0.2,0.1,0.2h3.6c0.1,0,0.2,0.1,0.2,0.2l-0.2,0.2h-3.6v0.2l0,0l0.2,0.2h3.6v0.2c0,0.1,0,0.2-0.1,0.2h-3.6
	c-0.1,0-0.2,0.1-0.2,0.3l0,0l0.2,0.2h3.6c0.1,0,0.1,0,0.1,0.2s0,0.2-0.1,0.2h-4.7c-0.6,0-0.8-0.9-1.5-0.9h-0.6l-8.3,0.7
	c-0.5,0-0.9-0.4-0.9-0.9c0-0.5,0.3-0.8,0.8-0.9c0.4-0.1,7.6,0.1,8.4,0.1L231.8,78z"/>
<path class="st20" d="M230.1,93.9c0.6,0,1.1-1.8,4.2-1.3s4.7,2.2,3.6,2.3L223,95.3c-0.5,0-0.9-0.4-0.9-0.9c0-0.5,0.3-0.8,0.8-0.9
	C222.9,93.5,229.7,94,230.1,93.9z"/>
<path class="st20" d="M329.1,97.4c-0.7,0-0.9,0.9-1.5,1h-4.7l-0.2-0.2c0-0.1,0.1-0.2,0.2-0.2l0,0h3.6c0.1,0,0.1-0.1,0.1-0.2l0,0
	c0-0.1,0-0.2-0.1-0.2h-3.6l-0.2-0.2l0.2-0.2h3.6c0.1-0.1,0.1-0.2,0.1-0.3l0,0c0-0.1-0.1-0.2-0.2-0.2l0,0h-3.5c-0.1,0-0.2,0-0.2-0.2
	v-0.2h3.6c0.1,0,0.2-0.1,0.2-0.2c0,0,0,0,0,0l0,0l-0.2-0.2h-3.6c-0.1,0-0.1-0.1-0.1-0.2s0-0.2,0.1-0.2l4.7-0.2c0.6,0.1,0.8,1,1.5,1
	h0.6l8.3-0.6c0.5,0,0.9,0.4,0.9,0.9c0,0.5-0.3,0.8-0.8,0.9c-0.4,0-7.5-0.2-8.4-0.1L329.1,97.4z"/>
<path class="st20" d="M330.8,81.4c-0.6,0-1.1,1.8-4.2,1.3s-4.7-2.2-3.5-2.2l14.8-0.5c0.5,0,0.9,0.4,0.9,0.9c0,0.5-0.3,0.9-0.8,1
	L330.8,81.4z"/>
<path class="st20" d="M313.9,73c-0.5,0.5-0.1,1.3-0.6,1.7l-3.8,2.8h-0.2c-0.1-0.1-0.1-0.3,0-0.3l2.9-2.2v-0.2l0,0
	c-0.1-0.1-0.2-0.2-0.3-0.1l-2.9,2.2h-0.2c-0.1-0.1-0.1-0.2,0-0.3c0,0,0,0,0,0l2.9-2.1v-0.3h-0.3l-2.9,2.2h-0.2
	c-0.1-0.1-0.1-0.2,0-0.2l2.9-2.2v-0.3h-0.3l-2.9,2.2h-0.2c-0.1,0-0.1-0.2,0-0.2l3.7-2.8c0.5-0.4,1.2,0.2,1.8-0.2l0.4-0.3l6.5-5.4
	c0.4-0.2,0.9-0.1,1.2,0.3c0.3,0.4,0.2,0.9-0.1,1.2l-6.9,4.7l-0.5,0.3V73z"/>
<path class="st20" d="M288.9,64.1c-0.5,0.4,0.1,2.1-2.7,3.6s-5,1-4.1,0.3l11.7-9.2c0.3-0.3,0.8-0.2,1.1,0.1c0,0,0.1,0.1,0.1,0.1
	c0.3,0.4,0.3,1-0.1,1.2S289.2,63.8,288.9,64.1z"/>
<path class="st20" d="M270.5,65.3l-0.4-0.4l-6.9-4.7c-0.4-0.2-0.4-0.8-0.1-1.2c0.2-0.4,0.7-0.5,1.1-0.3c0,0,0.1,0,0.1,0.1l6.4,5.3
	l0.4,0.4c0.6,0.4,1.3-0.2,1.9,0.1l3.7,2.8c0.1,0.1,0.1,0.2,0,0.3c0,0,0,0,0,0h-0.3l-2.8-2.2c-0.1-0.1-0.2,0-0.3,0.1l0,0
	c-0.1,0.1-0.1,0.2,0,0.2l2.9,2.2v0.3h-0.3l-2.8-2.1c-0.1-0.1-0.2,0-0.3,0l0,0c-0.1,0.1-0.1,0.3,0,0.3l2.9,2.2v0.2
	c-0.1,0.1-0.2,0.2-0.3,0.1l-2.9-2.2h-0.2c-0.1,0.1-0.1,0.2,0,0.3c0,0,0,0,0,0l2.9,2.1v0.3h-0.3l-3.7-2.8c-0.5-0.5-0.1-1.3-0.7-1.7
	L270.5,65.3z"/>
<path class="st20" d="M238.5,66.8c-0.3-0.3-0.8-0.2-1.1,0.1c-0.3,0.3-0.2,0.7,0,1c0,0,0.1,0.1,0.2,0.1l11.7,9.2
	c0.9,0.7,0.6-1.4-1.5-3.7s-3.5-1.5-4-1.8L238.5,66.8z"/>
</svg>
