<?xml version="1.0" encoding="UTF-8"?>
<svg width="98px" height="66px" viewBox="0 0 98 66" version="1.1" xmlns="http://www.w3.org/2000/svg" xmlns:xlink="http://www.w3.org/1999/xlink">
    <title>regime-moitie</title>
    <g id="Page-1" stroke="none" stroke-width="1" fill="none" fill-rule="evenodd">
        <g id="regime-moitie" transform="translate(0.448356, 0.380298)" fill-rule="nonzero">
            <g id="noun_Cow_1050214" fill="#015A5A">
                <path d="M66.8712871,0 L65.7277228,0 L62.0792079,0 L28.970297,0 C27.2821782,0 25.5940594,0.599009901 24.2871287,1.74257426 L13.7772277,10.6188119 L7.24257426,12.5792079 L1.96039604,12.5792079 C0.871287129,12.5792079 0,13.450495 0,14.539604 C0,15.6287129 0.871287129,16.5 1.96039604,16.5 L4.79207921,16.5 L4.57425743,30.3316832 C4.46534653,31.4752475 5.22772277,32.5643564 6.31683168,32.8910891 L9.2029703,33.7623762 C9.85643564,33.980198 10.6188119,33.8712871 11.2178218,33.490099 L12.6336634,32.6188119 C14.8118812,31.2574257 16.7178218,29.460396 18.1881188,27.3910891 L23.960396,27.3910891 L26.2475248,30.1138614 L26.2475248,42.039604 C26.2475248,43.1287129 27.1188119,44 28.2079208,44 C29.2970297,44 30.1683168,43.1287129 30.1683168,42.039604 L30.1683168,29.8960396 L32.8366337,28.3168317 L34.6336634,42.2029703 C34.7425743,43.1831683 35.6138614,43.8910891 36.539604,43.8910891 C36.6485149,43.8910891 36.7029703,43.8910891 36.8118812,43.8910891 C37.8465347,43.7277228 38.6089109,42.8019802 38.5,41.7128713 L36.5940594,27.1188119 L54.1831683,27.1188119 L57.9950495,29.1881188 L54.019802,41.3861386 C53.6930693,42.4207921 54.2376238,43.509901 55.2722772,43.8366337 C55.490099,43.8910891 55.6534653,43.9455446 55.8712871,43.9455446 C56.6881188,43.9455446 57.450495,43.4009901 57.7227723,42.5841584 L61.480198,31.039604 L66.6534653,33.8168317 L66.6534653,41.9851485 C66.6534653,43.0742574 67.5247525,43.9455446 68.6138614,43.9455446 C69.7029703,43.9455446 70.5742574,43.0742574 70.5742574,41.9851485 L70.5742574,29.5693069 C70.5742574,29.1336634 70.519802,28.6980198 70.3564356,28.3168317 L67.8514851,20.7475248 L69.4306931,15.1386139 C69.7029703,14.2673267 69.8118812,13.3415842 69.8118812,12.470297 L69.8118812,4.62871287 C71.3910891,5.60891089 72.480198,7.35148515 72.480198,9.31188119 L72.480198,22.3811881 C72.480198,23.470297 73.3514851,24.3415842 74.4405941,24.3415842 C75.529703,24.3415842 76.4009901,23.470297 76.4009901,22.3811881 L76.4009901,9.31188119 C76.2376238,4.19306931 72.0445545,0 66.8712871,0 Z M61.2623762,26.5742574 C61.2623762,26.5742574 61.2623762,26.5742574 61.2623762,26.5742574 L55.5445545,23.470297 C55.2722772,23.3069307 54.9455446,23.2524752 54.6188119,23.2524752 L34.3069307,23.2524752 C34.3069307,23.2524752 34.2524752,23.2524752 34.2524752,23.2524752 C34.1980198,23.2524752 34.1435644,23.2524752 34.0891089,23.2524752 C34.0346535,23.2524752 33.980198,23.2524752 33.9257426,23.3069307 C33.8712871,23.3069307 33.8168317,23.3069307 33.8168317,23.3613861 C33.6534653,23.4158416 33.5445545,23.470297 33.3811881,23.5247525 L28.3168317,26.4653465 L26.4108911,24.1237624 C26.029703,23.6881188 25.4851485,23.4158416 24.9405941,23.4158416 L17.0990099,23.4158416 C16.4455446,23.4158416 15.7920792,23.7425743 15.4653465,24.3415842 C14.2128713,26.3019802 12.5247525,27.990099 10.5643564,29.2425743 L9.69306931,29.7871287 L8.44059406,29.4059406 L8.65841584,16.2277228 L15.3019802,14.2128713 C15.5742574,14.1584158 15.7920792,13.9950495 16.009901,13.8316832 L26.8465347,4.62871287 C27.4455446,4.13861386 28.2079208,3.81188119 29.0247525,3.81188119 L62.1336634,3.81188119 L65.7821782,3.81188119 C65.8366337,3.81188119 65.8910891,3.86633663 65.8910891,3.97524752 L65.8910891,12.470297 C65.8910891,13.0148515 65.8366337,13.5594059 65.6732673,14.1039604 L63.9306931,20.2574257 C63.8217822,20.6386139 63.8217822,21.019802 63.9306931,21.4009901 L66.5990099,29.4059406 L61.2623762,26.5742574 Z" id="Shape"></path>
            </g>
            <g id="Group-3" transform="translate(30.551644, 38.619702)">
                <g id="Rectangle" fill="#C32240">
                    <rect x="0" y="0" width="67" height="27" rx="8"></rect>
                </g>
                <g id="actuel" transform="translate(6.972000, 5.950000)" fill="#FFFFFF">
                    <path d="M5.724,7.272 C5.724,6.672 5.559,6.207 5.229,5.877 C4.899,5.547 4.446,5.382 3.87,5.382 C3.33,5.382 2.868,5.508 2.484,5.76 C2.1,6.012 1.818,6.42 1.638,6.984 L0.018,6.3 C0.246,5.568 0.693,4.98 1.359,4.536 C2.025,4.092 2.886,3.87 3.942,3.87 C4.662,3.87 5.298,3.987 5.85,4.221 C6.402,4.455 6.837,4.806 7.155,5.274 C7.473,5.742 7.632,6.342 7.632,7.074 L7.632,11.088 C7.632,11.532 7.854,11.754 8.298,11.754 C8.514,11.754 8.724,11.724 8.928,11.664 L8.82,12.996 C8.544,13.128 8.196,13.194 7.776,13.194 C7.392,13.194 7.047,13.125 6.741,12.987 C6.435,12.849 6.195,12.639 6.021,12.357 C5.847,12.075 5.76,11.724 5.76,11.304 L5.76,11.178 L6.156,11.16 C6.048,11.628 5.826,12.015 5.49,12.321 C5.154,12.627 4.764,12.855 4.32,13.005 C3.876,13.155 3.426,13.23 2.97,13.23 C2.406,13.23 1.899,13.14 1.449,12.96 C0.999,12.78 0.645,12.507 0.387,12.141 C0.129,11.775 0,11.322 0,10.782 C0,10.11 0.219,9.558 0.657,9.126 C1.095,8.694 1.716,8.4 2.52,8.244 L6.012,7.56 L5.994,8.91 L3.456,9.432 C2.952,9.528 2.574,9.666 2.322,9.846 C2.07,10.026 1.944,10.29 1.944,10.638 C1.944,10.974 2.073,11.241 2.331,11.439 C2.589,11.637 2.934,11.736 3.366,11.736 C3.666,11.736 3.957,11.7 4.239,11.628 C4.521,11.556 4.776,11.439 5.004,11.277 C5.232,11.115 5.409,10.905 5.535,10.647 C5.661,10.389 5.724,10.08 5.724,9.72 L5.724,7.272 Z" id="Path"></path>
                    <path d="M14.652,3.87 C15.372,3.87 15.987,3.975 16.497,4.185 C17.007,4.395 17.436,4.692 17.784,5.076 C18.132,5.46 18.396,5.898 18.576,6.39 L16.758,7.11 C16.602,6.558 16.353,6.135 16.011,5.841 C15.669,5.547 15.222,5.4 14.67,5.4 C14.13,5.4 13.668,5.523 13.284,5.769 C12.9,6.015 12.609,6.372 12.411,6.84 C12.213,7.308 12.114,7.884 12.114,8.568 C12.114,9.24 12.216,9.81 12.42,10.278 C12.624,10.746 12.918,11.1 13.302,11.34 C13.686,11.58 14.142,11.7 14.67,11.7 C15.078,11.7 15.432,11.631 15.732,11.493 C16.032,11.355 16.281,11.157 16.479,10.899 C16.677,10.641 16.812,10.326 16.884,9.954 L18.63,10.548 C18.462,11.088 18.201,11.559 17.847,11.961 C17.493,12.363 17.052,12.675 16.524,12.897 C15.996,13.119 15.39,13.23 14.706,13.23 C13.818,13.23 13.032,13.044 12.348,12.672 C11.664,12.3 11.133,11.763 10.755,11.061 C10.377,10.359 10.188,9.522 10.188,8.55 C10.188,7.578 10.377,6.741 10.755,6.039 C11.133,5.337 11.661,4.8 12.339,4.428 C13.017,4.056 13.788,3.87 14.652,3.87 Z" id="Path"></path>
                    <path d="M23.508,1.404 L23.508,10.35 C23.508,10.794 23.625,11.118 23.859,11.322 C24.093,11.526 24.408,11.628 24.804,11.628 C25.128,11.628 25.41,11.577 25.65,11.475 C25.89,11.373 26.112,11.232 26.316,11.052 L26.748,12.456 C26.472,12.696 26.133,12.885 25.731,13.023 C25.329,13.161 24.882,13.23 24.39,13.23 C23.874,13.23 23.4,13.146 22.968,12.978 C22.536,12.81 22.2,12.537 21.96,12.159 C21.72,11.781 21.594,11.286 21.582,10.674 L21.582,1.944 L23.508,1.404 Z M26.604,4.05 L26.604,5.562 L19.854,5.562 L19.854,4.05 L26.604,4.05 Z" id="Shape"></path>
                    <path d="M31.716,13.23 C31.128,13.23 30.585,13.122 30.087,12.906 C29.589,12.69 29.19,12.342 28.89,11.862 C28.59,11.382 28.44,10.758 28.44,9.99 L28.44,4.05 L30.366,4.05 L30.366,9.504 C30.366,10.32 30.54,10.881 30.888,11.187 C31.236,11.493 31.722,11.646 32.346,11.646 C32.646,11.646 32.937,11.595 33.219,11.493 C33.501,11.391 33.756,11.229 33.984,11.007 C34.212,10.785 34.389,10.5 34.515,10.152 C34.641,9.804 34.704,9.396 34.704,8.928 L34.704,4.05 L36.63,4.05 L36.63,13.05 L34.938,13.05 L34.848,11.592 C34.536,12.156 34.116,12.57 33.588,12.834 C33.06,13.098 32.436,13.23 31.716,13.23 Z" id="Path"></path>
                    <path d="M43.596,13.23 C42.696,13.23 41.904,13.044 41.22,12.672 C40.536,12.3 40.005,11.763 39.627,11.061 C39.249,10.359 39.06,9.522 39.06,8.55 C39.06,7.578 39.249,6.741 39.627,6.039 C40.005,5.337 40.53,4.8 41.202,4.428 C41.874,4.056 42.636,3.87 43.488,3.87 C44.364,3.87 45.108,4.05 45.72,4.41 C46.332,4.77 46.8,5.262 47.124,5.886 C47.448,6.51 47.61,7.218 47.61,8.01 C47.61,8.226 47.604,8.43 47.592,8.622 C47.58,8.814 47.562,8.982 47.538,9.126 L40.302,9.126 L40.302,7.65 L46.692,7.65 L45.738,7.938 C45.738,7.122 45.534,6.495 45.126,6.057 C44.718,5.619 44.16,5.4 43.452,5.4 C42.936,5.4 42.486,5.52 42.102,5.76 C41.718,6 41.424,6.357 41.22,6.831 C41.016,7.305 40.914,7.884 40.914,8.568 C40.914,9.24 41.022,9.81 41.238,10.278 C41.454,10.746 41.76,11.1 42.156,11.34 C42.552,11.58 43.02,11.7 43.56,11.7 C44.16,11.7 44.646,11.586 45.018,11.358 C45.39,11.13 45.684,10.812 45.9,10.404 L47.43,11.124 C47.214,11.556 46.923,11.931 46.557,12.249 C46.191,12.567 45.756,12.81 45.252,12.978 C44.748,13.146 44.196,13.23 43.596,13.23 Z" id="Path"></path>
                    <path d="M51.912,0 L51.912,10.53 C51.912,10.974 51.99,11.28 52.146,11.448 C52.302,11.616 52.56,11.7 52.92,11.7 C53.136,11.7 53.319,11.685 53.469,11.655 C53.619,11.625 53.808,11.568 54.036,11.484 L53.82,12.924 C53.616,13.02 53.382,13.095 53.118,13.149 C52.854,13.203 52.59,13.23 52.326,13.23 C51.522,13.23 50.931,13.023 50.553,12.609 C50.175,12.195 49.986,11.556 49.986,10.692 L49.986,0 L51.912,0 Z" id="Path"></path>
                </g>
            </g>
        </g>
    </g>
</svg>