<?xml version="1.0" encoding="UTF-8"?>
<svg width="92px" height="87px" viewBox="0 0 92 87" version="1.1" xmlns="http://www.w3.org/2000/svg" xmlns:xlink="http://www.w3.org/1999/xlink">
    <title>noun_Vegetable_3380368</title>
    <defs>
        <polygon id="path-1" points="0 0 69.8432067 0 69.8432067 81.2066482 0 81.2066482"></polygon>
        <path d="M4.45055583,0.0219063737 C2.3504013,0.216206384 0.636941897,1.63154862 0.2245306,3.51073451 L0.2245306,3.51073451 C-0.399324826,6.40047094 0.28929727,9.39688189 2.13514737,11.8189649 L2.13514737,11.8189649 C3.81336609,13.81054 6.10591573,15.3049356 8.72229871,16.1135666 L8.72229871,16.1135666 C8.68801047,16.6688455 8.75087224,17.2250769 8.90612176,17.7632118 L8.90612176,17.7632118 C9.56236052,19.8662236 11.2824871,21.560634 13.5388436,22.3244997 L13.5388436,22.3244997 C14.5798726,22.6664297 15.680906,22.8378709 16.7886065,22.8313909 L16.7886065,22.8313909 C17.7629639,22.8292988 18.7335115,22.7150047 19.6773905,22.4921311 L19.6773905,22.4921311 C24.4272638,21.2968051 28.3408851,18.234675 30.3419847,14.1467552 L30.3419847,14.1467552 C31.4058725,11.9351639 31.6192215,9.46164856 30.9477436,7.12528617 L30.9477436,7.12528617 C30.3581764,5.00132037 28.6837674,3.26119234 26.4445551,2.4430369 L26.4445551,2.4430369 C24.8758682,1.96776383 23.148122,2.27921532 21.8975538,3.26023988 L21.8975538,3.26023988 C20.6641298,4.26317082 19.6640562,5.47849834 18.9544802,6.83478861 L18.9544802,6.83478861 C18.4287272,7.78914454 17.750582,8.6673044 16.9429036,9.44069463 L16.9429036,9.44069463 C16.0856976,8.75397744 15.1513432,8.15012348 14.1550794,7.63960973 L14.1550794,7.63960973 C12.8511739,7.03766068 11.7072802,6.18426455 10.8053091,5.13942577 L10.8053091,5.13942577 C10.4910003,4.66891496 10.2319336,4.17173552 10.0271566,3.65455461 L10.0271566,3.65455461 C9.89762329,3.35738989 9.76713749,3.06308252 9.62141249,2.77258496 L9.62141249,2.77258496 C8.80135215,1.07626967 6.95740695,0 4.94678282,0 L4.94678282,0 C4.78200879,0 4.61628231,0.00761960826 4.45055583,0.0219063737 L4.45055583,0.0219063737 Z M3.56953863,10.8455599 C2.03704491,8.81017205 1.45985959,6.30522583 1.96370619,3.88409531 L1.96370619,3.88409531 C2.20277139,2.67733985 3.29332783,1.76012951 4.63723623,1.63726332 L4.63723623,1.63726332 C6.07257994,1.5191594 7.42791776,2.25159424 7.99653102,3.45358744 L7.99653102,3.45358744 C8.12892172,3.72408354 8.2479781,3.98791247 8.36703448,4.25745612 L8.36703448,4.25745612 C8.61371929,4.87845419 8.93088549,5.47373608 9.31281835,6.03568219 L9.31281835,6.03568219 C10.3519424,7.2843455 11.6891837,8.30632545 13.2216774,9.02352108 L13.2216774,9.02352108 C13.9845907,9.42450297 14.7132157,9.87691721 15.4008854,10.3750491 L15.4008854,10.3750491 C15.2999255,10.4179094 15.1961084,10.4607697 15.0856241,10.5102971 L15.0856241,10.5102971 C14.7255976,10.6455452 14.3589039,10.7798408 13.9931627,10.9036594 L13.9931627,10.9036594 C12.5397224,11.2827349 11.2205778,11.9961208 10.1633571,12.9752404 L10.1633571,12.9752404 C9.7242772,13.4333694 9.37187032,13.9534076 9.12042324,14.5153537 L9.12042324,14.5153537 C6.91930891,13.8038728 4.99154802,12.5294933 3.56953863,10.8455599 L3.56953863,10.8455599 Z M14.1579368,20.8005781 C12.4473347,20.2272026 11.1396194,18.9490133 10.6357728,17.3584201 L10.6357728,17.3584201 C10.477666,16.8164754 10.4576645,16.2488146 10.5786258,15.6992504 L10.5786258,15.6992504 L10.5786258,15.6906783 C10.7262557,15.0763474 11.0472317,14.5067817 11.5101229,14.0391282 L11.5101229,14.0391282 C12.3816156,13.265738 13.453123,12.7047443 14.6255902,12.4056747 L14.6255902,12.4056747 C15.0170476,12.2704267 15.408505,12.1351786 15.7932952,11.9837389 L15.7932952,11.9837389 C16.3371447,11.7789619 16.8581354,11.523705 17.3467428,11.2255879 L17.3467428,11.2255879 L17.3791261,11.2046339 L17.4477026,11.1598687 C18.7649424,10.1883687 19.8240679,8.96065931 20.5479307,7.56722345 L20.5479307,7.56722345 C21.1441651,6.42332976 21.9766073,5.39277775 23.0004921,4.53176201 L23.0004921,4.53176201 C23.7853118,3.89457227 24.8853927,3.6859855 25.8854663,3.98315022 L25.8854663,3.98315022 C27.5532081,4.63367427 28.7875846,5.95567631 29.2219023,7.55484159 L29.2219023,7.55484159 C29.7762288,9.53593974 29.5924057,11.6284747 28.6971018,13.5048032 L28.6971018,13.5048032 C26.921733,17.1355465 23.4490966,19.8547942 19.2297385,20.9158247 L19.2297385,20.9158247 C18.4677777,21.1091722 17.6839105,21.2063222 16.9000433,21.2063222 L16.9000433,21.2063222 C15.9733084,21.2063222 15.047526,21.0710742 14.1579368,20.8005781 L14.1579368,20.8005781 Z M5.58682991,5.31467676 C5.10584214,5.41373167 4.80582007,5.84900179 4.91535193,6.28617681 L4.91535193,6.28617681 C5.47348824,8.50824507 7.30886138,10.2864712 9.71761004,10.9369952 L9.71761004,10.9369952 C9.80142573,10.9589016 9.88714632,10.970331 9.97381937,10.9712834 L9.97381937,10.9712834 C10.3690865,10.9712834 10.7176836,10.7350756 10.8300728,10.3912408 L10.8300728,10.3912408 L10.8310253,10.3902883 C10.8996018,10.1845589 10.8738856,9.9626378 10.7624488,9.77310004 L10.7624488,9.77310004 C10.6491072,9.58356229 10.4586169,9.44259954 10.2319336,9.38069022 L10.2319336,9.38069022 C8.43942075,8.89970245 7.07265352,7.57770041 6.65738487,5.92424542 L6.65738487,5.92424542 C6.56309222,5.54802726 6.19449367,5.29372284 5.78779708,5.29372284 L5.78779708,5.29372284 C5.72207796,5.29372284 5.65445394,5.30039 5.58682991,5.31467676 L5.58682991,5.31467676 Z M22.4166397,8.80350489 C21.6308676,10.6931677 20.0231302,12.2075649 17.9705982,12.9904796 L17.9705982,12.9904796 C17.6762909,13.1038213 17.4715139,13.3505061 17.4324634,13.6381463 L17.4324634,13.6381463 C17.3934129,13.9257865 17.5267561,14.209617 17.7810605,14.3848679 L17.7810605,14.3848679 C18.0353649,14.5591665 18.373485,14.5972645 18.6668399,14.4839229 L18.6668399,14.4839229 C21.1670239,13.527662 23.1252632,11.6846693 24.0862863,9.38259512 L24.0862863,9.38259512 L24.0862863,9.38069022 C24.2558226,8.96446912 24.024377,8.50157792 23.5672005,8.34251859 L23.5672005,8.34251859 C23.4624309,8.30632545 23.3548039,8.28918134 23.2490819,8.28918134 L23.2490819,8.28918134 C22.8919127,8.28918134 22.5556975,8.4844338 22.4166397,8.80350489 L22.4166397,8.80350489 Z" id="path-3"></path>
    </defs>
    <g id="Page-1" stroke="none" stroke-width="1" fill="none" fill-rule="evenodd">
        <g id="regimes-copy" transform="translate(-142.000000, -702.000000)">
            <g id="Group" transform="translate(110.000000, 680.000000)">
                <g transform="translate(39.000000, 25.443124)" id="noun_Vegetable_3380368">
                    <g id="Group-26" transform="translate(-6.667157, -2.857353)">
                        <g id="Group-6">
                            <g id="Group-3">
                                <mask id="mask-2" fill="white">
                                    <use xlink:href="#path-1"></use>
                                </mask>
                                <g id="Clip-2"></g>
                                <path d="M16.7314216,15.1253827 C13.172112,18.7256476 12.2853801,24.1850969 14.5217352,28.7263835 L16.2285274,31.2865718 C16.352346,31.428487 16.479022,31.5675449 16.6104603,31.7046978 C19.1887452,34.4010867 22.8861601,35.7288034 26.5911946,35.2868662 C26.6178633,35.3678245 26.6511991,35.4468779 26.691202,35.5221216 C28.3179884,38.5328193 29.1799565,41.8968763 29.2009105,45.3180804 C25.27205,44.6485074 21.23461,45.4399942 17.8495991,47.544911 C17.3457525,47.8601722 16.7018956,47.8458855 16.2113833,47.5087178 L7.43168967,40.297711 C6.81831121,39.7938645 5.91729253,39.860536 5.3848724,40.4481983 L0.386409384,45.9600324 C-0.149820547,46.5505521 -0.125056821,47.4582379 0.442603995,48.0192316 L8.5203412,55.9969614 C8.90132161,56.4512806 8.97656525,57.0884703 8.71273631,57.619938 C6.06111264,62.9889044 6.56495923,69.3788984 10.0252138,74.2668771 L10.139508,74.4278413 C12.0977473,77.1842346 14.8855715,79.2434338 18.0953314,80.3054167 L18.3610653,80.3920897 C24.4900877,82.4017614 31.2277263,80.620678 35.5632834,75.8450885 L38.605412,72.4896035 C42.9343019,67.7092518 44.0477172,60.8306504 41.4465734,54.9292638 L41.3627577,54.7397261 C40.3960199,52.5367068 38.9425796,50.5822773 37.1119687,49.0212101 L49.9652954,49.2917061 C51.6082735,49.3259944 52.9683735,48.0220889 53.0036142,46.3781584 C53.0817152,42.6778862 54.1446506,39.0661919 56.0828884,35.9126265 C58.4849699,36.2955118 60.9470558,35.932628 63.1357883,34.8715975 C67.2932371,32.8524013 69.9077151,28.6111369 69.841996,23.9898445 C69.7762769,19.3695045 67.0436949,15.2034837 62.831004,13.3033439 C62.7576652,13.2461968 62.6814692,13.1919071 62.6024157,13.1433321 C62.4519285,11.0527021 61.4251862,9.12208385 59.777446,7.82675045 C58.1287532,6.53141705 56.0105021,5.99042486 53.9427309,6.33806949 C51.2215783,2.45587908 46.8126825,0.103325027 42.0723337,0.00331766873 C37.3329374,-0.0966896897 32.8287965,2.06918396 29.9466796,5.83327044 C27.8846231,5.39609541 25.7349412,5.85422436 24.0300538,7.09145825 C22.3251665,8.32964459 21.2241331,10.2316893 21.0003071,12.3270816 C20.36026,12.5699566 19.7421193,12.8690262 19.1535045,13.2204806 L16.7314216,15.1253827 Z M33.6631436,45.9705094 L32.1744626,45.9390785 C32.2554209,41.9816445 31.34964,38.0651658 29.5390306,34.5449068 C30.7657875,34.0610617 31.9039665,33.3781543 32.9097548,32.5247582 L32.9726166,32.8362097 C33.5526592,35.7411853 33.8145833,38.7014031 33.752674,41.6635258 L33.6631436,45.9705094 Z M38.6416051,55.9417193 L38.7254208,56.1322095 C40.4455474,60.0363062 40.1979101,64.5271129 38.0596575,68.2188131 L38.3549173,65.691008 C39.0054414,60.1191695 35.5061363,54.9025952 30.1047865,53.3901029 L29.1532879,53.1234167 C28.6389644,52.9719769 28.0817805,53.1091299 27.6969903,53.4824907 C27.3122001,53.8558515 27.157903,54.4082731 27.2931511,54.9273589 C27.4283991,55.4464447 27.8331908,55.8521889 28.3513241,55.9902943 L29.3018703,56.2560281 C33.294545,57.3732532 35.8794971,61.2287749 35.3985093,65.3462208 L35.1222985,67.7121091 L33.3269283,63.7899158 C32.7773641,62.5850652 31.9868297,61.5059382 31.0048527,60.6173014 C29.434261,59.2000542 27.4503055,58.3257042 25.3444362,58.1256895 C24.5262808,58.0485409 23.8005131,58.65049 23.724317,59.4686454 C23.6481209,60.2868009 24.2491176,61.0125686 25.0682254,61.0887646 C26.5321427,61.2287749 27.9122442,61.8364387 29.0047056,62.8222255 C29.6876129,63.4403662 30.2371772,64.1918501 30.6200625,65.030007 L33.1840607,70.6294666 L27.3598226,68.6245572 C26.4883299,68.3254876 25.6873186,67.8521194 25.0053637,67.2320738 C23.9176646,66.2415247 23.1785626,64.9271423 22.8966371,63.4832265 C22.7994871,62.9574736 22.4280312,62.5231559 21.9232321,62.346 C21.4184331,62.1697966 20.856487,62.278376 20.4536002,62.6298304 C20.0507134,62.9822373 19.8678428,63.5232295 19.9735649,64.04803 C20.379309,66.1234208 21.4422444,68.0130836 23.006169,69.4369979 C23.9862411,70.3275397 25.1377544,71.0085421 26.3902275,71.4380976 L30.4686228,72.8429628 L28.1408325,73.3487143 C24.0900582,74.2297315 20.0011859,72.032427 18.5001231,68.1683332 L18.1420015,67.247313 C17.9534162,66.7472762 17.5105265,66.3862973 16.9809637,66.3024816 C16.4523534,66.2196183 15.9199333,66.4263002 15.5865754,66.8444262 C15.2522651,67.2625522 15.1694019,67.8283081 15.3675117,68.3254876 L15.7256333,69.2455553 C17.7572113,74.4754639 23.2909518,77.449016 28.77326,76.2574998 L31.2601096,75.71746 C27.7931878,78.207167 23.346194,78.8938842 19.289705,77.565215 L19.0239712,77.4775896 C16.4209225,76.6165738 14.1607562,74.9469272 12.5720679,72.7115246 L12.4568213,72.547703 C9.6270893,68.5521709 9.21563045,63.3270246 11.383409,58.9362253 C12.1910875,57.3084865 11.9310683,55.3531045 10.7243129,53.9939569 C10.7014541,53.9682407 10.6785952,53.943477 10.654784,53.9206182 L3.54949926,46.902959 L4.11430272,46.2791035 L9.6270893,51.2775666 C12.7416042,54.1149182 14.3464842,58.2476032 13.9655038,62.4441025 C13.9121665,62.9755701 14.1474219,63.4956084 14.582692,63.8061074 C15.0179621,64.115654 15.585623,64.1689913 16.0704205,63.9442128 C16.5561706,63.7203868 16.8838137,63.2527334 16.9285789,62.7203133 C17.1781211,59.9963033 16.742851,57.2532443 15.6608666,54.7397261 C18.2667726,55.5721683 21.04031,55.7388472 23.7271744,55.2245236 C24.25007,55.1245163 24.6796254,54.7530604 24.853924,54.2501662 C25.0282225,53.7463196 24.9205955,53.1891358 24.5719985,52.7872014 C24.2224489,52.3852671 23.6852665,52.1995391 23.1623709,52.3024039 C19.0239712,53.0910333 14.7541332,51.8957073 11.626284,49.0726424 L6.11444989,44.0741794 L6.63734551,43.4969941 L14.3645807,49.8431753 C14.3874396,49.8631768 14.4122033,49.8812733 14.436967,49.8993699 C15.9075514,50.9670675 17.879125,51.035644 19.4211433,50.0736684 C23.5776396,47.4877639 28.8180252,47.3877565 33.0697666,49.8136493 L33.1497724,49.8584145 C35.5880471,51.240421 37.5148555,53.3748637 38.6406527,55.9417193 L38.6416051,55.9417193 Z M45.656407,41.9140204 L45.5649717,46.2219565 L42.5895146,46.1590947 L42.7466691,38.7194997 C42.7619083,38.1851747 42.4895073,37.683233 42.0332832,37.4051173 C41.5770592,37.1270016 41.0055886,37.1146197 40.5379351,37.3736864 C40.0702817,37.6327531 39.7769267,38.1223129 39.7702596,38.6575904 L39.6140576,46.0962329 L36.6386006,46.0333712 L36.7290834,41.7263876 C36.795755,38.5471061 36.5138295,35.3706819 35.8899741,32.2523572 L35.4318451,29.96076 C35.4127961,29.8683722 35.385175,29.7778894 35.3499343,29.6902639 C35.5699505,29.3340472 35.7709177,28.9654487 35.9518834,28.5863732 C37.2319776,29.1273653 38.5816007,29.4864394 39.9607498,29.6540708 L39.8959831,32.7057239 C39.8778865,33.2419538 40.1493351,33.7467528 40.6065116,34.0267735 C41.0646405,34.3067941 41.6370636,34.3182235 42.1056695,34.0582043 C42.5752279,33.7972328 42.8676303,33.3048156 42.8714401,32.7685856 L42.9362068,29.7169325 C44.3210706,29.6074007 45.684028,29.3045212 46.9860286,28.8187712 C47.1450879,29.192132 47.3241487,29.5559683 47.5222585,29.9112325 L46.8926884,32.4838028 C46.1383472,35.5726015 45.724031,38.7347389 45.656407,41.9140204 Z M50.0291096,46.3152967 L48.5413811,46.2838658 L48.631864,41.9768822 C48.6947258,39.0147595 49.0814209,36.0688285 49.7843297,33.1905214 L49.8595734,32.8819273 C50.8282161,33.7762788 51.9368691,34.5058563 53.1426721,35.0411338 C51.1834803,38.4823394 50.1138778,42.3569102 50.0291096,46.3152967 Z M66.8655865,24.3422514 C66.7617694,29.2730903 62.6814692,33.1857592 57.7506302,33.081942 C53.7693849,32.9866969 50.3291317,30.2760213 49.3042944,26.4290716 C49.1909527,25.9976112 48.8909307,25.6404421 48.486139,25.4547142 C48.0813473,25.2689862 47.6146463,25.2737485 47.2136644,25.4680485 L47.1850909,25.4823352 C43.6200666,27.3043741 39.3778498,27.2148437 35.891879,25.24327 C35.5004216,25.0203965 35.0280059,24.9880132 34.6089274,25.1546921 C34.189849,25.321371 33.868873,25.6680632 33.7355298,26.0995235 C32.5497283,29.9007556 28.9980384,32.4638013 25.0167931,32.391415 C20.0859541,32.2875979 16.1742377,28.2063452 16.2780549,23.2755062 C16.3771098,19.3275967 19.0439727,15.9082975 22.8490145,14.8510768 C22.9614038,14.7996445 23.082365,14.7682136 23.2061837,14.7586891 C24.7729656,14.4024724 26.4064191,14.4720013 27.9379604,14.9596562 C28.7199227,15.2111033 29.5580796,14.779643 29.8095267,13.9976807 C30.0600213,13.2147659 29.6295134,12.376609 28.8465987,12.125162 C27.3474408,11.6460791 25.7692294,11.4679707 24.2005425,11.6013139 C24.6081916,10.4707545 25.4539681,9.55068682 26.5473819,9.05160248 C27.6407957,8.55156569 28.889459,8.51346764 30.0114463,8.94588041 C30.6657802,9.19923239 31.408692,8.96016718 31.7925297,8.37250489 C34.0393617,4.93129931 37.9025031,2.89210165 42.0113769,2.97782224 C46.1202506,3.06449529 49.8938616,5.26465717 51.9930637,8.7982505 C52.3530902,9.40115201 53.0845726,9.67069565 53.7493834,9.4459172 C54.8780379,9.06398434 56.1133668,9.14970493 57.1782071,9.68307751 C58.2439998,10.2154976 59.0526307,11.1527095 59.4250391,12.2842213 C59.0526307,12.2670772 58.6506964,12.2594576 58.1897101,12.249933 C56.0285987,12.2032629 53.8941559,12.7471125 52.0187799,13.8224297 C51.5577936,14.0872111 51.2730107,14.5777234 51.2720582,15.109191 C51.2701533,15.6406587 51.5530313,16.1330759 52.0130651,16.3997622 C52.4721465,16.6664485 53.0398074,16.6683534 53.5007937,16.403572 C55.6600002,15.1701479 58.2344753,14.8901273 60.6079833,15.6292293 C60.6241749,15.634944 60.6394141,15.6416112 60.6565583,15.6473259 C61.0032504,15.7578102 61.3432755,15.8902009 61.673776,16.0435455 L61.6766333,16.044498 C64.892108,17.5446083 66.9246385,20.7953237 66.8655865,24.3422514 L66.8655865,24.3422514 Z" id="Fill-1" fill="#594231" mask="url(#mask-2)"></path>
                            </g>
                            <path d="M90.5311374,48.3973546 C89.9415702,46.2733888 88.2681137,44.5332608 86.0279489,43.7151054 C84.459262,43.2398323 82.7315158,43.5503313 81.4809476,44.5323083 C80.248476,45.5352393 79.24745,46.7496143 78.537874,48.1068571 C78.012121,49.0602605 77.3339758,49.9384204 76.5262974,50.7127631 C75.6690914,50.0250934 74.734737,49.4212395 73.7384732,48.9107257 C72.4345677,48.3087767 71.2916265,47.456333 70.3887029,46.4114942 C70.0753465,45.9409834 69.8143749,45.4428515 69.6115029,44.9256706 C69.4819695,44.6294583 69.3505313,44.335151 69.2048063,44.0446534 C68.3180744,42.2092803 66.2322066,41.0996748 64.0349021,41.2939748 C61.9347476,41.4882748 60.2203357,42.9036171 59.8088768,44.7818505 C59.184069,47.6715869 59.8736435,50.6679979 61.7185412,53.0910333 C63.3977123,55.081656 65.6893095,56.5770041 68.3047401,57.385635 C68.2723567,57.940914 68.3352185,58.4971454 68.4895156,59.0352802 C69.1457543,61.1373396 70.8658809,62.83175 73.1222374,63.5956158 C74.1642188,63.9375457 75.2642998,64.1089869 76.3710479,64.1034104 C77.3463577,64.1004148 78.3169053,63.9870731 79.2607843,63.7632471 C84.01161,62.5688735 87.9242789,59.5067435 89.9253785,55.4188236 C90.9902187,53.2062799 91.2035678,50.7327646 90.5311374,48.3973546 L90.5311374,48.3973546 Z M69.7467509,54.2473089 C69.307671,54.7044854 68.9552641,55.2245236 68.703817,55.7874222 C66.5027027,55.0759413 64.5749418,53.8015618 63.1529324,52.1176284 C61.6213912,50.0822405 61.0432534,47.5772943 61.5480524,45.1552113 C61.7861652,43.9484559 62.8767216,43.032198 64.22063,42.9083793 C65.6559737,42.7902754 67.012264,43.5236627 67.5799248,44.7256559 C67.7123155,44.9951995 67.8313719,45.2590285 67.9504283,45.5295246 C68.1980655,46.1495702 68.5142793,46.7458045 68.8962121,47.3067982 C69.9362887,48.556414 71.271625,49.5774415 72.8050712,50.2955895 C73.5679845,50.6965714 74.2966095,51.1480332 74.9852316,51.6461651 C74.8842718,51.6899778 74.7795022,51.7328381 74.6690179,51.7814131 C74.3089914,51.9166612 73.9432502,52.0519092 73.5765565,52.1747754 C72.1240687,52.5538509 70.8039716,53.2672368 69.7467509,54.2473089 L69.7467509,54.2473089 Z M88.281448,54.7768716 C86.5051268,58.4066625 83.0315379,61.1259102 78.8131323,62.1869407 C77.1482479,62.6107814 75.3814512,62.5707784 73.7413306,62.0716941 C72.0307285,61.499271 70.7230132,60.2201293 70.2201191,58.6295361 C70.0610598,58.0875914 70.0420107,57.5208831 70.1620196,56.9703664 L70.1620196,56.9627468 C70.3106019,56.3484158 70.6315779,55.7788501 71.0944691,55.3102442 C71.9650094,54.5378064 73.0365168,53.9758603 74.208984,53.6767907 C74.6013938,53.5415427 74.9928512,53.4072471 75.376689,53.2558073 C75.9205385,53.0500779 76.4405768,52.7957735 76.9301366,52.4976563 L76.9625199,52.4757499 L77.0310964,52.4309848 C78.3492886,51.4604371 79.4084142,50.2327278 80.1313245,48.8392919 C80.7275589,47.6944458 81.5600011,46.6638937 82.5838859,45.8038305 C83.369658,45.1666407 84.4687865,44.9580539 85.4698126,45.2552187 C87.1366019,45.9057427 88.3709784,47.2277448 88.8052961,48.8259576 C89.3596226,50.8070557 89.1757995,52.8995907 88.281448,54.7768716 L88.281448,54.7768716 Z M83.6696801,50.6546636 C82.708657,52.9557853 80.7504177,54.7997305 78.2511862,55.7559913 C77.9568788,55.8683805 77.6187587,55.8302825 77.3644543,55.6559839 C77.1091974,55.4816854 76.9768067,55.1969025 77.0158572,54.9092623 C77.0549077,54.6225746 77.2606371,54.3758898 77.553992,54.2625481 C79.606524,53.4786809 81.2142614,51.9652362 82.0009859,50.0746209 C82.1800467,49.6612571 82.6934178,49.4564802 83.1505943,49.614587 C83.6077708,49.7736464 83.8392164,50.2365376 83.6696801,50.6527587 L83.6696801,50.6546636 Z M70.4134666,51.6633092 C70.3010774,52.007144 69.9524803,52.2423994 69.5572132,52.2423994 C69.4705401,52.2423994 69.3848195,52.23097 69.3010038,52.2090637 C66.8932076,51.5575872 65.0578345,49.7803135 64.4987457,47.5572928 C64.3892139,47.1210702 64.6892359,46.6858001 65.1702237,46.5857928 C65.6512115,46.4857854 66.1312468,46.7591389 66.2407787,47.1953614 C66.6560473,48.8488164 68.0228146,50.1708185 69.8153274,50.6527587 C70.0420107,50.7137155 70.2325009,50.8546783 70.3458426,51.044216 C70.4582318,51.2337538 70.4829956,51.4556749 70.4153715,51.6614043 L70.4134666,51.6633092 Z" id="Fill-4" fill="#594231"></path>
                        </g>
                        <g id="Group-10" transform="translate(59.583680, 41.271592)">
                            <mask id="mask-4" fill="white">
                                <use xlink:href="#path-3"></use>
                            </mask>
                            <g id="Clip-8"></g>
                            <polygon id="Fill-7" fill="#594231" mask="url(#mask-4)" points="-0.639342487 23.5026817 31.9716284 23.5026817 31.9716284 -0.665763272 -0.639342487 -0.665763272"></polygon>
                            <polygon id="Stroke-9" stroke="#594231" mask="url(#mask-4)" points="-0.639342487 23.5026817 31.9716284 23.5026817 31.9716284 -0.665763272 -0.639342487 -0.665763272"></polygon>
                        </g>
                        <g id="Group-25" transform="translate(47.235269, 41.272015)">
                            <path d="M43.2958686,7.1253401 C42.7063014,5.0013743 41.0328449,3.26124626 38.7926801,2.44309082 C37.2239932,1.96781776 35.4962471,2.2783168 34.2456789,3.26029381 C33.0132072,4.26322475 32.0121812,5.47759981 31.3026052,6.83484254 C30.7768522,7.78824602 30.0987071,8.66640587 29.2910286,9.44074856 C28.4338227,8.75307891 27.4994682,8.14922496 26.5032044,7.63871121 C25.199299,7.03676215 24.0563577,6.18431848 23.1534341,5.1394797 C22.8400777,4.66896889 22.5791062,4.170837 22.3762341,3.65365609 C22.2467008,3.35744382 22.1152625,3.06313645 21.9695375,2.77263888 C21.0828056,0.937265742 18.9969378,-0.172339711 16.7996333,0.0219603 C14.6994788,0.216260311 12.9850669,1.63160254 12.5736081,3.50983598 C11.9488002,6.39957241 12.6383747,9.39598336 14.4832724,11.8190188 C16.1624436,13.8096414 18.4540407,15.3049896 21.0694713,16.1136205 C21.0370879,16.6688994 21.0999497,17.2251308 21.2542468,17.7632657 C21.9104855,19.8653251 23.6306121,21.5597355 25.8869686,22.3236012 C26.92895,22.6655311 28.029031,22.8369723 29.1357791,22.8313959 C30.1110889,22.8284003 31.0816365,22.7150586 32.0255155,22.4912326 C36.7763413,21.296859 40.6890101,18.2347289 42.6901097,14.1468091 C43.75495,11.9342654 43.968299,9.46075003 43.2958686,7.1253401 Z M22.5114821,12.9752943 C22.0724022,13.4324708 21.7199953,13.9525091 21.4685483,14.5154077 C19.2674339,13.8039267 17.339673,12.5295473 15.9176636,10.8456138 C14.3861224,8.81022598 13.8079846,6.30527976 14.3127837,3.88319679 C14.5508964,2.67644133 15.6414528,1.76018343 16.9853613,1.6363648 C18.420705,1.51826087 19.7769952,2.25164817 20.344656,3.45364137 C20.4770467,3.72318501 20.5961031,3.98701395 20.7151595,4.25751004 C20.9627968,4.87755566 21.2790105,5.47379001 21.6609434,6.03478367 C22.7010199,7.28439942 24.0363562,8.30542693 25.5698024,9.02357501 C26.3327157,9.42455689 27.0613407,9.87601868 27.7499628,10.3741506 C27.649003,10.4179633 27.5442334,10.4608236 27.4337491,10.5093986 C27.0737226,10.6446467 26.7079814,10.7798947 26.3412877,10.9027609 C24.8887999,11.2818364 23.5687028,11.9952222 22.5114821,12.9752943 Z M41.0461792,13.5048571 C39.2698581,17.134648 35.7962691,19.8538957 31.5778635,20.9149261 C29.9129791,21.3387669 28.1461825,21.2987639 26.5060618,20.7996796 C24.7954597,20.2272565 23.4877445,18.9481148 22.9848503,17.3575215 C22.825791,16.8155769 22.806742,16.2488685 22.9267508,15.6983518 L22.9267508,15.6907322 C23.0753332,15.0764013 23.3963092,14.5068356 23.8592004,14.0382297 C24.7297406,13.2657919 25.801248,12.7038458 26.9737152,12.4047762 C27.3661251,12.2695281 27.7575824,12.1352325 28.1414202,11.9837928 C28.6852697,11.7780634 29.205308,11.523759 29.6948678,11.2256418 L29.7272512,11.2037354 L29.7958276,11.1589702 C31.1140199,10.1884226 32.1731454,8.96071324 32.8960557,7.56727738 C33.4922901,6.42243124 34.3247323,5.39187922 35.3486172,4.53181594 C36.1343893,3.8946262 37.2335178,3.68603942 38.2345438,3.98320414 C39.9013331,4.6337282 41.1357096,5.95573023 41.5700273,7.55394306 C42.1243538,9.53504121 41.9405308,11.6275761 41.0461792,13.5048571 Z M36.4344113,9.38264905 C35.4733882,11.6837707 33.5151489,13.5277159 31.0159174,14.4839768 C30.72161,14.596366 30.3834899,14.558268 30.1291855,14.3839694 C29.8739286,14.2096709 29.7415379,13.924888 29.7805884,13.6372478 C29.8196389,13.35056 30.0253683,13.1038752 30.3187233,12.9905336 C32.3712552,12.2066664 33.9789926,10.6932217 34.7657171,8.80260637 C34.9447779,8.38924262 35.458149,8.18446565 35.9153255,8.34257252 C36.372502,8.50163184 36.6039476,8.96452304 36.4344113,9.38074414 L36.4344113,9.38264905 Z M23.1781979,10.3912947 C23.0658086,10.7351295 22.7172116,10.9703849 22.3219444,10.9703849 C22.2352713,10.9703849 22.1495507,10.9589555 22.0657351,10.9370491 C19.6579388,10.2855726 17.8225657,8.508299 17.263477,6.28527829 C17.1539451,5.84905572 17.4539672,5.41378559 17.9349549,5.31377824 C18.4159427,5.21377088 18.895978,5.48712432 19.0055099,5.9233469 C19.4207785,7.57680189 20.7875458,8.89880392 22.5800586,9.38074414 C22.806742,9.44170101 22.9972322,9.58266376 23.1105738,9.77220152 C23.2229631,9.96173927 23.2477268,10.1836604 23.1801028,10.3893898 L23.1781979,10.3912947 Z" id="Stroke-11" stroke="#594231"></path>
                            <path d="M14.4461268,19.9898105 C11.2992286,17.4277172 7.89231125,15.9752294 6.11218027,15.33042 C5.61500083,15.1504068 5.07210374,15.1875524 4.62064195,15.4323323 C4.16918016,15.6771122 3.841537,16.1390509 3.72248062,16.6267059 C3.03862078,19.5716845 1.82138836,27.1093819 5.28164297,33.4803269 C6.17218468,35.1233049 7.37417788,36.6719903 8.85238189,38.0844752 C12.8888694,41.9428543 16.4996112,43.3153362 19.0169393,41.948569 C20.1960737,41.3085219 21.0018473,40.1398645 21.4190208,38.5140306 C21.892389,36.6700854 21.8638154,34.236573 21.3132987,31.3192155 C20.9466051,29.3809776 20.3284644,27.5941795 19.4845928,25.9959667 L18.4616604,24.307271 C17.690175,23.1805214 16.815825,22.1718758 15.8843279,21.2737145 L14.4461268,19.9898105 Z M17.7082716,26.7341162 C18.5045206,28.1999384 19.081706,29.8629179 19.4245883,31.6763846 C19.8817648,34.0946578 19.9427217,36.1405226 19.6398423,37.6568247 C19.0245589,34.7899471 17.3330059,31.6230474 15.4042925,28.0694526 C13.3955733,24.3691803 10.4039246,20.7270076 8.27995882,18.6316153 C11.1125482,20.183158 14.2032518,20.7003389 17.7082716,26.7341162 L17.7082716,26.7341162 Z M18.7321564,39.7388826 C18.6940584,39.7826954 17.5987397,39.5483924 17.5587368,39.5883954 C17.5587368,39.5883954 12.7393345,34.4394451 10.0524702,29.8543458 C7.36655828,25.2682941 5.41879591,17.8810839 5.41879591,17.8810839 C7.66658035,19.8831359 11.1535036,24.0320126 13.5784439,28.4980555 C15.8748033,32.7278906 18.2406917,36.7710452 18.7321564,39.7388826 L18.7321564,39.7388826 Z M18.0016265,45.4974016 C17.9454319,45.508831 17.8882848,45.5183555 17.8311378,45.5269275 L18.0016265,45.4974016 Z M10.1800986,36.6948491 C8.84666718,35.4204696 7.76658771,34.0308436 6.96938619,32.5631165 C3.9310674,27.5494143 4.17298996,19.8545624 4.35586056,17.6029682 C4.95685716,20.5260404 6.76270432,26.9550849 8.77142355,30.6534522 C10.7001369,34.2051421 14.3470719,37.8196938 16.416748,39.8969895 C14.9804518,39.3255189 11.9602296,38.3959267 10.1800986,36.6948491 L10.1800986,36.6948491 Z" id="Fill-13" fill="#594231" transform="translate(12.348548, 30.372372) rotate(-12.000000) translate(-12.348548, -30.372372) "></path>
                            <path d="M14.4461268,19.9898105 C11.2992286,17.4277172 7.89231125,15.9752294 6.11218027,15.33042 C5.61500083,15.1504068 5.07210374,15.1875524 4.62064195,15.4323323 C4.16918016,15.6771122 3.841537,16.1390509 3.72248062,16.6267059 C3.03862078,19.5716845 1.82138836,27.1093819 5.28164297,33.4803269 C6.17218468,35.1233049 7.37417788,36.6719903 8.85238189,38.0844752 C12.8888694,41.9428543 16.4996112,43.3153362 19.0169393,41.948569 C20.1960737,41.3085219 21.0018473,40.1398645 21.4190208,38.5140306 C21.892389,36.6700854 21.8638154,34.236573 21.3132987,31.3192155 C20.9466051,29.3809776 20.3284644,27.5941795 19.4845928,25.9959667 L18.4616604,24.307271 C17.690175,23.1805214 16.815825,22.1718758 15.8843279,21.2737145 L14.4461268,19.9898105 Z M17.7082716,26.7341162 C18.5045206,28.1999384 19.081706,29.8629179 19.4245883,31.6763846 C19.8817648,34.0946578 19.9427217,36.1405226 19.6398423,37.6568247 C19.0245589,34.7899471 17.3330059,31.6230474 15.4042925,28.0694526 C13.3955733,24.3691803 10.4039246,20.7270076 8.27995882,18.6316153 C11.1125482,20.183158 14.2032518,20.7003389 17.7082716,26.7341162 Z M18.7321564,39.7388826 C18.6940584,39.7826954 17.5987397,39.5483924 17.5587368,39.5883954 C17.5587368,39.5883954 12.7393345,34.4394451 10.0524702,29.8543458 C7.36655828,25.2682941 5.41879591,17.8810839 5.41879591,17.8810839 C7.66658035,19.8831359 11.1535036,24.0320126 13.5784439,28.4980555 C15.8748033,32.7278906 18.2406917,36.7710452 18.7321564,39.7388826 Z M18.0016265,45.4974016 C17.9454319,45.508831 17.8882848,45.5183555 17.8311378,45.5269275 L18.0016265,45.4974016 Z M10.1800986,36.6948491 C8.84666718,35.4204696 7.76658771,34.0308436 6.96938619,32.5631165 C3.9310674,27.5494143 4.17298996,19.8545624 4.35586056,17.6029682 C4.95685716,20.5260404 6.76270432,26.9550849 8.77142355,30.6534522 C10.7001369,34.2051421 14.3470719,37.8196938 16.416748,39.8969895 C14.9804518,39.3255189 11.9602296,38.3959267 10.1800986,36.6948491 Z" id="Stroke-15" stroke="#594231" transform="translate(12.348548, 30.372372) rotate(-12.000000) translate(-12.348548, -30.372372) "></path>
                        </g>
                    </g>
                </g>
            </g>
        </g>
    </g>
</svg>
