<?xml version="1.0" encoding="UTF-8"?>
<svg width="84px" height="68px" viewBox="0 0 84 68" version="1.1" xmlns="http://www.w3.org/2000/svg" xmlns:xlink="http://www.w3.org/1999/xlink">
    <title>noun_Vegetarian_3597852</title>
    <g id="Page-1" stroke="none" stroke-width="1" fill="none" fill-rule="evenodd">
        <g id="regimes-copy" transform="translate(-144.000000, -531.000000)" fill="#015A5A" fill-rule="nonzero">
            <g id="noun_Vegetarian_3597852" transform="translate(143.000000, 528.500000)">
                <path d="M40.2690909,12.0145455 C39.4009875,12.4853688 38.7804274,13.3103049 38.5687273,14.2749091 C38.3932721,15.5489747 38.7738279,16.836999 39.6135285,17.8111297 C40.4532291,18.7852603 41.6710802,19.3515363 42.9570909,19.3658702 C43.6122355,19.3692343 44.2572951,19.2044636 44.8305455,18.8872727 C45.6960476,18.4206523 46.313721,17.5983281 46.5207273,16.6370909 C46.8977144,14.495627 45.6308519,12.405957 43.5578182,11.7498182 C42.4733141,11.3701894 41.2789081,11.4663335 40.2690909,12.0145455 Z M43.5476364,15.9854545 C43.5219718,16.0993407 43.4474927,16.1961634 43.344,16.2501818 C43.0872425,16.3605784 42.7963939,16.3605784 42.5396364,16.2501818 C41.9356332,16.103128 41.5133018,15.5583205 41.5214545,14.9367273 C41.5495385,14.8239928 41.6233319,14.7280613 41.7250909,14.672 C41.8401674,14.6081995 41.9702943,14.576547 42.1018182,14.5803636 C42.2478822,14.5837279 42.3923815,14.6112515 42.5294545,14.6618182 C43.1313002,14.8121896 43.5520384,15.3549418 43.5476364,15.9752727 L43.5476364,15.9854545 Z M30.0974545,36.3490909 C27.6843636,36.3490909 26.9512727,32.7141818 26.7578182,31.1563636 C26.0858182,25.9636364 27.776,21.2392727 28.6821818,20.9745455 C28.757402,20.9912191 28.8273472,21.0261917 28.8858182,21.0763636 C32.9585455,23.9069091 43.5069091,29.3745455 51.8152727,33.5592727 C52.3476289,32.6765179 52.9467087,31.8357639 53.6072727,31.0443636 C49.2494545,28.8450909 44.2501818,26.2792727 39.9025455,23.9170909 C39.9025455,23.8458182 39.9534545,23.7745455 39.9738182,23.6930909 C40.3957115,21.2540539 38.9390643,18.8815507 36.5730909,18.1541818 C34.8924272,17.5280974 32.9997134,18.006342 31.8181818,19.3556364 L31.1054545,18.8872727 C35.8909091,14.6414545 43.4254545,8.02327273 43.6494545,7.81963636 C43.8734545,7.616 44.1076364,7.56509091 44.2909091,7.65672727 C46.4698182,9.00072727 47.6916364,9.69309091 51.6625455,11.8414545 C50.7358923,11.4280663 49.6771986,11.4280663 48.7505455,11.8414545 C47.9344099,12.2089735 47.3255546,12.9224174 47.0909091,13.7861818 C46.6703211,15.6490114 47.6680716,17.54085 49.4429091,18.2458182 C49.9146251,18.4533944 50.424269,18.5608703 50.9396364,18.5614545 C51.4398958,18.5625074 51.934001,18.4511597 52.3854545,18.2356364 C53.1763586,17.8563758 53.7660554,17.1554154 54.0043636,16.3112727 C54.3702301,14.73916 53.7051968,13.1071763 52.3447273,12.2385455 L53.7396364,12.992 L54.3098182,13.3076364 C54.5294311,15.0696304 55.7046452,16.5660698 57.3643636,17.1970909 C57.8736299,17.4182606 58.4185755,17.5458745 58.9730909,17.5738182 C59.7876364,17.2683636 59.8894545,17.1970909 60.8363636,14.8654545 L61.1723636,14.0305455 C60.6852975,13.9044376 60.1673687,14.0263032 59.7876364,14.3563636 C59.4133169,14.5880615 58.9401376,14.5880615 58.5658182,14.3563636 C57.7207273,14 57.1709091,13.3381818 57.3032727,12.7781818 C57.3032727,12.7781818 57.3032727,12.7170909 57.3032727,12.6865455 L57.3032727,12.5032727 L57.3032727,12.3709091 C57.2985418,12.3167091 57.2985418,12.2622 57.3032727,12.208 L57.3032727,12.0654545 L57.3032727,11.9229091 L57.2727273,11.8210909 C57.2567225,11.7718237 57.2362748,11.7241125 57.2116364,11.6785455 C57.1904542,11.6372158 57.1629744,11.5994312 57.1301818,11.5665455 C57.1115498,11.5207408 57.0838424,11.4791796 57.0487273,11.4443636 C57.0166878,11.4020873 56.9790036,11.3644031 56.9367273,11.3323636 L56.8349091,11.2305455 L56.6923636,11.1389091 L56.6109091,11.0778182 L55.2363636,10.3141818 C49.5243636,7.20872727 48.3330909,6.56727273 45.8487273,5.02981818 L45.7469091,4.96872727 C44.3850776,4.21907755 42.6916938,4.45980367 41.5927273,5.55927273 L26.6661818,18.704 C26.6661818,18.704 26.6661818,18.704 26.6050909,18.7650909 C23.5505455,21.3003636 22.7665455,29.6494545 24.3752727,34.4756364 C25.3934545,37.6523636 27.4298182,39.3934545 30.0974545,39.3934545 L49.3410909,39.3934545 C49.598295,38.3496947 49.9387801,37.3282395 50.3592727,36.3389091 L30.0974545,36.3490909 Z M50.6850909,15.4356364 C50.3347955,15.3113858 50.0910965,14.9917806 50.064,14.6210909 C50.1070106,14.6070906 50.1533531,14.6070906 50.1963636,14.6210909 C50.2984212,14.6258802 50.3986319,14.650069 50.4916364,14.6923636 C50.8445641,14.8167506 51.0864031,15.1432333 51.1025455,15.5170909 C50.9581168,15.5417574 50.8096525,15.5127888 50.6850909,15.4356364 Z M35.5854545,21.0865455 C36.1897806,21.294052 36.6732809,21.7552369 36.9090909,22.3490909 L34.5774545,21.0356364 C34.9108632,20.950197 35.2623508,20.9679489 35.5854545,21.0865455 L35.5854545,21.0865455 Z M84.1730909,23.9781818 C82.5091968,21.0700923 81.2778419,17.9351108 80.5178182,14.672 C80.0670952,12.6133589 79.0311219,10.7288069 77.5345455,9.24509091 L78.1047273,5.92581818 C78.240009,5.0947986 77.6817103,4.3095492 76.8523636,4.16436364 L70.2545455,3.03418182 C69.8464357,2.96684222 69.428352,3.06567046 69.0935881,3.30861347 C68.7588241,3.55155648 68.5352399,3.91839573 68.4727273,4.32727273 L67.9127273,7.64654545 C66.1130461,8.62621904 64.6828651,10.1672391 63.84,12.0349091 C63.1781818,13.3585455 62.7098182,14.5090909 62.3636364,15.4356364 C61.3454545,17.8690909 61.0909091,18.4901818 59.5636364,19.0196364 C58.0363636,19.5490909 57.8530909,20.3534545 57.8123636,20.9541818 C57.7995722,21.761452 58.2793605,22.4952459 59.024,22.8072727 C59.7234945,23.1028283 60.4741146,23.2584869 61.2334545,23.2654545 C60.3278663,25.7325007 58.8724091,27.9609519 56.9774545,29.7818182 C50.2778182,35.6872727 48.2109091,45.4109091 52.2632727,51.9069091 C54.3011585,54.8981012 57.7279949,56.6384116 61.3454545,56.5192727 L61.8647273,56.5192727 C67.0981818,56.3054545 71.7003636,53.088 74.5105455,47.6712727 C78.088261,40.8272455 79.864775,33.1850818 79.6727273,25.4647273 C80.6495009,25.9320689 81.7004877,26.2249668 82.7781818,26.3301818 C83.3578954,26.376955 83.9138584,26.0904128 84.2121337,25.5911259 C84.510409,25.091839 84.4992192,24.4664783 84.1832727,23.9781818 L84.1730909,23.9781818 Z M71.792,46.256 C69.5112727,50.6647273 65.8458182,53.2916364 61.7425455,53.4545455 C59.0460417,53.6980272 56.4237917,52.487758 54.8596364,50.2778182 C51.968,45.6654545 52.7316364,37.5912727 58.9934545,32.0523636 C61.6123733,29.5209814 63.5491721,26.3688676 64.624,22.8887273 C65.8808573,22.5778217 67.0898803,22.0983225 68.2181818,21.4632727 L68.544,26.3403636 C68.5867163,27.0240936 69.0766542,27.5970718 69.7454545,27.7454545 C69.8538072,27.755947 69.9629201,27.755947 70.0712727,27.7454545 C70.6285225,27.7477135 71.1415293,27.4422591 71.4050909,26.9512727 L74.3781818,21.4836364 C75.0532614,22.211629 75.7779008,22.8920415 76.5469091,23.52 C76.8930909,32.2661818 75.3861818,39.3221818 71.792,46.256 Z M75.3556364,17.9098182 C75.0706383,17.5065905 74.6072312,17.2672901 74.1134545,17.2683636 L74.0218182,17.2683636 C73.4970536,17.3046736 73.0260525,17.6033572 72.7694545,18.0625455 L71.2421818,20.8829091 L71.0792727,18.5818182 C71.0264815,18.0132652 70.6609479,17.5216462 70.1316803,17.3073678 C69.6024127,17.0930894 68.9978206,17.191945 68.5643636,17.5636364 C67.0808044,18.8260687 65.295134,19.6820679 63.3818182,20.048 C64.1644381,18.9849551 64.7696155,17.8021083 65.1738182,16.5454545 C65.5505455,15.6189091 65.968,14.5701818 66.5890909,13.2974545 C67.2068952,11.8374691 68.3732488,10.6784281 69.8370909,10.0698182 C70.3667961,9.89767533 70.7583519,9.44738613 70.8552727,8.89890909 L71.3032727,6.272 L74.8872727,6.88290909 L74.4290909,9.55054545 C74.3334751,10.1071009 74.5527679,10.6709966 74.9992727,11.0167273 C76.3379915,12.1352916 77.2570459,13.6754257 77.6058182,15.3847273 C78.1771434,17.6798842 78.9365597,19.9240786 79.8763636,22.0945455 C78.1388145,20.9715358 76.6092322,19.5556387 75.3556364,17.9098182 L75.3556364,17.9098182 Z M50.9192727,21.5141818 C50.0017748,22.0223424 49.3484932,22.9020454 49.1272727,23.9272727 C48.7180438,26.2417056 50.0913283,28.4999957 52.3345455,29.2014545 C52.8290996,29.3732014 53.3484847,29.462632 53.872,29.4661983 C54.3694273,29.4675953 54.8629056,29.377872 55.328,29.2014545 L55.9287273,28.6210909 C56.5819823,28.0336328 57.1630345,27.3705497 57.6596364,26.6458182 C57.6579383,26.6119 57.6579383,26.5779182 57.6596364,26.544 L57.6596364,26.544 C58.0584026,24.2284424 56.6835783,21.9747746 54.4421818,21.2698182 C53.3004774,20.8704296 52.0446892,20.9588135 50.9701818,21.5141818 L50.9192727,21.5141818 Z M54.3810909,26.2894545 C54.0403155,26.4385192 53.6527754,26.4385192 53.312,26.2894545 C52.6022208,26.0448772 52.1408613,25.3590726 52.1818182,24.6094545 C52.2226894,24.4286554 52.3421781,24.2755605 52.5076364,24.192 C52.6645923,24.0993334 52.8447456,24.0534119 53.0269091,24.0596364 C53.2110414,24.0648157 53.3931853,24.0991824 53.5665455,24.1614545 C54.3267831,24.3668279 54.8402024,25.0754314 54.7985455,25.8618182 C54.753282,26.0555433 54.6165234,26.215095 54.432,26.2894545 L54.3810909,26.2894545 Z" id="Shape"></path>
                <g id="noun-egg-3194719" transform="translate(2.036364, 38.352764)" stroke="#015A5A" stroke-width="0.8">
                    <path d="M9.63438293,8.27585756 C9.13669465,7.99202174 8.55605831,8.18124562 8.30721417,8.74891726 C7.64362979,10.1680964 6.10909091,13.952574 6.10909091,18.2101113 C6.10909091,18.8250889 6.56530517,19.3454545 7.10446748,19.3454545 C7.64362979,19.3454545 8.09984405,18.8250889 8.09984405,18.2101113 C8.09984405,14.4256337 9.46848684,11.0669098 10.0491232,9.7896486 C10.3394413,9.26928293 10.1320712,8.55969338 9.63438293,8.27585756 Z" id="Path"></path>
                    <path d="M26.9403307,8.87427466 C24.7677234,8.87427466 22.8365169,9.25802708 21.0984311,9.97756286 C19.1189444,4.65299807 15.6427727,0 11.3941184,0 C4.7797361,0 0,11.2247582 0,18.8038685 C0,26.2870406 4.68317578,31.5636364 11.3941184,31.5636364 C14.1943678,31.5636364 16.6083759,30.6522244 18.4913023,29.0692456 C20.6639096,30.6522244 23.5607194,31.5636364 26.8920506,31.5636364 C34.5203163,31.5636364 45.8180286,26.8147002 45.8180286,20.24294 C45.8661545,13.6711799 34.5685964,8.87427466 26.9403307,8.87427466 Z M2.26916764,18.8038685 C2.26916764,11.7524178 6.75922277,2.25454545 11.3941184,2.25454545 C14.3874885,2.25454545 17.3325784,6.28394584 19.0223841,11.032882 C15.9807338,13.0475822 14.0978075,16.2615087 14.0978075,20.24294 C14.0978075,23.0731141 15.0634107,25.5675048 16.7532164,27.4862669 C15.3048116,28.6375242 13.4701654,29.3090909 11.3941184,29.3090909 C6.03502033,29.2611219 2.26916764,24.9918762 2.26916764,18.8038685 Z M26.9403307,29.2611219 C20.7604699,29.2611219 16.4152553,25.5195358 16.4152553,20.194971 C16.4152553,14.8704062 20.7604699,11.1288201 26.9403307,11.1288201 C34.0375147,11.1288201 43.5969869,15.589942 43.5969869,20.194971 C43.5969869,24.8 34.0375147,29.2611219 26.9403307,29.2611219 Z" id="Shape"></path>
                    <path d="M37.0692646,16.4571429 C35.6500855,15.7922078 31.8656079,14.2545455 27.6080706,14.2545455 C26.9930929,14.2545455 26.4727273,14.7116883 26.4727273,15.2519481 C26.4727273,15.7922078 26.9930929,16.2493506 27.6080706,16.2493506 C31.3925482,16.2493506 34.751272,17.6207792 36.0285332,18.2025974 C36.2177571,18.2857143 36.359675,18.3272727 36.5488989,18.3272727 C36.9746526,18.3272727 37.3531004,18.1194805 37.5423243,17.787013 C37.8261601,17.2883117 37.6369362,16.7064935 37.0692646,16.4571429 Z" id="Path"></path>
                </g>
            </g>
        </g>
    </g>
</svg>