<?xml version="1.0" encoding="UTF-8"?>
<svg width="98px" height="66px" viewBox="0 0 98 66" version="1.1" xmlns="http://www.w3.org/2000/svg" xmlns:xlink="http://www.w3.org/1999/xlink">
    <title>regime-moitie</title>
    <g id="Page-1" stroke="none" stroke-width="1" fill="none" fill-rule="evenodd">
        <g id="regime-moitie" transform="translate(0.448356, 0.380298)" fill-rule="nonzero">
            <g id="noun_Cow_1050214" fill="#015A5A">
                <path d="M66.8712871,0 L65.7277228,0 L62.0792079,0 L28.970297,0 C27.2821782,0 25.5940594,0.599009901 24.2871287,1.74257426 L13.7772277,10.6188119 L7.24257426,12.5792079 L1.96039604,12.5792079 C0.871287129,12.5792079 0,13.450495 0,14.539604 C0,15.6287129 0.871287129,16.5 1.96039604,16.5 L4.79207921,16.5 L4.57425743,30.3316832 C4.46534653,31.4752475 5.22772277,32.5643564 6.31683168,32.8910891 L9.2029703,33.7623762 C9.85643564,33.980198 10.6188119,33.8712871 11.2178218,33.490099 L12.6336634,32.6188119 C14.8118812,31.2574257 16.7178218,29.460396 18.1881188,27.3910891 L23.960396,27.3910891 L26.2475248,30.1138614 L26.2475248,42.039604 C26.2475248,43.1287129 27.1188119,44 28.2079208,44 C29.2970297,44 30.1683168,43.1287129 30.1683168,42.039604 L30.1683168,29.8960396 L32.8366337,28.3168317 L34.6336634,42.2029703 C34.7425743,43.1831683 35.6138614,43.8910891 36.539604,43.8910891 C36.6485149,43.8910891 36.7029703,43.8910891 36.8118812,43.8910891 C37.8465347,43.7277228 38.6089109,42.8019802 38.5,41.7128713 L36.5940594,27.1188119 L54.1831683,27.1188119 L57.9950495,29.1881188 L54.019802,41.3861386 C53.6930693,42.4207921 54.2376238,43.509901 55.2722772,43.8366337 C55.490099,43.8910891 55.6534653,43.9455446 55.8712871,43.9455446 C56.6881188,43.9455446 57.450495,43.4009901 57.7227723,42.5841584 L61.480198,31.039604 L66.6534653,33.8168317 L66.6534653,41.9851485 C66.6534653,43.0742574 67.5247525,43.9455446 68.6138614,43.9455446 C69.7029703,43.9455446 70.5742574,43.0742574 70.5742574,41.9851485 L70.5742574,29.5693069 C70.5742574,29.1336634 70.519802,28.6980198 70.3564356,28.3168317 L67.8514851,20.7475248 L69.4306931,15.1386139 C69.7029703,14.2673267 69.8118812,13.3415842 69.8118812,12.470297 L69.8118812,4.62871287 C71.3910891,5.60891089 72.480198,7.35148515 72.480198,9.31188119 L72.480198,22.3811881 C72.480198,23.470297 73.3514851,24.3415842 74.4405941,24.3415842 C75.529703,24.3415842 76.4009901,23.470297 76.4009901,22.3811881 L76.4009901,9.31188119 C76.2376238,4.19306931 72.0445545,0 66.8712871,0 Z M61.2623762,26.5742574 C61.2623762,26.5742574 61.2623762,26.5742574 61.2623762,26.5742574 L55.5445545,23.470297 C55.2722772,23.3069307 54.9455446,23.2524752 54.6188119,23.2524752 L34.3069307,23.2524752 C34.3069307,23.2524752 34.2524752,23.2524752 34.2524752,23.2524752 C34.1980198,23.2524752 34.1435644,23.2524752 34.0891089,23.2524752 C34.0346535,23.2524752 33.980198,23.2524752 33.9257426,23.3069307 C33.8712871,23.3069307 33.8168317,23.3069307 33.8168317,23.3613861 C33.6534653,23.4158416 33.5445545,23.470297 33.3811881,23.5247525 L28.3168317,26.4653465 L26.4108911,24.1237624 C26.029703,23.6881188 25.4851485,23.4158416 24.9405941,23.4158416 L17.0990099,23.4158416 C16.4455446,23.4158416 15.7920792,23.7425743 15.4653465,24.3415842 C14.2128713,26.3019802 12.5247525,27.990099 10.5643564,29.2425743 L9.69306931,29.7871287 L8.44059406,29.4059406 L8.65841584,16.2277228 L15.3019802,14.2128713 C15.5742574,14.1584158 15.7920792,13.9950495 16.009901,13.8316832 L26.8465347,4.62871287 C27.4455446,4.13861386 28.2079208,3.81188119 29.0247525,3.81188119 L62.1336634,3.81188119 L65.7821782,3.81188119 C65.8366337,3.81188119 65.8910891,3.86633663 65.8910891,3.97524752 L65.8910891,12.470297 C65.8910891,13.0148515 65.8366337,13.5594059 65.6732673,14.1039604 L63.9306931,20.2574257 C63.8217822,20.6386139 63.8217822,21.019802 63.9306931,21.4009901 L66.5990099,29.4059406 L61.2623762,26.5742574 Z" id="Shape"></path>
            </g>
            <g id="Group-3" transform="translate(32.551644, 38.619702)">
                <g id="Rectangle" fill="#015A5A">
                    <rect x="0" y="0" width="65" height="27" rx="8"></rect>
                </g>
                <g id="-50%" transform="translate(9.566000, 7.940000)" fill="#FFFFFF">
                    <polygon id="Path" points="6.138 6.426 6.138 8.208 0 8.208 0 6.426"></polygon>
                    <path d="M12.87,12.24 C11.814,12.24 10.947,12.012 10.269,11.556 C9.591,11.1 9.054,10.44 8.658,9.576 L10.458,8.64 C10.638,9.216 10.911,9.687 11.277,10.053 C11.643,10.419 12.186,10.602 12.906,10.602 C13.41,10.602 13.839,10.509 14.193,10.323 C14.547,10.137 14.82,9.873 15.012,9.531 C15.204,9.189 15.3,8.778 15.3,8.298 C15.3,7.794 15.21,7.374 15.03,7.038 C14.85,6.702 14.592,6.447 14.256,6.273 C13.92,6.099 13.5,6.012 12.996,6.012 C12.648,6.012 12.324,6.048 12.024,6.12 C11.724,6.192 11.454,6.303 11.214,6.453 C10.974,6.603 10.764,6.798 10.584,7.038 L9,6.732 L9.72,0.18 L16.632,0.18 L16.632,1.836 L11.25,1.836 L10.818,5.184 L10.782,5.382 L10.818,5.382 C11.094,5.082 11.451,4.848 11.889,4.68 C12.327,4.512 12.846,4.428 13.446,4.428 C14.214,4.428 14.874,4.587 15.426,4.905 C15.978,5.223 16.41,5.664 16.722,6.228 C17.034,6.792 17.19,7.446 17.19,8.19 C17.19,8.838 17.082,9.414 16.866,9.918 C16.65,10.422 16.344,10.848 15.948,11.196 C15.552,11.544 15.093,11.805 14.571,11.979 C14.049,12.153 13.482,12.24 12.87,12.24 Z" id="Path"></path>
                    <path d="M23.832,12.24 C22.404,12.24 21.285,11.721 20.475,10.683 C19.665,9.645 19.26,8.124 19.26,6.12 C19.26,4.116 19.665,2.595 20.475,1.557 C21.285,0.519 22.404,0 23.832,0 C25.272,0 26.397,0.519 27.207,1.557 C28.017,2.595 28.422,4.116 28.422,6.12 C28.422,8.124 28.017,9.645 27.207,10.683 C26.397,11.721 25.272,12.24 23.832,12.24 Z M23.832,10.602 C24.408,10.602 24.891,10.437 25.281,10.107 C25.671,9.777 25.965,9.279 26.163,8.613 C26.361,7.947 26.46,7.116 26.46,6.12 C26.46,5.124 26.361,4.293 26.163,3.627 C25.965,2.961 25.671,2.463 25.281,2.133 C24.891,1.803 24.408,1.638 23.832,1.638 C23.256,1.638 22.773,1.803 22.383,2.133 C21.993,2.463 21.702,2.961 21.51,3.627 C21.318,4.293 21.222,5.124 21.222,6.12 C21.222,7.116 21.318,7.947 21.51,8.613 C21.702,9.279 21.993,9.777 22.383,10.107 C22.773,10.437 23.256,10.602 23.832,10.602 Z" id="Shape"></path>
                    <path d="M32.688,12.06 L40.464,0.18 L42.12,0.18 L34.362,12.06 L32.688,12.06 Z M33.156,0 C33.768,0 34.299,0.138 34.749,0.414 C35.199,0.69 35.547,1.074 35.793,1.566 C36.039,2.058 36.162,2.64 36.162,3.312 C36.162,3.972 36.039,4.551 35.793,5.049 C35.547,5.547 35.199,5.934 34.749,6.21 C34.299,6.486 33.768,6.624 33.156,6.624 C32.556,6.624 32.028,6.486 31.572,6.21 C31.116,5.934 30.765,5.547 30.519,5.049 C30.273,4.551 30.15,3.972 30.15,3.312 C30.15,2.64 30.273,2.058 30.519,1.566 C30.765,1.074 31.116,0.69 31.572,0.414 C32.028,0.138 32.556,0 33.156,0 Z M33.156,1.404 C32.856,1.404 32.598,1.479 32.382,1.629 C32.166,1.779 32.004,1.995 31.896,2.277 C31.788,2.559 31.734,2.904 31.734,3.312 C31.734,3.708 31.788,4.05 31.896,4.338 C32.004,4.626 32.166,4.842 32.382,4.986 C32.598,5.13 32.856,5.202 33.156,5.202 C33.468,5.202 33.732,5.13 33.948,4.986 C34.164,4.842 34.326,4.626 34.434,4.338 C34.542,4.05 34.596,3.708 34.596,3.312 C34.596,2.904 34.542,2.559 34.434,2.277 C34.326,1.995 34.164,1.779 33.948,1.629 C33.732,1.479 33.468,1.404 33.156,1.404 Z M41.652,5.616 C42.264,5.616 42.795,5.754 43.245,6.03 C43.695,6.306 44.043,6.693 44.289,7.191 C44.535,7.689 44.658,8.268 44.658,8.928 C44.658,9.6 44.535,10.182 44.289,10.674 C44.043,11.166 43.695,11.55 43.245,11.826 C42.795,12.102 42.264,12.24 41.652,12.24 C41.052,12.24 40.524,12.102 40.068,11.826 C39.612,11.55 39.261,11.166 39.015,10.674 C38.769,10.182 38.646,9.6 38.646,8.928 C38.646,8.268 38.769,7.689 39.015,7.191 C39.261,6.693 39.612,6.306 40.068,6.03 C40.524,5.754 41.052,5.616 41.652,5.616 Z M41.652,7.038 C41.352,7.038 41.094,7.11 40.878,7.254 C40.662,7.398 40.5,7.611 40.392,7.893 C40.284,8.175 40.23,8.52 40.23,8.928 C40.23,9.324 40.284,9.666 40.392,9.954 C40.5,10.242 40.662,10.461 40.878,10.611 C41.094,10.761 41.352,10.836 41.652,10.836 C41.964,10.836 42.228,10.761 42.444,10.611 C42.66,10.461 42.822,10.242 42.93,9.954 C43.038,9.666 43.092,9.324 43.092,8.928 C43.092,8.532 43.038,8.19 42.93,7.902 C42.822,7.614 42.66,7.398 42.444,7.254 C42.228,7.11 41.964,7.038 41.652,7.038 Z" id="Shape"></path>
                </g>
            </g>
        </g>
    </g>
</svg>