<?xml version="1.0" encoding="UTF-8"?>
<svg width="98px" height="66px" viewBox="0 0 98 66" version="1.1" xmlns="http://www.w3.org/2000/svg" xmlns:xlink="http://www.w3.org/1999/xlink">
    <title>regime-quart</title>
    <g id="Page-1" stroke="none" stroke-width="1" fill="none" fill-rule="evenodd">
        <g id="regime-quart" transform="translate(0.448356, 0.380298)" fill-rule="nonzero">
            <g id="noun_Cow_1050214" fill="#015A5A">
                <path d="M66.8712871,0 L65.7277228,0 L62.0792079,0 L28.970297,0 C27.2821782,0 25.5940594,0.599009901 24.2871287,1.74257426 L13.7772277,10.6188119 L7.24257426,12.5792079 L1.96039604,12.5792079 C0.871287129,12.5792079 0,13.450495 0,14.539604 C0,15.6287129 0.871287129,16.5 1.96039604,16.5 L4.79207921,16.5 L4.57425743,30.3316832 C4.46534653,31.4752475 5.22772277,32.5643564 6.31683168,32.8910891 L9.2029703,33.7623762 C9.85643564,33.980198 10.6188119,33.8712871 11.2178218,33.490099 L12.6336634,32.6188119 C14.8118812,31.2574257 16.7178218,29.460396 18.1881188,27.3910891 L23.960396,27.3910891 L26.2475248,30.1138614 L26.2475248,42.039604 C26.2475248,43.1287129 27.1188119,44 28.2079208,44 C29.2970297,44 30.1683168,43.1287129 30.1683168,42.039604 L30.1683168,29.8960396 L32.8366337,28.3168317 L34.6336634,42.2029703 C34.7425743,43.1831683 35.6138614,43.8910891 36.539604,43.8910891 C36.6485149,43.8910891 36.7029703,43.8910891 36.8118812,43.8910891 C37.8465347,43.7277228 38.6089109,42.8019802 38.5,41.7128713 L36.5940594,27.1188119 L54.1831683,27.1188119 L57.9950495,29.1881188 L54.019802,41.3861386 C53.6930693,42.4207921 54.2376238,43.509901 55.2722772,43.8366337 C55.490099,43.8910891 55.6534653,43.9455446 55.8712871,43.9455446 C56.6881188,43.9455446 57.450495,43.4009901 57.7227723,42.5841584 L61.480198,31.039604 L66.6534653,33.8168317 L66.6534653,41.9851485 C66.6534653,43.0742574 67.5247525,43.9455446 68.6138614,43.9455446 C69.7029703,43.9455446 70.5742574,43.0742574 70.5742574,41.9851485 L70.5742574,29.5693069 C70.5742574,29.1336634 70.519802,28.6980198 70.3564356,28.3168317 L67.8514851,20.7475248 L69.4306931,15.1386139 C69.7029703,14.2673267 69.8118812,13.3415842 69.8118812,12.470297 L69.8118812,4.62871287 C71.3910891,5.60891089 72.480198,7.35148515 72.480198,9.31188119 L72.480198,22.3811881 C72.480198,23.470297 73.3514851,24.3415842 74.4405941,24.3415842 C75.529703,24.3415842 76.4009901,23.470297 76.4009901,22.3811881 L76.4009901,9.31188119 C76.2376238,4.19306931 72.0445545,0 66.8712871,0 Z M61.2623762,26.5742574 C61.2623762,26.5742574 61.2623762,26.5742574 61.2623762,26.5742574 L55.5445545,23.470297 C55.2722772,23.3069307 54.9455446,23.2524752 54.6188119,23.2524752 L34.3069307,23.2524752 C34.3069307,23.2524752 34.2524752,23.2524752 34.2524752,23.2524752 C34.1980198,23.2524752 34.1435644,23.2524752 34.0891089,23.2524752 C34.0346535,23.2524752 33.980198,23.2524752 33.9257426,23.3069307 C33.8712871,23.3069307 33.8168317,23.3069307 33.8168317,23.3613861 C33.6534653,23.4158416 33.5445545,23.470297 33.3811881,23.5247525 L28.3168317,26.4653465 L26.4108911,24.1237624 C26.029703,23.6881188 25.4851485,23.4158416 24.9405941,23.4158416 L17.0990099,23.4158416 C16.4455446,23.4158416 15.7920792,23.7425743 15.4653465,24.3415842 C14.2128713,26.3019802 12.5247525,27.990099 10.5643564,29.2425743 L9.69306931,29.7871287 L8.44059406,29.4059406 L8.65841584,16.2277228 L15.3019802,14.2128713 C15.5742574,14.1584158 15.7920792,13.9950495 16.009901,13.8316832 L26.8465347,4.62871287 C27.4455446,4.13861386 28.2079208,3.81188119 29.0247525,3.81188119 L62.1336634,3.81188119 L65.7821782,3.81188119 C65.8366337,3.81188119 65.8910891,3.86633663 65.8910891,3.97524752 L65.8910891,12.470297 C65.8910891,13.0148515 65.8366337,13.5594059 65.6732673,14.1039604 L63.9306931,20.2574257 C63.8217822,20.6386139 63.8217822,21.019802 63.9306931,21.4009901 L66.5990099,29.4059406 L61.2623762,26.5742574 Z" id="Shape"></path>
            </g>
            <g id="Group-3" transform="translate(32.551644, 38.619702)">
                <g id="Rectangle" fill="#015A5A">
                    <rect x="0" y="0" width="65" height="27" rx="8"></rect>
                </g>
                <g id="-25%" transform="translate(10.566000, 6.940000)" fill="#FFFFFF">
                    <polygon id="Path" points="6.138 6.426 6.138 8.208 0 8.208 0 6.426"></polygon>
                    <path d="M8.208,12.06 L8.208,10.656 C9.348,9.84 10.305,9.12 11.079,8.496 C11.853,7.872 12.474,7.296 12.942,6.768 C13.41,6.24 13.749,5.739 13.959,5.265 C14.169,4.791 14.274,4.308 14.274,3.816 C14.274,3.18 14.076,2.664 13.68,2.268 C13.284,1.872 12.732,1.674 12.024,1.674 C11.28,1.674 10.689,1.923 10.251,2.421 C9.813,2.919 9.564,3.6 9.504,4.464 L7.83,3.69 C7.914,2.934 8.136,2.28 8.496,1.728 C8.856,1.176 9.345,0.75 9.963,0.45 C10.581,0.15 11.298,0 12.114,0 C12.786,0 13.377,0.096 13.887,0.288 C14.397,0.48 14.826,0.747 15.174,1.089 C15.522,1.431 15.789,1.83 15.975,2.286 C16.161,2.742 16.254,3.228 16.254,3.744 C16.254,4.5 16.068,5.229 15.696,5.931 C15.324,6.633 14.736,7.35 13.932,8.082 C13.128,8.814 12.072,9.6 10.764,10.44 L10.764,10.476 C10.908,10.452 11.106,10.437 11.358,10.431 C11.61,10.425 11.862,10.419 12.114,10.413 C12.366,10.407 12.57,10.404 12.726,10.404 L16.47,10.404 L16.47,12.06 L8.208,12.06 Z" id="Path"></path>
                    <path d="M22.68,12.24 C21.624,12.24 20.757,12.012 20.079,11.556 C19.401,11.1 18.864,10.44 18.468,9.576 L20.268,8.64 C20.448,9.216 20.721,9.687 21.087,10.053 C21.453,10.419 21.996,10.602 22.716,10.602 C23.22,10.602 23.649,10.509 24.003,10.323 C24.357,10.137 24.63,9.873 24.822,9.531 C25.014,9.189 25.11,8.778 25.11,8.298 C25.11,7.794 25.02,7.374 24.84,7.038 C24.66,6.702 24.402,6.447 24.066,6.273 C23.73,6.099 23.31,6.012 22.806,6.012 C22.458,6.012 22.134,6.048 21.834,6.12 C21.534,6.192 21.264,6.303 21.024,6.453 C20.784,6.603 20.574,6.798 20.394,7.038 L18.81,6.732 L19.53,0.18 L26.442,0.18 L26.442,1.836 L21.06,1.836 L20.628,5.184 L20.592,5.382 L20.628,5.382 C20.904,5.082 21.261,4.848 21.699,4.68 C22.137,4.512 22.656,4.428 23.256,4.428 C24.024,4.428 24.684,4.587 25.236,4.905 C25.788,5.223 26.22,5.664 26.532,6.228 C26.844,6.792 27,7.446 27,8.19 C27,8.838 26.892,9.414 26.676,9.918 C26.46,10.422 26.154,10.848 25.758,11.196 C25.362,11.544 24.903,11.805 24.381,11.979 C23.859,12.153 23.292,12.24 22.68,12.24 Z" id="Path"></path>
                    <path d="M31.194,12.06 L38.97,0.18 L40.626,0.18 L32.868,12.06 L31.194,12.06 Z M31.662,0 C32.274,0 32.805,0.138 33.255,0.414 C33.705,0.69 34.053,1.074 34.299,1.566 C34.545,2.058 34.668,2.64 34.668,3.312 C34.668,3.972 34.545,4.551 34.299,5.049 C34.053,5.547 33.705,5.934 33.255,6.21 C32.805,6.486 32.274,6.624 31.662,6.624 C31.062,6.624 30.534,6.486 30.078,6.21 C29.622,5.934 29.271,5.547 29.025,5.049 C28.779,4.551 28.656,3.972 28.656,3.312 C28.656,2.64 28.779,2.058 29.025,1.566 C29.271,1.074 29.622,0.69 30.078,0.414 C30.534,0.138 31.062,0 31.662,0 Z M31.662,1.404 C31.362,1.404 31.104,1.479 30.888,1.629 C30.672,1.779 30.51,1.995 30.402,2.277 C30.294,2.559 30.24,2.904 30.24,3.312 C30.24,3.708 30.294,4.05 30.402,4.338 C30.51,4.626 30.672,4.842 30.888,4.986 C31.104,5.13 31.362,5.202 31.662,5.202 C31.974,5.202 32.238,5.13 32.454,4.986 C32.67,4.842 32.832,4.626 32.94,4.338 C33.048,4.05 33.102,3.708 33.102,3.312 C33.102,2.904 33.048,2.559 32.94,2.277 C32.832,1.995 32.67,1.779 32.454,1.629 C32.238,1.479 31.974,1.404 31.662,1.404 Z M40.158,5.616 C40.77,5.616 41.301,5.754 41.751,6.03 C42.201,6.306 42.549,6.693 42.795,7.191 C43.041,7.689 43.164,8.268 43.164,8.928 C43.164,9.6 43.041,10.182 42.795,10.674 C42.549,11.166 42.201,11.55 41.751,11.826 C41.301,12.102 40.77,12.24 40.158,12.24 C39.558,12.24 39.03,12.102 38.574,11.826 C38.118,11.55 37.767,11.166 37.521,10.674 C37.275,10.182 37.152,9.6 37.152,8.928 C37.152,8.268 37.275,7.689 37.521,7.191 C37.767,6.693 38.118,6.306 38.574,6.03 C39.03,5.754 39.558,5.616 40.158,5.616 Z M40.158,7.038 C39.858,7.038 39.6,7.11 39.384,7.254 C39.168,7.398 39.006,7.611 38.898,7.893 C38.79,8.175 38.736,8.52 38.736,8.928 C38.736,9.324 38.79,9.666 38.898,9.954 C39.006,10.242 39.168,10.461 39.384,10.611 C39.6,10.761 39.858,10.836 40.158,10.836 C40.47,10.836 40.734,10.761 40.95,10.611 C41.166,10.461 41.328,10.242 41.436,9.954 C41.544,9.666 41.598,9.324 41.598,8.928 C41.598,8.532 41.544,8.19 41.436,7.902 C41.328,7.614 41.166,7.398 40.95,7.254 C40.734,7.11 40.47,7.038 40.158,7.038 Z" id="Shape"></path>
                </g>
            </g>
        </g>
    </g>
</svg>