<?xml version="1.0" encoding="UTF-8"?>
<svg width="89px" height="66px" viewBox="0 0 89 66" version="1.1" xmlns="http://www.w3.org/2000/svg" xmlns:xlink="http://www.w3.org/1999/xlink">
    <title>Group 14</title>
    <defs>
        <path d="M50.1951747,0.043 C48.5941747,0.105 47.0051747,0.375 45.4731747,0.844 L45.4731747,0.844 C41.2721747,2.128 37.6481747,4.88 35.2671747,8.594 L35.2671747,8.594 C32.1131747,13.516 31.4491747,19.661 33.4311747,25.172 L33.4311747,25.172 C33.2241747,25.708 33.0341747,26.242 32.8551747,26.774 L32.8551747,26.774 C31.2911747,21.716 28.1811747,17.194 23.8621747,13.951 L23.8621747,13.951 C17.3461747,9.057 8.7761747,7.617 1.0261747,10.148 L1.0261747,10.148 L0.0311747015,10.471 L0.00717470152,11.525 C-0.187825298,19.736 3.6021747,27.571 10.1431747,32.482 L10.1431747,32.482 C15.8361747,36.757 23.0951747,38.387 30.0051747,37.048 L30.0051747,37.048 C30.4851747,38.221 30.7621747,39.51 30.8221747,41.003 L30.8221747,41.003 C30.8641747,42.007 30.9441747,42.991 31.0521747,43.957 L31.0521747,43.957 C31.0651747,44.073 31.0791747,44.185 31.0921747,44.298 L31.0921747,44.298 C31.1121747,44.475 31.1331747,44.652 31.1561747,44.829 L31.1561747,44.829 C31.2281747,45.382 31.3091747,45.922 31.3971747,46.451 L31.3971747,46.451 C29.9131747,45.27 28.1501747,44.449 26.2421747,44.105 L26.2421747,44.105 C24.4441747,43.781 22.5781747,43.89 20.8451747,44.42 L20.8451747,44.42 C19.0561747,44.967 17.4051747,45.957 16.0741747,47.284 L16.0741747,47.284 L15.3321747,48.024 L15.7781747,48.977 C17.3841747,52.405 20.5511747,54.849 24.2491747,55.518 L24.2491747,55.518 C26.0471747,55.843 27.9141747,55.734 29.6481747,55.204 L29.6481747,55.204 L29.6491747,55.204 C30.8971747,54.821 32.0751747,54.22 33.1271747,53.442 L33.1271747,53.442 C35.3201747,60.134 38.2741747,64.408 38.4301747,64.63 L38.4301747,64.63 C38.5291747,64.772 38.6491747,64.889 38.7801747,64.984 L38.7801747,64.984 C38.7821747,64.985 38.7841747,64.989 38.7861747,64.989 L38.7861747,64.989 L38.7861747,64.989 C39.1591747,65.255 39.6371747,65.336 40.0761747,65.202 L40.0761747,65.202 C40.2221747,65.158 40.3631747,65.089 40.4951747,64.997 L40.4951747,64.997 C41.1631747,64.526 41.3241747,63.595 40.8531747,62.921 L40.8531747,62.921 C40.8471747,62.913 40.7731747,62.805 40.6421747,62.603 L40.6421747,62.603 C40.6421747,62.602 40.6401747,62.6 40.6391747,62.597 L40.6391747,62.597 C40.5561747,62.469 40.4501747,62.3 40.3261747,62.099 L40.3261747,62.099 C40.2991747,62.056 40.2741747,62.014 40.2461747,61.968 L40.2461747,61.968 C40.2191747,61.925 40.1921747,61.879 40.1641747,61.835 L40.1641747,61.835 C40.1291747,61.775 40.0931747,61.713 40.0531747,61.648 L40.0531747,61.648 C40.0291747,61.606 40.0041747,61.564 39.9791747,61.52 L39.9791747,61.52 C39.9311747,61.437 39.8801747,61.351 39.8291747,61.261 L39.8291747,61.261 C39.8101747,61.229 39.7931747,61.199 39.7731747,61.164 L39.7731747,61.164 C38.2931747,58.576 35.6771747,53.308 34.4381747,46.633 L34.4381747,46.633 C34.4221747,46.54 34.4051747,46.45 34.3881747,46.357 L34.3881747,46.357 C34.3401747,46.084 34.2921747,45.81 34.2491747,45.531 L34.2491747,45.531 C34.2361747,45.45 34.2241747,45.369 34.2111747,45.287 L34.2111747,45.287 C34.1641747,44.981 34.1201747,44.673 34.0801747,44.361 L34.0801747,44.361 C34.0761747,44.331 34.0721747,44.301 34.0681747,44.271 L34.0681747,44.271 C33.9281747,43.174 33.8311747,42.047 33.7831747,40.893 L33.7831747,40.893 C33.7801747,40.791 33.7711747,40.692 33.7651747,40.592 L33.7651747,40.592 C33.7101747,39.038 33.7481747,37.505 33.8821747,35.993 L33.8821747,35.993 L33.9731747,35.963 L33.9971747,34.91 C33.9981747,34.898 33.9971747,34.886 33.9971747,34.874 L33.9971747,34.874 C34.3321747,32.074 34.9981747,29.348 35.9871747,26.696 L35.9871747,26.696 C37.2861747,26.583 38.5751747,26.34 39.8231747,25.958 L39.8231747,25.958 L39.8241747,25.958 C44.0251747,24.674 47.6521747,21.92 50.0321747,18.207 L50.0321747,18.207 C53.3131747,13.093 53.9101747,6.652 51.6331747,0.979 L51.6331747,0.979 L51.2411747,0 L50.1951747,0.043 Z M37.7611747,10.216 C39.7631747,7.092 42.8121747,4.777 46.3451747,3.697 L46.3451747,3.697 C47.2931747,3.406 48.2671747,3.206 49.2531747,3.101 L49.2531747,3.101 C50.7201747,7.617 50.1061747,12.583 47.5411747,16.584 L47.5411747,16.584 C45.5381747,19.708 42.4881747,22.023 38.9541747,23.104 L38.9541747,23.104 C38.4281747,23.265 37.8951747,23.394 37.3561747,23.499 L37.3561747,23.499 C39.0061747,20.093 41.2181747,16.823 43.9931747,13.699 L43.9931747,13.699 C44.5381747,13.086 44.4831747,12.144 43.8721747,11.594 L43.8721747,11.594 C43.2601747,11.043 42.3231747,11.095 41.7781747,11.707 L41.7781747,11.707 C39.0851747,14.74 37.0041747,17.801 35.4071747,20.831 L35.4071747,20.831 C34.9281747,17.156 35.7311747,13.384 37.7611747,10.216 L37.7611747,10.216 Z M11.9121747,30.096 C6.4271747,25.978 3.1361747,19.529 2.9711747,12.68 L2.9711747,12.68 C9.5311747,10.888 16.6321747,12.236 22.0951747,16.339 L22.0951747,16.339 C27.3311747,20.27 30.5611747,26.327 30.9861747,32.829 L30.9861747,32.829 C28.8241747,29.962 25.5151747,27.607 21.4251747,24.695 L21.4251747,24.695 C19.7451747,23.499 17.8451747,22.146 15.8411747,20.626 L15.8411747,20.626 C15.1871747,20.128 14.2581747,20.258 13.7671747,20.915 L13.7671747,20.915 C13.2741747,21.572 13.4081747,22.506 14.0621747,23.003 L14.0621747,23.003 C16.1011747,24.551 18.0221747,25.92 19.7171747,27.126 L19.7171747,27.126 C23.5921747,29.885 26.4991747,31.959 28.3681747,34.302 L28.3681747,34.302 C27.3251747,34.452 26.2751747,34.526 25.2281747,34.526 L25.2281747,34.526 C20.4831747,34.526 15.7851747,33.005 11.9121747,30.096 L11.9121747,30.096 Z M24.7631747,52.582 C22.3731747,52.151 20.2831747,50.723 18.9921747,48.683 L18.9921747,48.683 C19.8091747,48.055 20.7351747,47.574 21.7201747,47.274 L21.7201747,47.274 C23.0251747,46.875 24.3751747,46.796 25.7321747,47.041 L25.7321747,47.041 C28.1211747,47.472 30.2121747,48.901 31.5051747,50.941 L31.5051747,50.941 C30.6871747,51.569 29.7601747,52.049 28.7781747,52.35 L28.7781747,52.35 C27.9681747,52.597 27.1401747,52.722 26.3041747,52.722 L26.3041747,52.722 C25.7931747,52.722 25.2781747,52.675 24.7631747,52.582 L24.7631747,52.582 Z" id="path-1"></path>
        <path d="M50.1951747,0.043 C48.5941747,0.105 47.0051747,0.375 45.4731747,0.844 L45.4731747,0.844 C41.2721747,2.128 37.6481747,4.88 35.2671747,8.594 L35.2671747,8.594 C32.1131747,13.516 31.4491747,19.661 33.4311747,25.172 L33.4311747,25.172 C33.2241747,25.708 33.0341747,26.242 32.8551747,26.774 L32.8551747,26.774 C31.2911747,21.716 28.1811747,17.194 23.8621747,13.951 L23.8621747,13.951 C17.3461747,9.057 8.7761747,7.617 1.0261747,10.148 L1.0261747,10.148 L0.0311747015,10.471 L0.00717470152,11.525 C-0.187825298,19.736 3.6021747,27.571 10.1431747,32.482 L10.1431747,32.482 C15.8361747,36.757 23.0951747,38.387 30.0051747,37.048 L30.0051747,37.048 C30.4851747,38.221 30.7621747,39.51 30.8221747,41.003 L30.8221747,41.003 C30.8641747,42.007 30.9441747,42.991 31.0521747,43.957 L31.0521747,43.957 C31.0651747,44.073 31.0791747,44.185 31.0921747,44.298 L31.0921747,44.298 C31.1121747,44.475 31.1331747,44.652 31.1561747,44.829 L31.1561747,44.829 C31.2281747,45.382 31.3091747,45.922 31.3971747,46.451 L31.3971747,46.451 C29.9131747,45.27 28.1501747,44.449 26.2421747,44.105 L26.2421747,44.105 C24.4441747,43.781 22.5781747,43.89 20.8451747,44.42 L20.8451747,44.42 C19.0561747,44.967 17.4051747,45.957 16.0741747,47.284 L16.0741747,47.284 L15.3321747,48.024 L15.7781747,48.977 C17.3841747,52.405 20.5511747,54.849 24.2491747,55.518 L24.2491747,55.518 C26.0471747,55.843 27.9141747,55.734 29.6481747,55.204 L29.6481747,55.204 L29.6491747,55.204 C30.8971747,54.821 32.0751747,54.22 33.1271747,53.442 L33.1271747,53.442 C35.3201747,60.134 38.2741747,64.408 38.4301747,64.63 L38.4301747,64.63 C38.5291747,64.772 38.6491747,64.889 38.7801747,64.984 L38.7801747,64.984 C38.7821747,64.985 38.7841747,64.989 38.7861747,64.989 L38.7861747,64.989 L38.7861747,64.989 C39.1591747,65.255 39.6371747,65.336 40.0761747,65.202 L40.0761747,65.202 C40.2221747,65.158 40.3631747,65.089 40.4951747,64.997 L40.4951747,64.997 C41.1631747,64.526 41.3241747,63.595 40.8531747,62.921 L40.8531747,62.921 C40.8471747,62.913 40.7731747,62.805 40.6421747,62.603 L40.6421747,62.603 C40.6421747,62.602 40.6401747,62.6 40.6391747,62.597 L40.6391747,62.597 C40.5561747,62.469 40.4501747,62.3 40.3261747,62.099 L40.3261747,62.099 C40.2991747,62.056 40.2741747,62.014 40.2461747,61.968 L40.2461747,61.968 C40.2191747,61.925 40.1921747,61.879 40.1641747,61.835 L40.1641747,61.835 C40.1291747,61.775 40.0931747,61.713 40.0531747,61.648 L40.0531747,61.648 C40.0291747,61.606 40.0041747,61.564 39.9791747,61.52 L39.9791747,61.52 C39.9311747,61.437 39.8801747,61.351 39.8291747,61.261 L39.8291747,61.261 C39.8101747,61.229 39.7931747,61.199 39.7731747,61.164 L39.7731747,61.164 C38.2931747,58.576 35.6771747,53.308 34.4381747,46.633 L34.4381747,46.633 C34.4221747,46.54 34.4051747,46.45 34.3881747,46.357 L34.3881747,46.357 C34.3401747,46.084 34.2921747,45.81 34.2491747,45.531 L34.2491747,45.531 C34.2361747,45.45 34.2241747,45.369 34.2111747,45.287 L34.2111747,45.287 C34.1641747,44.981 34.1201747,44.673 34.0801747,44.361 L34.0801747,44.361 C34.0761747,44.331 34.0721747,44.301 34.0681747,44.271 L34.0681747,44.271 C33.9281747,43.174 33.8311747,42.047 33.7831747,40.893 L33.7831747,40.893 C33.7801747,40.791 33.7711747,40.692 33.7651747,40.592 L33.7651747,40.592 C33.7101747,39.038 33.7481747,37.505 33.8821747,35.993 L33.8821747,35.993 L33.9731747,35.963 L33.9971747,34.91 C33.9981747,34.898 33.9971747,34.886 33.9971747,34.874 L33.9971747,34.874 C34.3321747,32.074 34.9981747,29.348 35.9871747,26.696 L35.9871747,26.696 C37.2861747,26.583 38.5751747,26.34 39.8231747,25.958 L39.8231747,25.958 L39.8241747,25.958 C44.0251747,24.674 47.6521747,21.92 50.0321747,18.207 L50.0321747,18.207 C53.3131747,13.093 53.9101747,6.652 51.6331747,0.979 L51.6331747,0.979 L51.2411747,0 L50.1951747,0.043 Z M37.7611747,10.216 C39.7631747,7.092 42.8121747,4.777 46.3451747,3.697 L46.3451747,3.697 C47.2931747,3.406 48.2671747,3.206 49.2531747,3.101 L49.2531747,3.101 C50.7201747,7.617 50.1061747,12.583 47.5411747,16.584 L47.5411747,16.584 C45.5381747,19.708 42.4881747,22.023 38.9541747,23.104 L38.9541747,23.104 C38.4281747,23.265 37.8951747,23.394 37.3561747,23.499 L37.3561747,23.499 C39.0061747,20.093 41.2181747,16.823 43.9931747,13.699 L43.9931747,13.699 C44.5381747,13.086 44.4831747,12.144 43.8721747,11.594 L43.8721747,11.594 C43.2601747,11.043 42.3231747,11.095 41.7781747,11.707 L41.7781747,11.707 C39.0851747,14.74 37.0041747,17.801 35.4071747,20.831 L35.4071747,20.831 C34.9281747,17.156 35.7311747,13.384 37.7611747,10.216 L37.7611747,10.216 Z M11.9121747,30.096 C6.4271747,25.978 3.1361747,19.529 2.9711747,12.68 L2.9711747,12.68 C9.5311747,10.888 16.6321747,12.236 22.0951747,16.339 L22.0951747,16.339 C27.3311747,20.27 30.5611747,26.327 30.9861747,32.829 L30.9861747,32.829 C28.8241747,29.962 25.5151747,27.607 21.4251747,24.695 L21.4251747,24.695 C19.7451747,23.499 17.8451747,22.146 15.8411747,20.626 L15.8411747,20.626 C15.1871747,20.128 14.2581747,20.258 13.7671747,20.915 L13.7671747,20.915 C13.2741747,21.572 13.4081747,22.506 14.0621747,23.003 L14.0621747,23.003 C16.1011747,24.551 18.0221747,25.92 19.7171747,27.126 L19.7171747,27.126 C23.5921747,29.885 26.4991747,31.959 28.3681747,34.302 L28.3681747,34.302 C27.3251747,34.452 26.2751747,34.526 25.2281747,34.526 L25.2281747,34.526 C20.4831747,34.526 15.7851747,33.005 11.9121747,30.096 L11.9121747,30.096 Z M24.7631747,52.582 C22.3731747,52.151 20.2831747,50.723 18.9921747,48.683 L18.9921747,48.683 C19.8091747,48.055 20.7351747,47.574 21.7201747,47.274 L21.7201747,47.274 C23.0251747,46.875 24.3751747,46.796 25.7321747,47.041 L25.7321747,47.041 C28.1211747,47.472 30.2121747,48.901 31.5051747,50.941 L31.5051747,50.941 C30.6871747,51.569 29.7601747,52.049 28.7781747,52.35 L28.7781747,52.35 C27.9681747,52.597 27.1401747,52.722 26.3041747,52.722 L26.3041747,52.722 C25.7931747,52.722 25.2781747,52.675 24.7631747,52.582 L24.7631747,52.582 Z" id="path-3"></path>
        <path d="M23.8006618,1.465 L23.5746618,1.466 L23.5746618,1.69 L18.1026618,7.241 C16.1406618,9.229 16.2156618,14.023 18.2726618,18.153 L18.2726618,18.153 L22.4286618,26.502 L14.5376618,18.497 C12.4986618,16.43 9.2036618,16.392 7.1216618,18.382 L7.1216618,18.382 L6.8966618,18.383 L6.8966618,18.607 L1.4226618,24.159 C-0.538338204,26.148 -0.463338204,30.941 1.5936618,35.071 L1.5936618,35.071 L5.7496618,43.419 C5.7496618,43.419 8.3326618,47.287 8.3326618,54.872 L8.3326618,54.872 L14.6356618,48.751 C16.5966618,46.763 16.5226618,41.97 14.4656618,37.839 L14.4656618,37.839 L10.3126618,29.501 L18.1956618,37.497 C19.2016618,38.519 20.5386618,39.082 21.9626618,39.082 L21.9626618,39.082 C23.3866618,39.082 24.7236618,38.519 25.7306618,37.497 L25.7306618,37.497 L31.3126618,31.834 C33.2746618,29.846 33.1996618,25.053 31.1426618,20.922 L31.1426618,20.922 L26.9856618,12.575 L34.8206618,20.523 C35.4056618,21.117 36.1046618,21.602 36.8936618,21.868 L36.8936618,21.868 C38.8906618,22.544 40.9596618,22.019 42.4066618,20.583 L42.4066618,20.583 C43.7156618,19.281 44.1226618,18.05 44.1316618,16.983 L44.1316618,16.983 L44.1316618,16.915 C44.1256618,16.16 43.9236618,15.49 43.7056618,14.939 L43.7056618,14.939 L40.7116618,11.214 C38.5966618,8.599 31.5086618,1.857 31.2176618,1.579 L31.2176618,1.579 C30.1796618,0.526 28.8156618,0 27.4506618,0 L27.4506618,0 C26.1366618,0 24.8226618,0.488 23.8006618,1.465 L23.8006618,1.465 Z M36.8286618,18.598 L25.0326618,6.632 C24.9346618,5.213 25.1616618,4.042 25.6346618,3.557 L25.6346618,3.557 C26.6366618,2.542 28.2646618,2.542 29.2646618,3.557 L29.2646618,3.557 C33.7196618,8.12 40.4986618,15.176 40.9216618,15.917 L40.9216618,15.917 C41.6176618,17.137 40.9306618,18.12 40.4586618,18.598 L40.4586618,18.598 C39.9746618,19.09 39.3096618,19.335 38.6436618,19.335 L38.6436618,19.335 C37.9786618,19.335 37.3126618,19.09 36.8286618,18.598 L36.8286618,18.598 Z M27.0896618,31.916 C27.0956618,31.81 27.0846618,31.714 27.0736618,31.642 L27.0736618,31.642 C26.8766618,29.928 26.3536618,28.179 25.5586618,26.584 L25.5586618,26.584 L20.7346618,16.893 C19.0196618,13.451 19.1806618,10.106 20.0506618,9.223 L20.0506618,9.223 L22.3006618,6.941 C22.3096618,7.019 22.3176618,7.095 22.3266618,7.17 L22.3266618,7.17 C22.3206618,7.257 22.3286618,7.339 22.3396618,7.425 L22.3396618,7.425 C22.5346618,9.142 23.0566618,10.895 23.8536618,12.495 L23.8536618,12.495 L28.6806618,22.184 C30.3956618,25.626 30.2346618,28.97 29.3636618,29.853 L29.3636618,29.853 L27.1136618,32.136 C27.1066618,32.061 27.0976618,31.987 27.0896618,31.916 L27.0896618,31.916 Z M20.1496618,35.517 L8.3566618,23.553 C8.2566618,22.129 8.4846618,20.958 8.9566618,20.476 L8.9566618,20.476 C9.4396618,19.985 10.0856618,19.715 10.7726618,19.714 L10.7726618,19.714 L10.7736618,19.714 C11.4606618,19.714 12.1046618,19.985 12.5896618,20.476 L12.5896618,20.476 L24.3856618,32.442 C24.4846618,33.863 24.2556618,35.033 23.7816618,35.517 L23.7816618,35.517 C23.3216618,35.983 22.6596618,36.25 21.9646618,36.251 L21.9646618,36.251 L21.9636618,36.251 C21.2696618,36.251 20.6086618,35.984 20.1496618,35.517 L20.1496618,35.517 Z M10.4126618,48.83 C10.4196618,48.727 10.4076618,48.633 10.3976618,48.558 L10.3976618,48.558 C10.2006618,46.844 9.6776618,45.095 8.8826618,43.5 L8.8826618,43.5 L4.0586618,33.809 C2.3436618,30.368 2.5046618,27.023 3.3746618,26.139 L3.3746618,26.139 L5.6246618,23.857 C5.6326618,23.937 5.6416618,24.014 5.6506618,24.089 L5.6506618,24.089 C5.6446618,24.177 5.6536618,24.263 5.6646618,24.345 L5.6646618,24.345 C5.8606618,26.066 6.3846618,27.819 7.1776618,29.41 L7.1776618,29.41 L12.0046618,39.1 C13.7196618,42.541 13.5586618,45.886 12.6886618,46.769 L12.6886618,46.769 L10.4376618,49.053 C10.4296618,48.978 10.4216618,48.903 10.4126618,48.83 L10.4126618,48.83 Z" id="path-5"></path>
        <path d="M50.1951747,0.043 C48.5941747,0.105 47.0051747,0.375 45.4731747,0.844 L45.4731747,0.844 C41.2721747,2.128 37.6481747,4.88 35.2671747,8.594 L35.2671747,8.594 C32.1131747,13.516 31.4491747,19.661 33.4311747,25.172 L33.4311747,25.172 C33.2241747,25.708 33.0341747,26.242 32.8551747,26.774 L32.8551747,26.774 C31.2911747,21.716 28.1811747,17.194 23.8621747,13.951 L23.8621747,13.951 C17.3461747,9.057 8.7761747,7.617 1.0261747,10.148 L1.0261747,10.148 L0.0311747015,10.471 L0.00717470152,11.525 C-0.187825298,19.736 3.6021747,27.571 10.1431747,32.482 L10.1431747,32.482 C15.8361747,36.757 23.0951747,38.387 30.0051747,37.048 L30.0051747,37.048 C30.4851747,38.221 30.7621747,39.51 30.8221747,41.003 L30.8221747,41.003 C30.8641747,42.007 30.9441747,42.991 31.0521747,43.957 L31.0521747,43.957 C31.0651747,44.073 31.0791747,44.185 31.0921747,44.298 L31.0921747,44.298 C31.1121747,44.475 31.1331747,44.652 31.1561747,44.829 L31.1561747,44.829 C31.2281747,45.382 31.3091747,45.922 31.3971747,46.451 L31.3971747,46.451 C29.9131747,45.27 28.1501747,44.449 26.2421747,44.105 L26.2421747,44.105 C24.4441747,43.781 22.5781747,43.89 20.8451747,44.42 L20.8451747,44.42 C19.0561747,44.967 17.4051747,45.957 16.0741747,47.284 L16.0741747,47.284 L15.3321747,48.024 L15.7781747,48.977 C17.3841747,52.405 20.5511747,54.849 24.2491747,55.518 L24.2491747,55.518 C26.0471747,55.843 27.9141747,55.734 29.6481747,55.204 L29.6481747,55.204 L29.6491747,55.204 C30.8971747,54.821 32.0751747,54.22 33.1271747,53.442 L33.1271747,53.442 C35.3201747,60.134 38.2741747,64.408 38.4301747,64.63 L38.4301747,64.63 C38.5291747,64.772 38.6491747,64.889 38.7801747,64.984 L38.7801747,64.984 C38.7821747,64.985 38.7841747,64.989 38.7861747,64.989 L38.7861747,64.989 L38.7861747,64.989 C39.1591747,65.255 39.6371747,65.336 40.0761747,65.202 L40.0761747,65.202 C40.2221747,65.158 40.3631747,65.089 40.4951747,64.997 L40.4951747,64.997 C41.1631747,64.526 41.3241747,63.595 40.8531747,62.921 L40.8531747,62.921 C40.8471747,62.913 40.7731747,62.805 40.6421747,62.603 L40.6421747,62.603 C40.6421747,62.602 40.6401747,62.6 40.6391747,62.597 L40.6391747,62.597 C40.5561747,62.469 40.4501747,62.3 40.3261747,62.099 L40.3261747,62.099 C40.2991747,62.056 40.2741747,62.014 40.2461747,61.968 L40.2461747,61.968 C40.2191747,61.925 40.1921747,61.879 40.1641747,61.835 L40.1641747,61.835 C40.1291747,61.775 40.0931747,61.713 40.0531747,61.648 L40.0531747,61.648 C40.0291747,61.606 40.0041747,61.564 39.9791747,61.52 L39.9791747,61.52 C39.9311747,61.437 39.8801747,61.351 39.8291747,61.261 L39.8291747,61.261 C39.8101747,61.229 39.7931747,61.199 39.7731747,61.164 L39.7731747,61.164 C38.2931747,58.576 35.6771747,53.308 34.4381747,46.633 L34.4381747,46.633 C34.4221747,46.54 34.4051747,46.45 34.3881747,46.357 L34.3881747,46.357 C34.3401747,46.084 34.2921747,45.81 34.2491747,45.531 L34.2491747,45.531 C34.2361747,45.45 34.2241747,45.369 34.2111747,45.287 L34.2111747,45.287 C34.1641747,44.981 34.1201747,44.673 34.0801747,44.361 L34.0801747,44.361 C34.0761747,44.331 34.0721747,44.301 34.0681747,44.271 L34.0681747,44.271 C33.9281747,43.174 33.8311747,42.047 33.7831747,40.893 L33.7831747,40.893 C33.7801747,40.791 33.7711747,40.692 33.7651747,40.592 L33.7651747,40.592 C33.7101747,39.038 33.7481747,37.505 33.8821747,35.993 L33.8821747,35.993 L33.9731747,35.963 L33.9971747,34.91 C33.9981747,34.898 33.9971747,34.886 33.9971747,34.874 L33.9971747,34.874 C34.3321747,32.074 34.9981747,29.348 35.9871747,26.696 L35.9871747,26.696 C37.2861747,26.583 38.5751747,26.34 39.8231747,25.958 L39.8231747,25.958 L39.8241747,25.958 C44.0251747,24.674 47.6521747,21.92 50.0321747,18.207 L50.0321747,18.207 C53.3131747,13.093 53.9101747,6.652 51.6331747,0.979 L51.6331747,0.979 L51.2411747,0 L50.1951747,0.043 Z M37.7611747,10.216 C39.7631747,7.092 42.8121747,4.777 46.3451747,3.697 L46.3451747,3.697 C47.2931747,3.406 48.2671747,3.206 49.2531747,3.101 L49.2531747,3.101 C50.7201747,7.617 50.1061747,12.583 47.5411747,16.584 L47.5411747,16.584 C45.5381747,19.708 42.4881747,22.023 38.9541747,23.104 L38.9541747,23.104 C38.4281747,23.265 37.8951747,23.394 37.3561747,23.499 L37.3561747,23.499 C39.0061747,20.093 41.2181747,16.823 43.9931747,13.699 L43.9931747,13.699 C44.5381747,13.086 44.4831747,12.144 43.8721747,11.594 L43.8721747,11.594 C43.2601747,11.043 42.3231747,11.095 41.7781747,11.707 L41.7781747,11.707 C39.0851747,14.74 37.0041747,17.801 35.4071747,20.831 L35.4071747,20.831 C34.9281747,17.156 35.7311747,13.384 37.7611747,10.216 L37.7611747,10.216 Z M11.9121747,30.096 C6.4271747,25.978 3.1361747,19.529 2.9711747,12.68 L2.9711747,12.68 C9.5311747,10.888 16.6321747,12.236 22.0951747,16.339 L22.0951747,16.339 C27.3311747,20.27 30.5611747,26.327 30.9861747,32.829 L30.9861747,32.829 C28.8241747,29.962 25.5151747,27.607 21.4251747,24.695 L21.4251747,24.695 C19.7451747,23.499 17.8451747,22.146 15.8411747,20.626 L15.8411747,20.626 C15.1871747,20.128 14.2581747,20.258 13.7671747,20.915 L13.7671747,20.915 C13.2741747,21.572 13.4081747,22.506 14.0621747,23.003 L14.0621747,23.003 C16.1011747,24.551 18.0221747,25.92 19.7171747,27.126 L19.7171747,27.126 C23.5921747,29.885 26.4991747,31.959 28.3681747,34.302 L28.3681747,34.302 C27.3251747,34.452 26.2751747,34.526 25.2281747,34.526 L25.2281747,34.526 C20.4831747,34.526 15.7851747,33.005 11.9121747,30.096 L11.9121747,30.096 Z M24.7631747,52.582 C22.3731747,52.151 20.2831747,50.723 18.9921747,48.683 L18.9921747,48.683 C19.8091747,48.055 20.7351747,47.574 21.7201747,47.274 L21.7201747,47.274 C23.0251747,46.875 24.3751747,46.796 25.7321747,47.041 L25.7321747,47.041 C28.1211747,47.472 30.2121747,48.901 31.5051747,50.941 L31.5051747,50.941 C30.6871747,51.569 29.7601747,52.049 28.7781747,52.35 L28.7781747,52.35 C27.9681747,52.597 27.1401747,52.722 26.3041747,52.722 L26.3041747,52.722 C25.7931747,52.722 25.2781747,52.675 24.7631747,52.582 L24.7631747,52.582 Z" id="path-7"></path>
    </defs>
    <g id="Page-1" stroke="none" stroke-width="1" fill="none" fill-rule="evenodd">
        <g id="regime-autrev3-2" transform="translate(-771.000000, -1869.000000)">
            <g id="2chiffres" transform="translate(299.000000, 1831.000000)">
                <g id="Group-14" transform="translate(472.000000, 38.000000)">
                    <g id="Group-7" transform="translate(0.000000, -0.000000)">
                        <g id="Group-3">
                            <mask id="mask-2" fill="white">
                                <use xlink:href="#path-1"></use>
                            </mask>
                            <g id="Clip-2"></g>
                            <polygon id="Fill-1" fill="#015A5A" mask="url(#mask-2)" points="-19.7039253 4.9217 49.2780747 -16.1683 72.6920747 60.4147 3.7100747 81.5047"></polygon>
                        </g>
                        <g id="Group-6">
                            <mask id="mask-4" fill="white">
                                <use xlink:href="#path-3"></use>
                            </mask>
                            <g id="Clip-5"></g>
                            <polygon id="Fill-4" fill="#015A5A" mask="url(#mask-4)" points="-19.7039253 4.9217 49.2780747 -16.1683 72.6920747 60.4147 3.7100747 81.5047"></polygon>
                        </g>
                    </g>
                    <g id="Group-10" transform="translate(44.044513, 8.619000)">
                        <mask id="mask-6" fill="white">
                            <use xlink:href="#path-5"></use>
                        </mask>
                        <g id="Clip-9"></g>
                        <polygon id="Fill-8" fill="#015A5A" mask="url(#mask-6)" points="-13.8683382 57 45.1316618 57 45.1316618 -1 -13.8683382 -1"></polygon>
                    </g>
                    <g id="Group-13" transform="translate(0.000000, -0.000000)">
                        <mask id="mask-8" fill="white">
                            <use xlink:href="#path-7"></use>
                        </mask>
                        <g id="Clip-12"></g>
                        <polygon id="Fill-11" fill="#015A5A" mask="url(#mask-8)" points="-19.7039253 4.9217 49.9500747 -16.3733 73.4270747 60.4147 3.7730747 81.7107"></polygon>
                    </g>
                </g>
            </g>
        </g>
    </g>
</svg>