<?xml version="1.0" encoding="UTF-8"?>
<svg width="90px" height="61px" viewBox="0 0 90 61" version="1.1" xmlns="http://www.w3.org/2000/svg" xmlns:xlink="http://www.w3.org/1999/xlink">
    <title>viande copy 2</title>
    <g id="Page-1" stroke="none" stroke-width="1" fill="none" fill-rule="evenodd">
        <g id="regime-autrev3-2" transform="translate(-331.000000, -1875.000000)" fill="#594231">
            <g id="2chiffres" transform="translate(299.000000, 1831.000000)">
                <g id="Shape" transform="translate(32.000000, 44.000000)">
                    <path d="M88.6769812,21.9998129 C76.3028475,13.2521607 66.6334165,17.8722108 62.6794716,20.6176575 C61.9308414,18.4164724 60.7493078,16.222051 59.2273136,14.3093476 C66.8427264,12.7271353 69.0731584,5.55853076 69.1283766,1.5458496 C69.1392595,0.705411727 68.471447,0.016381855 67.6334659,0.00248209 C66.7687724,0.00148921333 66.1049172,0.65974123 66.0890875,1.49968256 C66.0812964,1.90370579 65.7717529,11.1892903 56.5687395,11.5520486 C53.9025597,9.26969898 50.0356778,7.21098619 44.7448092,7.21098619 C40.3608672,7.21098619 36.2778737,8.74982384 32.9620607,11.5545928 C23.733015,11.2185789 23.4102389,1.93305645 23.4015202,1.50166811 C23.3886586,0.660734005 22.7168887,0.00446774167 21.8610992,0 C21.0221288,0.0119141133 20.3513481,0.703922513 20.362231,1.5458496 C20.4174492,5.5583445 22.6476958,12.7265767 30.2624284,14.3091613 C28.7407433,16.2216787 27.5592716,18.4157897 26.8107032,20.6167266 C22.8412377,17.8551462 13.1074989,13.1879984 0.644447255,22.0003092 C0.280365748,22.2574544 0.0478680339,22.6620361 0.00631527848,23.1073242 C-0.0342481883,23.5521159 0.122069441,23.9924398 0.432725919,24.3121338 C0.507916716,24.3890788 5.55756892,29.4317057 13.9047311,29.4317057 C17.3743883,29.4317057 21.4209613,28.5391438 25.9097128,26.0772145 C25.9218942,26.4481639 25.9452676,26.8141489 25.9936222,27.1675374 L26.3577037,29.845223 C28.894402,48.6063965 30.5713535,61 44.7448091,61 C58.9182648,61 60.5942269,48.6083821 63.1319146,29.85118 L63.4969855,27.167041 C63.5452783,26.8133423 63.5685281,26.447109 63.5806476,26.0758494 C68.0357612,28.5158742 72.0511696,29.4009277 75.4958456,29.4009277 C83.7935402,29.4009277 88.8145012,24.3880859 88.8887027,24.3116373 C89.1993591,23.9919433 89.3556768,23.5516194 89.3151133,23.1068278 C89.2735604,22.6615398 89.0410627,22.256958 88.6769812,21.9998129 Z M4.07354099,23.3828369 C14.3281736,17.0594482 21.9659705,20.8506022 25.0725356,23.0690999 C14.5774904,29.1542073 7.09304311,25.5139648 4.07354099,23.3828369 Z M60.4853982,26.7525309 L60.1203273,29.4411376 C57.4461091,49.2100423 55.7978489,57.95 44.7448091,57.95 C33.6917694,57.95 32.0435091,49.2080567 29.3692909,29.4351806 L29.0052094,26.7525309 C28.6411279,24.0942057 29.7699784,19.4834635 33.1070625,15.643164 C33.5190039,15.1692077 33.9927179,14.6779387 34.5278955,14.1933095 C34.5296269,14.191572 34.5316055,14.190331 34.5333369,14.1885935 C36.7706326,12.1642578 40.1058616,10.2609863 44.7448091,10.2609863 C50.4969012,10.2609863 54.2475343,13.1873779 56.3815664,15.6421712 C59.7196398,19.4829671 60.8484904,24.0937093 60.4853982,26.7525309 Z M64.4309337,23.0755534 C65.553848,22.2857503 67.2683949,21.2909261 69.4786072,20.6346598 C74.5559613,19.1295165 79.8529515,20.0518636 85.2468981,23.3808512 C82.2402576,25.4990723 74.8240756,29.0901692 64.4309337,23.0755534 Z"></path>
                </g>
            </g>
        </g>
    </g>
</svg>
