<?xml version="1.0" encoding="UTF-8"?>
<svg width="47px" height="46px" viewBox="0 0 47 46" version="1.1" xmlns="http://www.w3.org/2000/svg" xmlns:xlink="http://www.w3.org/1999/xlink">
    <title>noun_Alert_447102</title>
    <g id="home-2021" stroke="none" stroke-width="1" fill="none" fill-rule="evenodd">
        <g id="accueil-notifications5" transform="translate(-1225.000000, -173.000000)" fill="#015A5A" fill-rule="nonzero">
            <g id="Group-2" transform="translate(788.000000, 85.087642)">
                <g id="Group-3" transform="translate(38.000000, 46.912358)">
                    <g id="noun_Alert_447102" transform="translate(422.780876, 64.000000) scale(-1, -1) translate(-422.780876, -64.000000) translate(399.780876, 41.000000)">
                        <path d="M23,28.6066737 C24.6671368,28.6066737 26.0185684,29.9585895 26.0185684,31.6252421 C26.0185684,33.2918947 24.6671368,34.6438105 23,34.6438105 C21.3333474,34.6438105 19.9814316,33.2918947 19.9814316,31.6252421 C19.9814316,29.9585895 21.3333474,28.6066737 23,28.6066737 M25.4438105,25.8752421 L20.5561895,25.8752421 L20.5561895,11.3561895 L25.4438105,11.3561895 L25.4438105,25.8752421 L25.4438105,25.8752421 Z M23,3.73810526 C28.1747579,3.73810526 32.9180842,5.75 36.6561895,9.34429474 C40.25,12.9381053 42.2623789,17.8252421 42.2623789,23.0004842 C42.2623789,28.1752421 40.25,32.9185684 36.6561895,36.6566737 C33.0628632,40.25 28.1747579,42.2628632 23,42.2628632 C17.8252421,42.2628632 13.0814316,40.25 9.34381053,36.6566737 C5.75048421,32.9185684 3.73762105,28.1747579 3.73762105,23.0004842 C3.73762105,17.8252421 5.75048421,13.0814316 9.34381053,9.34429474 C13.0814316,5.75 17.8252421,3.73810526 23,3.73810526 M23,0 C10.35,0 0,10.3504842 0,23.0004842 C0,35.65 10.35,46 23,46 C35.65,46 46,35.65 46,23.0004842 C46,10.3504842 35.65,0 23,0" id="Shape"></path>
                    </g>
                </g>
            </g>
        </g>
    </g>
</svg>