<?xml version="1.0" encoding="UTF-8"?>
<svg width="13px" height="26px" viewBox="0 0 13 26" version="1.1" xmlns="http://www.w3.org/2000/svg" xmlns:xlink="http://www.w3.org/1999/xlink">
    <title>top</title>
    <g id="Page-1" stroke="none" stroke-width="1" fill="none" fill-rule="evenodd">
        <g id="top" transform="translate(6.682667, 13.129323) rotate(90.000000) translate(-6.682667, -13.129323) translate(-6.043263, 7.112653)" fill="#015A5A" fill-rule="nonzero">
            <g id="ELEMENTS-/-fleche-droite" transform="translate(12.725930, 6.016670) scale(-1, 1) rotate(-90.000000) translate(-12.725930, -6.016670) translate(6.709260, -6.709260)">
                <path d="M11.5892022,13.985928 L2.27765373,24.9294837 C1.68532678,25.6259855 0.724970146,25.6259855 0.13293075,24.9294837 C-0.459156573,24.2336015 1.08390272,23.1049475 1.67599004,22.4091216 L9.91527288,12.725747 L1.67622968,3.04271022 C1.08414235,2.34654639 -0.458916939,1.21800506 0.133170384,0.522122872 C0.725257706,-0.174040957 1.68556641,-0.174040957 2.27789337,0.522122872 L11.5894418,11.4658476 C11.8854855,11.8139577 12.0333396,12.2697115 12.0333396,12.7256906 C12.0333396,13.1818951 11.8851979,13.6379869 11.5892022,13.985928 Z" id="Shape"></path>
            </g>
        </g>
    </g>
</svg>