<?xml version="1.0" encoding="UTF-8"?>
<svg width="101px" height="33px" viewBox="0 0 101 33" version="1.1" xmlns="http://www.w3.org/2000/svg" xmlns:xlink="http://www.w3.org/1999/xlink">
    <title>leviers</title>
    <g id="Page-1" stroke="none" stroke-width="1" fill="none" fill-rule="evenodd">
        <g id="alim-1-btn" transform="translate(-469.000000, -166.000000)">
            <g id="Group-2" transform="translate(456.000000, 114.000000)">
                <g id="leviers" transform="translate(13.000000, 52.000000)">
                    <path d="M3,0 L84.6890341,0 C85.5648818,1.749542e-14 86.3969922,0.382751752 86.96694,1.04778461 L99.2303829,15.3571526 C100.234551,16.5288469 100.186067,18.2711983 99.1182948,19.3852374 L86.9547162,32.0758694 C86.3888934,32.6662095 85.6066129,33 84.7888985,33 L3,33 C1.34314575,33 2.02906125e-16,31.6568542 0,30 L0,3 C-2.02906125e-16,1.34314575 1.34314575,1.63662682e-15 3,0 Z" id="Rectangle" fill="#bdc660"></path>
                    <g id="Leviers" transform="translate(18.728000, 9.544000)" fill="#FFFFFF" fill-rule="nonzero">
                        <polygon id="Path" points="1.28 10.256 7.328 10.256 7.328 11.456 0 11.456 0 0.896 1.28 0.896"></polygon>
                        <path d="M12.4384,11.616 C11.6810667,11.616 11.0064,11.4506667 10.4144,11.12 C9.8224,10.7893333 9.36106667,10.312 9.0304,9.688 C8.69973333,9.064 8.5344,8.32 8.5344,7.456 C8.5344,6.592 8.69973333,5.848 9.0304,5.224 C9.36106667,4.6 9.8144,4.12266667 10.3904,3.792 C10.9664,3.46133333 11.6224,3.296 12.3584,3.296 C13.1050667,3.296 13.7424,3.456 14.2704,3.776 C14.7984,4.096 15.2010667,4.53066667 15.4784,5.08 C15.7557333,5.62933333 15.8944,6.24533333 15.8944,6.928 C15.8944,7.10933333 15.8890667,7.27466667 15.8784,7.424 C15.8677333,7.57333333 15.8517333,7.70666667 15.8304,7.824 L9.3664,7.824 L9.3664,6.688 L15.2704,6.688 L14.6144,6.816 C14.6144,6.048 14.4037333,5.456 13.9824,5.04 C13.5610667,4.624 13.0090667,4.416 12.3264,4.416 C11.8037333,4.416 11.3530667,4.536 10.9744,4.776 C10.5957333,5.016 10.3024,5.36266667 10.0944,5.816 C9.8864,6.26933333 9.7824,6.816 9.7824,7.456 C9.7824,8.08533333 9.88906667,8.62933333 10.1024,9.088 C10.3157333,9.54666667 10.6170667,9.896 11.0064,10.136 C11.3957333,10.376 11.8624,10.496 12.4064,10.496 C12.9930667,10.496 13.4704,10.384 13.8384,10.16 C14.2064,9.936 14.5024,9.632 14.7264,9.248 L15.7344,9.84 C15.5317333,10.2026667 15.2730667,10.5173333 14.9584,10.784 C14.6437333,11.0506667 14.2757333,11.256 13.8544,11.4 C13.4330667,11.544 12.9610667,11.616 12.4384,11.616 Z" id="Path"></path>
                        <polygon id="Path" points="23.4048 3.456 24.7488 3.456 21.4208 11.456 20.1408 11.456 16.8128 3.456 18.2688 3.456 20.7968 10.16"></polygon>
                        <path d="M27.0752,1.92 C26.7872,1.92 26.5552,1.832 26.3792,1.656 C26.2032,1.48 26.1152,1.248 26.1152,0.96 C26.1152,0.672 26.2032,0.44 26.3792,0.264 C26.5552,0.088 26.7872,0 27.0752,0 C27.3632,0 27.5952,0.088 27.7712,0.264 C27.9472,0.44 28.0352,0.672 28.0352,0.96 C28.0352,1.248 27.9472,1.48 27.7712,1.656 C27.5952,1.832 27.3632,1.92 27.0752,1.92 Z M27.7152,3.456 L27.7152,11.456 L26.4352,11.456 L26.4352,3.456 L27.7152,3.456 Z" id="Shape"></path>
                        <path d="M34.0416,11.616 C33.2842667,11.616 32.6096,11.4506667 32.0176,11.12 C31.4256,10.7893333 30.9642667,10.312 30.6336,9.688 C30.3029333,9.064 30.1376,8.32 30.1376,7.456 C30.1376,6.592 30.3029333,5.848 30.6336,5.224 C30.9642667,4.6 31.4176,4.12266667 31.9936,3.792 C32.5696,3.46133333 33.2256,3.296 33.9616,3.296 C34.7082667,3.296 35.3456,3.456 35.8736,3.776 C36.4016,4.096 36.8042667,4.53066667 37.0816,5.08 C37.3589333,5.62933333 37.4976,6.24533333 37.4976,6.928 C37.4976,7.10933333 37.4922667,7.27466667 37.4816,7.424 C37.4709333,7.57333333 37.4549333,7.70666667 37.4336,7.824 L30.9696,7.824 L30.9696,6.688 L36.8736,6.688 L36.2176,6.816 C36.2176,6.048 36.0069333,5.456 35.5856,5.04 C35.1642667,4.624 34.6122667,4.416 33.9296,4.416 C33.4069333,4.416 32.9562667,4.536 32.5776,4.776 C32.1989333,5.016 31.9056,5.36266667 31.6976,5.816 C31.4896,6.26933333 31.3856,6.816 31.3856,7.456 C31.3856,8.08533333 31.4922667,8.62933333 31.7056,9.088 C31.9189333,9.54666667 32.2202667,9.896 32.6096,10.136 C32.9989333,10.376 33.4656,10.496 34.0096,10.496 C34.5962667,10.496 35.0736,10.384 35.4416,10.16 C35.8096,9.936 36.1056,9.632 36.3296,9.248 L37.3376,9.84 C37.1349333,10.2026667 36.8762667,10.5173333 36.5616,10.784 C36.2469333,11.0506667 35.8789333,11.256 35.4576,11.4 C35.0362667,11.544 34.5642667,11.616 34.0416,11.616 Z" id="Path"></path>
                        <path d="M39.936,11.456 L39.936,3.456 L40.976,3.456 L41.152,4.768 C41.376,4.27733333 41.704,3.90933333 42.136,3.664 C42.568,3.41866667 43.0933333,3.296 43.712,3.296 C43.8506667,3.296 44.0026667,3.30666667 44.168,3.328 C44.3333333,3.34933333 44.4746667,3.392 44.592,3.456 L44.368,4.624 C44.2506667,4.58133333 44.1226667,4.54933333 43.984,4.528 C43.8453333,4.50666667 43.648,4.496 43.392,4.496 C43.0613333,4.496 42.728,4.592 42.392,4.784 C42.056,4.976 41.776,5.26666667 41.552,5.656 C41.328,6.04533333 41.216,6.53866667 41.216,7.136 L41.216,11.456 L39.936,11.456 Z" id="Path"></path>
                        <path d="M49.0144,11.616 C48.2357333,11.616 47.5184,11.4506667 46.8624,11.12 C46.2064,10.7893333 45.7024,10.32 45.3504,9.712 L46.4384,8.928 C46.6730667,9.41866667 47.0170667,9.80266667 47.4704,10.08 C47.9237333,10.3573333 48.4704,10.496 49.1104,10.496 C49.6757333,10.496 50.1184,10.3866667 50.4384,10.168 C50.7584,9.94933333 50.9184,9.664 50.9184,9.312 C50.9184,9.088 50.8464,8.88266667 50.7024,8.696 C50.5584,8.50933333 50.2837333,8.37333333 49.8784,8.288 L47.9584,7.888 C47.1797333,7.728 46.6224,7.46133333 46.2864,7.088 C45.9504,6.71466667 45.7824,6.25066667 45.7824,5.696 C45.7824,5.25866667 45.9077333,4.85866667 46.1584,4.496 C46.4090667,4.13333333 46.7664,3.84266667 47.2304,3.624 C47.6944,3.40533333 48.2410667,3.296 48.8704,3.296 C49.6597333,3.296 50.3264,3.45066667 50.8704,3.76 C51.4144,4.06933333 51.8197333,4.50666667 52.0864,5.072 L51.0144,5.776 C50.8330667,5.30666667 50.5397333,4.96266667 50.1344,4.744 C49.7290667,4.52533333 49.3077333,4.416 48.8704,4.416 C48.4864,4.416 48.1584,4.46933333 47.8864,4.576 C47.6144,4.68266667 47.4064,4.82933333 47.2624,5.016 C47.1184,5.20266667 47.0464,5.41333333 47.0464,5.648 C47.0464,5.88266667 47.1264,6.09866667 47.2864,6.296 C47.4464,6.49333333 47.7450667,6.63466667 48.1824,6.72 L50.1824,7.136 C50.9290667,7.28533333 51.4517333,7.53066667 51.7504,7.872 C52.0490667,8.21333333 52.1984,8.62933333 52.1984,9.12 C52.1984,9.62133333 52.0650667,10.0613333 51.7984,10.44 C51.5317333,10.8186667 51.1584,11.1093333 50.6784,11.312 C50.1984,11.5146667 49.6437333,11.616 49.0144,11.616 Z" id="Path"></path>
                    </g>
                </g>
            </g>
        </g>
    </g>
</svg>
