<?xml version="1.0" encoding="UTF-8"?>
<svg width="101px" height="33px" viewBox="0 0 101 33" version="1.1" xmlns="http://www.w3.org/2000/svg" xmlns:xlink="http://www.w3.org/1999/xlink">
    <title>resultats</title>
    <g id="Page-1" stroke="none" stroke-width="1" fill="none" fill-rule="evenodd">
        <g id="surface3-" transform="translate(-403.000000, -159.000000)">
            <g id="Group" transform="translate(-1.000000, 0.000000)">
                <g id="Group-9" transform="translate(404.000000, 95.000000)">
                    <g id="resultats" transform="translate(0.000000, 64.000000)">
                        <path d="M3,0 L84.6890341,0 C85.5648818,1.749542e-14 86.3969922,0.382751752 86.96694,1.04778461 L99.2303829,15.3571526 C100.234551,16.5288469 100.186067,18.2711983 99.1182948,19.3852374 L86.9547162,32.0758694 C86.3888934,32.6662095 85.6066129,33 84.7888985,33 L3,33 C1.34314575,33 2.02906125e-16,31.6568542 0,30 L0,3 C-2.02906125e-16,1.34314575 1.34314575,1.63662682e-15 3,0 Z" id="Rectangle" fill="#91C322"></path>
                        <g id="Résultats" transform="translate(11.728000, 9.000000)" fill="#FFFFFF" fill-rule="nonzero">
                            <path d="M4,1.44 C5.07733333,1.44 5.94133333,1.71733333 6.592,2.272 C7.24266667,2.82666667 7.568,3.57866667 7.568,4.528 C7.568,5.47733333 7.24,6.216 6.584,6.744 C5.928,7.272 5.06133333,7.536 3.984,7.536 L3.872,7.616 L1.28,7.616 L1.28,12 L0,12 L0,1.44 L4,1.44 Z M3.984,6.416 C4.74133333,6.416 5.304,6.25866667 5.672,5.944 C6.04,5.62933333 6.224,5.15733333 6.224,4.528 C6.224,3.89866667 6.04,3.42666667 5.672,3.112 C5.304,2.79733333 4.74133333,2.64 3.984,2.64 L1.28,2.64 L1.28,6.416 L3.984,6.416 Z M4.72,6.672 L8.208,12 L6.688,12 L3.648,7.376 L4.72,6.672 Z" id="Shape"></path>
                            <path d="M13.4784,12.16 C12.7210667,12.16 12.0464,11.9946667 11.4544,11.664 C10.8624,11.3333333 10.4010667,10.856 10.0704,10.232 C9.73973333,9.608 9.5744,8.864 9.5744,8 C9.5744,7.136 9.73973333,6.392 10.0704,5.768 C10.4010667,5.144 10.8544,4.66666667 11.4304,4.336 C12.0064,4.00533333 12.6624,3.84 13.3984,3.84 C14.1450667,3.84 14.7824,4 15.3104,4.32 C15.8384,4.64 16.2410667,5.07466667 16.5184,5.624 C16.7957333,6.17333333 16.9344,6.78933333 16.9344,7.472 C16.9344,7.65333333 16.9290667,7.81866667 16.9184,7.968 C16.9077333,8.11733333 16.8917333,8.25066667 16.8704,8.368 L10.4064,8.368 L10.4064,7.232 L16.3104,7.232 L15.6544,7.36 C15.6544,6.592 15.4437333,6 15.0224,5.584 C14.6010667,5.168 14.0490667,4.96 13.3664,4.96 C12.8437333,4.96 12.3930667,5.08 12.0144,5.32 C11.6357333,5.56 11.3424,5.90666667 11.1344,6.36 C10.9264,6.81333333 10.8224,7.36 10.8224,8 C10.8224,8.62933333 10.9290667,9.17333333 11.1424,9.632 C11.3557333,10.0906667 11.6570667,10.44 12.0464,10.68 C12.4357333,10.92 12.9024,11.04 13.4464,11.04 C14.0330667,11.04 14.5104,10.928 14.8784,10.704 C15.2464,10.48 15.5424,10.176 15.7664,9.792 L16.7744,10.384 C16.5717333,10.7466667 16.3130667,11.0613333 15.9984,11.328 C15.6837333,11.5946667 15.3157333,11.8 14.8944,11.944 C14.4730667,12.088 14.0010667,12.16 13.4784,12.16 Z M13.7344,0 L15.1264,0 L13.5584,2.672 L12.5184,2.672 L13.7344,0 Z" id="Shape"></path>
                            <path d="M22.2528,12.16 C21.4741333,12.16 20.7568,11.9946667 20.1008,11.664 C19.4448,11.3333333 18.9408,10.864 18.5888,10.256 L19.6768,9.472 C19.9114667,9.96266667 20.2554667,10.3466667 20.7088,10.624 C21.1621333,10.9013333 21.7088,11.04 22.3488,11.04 C22.9141333,11.04 23.3568,10.9306667 23.6768,10.712 C23.9968,10.4933333 24.1568,10.208 24.1568,9.856 C24.1568,9.632 24.0848,9.42666667 23.9408,9.24 C23.7968,9.05333333 23.5221333,8.91733333 23.1168,8.832 L21.1968,8.432 C20.4181333,8.272 19.8608,8.00533333 19.5248,7.632 C19.1888,7.25866667 19.0208,6.79466667 19.0208,6.24 C19.0208,5.80266667 19.1461333,5.40266667 19.3968,5.04 C19.6474667,4.67733333 20.0048,4.38666667 20.4688,4.168 C20.9328,3.94933333 21.4794667,3.84 22.1088,3.84 C22.8981333,3.84 23.5648,3.99466667 24.1088,4.304 C24.6528,4.61333333 25.0581333,5.05066667 25.3248,5.616 L24.2528,6.32 C24.0714667,5.85066667 23.7781333,5.50666667 23.3728,5.288 C22.9674667,5.06933333 22.5461333,4.96 22.1088,4.96 C21.7248,4.96 21.3968,5.01333333 21.1248,5.12 C20.8528,5.22666667 20.6448,5.37333333 20.5008,5.56 C20.3568,5.74666667 20.2848,5.95733333 20.2848,6.192 C20.2848,6.42666667 20.3648,6.64266667 20.5248,6.84 C20.6848,7.03733333 20.9834667,7.17866667 21.4208,7.264 L23.4208,7.68 C24.1674667,7.82933333 24.6901333,8.07466667 24.9888,8.416 C25.2874667,8.75733333 25.4368,9.17333333 25.4368,9.664 C25.4368,10.1653333 25.3034667,10.6053333 25.0368,10.984 C24.7701333,11.3626667 24.3968,11.6533333 23.9168,11.856 C23.4368,12.0586667 22.8821333,12.16 22.2528,12.16 Z" id="Path"></path>
                            <path d="M30.7072,12.16 C30.1952,12.16 29.7125333,12.064 29.2592,11.872 C28.8058667,11.68 28.4378667,11.368 28.1552,10.936 C27.8725333,10.504 27.7312,9.94133333 27.7312,9.248 L27.7312,4 L29.0112,4 L29.0112,8.912 C29.0112,9.72266667 29.1872,10.28 29.5392,10.584 C29.8912,10.888 30.3872,11.04 31.0272,11.04 C31.3258667,11.04 31.6192,10.9893333 31.9072,10.888 C32.1952,10.7866667 32.4538667,10.6266667 32.6832,10.408 C32.9125333,10.1893333 33.0938667,9.90933333 33.2272,9.568 C33.3605333,9.22666667 33.4272,8.82133333 33.4272,8.352 L33.4272,4 L34.7072,4 L34.7072,12 L33.5872,12 L33.5072,10.784 C33.2298667,11.264 32.8538667,11.6133333 32.3792,11.832 C31.9045333,12.0506667 31.3472,12.16 30.7072,12.16 Z" id="Path"></path>
                            <path d="M38.9056,0.32 L38.9056,9.968 C38.9056,10.3733333 38.9802667,10.6533333 39.1296,10.808 C39.2789333,10.9626667 39.5189333,11.04 39.8496,11.04 C40.0629333,11.04 40.2389333,11.024 40.3776,10.992 C40.5162667,10.96 40.7029333,10.9013333 40.9376,10.816 L40.7296,11.936 C40.5589333,12.0106667 40.3722667,12.0666667 40.1696,12.104 C39.9669333,12.1413333 39.7589333,12.16 39.5456,12.16 C38.8949333,12.16 38.4122667,11.984 38.0976,11.632 C37.7829333,11.28 37.6256,10.7413333 37.6256,10.016 L37.6256,0.32 L38.9056,0.32 Z" id="Path"></path>
                            <path d="M44.16,1.728 L44.16,9.792 C44.16,10.1866667 44.272,10.48 44.496,10.672 C44.72,10.864 45.008,10.96 45.36,10.96 C45.6693333,10.96 45.936,10.9066667 46.16,10.8 C46.384,10.6933333 46.5866667,10.5493333 46.768,10.368 L47.216,11.44 C46.9706667,11.664 46.68,11.84 46.344,11.968 C46.008,12.096 45.6213333,12.16 45.184,12.16 C44.7786667,12.16 44.4,12.088 44.048,11.944 C43.696,11.8 43.416,11.5706667 43.208,11.256 C43,10.9413333 42.8906667,10.528 42.88,10.016 L42.88,2.08 L44.16,1.728 Z M47.072,4 L47.072,5.104 L41.28,5.104 L41.28,4 L47.072,4 Z" id="Shape"></path>
                            <path d="M53.6544,6.832 C53.6544,6.23466667 53.4944,5.77333333 53.1744,5.448 C52.8544,5.12266667 52.4010667,4.96 51.8144,4.96 C51.2597333,4.96 50.7904,5.08 50.4064,5.32 C50.0224,5.56 49.7397333,5.94666667 49.5584,6.48 L48.5184,5.84 C48.7317333,5.24266667 49.1264,4.76 49.7024,4.392 C50.2784,4.024 50.9930667,3.84 51.8464,3.84 C52.4224,3.84 52.9450667,3.93866667 53.4144,4.136 C53.8837333,4.33333333 54.2544,4.632 54.5264,5.032 C54.7984,5.432 54.9344,5.94666667 54.9344,6.576 L54.9344,10.448 C54.9344,10.832 55.1370667,11.024 55.5424,11.024 C55.7450667,11.024 55.9424,10.9973333 56.1344,10.944 L56.0704,11.952 C55.8570667,12.0586667 55.5797333,12.112 55.2384,12.112 C54.9290667,12.112 54.6517333,12.0533333 54.4064,11.936 C54.1610667,11.8186667 53.9690667,11.64 53.8304,11.4 C53.6917333,11.16 53.6224,10.8586667 53.6224,10.496 L53.6224,10.336 L53.9424,10.384 C53.8144,10.8 53.5957333,11.1386667 53.2864,11.4 C52.9770667,11.6613333 52.6304,11.8533333 52.2464,11.976 C51.8624,12.0986667 51.4837333,12.16 51.1104,12.16 C50.6410667,12.16 50.2037333,12.08 49.7984,11.92 C49.3930667,11.76 49.0704,11.5173333 48.8304,11.192 C48.5904,10.8666667 48.4704,10.464 48.4704,9.984 C48.4704,9.38666667 48.6704,8.89333333 49.0704,8.504 C49.4704,8.11466667 50.0277333,7.85066667 50.7424,7.712 L53.9104,7.088 L53.9104,8.144 L51.3344,8.672 C50.8117333,8.77866667 50.4224,8.928 50.1664,9.12 C49.9104,9.312 49.7824,9.57866667 49.7824,9.92 C49.7824,10.2506667 49.9130667,10.52 50.1744,10.728 C50.4357333,10.936 50.8064,11.04 51.2864,11.04 C51.5957333,11.04 51.8917333,11 52.1744,10.92 C52.4570667,10.84 52.7104,10.7173333 52.9344,10.552 C53.1584,10.3866667 53.3344,10.1786667 53.4624,9.928 C53.5904,9.67733333 53.6544,9.38133333 53.6544,9.04 L53.6544,6.832 Z" id="Path"></path>
                            <path d="M59.6128,1.728 L59.6128,9.792 C59.6128,10.1866667 59.7248,10.48 59.9488,10.672 C60.1728,10.864 60.4608,10.96 60.8128,10.96 C61.1221333,10.96 61.3888,10.9066667 61.6128,10.8 C61.8368,10.6933333 62.0394667,10.5493333 62.2208,10.368 L62.6688,11.44 C62.4234667,11.664 62.1328,11.84 61.7968,11.968 C61.4608,12.096 61.0741333,12.16 60.6368,12.16 C60.2314667,12.16 59.8528,12.088 59.5008,11.944 C59.1488,11.8 58.8688,11.5706667 58.6608,11.256 C58.4528,10.9413333 58.3434667,10.528 58.3328,10.016 L58.3328,2.08 L59.6128,1.728 Z M62.5248,4 L62.5248,5.104 L56.7328,5.104 L56.7328,4 L62.5248,4 Z" id="Shape"></path>
                            <path d="M67.3152,12.16 C66.5365333,12.16 65.8192,11.9946667 65.1632,11.664 C64.5072,11.3333333 64.0032,10.864 63.6512,10.256 L64.7392,9.472 C64.9738667,9.96266667 65.3178667,10.3466667 65.7712,10.624 C66.2245333,10.9013333 66.7712,11.04 67.4112,11.04 C67.9765333,11.04 68.4192,10.9306667 68.7392,10.712 C69.0592,10.4933333 69.2192,10.208 69.2192,9.856 C69.2192,9.632 69.1472,9.42666667 69.0032,9.24 C68.8592,9.05333333 68.5845333,8.91733333 68.1792,8.832 L66.2592,8.432 C65.4805333,8.272 64.9232,8.00533333 64.5872,7.632 C64.2512,7.25866667 64.0832,6.79466667 64.0832,6.24 C64.0832,5.80266667 64.2085333,5.40266667 64.4592,5.04 C64.7098667,4.67733333 65.0672,4.38666667 65.5312,4.168 C65.9952,3.94933333 66.5418667,3.84 67.1712,3.84 C67.9605333,3.84 68.6272,3.99466667 69.1712,4.304 C69.7152,4.61333333 70.1205333,5.05066667 70.3872,5.616 L69.3152,6.32 C69.1338667,5.85066667 68.8405333,5.50666667 68.4352,5.288 C68.0298667,5.06933333 67.6085333,4.96 67.1712,4.96 C66.7872,4.96 66.4592,5.01333333 66.1872,5.12 C65.9152,5.22666667 65.7072,5.37333333 65.5632,5.56 C65.4192,5.74666667 65.3472,5.95733333 65.3472,6.192 C65.3472,6.42666667 65.4272,6.64266667 65.5872,6.84 C65.7472,7.03733333 66.0458667,7.17866667 66.4832,7.264 L68.4832,7.68 C69.2298667,7.82933333 69.7525333,8.07466667 70.0512,8.416 C70.3498667,8.75733333 70.4992,9.17333333 70.4992,9.664 C70.4992,10.1653333 70.3658667,10.6053333 70.0992,10.984 C69.8325333,11.3626667 69.4592,11.6533333 68.9792,11.856 C68.4992,12.0586667 67.9445333,12.16 67.3152,12.16 Z" id="Path"></path>
                        </g>
                    </g>
                </g>
            </g>
        </g>
    </g>
</svg>