<?xml version="1.0" encoding="UTF-8"?>
<svg width="50px" height="41px" viewBox="0 0 50 41" version="1.1" xmlns="http://www.w3.org/2000/svg" xmlns:xlink="http://www.w3.org/1999/xlink">
    <title>noun_controls_3532755</title>
    <g id="Page-1" stroke="none" stroke-width="1" fill="none" fill-rule="evenodd">
        <g id="regime-autrev3-3" transform="translate(-810.000000, -577.000000)" fill="#015A5A" fill-rule="nonzero">
            <g id="Oval" transform="translate(190.000000, 529.000000)">
                <g id="noun_controls_3532755" transform="translate(620.000000, 48.000000)">
                    <path d="M5.54054054,11.0810811 C8.21662162,11.0810811 10.455,9.17513514 10.9702703,6.64864865 L48.7567568,6.64864865 C49.3662162,6.64864865 49.8648649,6.15 49.8648649,5.54054054 C49.8648649,4.93108108 49.3662162,4.43243243 48.7567568,4.43243243 L10.9702703,4.43243243 C10.455,1.90594595 8.21662162,0 5.54054054,0 C2.4877027,0 0,2.4877027 0,5.54054054 C0,8.59337838 2.4877027,11.0810811 5.54054054,11.0810811 Z M5.54054054,2.21621622 C7.37445946,2.21621622 8.86486486,3.70662162 8.86486486,5.54054054 C8.86486486,7.37445946 7.37445946,8.86486486 5.54054054,8.86486486 C3.70662162,8.86486486 2.21621622,7.37445946 2.21621622,5.54054054 C2.21621622,3.70662162 3.70662162,2.21621622 5.54054054,2.21621622 Z M44.3243243,29.9189189 C41.6482432,29.9189189 39.4098649,31.8248649 38.8945946,34.3513514 L1.10810811,34.3513514 C0.498648649,34.3513514 0,34.85 0,35.4594595 C0,36.0689189 0.498648649,36.5675676 1.10810811,36.5675676 L38.8945946,36.5675676 C39.4098649,39.0940541 41.6482432,41 44.3243243,41 C47.3771622,41 49.8648649,38.5122973 49.8648649,35.4594595 C49.8648649,32.4066216 47.3771622,29.9189189 44.3243243,29.9189189 Z M44.3243243,38.7837838 C42.4904054,38.7837838 41,37.2933784 41,35.4594595 C41,33.6255405 42.4904054,32.1351351 44.3243243,32.1351351 C46.1582432,32.1351351 47.6486486,33.6255405 47.6486486,35.4594595 C47.6486486,37.2933784 46.1582432,38.7837838 44.3243243,38.7837838 Z M48.7567568,19.3918919 L30.3621622,19.3918919 C29.8468919,16.8654054 27.6085135,14.9594595 24.9324324,14.9594595 C22.2563514,14.9594595 20.017973,16.8654054 19.5027027,19.3918919 L1.10810811,19.3918919 C0.498648649,19.3918919 0,19.8905405 0,20.5 C0,21.1094595 0.498648649,21.6081081 1.10810811,21.6081081 L19.5027027,21.6081081 C20.017973,24.1345946 22.2563514,26.0405405 24.9324324,26.0405405 C27.6085135,26.0405405 29.8468919,24.1345946 30.3621622,21.6081081 L48.7567568,21.6081081 C49.3662162,21.6081081 49.8648649,21.1094595 49.8648649,20.5 C49.8648649,19.8905405 49.3662162,19.3918919 48.7567568,19.3918919 Z M24.9324324,23.8243243 C23.0985135,23.8243243 21.6081081,22.3339189 21.6081081,20.5 C21.6081081,18.6660811 23.0985135,17.1756757 24.9324324,17.1756757 C26.7663514,17.1756757 28.2567568,18.6660811 28.2567568,20.5 C28.2567568,22.3339189 26.7663514,23.8243243 24.9324324,23.8243243 Z" id="Shape"></path>
                </g>
            </g>
        </g>
    </g>
</svg>