<?xml version="1.0" encoding="UTF-8" standalone="no"?>
<!DOCTYPE svg PUBLIC "-//W3C//DTD SVG 1.1//EN" "http://www.w3.org/Graphics/SVG/1.1/DTD/svg11.dtd">
<svg width="100%" height="100%" viewBox="0 0 93 94" version="1.1" xmlns="http://www.w3.org/2000/svg" xmlns:xlink="http://www.w3.org/1999/xlink" xml:space="preserve" xmlns:serif="http://www.serif.com/" style="fill-rule:evenodd;clip-rule:evenodd;stroke-miterlimit:10;">
    <g id="Artboard1" transform="matrix(1,0,0,1,-17.4685,-17.7023)">
        <rect x="17.468" y="17.702" width="92.083" height="93.325" style="fill:none;"/>
        <clipPath id="_clip1">
            <rect x="17.468" y="17.702" width="92.083" height="93.325"/>
        </clipPath>
        <g clip-path="url(#_clip1)">
            <g transform="matrix(1.88155,0,0,1.88155,-1243.09,-682.338)">
                <g transform="matrix(-0.762876,0.762876,0.762876,0.762876,715.72,379.194)">
                    <path d="M-5.09,-2.109L0.873,-2.109" style="fill:none;fill-rule:nonzero;stroke:rgb(145,196,35);stroke-width:1.97px;"/>
                </g>
                <g transform="matrix(0,-1.07887,-1.07887,0,694.614,391.369)">
                    <ellipse cx="-5.297" cy="0" rx="5.297" ry="5.297" style="fill:none;stroke:rgb(145,196,35);stroke-width:1.97px;"/>
                </g>
                <g transform="matrix(0,-1.07887,-1.07887,0,705.62,380.363)">
                    <ellipse cx="-5.297" cy="0" rx="5.297" ry="5.297" style="fill:none;stroke:rgb(145,196,35);stroke-width:1.97px;"/>
                </g>
                <g transform="matrix(1.07887,0,0,1.07887,716.868,409.969)">
                    <path d="M0,-22.145C0,-27.893 -4.677,-32.57 -10.425,-32.57C-16.102,-32.57 -20.725,-28.007 -20.84,-22.358C-26.419,-22.244 -30.93,-17.732 -31.041,-12.152C-33.639,-12.1 -36.221,-11.093 -38.2,-9.114C-42.264,-5.05 -42.994,5.552 -40.558,7.988C-38.122,10.425 -27.521,9.694 -23.456,5.629C-21.478,3.651 -20.47,1.069 -20.418,-1.529C-14.838,-1.64 -10.326,-6.151 -10.212,-11.731C-4.563,-11.846 0,-16.468 0,-22.145Z" style="fill:none;fill-rule:nonzero;stroke:rgb(145,196,35);stroke-width:1.97px;"/>
                </g>
                <g transform="matrix(1.07887,0,0,1.07887,683.608,402.375)">
                    <path d="M0,10.593C2.925,10.593 5.297,8.222 5.297,5.296C5.297,2.371 2.925,0 0,0C-2.925,0 -5.297,2.371 -5.297,5.296C-5.297,8.222 -2.925,10.593 0,10.593Z" style="fill:none;fill-rule:nonzero;stroke:rgb(145,196,35);stroke-width:1.97px;"/>
                </g>
            </g>
        </g>
    </g>
</svg>
