<?xml version="1.0" encoding="UTF-8" standalone="no"?>
<!DOCTYPE svg PUBLIC "-//W3C//DTD SVG 1.1//EN" "http://www.w3.org/Graphics/SVG/1.1/DTD/svg11.dtd">
<svg width="100%" height="100%" viewBox="0 0 114 99" version="1.1" xmlns="http://www.w3.org/2000/svg" xmlns:xlink="http://www.w3.org/1999/xlink" xml:space="preserve" xmlns:serif="http://www.serif.com/" style="fill-rule:evenodd;clip-rule:evenodd;stroke-miterlimit:10;">
    <g id="Artboard1" transform="matrix(0.947404,0,0,0.891361,-8.96073,-4.56612)">
        <rect x="9.458" y="5.123" width="119.282" height="110.295" style="fill:none;"/>
        <clipPath id="_clip1">
            <rect x="9.458" y="5.123" width="119.282" height="110.295"/>
        </clipPath>
        <g clip-path="url(#_clip1)">
            <g transform="matrix(1,0,0,1,-0.0117686,0.131389)">
                <g transform="matrix(2.61211,0,0,2.77634,112.391,111.657)">
                    <path d="M0,-23.533L0,0L-33.137,0L-33.137,-23.533" style="fill:none;fill-rule:nonzero;stroke:rgb(145,196,35);stroke-width:1.62px;"/>
                </g>
                <g transform="matrix(-2.61211,0,0,2.77634,649.084,-1223.36)">
                    <rect x="225.673" y="465.291" width="6.283" height="7.595" style="fill:none;stroke:rgb(145,196,35);stroke-width:1.62px;"/>
                </g>
                <g transform="matrix(-2.61211,0,0,2.77634,716.56,-1201.24)">
                    <rect x="238.042" y="457.322" width="7.377" height="15.564" style="fill:none;stroke:rgb(145,196,35);stroke-width:1.62px;"/>
                </g>
                <g transform="matrix(2.61211,0,0,2.77634,126.447,8.61997)">
                    <path d="M0,17.99L-21.95,0L-43.9,17.99" style="fill:none;fill-rule:nonzero;stroke:rgb(145,196,35);stroke-width:1.62px;"/>
                </g>
                <g transform="matrix(2.61211,0,0,2.77634,103.251,8.62025)">
                    <path d="M0,10.712L0,0L-5.986,0L-5.986,5.806" style="fill:none;fill-rule:nonzero;stroke:rgb(145,196,35);stroke-width:1.62px;"/>
                </g>
            </g>
        </g>
    </g>
</svg>
