<?xml version="1.0" encoding="UTF-8" standalone="no"?>
<!DOCTYPE svg PUBLIC "-//W3C//DTD SVG 1.1//EN" "http://www.w3.org/Graphics/SVG/1.1/DTD/svg11.dtd">
<svg width="100%" height="100%" viewBox="0 0 122 82" version="1.1" xmlns="http://www.w3.org/2000/svg" xmlns:xlink="http://www.w3.org/1999/xlink" xml:space="preserve" xmlns:serif="http://www.serif.com/" style="fill-rule:evenodd;clip-rule:evenodd;stroke-linecap:round;stroke-miterlimit:1.5;">
    <g transform="matrix(2.26557,0,0,2.26557,-3555.21,5256.08)">
        <g transform="matrix(0.840436,0,0,0.840436,33.6398,-403.606)">
            <path d="M1831.46,-2249.69L1866.51,-2272.61C1869.93,-2279.97 1879.88,-2280.49 1882.68,-2272.61C1882.7,-2272.56 1889.01,-2270.69 1889.01,-2270.69L1888.97,-2269.09C1888.97,-2269.09 1881.94,-2267.07 1881.96,-2267.11C1879.65,-2265.31 1879.53,-2260.56 1877.2,-2255.8C1874.69,-2250.71 1869.82,-2245.65 1862.26,-2245.65C1855.21,-2245.65 1848.99,-2248.76 1846.39,-2250.84C1842.87,-2248.35 1837.17,-2244.82 1836.96,-2244.82C1833.54,-2243.06 1824.83,-2244.82 1831.46,-2249.69Z" style="fill:none;stroke:rgb(145,196,35);stroke-width:2.1px;"/>
        </g>
        <g transform="matrix(0.840436,0,0,0.840436,33.6398,-403.606)">
            <path d="M1858.14,-2245.99L1860.11,-2239.22" style="fill:none;stroke:rgb(145,196,35);stroke-width:2.1px;"/>
        </g>
        <g transform="matrix(0.840436,0,0,0.840436,33.6398,-403.606)">
            <path d="M1855.47,-2239.22L1868.56,-2239.22" style="fill:none;stroke:rgb(145,196,35);stroke-width:2.1px;"/>
        </g>
        <g transform="matrix(0.840436,0,0,0.840436,33.6398,-403.606)">
            <path d="M1856.4,-2255.3C1861.98,-2253.05 1869.65,-2253.29 1869.65,-2262.28" style="fill:none;stroke:rgb(145,196,35);stroke-width:2.1px;"/>
        </g>
    </g>
</svg>
