<?xml version="1.0" encoding="UTF-8" standalone="no"?>
<!DOCTYPE svg PUBLIC "-//W3C//DTD SVG 1.1//EN" "http://www.w3.org/Graphics/SVG/1.1/DTD/svg11.dtd">
<svg width="100%" height="100%" viewBox="0 0 220 220" version="1.1" xmlns="http://www.w3.org/2000/svg" xmlns:xlink="http://www.w3.org/1999/xlink" xml:space="preserve" xmlns:serif="http://www.serif.com/" style="fill-rule:evenodd;clip-rule:evenodd;stroke-linejoin:round;stroke-miterlimit:2;">
    <g transform="matrix(1,0,0,1,-1322.57,-625.648)">
        <g>
            <g transform="matrix(1.01734,0,0,1.01734,1356.55,664.489)">
                <path d="M0,-12.911L-9.638,-22.549C-10.29,-23.201 -11.144,-23.527 -11.998,-23.526L-20.584,-23.526C-21.438,-23.527 -22.292,-23.201 -22.943,-22.549L-32.582,-12.911C-33.667,-11.825 -33.667,-10.065 -32.582,-8.98C-31.496,-7.894 -29.736,-7.894 -28.65,-8.98L-23.92,-13.709L-23.92,9.117C-23.92,9.945 -23.249,10.616 -22.421,10.616L-19.86,10.616C-19.032,10.616 -18.36,9.945 -18.36,9.117L-18.36,-5.192L-14.221,-5.192L-14.221,9.117C-14.221,9.945 -13.55,10.616 -12.722,10.616L-10.161,10.616C-9.333,10.616 -8.661,9.945 -8.661,9.117L-8.661,-13.709L-3.932,-8.98C-2.846,-7.894 -1.086,-7.894 0,-8.98C1.086,-10.065 1.086,-11.825 0,-12.911Z" style="fill:#bdc660;fill-rule:nonzero;"/>
            </g>
            <g transform="matrix(0,-1.01734,-1.01734,0,1339.98,625.648)">
                <circle cx="-6.104" cy="0" r="6.104" style="fill:#bdc660;"/>
            </g>
        </g>
        <g transform="matrix(1,0,0,1,0,58.2664)">
            <g transform="matrix(1.01734,0,0,1.01734,1356.55,664.489)">
                <path d="M0,-12.911L-9.638,-22.549C-10.29,-23.201 -11.144,-23.527 -11.998,-23.526L-20.584,-23.526C-21.438,-23.527 -22.292,-23.201 -22.943,-22.549L-32.582,-12.911C-33.667,-11.825 -33.667,-10.065 -32.582,-8.98C-31.496,-7.894 -29.736,-7.894 -28.65,-8.98L-23.92,-13.709L-23.92,9.117C-23.92,9.945 -23.249,10.616 -22.421,10.616L-19.86,10.616C-19.032,10.616 -18.36,9.945 -18.36,9.117L-18.36,-5.192L-14.221,-5.192L-14.221,9.117C-14.221,9.945 -13.55,10.616 -12.722,10.616L-10.161,10.616C-9.333,10.616 -8.661,9.945 -8.661,9.117L-8.661,-13.709L-3.932,-8.98C-2.846,-7.894 -1.086,-7.894 0,-8.98C1.086,-10.065 1.086,-11.825 0,-12.911Z" style="fill:#bdc660;fill-rule:nonzero;"/>
            </g>
            <g transform="matrix(0,-1.01734,-1.01734,0,1339.98,625.648)">
                <circle cx="-6.104" cy="0" r="6.104" style="fill:#bdc660;"/>
            </g>
        </g>
        <g transform="matrix(1,0,0,1,0,117.202)">
            <g transform="matrix(1.01734,0,0,1.01734,1356.55,664.489)">
                <path d="M0,-12.911L-9.638,-22.549C-10.29,-23.201 -11.144,-23.527 -11.998,-23.526L-20.584,-23.526C-21.438,-23.527 -22.292,-23.201 -22.943,-22.549L-32.582,-12.911C-33.667,-11.825 -33.667,-10.065 -32.582,-8.98C-31.496,-7.894 -29.736,-7.894 -28.65,-8.98L-23.92,-13.709L-23.92,9.117C-23.92,9.945 -23.249,10.616 -22.421,10.616L-19.86,10.616C-19.032,10.616 -18.36,9.945 -18.36,9.117L-18.36,-5.192L-14.221,-5.192L-14.221,9.117C-14.221,9.945 -13.55,10.616 -12.722,10.616L-10.161,10.616C-9.333,10.616 -8.661,9.945 -8.661,9.117L-8.661,-13.709L-3.932,-8.98C-2.846,-7.894 -1.086,-7.894 0,-8.98C1.086,-10.065 1.086,-11.825 0,-12.911Z" style="fill:#bdc660;fill-rule:nonzero;"/>
            </g>
            <g transform="matrix(0,-1.01734,-1.01734,0,1339.98,625.648)">
                <circle cx="-6.104" cy="0" r="6.104" style="fill:#bdc660;"/>
            </g>
        </g>
        <g transform="matrix(1,0,0,1,0,170.359)">
            <g transform="matrix(1.01734,0,0,1.01734,1356.55,664.489)">
                <path d="M0,-12.911L-9.638,-22.549C-10.29,-23.201 -11.144,-23.527 -11.998,-23.526L-20.584,-23.526C-21.438,-23.527 -22.292,-23.201 -22.943,-22.549L-32.582,-12.911C-33.667,-11.825 -33.667,-10.065 -32.582,-8.98C-31.496,-7.894 -29.736,-7.894 -28.65,-8.98L-23.92,-13.709L-23.92,9.117C-23.92,9.945 -23.249,10.616 -22.421,10.616L-19.86,10.616C-19.032,10.616 -18.36,9.945 -18.36,9.117L-18.36,-5.192L-14.221,-5.192L-14.221,9.117C-14.221,9.945 -13.55,10.616 -12.722,10.616L-10.161,10.616C-9.333,10.616 -8.661,9.945 -8.661,9.117L-8.661,-13.709L-3.932,-8.98C-2.846,-7.894 -1.086,-7.894 0,-8.98C1.086,-10.065 1.086,-11.825 0,-12.911Z" style="fill:#bdc660;fill-rule:nonzero;"/>
            </g>
            <g transform="matrix(0,-1.01734,-1.01734,0,1339.98,625.648)">
                <circle cx="-6.104" cy="0" r="6.104" style="fill:#bdc660;"/>
            </g>
        </g>
        <g transform="matrix(1,0,0,1,-3.47263,0)">
            <g transform="matrix(1.01734,0,0,1.01734,1397.06,664.489)">
                <path d="M0,-12.911L-9.638,-22.549C-10.29,-23.201 -11.144,-23.527 -11.998,-23.526L-20.584,-23.526C-21.438,-23.527 -22.292,-23.201 -22.943,-22.549L-32.582,-12.911C-33.667,-11.825 -33.667,-10.065 -32.582,-8.98C-31.496,-7.894 -29.736,-7.894 -28.65,-8.98L-23.92,-13.709L-23.92,9.117C-23.92,9.945 -23.249,10.616 -22.421,10.616L-19.86,10.616C-19.032,10.616 -18.36,9.945 -18.36,9.117L-18.36,-5.192L-14.221,-5.192L-14.221,9.117C-14.221,9.945 -13.55,10.616 -12.722,10.616L-10.161,10.616C-9.333,10.616 -8.661,9.945 -8.661,9.117L-8.661,-13.709L-3.932,-8.98C-2.846,-7.894 -1.086,-7.894 0,-8.98C1.086,-10.065 1.086,-11.825 0,-12.911Z" style="fill:#bdc660;fill-rule:nonzero;"/>
            </g>
            <g transform="matrix(0,-1.01734,-1.01734,0,1380.49,625.648)">
                <circle cx="-6.104" cy="0" r="6.104" style="fill:#bdc660;"/>
            </g>
        </g>
        <g transform="matrix(1,0,0,1,-3.47263,58.2664)">
            <g transform="matrix(1.01734,0,0,1.01734,1397.06,664.489)">
                <path d="M0,-12.911L-9.638,-22.549C-10.29,-23.201 -11.144,-23.527 -11.998,-23.526L-20.584,-23.526C-21.438,-23.527 -22.292,-23.201 -22.943,-22.549L-32.582,-12.911C-33.667,-11.825 -33.667,-10.065 -32.582,-8.98C-31.496,-7.894 -29.736,-7.894 -28.65,-8.98L-23.92,-13.709L-23.92,9.117C-23.92,9.945 -23.249,10.616 -22.421,10.616L-19.86,10.616C-19.032,10.616 -18.36,9.945 -18.36,9.117L-18.36,-5.192L-14.221,-5.192L-14.221,9.117C-14.221,9.945 -13.55,10.616 -12.722,10.616L-10.161,10.616C-9.333,10.616 -8.661,9.945 -8.661,9.117L-8.661,-13.709L-3.932,-8.98C-2.846,-7.894 -1.086,-7.894 0,-8.98C1.086,-10.065 1.086,-11.825 0,-12.911Z" style="fill:#bdc660;fill-rule:nonzero;"/>
            </g>
            <g transform="matrix(0,-1.01734,-1.01734,0,1380.49,625.648)">
                <circle cx="-6.104" cy="0" r="6.104" style="fill:#bdc660;"/>
            </g>
        </g>
        <g transform="matrix(1,0,0,1,-3.47263,117.202)">
            <g transform="matrix(1.01734,0,0,1.01734,1397.06,664.489)">
                <path d="M0,-12.911L-9.638,-22.549C-10.29,-23.201 -11.144,-23.527 -11.998,-23.526L-20.584,-23.526C-21.438,-23.527 -22.292,-23.201 -22.943,-22.549L-32.582,-12.911C-33.667,-11.825 -33.667,-10.065 -32.582,-8.98C-31.496,-7.894 -29.736,-7.894 -28.65,-8.98L-23.92,-13.709L-23.92,9.117C-23.92,9.945 -23.249,10.616 -22.421,10.616L-19.86,10.616C-19.032,10.616 -18.36,9.945 -18.36,9.117L-18.36,-5.192L-14.221,-5.192L-14.221,9.117C-14.221,9.945 -13.55,10.616 -12.722,10.616L-10.161,10.616C-9.333,10.616 -8.661,9.945 -8.661,9.117L-8.661,-13.709L-3.932,-8.98C-2.846,-7.894 -1.086,-7.894 0,-8.98C1.086,-10.065 1.086,-11.825 0,-12.911Z" style="fill:#bdc660;fill-rule:nonzero;"/>
            </g>
            <g transform="matrix(0,-1.01734,-1.01734,0,1380.49,625.648)">
                <circle cx="-6.104" cy="0" r="6.104" style="fill:#bdc660;"/>
            </g>
        </g>
        <g transform="matrix(1,0,0,1,-3.47263,170.359)">
            <g transform="matrix(1.01734,0,0,1.01734,1397.06,664.489)">
                <path d="M0,-12.911L-9.638,-22.549C-10.29,-23.201 -11.144,-23.527 -11.998,-23.526L-20.584,-23.526C-21.438,-23.527 -22.292,-23.201 -22.943,-22.549L-32.582,-12.911C-33.667,-11.825 -33.667,-10.065 -32.582,-8.98C-31.496,-7.894 -29.736,-7.894 -28.65,-8.98L-23.92,-13.709L-23.92,9.117C-23.92,9.945 -23.249,10.616 -22.421,10.616L-19.86,10.616C-19.032,10.616 -18.36,9.945 -18.36,9.117L-18.36,-5.192L-14.221,-5.192L-14.221,9.117C-14.221,9.945 -13.55,10.616 -12.722,10.616L-10.161,10.616C-9.333,10.616 -8.661,9.945 -8.661,9.117L-8.661,-13.709L-3.932,-8.98C-2.846,-7.894 -1.086,-7.894 0,-8.98C1.086,-10.065 1.086,-11.825 0,-12.911Z" style="fill:#bdc660;fill-rule:nonzero;"/>
            </g>
            <g transform="matrix(0,-1.01734,-1.01734,0,1380.49,625.648)">
                <circle cx="-6.104" cy="0" r="6.104" style="fill:#bdc660;"/>
            </g>
        </g>
        <g transform="matrix(1,0,0,1,-10.4179,0)">
            <g transform="matrix(1.01734,0,0,1.01734,1478.08,664.489)">
                <path d="M0,-12.911L-9.638,-22.549C-10.29,-23.201 -11.144,-23.527 -11.998,-23.526L-20.584,-23.526C-21.438,-23.527 -22.292,-23.201 -22.943,-22.549L-32.582,-12.911C-33.667,-11.825 -33.667,-10.065 -32.582,-8.98C-31.496,-7.894 -29.736,-7.894 -28.65,-8.98L-23.92,-13.709L-23.92,9.117C-23.92,9.945 -23.249,10.616 -22.421,10.616L-19.86,10.616C-19.032,10.616 -18.36,9.945 -18.36,9.117L-18.36,-5.192L-14.221,-5.192L-14.221,9.117C-14.221,9.945 -13.55,10.616 -12.722,10.616L-10.161,10.616C-9.333,10.616 -8.661,9.945 -8.661,9.117L-8.661,-13.709L-3.932,-8.98C-2.846,-7.894 -1.086,-7.894 0,-8.98C1.086,-10.065 1.086,-11.825 0,-12.911Z" style="fill:#bdc660;fill-rule:nonzero;"/>
            </g>
            <g transform="matrix(0,-1.01734,-1.01734,0,1461.51,625.648)">
                <circle cx="-6.104" cy="0" r="6.104" style="fill:#bdc660;"/>
            </g>
        </g>
        <g transform="matrix(1,0,0,1,-10.4179,58.2664)">
            <g transform="matrix(1.01734,0,0,1.01734,1478.08,664.489)">
                <path d="M0,-12.911L-9.638,-22.549C-10.29,-23.201 -11.144,-23.527 -11.998,-23.526L-20.584,-23.526C-21.438,-23.527 -22.292,-23.201 -22.943,-22.549L-32.582,-12.911C-33.667,-11.825 -33.667,-10.065 -32.582,-8.98C-31.496,-7.894 -29.736,-7.894 -28.65,-8.98L-23.92,-13.709L-23.92,9.117C-23.92,9.945 -23.249,10.616 -22.421,10.616L-19.86,10.616C-19.032,10.616 -18.36,9.945 -18.36,9.117L-18.36,-5.192L-14.221,-5.192L-14.221,9.117C-14.221,9.945 -13.55,10.616 -12.722,10.616L-10.161,10.616C-9.333,10.616 -8.661,9.945 -8.661,9.117L-8.661,-13.709L-3.932,-8.98C-2.846,-7.894 -1.086,-7.894 0,-8.98C1.086,-10.065 1.086,-11.825 0,-12.911Z" style="fill:#bdc660;fill-rule:nonzero;"/>
            </g>
            <g transform="matrix(0,-1.01734,-1.01734,0,1461.51,625.648)">
                <circle cx="-6.104" cy="0" r="6.104" style="fill:#bdc660;"/>
            </g>
        </g>
        <g transform="matrix(1,0,0,1,-10.4179,117.202)">
            <g transform="matrix(1.01734,0,0,1.01734,1478.08,664.489)">
                <path d="M0,-12.911L-9.638,-22.549C-10.29,-23.201 -11.144,-23.527 -11.998,-23.526L-20.584,-23.526C-21.438,-23.527 -22.292,-23.201 -22.943,-22.549L-32.582,-12.911C-33.667,-11.825 -33.667,-10.065 -32.582,-8.98C-31.496,-7.894 -29.736,-7.894 -28.65,-8.98L-23.92,-13.709L-23.92,9.117C-23.92,9.945 -23.249,10.616 -22.421,10.616L-19.86,10.616C-19.032,10.616 -18.36,9.945 -18.36,9.117L-18.36,-5.192L-14.221,-5.192L-14.221,9.117C-14.221,9.945 -13.55,10.616 -12.722,10.616L-10.161,10.616C-9.333,10.616 -8.661,9.945 -8.661,9.117L-8.661,-13.709L-3.932,-8.98C-2.846,-7.894 -1.086,-7.894 0,-8.98C1.086,-10.065 1.086,-11.825 0,-12.911Z" style="fill:#bdc660;fill-rule:nonzero;"/>
            </g>
            <g transform="matrix(0,-1.01734,-1.01734,0,1461.51,625.648)">
                <circle cx="-6.104" cy="0" r="6.104" style="fill:#bdc660;"/>
            </g>
        </g>
        <g transform="matrix(1,0,0,1,-10.4179,170.359)">
            <g transform="matrix(1.01734,0,0,1.01734,1478.08,664.489)">
                <path d="M0,-12.911L-9.638,-22.549C-10.29,-23.201 -11.144,-23.527 -11.998,-23.526L-20.584,-23.526C-21.438,-23.527 -22.292,-23.201 -22.943,-22.549L-32.582,-12.911C-33.667,-11.825 -33.667,-10.065 -32.582,-8.98C-31.496,-7.894 -29.736,-7.894 -28.65,-8.98L-23.92,-13.709L-23.92,9.117C-23.92,9.945 -23.249,10.616 -22.421,10.616L-19.86,10.616C-19.032,10.616 -18.36,9.945 -18.36,9.117L-18.36,-5.192L-14.221,-5.192L-14.221,9.117C-14.221,9.945 -13.55,10.616 -12.722,10.616L-10.161,10.616C-9.333,10.616 -8.661,9.945 -8.661,9.117L-8.661,-13.709L-3.932,-8.98C-2.846,-7.894 -1.086,-7.894 0,-8.98C1.086,-10.065 1.086,-11.825 0,-12.911Z" style="fill:#bdc660;fill-rule:nonzero;"/>
            </g>
            <g transform="matrix(0,-1.01734,-1.01734,0,1461.51,625.648)">
                <circle cx="-6.104" cy="0" r="6.104" style="fill:#bdc660;"/>
            </g>
        </g>
        <g transform="matrix(1,0,0,1,-6.94526,0)">
            <g transform="matrix(1.01734,0,0,1.01734,1437.57,664.489)">
                <path d="M0,-12.911L-9.638,-22.549C-10.29,-23.201 -11.144,-23.527 -11.998,-23.526L-20.584,-23.526C-21.438,-23.527 -22.292,-23.201 -22.943,-22.549L-32.582,-12.911C-33.667,-11.825 -33.667,-10.065 -32.582,-8.98C-31.496,-7.894 -29.736,-7.894 -28.65,-8.98L-23.92,-13.709L-23.92,9.117C-23.92,9.945 -23.249,10.616 -22.421,10.616L-19.86,10.616C-19.032,10.616 -18.36,9.945 -18.36,9.117L-18.36,-5.192L-14.221,-5.192L-14.221,9.117C-14.221,9.945 -13.55,10.616 -12.722,10.616L-10.161,10.616C-9.333,10.616 -8.661,9.945 -8.661,9.117L-8.661,-13.709L-3.932,-8.98C-2.846,-7.894 -1.086,-7.894 0,-8.98C1.086,-10.065 1.086,-11.825 0,-12.911Z" style="fill:#bdc660;fill-rule:nonzero;"/>
            </g>
            <g transform="matrix(0,-1.01734,-1.01734,0,1421,625.648)">
                <circle cx="-6.104" cy="0" r="6.104" style="fill:#bdc660;"/>
            </g>
        </g>
        <g transform="matrix(1,0,0,1,-6.94526,58.2664)">
            <g transform="matrix(1.01734,0,0,1.01734,1437.57,664.489)">
                <path d="M0,-12.911L-9.638,-22.549C-10.29,-23.201 -11.144,-23.527 -11.998,-23.526L-20.584,-23.526C-21.438,-23.527 -22.292,-23.201 -22.943,-22.549L-32.582,-12.911C-33.667,-11.825 -33.667,-10.065 -32.582,-8.98C-31.496,-7.894 -29.736,-7.894 -28.65,-8.98L-23.92,-13.709L-23.92,9.117C-23.92,9.945 -23.249,10.616 -22.421,10.616L-19.86,10.616C-19.032,10.616 -18.36,9.945 -18.36,9.117L-18.36,-5.192L-14.221,-5.192L-14.221,9.117C-14.221,9.945 -13.55,10.616 -12.722,10.616L-10.161,10.616C-9.333,10.616 -8.661,9.945 -8.661,9.117L-8.661,-13.709L-3.932,-8.98C-2.846,-7.894 -1.086,-7.894 0,-8.98C1.086,-10.065 1.086,-11.825 0,-12.911Z" style="fill:#bdc660;fill-rule:nonzero;"/>
            </g>
            <g transform="matrix(0,-1.01734,-1.01734,0,1421,625.648)">
                <circle cx="-6.104" cy="0" r="6.104" style="fill:#bdc660;"/>
            </g>
        </g>
        <g transform="matrix(1,0,0,1,-6.94526,117.202)">
            <g transform="matrix(1.01734,0,0,1.01734,1437.57,664.489)">
                <path d="M0,-12.911L-9.638,-22.549C-10.29,-23.201 -11.144,-23.527 -11.998,-23.526L-20.584,-23.526C-21.438,-23.527 -22.292,-23.201 -22.943,-22.549L-32.582,-12.911C-33.667,-11.825 -33.667,-10.065 -32.582,-8.98C-31.496,-7.894 -29.736,-7.894 -28.65,-8.98L-23.92,-13.709L-23.92,9.117C-23.92,9.945 -23.249,10.616 -22.421,10.616L-19.86,10.616C-19.032,10.616 -18.36,9.945 -18.36,9.117L-18.36,-5.192L-14.221,-5.192L-14.221,9.117C-14.221,9.945 -13.55,10.616 -12.722,10.616L-10.161,10.616C-9.333,10.616 -8.661,9.945 -8.661,9.117L-8.661,-13.709L-3.932,-8.98C-2.846,-7.894 -1.086,-7.894 0,-8.98C1.086,-10.065 1.086,-11.825 0,-12.911Z" style="fill:#bdc660;fill-rule:nonzero;"/>
            </g>
            <g transform="matrix(0,-1.01734,-1.01734,0,1421,625.648)">
                <circle cx="-6.104" cy="0" r="6.104" style="fill:#bdc660;"/>
            </g>
        </g>
        <g transform="matrix(1,0,0,1,-6.94526,170.359)">
            <g transform="matrix(1.01734,0,0,1.01734,1437.57,664.489)">
                <path d="M0,-12.911L-9.638,-22.549C-10.29,-23.201 -11.144,-23.527 -11.998,-23.526L-20.584,-23.526C-21.438,-23.527 -22.292,-23.201 -22.943,-22.549L-32.582,-12.911C-33.667,-11.825 -33.667,-10.065 -32.582,-8.98C-31.496,-7.894 -29.736,-7.894 -28.65,-8.98L-23.92,-13.709L-23.92,9.117C-23.92,9.945 -23.249,10.616 -22.421,10.616L-19.86,10.616C-19.032,10.616 -18.36,9.945 -18.36,9.117L-18.36,-5.192L-14.221,-5.192L-14.221,9.117C-14.221,9.945 -13.55,10.616 -12.722,10.616L-10.161,10.616C-9.333,10.616 -8.661,9.945 -8.661,9.117L-8.661,-13.709L-3.932,-8.98C-2.846,-7.894 -1.086,-7.894 0,-8.98C1.086,-10.065 1.086,-11.825 0,-12.911Z" style="fill:#bdc660;fill-rule:nonzero;"/>
            </g>
            <g transform="matrix(0,-1.01734,-1.01734,0,1421,625.648)">
                <circle cx="-6.104" cy="0" r="6.104" style="fill:#bdc660;"/>
            </g>
        </g>
        <g transform="matrix(1,0,0,1,-15.4649,0)">
            <g transform="matrix(1.01734,0,0,1.01734,1520.17,664.489)">
                <path d="M0,-12.911L-9.638,-22.549C-10.29,-23.201 -11.144,-23.527 -11.998,-23.526L-20.584,-23.526C-21.438,-23.527 -22.292,-23.201 -22.943,-22.549L-32.582,-12.911C-33.667,-11.825 -33.667,-10.065 -32.582,-8.98C-31.496,-7.894 -29.736,-7.894 -28.65,-8.98L-23.92,-13.709L-23.92,9.117C-23.92,9.945 -23.249,10.616 -22.421,10.616L-19.86,10.616C-19.032,10.616 -18.36,9.945 -18.36,9.117L-18.36,-5.192L-14.221,-5.192L-14.221,9.117C-14.221,9.945 -13.55,10.616 -12.722,10.616L-10.161,10.616C-9.333,10.616 -8.661,9.945 -8.661,9.117L-8.661,-13.709L-3.932,-8.98C-2.846,-7.894 -1.086,-7.894 0,-8.98C1.086,-10.065 1.086,-11.825 0,-12.911Z" style="fill:#bdc660;fill-rule:nonzero;"/>
            </g>
            <g transform="matrix(0,-1.01734,-1.01734,0,1503.6,625.648)">
                <circle cx="-6.104" cy="0" r="6.104" style="fill:#bdc660;"/>
            </g>
        </g>
        <g transform="matrix(1,0,0,1,21.5744,0)">
            <g transform="matrix(1.01734,0,0,1.01734,1520.17,664.489)">
                <path d="M0,-12.911L-9.638,-22.549C-10.29,-23.201 -11.144,-23.527 -11.998,-23.526L-20.584,-23.526C-21.438,-23.527 -22.292,-23.201 -22.943,-22.549L-32.582,-12.911C-33.667,-11.825 -33.667,-10.065 -32.582,-8.98C-31.496,-7.894 -29.736,-7.894 -28.65,-8.98L-23.92,-13.709L-23.92,9.117C-23.92,9.945 -23.249,10.616 -22.421,10.616L-19.86,10.616C-19.032,10.616 -18.36,9.945 -18.36,9.117L-18.36,-5.192L-14.221,-5.192L-14.221,9.117C-14.221,9.945 -13.55,10.616 -12.722,10.616L-10.161,10.616C-9.333,10.616 -8.661,9.945 -8.661,9.117L-8.661,-13.709L-3.932,-8.98C-2.846,-7.894 -1.086,-7.894 0,-8.98C1.086,-10.065 1.086,-11.825 0,-12.911Z" style="fill:#bdc660;"/>
            </g>
            <g transform="matrix(0,-1.01734,-1.01734,0,1503.6,625.648)">
                <circle cx="-6.104" cy="0" r="6.104" style="fill:#bdc660;"/>
            </g>
        </g>
        <g transform="matrix(1,0,0,1,-15.4649,58.2664)">
            <g transform="matrix(1.01734,0,0,1.01734,1520.17,664.489)">
                <path d="M0,-12.911L-9.638,-22.549C-10.29,-23.201 -11.144,-23.527 -11.998,-23.526L-20.584,-23.526C-21.438,-23.527 -22.292,-23.201 -22.943,-22.549L-32.582,-12.911C-33.667,-11.825 -33.667,-10.065 -32.582,-8.98C-31.496,-7.894 -29.736,-7.894 -28.65,-8.98L-23.92,-13.709L-23.92,9.117C-23.92,9.945 -23.249,10.616 -22.421,10.616L-19.86,10.616C-19.032,10.616 -18.36,9.945 -18.36,9.117L-18.36,-5.192L-14.221,-5.192L-14.221,9.117C-14.221,9.945 -13.55,10.616 -12.722,10.616L-10.161,10.616C-9.333,10.616 -8.661,9.945 -8.661,9.117L-8.661,-13.709L-3.932,-8.98C-2.846,-7.894 -1.086,-7.894 0,-8.98C1.086,-10.065 1.086,-11.825 0,-12.911Z" style="fill:#bdc660;fill-rule:nonzero;"/>
            </g>
            <g transform="matrix(0,-1.01734,-1.01734,0,1503.6,625.648)">
                <circle cx="-6.104" cy="0" r="6.104" style="fill:#bdc660;"/>
            </g>
        </g>
        <g transform="matrix(1,0,0,1,21.5744,58.2664)">
            <g transform="matrix(1.01734,0,0,1.01734,1520.17,664.489)">
                <path d="M0,-12.911L-9.638,-22.549C-10.29,-23.201 -11.144,-23.527 -11.998,-23.526L-20.584,-23.526C-21.438,-23.527 -22.292,-23.201 -22.943,-22.549L-32.582,-12.911C-33.667,-11.825 -33.667,-10.065 -32.582,-8.98C-31.496,-7.894 -29.736,-7.894 -28.65,-8.98L-23.92,-13.709L-23.92,9.117C-23.92,9.945 -23.249,10.616 -22.421,10.616L-19.86,10.616C-19.032,10.616 -18.36,9.945 -18.36,9.117L-18.36,-5.192L-14.221,-5.192L-14.221,9.117C-14.221,9.945 -13.55,10.616 -12.722,10.616L-10.161,10.616C-9.333,10.616 -8.661,9.945 -8.661,9.117L-8.661,-13.709L-3.932,-8.98C-2.846,-7.894 -1.086,-7.894 0,-8.98C1.086,-10.065 1.086,-11.825 0,-12.911Z" style="fill:#bdc660;fill-rule:nonzero;"/>
            </g>
            <g transform="matrix(0,-1.01734,-1.01734,0,1503.6,625.648)">
                <circle cx="-6.104" cy="0" r="6.104" style="fill:#bdc660;"/>
            </g>
        </g>
        <g transform="matrix(1,0,0,1,-15.4649,117.202)">
            <g transform="matrix(1.01734,0,0,1.01734,1520.17,664.489)">
                <path d="M0,-12.911L-9.638,-22.549C-10.29,-23.201 -11.144,-23.527 -11.998,-23.526L-20.584,-23.526C-21.438,-23.527 -22.292,-23.201 -22.943,-22.549L-32.582,-12.911C-33.667,-11.825 -33.667,-10.065 -32.582,-8.98C-31.496,-7.894 -29.736,-7.894 -28.65,-8.98L-23.92,-13.709L-23.92,9.117C-23.92,9.945 -23.249,10.616 -22.421,10.616L-19.86,10.616C-19.032,10.616 -18.36,9.945 -18.36,9.117L-18.36,-5.192L-14.221,-5.192L-14.221,9.117C-14.221,9.945 -13.55,10.616 -12.722,10.616L-10.161,10.616C-9.333,10.616 -8.661,9.945 -8.661,9.117L-8.661,-13.709L-3.932,-8.98C-2.846,-7.894 -1.086,-7.894 0,-8.98C1.086,-10.065 1.086,-11.825 0,-12.911Z" style="fill:#bdc660;fill-rule:nonzero;"/>
            </g>
            <g transform="matrix(0,-1.01734,-1.01734,0,1503.6,625.648)">
                <circle cx="-6.104" cy="0" r="6.104" style="fill:#bdc660;"/>
            </g>
        </g>
        <g transform="matrix(1,0,0,1,21.5744,117.202)">
            <g transform="matrix(1.01734,0,0,1.01734,1520.17,664.489)">
                <path d="M0,-12.911L-9.638,-22.549C-10.29,-23.201 -11.144,-23.527 -11.998,-23.526L-20.584,-23.526C-21.438,-23.527 -22.292,-23.201 -22.943,-22.549L-32.582,-12.911C-33.667,-11.825 -33.667,-10.065 -32.582,-8.98C-31.496,-7.894 -29.736,-7.894 -28.65,-8.98L-23.92,-13.709L-23.92,9.117C-23.92,9.945 -23.249,10.616 -22.421,10.616L-19.86,10.616C-19.032,10.616 -18.36,9.945 -18.36,9.117L-18.36,-5.192L-14.221,-5.192L-14.221,9.117C-14.221,9.945 -13.55,10.616 -12.722,10.616L-10.161,10.616C-9.333,10.616 -8.661,9.945 -8.661,9.117L-8.661,-13.709L-3.932,-8.98C-2.846,-7.894 -1.086,-7.894 0,-8.98C1.086,-10.065 1.086,-11.825 0,-12.911Z" style="fill:#bdc660;fill-rule:nonzero;"/>
            </g>
            <g transform="matrix(0,-1.01734,-1.01734,0,1503.6,625.648)">
                <circle cx="-6.104" cy="0" r="6.104" style="fill:#bdc660;"/>
            </g>
        </g>
        <g transform="matrix(1,0,0,1,-15.4649,170.359)">
            <g transform="matrix(1.01734,0,0,1.01734,1520.17,664.489)">
                <path d="M0,-12.911L-9.638,-22.549C-10.29,-23.201 -11.144,-23.527 -11.998,-23.526L-20.584,-23.526C-21.438,-23.527 -22.292,-23.201 -22.943,-22.549L-32.582,-12.911C-33.667,-11.825 -33.667,-10.065 -32.582,-8.98C-31.496,-7.894 -29.736,-7.894 -28.65,-8.98L-23.92,-13.709L-23.92,9.117C-23.92,9.945 -23.249,10.616 -22.421,10.616L-19.86,10.616C-19.032,10.616 -18.36,9.945 -18.36,9.117L-18.36,-5.192L-14.221,-5.192L-14.221,9.117C-14.221,9.945 -13.55,10.616 -12.722,10.616L-10.161,10.616C-9.333,10.616 -8.661,9.945 -8.661,9.117L-8.661,-13.709L-3.932,-8.98C-2.846,-7.894 -1.086,-7.894 0,-8.98C1.086,-10.065 1.086,-11.825 0,-12.911Z" style="fill:#bdc660;fill-rule:nonzero;"/>
            </g>
            <g transform="matrix(0,-1.01734,-1.01734,0,1503.6,625.648)">
                <circle cx="-6.104" cy="0" r="6.104" style="fill:#bdc660;"/>
            </g>
        </g>
        <g transform="matrix(1,0,0,1,21.5744,170.359)">
            <g transform="matrix(1.01734,0,0,1.01734,1520.17,664.489)">
                <path d="M0,-12.911L-9.638,-22.549C-10.29,-23.201 -11.144,-23.527 -11.998,-23.526L-20.584,-23.526C-21.438,-23.527 -22.292,-23.201 -22.943,-22.549L-32.582,-12.911C-33.667,-11.825 -33.667,-10.065 -32.582,-8.98C-31.496,-7.894 -29.736,-7.894 -28.65,-8.98L-23.92,-13.709L-23.92,9.117C-23.92,9.945 -23.249,10.616 -22.421,10.616L-19.86,10.616C-19.032,10.616 -18.36,9.945 -18.36,9.117L-18.36,-5.192L-14.221,-5.192L-14.221,9.117C-14.221,9.945 -13.55,10.616 -12.722,10.616L-10.161,10.616C-9.333,10.616 -8.661,9.945 -8.661,9.117L-8.661,-13.709L-3.932,-8.98C-2.846,-7.894 -1.086,-7.894 0,-8.98C1.086,-10.065 1.086,-11.825 0,-12.911Z" style="fill:#bdc660;fill-rule:nonzero;"/>
            </g>
            <g transform="matrix(0,-1.01734,-1.01734,0,1503.6,625.648)">
                <circle cx="-6.104" cy="0" r="6.104" style="fill:#bdc660;"/>
            </g>
        </g>
    </g>
</svg>
