<?xml version="1.0" encoding="UTF-8" standalone="no"?>
<!DOCTYPE svg PUBLIC "-//W3C//DTD SVG 1.1//EN" "http://www.w3.org/Graphics/SVG/1.1/DTD/svg11.dtd">
<svg width="100%" height="100%" viewBox="0 0 32 42" version="1.1" xmlns="http://www.w3.org/2000/svg" xmlns:xlink="http://www.w3.org/1999/xlink" xml:space="preserve" xmlns:serif="http://www.serif.com/" style="fill-rule:evenodd;clip-rule:evenodd;stroke-linejoin:round;stroke-miterlimit:10;">
    <g id="Artboard1" transform="matrix(0.7454,0,0,1.31002,-13.6054,-21.3073)">
        <rect x="18.252" y="16.265" width="42.93" height="32.061" style="fill:none;"/>
        <g transform="matrix(1.10699,0,0,0.629876,39.7778,41.3881)">
            <path d="M0,-28.872C-3.991,-28.872 -7.237,-25.601 -7.237,-21.58C-7.237,-17.588 -3.991,-14.341 0,-14.341C4.019,-14.341 7.289,-17.588 7.289,-21.58C7.289,-25.601 4.019,-28.872 0,-28.872ZM-14.049,-12.802C-15.72,-15.442 -16.603,-18.497 -16.603,-21.638C-16.603,-30.763 -9.179,-38.186 -0.054,-38.186C9.071,-38.186 16.494,-30.763 16.494,-21.638C16.494,-18.497 15.611,-15.441 13.941,-12.802L-0.054,9.314L-14.049,-12.802Z" style="fill:none;fill-rule:nonzero;stroke:#bdc660;stroke-width:2.42px;"/>
        </g>
    </g>
</svg>
