<?xml version="1.0" encoding="UTF-8" standalone="no"?>
<!DOCTYPE svg PUBLIC "-//W3C//DTD SVG 1.1//EN" "http://www.w3.org/Graphics/SVG/1.1/DTD/svg11.dtd">
<svg width="100%" height="100%" viewBox="0 0 117 94" version="1.1" xmlns="http://www.w3.org/2000/svg" xmlns:xlink="http://www.w3.org/1999/xlink" xml:space="preserve" xmlns:serif="http://www.serif.com/" style="fill-rule:evenodd;clip-rule:evenodd;stroke-miterlimit:10;">
    <g id="Artboard1" transform="matrix(1,0,0,1,-18.4741,-14.6425)">
        <rect x="18.474" y="14.642" width="116.385" height="93.742" style="fill:none;"/>
        <clipPath id="_clip1">
            <rect x="18.474" y="14.642" width="116.385" height="93.742"/>
        </clipPath>
        <g clip-path="url(#_clip1)">
            <g transform="matrix(0.994615,0,0,0.994615,-75.0062,2144.21)">
                <g transform="matrix(0.397107,0,0,0.397107,94.2601,-2139.84)">
                    <path d="M146.291,91L146.291,198" style="fill:none;fill-rule:nonzero;stroke:rgb(145,196,35);stroke-width:10.13px;"/>
                </g>
                <g transform="matrix(0.397107,0,0,0.397107,94.2601,-2139.84)">
                    <path d="M182.008,90.632L200.149,197.911" style="fill:none;fill-rule:nonzero;stroke:rgb(145,196,35);stroke-width:10.13px;"/>
                </g>
                <g transform="matrix(0.397107,0,0,0.397107,94.2601,-2139.84)">
                    <path d="M110.745,90.632L92.604,197.911" style="fill:none;fill-rule:nonzero;stroke:rgb(145,196,35);stroke-width:10.13px;"/>
                </g>
                <g transform="matrix(0.397107,0,0,0.397107,94.2601,-2139.84)">
                    <path d="M217.579,90.632L253.791,197.708" style="fill:none;fill-rule:nonzero;stroke:rgb(145,196,35);stroke-width:10.13px;"/>
                </g>
                <g transform="matrix(0.397107,0,0,0.397107,94.2601,-2139.84)">
                    <path d="M75.174,90.632L38.961,197.708" style="fill:none;fill-rule:nonzero;stroke:rgb(145,196,35);stroke-width:10.13px;"/>
                </g>
                <g transform="matrix(0.397107,0,0,0.397107,94.2601,-2139.84)">
                    <path d="M39.598,90.626L4,160.893" style="fill:none;fill-rule:nonzero;stroke:rgb(145,196,35);stroke-width:10.13px;"/>
                </g>
                <g transform="matrix(0.397107,0,0,0.397107,94.2601,-2139.84)">
                    <path d="M4.291,91L289.291,91" style="fill:none;fill-rule:nonzero;stroke:rgb(145,196,35);stroke-width:10.13px;"/>
                </g>
                <g transform="matrix(0.397107,0,0,0.397107,94.2601,-2139.84)">
                    <path d="M20.291,91L20.291,51.24L85.182,12L150.291,51.24L150.291,91" style="fill:none;fill-rule:nonzero;stroke:rgb(145,196,35);stroke-width:10.13px;stroke-miterlimit:1.5;"/>
                </g>
                <g transform="matrix(0.397107,0,0,0.397107,94.2601,-2139.84)">
                    <path d="M248.291,41C248.291,26.088 254.783,14 262.791,14C270.799,14 277.291,26.088 277.291,41C277.291,55.912 270.799,68 262.791,68C254.783,68 248.291,55.912 248.291,41Z" style="fill:none;fill-rule:nonzero;stroke:rgb(145,196,35);stroke-width:10.13px;"/>
                </g>
                <g transform="matrix(0.397107,0,0,0.397107,94.2601,-2139.84)">
                    <path d="M262.291,68L262.291,91" style="fill:none;fill-rule:nonzero;stroke:rgb(145,196,35);stroke-width:10.13px;"/>
                </g>
                <g transform="matrix(0.397107,0,0,0.397107,94.2601,-2139.84)">
                    <path d="M289.291,113L225.291,113" style="fill:none;fill-rule:nonzero;stroke:rgb(145,196,35);stroke-width:10.13px;"/>
                </g>
                <g transform="matrix(0.397107,0,0,0.397107,94.2601,-2139.84)">
                    <path d="M289.291,139L234.291,139" style="fill:none;fill-rule:nonzero;stroke:rgb(145,196,35);stroke-width:10.13px;"/>
                </g>
                <g transform="matrix(0.397107,0,0,0.397107,94.2601,-2139.84)">
                    <path d="M289.291,166L242.291,166" style="fill:none;fill-rule:nonzero;stroke:rgb(145,196,35);stroke-width:10.13px;"/>
                </g>
                <g transform="matrix(0.397107,0,0,0.397107,94.2601,-2139.84)">
                    <path d="M4.291,198L289.291,198" style="fill:none;fill-rule:nonzero;stroke:rgb(145,196,35);stroke-width:10.13px;"/>
                </g>
                <g transform="matrix(0.397107,0,0,0.397107,94.2601,-2139.84)">
                    <path d="M289.291,226L4.291,226" style="fill:none;fill-rule:nonzero;stroke:rgb(145,196,35);stroke-width:10.13px;"/>
                </g>
                <g transform="matrix(0.397107,0,0,0.397107,94.2601,-2139.84)">
                    <rect x="55.291" y="58" width="58" height="33" style="fill:none;fill-rule:nonzero;stroke:rgb(145,196,35);stroke-width:10.13px;stroke-miterlimit:1.5;"/>
                </g>
                <g transform="matrix(0.397107,0,0,0.397107,94.2601,-2139.84)">
                    <path d="M84.291,58L84.291,91" style="fill:none;fill-rule:nonzero;stroke:rgb(145,196,35);stroke-width:10.13px;stroke-miterlimit:1.5;"/>
                </g>
                <g transform="matrix(0.397107,0,0,0.397107,94.2601,-2139.84)">
                    <path d="M84.291,33L84.291,42" style="fill:none;fill-rule:nonzero;stroke:rgb(145,196,35);stroke-width:10.13px;stroke-miterlimit:1.5;"/>
                </g>
                <g transform="matrix(0.397107,0,0,0.397107,94.2601,-2139.84)">
                    <path d="M228.291,20.925L228.291,91L170.291,91L170.291,20.925L199.199,5L228.291,20.925Z" style="fill:none;stroke:rgb(145,196,35);stroke-width:10.13px;stroke-miterlimit:1.5;"/>
                </g>
                <g transform="matrix(0.397107,0,0,0.397107,94.2601,-2139.84)">
                    <path d="M170.291,28L228.291,28" style="fill:none;fill-rule:nonzero;stroke:rgb(145,196,35);stroke-width:10.13px;stroke-miterlimit:1.5;"/>
                </g>
                <g transform="matrix(0.397107,0,0,0.397107,94.2601,-2139.84)">
                    <path d="M209.291,28L209.291,91" style="fill:none;fill-rule:nonzero;stroke:rgb(145,196,35);stroke-width:10.13px;stroke-miterlimit:1.5;"/>
                </g>
            </g>
        </g>
    </g>
</svg>
