<?xml version="1.0" encoding="UTF-8" standalone="no"?>
<!DOCTYPE svg PUBLIC "-//W3C//DTD SVG 1.1//EN" "http://www.w3.org/Graphics/SVG/1.1/DTD/svg11.dtd">
<svg width="100%" height="100%" viewBox="0 0 120 72" version="1.1" xmlns="http://www.w3.org/2000/svg" xmlns:xlink="http://www.w3.org/1999/xlink" xml:space="preserve" xmlns:serif="http://www.serif.com/" style="fill-rule:evenodd;clip-rule:evenodd;stroke-miterlimit:10;">
    <g id="Artboard1" transform="matrix(1.01072,0,0,1.01636,-18.2043,-19.1065)">
        <rect x="18.011" y="18.799" width="118.509" height="69.861" style="fill:none;"/>
        <clipPath id="_clip1">
            <rect x="18.011" y="18.799" width="118.509" height="69.861"/>
        </clipPath>
        <g clip-path="url(#_clip1)">
            <g transform="matrix(0.989396,0,0,0.9839,-321.5,-455.221)">
                <g transform="matrix(2.37223,0,0,2.37223,439.304,527.107)">
                    <path d="M0,-8.286C0.001,-8.337 0.008,-8.386 0.008,-8.437C0.008,-13.526 -4.117,-17.65 -9.206,-17.65C-12.726,-17.65 -15.783,-15.674 -17.334,-12.772C-18.663,-13.652 -20.255,-14.168 -21.968,-14.168C-26.429,-14.168 -30.069,-10.692 -30.352,-6.302C-30.624,-6.331 -30.901,-6.347 -31.181,-6.347C-35.52,-6.347 -39.037,-2.83 -39.037,1.508C-39.037,5.847 -35.52,9.364 -31.181,9.364L-0.75,9.364L-0.75,9.345C-0.623,9.35 -0.499,9.364 -0.371,9.364C4.508,9.364 8.463,5.409 8.463,0.53C8.463,-4.224 4.706,-8.09 0,-8.286Z" style="fill:none;fill-rule:nonzero;stroke:#bdc660;stroke-width:1.69px;"/>
                </g>
                <g transform="matrix(1,0,0,1,0.924872,0)">
                    <g transform="matrix(0.79571,0,0,0.983936,75.2281,-6742.72)">
                        <circle cx="412.479" cy="7387.97" r="9.44" style="fill:none;stroke:#bdc660;stroke-width:4.47px;stroke-linecap:round;stroke-miterlimit:1.5;"/>
                    </g>
                    <g transform="matrix(0.79571,0,0,0.983936,57.7651,-6742.72)">
                        <path d="M418.232,7395.45C416.639,7396.68 414.643,7397.41 412.479,7397.41C407.269,7397.41 403.039,7393.18 403.039,7387.97C403.039,7382.76 407.269,7378.53 412.479,7378.53C414.643,7378.53 416.639,7379.26 418.232,7380.48" style="fill:none;stroke:#bdc660;stroke-width:4.47px;stroke-linecap:round;stroke-miterlimit:1.5;"/>
                    </g>
                    <g transform="matrix(1,0,0,1,24.2648,-6861.25)">
                        <path d="M403.466,7397.1L392.525,7397.1C392.525,7397.1 397.137,7392.36 397.526,7392.04C399.254,7390.59 402.668,7386.75 402.668,7384.07C402.668,7381.4 400.94,7379.36 397.732,7379.24C394.726,7379.13 392.671,7381.06 392.671,7384.07" style="fill:none;stroke:#bdc660;stroke-width:4px;stroke-linecap:round;stroke-linejoin:round;stroke-miterlimit:1.5;"/>
                    </g>
                </g>
            </g>
        </g>
    </g>
</svg>
