<?xml version="1.0" encoding="UTF-8" standalone="no"?>
<!DOCTYPE svg PUBLIC "-//W3C//DTD SVG 1.1//EN" "http://www.w3.org/Graphics/SVG/1.1/DTD/svg11.dtd">
<svg width="100%" height="100%" viewBox="0 0 102 123" version="1.1" xmlns="http://www.w3.org/2000/svg" xmlns:xlink="http://www.w3.org/1999/xlink" xml:space="preserve" xmlns:serif="http://www.serif.com/" style="fill-rule:evenodd;clip-rule:evenodd;stroke-miterlimit:10;">
    <g id="Artboard1" transform="matrix(0.987037,0,0,0.951111,-2.19727,-11.2088)">
        <rect x="2.226" y="11.785" width="102.644" height="128.304" style="fill:none;"/>
        <clipPath id="_clip1">
            <rect x="2.226" y="11.785" width="102.644" height="128.304"/>
        </clipPath>
        <g clip-path="url(#_clip1)">
            <g transform="matrix(1.01313,0,0,1.0514,-246.904,-471.705)">
                <g transform="matrix(2.19829,0,0,2.19829,283.136,477.971)">
                    <path d="M0,0L21.341,0" style="fill:none;fill-rule:nonzero;stroke:rgb(145,196,35);stroke-width:1.82px;"/>
                </g>
                <g transform="matrix(0,-2.19829,-2.19829,0,298.931,542.339)">
                    <path d="M-16.585,16.585L16.585,16.585" style="fill:none;fill-rule:nonzero;stroke:rgb(145,196,35);stroke-width:1.82px;stroke-linecap:round;stroke-linejoin:round;"/>
                </g>
                <g transform="matrix(0,2.19829,2.19829,0,276.816,505.09)">
                    <path d="M-12.691,-0.36L-3.408,-0.36C-0.524,-0.36 0.36,-3.642 0.36,-6.525C0.36,-9.409 -0.524,-12.691 -3.408,-12.691L-12.691,-12.691" style="fill:none;fill-rule:nonzero;stroke:rgb(145,196,35);stroke-width:1.82px;stroke-linecap:round;stroke-linejoin:round;"/>
                </g>
                <g transform="matrix(0,-2.19829,-2.19829,0,275.518,490.236)">
                    <path d="M-5.934,5.934L5.934,5.934" style="fill:none;fill-rule:nonzero;stroke:rgb(145,196,35);stroke-width:1.82px;stroke-linecap:round;stroke-linejoin:round;"/>
                </g>
                <g transform="matrix(2.19829,0,0,2.19829,300.174,477.97)">
                    <path d="M0,-6.837L5.84,-6.837C7.599,-6.837 9.024,-5.411 9.024,-3.653L9.024,0L-3.184,0L-3.184,-3.653C-3.184,-5.411 -1.759,-6.837 0,-6.837Z" style="fill:none;fill-rule:nonzero;stroke:rgb(145,196,35);stroke-width:1.82px;"/>
                </g>
                <g transform="matrix(-1.78725,-1.27993,-1.27993,1.78725,291.099,486.656)">
                    <path d="M-8.132,-10.678C-8.662,-10.299 -9.14,-9.827 -9.54,-9.268C-11.503,-6.527 -10.872,-2.714 -8.132,-0.751C-5.39,1.212 -1.577,0.581 0.386,-2.159C0.788,-2.72 1.08,-3.326 1.268,-3.952" style="fill:none;fill-rule:nonzero;stroke:rgb(145,196,35);stroke-width:1.82px;"/>
                </g>
                <g transform="matrix(0,2.19829,2.19829,0,305.731,510.275)">
                    <path d="M-2.913,-2.913L2.913,-2.913" style="fill:none;fill-rule:nonzero;stroke:rgb(145,196,35);stroke-width:1.82px;"/>
                </g>
                <g transform="matrix(0,2.19829,2.19829,0,320.266,510.275)">
                    <path d="M-2.913,-2.913L2.913,-2.913" style="fill:none;fill-rule:nonzero;stroke:rgb(145,196,35);stroke-width:1.82px;"/>
                </g>
                <g transform="matrix(2.19829,0,0,2.19829,323.365,516.681)">
                    <path d="M0,3.931L-2.282,0L-12.977,0L-15.259,3.931" style="fill:none;fill-rule:nonzero;stroke:rgb(145,196,35);stroke-width:1.82px;"/>
                </g>
                <g transform="matrix(2.19829,0,0,2.19829,342.405,555.462)">
                    <path d="M0,-12.912L-9.638,-22.55C-10.29,-23.202 -11.144,-23.527 -11.997,-23.527L-20.584,-23.527L-20.588,-23.516C-20.967,-23.516 -21.351,-23.463 -21.728,-23.326L-34.533,-18.655C-35.976,-18.129 -36.718,-16.533 -36.192,-15.09C-35.666,-13.648 -34.07,-12.905 -32.628,-13.431L-23.92,-16.607L-23.92,9.116C-23.92,9.944 -23.249,10.615 -22.421,10.615L-19.86,10.615C-19.032,10.615 -18.36,9.944 -18.36,9.116L-18.36,-5.193L-14.221,-5.193L-14.221,9.116C-14.221,9.944 -13.55,10.615 -12.722,10.615L-10.161,10.615C-9.333,10.615 -8.661,9.944 -8.661,9.116L-8.661,-13.71L-3.932,-8.98C-2.846,-7.895 -1.086,-7.895 0,-8.98C1.086,-10.066 1.086,-11.826 0,-12.912Z" style="fill:none;fill-rule:nonzero;stroke:rgb(145,196,35);stroke-width:1.82px;"/>
                </g>
            </g>
        </g>
    </g>
</svg>
