<?xml version="1.0" encoding="UTF-8" standalone="no"?>
<!DOCTYPE svg PUBLIC "-//W3C//DTD SVG 1.1//EN" "http://www.w3.org/Graphics/SVG/1.1/DTD/svg11.dtd">
<svg width="100%" height="100%" viewBox="0 0 71 97" version="1.1" xmlns="http://www.w3.org/2000/svg" xmlns:xlink="http://www.w3.org/1999/xlink" xml:space="preserve" xmlns:serif="http://www.serif.com/" style="fill-rule:evenodd;clip-rule:evenodd;stroke-miterlimit:10;">
    <g id="Artboard1" transform="matrix(0.981308,0,0,1.01964,-12.7479,0)">
        <rect x="12.991" y="0" width="71.38" height="95.129" style="fill:none;"/>
        <clipPath id="_clip1">
            <rect x="12.991" y="0" width="71.38" height="95.129"/>
        </clipPath>
        <g clip-path="url(#_clip1)">
            <g transform="matrix(1.04937,0,0,1.02266,-1045.04,-504.285)">
                <g transform="matrix(2.10212,0,0,2.10212,1042.26,584.179)">
                    <path d="M0,-42.395C0,-42.395 15.225,-23.633 15.225,-15.225C15.225,-6.816 8.408,0 0,0C-8.408,0 -15.225,-6.816 -15.225,-15.225C-15.225,-23.633 0,-42.395 0,-42.395ZM0,-39.42C-2.36,-36.358 -7.105,-29.95 -10.301,-23.952C-12.054,-20.662 -13.377,-17.53 -13.377,-15.225C-13.377,-7.83 -7.394,-1.825 0,-1.825C7.394,-1.825 13.377,-7.83 13.377,-15.225C13.377,-17.53 12.054,-20.662 10.301,-23.952C7.105,-29.95 2.36,-36.358 0,-39.42Z" style="fill:#bdc660;"/>
                </g>
                <g transform="matrix(-1.36194,1.36194,1.36194,1.36194,1019.49,565.574)">
                    <path d="M-8.539,-3.537L0.179,-3.537" style="fill:none;fill-rule:nonzero;stroke:#bdc660;stroke-width:1.99px;"/>
                </g>
                <g transform="matrix(-1.36194,1.36194,1.36194,1.36194,1033.7,568.791)">
                    <path d="M-10.21,-4.229L5.857,-4.229" style="fill:none;fill-rule:nonzero;stroke:#bdc660;stroke-width:1.99px;"/>
                </g>
                <g transform="matrix(-1.36194,1.36194,1.36194,1.36194,1041.61,587.203)">
                    <path d="M-19.769,-8.189L1.071,-8.189" style="fill:none;fill-rule:nonzero;stroke:#bdc660;stroke-width:1.99px;"/>
                </g>
                <g transform="matrix(-1.53725,1.53725,1.36194,1.36194,1055.08,585.86)">
                    <path d="M-16.567,-6.933L2.872,-6.933" style="fill:none;fill-rule:nonzero;stroke:#bdc660;stroke-width:1.87px;"/>
                </g>
            </g>
        </g>
    </g>
</svg>
