<?xml version="1.0" encoding="UTF-8" standalone="no"?>
<!DOCTYPE svg PUBLIC "-//W3C//DTD SVG 1.1//EN" "http://www.w3.org/Graphics/SVG/1.1/DTD/svg11.dtd">
<svg width="100%" height="100%" viewBox="0 0 48 36" version="1.1" xmlns="http://www.w3.org/2000/svg" xmlns:xlink="http://www.w3.org/1999/xlink" xml:space="preserve" xmlns:serif="http://www.serif.com/" style="fill-rule:evenodd;clip-rule:evenodd;stroke-miterlimit:10;">
    <g id="Artboard1" transform="matrix(1.1181,0,0,1.12287,-20.4081,-18.2634)">
        <rect x="18.252" y="16.265" width="42.93" height="32.061" style="fill:none;"/>
        <clipPath id="_clip1">
            <rect x="18.252" y="16.265" width="42.93" height="32.061"/>
        </clipPath>
        <g clip-path="url(#_clip1)">
            <g transform="matrix(0.894375,0,0,0.890574,-1154.44,-730.31)">
                <g transform="matrix(1,0,0,1,653.757,227.394)">
                    <g transform="matrix(-1.12805,0,0,1.12805,669.228,625.915)">
                        <ellipse cx="0" cy="-5.662" rx="5.661" ry="5.662" style="fill:none;stroke:rgb(145,196,35);stroke-width:2.66px;"/>
                    </g>
                    <g transform="matrix(1.12805,0,0,1.12805,660.151,630.389)">
                        <path d="M0,13.897L0,4.574C0,2.048 2.329,0 5.201,0L10.892,0C13.764,0 16.093,2.048 16.093,4.574L16.093,13.897" style="fill:none;fill-rule:nonzero;stroke:rgb(145,196,35);stroke-width:2.66px;"/>
                    </g>
                </g>
                <g transform="matrix(1,0,0,1,678.159,227.394)">
                    <g transform="matrix(-1.12805,0,0,1.12805,669.228,625.915)">
                        <ellipse cx="0" cy="-5.662" rx="5.661" ry="5.662" style="fill:none;stroke:rgb(145,196,35);stroke-width:2.66px;"/>
                    </g>
                    <g transform="matrix(1.12805,0,0,1.12805,660.151,630.389)">
                        <path d="M0,13.897L0,4.574C0,2.048 2.329,0 5.201,0L10.892,0C13.764,0 16.093,2.048 16.093,4.574L16.093,13.897" style="fill:none;fill-rule:nonzero;stroke:rgb(145,196,35);stroke-width:2.66px;"/>
                    </g>
                </g>
            </g>
        </g>
    </g>
</svg>
