<?xml version="1.0" encoding="UTF-8" standalone="no"?>
<!DOCTYPE svg PUBLIC "-//W3C//DTD SVG 1.1//EN" "http://www.w3.org/Graphics/SVG/1.1/DTD/svg11.dtd">
<svg width="100%" height="100%" viewBox="0 0 134 100" version="1.1" xmlns="http://www.w3.org/2000/svg" xmlns:xlink="http://www.w3.org/1999/xlink" xml:space="preserve" xmlns:serif="http://www.serif.com/" style="fill-rule:evenodd;clip-rule:evenodd;stroke-linecap:round;stroke-miterlimit:1.5;">
    <g transform="matrix(8.04775,0,0,7.1041,-24769.4,-21433.3)">
        <path d="M3079.92,3027.96L3078.24,3027.96L3078.24,3017.54L3088.66,3017.54L3088.66,3027.96L3082.52,3027.96" style="fill:none;stroke:#bdc660;stroke-width:0.53px;"/>
    </g>
    <g transform="matrix(4.10411,0,0,4.81376,-12546,-14498.2)">
        <path d="M3080.74,3027.96L3078.24,3027.96L3078.24,3017.54L3084.19,3017.54L3088.66,3021.32L3088.66,3027.96L3085.84,3027.96" style="fill:none;stroke:#bdc660;stroke-width:0.89px;"/>
    </g>
    <g transform="matrix(0.465382,0,0,0.465382,-1430.99,-1415.11)">
        <circle cx="3134.02" cy="3220.1" r="25.748" style="fill:none;stroke:#bdc660;stroke-width:8.6px;"/>
    </g>
    <g transform="matrix(0.465382,0,0,0.465382,-1350.37,-1415.11)">
        <circle cx="3134.02" cy="3220.1" r="25.748" style="fill:none;stroke:#bdc660;stroke-width:8.6px;"/>
    </g>
    <g transform="matrix(4.10411,0,0,4.81376,-12545.3,-14498.1)">
        <path d="M3080.61,3022.95L3084.38,3022.95L3084.38,3020.53L3083.22,3019.55L3080.61,3019.55C3080.61,3019.55 3080.61,3022.95 3080.61,3022.95Z" style="fill:none;stroke:#bdc660;stroke-width:0.89px;"/>
    </g>
</svg>
