<?xml version="1.0" encoding="UTF-8" standalone="no"?>
<!DOCTYPE svg PUBLIC "-//W3C//DTD SVG 1.1//EN" "http://www.w3.org/Graphics/SVG/1.1/DTD/svg11.dtd">
<svg width="100%" height="100%" viewBox="0 0 417 129" version="1.1" xmlns="http://www.w3.org/2000/svg" xmlns:xlink="http://www.w3.org/1999/xlink" xml:space="preserve" xmlns:serif="http://www.serif.com/" style="fill-rule:evenodd;clip-rule:evenodd;stroke-miterlimit:10;">
    <g transform="matrix(1,0,0,1,-351.189,-317.162)">
        <g transform="matrix(0,-1.76203,-1.76203,0,397.434,351.207)">
            <circle cx="-5.138" cy="0" r="5.138" style="fill:none;stroke:rgb(1,90,92);stroke-width:2.27px;"/>
        </g>
        <g transform="matrix(1.76203,0,0,1.76203,422.371,409.619)">
            <path d="M0,-10.868L-8.113,-18.981C-8.661,-19.529 -9.38,-19.803 -10.098,-19.803L-18.206,-19.803C-18.925,-19.803 -19.644,-19.529 -20.192,-18.981L-28.305,-10.868C-29.219,-9.954 -29.219,-8.473 -28.305,-7.559C-27.391,-6.645 -25.909,-6.645 -24.995,-7.559L-21.014,-11.54L-21.014,-9.194L-23.84,0.301L-21.014,0.301L-21.014,6.375C-21.014,7.789 -19.868,8.935 -18.454,8.935C-17.04,8.935 -15.894,7.789 -15.894,6.375L-15.894,0.301L-12.41,0.301L-12.41,6.375C-12.41,7.789 -11.264,8.935 -9.85,8.935C-8.437,8.935 -7.29,7.789 -7.29,6.375L-7.29,0.301L-4.465,0.301L-7.29,-9.194L-7.29,-11.54L-3.309,-7.559C-2.395,-6.645 -0.914,-6.645 0,-7.559C0.914,-8.473 0.914,-9.954 0,-10.868Z" style="fill:none;fill-rule:nonzero;stroke:rgb(1,90,92);stroke-width:2.27px;"/>
        </g>
        <g transform="matrix(0,-1.76203,-1.76203,0,459.744,351.207)">
            <circle cx="-5.138" cy="0" r="5.138" style="fill:none;stroke:rgb(1,90,92);stroke-width:2.27px;"/>
        </g>
        <g transform="matrix(1.76203,0,0,1.76203,484.681,409.619)">
            <path d="M0,-10.868L-8.113,-18.981C-8.661,-19.529 -9.38,-19.803 -10.098,-19.803L-18.206,-19.803C-18.925,-19.803 -19.644,-19.529 -20.192,-18.981L-28.305,-10.868C-29.219,-9.954 -29.219,-8.473 -28.305,-7.559C-27.391,-6.645 -25.909,-6.645 -24.995,-7.559L-21.014,-11.54L-21.014,6.375C-21.014,7.789 -19.868,8.935 -18.454,8.935C-17.04,8.935 -15.894,7.789 -15.894,6.375L-15.894,-2.95L-12.41,-2.95L-12.41,6.375C-12.41,7.789 -11.264,8.935 -9.85,8.935C-8.437,8.935 -7.29,7.789 -7.29,6.375L-7.29,-11.54L-3.309,-7.559C-2.395,-6.645 -0.914,-6.645 0,-7.559C0.914,-8.473 0.914,-9.954 0,-10.868Z" style="fill:none;fill-rule:nonzero;stroke:rgb(1,90,92);stroke-width:2.27px;"/>
        </g>
        <g transform="matrix(0,-1.76203,-1.76203,0,524.83,337.262)">
            <circle cx="-6.104" cy="0" r="6.104" style="fill:none;stroke:rgb(1,90,92);stroke-width:2.27px;"/>
        </g>
        <g transform="matrix(1.76203,0,0,1.76203,553.535,406.657)">
            <path d="M0,-12.911L-9.638,-22.549C-10.29,-23.201 -11.144,-23.527 -11.997,-23.526L-20.584,-23.526C-21.438,-23.527 -22.292,-23.201 -22.943,-22.549L-32.582,-12.911C-33.668,-11.825 -33.668,-10.065 -32.582,-8.98C-31.496,-7.894 -29.736,-7.894 -28.65,-8.98L-23.92,-13.709L-23.92,-10.922L-27.8,2.391L-23.92,2.391L-23.92,9.117C-23.92,9.945 -23.249,10.616 -22.421,10.616L-19.86,10.616C-19.032,10.616 -18.36,9.945 -18.36,9.117L-18.36,2.391L-14.221,2.391L-14.221,9.117C-14.221,9.945 -13.55,10.616 -12.722,10.616L-10.161,10.616C-9.333,10.616 -8.661,9.945 -8.661,9.117L-8.661,2.391L-4.782,2.391L-8.661,-10.922L-8.661,-13.709L-3.932,-8.98C-2.846,-7.894 -1.086,-7.894 0,-8.98C1.086,-10.065 1.086,-11.825 0,-12.911Z" style="fill:none;fill-rule:nonzero;stroke:rgb(1,90,92);stroke-width:2.27px;"/>
        </g>
        <g transform="matrix(1.76203,0,0,1.76203,622.797,406.657)">
            <path d="M0,-12.911L-9.638,-22.549C-10.29,-23.201 -11.144,-23.527 -11.998,-23.526L-20.584,-23.526C-21.438,-23.527 -22.292,-23.201 -22.943,-22.549L-32.582,-12.911C-33.667,-11.825 -33.667,-10.065 -32.582,-8.98C-31.496,-7.894 -29.736,-7.894 -28.65,-8.98L-23.92,-13.709L-23.92,9.117C-23.92,9.945 -23.249,10.616 -22.421,10.616L-19.86,10.616C-19.032,10.616 -18.36,9.945 -18.36,9.117L-18.36,-5.192L-14.221,-5.192L-14.221,9.117C-14.221,9.945 -13.55,10.616 -12.722,10.616L-10.161,10.616C-9.333,10.616 -8.661,9.945 -8.661,9.117L-8.661,-13.709L-3.932,-8.98C-2.846,-7.894 -1.086,-7.894 0,-8.98C1.086,-10.065 1.086,-11.825 0,-12.911Z" style="fill:none;fill-rule:nonzero;stroke:rgb(1,90,92);stroke-width:2.27px;"/>
        </g>
        <g transform="matrix(0,-1.76203,-1.76203,0,594.093,337.262)">
            <circle cx="-6.104" cy="0" r="6.104" style="fill:none;stroke:rgb(1,90,92);stroke-width:2.27px;"/>
        </g>
        <g transform="matrix(0.274033,0,0,0.479969,-2072.54,-43211.2)">
            <g transform="matrix(0,-3.66426,-6.41796,0,10219.5,90759.5)">
                <circle cx="-13.75" cy="0" r="13.75" style="fill:none;stroke:rgb(1,90,92);stroke-width:2.27px;stroke-linejoin:round;"/>
            </g>
            <g transform="matrix(-2.70738,-1.54575,-2.70738,1.54575,10371.3,90866.5)">
                <path d="M-4.027,9.721L23.47,9.721" style="fill:none;fill-rule:nonzero;stroke:rgb(1,90,92);stroke-width:3.81px;stroke-linejoin:round;"/>
            </g>
        </g>
        <g transform="matrix(1.07306,0.241342,0.241342,-1.07306,677.973,346.084)">
            <path d="M0.957,-23.96L12.459,-12.458L-0.429,0.429" style="fill:none;fill-rule:nonzero;stroke:rgb(123,187,84);stroke-width:3.64px;stroke-dasharray:3.64,3.64;"/>
        </g>
        <g transform="matrix(-1.59652,-0.359074,0.241342,-1.07306,639.64,351.507)">
            <path d="M-28.25,0L-21.839,0C-15.914,0 -4.505,-0.163 6.952,-12.293" style="fill:none;fill-rule:nonzero;stroke:rgb(123,187,84);stroke-width:2.87px;stroke-dasharray:2.87,2.87;"/>
        </g>
    </g>
</svg>
