<?xml version="1.0" encoding="UTF-8" standalone="no"?>
<!DOCTYPE svg PUBLIC "-//W3C//DTD SVG 1.1//EN" "http://www.w3.org/Graphics/SVG/1.1/DTD/svg11.dtd">
<svg width="100%" height="100%" viewBox="0 0 36 36" version="1.1" xmlns="http://www.w3.org/2000/svg" xmlns:xlink="http://www.w3.org/1999/xlink" xml:space="preserve" xmlns:serif="http://www.serif.com/" style="fill-rule:evenodd;clip-rule:evenodd;stroke-miterlimit:10;">
    <g id="Artboard1" transform="matrix(0.838574,0,0,1.12287,-15.3061,-18.2634)">
        <rect x="18.252" y="16.265" width="42.93" height="32.061" style="fill:none;"/>
        <clipPath id="_clip1">
            <rect x="18.252" y="16.265" width="42.93" height="32.061"/>
        </clipPath>
        <g clip-path="url(#_clip1)">
            <g transform="matrix(1.1925,0,0,0.890574,-757.589,-623.73)">
                <g transform="matrix(-0.259163,0.431032,-0.431032,-0.259163,675.326,739.376)">
                    <path d="M0,-24.917L12.459,-12.458L0,0" style="fill:none;fill-rule:nonzero;stroke:rgb(145,196,35);stroke-width:5.96px;"/>
                </g>
                <g transform="matrix(0,-1.07887,-1.07887,0,667.225,721.798)">
                    <path d="M-23.471,-9.721C-20.982,-12.21 -17.544,-13.75 -13.75,-13.75C-6.161,-13.75 0,-7.589 0,0C0,7.589 -6.161,13.75 -13.75,13.75C-21.339,13.75 -27.5,7.589 -27.5,0" style="fill:none;stroke:rgb(145,196,35);stroke-width:2.78px;stroke-linejoin:round;"/>
                </g>
            </g>
        </g>
    </g>
</svg>
