<?xml version="1.0" encoding="UTF-8" standalone="no"?>
<!DOCTYPE svg PUBLIC "-//W3C//DTD SVG 1.1//EN" "http://www.w3.org/Graphics/SVG/1.1/DTD/svg11.dtd">
<svg width="100%" height="100%" viewBox="0 0 42 42" version="1.1" xmlns="http://www.w3.org/2000/svg" xmlns:xlink="http://www.w3.org/1999/xlink" xml:space="preserve" xmlns:serif="http://www.serif.com/" style="fill-rule:evenodd;clip-rule:evenodd;stroke-miterlimit:10;">
    <g id="Artboard1" transform="matrix(0.978337,0,0,1.31002,-17.8571,-21.3073)">
        <rect x="18.252" y="16.265" width="42.93" height="32.061" style="fill:none;"/>
        <clipPath id="_clip1">
            <rect x="18.252" y="16.265" width="42.93" height="32.061"/>
        </clipPath>
        <g clip-path="url(#_clip1)">
            <g transform="matrix(1.02214,0,0,0.763349,-837.72,-334.986)">
                <g transform="matrix(0.871199,0,0,0.871199,861.161,489.638)">
                    <path d="M0,-12.127C2.545,-16.331 6.284,-19.688 10.747,-21.757C12.385,-22.528 14.068,-23.094 15.775,-23.476C15.788,-23.48 15.809,-23.479 15.822,-23.484C16.472,-23.602 17.122,-23.258 17.377,-22.646C17.39,-22.628 17.39,-22.607 17.402,-22.59C18.924,-19.002 19.577,-15.098 19.303,-11.207C19.072,-7.861 18.159,-4.586 16.625,-1.607C13.97,3.566 9.583,7.638 4.225,9.896C2.472,10.64 0.696,11.158 -1.096,11.475" style="fill:none;fill-rule:nonzero;stroke:rgb(145,196,35);stroke-width:2.3px;"/>
                </g>
                <g transform="matrix(0.871199,0,0,0.871199,863.025,475.124)">
                    <path d="M0,13.624C0.228,18.532 -0.754,23.43 -2.858,27.878C-2.982,27.942 -3.07,27.987 -3.194,28.051C-5.292,27.663 -7.372,27.048 -9.426,26.176C-15.92,23.439 -21.237,18.503 -24.456,12.233C-26.315,8.622 -27.422,4.652 -27.701,0.597C-28.033,-4.12 -27.242,-8.852 -25.397,-13.2C-25.382,-13.221 -25.382,-13.247 -25.367,-13.268C-25.058,-14.011 -24.27,-14.427 -23.482,-14.284C-23.466,-14.279 -23.44,-14.279 -23.425,-14.274C-21.356,-13.811 -19.316,-13.125 -17.33,-12.191C-11.692,-9.576 -7.006,-5.265 -3.919,0.136C-1.564,4.26 -0.224,8.891 0,13.624Z" style="fill:none;fill-rule:nonzero;stroke:rgb(145,196,35);stroke-width:2.3px;"/>
                </g>
                <g transform="matrix(-0.396553,-0.775715,-0.775715,0.396553,861.582,478.709)">
                    <path d="M-19.755,12.088L7.396,12.088" style="fill:none;fill-rule:nonzero;stroke:rgb(145,196,35);stroke-width:2.3px;"/>
                </g>
                <g transform="matrix(0.39657,-0.775706,-0.775706,-0.39657,868.37,498.271)">
                    <path d="M-4.669,7.63L12.471,7.63" style="fill:none;fill-rule:nonzero;stroke:rgb(145,196,35);stroke-width:2.3px;"/>
                </g>
            </g>
        </g>
    </g>
</svg>
