<svg id="Calque_1" data-name="Calque 1" xmlns="http://www.w3.org/2000/svg" viewBox="0 0 600 600"><defs><style>.cls-1{fill-rule:evenodd;}</style></defs><title>ico</title><path class="cls-1" d="M369.33,332.83a6.09,6.09,0,0,0,0,9.39c25.8,23.47,31.7,57.66,13.27,75.1a6.09,6.09,0,0,0,0,9.39,8.39,8.39,0,0,0,5.16,2,7,7,0,0,0,5.16-2c24.33-22.13,18.43-65-13.27-93.88C377.44,330.15,372.28,330.15,369.33,332.83Z"/><path class="cls-1" d="M410.24,325.38c-4.14-5.44-17.95-22.44-29-27.88l9-8.84,28.31,27.88Zm-10.36,104.7c-6.9,6.8-23.47,14.27-64.21,14.27a438.31,438.31,0,0,1-69.73-6.11c-1.38-8.16-4.83-38.76-4.83-40.8h0c-.69-9.51-6.91-76.14,17.26-93.82.69-.68,1.38-.68,1.38-1.36a64.87,64.87,0,0,1,39.35-12.91c24.17,0,48.33,10.87,67.67,29.23C422,353.25,427.5,402.88,399.88,430.08ZM256.27,309.74h0C239,345.09,248,413.08,251.44,437.56a50.88,50.88,0,0,1-37.28,9.51c-13.81-1.36-25.55-8.83-34.52-19-8.29-10.88-12.43-23.8-10.36-37.4a49.3,49.3,0,0,1,5.52-17s24.17-40.79,25.55-72.07c3.45-19,4.14-39.43,4.83-57.79h0a118.89,118.89,0,0,0,15.19,45.56,7.29,7.29,0,0,0,6.22,3.39c2.07,0,4.14-1.36,5.52-2.72a.66.66,0,0,1,.69-.67c13.81-23.8,15.19-42.16,15.19-44.2v-1.36a18.24,18.24,0,0,0,4.14,3.4h0a12.09,12.09,0,0,1,3.45,2.72.67.67,0,0,1,.69.68c4.15,12.92,8.29,27.88,12.43,43.51-1.38,1.36-2.76,2-4.14,3.4h0a37.77,37.77,0,0,0-4.14,5.44.67.67,0,0,1-.69.68A27.12,27.12,0,0,1,256.27,309.74ZM181,242.43c2.07-29.91,13.81-55.75,31.07-65.94a7.12,7.12,0,0,0,3.45-6.12V148.61h22.09v21.76a7.12,7.12,0,0,0,3.45,6.12c17.27,10.19,29.69,36,31.07,65.94-14.49-4.07-23.47-19-24.16-20.39l-.69-.68c-3.45-4.08-9-1.36-9-1.36h0a6.15,6.15,0,0,0-2.76,5.44c.69,21.07-6.9,41.47-8.28,44.87h0c-5.53-12.92-8.29-28.56-8.29-44.87a2.48,2.48,0,0,0-.69-2c-.69-2-2.76-4.08-4.83-4.08H211.4a8.27,8.27,0,0,0-6.22,3.4C204.49,223.4,194.83,239,181,242.43Zm283.77,42.16c3.45.68,7.59-2,8.28-5.44s-2.07-7.48-5.52-8.16a73.8,73.8,0,0,0-33.14,2,70.65,70.65,0,0,0,2.07-32.64,7.16,7.16,0,0,0-8.29-5.43,7,7,0,0,0-5.52,8.15c3.45,18.36-2.76,32-8.29,39.44a29.89,29.89,0,0,0-4.83,4.08l-3.45-3.4c4.14-5.44,11-18.36,6.9-38.76a7.16,7.16,0,0,0-8.28-5.44,7.07,7.07,0,0,0-5.53,8.16c2.08,13.6-.69,22.44-3.45,26.52l-.69-.68a6.74,6.74,0,0,0-9.66,0l-15.88,16.32a102.36,102.36,0,0,0-49.72-12.92c-13.8,0-27.61,3.4-38.66,9.52-2.76-10.2-5.52-20.4-8.29-29.24a19.46,19.46,0,0,0,6.22.68c4.14,0,6.9-2.72,6.9-6.8,0-36.71-13.81-68.66-35.21-83.62V141.81c0-4.08-2.76-6.79-6.9-6.79H208.63c-4.14,0-6.9,2.71-6.9,6.79V167c-21.4,15-34.52,46.91-34.52,83.62,0,4.08,2.76,6.8,6.9,6.8a48.67,48.67,0,0,0,17.26-3.4c-1.38,14.28-2.07,30.6-4.14,45.55a128.46,128.46,0,0,1-2.76,14.28c-.69,12.92-15.88,42.15-15.88,42.15a.67.67,0,0,1-.69.68c-.69,1.36-11.05,24.48-12.43,32a65.48,65.48,0,0,0,13.12,47.6c20,25.15,49.71,25.15,52.47,25.15,12.43,0,24.86-4.08,35.9-10.88.7,0,1.39.68,2.08.68,1.38,0,38.66,6.8,76.63,6.8,36.6,0,61.45-6.12,73.88-18.36,26.24-25.83,28.31-67.3,8.29-103.33l16.57-16.32a6.51,6.51,0,0,0,0-9.52L433,309.06c4.83-2.72,13.11-6.12,26.92-3.4,3.45.68,7.6-2,8.29-5.44s-2.07-7.48-5.53-8.16c-20.71-3.4-33.83,2.72-39.35,6.8l-2.07-2a29.7,29.7,0,0,0,4.14-4.76C432.34,287.31,446.14,281.87,464.79,284.59Z"/></svg>