<svg id="Calque_1" data-name="Calque 1" xmlns="http://www.w3.org/2000/svg" viewBox="0 0 600 600"><defs><style>.cls-1{fill-rule:evenodd;}</style></defs><title>ico</title><path class="cls-1" d="M354.71,272.41a68.15,68.15,0,0,0-45.82,17.38h-1.35V263.72c0-24,21.13-43.44,47.17-43.47H383v26.08a40.87,40.87,0,0,1-9.67,26.08Zm0,69.54a68.11,68.11,0,0,0-45.82,17.39h-1.35V333.26c0-24,21.13-43.44,47.17-43.47H383v26.08A40.87,40.87,0,0,1,373.34,342ZM383,385.42c0,24-21.13,43.43-47.17,43.46h-28.3V402.8c0-24,21.13-43.44,47.17-43.46H383Zm-94.34,43.46H260.36c-26,0-47.14-19.47-47.17-43.46V359.34h28.3c26,0,47.15,19.47,47.18,43.46Zm-75.48-113V289.79h28.3c26,0,47.15,19.47,47.18,43.47v26.08h-1.36A68.11,68.11,0,0,0,241.49,342H222.86A40.87,40.87,0,0,1,213.19,315.87Zm0-69.54V220.25h28.3c26,0,47.15,19.47,47.18,43.47v26.07h-1.36a68.15,68.15,0,0,0-45.82-17.38H222.86A40.87,40.87,0,0,1,213.19,246.33Zm64.9-91.58,20-18.44,20,18.44c16.33,15,18.45,38.65,5,55.88a63.93,63.93,0,0,0-25,22.25,63.93,63.93,0,0,0-25-22.25C259.65,193.4,261.76,169.72,278.09,154.75Zm123.79,91.58V211.56a8.35,8.35,0,0,0-2.76-6.15,9.86,9.86,0,0,0-6.67-2.54H354.71a69.17,69.17,0,0,0-7.18.67c7.75-21.52,1.51-45.22-16.08-61.08l-26.68-24.58a10,10,0,0,0-13.34,0l-26.68,24.58c-17.58,15.86-23.82,39.56-16.08,61.08a68.91,68.91,0,0,0-7.18-.67H203.75a9.86,9.86,0,0,0-6.67,2.54,8.35,8.35,0,0,0-2.76,6.15v34.77a56.32,56.32,0,0,0,6.9,26.55,9.91,9.91,0,0,1,2.53-.47,9.86,9.86,0,0,0-6.67,2.54,8.37,8.37,0,0,0-2.76,6.15v34.77a56.29,56.29,0,0,0,6.9,26.55,10.37,10.37,0,0,1,2.53-.47,9.87,9.87,0,0,0-6.67,2.55,8.35,8.35,0,0,0-2.76,6.14v34.78c0,33.59,29.59,60.8,66,60.85h28.31v26.07c0,4.8,4.22,8.7,9.43,8.7s9.44-3.9,9.44-8.7V446.27h28.3c36.46,0,66-27.26,66-60.85V350.64a8.35,8.35,0,0,0-2.76-6.14,9.87,9.87,0,0,0-6.67-2.55,10.37,10.37,0,0,1,2.53.47,56.29,56.29,0,0,0,6.9-26.55V281.1a8.37,8.37,0,0,0-2.76-6.15,9.86,9.86,0,0,0-6.67-2.54,9.91,9.91,0,0,1,2.53.47A56.32,56.32,0,0,0,401.88,246.33Z"/></svg>