<svg id="Calque_1" data-name="Calque 1" xmlns="http://www.w3.org/2000/svg" viewBox="0 0 600 600"><defs><style>.cls-1{fill-rule:evenodd;}</style></defs><title>ico</title><path class="cls-1" d="M388,264.88a78.5,78.5,0,0,1,22.65-10.95c22.77-6.75,46.53-2.61,70.73,12.32C467.91,275.75,434.65,291.86,388,264.88Zm-17.69,16.49-1.64,12.06c-12,88.68-19.39,127.89-69,127.89s-57-39.22-69-127.91l-1.64-12c-1.63-11.92,3.43-32.6,18.4-49.83a75.84,75.84,0,0,1,6.38-6.5l0,0a66.73,66.73,0,0,1,45.81-17.61c25.8,0,42.62,13.12,52.2,24.13C366.89,248.76,372,269.45,370.33,281.37ZM117.27,266.26c46-28.37,80.27-11.36,94.2-1.41C164.39,292.15,130.82,275.82,117.27,266.26Zm379.52-6.21c-55.51-39.24-98.89-18.51-116.62-6.2a95.33,95.33,0,0,0-15.49-28.29c34.16-7.1,44.17-39.26,44.42-57.26a6.82,6.82,0,0,0-13.64-.21c0,1.82-1.42,43.47-42.7,45.1a79.69,79.69,0,0,0-53-19.48,81.13,81.13,0,0,0-52.86,19.49C205.46,211.69,204,170,204,168.1a6.82,6.82,0,1,0-13.64.2c.25,18,10.25,50.16,44.41,57.25a95.58,95.58,0,0,0-15.48,28.3c-17.81-12.39-61.47-33.32-117.38,6.21a6.86,6.86,0,0,0-1,10.37c.34.34,23,23,60.44,23,15.56,0,33.71-4,53.85-15.05a48.22,48.22,0,0,0,.37,4.89l1.64,12C228.62,379.4,236.14,435,299.72,435s71.09-55.59,82.48-139.73l1.63-12a45.67,45.67,0,0,0,.38-4.89c20,10.94,38,14.91,53.45,14.91,37.22,0,59.74-22.48,60.08-22.83a6.86,6.86,0,0,0-.95-10.37Z"/></svg>