<svg id="Calque_1" data-name="Calque 1" xmlns="http://www.w3.org/2000/svg" viewBox="0 0 600 600"><defs><style>.cls-1{fill-rule:evenodd;}</style></defs><title>ico</title><path class="cls-1" d="M260.67,194.61A68.55,68.55,0,0,1,286,180.44a59.33,59.33,0,0,1-15.84,22.69,68.37,68.37,0,0,1-25.37,14.17A59.4,59.4,0,0,1,260.67,194.61Zm19,17A69.91,69.91,0,0,0,301,177.39a65.93,65.93,0,0,0,2.05-12.19A89.05,89.05,0,0,0,289.46,167a83.18,83.18,0,0,0-38.3,19.06,70.07,70.07,0,0,0-21.31,34.26,65,65,0,0,0-2,12.18,89.35,89.35,0,0,0,13.62-1.84A83.11,83.11,0,0,0,279.7,211.64Zm-25.33,52.89c-.25.67-6.34,16.16-33.3,16.16s-33-15.49-33.3-16.16c-1.17-3.15.73-6.56,4.25-7.61s7.24.61,8.47,3.68c.25.54,4,8,20.58,8,16.83,0,20.44-7.74,20.58-8.06a7.08,7.08,0,0,1,8.6-3.53C253.67,258.17,255.52,261.44,254.37,264.53Zm81.08,154.6a95.1,95.1,0,0,1-42-9.63h0c25.55-18.21,42-46.23,42-77.66,0-29.81-14.83-56.52-38.16-74.75,3.25-8.48,3.78-16.93,4.32-26l.19-3.15c1-16.45,9.35-25.22,16.7-25.22h.2c3.3.07,10.3,0,16.76-.06s13.45.13,16.75.06h.2c7.35,0,15.66,8.77,16.7,25.22l.19,3.15c1.14,19,2.11,35.4,28.69,55,15.49,14.13,24.94,33.45,24.94,54.75C422.92,384,383.68,419.13,335.45,419.13Zm-111,0c-53.79,0-97.56-39.15-97.56-87.28,0-45.07,38.4-82.27,87.47-86.8v5.54c0,3.33,3,6,6.73,6s6.72-2.69,6.72-6v-5.86c52.23,1.61,94.2,40,94.2,87.12C322,380,278.22,419.13,224.43,419.13ZM406.52,276.86l0,0c-22-16.22-22.73-28.21-23.81-46.34l-.2-3.2c-1.58-25.22-16.63-36.57-30.13-36.57h-.53c-2,0-5.69,0-9.71,0,0,0,0,0,0-.07V172.35c0-3.33-3-6-6.73-6s-6.73,2.69-6.73,6v18.31s0,0,0,.07c-4,0-7.69,0-9.71,0h-.53c-13.5,0-28.55,11.35-30.13,36.57l-.21,3.2c-.41,6.94-.78,13-2.3,18.7a119.47,119.47,0,0,0-58.07-16.55V208.46c0-3.32-3-6-6.72-6s-6.73,2.7-6.73,6V233c-56.5,4.58-100.93,47.14-100.93,98.85,0,54.76,49.81,99.32,111,99.32A120.07,120.07,0,0,0,281.35,417a108.92,108.92,0,0,0,54.1,14.2c55.65,0,100.93-40.5,100.93-90.29C436.38,315.88,424.94,293.22,406.52,276.86Z"/></svg>